G04*
G04 #@! TF.GenerationSoftware,Altium Limited,Altium Designer,20.1.8 (145)*
G04*
G04 Layer_Color=8421504*
%FSAX24Y24*%
%MOIN*%
G70*
G04*
G04 #@! TF.SameCoordinates,7D9F505B-2EBF-4E8E-82AC-92A1240CC430*
G04*
G04*
G04 #@! TF.FilePolarity,Positive*
G04*
G01*
G75*
%ADD21R,0.0320X0.0400*%
%ADD22R,0.0400X0.0320*%
%ADD23R,0.0600X0.0600*%
%ADD24R,0.0787X0.0320*%
%ADD25O,0.1969X0.1575*%
%ADD26R,0.0600X0.0600*%
%ADD27R,0.0787X0.0787*%
G36*
X077188Y065174D02*
Y064974D01*
X076888D01*
X077088Y065174D01*
X076888Y065374D01*
X077188D01*
Y065174D01*
D02*
G37*
G36*
X076988D02*
X076788Y064974D01*
X076688D01*
Y065374D01*
X076788D01*
X076988Y065174D01*
D02*
G37*
G36*
X078249Y065060D02*
X078049Y064860D01*
X077849Y065060D01*
Y065160D01*
X078249D01*
Y065060D01*
D02*
G37*
G36*
X075278Y065053D02*
X075078Y064853D01*
X074878Y065053D01*
Y065153D01*
X075278D01*
Y065053D01*
D02*
G37*
G36*
X076027Y065039D02*
X075827Y064839D01*
X075627Y065039D01*
Y065139D01*
X076027D01*
Y065039D01*
D02*
G37*
G36*
X078249Y064660D02*
X077849D01*
Y064960D01*
X078049Y064760D01*
X078249Y064960D01*
Y064660D01*
D02*
G37*
G36*
X075278Y064653D02*
X074878D01*
Y064953D01*
X075078Y064753D01*
X075278Y064953D01*
Y064653D01*
D02*
G37*
G36*
X076027Y064639D02*
X075627D01*
Y064939D01*
X075827Y064739D01*
X076027Y064939D01*
Y064639D01*
D02*
G37*
G36*
X084261Y064544D02*
X084161D01*
X083961Y064744D01*
X084161Y064944D01*
X084261D01*
Y064544D01*
D02*
G37*
G36*
X083861Y064744D02*
X084061Y064544D01*
X083761D01*
Y064744D01*
Y064944D01*
X084061D01*
X083861Y064744D01*
D02*
G37*
G36*
X084261Y063808D02*
X084161D01*
X083961Y064008D01*
X084161Y064208D01*
X084261D01*
Y063808D01*
D02*
G37*
G36*
X083861Y064008D02*
X084061Y063808D01*
X083761D01*
Y064008D01*
Y064208D01*
X084061D01*
X083861Y064008D01*
D02*
G37*
G36*
X084261Y062973D02*
X084161D01*
X083961Y063173D01*
X084161Y063373D01*
X084261D01*
Y062973D01*
D02*
G37*
G36*
X083861Y063173D02*
X084061Y062973D01*
X083761D01*
Y063173D01*
Y063373D01*
X084061D01*
X083861Y063173D01*
D02*
G37*
G36*
X075441Y062585D02*
Y062385D01*
X075141D01*
X075341Y062585D01*
X075141Y062785D01*
X075441D01*
Y062585D01*
D02*
G37*
G36*
X075241D02*
X075041Y062385D01*
X074941D01*
Y062785D01*
X075041D01*
X075241Y062585D01*
D02*
G37*
G36*
X084286Y062453D02*
Y062253D01*
X083986D01*
X084186Y062453D01*
X083986Y062653D01*
X084286D01*
Y062453D01*
D02*
G37*
G36*
X084086D02*
X083886Y062253D01*
X083786D01*
Y062653D01*
X083886D01*
X084086Y062453D01*
D02*
G37*
G36*
X076892Y062104D02*
Y061904D01*
X076592D01*
X076792Y062104D01*
X076592Y062304D01*
X076892D01*
Y062104D01*
D02*
G37*
G36*
X076692D02*
X076492Y061904D01*
X076392D01*
Y062304D01*
X076492D01*
X076692Y062104D01*
D02*
G37*
G36*
X074314Y062069D02*
X074114Y061869D01*
X073914Y062069D01*
Y062169D01*
X074314D01*
Y062069D01*
D02*
G37*
G36*
Y061669D02*
X073914D01*
Y061969D01*
X074114Y061769D01*
X074314Y061969D01*
Y061669D01*
D02*
G37*
G36*
X084261Y061496D02*
X084161D01*
X083961Y061696D01*
X084161Y061896D01*
X084261D01*
Y061496D01*
D02*
G37*
G36*
X083861Y061696D02*
X084061Y061496D01*
X083761D01*
Y061696D01*
Y061896D01*
X084061D01*
X083861Y061696D01*
D02*
G37*
G36*
X073254Y060104D02*
Y059904D01*
X072954D01*
X073154Y060104D01*
X072954Y060304D01*
X073254D01*
Y060104D01*
D02*
G37*
G36*
X073054D02*
X072854Y059904D01*
X072754D01*
Y060304D01*
X072854D01*
X073054Y060104D01*
D02*
G37*
G36*
X052661Y059106D02*
X052461Y059306D01*
X052261Y059106D01*
Y059406D01*
X052661D01*
Y059106D01*
D02*
G37*
G36*
X051939Y059096D02*
X051739Y059296D01*
X051539Y059096D01*
Y059396D01*
X051939D01*
Y059096D01*
D02*
G37*
G36*
X052661Y059006D02*
Y058906D01*
X052261D01*
Y059006D01*
X052461Y059206D01*
X052661Y059006D01*
D02*
G37*
G36*
X051939Y058996D02*
Y058896D01*
X051539D01*
Y058996D01*
X051739Y059196D01*
X051939Y058996D01*
D02*
G37*
G36*
X059586Y058698D02*
Y058498D01*
X059286D01*
X059486Y058698D01*
X059286Y058898D01*
X059586D01*
Y058698D01*
D02*
G37*
G36*
X059386D02*
X059186Y058498D01*
X059086D01*
Y058898D01*
X059186D01*
X059386Y058698D01*
D02*
G37*
G36*
X059575Y057968D02*
Y057768D01*
X059275D01*
X059475Y057968D01*
X059275Y058168D01*
X059575D01*
Y057968D01*
D02*
G37*
G36*
X059375D02*
X059175Y057768D01*
X059075D01*
Y058168D01*
X059175D01*
X059375Y057968D01*
D02*
G37*
G36*
X059575Y057250D02*
Y057050D01*
X059275D01*
X059475Y057250D01*
X059275Y057450D01*
X059575D01*
Y057250D01*
D02*
G37*
G36*
X059375D02*
X059175Y057050D01*
X059075D01*
Y057450D01*
X059175D01*
X059375Y057250D01*
D02*
G37*
G36*
X082151Y055976D02*
X081951Y056176D01*
X081751Y055976D01*
Y056276D01*
X082151D01*
Y055976D01*
D02*
G37*
G36*
X080718Y055976D02*
X080518Y056176D01*
X080318Y055976D01*
Y056276D01*
X080718D01*
Y055976D01*
D02*
G37*
G36*
X080005D02*
X079805Y056176D01*
X079605Y055976D01*
Y056276D01*
X080005D01*
Y055976D01*
D02*
G37*
G36*
X081439Y055970D02*
X081239Y056170D01*
X081039Y055970D01*
Y056270D01*
X081439D01*
Y055970D01*
D02*
G37*
G36*
X088239Y056013D02*
X088039Y055813D01*
X087839Y056013D01*
Y056113D01*
X088239D01*
Y056013D01*
D02*
G37*
G36*
X082151Y055876D02*
Y055776D01*
X081751D01*
Y055876D01*
X081951Y056076D01*
X082151Y055876D01*
D02*
G37*
G36*
X080718Y055876D02*
Y055776D01*
X080318D01*
Y055876D01*
X080518Y056076D01*
X080718Y055876D01*
D02*
G37*
G36*
X080005D02*
Y055776D01*
X079605D01*
Y055876D01*
X079805Y056076D01*
X080005Y055876D01*
D02*
G37*
G36*
X081439Y055870D02*
Y055770D01*
X081039D01*
Y055870D01*
X081239Y056070D01*
X081439Y055870D01*
D02*
G37*
G36*
X088239Y055613D02*
X087839D01*
Y055913D01*
X088039Y055713D01*
X088239Y055913D01*
Y055613D01*
D02*
G37*
G36*
X058235Y055098D02*
Y054898D01*
X057935D01*
X058135Y055098D01*
X057935Y055298D01*
X058235D01*
Y055098D01*
D02*
G37*
G36*
X058035D02*
X057835Y054898D01*
X057735D01*
Y055298D01*
X057835D01*
X058035Y055098D01*
D02*
G37*
G36*
X079256Y054591D02*
X079156D01*
X078956Y054791D01*
X079156Y054991D01*
X079256D01*
Y054591D01*
D02*
G37*
G36*
X078856Y054791D02*
X079056Y054591D01*
X078756D01*
Y054791D01*
Y054991D01*
X079056D01*
X078856Y054791D01*
D02*
G37*
G36*
X058225Y054297D02*
Y054097D01*
X057925D01*
X058125Y054297D01*
X057925Y054497D01*
X058225D01*
Y054297D01*
D02*
G37*
G36*
X058025D02*
X057825Y054097D01*
X057725D01*
Y054497D01*
X057825D01*
X058025Y054297D01*
D02*
G37*
G36*
X080575Y053878D02*
X080375Y054078D01*
X080175Y053878D01*
Y054178D01*
X080575D01*
Y053878D01*
D02*
G37*
G36*
X079230Y053816D02*
X079130D01*
X078930Y054016D01*
X079130Y054216D01*
X079230D01*
Y053816D01*
D02*
G37*
G36*
X078830Y054016D02*
X079030Y053816D01*
X078730D01*
Y054016D01*
Y054216D01*
X079030D01*
X078830Y054016D01*
D02*
G37*
G36*
X056775Y053916D02*
Y053716D01*
X056475D01*
X056675Y053916D01*
X056475Y054116D01*
X056775D01*
Y053916D01*
D02*
G37*
G36*
X056575D02*
X056375Y053716D01*
X056275D01*
Y054116D01*
X056375D01*
X056575Y053916D01*
D02*
G37*
G36*
X080575Y053778D02*
Y053678D01*
X080175D01*
Y053778D01*
X080375Y053978D01*
X080575Y053778D01*
D02*
G37*
G36*
X082478Y053436D02*
X082278Y053636D01*
X082078Y053436D01*
Y053736D01*
X082478D01*
Y053436D01*
D02*
G37*
G36*
X081322Y053416D02*
X081122Y053616D01*
X080922Y053416D01*
Y053716D01*
X081322D01*
Y053416D01*
D02*
G37*
G36*
X082478Y053336D02*
Y053236D01*
X082078D01*
Y053336D01*
X082278Y053536D01*
X082478Y053336D01*
D02*
G37*
G36*
X081322Y053316D02*
Y053216D01*
X080922D01*
Y053316D01*
X081122Y053516D01*
X081322Y053316D01*
D02*
G37*
G36*
X058451Y052241D02*
Y052041D01*
X058151D01*
X058351Y052241D01*
X058151Y052441D01*
X058451D01*
Y052241D01*
D02*
G37*
G36*
X058251D02*
X058051Y052041D01*
X057951D01*
Y052441D01*
X058051D01*
X058251Y052241D01*
D02*
G37*
G36*
X055669Y052037D02*
Y051837D01*
X055369D01*
X055569Y052037D01*
X055369Y052237D01*
X055669D01*
Y052037D01*
D02*
G37*
G36*
X055469D02*
X055269Y051837D01*
X055169D01*
Y052237D01*
X055269D01*
X055469Y052037D01*
D02*
G37*
G36*
X083149Y051666D02*
X082949Y051866D01*
X082749Y051666D01*
Y051966D01*
X083149D01*
Y051666D01*
D02*
G37*
G36*
X082428D02*
X082228Y051866D01*
X082028Y051666D01*
Y051966D01*
X082428D01*
Y051666D01*
D02*
G37*
G36*
X081679D02*
X081479Y051866D01*
X081279Y051666D01*
Y051966D01*
X081679D01*
Y051666D01*
D02*
G37*
G36*
X067241Y051797D02*
Y051597D01*
X066941D01*
X067141Y051797D01*
X066941Y051997D01*
X067241D01*
Y051797D01*
D02*
G37*
G36*
X067041D02*
X066841Y051597D01*
X066741D01*
Y051997D01*
X066841D01*
X067041Y051797D01*
D02*
G37*
G36*
X083149Y051566D02*
Y051466D01*
X082749D01*
Y051566D01*
X082949Y051766D01*
X083149Y051566D01*
D02*
G37*
G36*
X082428D02*
Y051466D01*
X082028D01*
Y051566D01*
X082228Y051766D01*
X082428Y051566D01*
D02*
G37*
G36*
X081679D02*
Y051466D01*
X081279D01*
Y051566D01*
X081479Y051766D01*
X081679Y051566D01*
D02*
G37*
G36*
X055673Y051240D02*
Y051040D01*
X055373D01*
X055573Y051240D01*
X055373Y051440D01*
X055673D01*
Y051240D01*
D02*
G37*
G36*
X055473D02*
X055273Y051040D01*
X055173D01*
Y051440D01*
X055273D01*
X055473Y051240D01*
D02*
G37*
G36*
X058451Y050919D02*
Y050719D01*
X058151D01*
X058351Y050919D01*
X058151Y051119D01*
X058451D01*
Y050919D01*
D02*
G37*
G36*
X058251D02*
X058051Y050719D01*
X057951D01*
Y051119D01*
X058051D01*
X058251Y050919D01*
D02*
G37*
G36*
X055398Y050472D02*
Y050272D01*
X055098D01*
X055298Y050472D01*
X055098Y050672D01*
X055398D01*
Y050472D01*
D02*
G37*
G36*
X055198D02*
X054998Y050272D01*
X054898D01*
Y050672D01*
X054998D01*
X055198Y050472D01*
D02*
G37*
G36*
X057189Y049967D02*
X057089D01*
X056889Y050167D01*
X057089Y050367D01*
X057189D01*
Y049967D01*
D02*
G37*
G36*
X056789Y050167D02*
X056989Y049967D01*
X056689D01*
Y050167D01*
Y050367D01*
X056989D01*
X056789Y050167D01*
D02*
G37*
G36*
X059079Y050020D02*
Y049820D01*
X058779D01*
X058979Y050020D01*
X058779Y050220D01*
X059079D01*
Y050020D01*
D02*
G37*
G36*
X058879D02*
X058679Y049820D01*
X058579D01*
Y050220D01*
X058679D01*
X058879Y050020D01*
D02*
G37*
G36*
X081616Y048998D02*
X081416Y049198D01*
X081216Y048998D01*
Y049298D01*
X081616D01*
Y048998D01*
D02*
G37*
G36*
Y048898D02*
Y048798D01*
X081216D01*
Y048898D01*
X081416Y049098D01*
X081616Y048898D01*
D02*
G37*
G36*
X083140Y047802D02*
X083041D01*
X082840Y048002D01*
X083041Y048202D01*
X083140D01*
Y047802D01*
D02*
G37*
G36*
X082740Y048002D02*
X082941Y047802D01*
X082640D01*
Y048002D01*
Y048202D01*
X082941D01*
X082740Y048002D01*
D02*
G37*
G36*
X059875Y046418D02*
X059675Y046618D01*
X059475Y046418D01*
Y046718D01*
X059875D01*
Y046418D01*
D02*
G37*
G36*
X057930Y046555D02*
Y046355D01*
X057630D01*
X057830Y046555D01*
X057630Y046755D01*
X057930D01*
Y046555D01*
D02*
G37*
G36*
X057730D02*
X057530Y046355D01*
X057430D01*
Y046755D01*
X057530D01*
X057730Y046555D01*
D02*
G37*
G36*
X059875Y046318D02*
Y046218D01*
X059475D01*
Y046318D01*
X059675Y046518D01*
X059875Y046318D01*
D02*
G37*
G36*
X060814Y046249D02*
X060614Y046049D01*
X060414Y046249D01*
Y046349D01*
X060814D01*
Y046249D01*
D02*
G37*
G36*
Y045849D02*
X060414D01*
Y046149D01*
X060614Y045949D01*
X060814Y046149D01*
Y045849D01*
D02*
G37*
G36*
X081902Y045792D02*
X081702Y045992D01*
X081502Y045792D01*
Y046092D01*
X081902D01*
Y045792D01*
D02*
G37*
G36*
Y045692D02*
Y045592D01*
X081502D01*
Y045692D01*
X081702Y045892D01*
X081902Y045692D01*
D02*
G37*
G36*
X057917Y045238D02*
Y045038D01*
X057617D01*
X057817Y045238D01*
X057617Y045438D01*
X057917D01*
Y045238D01*
D02*
G37*
G36*
X057717D02*
X057517Y045038D01*
X057417D01*
Y045438D01*
X057517D01*
X057717Y045238D01*
D02*
G37*
G36*
X073172Y044224D02*
X072972Y044424D01*
X072772Y044224D01*
Y044524D01*
X073172D01*
Y044224D01*
D02*
G37*
G36*
Y044124D02*
Y044024D01*
X072772D01*
Y044124D01*
X072972Y044324D01*
X073172Y044124D01*
D02*
G37*
G36*
X068694Y034214D02*
X068494Y034014D01*
X068294Y034214D01*
Y034314D01*
X068694D01*
Y034214D01*
D02*
G37*
G36*
Y033814D02*
X068294D01*
Y034114D01*
X068494Y033914D01*
X068694Y034114D01*
Y033814D01*
D02*
G37*
G36*
X060348Y028589D02*
X060148Y028389D01*
X059948Y028589D01*
Y028689D01*
X060348D01*
Y028589D01*
D02*
G37*
G36*
Y028189D02*
X059948D01*
Y028489D01*
X060148Y028289D01*
X060348Y028489D01*
Y028189D01*
D02*
G37*
G36*
X015419Y025340D02*
X015319D01*
X015119Y025540D01*
X015319Y025740D01*
X015419D01*
Y025340D01*
D02*
G37*
G36*
X015019Y025540D02*
X015219Y025340D01*
X014919D01*
Y025540D01*
Y025740D01*
X015219D01*
X015019Y025540D01*
D02*
G37*
G36*
X047718Y020322D02*
X047618D01*
X047418Y020522D01*
X047618Y020722D01*
X047718D01*
Y020322D01*
D02*
G37*
G36*
X047318Y020522D02*
X047518Y020322D01*
X047218D01*
Y020522D01*
Y020722D01*
X047518D01*
X047318Y020522D01*
D02*
G37*
G36*
X015600Y019151D02*
Y018951D01*
X015300D01*
X015500Y019151D01*
X015300Y019351D01*
X015600D01*
Y019151D01*
D02*
G37*
G36*
X015400D02*
X015200Y018951D01*
X015100D01*
Y019351D01*
X015200D01*
X015400Y019151D01*
D02*
G37*
D21*
X015519Y025540D02*
D03*
X014844D02*
D03*
X075516Y062585D02*
D03*
X074841D02*
D03*
X047818Y020522D02*
D03*
X047143D02*
D03*
X058975Y057968D02*
D03*
X059650D02*
D03*
Y057250D02*
D03*
X058975D02*
D03*
X082565Y048002D02*
D03*
X083240D02*
D03*
X078681Y054791D02*
D03*
X079356D02*
D03*
X072654Y060104D02*
D03*
X073329D02*
D03*
X079330Y054016D02*
D03*
X078655D02*
D03*
X066641Y051797D02*
D03*
X067316D02*
D03*
X077263Y065174D02*
D03*
X076588D02*
D03*
X057330Y046555D02*
D03*
X058005D02*
D03*
X057289Y050167D02*
D03*
X056614D02*
D03*
X059154Y050020D02*
D03*
X058479D02*
D03*
X057851Y050919D02*
D03*
X058526D02*
D03*
X055744Y052037D02*
D03*
X055069D02*
D03*
X057851Y052241D02*
D03*
X058526D02*
D03*
X057992Y045238D02*
D03*
X057317D02*
D03*
X054798Y050472D02*
D03*
X055473D02*
D03*
X055748Y051240D02*
D03*
X055073D02*
D03*
X058986Y058698D02*
D03*
X059661D02*
D03*
X076292Y062104D02*
D03*
X076967D02*
D03*
X058300Y054297D02*
D03*
X057625D02*
D03*
X056175Y053916D02*
D03*
X056850D02*
D03*
X058310Y055098D02*
D03*
X057635D02*
D03*
X015000Y019151D02*
D03*
X015675D02*
D03*
X083686Y064008D02*
D03*
X084361D02*
D03*
X083686Y061696D02*
D03*
X084361D02*
D03*
X083686Y063173D02*
D03*
X084361D02*
D03*
X084361Y062453D02*
D03*
X083686D02*
D03*
X083686Y064744D02*
D03*
X084361D02*
D03*
D22*
X081416Y049373D02*
D03*
Y048698D02*
D03*
X081122Y053116D02*
D03*
Y053791D02*
D03*
X081951Y055676D02*
D03*
Y056351D02*
D03*
X075078Y065253D02*
D03*
Y064578D02*
D03*
X074114Y061594D02*
D03*
Y062269D02*
D03*
X079805Y056351D02*
D03*
Y055676D02*
D03*
X080518Y056351D02*
D03*
Y055676D02*
D03*
X060614Y045774D02*
D03*
Y046449D02*
D03*
X081702Y045492D02*
D03*
Y046167D02*
D03*
X088039Y055538D02*
D03*
Y056213D02*
D03*
X081479Y051366D02*
D03*
Y052041D02*
D03*
X075827Y065239D02*
D03*
Y064564D02*
D03*
X078049Y064585D02*
D03*
Y065260D02*
D03*
X072972Y043924D02*
D03*
Y044599D02*
D03*
X059675Y046793D02*
D03*
Y046118D02*
D03*
X082278Y053811D02*
D03*
Y053136D02*
D03*
X060148Y028789D02*
D03*
Y028114D02*
D03*
X080375Y054253D02*
D03*
Y053578D02*
D03*
X082949Y051366D02*
D03*
Y052041D02*
D03*
X082228D02*
D03*
Y051366D02*
D03*
X052461Y059481D02*
D03*
Y058806D02*
D03*
X051739Y058796D02*
D03*
Y059471D02*
D03*
X068494Y034414D02*
D03*
Y033739D02*
D03*
X081239Y056345D02*
D03*
Y055670D02*
D03*
D23*
X010610Y055385D02*
D03*
Y054035D02*
D03*
D24*
X062382Y018032D02*
D03*
Y018532D02*
D03*
Y019031D02*
D03*
Y019532D02*
D03*
Y020031D02*
D03*
Y020531D02*
D03*
Y021031D02*
D03*
Y021532D02*
D03*
Y022032D02*
D03*
Y022531D02*
D03*
Y023031D02*
D03*
D25*
X059716Y014736D02*
D03*
D26*
X020984Y062264D02*
D03*
X019634D02*
D03*
D27*
X020476Y025994D02*
D03*
Y027569D02*
D03*
X017327Y025994D02*
D03*
Y027569D02*
D03*
X020476Y021980D02*
D03*
Y023555D02*
D03*
X017327Y021980D02*
D03*
Y023555D02*
D03*
X020476Y017961D02*
D03*
Y019535D02*
D03*
X017327Y017961D02*
D03*
Y019535D02*
D03*
X020476Y013951D02*
D03*
Y015526D02*
D03*
X017327Y013951D02*
D03*
Y015526D02*
D03*
X027683Y025994D02*
D03*
Y027569D02*
D03*
X024533Y025994D02*
D03*
Y027569D02*
D03*
X027683Y021980D02*
D03*
Y023555D02*
D03*
X024533Y021980D02*
D03*
Y023555D02*
D03*
X027683Y017961D02*
D03*
Y019535D02*
D03*
X024533Y017961D02*
D03*
Y019535D02*
D03*
X027683Y013951D02*
D03*
Y015526D02*
D03*
X024533Y013951D02*
D03*
Y015526D02*
D03*
X034888Y025994D02*
D03*
Y027569D02*
D03*
X031738Y025994D02*
D03*
Y027569D02*
D03*
X042093Y025994D02*
D03*
Y027569D02*
D03*
X038943Y025994D02*
D03*
Y027569D02*
D03*
X049297Y025994D02*
D03*
Y027569D02*
D03*
X046148Y025994D02*
D03*
Y027569D02*
D03*
X056502Y025994D02*
D03*
Y027569D02*
D03*
X053352Y025994D02*
D03*
Y027569D02*
D03*
X034888Y021980D02*
D03*
Y023555D02*
D03*
X031738Y021980D02*
D03*
Y023555D02*
D03*
X042093Y021980D02*
D03*
Y023555D02*
D03*
X038943Y021980D02*
D03*
Y023555D02*
D03*
X049297Y021980D02*
D03*
Y023555D02*
D03*
X046148Y021980D02*
D03*
Y023555D02*
D03*
X056502Y021980D02*
D03*
Y023555D02*
D03*
X053352Y021980D02*
D03*
Y023555D02*
D03*
X034888Y017961D02*
D03*
Y019535D02*
D03*
X031738Y017961D02*
D03*
Y019535D02*
D03*
X042093Y017961D02*
D03*
Y019535D02*
D03*
X038943Y017961D02*
D03*
Y019535D02*
D03*
X049297Y015945D02*
D03*
Y017520D02*
D03*
X046148Y015945D02*
D03*
Y017520D02*
D03*
X056502Y017961D02*
D03*
Y019535D02*
D03*
X053352Y017961D02*
D03*
Y019535D02*
D03*
X034888Y013951D02*
D03*
Y015526D02*
D03*
X031738Y013951D02*
D03*
Y015526D02*
D03*
X042093Y013951D02*
D03*
Y015526D02*
D03*
X038943Y013951D02*
D03*
Y015526D02*
D03*
X056502Y013951D02*
D03*
Y015526D02*
D03*
X053352Y013951D02*
D03*
Y015526D02*
D03*
M02*
