G04*
G04 #@! TF.GenerationSoftware,Altium Limited,Altium Designer,20.1.8 (145)*
G04*
G04 Layer_Color=128*
%FSAX24Y24*%
%MOIN*%
G70*
G04*
G04 #@! TF.SameCoordinates,7D9F505B-2EBF-4E8E-82AC-92A1240CC430*
G04*
G04*
G04 #@! TF.FilePolarity,Positive*
G04*
G01*
G75*
%ADD167C,0.0020*%
D167*
X062996Y064918D02*
X063233D01*
X063114Y064800D02*
Y065036D01*
X063496Y064918D02*
X063733D01*
X063614Y064800D02*
Y065036D01*
X063996Y064918D02*
X064233D01*
X064114Y064800D02*
Y065036D01*
X015728Y064685D02*
X016516D01*
X016122Y064291D02*
Y065079D01*
X086774Y035535D02*
X087049D01*
X086911Y035398D02*
Y035673D01*
X086783Y037535D02*
X087039D01*
X086911Y037407D02*
Y037663D01*
X084774Y047362D02*
X085030D01*
X084902Y047234D02*
Y047490D01*
X084764Y044390D02*
X085039D01*
X084902Y044252D02*
Y044528D01*
X084019Y055451D02*
X084319D01*
X084169Y055301D02*
Y055601D01*
X084019Y053651D02*
X084319D01*
X084169Y053501D02*
Y053801D01*
X084019Y054451D02*
X084319D01*
X084169Y054301D02*
Y054601D01*
X084444Y056651D02*
X085294D01*
X084869Y056226D02*
Y057076D01*
X084019Y052651D02*
X084319D01*
X084169Y052501D02*
Y052801D01*
X084444Y051451D02*
X085294D01*
X084869Y051026D02*
Y051876D01*
X086318Y061652D02*
X086476D01*
X086397Y061573D02*
Y061730D01*
X086563Y061494D02*
X086721D01*
X086642Y061415D02*
Y061573D01*
X086563Y061179D02*
X086721D01*
X086642Y061100D02*
Y061258D01*
X086318Y061022D02*
X086476D01*
X086397Y060943D02*
Y061100D01*
X086563Y060864D02*
X086721D01*
X086642Y060786D02*
Y060943D01*
X086463Y058923D02*
X086739D01*
X086601Y058785D02*
Y059061D01*
X088191Y058781D02*
X088467D01*
X088329Y058644D02*
Y058919D01*
X085981Y061994D02*
X086237D01*
X086109Y061866D02*
Y062122D01*
X085980Y059101D02*
X086236D01*
X086108Y058973D02*
Y059229D01*
X086318Y060707D02*
X086476D01*
X086397Y060628D02*
Y060786D01*
X086318Y060392D02*
X086476D01*
X086397Y060313D02*
Y060471D01*
X086318Y060077D02*
X086476D01*
X086397Y059998D02*
Y060156D01*
X086563Y060234D02*
X086721D01*
X086642Y060156D02*
Y060313D01*
X086563Y059919D02*
X086721D01*
X086642Y059841D02*
Y059998D01*
X086563Y059604D02*
X086721D01*
X086642Y059526D02*
Y059683D01*
X086318Y059447D02*
X086476D01*
X086397Y059368D02*
Y059526D01*
X088191Y062317D02*
X088467D01*
X088329Y062179D02*
Y062455D01*
X086463Y062175D02*
X086739D01*
X086601Y062037D02*
Y062313D01*
X049173Y012195D02*
X049961D01*
X049567Y011801D02*
Y012589D01*
X058350Y035217D02*
X059138D01*
X058744Y034823D02*
Y035610D01*
X023785Y064016D02*
X024415D01*
X024100Y063701D02*
Y064331D01*
X017545Y064016D02*
X018175D01*
X017860Y063701D02*
Y064331D01*
X058350Y064744D02*
X059138D01*
X058744Y064350D02*
Y065138D01*
X066465Y061991D02*
X067095D01*
X066780Y061676D02*
Y062306D01*
X060225Y061991D02*
X060855D01*
X060540Y061676D02*
Y062306D01*
X027213Y064290D02*
X027449D01*
X027331Y064172D02*
Y064408D01*
X027713Y064290D02*
X027949D01*
X027831Y064172D02*
Y064408D01*
X011844Y054697D02*
X012100D01*
X011972Y054569D02*
Y054825D01*
X010344Y054697D02*
X010600D01*
X010472Y054569D02*
Y054825D01*
X010343Y041902D02*
X010598D01*
X010470Y041774D02*
Y042030D01*
X011843Y041902D02*
X012098D01*
X011970Y041774D02*
Y042030D01*
X010394Y012116D02*
X011181D01*
X010787Y011722D02*
Y012510D01*
X087579Y064685D02*
X088366D01*
X087972Y064291D02*
Y065079D01*
X075551Y012238D02*
X076338D01*
X075944Y011844D02*
Y012632D01*
X029215Y035217D02*
X030002D01*
X029609Y034823D02*
Y035610D01*
X029215Y064744D02*
X030003D01*
X029609Y064350D02*
Y065138D01*
X051091Y063740D02*
X051211D01*
X051151Y063680D02*
Y063800D01*
X050934Y064390D02*
X051054D01*
X050994Y064330D02*
Y064450D01*
X059400Y050493D02*
X059520D01*
X059460Y050433D02*
Y050553D01*
X060361Y050568D02*
X060481D01*
X060421Y050508D02*
Y050628D01*
X060361Y057249D02*
X060481D01*
X060421Y057189D02*
Y057309D01*
X060003Y058303D02*
X060123D01*
X060063Y058243D02*
Y058363D01*
X058594Y058313D02*
X058714D01*
X058654Y058253D02*
Y058373D01*
X060480Y058853D02*
X060600D01*
X060540Y058793D02*
Y058913D01*
X069129Y060042D02*
X069249D01*
X069189Y059982D02*
Y060102D01*
X068969Y059788D02*
X069089D01*
X069029Y059728D02*
Y059848D01*
X069815Y057956D02*
X069935D01*
X069875Y057896D02*
Y058016D01*
X069206Y058208D02*
X069326D01*
X069266Y058148D02*
Y058268D01*
X087525Y062400D02*
X087675D01*
X087600Y062325D02*
Y062475D01*
X086325Y055200D02*
X086475D01*
X086400Y055125D02*
Y055275D01*
X086325Y050400D02*
X086475D01*
X086400Y050325D02*
Y050475D01*
X087525Y033600D02*
X087675D01*
X087600Y033525D02*
Y033675D01*
X083925Y060000D02*
X084075D01*
X084000Y059925D02*
Y060075D01*
X085125Y057600D02*
X085275D01*
X085200Y057525D02*
Y057675D01*
X085125Y052800D02*
X085275D01*
X085200Y052725D02*
Y052875D01*
X085125Y048000D02*
X085275D01*
X085200Y047925D02*
Y048075D01*
X085125Y043200D02*
X085275D01*
X085200Y043125D02*
Y043275D01*
X085125Y038400D02*
X085275D01*
X085200Y038325D02*
Y038475D01*
X085125Y033600D02*
X085275D01*
X085200Y033525D02*
Y033675D01*
X079125Y064800D02*
X079275D01*
X079200Y064725D02*
Y064875D01*
X079125Y026400D02*
X079275D01*
X079200Y026325D02*
Y026475D01*
X079125Y021600D02*
X079275D01*
X079200Y021525D02*
Y021675D01*
X079125Y016800D02*
X079275D01*
X079200Y016725D02*
Y016875D01*
X079125Y012000D02*
X079275D01*
X079200Y011925D02*
Y012075D01*
X076725Y026400D02*
X076875D01*
X076800Y026325D02*
Y026475D01*
X076725Y012000D02*
X076875D01*
X076800Y011925D02*
Y012075D01*
X074325Y055200D02*
X074475D01*
X074400Y055125D02*
Y055275D01*
X074325Y050400D02*
X074475D01*
X074400Y050325D02*
Y050475D01*
X074325Y026400D02*
X074475D01*
X074400Y026325D02*
Y026475D01*
X074325Y012000D02*
X074475D01*
X074400Y011925D02*
Y012075D01*
X073125Y057600D02*
X073275D01*
X073200Y057525D02*
Y057675D01*
X073125Y038400D02*
X073275D01*
X073200Y038325D02*
Y038475D01*
X073125Y014400D02*
X073275D01*
X073200Y014325D02*
Y014475D01*
X070725Y052800D02*
X070875D01*
X070800Y052725D02*
Y052875D01*
X070725Y048000D02*
X070875D01*
X070800Y047925D02*
Y048075D01*
X070725Y038400D02*
X070875D01*
X070800Y038325D02*
Y038475D01*
X070725Y033600D02*
X070875D01*
X070800Y033525D02*
Y033675D01*
X069525Y016800D02*
X069675D01*
X069600Y016725D02*
Y016875D01*
X070725Y014400D02*
X070875D01*
X070800Y014325D02*
Y014475D01*
X069525Y012000D02*
X069675D01*
X069600Y011925D02*
Y012075D01*
X067125Y064800D02*
X067275D01*
X067200Y064725D02*
Y064875D01*
X067125Y060000D02*
X067275D01*
X067200Y059925D02*
Y060075D01*
X068325Y048000D02*
X068475D01*
X068400Y047925D02*
Y048075D01*
X067125Y036000D02*
X067275D01*
X067200Y035925D02*
Y036075D01*
X068325Y019200D02*
X068475D01*
X068400Y019125D02*
Y019275D01*
X068325Y014400D02*
X068475D01*
X068400Y014325D02*
Y014475D01*
X064725Y064800D02*
X064875D01*
X064800Y064725D02*
Y064875D01*
X065925Y024000D02*
X066075D01*
X066000Y023925D02*
Y024075D01*
X065925Y019200D02*
X066075D01*
X066000Y019125D02*
Y019275D01*
X064725Y016800D02*
X064875D01*
X064800Y016725D02*
Y016875D01*
X065925Y014400D02*
X066075D01*
X066000Y014325D02*
Y014475D01*
X062325Y064800D02*
X062475D01*
X062400Y064725D02*
Y064875D01*
X063525Y019200D02*
X063675D01*
X063600Y019125D02*
Y019275D01*
X063525Y014400D02*
X063675D01*
X063600Y014325D02*
Y014475D01*
X059925Y064800D02*
X060075D01*
X060000Y064725D02*
Y064875D01*
X059925Y031200D02*
X060075D01*
X060000Y031125D02*
Y031275D01*
X061125Y019200D02*
X061275D01*
X061200Y019125D02*
Y019275D01*
X059925Y016800D02*
X060075D01*
X060000Y016725D02*
Y016875D01*
X061125Y014400D02*
X061275D01*
X061200Y014325D02*
Y014475D01*
X057525Y064800D02*
X057675D01*
X057600Y064725D02*
Y064875D01*
X058725Y052800D02*
X058875D01*
X058800Y052725D02*
Y052875D01*
X057525Y040800D02*
X057675D01*
X057600Y040725D02*
Y040875D01*
X057525Y026400D02*
X057675D01*
X057600Y026325D02*
Y026475D01*
X057525Y021600D02*
X057675D01*
X057600Y021525D02*
Y021675D01*
X055125Y064800D02*
X055275D01*
X055200Y064725D02*
Y064875D01*
X056325Y057600D02*
X056475D01*
X056400Y057525D02*
Y057675D01*
X056325Y052800D02*
X056475D01*
X056400Y052725D02*
Y052875D01*
X055125Y045600D02*
X055275D01*
X055200Y045525D02*
Y045675D01*
X055125Y012000D02*
X055275D01*
X055200Y011925D02*
Y012075D01*
X053925Y052800D02*
X054075D01*
X054000Y052725D02*
Y052875D01*
X053925Y048000D02*
X054075D01*
X054000Y047925D02*
Y048075D01*
X052725Y045600D02*
X052875D01*
X052800Y045525D02*
Y045675D01*
X053925Y043200D02*
X054075D01*
X054000Y043125D02*
Y043275D01*
X053925Y038400D02*
X054075D01*
X054000Y038325D02*
Y038475D01*
X052725Y031200D02*
X052875D01*
X052800Y031125D02*
Y031275D01*
X053925Y028800D02*
X054075D01*
X054000Y028725D02*
Y028875D01*
X053925Y014400D02*
X054075D01*
X054000Y014325D02*
Y014475D01*
X052725Y012000D02*
X052875D01*
X052800Y011925D02*
Y012075D01*
X050325Y060000D02*
X050475D01*
X050400Y059925D02*
Y060075D01*
X051525Y043200D02*
X051675D01*
X051600Y043125D02*
Y043275D01*
X050325Y031200D02*
X050475D01*
X050400Y031125D02*
Y031275D01*
X051525Y024000D02*
X051675D01*
X051600Y023925D02*
Y024075D01*
X050325Y021600D02*
X050475D01*
X050400Y021525D02*
Y021675D01*
X050325Y016800D02*
X050475D01*
X050400Y016725D02*
Y016875D01*
X051525Y014400D02*
X051675D01*
X051600Y014325D02*
Y014475D01*
X050325Y012000D02*
X050475D01*
X050400Y011925D02*
Y012075D01*
X049125Y062400D02*
X049275D01*
X049200Y062325D02*
Y062475D01*
X047925Y060000D02*
X048075D01*
X048000Y059925D02*
Y060075D01*
X049125Y052800D02*
X049275D01*
X049200Y052725D02*
Y052875D01*
X047925Y045600D02*
X048075D01*
X048000Y045525D02*
Y045675D01*
X049125Y019200D02*
X049275D01*
X049200Y019125D02*
Y019275D01*
X047925Y016800D02*
X048075D01*
X048000Y016725D02*
Y016875D01*
X047925Y012000D02*
X048075D01*
X048000Y011925D02*
Y012075D01*
X046725Y062400D02*
X046875D01*
X046800Y062325D02*
Y062475D01*
X045525Y060000D02*
X045675D01*
X045600Y059925D02*
Y060075D01*
X046725Y057600D02*
X046875D01*
X046800Y057525D02*
Y057675D01*
X045525Y050400D02*
X045675D01*
X045600Y050325D02*
Y050475D01*
X046725Y043200D02*
X046875D01*
X046800Y043125D02*
Y043275D01*
X046725Y033600D02*
X046875D01*
X046800Y033525D02*
Y033675D01*
X045525Y031200D02*
X045675D01*
X045600Y031125D02*
Y031275D01*
X046725Y024000D02*
X046875D01*
X046800Y023925D02*
Y024075D01*
X046725Y019200D02*
X046875D01*
X046800Y019125D02*
Y019275D01*
X045525Y016800D02*
X045675D01*
X045600Y016725D02*
Y016875D01*
X045525Y012000D02*
X045675D01*
X045600Y011925D02*
Y012075D01*
X044325Y062400D02*
X044475D01*
X044400Y062325D02*
Y062475D01*
X043125Y060000D02*
X043275D01*
X043200Y059925D02*
Y060075D01*
X044325Y057600D02*
X044475D01*
X044400Y057525D02*
Y057675D01*
X043125Y055200D02*
X043275D01*
X043200Y055125D02*
Y055275D01*
X044325Y052800D02*
X044475D01*
X044400Y052725D02*
Y052875D01*
X043125Y045600D02*
X043275D01*
X043200Y045525D02*
Y045675D01*
X044325Y043200D02*
X044475D01*
X044400Y043125D02*
Y043275D01*
X044325Y028800D02*
X044475D01*
X044400Y028725D02*
Y028875D01*
X043125Y026400D02*
X043275D01*
X043200Y026325D02*
Y026475D01*
X044325Y024000D02*
X044475D01*
X044400Y023925D02*
Y024075D01*
X043125Y021600D02*
X043275D01*
X043200Y021525D02*
Y021675D01*
X044325Y019200D02*
X044475D01*
X044400Y019125D02*
Y019275D01*
X043125Y016800D02*
X043275D01*
X043200Y016725D02*
Y016875D01*
X043125Y012000D02*
X043275D01*
X043200Y011925D02*
Y012075D01*
X041925Y062400D02*
X042075D01*
X042000Y062325D02*
Y062475D01*
X041925Y057600D02*
X042075D01*
X042000Y057525D02*
Y057675D01*
X041925Y052800D02*
X042075D01*
X042000Y052725D02*
Y052875D01*
X040725Y045600D02*
X040875D01*
X040800Y045525D02*
Y045675D01*
X041925Y043200D02*
X042075D01*
X042000Y043125D02*
Y043275D01*
X040725Y036000D02*
X040875D01*
X040800Y035925D02*
Y036075D01*
X040725Y026400D02*
X040875D01*
X040800Y026325D02*
Y026475D01*
X040725Y021600D02*
X040875D01*
X040800Y021525D02*
Y021675D01*
X040725Y016800D02*
X040875D01*
X040800Y016725D02*
Y016875D01*
X039525Y062400D02*
X039675D01*
X039600Y062325D02*
Y062475D01*
X039525Y057600D02*
X039675D01*
X039600Y057525D02*
Y057675D01*
X039525Y052800D02*
X039675D01*
X039600Y052725D02*
Y052875D01*
X039525Y048000D02*
X039675D01*
X039600Y047925D02*
Y048075D01*
X039525Y043200D02*
X039675D01*
X039600Y043125D02*
Y043275D01*
X039525Y038400D02*
X039675D01*
X039600Y038325D02*
Y038475D01*
X038325Y036000D02*
X038475D01*
X038400Y035925D02*
Y036075D01*
X039525Y028800D02*
X039675D01*
X039600Y028725D02*
Y028875D01*
X039525Y024000D02*
X039675D01*
X039600Y023925D02*
Y024075D01*
X039525Y019200D02*
X039675D01*
X039600Y019125D02*
Y019275D01*
X037125Y028800D02*
X037275D01*
X037200Y028725D02*
Y028875D01*
X035925Y026400D02*
X036075D01*
X036000Y026325D02*
Y026475D01*
X037125Y024000D02*
X037275D01*
X037200Y023925D02*
Y024075D01*
X035925Y021600D02*
X036075D01*
X036000Y021525D02*
Y021675D01*
X037125Y019200D02*
X037275D01*
X037200Y019125D02*
Y019275D01*
X035925Y016800D02*
X036075D01*
X036000Y016725D02*
Y016875D01*
X037125Y014400D02*
X037275D01*
X037200Y014325D02*
Y014475D01*
X034725Y033600D02*
X034875D01*
X034800Y033525D02*
Y033675D01*
X033525Y026400D02*
X033675D01*
X033600Y026325D02*
Y026475D01*
X033525Y021600D02*
X033675D01*
X033600Y021525D02*
Y021675D01*
X033525Y016800D02*
X033675D01*
X033600Y016725D02*
Y016875D01*
X031125Y064800D02*
X031275D01*
X031200Y064725D02*
Y064875D01*
X031125Y060000D02*
X031275D01*
X031200Y059925D02*
Y060075D01*
X032325Y057600D02*
X032475D01*
X032400Y057525D02*
Y057675D01*
X031125Y055200D02*
X031275D01*
X031200Y055125D02*
Y055275D01*
X032325Y052800D02*
X032475D01*
X032400Y052725D02*
Y052875D01*
X031125Y050400D02*
X031275D01*
X031200Y050325D02*
Y050475D01*
X032325Y048000D02*
X032475D01*
X032400Y047925D02*
Y048075D01*
X031125Y045600D02*
X031275D01*
X031200Y045525D02*
Y045675D01*
X032325Y043200D02*
X032475D01*
X032400Y043125D02*
Y043275D01*
X031125Y040800D02*
X031275D01*
X031200Y040725D02*
Y040875D01*
X032325Y038400D02*
X032475D01*
X032400Y038325D02*
Y038475D01*
X031125Y036000D02*
X031275D01*
X031200Y035925D02*
Y036075D01*
X032325Y024000D02*
X032475D01*
X032400Y023925D02*
Y024075D01*
X032325Y019200D02*
X032475D01*
X032400Y019125D02*
Y019275D01*
X028725Y064800D02*
X028875D01*
X028800Y064725D02*
Y064875D01*
X029925Y057600D02*
X030075D01*
X030000Y057525D02*
Y057675D01*
X029925Y052800D02*
X030075D01*
X030000Y052725D02*
Y052875D01*
X029925Y048000D02*
X030075D01*
X030000Y047925D02*
Y048075D01*
X029925Y043200D02*
X030075D01*
X030000Y043125D02*
Y043275D01*
X029925Y038400D02*
X030075D01*
X030000Y038325D02*
Y038475D01*
X028725Y031200D02*
X028875D01*
X028800Y031125D02*
Y031275D01*
X029925Y024000D02*
X030075D01*
X030000Y023925D02*
Y024075D01*
X028725Y021600D02*
X028875D01*
X028800Y021525D02*
Y021675D01*
X029925Y019200D02*
X030075D01*
X030000Y019125D02*
Y019275D01*
X028725Y016800D02*
X028875D01*
X028800Y016725D02*
Y016875D01*
X027525Y033600D02*
X027675D01*
X027600Y033525D02*
Y033675D01*
X027525Y028800D02*
X027675D01*
X027600Y028725D02*
Y028875D01*
X026325Y021600D02*
X026475D01*
X026400Y021525D02*
Y021675D01*
X026325Y012000D02*
X026475D01*
X026400Y011925D02*
Y012075D01*
X025125Y062400D02*
X025275D01*
X025200Y062325D02*
Y062475D01*
X025125Y033600D02*
X025275D01*
X025200Y033525D02*
Y033675D01*
X023925Y031200D02*
X024075D01*
X024000Y031125D02*
Y031275D01*
X025125Y024000D02*
X025275D01*
X025200Y023925D02*
Y024075D01*
X025125Y014400D02*
X025275D01*
X025200Y014325D02*
Y014475D01*
X023925Y012000D02*
X024075D01*
X024000Y011925D02*
Y012075D01*
X022725Y062400D02*
X022875D01*
X022800Y062325D02*
Y062475D01*
X022725Y033600D02*
X022875D01*
X022800Y033525D02*
Y033675D01*
X021525Y031200D02*
X021675D01*
X021600Y031125D02*
Y031275D01*
X021525Y021600D02*
X021675D01*
X021600Y021525D02*
Y021675D01*
X022725Y019200D02*
X022875D01*
X022800Y019125D02*
Y019275D01*
X021525Y016800D02*
X021675D01*
X021600Y016725D02*
Y016875D01*
X022725Y014400D02*
X022875D01*
X022800Y014325D02*
Y014475D01*
X021525Y012000D02*
X021675D01*
X021600Y011925D02*
Y012075D01*
X020325Y033600D02*
X020475D01*
X020400Y033525D02*
Y033675D01*
X019125Y031200D02*
X019275D01*
X019200Y031125D02*
Y031275D01*
X019125Y021600D02*
X019275D01*
X019200Y021525D02*
Y021675D01*
X019125Y016800D02*
X019275D01*
X019200Y016725D02*
Y016875D01*
X019125Y012000D02*
X019275D01*
X019200Y011925D02*
Y012075D01*
X017925Y024000D02*
X018075D01*
X018000Y023925D02*
Y024075D01*
X017925Y019200D02*
X018075D01*
X018000Y019125D02*
Y019275D01*
X016725Y016800D02*
X016875D01*
X016800Y016725D02*
Y016875D01*
X017925Y014400D02*
X018075D01*
X018000Y014325D02*
Y014475D01*
X016725Y012000D02*
X016875D01*
X016800Y011925D02*
Y012075D01*
X014325Y064800D02*
X014475D01*
X014400Y064725D02*
Y064875D01*
X015525Y062400D02*
X015675D01*
X015600Y062325D02*
Y062475D01*
X015525Y028800D02*
X015675D01*
X015600Y028725D02*
Y028875D01*
X015525Y014400D02*
X015675D01*
X015600Y014325D02*
Y014475D01*
X014325Y012000D02*
X014475D01*
X014400Y011925D02*
Y012075D01*
X011925Y055200D02*
X012075D01*
X012000Y055125D02*
Y055275D01*
X011925Y045600D02*
X012075D01*
X012000Y045525D02*
Y045675D01*
X011925Y036000D02*
X012075D01*
X012000Y035925D02*
Y036075D01*
X011925Y016800D02*
X012075D01*
X012000Y016725D02*
Y016875D01*
X045893Y055654D02*
X046013D01*
X045953Y055594D02*
Y055714D01*
X045889Y054852D02*
X046009D01*
X045949Y054792D02*
Y054912D01*
X045869Y052940D02*
X045989D01*
X045929Y052880D02*
Y053000D01*
X047446Y052945D02*
X047566D01*
X047506Y052885D02*
Y053005D01*
X047283Y056016D02*
X047403D01*
X047343Y055956D02*
Y056076D01*
X044743Y053201D02*
X044863D01*
X044803Y053141D02*
Y053261D01*
X052115Y053917D02*
X052235D01*
X052175Y053857D02*
Y053977D01*
X043126Y049850D02*
X043246D01*
X043186Y049790D02*
Y049910D01*
X043140Y050156D02*
X043260D01*
X043200Y050096D02*
Y050216D01*
X047338Y049878D02*
X047458D01*
X047398Y049818D02*
Y049938D01*
X047326Y050206D02*
X047446D01*
X047386Y050146D02*
Y050266D01*
X047529Y048719D02*
X047649D01*
X047589Y048659D02*
Y048779D01*
X047526Y049034D02*
X047646D01*
X047586Y048974D02*
Y049094D01*
X045889Y049626D02*
X046009D01*
X045949Y049566D02*
Y049686D01*
X045893Y049289D02*
X046013D01*
X045953Y049229D02*
Y049349D01*
X044812Y048401D02*
X044932D01*
X044872Y048341D02*
Y048461D01*
X044812Y048720D02*
X044932D01*
X044872Y048660D02*
Y048780D01*
X043815Y049610D02*
X043935D01*
X043875Y049550D02*
Y049670D01*
X043816Y049303D02*
X043936D01*
X043876Y049243D02*
Y049363D01*
X041044Y039330D02*
X041164D01*
X041104Y039270D02*
Y039390D01*
X037360Y061930D02*
X037480D01*
X037420Y061870D02*
Y061990D01*
X037873Y062018D02*
X037993D01*
X037933Y061958D02*
Y062078D01*
X038080Y062487D02*
X038200D01*
X038140Y062427D02*
Y062547D01*
X027845Y061981D02*
X027965D01*
X027905Y061921D02*
Y062041D01*
X086832Y064063D02*
X086952D01*
X086892Y064003D02*
Y064123D01*
X083605Y057426D02*
X083725D01*
X083665Y057366D02*
Y057486D01*
X086832Y065957D02*
X086952D01*
X086892Y065897D02*
Y066017D01*
X085350Y060781D02*
X085470D01*
X085410Y060721D02*
Y060841D01*
X010889Y047002D02*
X011009D01*
X010949Y046942D02*
Y047062D01*
X010672Y038194D02*
X010792D01*
X010732Y038134D02*
Y038254D01*
X010966Y038746D02*
X011086D01*
X011026Y038686D02*
Y038806D01*
X012082Y062290D02*
X012202D01*
X012142Y062230D02*
Y062350D01*
X012086Y063110D02*
X012206D01*
X012146Y063050D02*
Y063170D01*
X011812Y063918D02*
X011932D01*
X011872Y063858D02*
Y063978D01*
X020678Y064464D02*
X020798D01*
X020738Y064404D02*
Y064524D01*
X020173Y064454D02*
X020293D01*
X020233Y064394D02*
Y064514D01*
X025630Y063810D02*
X025750D01*
X025690Y063750D02*
Y063870D01*
X013869Y065879D02*
X013989D01*
X013929Y065819D02*
Y065939D01*
X023671Y065345D02*
X023791D01*
X023731Y065285D02*
Y065405D01*
X013869Y063161D02*
X013989D01*
X013929Y063101D02*
Y063221D01*
X023173Y063383D02*
X023293D01*
X023233Y063323D02*
Y063443D01*
X035073Y066463D02*
X035193D01*
X035133Y066403D02*
Y066523D01*
X077989Y065832D02*
X078109D01*
X078049Y065772D02*
Y065892D01*
X077258Y062105D02*
X077378D01*
X077318Y062045D02*
Y062165D01*
X066549Y043670D02*
X066669D01*
X066609Y043610D02*
Y043730D01*
X028012Y061713D02*
X028132D01*
X028072Y061653D02*
Y061773D01*
X027135Y062213D02*
X027255D01*
X027195Y062153D02*
Y062273D01*
X037720Y062376D02*
X037840D01*
X037780Y062316D02*
Y062436D01*
X032679Y063776D02*
X032799D01*
X032739Y063716D02*
Y063836D01*
X027361Y063504D02*
X027481D01*
X027421Y063444D02*
Y063564D01*
X021169Y063370D02*
X021289D01*
X021229Y063310D02*
Y063430D01*
X067223Y047559D02*
X067343D01*
X067283Y047499D02*
Y047619D01*
X048611Y040928D02*
X048731D01*
X048671Y040868D02*
Y040988D01*
X048149Y040305D02*
X048269D01*
X048209Y040245D02*
Y040365D01*
X047986Y041819D02*
X048106D01*
X048046Y041759D02*
Y041879D01*
X047757Y041487D02*
X047877D01*
X047817Y041427D02*
Y041547D01*
X048168Y042179D02*
X048288D01*
X048228Y042119D02*
Y042239D01*
X071931Y041969D02*
X072051D01*
X071991Y041909D02*
Y042029D01*
X058839Y055097D02*
X058959D01*
X058899Y055037D02*
Y055157D01*
X058519Y057250D02*
X058639D01*
X058579Y057190D02*
Y057310D01*
X060355Y055525D02*
X060475D01*
X060415Y055465D02*
Y055585D01*
X060335Y054717D02*
X060455D01*
X060395Y054657D02*
Y054777D01*
X082544Y055845D02*
X082664D01*
X082604Y055785D02*
Y055905D01*
X081841Y054239D02*
X081961D01*
X081901Y054179D02*
Y054299D01*
X068086Y036261D02*
X068206D01*
X068146Y036201D02*
Y036321D01*
X068102Y035539D02*
X068222D01*
X068162Y035479D02*
Y035599D01*
X080152Y044424D02*
X080272D01*
X080212Y044364D02*
Y044484D01*
X079540Y044960D02*
X079660D01*
X079600Y044900D02*
Y045020D01*
X076179Y048123D02*
X076299D01*
X076239Y048063D02*
Y048183D01*
X081419Y052525D02*
X081539D01*
X081479Y052465D02*
Y052585D01*
X072909Y064312D02*
X073029D01*
X072969Y064252D02*
Y064372D01*
X072905Y061731D02*
X073025D01*
X072965Y061671D02*
Y061791D01*
X077146Y063057D02*
X077266D01*
X077206Y062997D02*
Y063116D01*
X068573Y051978D02*
X068693D01*
X068633Y051918D02*
Y052038D01*
X047110Y051680D02*
X047230D01*
X047170Y051620D02*
Y051740D01*
X059314Y045458D02*
X059434D01*
X059374Y045398D02*
Y045518D01*
X059466Y049012D02*
X059586D01*
X059526Y048952D02*
Y049072D01*
X058953Y050631D02*
X059073D01*
X059013Y050571D02*
Y050691D01*
X082253Y036111D02*
X082373D01*
X082313Y036051D02*
Y036171D01*
X078798Y056156D02*
X078918D01*
X078858Y056096D02*
Y056216D01*
X080108Y039163D02*
X080228D01*
X080168Y039103D02*
Y039223D01*
X081636Y047818D02*
X081756D01*
X081696Y047758D02*
Y047878D01*
X081950Y048202D02*
X082070D01*
X082010Y048142D02*
Y048262D01*
X082199Y048720D02*
X082319D01*
X082259Y048660D02*
Y048780D01*
X082553Y054355D02*
X082673D01*
X082613Y054295D02*
Y054415D01*
X082199Y054709D02*
X082319D01*
X082259Y054649D02*
Y054769D01*
X083479Y050960D02*
X083599D01*
X083539Y050900D02*
Y051020D01*
X083120Y050367D02*
X083240D01*
X083180Y050307D02*
Y050427D01*
X067950Y025954D02*
X068070D01*
X068010Y025894D02*
Y026014D01*
X067135Y026196D02*
X067255D01*
X067195Y026136D02*
Y026256D01*
X064540Y026076D02*
X064660D01*
X064600Y026016D02*
Y026136D01*
X061780Y025605D02*
X061900D01*
X061840Y025545D02*
Y025665D01*
X061780Y026126D02*
X061900D01*
X061840Y026066D02*
Y026186D01*
X063112Y026086D02*
X063232D01*
X063172Y026026D02*
Y026146D01*
X063100Y025579D02*
X063220D01*
X063160Y025519D02*
Y025639D01*
X064521Y025562D02*
X064641D01*
X064581Y025502D02*
Y025622D01*
X067163Y027688D02*
X067283D01*
X067223Y027628D02*
Y027748D01*
X082132Y056986D02*
X082252D01*
X082192Y056926D02*
Y057046D01*
X072664Y041591D02*
X072784D01*
X072724Y041531D02*
Y041651D01*
X052459Y039615D02*
X052579D01*
X052519Y039555D02*
Y039675D01*
X064516Y056591D02*
X064636D01*
X064576Y056531D02*
Y056651D01*
X064329Y057023D02*
X064449D01*
X064389Y056963D02*
Y057083D01*
X067432Y057145D02*
X067552D01*
X067492Y057085D02*
Y057205D01*
X063665Y058884D02*
X063785D01*
X063725Y058824D02*
Y058944D01*
X065854Y058884D02*
X065974D01*
X065914Y058824D02*
Y058944D01*
X072322Y064312D02*
X072442D01*
X072382Y064252D02*
Y064372D01*
X072317Y061729D02*
X072437D01*
X072377Y061669D02*
Y061789D01*
X049408Y042869D02*
X049528D01*
X049468Y042809D02*
Y042929D01*
X046714Y040561D02*
X046834D01*
X046774Y040501D02*
Y040621D01*
X063849Y062400D02*
X063969D01*
X063909Y062340D02*
Y062460D01*
X062341Y061359D02*
X062461D01*
X062401Y061299D02*
Y061419D01*
X064352Y061689D02*
X064472D01*
X064412Y061629D02*
Y061749D01*
X065848Y063450D02*
X065968D01*
X065908Y063390D02*
Y063510D01*
X064368Y063818D02*
X064488D01*
X064428Y063758D02*
Y063878D01*
X050859Y059213D02*
X050979D01*
X050919Y059153D02*
Y059273D01*
X050882Y061862D02*
X051002D01*
X050942Y061802D02*
Y061922D01*
X069625Y056317D02*
X069745D01*
X069685Y056257D02*
Y056377D01*
X064862Y057042D02*
X064982D01*
X064922Y056982D02*
Y057102D01*
X060158Y057643D02*
X060278D01*
X060218Y057583D02*
Y057703D01*
X065802Y060018D02*
X065922D01*
X065862Y059958D02*
Y060078D01*
X066797Y060006D02*
X066917D01*
X066857Y059946D02*
Y060066D01*
X063509Y053423D02*
X063629D01*
X063569Y053363D02*
Y053483D01*
X063554Y055999D02*
X063674D01*
X063614Y055939D02*
Y056059D01*
X059389Y056736D02*
X059509D01*
X059449Y056676D02*
Y056796D01*
X058623Y044851D02*
X058743D01*
X058683Y044791D02*
Y044911D01*
X060549Y044851D02*
X060669D01*
X060609Y044791D02*
Y044911D01*
X047413Y031179D02*
X047533D01*
X047473Y031119D02*
Y031239D01*
X048281Y031416D02*
X048401D01*
X048341Y031356D02*
Y031476D01*
X049099Y031163D02*
X049219D01*
X049159Y031102D02*
Y031223D01*
X050028Y030999D02*
X050148D01*
X050088Y030939D02*
Y031059D01*
X054807Y029469D02*
X054927D01*
X054867Y029409D02*
Y029529D01*
X052375Y031400D02*
X052495D01*
X052435Y031340D02*
Y031460D01*
X053791Y030658D02*
X053911D01*
X053851Y030598D02*
Y030718D01*
X048842Y033927D02*
X048962D01*
X048902Y033867D02*
Y033987D01*
X046445Y033412D02*
X046565D01*
X046505Y033352D02*
Y033472D01*
X046429Y032483D02*
X046549D01*
X046489Y032423D02*
Y032543D01*
X045802Y031520D02*
X045922D01*
X045862Y031460D02*
Y031580D01*
X051895Y050997D02*
X052015D01*
X051955Y050937D02*
Y051057D01*
X051795Y049846D02*
X051915D01*
X051855Y049786D02*
Y049906D01*
X051429Y047593D02*
X051549D01*
X051489Y047533D02*
Y047653D01*
X051403Y046011D02*
X051523D01*
X051463Y045951D02*
Y046071D01*
X051443Y042802D02*
X051563D01*
X051503Y042742D02*
Y042862D01*
X050694Y040425D02*
X050814D01*
X050754Y040365D02*
Y040485D01*
X040692Y011745D02*
X040812D01*
X040752Y011685D02*
Y011805D01*
X029288Y012733D02*
X029408D01*
X029348Y012673D02*
Y012793D01*
X033421Y012743D02*
X033541D01*
X033481Y012683D02*
Y012803D01*
X028195Y017054D02*
X028315D01*
X028255Y016994D02*
Y017114D01*
X028920Y019780D02*
X029040D01*
X028980Y019720D02*
Y019840D01*
X029249Y025061D02*
X029369D01*
X029309Y025001D02*
Y025121D01*
X028903Y022871D02*
X029023D01*
X028963Y022811D02*
Y022931D01*
X030429Y026699D02*
X030549D01*
X030489Y026639D02*
Y026759D01*
X032673Y026640D02*
X032793D01*
X032733Y026580D02*
Y026700D01*
X037161Y014928D02*
X037281D01*
X037221Y014868D02*
Y014988D01*
X035832Y019081D02*
X035952D01*
X035892Y019021D02*
Y019141D01*
X035960Y022890D02*
X036080D01*
X036020Y022830D02*
Y022950D01*
X036384Y027231D02*
X036504D01*
X036444Y027171D02*
Y027291D01*
X040419Y026424D02*
X040539D01*
X040479Y026364D02*
Y026484D01*
X040488Y023392D02*
X040608D01*
X040548Y023332D02*
Y023452D01*
X040537Y017822D02*
X040657D01*
X040597Y017762D02*
Y017882D01*
X044671Y012694D02*
X044791D01*
X044731Y012634D02*
Y012754D01*
X078277Y053498D02*
X078397D01*
X078337Y053438D02*
Y053558D01*
X073011Y054219D02*
X073131D01*
X073071Y054159D02*
Y054279D01*
X074183Y052944D02*
X074303D01*
X074243Y052884D02*
Y053004D01*
X074433Y052009D02*
X074553D01*
X074493Y051949D02*
Y052069D01*
X075095Y052009D02*
X075215D01*
X075155Y051949D02*
Y052069D01*
X075991Y052009D02*
X076111D01*
X076051Y051949D02*
Y052069D01*
X078596Y052353D02*
X078716D01*
X078656Y052293D02*
Y052413D01*
X011873Y013284D02*
X011993D01*
X011933Y013224D02*
Y013344D01*
X011794Y012963D02*
X011914D01*
X011854Y012903D02*
Y013023D01*
X021676Y063354D02*
X021796D01*
X021736Y063294D02*
Y063414D01*
X022175Y063380D02*
X022295D01*
X022235Y063320D02*
Y063440D01*
X026003Y063504D02*
X026123D01*
X026063Y063444D02*
Y063564D01*
X018677Y064648D02*
X018797D01*
X018737Y064588D02*
Y064708D01*
X019679Y064469D02*
X019799D01*
X019739Y064409D02*
Y064530D01*
X022161Y065603D02*
X022281D01*
X022221Y065543D02*
Y065663D01*
X036175Y065241D02*
X036295D01*
X036235Y065181D02*
Y065301D01*
X035678Y065241D02*
X035798D01*
X035738Y065181D02*
Y065301D01*
X031688Y063738D02*
X031808D01*
X031748Y063678D02*
Y063798D01*
X032192Y063714D02*
X032312D01*
X032252Y063654D02*
Y063774D01*
X033660Y062211D02*
X033780D01*
X033720Y062151D02*
Y062271D01*
X080391Y056718D02*
X080511D01*
X080451Y056658D02*
Y056778D01*
X082300Y056371D02*
X082420D01*
X082360Y056311D02*
Y056431D01*
X081515Y054360D02*
X081635D01*
X081575Y054300D02*
Y054420D01*
X079138Y055155D02*
X079258D01*
X079198Y055095D02*
Y055215D01*
X079953Y053510D02*
X080073D01*
X080013Y053450D02*
Y053570D01*
X079094Y055794D02*
X079214D01*
X079154Y055734D02*
Y055854D01*
X081697Y056961D02*
X081817D01*
X081757Y056901D02*
Y057021D01*
X079086Y056659D02*
X079206D01*
X079146Y056599D02*
Y056719D01*
X080039Y052435D02*
X080159D01*
X080099Y052375D02*
Y052495D01*
X080039Y052071D02*
X080159D01*
X080099Y052011D02*
Y052131D01*
X081772Y049098D02*
X081892D01*
X081832Y049038D02*
Y049158D01*
X085422Y050657D02*
X085542D01*
X085482Y050597D02*
Y050717D01*
X086224Y049754D02*
X086344D01*
X086284Y049694D02*
Y049814D01*
X085417Y049727D02*
X085537D01*
X085477Y049667D02*
Y049787D01*
X085422Y049418D02*
X085542D01*
X085482Y049358D02*
Y049478D01*
X085716Y050127D02*
X085836D01*
X085776Y050067D02*
Y050187D01*
X087466Y041631D02*
X087586D01*
X087526Y041571D02*
Y041691D01*
X087502Y057912D02*
X087622D01*
X087562Y057852D02*
Y057972D01*
X086638Y038098D02*
X086758D01*
X086698Y038038D02*
Y038158D01*
X088309Y040475D02*
X088429D01*
X088369Y040415D02*
Y040535D01*
X086075Y037531D02*
X086195D01*
X086135Y037471D02*
Y037591D01*
X084301Y061200D02*
X084421D01*
X084361Y061140D02*
Y061260D01*
X085048Y060305D02*
X085168D01*
X085108Y060245D02*
Y060365D01*
X080026Y063233D02*
X080146D01*
X080086Y063173D02*
Y063293D01*
X077347Y060012D02*
X077467D01*
X077407Y059952D02*
Y060072D01*
X080026Y063553D02*
X080146D01*
X080086Y063493D02*
Y063613D01*
X077701Y060011D02*
X077821D01*
X077761Y059951D02*
Y060071D01*
X083048Y045024D02*
X083168D01*
X083108Y044964D02*
Y045084D01*
X010914Y019314D02*
X011034D01*
X010974Y019254D02*
Y019374D01*
X010910Y030108D02*
X011030D01*
X010970Y030048D02*
Y030168D01*
X058499Y029124D02*
X058619D01*
X058559Y029064D02*
Y029184D01*
X060088Y029124D02*
X060208D01*
X060148Y029064D02*
Y029184D01*
X059626Y025180D02*
X059746D01*
X059686Y025120D02*
Y025240D01*
X048513Y013561D02*
X048633D01*
X048573Y013501D02*
Y013621D01*
X048513Y013981D02*
X048633D01*
X048573Y013921D02*
Y014041D01*
X067877Y017748D02*
X067997D01*
X067937Y017688D02*
Y017808D01*
X047775Y022549D02*
X047895D01*
X047835Y022489D02*
Y022609D01*
X061402Y020522D02*
X061522D01*
X061462Y020462D02*
Y020582D01*
X061551Y020036D02*
X061671D01*
X061611Y019976D02*
Y020096D01*
X043106Y028189D02*
X043226D01*
X043166Y028129D02*
Y028249D01*
X041674Y028607D02*
X041794D01*
X041734Y028547D02*
Y028667D01*
X065924Y017372D02*
X066044D01*
X065984Y017312D02*
Y017432D01*
X054565Y017602D02*
X054685D01*
X054625Y017542D02*
Y017662D01*
X054535Y016860D02*
X054655D01*
X054595Y016800D02*
Y016920D01*
X054039Y020009D02*
X054159D01*
X054099Y019949D02*
Y020069D01*
X054262Y020808D02*
X054382D01*
X054322Y020748D02*
Y020868D01*
X054642Y019205D02*
X054762D01*
X054702Y019145D02*
Y019265D01*
X054861Y020031D02*
X054981D01*
X054921Y019971D02*
Y020092D01*
X053991Y019252D02*
X054111D01*
X054051Y019192D02*
Y019312D01*
X058823Y014741D02*
X058943D01*
X058883Y014681D02*
Y014801D01*
X061446Y013179D02*
X061566D01*
X061506Y013119D02*
Y013239D01*
X065634Y015190D02*
X065754D01*
X065694Y015130D02*
Y015250D01*
X046525Y019847D02*
X046645D01*
X046585Y019787D02*
Y019907D01*
X067706Y018022D02*
X067826D01*
X067766Y017962D02*
Y018082D01*
X062915Y018041D02*
X063035D01*
X062975Y017981D02*
Y018101D01*
X062915Y022031D02*
X063035D01*
X062975Y021971D02*
Y022091D01*
X062915Y023022D02*
X063035D01*
X062975Y022962D02*
Y023082D01*
X061723Y019531D02*
X061843D01*
X061783Y019471D02*
Y019591D01*
X055138Y017251D02*
X055258D01*
X055198Y017191D02*
Y017311D01*
X050098Y021303D02*
X050218D01*
X050158Y021243D02*
Y021363D01*
X049743Y021093D02*
X049863D01*
X049803Y021033D02*
Y021153D01*
X016692Y021132D02*
X016812D01*
X016752Y021072D02*
Y021192D01*
X042033Y013297D02*
X042153D01*
X042093Y013237D02*
Y013357D01*
X081572Y063992D02*
X081692D01*
X081632Y063932D02*
Y064052D01*
X081160Y060836D02*
X081280D01*
X081220Y060776D02*
Y060896D01*
X083296Y061696D02*
X083416D01*
X083356Y061636D02*
Y061756D01*
X083296Y062453D02*
X083416D01*
X083356Y062393D02*
Y062513D01*
X083296Y063110D02*
X083416D01*
X083356Y063050D02*
Y063170D01*
X083296Y064008D02*
X083416D01*
X083356Y063948D02*
Y064068D01*
X083296Y064744D02*
X083416D01*
X083356Y064684D02*
Y064804D01*
X082392Y060568D02*
X082512D01*
X082452Y060508D02*
Y060628D01*
X081714Y059399D02*
X081834D01*
X081774Y059339D02*
Y059459D01*
X079491Y062060D02*
X079611D01*
X079551Y062000D02*
Y062120D01*
X058196Y059090D02*
X058316D01*
X058256Y059030D02*
Y059150D01*
X057879Y059310D02*
X057999D01*
X057939Y059250D02*
Y059370D01*
X035068Y032490D02*
X035188D01*
X035128Y032430D02*
Y032550D01*
X030993Y032421D02*
X031113D01*
X031053Y032361D02*
Y032481D01*
X032639Y030518D02*
X032759D01*
X032699Y030458D02*
Y030578D01*
X081098Y038634D02*
X081218D01*
X081158Y038574D02*
Y038694D01*
X081870Y035166D02*
X081990D01*
X081930Y035106D02*
Y035227D01*
X081875Y034700D02*
X081995D01*
X081935Y034640D02*
Y034760D01*
X082169Y035414D02*
X082289D01*
X082229Y035354D02*
Y035474D01*
X081910Y035655D02*
X082030D01*
X081970Y035595D02*
Y035715D01*
X082162Y034935D02*
X082282D01*
X082222Y034875D02*
Y034995D01*
X082136Y034451D02*
X082256D01*
X082196Y034391D02*
Y034511D01*
X081906Y034124D02*
X082026D01*
X081966Y034064D02*
Y034184D01*
X081951Y033528D02*
X082071D01*
X082011Y033468D02*
Y033588D01*
X082109Y033834D02*
X082229D01*
X082169Y033774D02*
Y033894D01*
X081942Y032945D02*
X082062D01*
X082002Y032885D02*
Y033005D01*
X038267Y063667D02*
X038387D01*
X038327Y063607D02*
Y063727D01*
X026781Y062402D02*
X026901D01*
X026841Y062342D02*
Y062462D01*
X027614Y062213D02*
X027734D01*
X027674Y062153D02*
Y062273D01*
X026259Y064744D02*
X026379D01*
X026319Y064684D02*
Y064804D01*
X024783Y065039D02*
X024903D01*
X024843Y064979D02*
Y065099D01*
X013159Y020266D02*
X013278D01*
X013218Y020206D02*
Y020326D01*
X014940Y020787D02*
X015060D01*
X015000Y020727D02*
Y020847D01*
X011526Y019161D02*
X011646D01*
X011586Y019101D02*
Y019221D01*
X014940Y018652D02*
X015060D01*
X015000Y018592D02*
Y018712D01*
X016070Y019161D02*
X016190D01*
X016130Y019101D02*
Y019221D01*
X012013Y028868D02*
X012133D01*
X012073Y028808D02*
Y028928D01*
X013074Y028989D02*
X013194D01*
X013134Y028929D02*
Y029049D01*
X013590Y024882D02*
X013710D01*
X013650Y024822D02*
Y024942D01*
X013327Y026762D02*
X013447D01*
X013387Y026702D02*
Y026822D01*
X014792Y024986D02*
X014912D01*
X014852Y024926D02*
Y025046D01*
X059615Y047195D02*
X059735D01*
X059675Y047135D02*
Y047255D01*
X055806Y047313D02*
X055926D01*
X055866Y047253D02*
Y047373D01*
X029861Y028868D02*
X029981D01*
X029921Y028808D02*
Y028928D01*
X029596Y028563D02*
X029716D01*
X029656Y028503D02*
Y028623D01*
X019192Y024498D02*
X019312D01*
X019252Y024438D02*
Y024558D01*
X037238Y031490D02*
X037358D01*
X037298Y031430D02*
Y031550D01*
X047239Y041230D02*
X047359D01*
X047299Y041170D02*
Y041290D01*
X058281Y045924D02*
X058401D01*
X058341Y045864D02*
Y045984D01*
X057304Y045929D02*
X057424D01*
X057364Y045869D02*
Y045989D01*
X051482Y043671D02*
X051602D01*
X051542Y043611D02*
Y043731D01*
X050533Y049510D02*
X050653D01*
X050593Y049450D02*
Y049570D01*
X049930Y036109D02*
X050050D01*
X049990Y036049D02*
Y036169D01*
X087991Y056981D02*
X088111D01*
X088051Y056921D02*
Y057041D01*
X072335Y046171D02*
X072455D01*
X072395Y046111D02*
Y046231D01*
X084930Y042559D02*
X085050D01*
X084990Y042499D02*
Y042619D01*
X086003Y042559D02*
X086123D01*
X086063Y042499D02*
Y042619D01*
X084267Y042559D02*
X084387D01*
X084327Y042499D02*
Y042619D01*
X082418Y047411D02*
X082538D01*
X082478Y047351D02*
Y047471D01*
X076089Y037907D02*
X076209D01*
X076149Y037847D02*
Y037967D01*
X077046Y059092D02*
X077166D01*
X077106Y059032D02*
Y059152D01*
X074093Y056856D02*
X074213D01*
X074153Y056796D02*
Y056916D01*
X078621Y057643D02*
X078741D01*
X078681Y057583D02*
Y057703D01*
X078925Y056998D02*
X079045D01*
X078985Y056938D02*
Y057058D01*
X074629Y062119D02*
X074749D01*
X074689Y062059D02*
Y062179D01*
X075456Y062119D02*
X075576D01*
X075516Y062059D02*
Y062179D01*
X070888Y049687D02*
X071008D01*
X070948Y049627D02*
Y049747D01*
X079168Y051781D02*
X079288D01*
X079228Y051721D02*
Y051841D01*
X071036Y059703D02*
X071156D01*
X071096Y059643D02*
Y059763D01*
X050999Y056989D02*
X051119D01*
X051059Y056929D02*
Y057049D01*
X050806Y057250D02*
X050926D01*
X050866Y057190D02*
Y057310D01*
X050843Y057613D02*
X050963D01*
X050903Y057553D02*
Y057673D01*
X055950Y058293D02*
X056070D01*
X056010Y058233D02*
Y058353D01*
X058519Y057961D02*
X058639D01*
X058579Y057901D02*
Y058021D01*
X057129Y060412D02*
X057249D01*
X057189Y060352D02*
Y060472D01*
X047753Y054752D02*
X047873D01*
X047813Y054692D02*
Y054812D01*
X052279Y054334D02*
X052399D01*
X052339Y054274D02*
Y054394D01*
X056054Y052037D02*
X056174D01*
X056114Y051977D02*
Y052097D01*
X057420Y052241D02*
X057540D01*
X057480Y052181D02*
Y052301D01*
X055006Y054380D02*
X055126D01*
X055066Y054320D02*
Y054440D01*
X053857Y060837D02*
X053977D01*
X053917Y060777D02*
Y060897D01*
X051977Y052041D02*
X052097D01*
X052037Y051981D02*
Y052101D01*
X053011Y052037D02*
X053131D01*
X053071Y051977D02*
Y052097D01*
X055216Y054094D02*
X055336D01*
X055276Y054034D02*
Y054154D01*
X067981Y048041D02*
X068101D01*
X068041Y047981D02*
Y048101D01*
X056215Y049349D02*
X056335D01*
X056275Y049289D02*
Y049409D01*
X056564Y049309D02*
X056684D01*
X056624Y049249D02*
Y049369D01*
X057627Y061752D02*
X057747D01*
X057687Y061692D02*
Y061812D01*
X062350Y062346D02*
X062470D01*
X062410Y062286D02*
Y062406D01*
X054027Y058262D02*
X054147D01*
X054087Y058202D02*
Y058322D01*
X056544Y060246D02*
X056664D01*
X056604Y060186D02*
Y060306D01*
X059999Y052995D02*
X060119D01*
X060059Y052935D02*
Y053055D01*
X066457Y052180D02*
X066577D01*
X066517Y052120D02*
Y052240D01*
X058569Y058698D02*
X058689D01*
X058629Y058638D02*
Y058758D01*
X042164Y024498D02*
X042284D01*
X042224Y024438D02*
Y024558D01*
X056702Y031870D02*
X056822D01*
X056762Y031810D02*
Y031930D01*
X060225Y050205D02*
X060345D01*
X060285Y050145D02*
Y050265D01*
X053011Y053169D02*
X053131D01*
X053071Y053109D02*
Y053229D01*
X053011Y063740D02*
X053131D01*
X053071Y063680D02*
Y063800D01*
X053011Y061844D02*
X053131D01*
X053071Y061784D02*
Y061904D01*
X051977Y064232D02*
X052097D01*
X052037Y064172D02*
Y064292D01*
X060554Y045327D02*
X060674D01*
X060614Y045267D02*
Y045387D01*
X058720Y033917D02*
X058840D01*
X058780Y033857D02*
Y033977D01*
X065350Y064716D02*
X065470D01*
X065410Y064656D02*
Y064776D01*
X035344Y032746D02*
X035464D01*
X035404Y032686D02*
Y032806D01*
X034972Y030514D02*
X035092D01*
X035032Y030454D02*
Y030574D01*
X034625Y030512D02*
X034745D01*
X034685Y030452D02*
Y030572D01*
X038263Y035072D02*
X038383D01*
X038323Y035012D02*
Y035132D01*
X038949Y036022D02*
X039069D01*
X039009Y035962D02*
Y036082D01*
X039382Y033396D02*
X039502D01*
X039442Y033336D02*
Y033456D01*
X038070Y028917D02*
X038190D01*
X038130Y028857D02*
Y028977D01*
X037773Y028661D02*
X037893D01*
X037833Y028601D02*
Y028721D01*
X038090Y033022D02*
X038210D01*
X038150Y032962D02*
Y033082D01*
X037773Y032224D02*
X037893D01*
X037833Y032164D02*
Y032284D01*
X039382Y037925D02*
X039502D01*
X039442Y037865D02*
Y037985D01*
X042249Y030787D02*
X042369D01*
X042309Y030727D02*
Y030847D01*
X042787Y039068D02*
X042907D01*
X042847Y039008D02*
Y039128D01*
X042302Y042231D02*
X042422D01*
X042362Y042171D02*
Y042291D01*
X048515Y040079D02*
X048635D01*
X048575Y040019D02*
Y040139D01*
X017932Y030020D02*
X018052D01*
X017992Y029960D02*
Y030080D01*
X073165Y046171D02*
X073285D01*
X073225Y046111D02*
Y046231D01*
X050806Y064026D02*
X050926D01*
X050866Y063966D02*
Y064086D01*
X056338Y051240D02*
X056458D01*
X056398Y051180D02*
Y051300D01*
X066132Y025492D02*
X066252D01*
X066192Y025432D02*
Y025552D01*
X070120Y037214D02*
X070240D01*
X070180Y037154D02*
Y037274D01*
X072684Y037201D02*
X072804D01*
X072744Y037141D02*
Y037261D01*
X072664Y041111D02*
X072784D01*
X072724Y041051D02*
Y041171D01*
X083447Y049573D02*
X083567D01*
X083507Y049513D02*
Y049633D01*
X083247Y036419D02*
X083367D01*
X083307Y036359D02*
Y036479D01*
X065017Y054998D02*
X065137D01*
X065077Y054938D02*
Y055058D01*
X058863Y053916D02*
X058983D01*
X058923Y053856D02*
Y053976D01*
X058863Y054297D02*
X058983D01*
X058923Y054237D02*
Y054357D01*
X041583Y037206D02*
X041703D01*
X041643Y037146D02*
Y037266D01*
X041033Y028661D02*
X041153D01*
X041093Y028601D02*
Y028721D01*
X038838Y062136D02*
X038958D01*
X038898Y062076D02*
Y062196D01*
X070035Y044634D02*
X070155D01*
X070095Y044574D02*
Y044694D01*
X079235Y027518D02*
X079355D01*
X079295Y027458D02*
Y027578D01*
X080216Y065827D02*
X080336D01*
X080276Y065767D02*
Y065887D01*
X075864Y038299D02*
X075984D01*
X075924Y038239D02*
Y038359D01*
X075619Y038671D02*
X075739D01*
X075679Y038611D02*
Y038731D01*
X068614Y040786D02*
X068734D01*
X068674Y040726D02*
Y040846D01*
X055806Y047746D02*
X055926D01*
X055866Y047686D02*
Y047806D01*
X069850Y050031D02*
X069970D01*
X069910Y049971D02*
Y050091D01*
X073687Y064918D02*
X073807D01*
X073747Y064858D02*
Y064978D01*
X067665Y046291D02*
X067785D01*
X067725Y046231D02*
Y046351D01*
X067655Y047451D02*
X067775D01*
X067715Y047391D02*
Y047511D01*
X073463Y052502D02*
X073583D01*
X073523Y052442D02*
Y052562D01*
X073463Y052893D02*
X073583D01*
X073523Y052833D02*
Y052953D01*
X082105Y033210D02*
X082225D01*
X082165Y033150D02*
Y033270D01*
X072635Y034375D02*
X072755D01*
X072695Y034315D02*
Y034435D01*
X071567Y029437D02*
X071687D01*
X071627Y029377D02*
Y029497D01*
X072185Y035494D02*
X072305D01*
X072245Y035434D02*
Y035554D01*
X072079Y035848D02*
X072199D01*
X072139Y035788D02*
Y035908D01*
X071969Y036149D02*
X072089D01*
X072029Y036089D02*
Y036209D01*
X071858Y036536D02*
X071978D01*
X071918Y036476D02*
Y036596D01*
X072844Y034038D02*
X072964D01*
X072904Y033978D02*
Y034098D01*
X072319Y035151D02*
X072439D01*
X072379Y035091D02*
Y035211D01*
X072466Y034737D02*
X072586D01*
X072526Y034677D02*
Y034797D01*
X073012Y033711D02*
X073132D01*
X073072Y033651D02*
Y033771D01*
X073208Y033366D02*
X073328D01*
X073268Y033306D02*
Y033426D01*
X073355Y032991D02*
X073475D01*
X073415Y032931D02*
Y033051D01*
X054360Y029590D02*
X054480D01*
X054420Y029530D02*
Y029650D01*
X067688Y065169D02*
X067808D01*
X067748Y065109D02*
Y065229D01*
X067194Y065169D02*
X067314D01*
X067254Y065109D02*
Y065229D01*
X079940Y038897D02*
X080060D01*
X080000Y038837D02*
Y038957D01*
X064275Y041848D02*
X064395D01*
X064335Y041788D02*
Y041908D01*
X055905Y050039D02*
X056025D01*
X055965Y049979D02*
Y050099D01*
X055905Y050588D02*
X056025D01*
X055965Y050528D02*
Y050648D01*
X075018Y064082D02*
X075138D01*
X075078Y064022D02*
Y064142D01*
X076524Y049966D02*
X076644D01*
X076584Y049906D02*
Y050026D01*
X076524Y057961D02*
X076644D01*
X076584Y057901D02*
Y058021D01*
X076189Y057781D02*
X076309D01*
X076249Y057721D02*
Y057841D01*
X076350Y064564D02*
X076470D01*
X076410Y064504D02*
Y064624D01*
X076726Y063829D02*
X076846D01*
X076786Y063769D02*
Y063889D01*
X058495Y045238D02*
X058615D01*
X058555Y045178D02*
Y045298D01*
X059389Y050919D02*
X059509D01*
X059449Y050859D02*
Y050979D01*
X072912Y045056D02*
X073032D01*
X072972Y044996D02*
Y045116D01*
X077205Y064303D02*
X077325D01*
X077265Y064243D02*
Y064363D01*
X059978Y058698D02*
X060098D01*
X060038Y058638D02*
Y058758D01*
X081082Y054183D02*
X081202D01*
X081142Y054123D02*
Y054243D01*
X073687Y060104D02*
X073807D01*
X073747Y060044D02*
Y060164D01*
X058409Y046563D02*
X058529D01*
X058469Y046503D02*
Y046623D01*
X045039Y029139D02*
X045159D01*
X045099Y029079D02*
Y029199D01*
X044890Y034531D02*
X045010D01*
X044950Y034471D02*
Y034591D01*
X048941Y039631D02*
X049061D01*
X049001Y039571D02*
Y039691D01*
X042302Y040744D02*
X042422D01*
X042362Y040684D02*
Y040804D01*
X041613Y034358D02*
X041733D01*
X041673Y034298D02*
Y034418D01*
X041613Y032951D02*
X041733D01*
X041673Y032891D02*
Y033011D01*
X042420Y029331D02*
X042540D01*
X042480Y029271D02*
Y029391D01*
X044920Y033381D02*
X045040D01*
X044980Y033321D02*
Y033441D01*
X044890Y036022D02*
X045010D01*
X044950Y035962D02*
Y036082D01*
X048870Y035931D02*
X048990D01*
X048930Y035871D02*
Y035991D01*
X048870Y035609D02*
X048990D01*
X048930Y035549D02*
Y035669D01*
X049543Y035612D02*
X049663D01*
X049603Y035552D02*
Y035672D01*
X049851Y039626D02*
X049971D01*
X049911Y039566D02*
Y039686D01*
X050690Y036022D02*
X050810D01*
X050750Y035962D02*
Y036082D01*
X050331Y035812D02*
X050451D01*
X050391Y035752D02*
Y035872D01*
X050617Y035505D02*
X050737D01*
X050677Y035445D02*
Y035565D01*
X051155Y028547D02*
X051275D01*
X051215Y028487D02*
Y028607D01*
X051155Y029639D02*
X051275D01*
X051215Y029579D02*
Y029699D01*
X051950Y028547D02*
X052070D01*
X052010Y028487D02*
Y028607D01*
X051949Y029639D02*
X052069D01*
X052009Y029579D02*
Y029699D01*
X052835Y028547D02*
X052955D01*
X052895Y028487D02*
Y028607D01*
X052835Y029639D02*
X052955D01*
X052895Y029579D02*
Y029699D01*
X053880Y034737D02*
X054000D01*
X053940Y034677D02*
Y034797D01*
X054360Y033179D02*
X054480D01*
X054420Y033119D02*
Y033239D01*
X054360Y033973D02*
X054480D01*
X054420Y033913D02*
Y034033D01*
X043014Y037021D02*
X043134D01*
X043074Y036961D02*
Y037081D01*
X044242Y037021D02*
X044362D01*
X044302Y036961D02*
Y037081D01*
X048572Y036196D02*
X048692D01*
X048632Y036136D02*
Y036256D01*
X049561Y039474D02*
X049681D01*
X049621Y039414D02*
Y039534D01*
X051143Y032903D02*
X051263D01*
X051203Y032843D02*
Y032963D01*
X053496Y033057D02*
X053616D01*
X053556Y032997D02*
Y033117D01*
X054360Y034481D02*
X054480D01*
X054420Y034421D02*
Y034541D01*
X046905Y035837D02*
X047025D01*
X046965Y035777D02*
Y035897D01*
X050827Y032734D02*
X050947D01*
X050887Y032674D02*
Y032794D01*
X049333Y035912D02*
X049453D01*
X049393Y035852D02*
Y035972D01*
X053266Y028536D02*
X053386D01*
X053326Y028476D02*
Y028596D01*
X051596Y039615D02*
X051716D01*
X051656Y039555D02*
Y039675D01*
X053303Y039625D02*
X053423D01*
X053363Y039565D02*
Y039685D01*
X047526Y038455D02*
X047646D01*
X047586Y038395D02*
Y038515D01*
X049123Y036196D02*
X049243D01*
X049183Y036136D02*
Y036256D01*
X049225Y039479D02*
X049345D01*
X049285Y039419D02*
Y039539D01*
X070734Y060030D02*
X070854D01*
X070794Y059970D02*
Y060090D01*
X066085Y026266D02*
X066205D01*
X066145Y026206D02*
Y026326D01*
X065238Y026256D02*
X065358D01*
X065298Y026196D02*
Y026316D01*
X077670Y027070D02*
X077790D01*
X077730Y027010D02*
Y027130D01*
X077235Y027065D02*
X077355D01*
X077295Y027005D02*
Y027125D01*
X076461Y027100D02*
X076581D01*
X076521Y027040D02*
Y027160D01*
X078615Y027826D02*
X078735D01*
X078675Y027766D02*
Y027886D01*
X077855Y027518D02*
X077975D01*
X077915Y027458D02*
Y027578D01*
X078475Y028258D02*
X078595D01*
X078535Y028198D02*
Y028318D01*
X078715Y028787D02*
X078835D01*
X078775Y028727D02*
Y028847D01*
X074665Y028490D02*
X074785D01*
X074725Y028430D02*
Y028550D01*
X078475Y029268D02*
X078595D01*
X078535Y029208D02*
Y029328D01*
X074691Y029977D02*
X074811D01*
X074751Y029917D02*
Y030037D01*
X074576Y030319D02*
X074696D01*
X074636Y030259D02*
Y030379D01*
X074168Y030303D02*
X074288D01*
X074228Y030243D02*
Y030363D01*
X065115Y030050D02*
X065235D01*
X065175Y029990D02*
Y030110D01*
X063535Y029882D02*
X063655D01*
X063595Y029822D02*
Y029942D01*
X062036Y030122D02*
X062156D01*
X062096Y030062D02*
Y030182D01*
X060475Y030298D02*
X060595D01*
X060535Y030238D02*
Y030358D01*
X078715Y030846D02*
X078835D01*
X078775Y030786D02*
Y030906D01*
X076928Y031681D02*
X077048D01*
X076988Y031621D02*
Y031741D01*
X063635Y031982D02*
X063755D01*
X063695Y031922D02*
Y032042D01*
X062545Y031821D02*
X062665D01*
X062605Y031761D02*
Y031881D01*
X061001Y031863D02*
X061121D01*
X061061Y031803D02*
Y031923D01*
X076928Y032266D02*
X077048D01*
X076988Y032206D02*
Y032326D01*
X063440Y032371D02*
X063560D01*
X063500Y032311D02*
Y032431D01*
X062835Y032278D02*
X062955D01*
X062895Y032218D02*
Y032338D01*
X068888Y033294D02*
X069008D01*
X068948Y033234D02*
Y033354D01*
X068355Y037468D02*
X068475D01*
X068415Y037408D02*
Y037528D01*
X066992Y037448D02*
X067112D01*
X067052Y037388D02*
Y037508D01*
X066725Y037201D02*
X066845D01*
X066785Y037141D02*
Y037261D01*
X063585Y037448D02*
X063705D01*
X063645Y037388D02*
Y037508D01*
X068443Y038299D02*
X068563D01*
X068503Y038239D02*
Y038359D01*
X067525Y038748D02*
X067645D01*
X067585Y038688D02*
Y038808D01*
X068863Y039746D02*
X068983D01*
X068923Y039686D02*
Y039806D01*
X067725Y039726D02*
X067845D01*
X067785Y039666D02*
Y039786D01*
X067388Y039724D02*
X067508D01*
X067448Y039664D02*
Y039784D01*
X066564Y039706D02*
X066684D01*
X066624Y039646D02*
Y039766D01*
X067014Y039707D02*
X067134D01*
X067074Y039647D02*
Y039767D01*
X068295Y040358D02*
X068415D01*
X068355Y040298D02*
Y040418D01*
X064275Y040268D02*
X064395D01*
X064335Y040208D02*
Y040328D01*
X064275Y040638D02*
X064395D01*
X064335Y040578D02*
Y040698D01*
X064275Y041443D02*
X064395D01*
X064335Y041383D02*
Y041503D01*
X070120Y046291D02*
X070240D01*
X070180Y046231D02*
Y046351D01*
X079482Y048322D02*
X079602D01*
X079542Y048262D02*
Y048382D01*
X071567Y049439D02*
X071717D01*
X071642Y049364D02*
Y049514D01*
X068975Y049439D02*
X069095D01*
X069035Y049379D02*
Y049499D01*
X078990Y050188D02*
X079110D01*
X079050Y050128D02*
Y050248D01*
X076189Y049848D02*
X076309D01*
X076249Y049788D02*
Y049908D01*
X073815Y049998D02*
X073935D01*
X073875Y049938D02*
Y050058D01*
X078998Y050880D02*
X079118D01*
X079058Y050820D02*
Y050940D01*
X078913Y052692D02*
X079033D01*
X078973Y052632D02*
Y052752D01*
X068868Y052457D02*
X068988D01*
X068928Y052397D02*
Y052517D01*
X059263Y052241D02*
X059383D01*
X059323Y052181D02*
Y052301D01*
X078980Y053510D02*
X079100D01*
X079040Y053450D02*
Y053570D01*
X068865Y053336D02*
X068985D01*
X068925Y053276D02*
Y053396D01*
X068467Y053103D02*
X068587D01*
X068527Y053043D02*
Y053163D01*
X068463Y053560D02*
X068583D01*
X068523Y053500D02*
Y053620D01*
X068478Y054297D02*
X068598D01*
X068538Y054237D02*
Y054357D01*
X068556Y054831D02*
X068676D01*
X068616Y054771D02*
Y054891D01*
X069143Y055675D02*
X069263D01*
X069203Y055615D02*
Y055735D01*
X069369Y055462D02*
X069489D01*
X069429Y055402D02*
Y055522D01*
X078914Y058132D02*
X079034D01*
X078974Y058072D02*
Y058192D01*
X078709Y058783D02*
X078829D01*
X078769Y058723D02*
Y058843D01*
X068535Y058698D02*
X068655D01*
X068595Y058638D02*
Y058758D01*
X078913Y059899D02*
X079033D01*
X078973Y059839D02*
Y059959D01*
X074750Y059908D02*
X074900D01*
X074825Y059833D02*
Y059983D01*
X074500Y059632D02*
X074650D01*
X074575Y059557D02*
Y059707D01*
X074053Y061157D02*
X074173D01*
X074113Y061097D02*
Y061217D01*
X065658Y026266D02*
X065778D01*
X065718Y026206D02*
Y026326D01*
X065486Y025841D02*
X065606D01*
X065546Y025781D02*
Y025901D01*
X073635Y028618D02*
X073755D01*
X073695Y028558D02*
Y028678D01*
X075185Y028618D02*
X075305D01*
X075245Y028558D02*
Y028678D01*
X074280Y028564D02*
X074400D01*
X074340Y028504D02*
Y028624D01*
X078259Y029046D02*
X078379D01*
X078319Y028986D02*
Y029106D01*
X078245Y029519D02*
X078365D01*
X078305Y029459D02*
Y029579D01*
X060803Y030203D02*
X060923D01*
X060863Y030143D02*
Y030263D01*
X063901Y031675D02*
X064021D01*
X063961Y031615D02*
Y031735D01*
X064706Y031903D02*
X064826D01*
X064766Y031843D02*
Y031963D01*
X061561Y032296D02*
X061681D01*
X061621Y032236D02*
Y032356D01*
X067979Y033295D02*
X068099D01*
X068039Y033235D02*
Y033355D01*
X063155Y036366D02*
X063275D01*
X063215Y036306D02*
Y036426D01*
X068049Y037448D02*
X068169D01*
X068109Y037388D02*
Y037508D01*
X068739Y038063D02*
X068859D01*
X068799Y038003D02*
Y038123D01*
X063899Y037969D02*
X064019D01*
X063959Y037909D02*
Y038029D01*
X067245Y039028D02*
X067365D01*
X067305Y038968D02*
Y039088D01*
X068032Y039048D02*
X068152D01*
X068092Y038988D02*
Y039108D01*
X065525Y040358D02*
X065645D01*
X065585Y040298D02*
Y040418D01*
X074455Y049444D02*
X074575D01*
X074515Y049384D02*
Y049504D01*
X069609Y049439D02*
X069729D01*
X069669Y049379D02*
Y049499D01*
X073463Y050031D02*
X073583D01*
X073523Y049971D02*
Y050091D01*
X074395Y050008D02*
X074515D01*
X074455Y049948D02*
Y050068D01*
X067236Y052268D02*
X067356D01*
X067296Y052208D02*
Y052328D01*
X068624Y052656D02*
X068744D01*
X068684Y052596D02*
Y052716D01*
X068815Y054063D02*
X068935D01*
X068875Y054003D02*
Y054123D01*
X073588Y054678D02*
X073708D01*
X073648Y054618D02*
Y054738D01*
X068845Y055885D02*
X068965D01*
X068905Y055825D02*
Y055945D01*
X068845Y055462D02*
X068965D01*
X068905Y055402D02*
Y055522D01*
X070353Y056313D02*
X070473D01*
X070413Y056253D02*
Y056373D01*
X068845Y056305D02*
X068965D01*
X068905Y056245D02*
Y056365D01*
X079150Y057326D02*
X079270D01*
X079210Y057266D02*
Y057386D01*
X070237Y057970D02*
X070357D01*
X070297Y057910D02*
Y058030D01*
X068845Y057968D02*
X068965D01*
X068905Y057908D02*
Y058028D01*
X079123Y059598D02*
X079243D01*
X079183Y059538D02*
Y059658D01*
X079159Y060271D02*
X079279D01*
X079219Y060211D02*
Y060331D01*
X075091Y061163D02*
X075211D01*
X075151Y061103D02*
Y061223D01*
X065875Y025836D02*
X065995D01*
X065935Y025776D02*
Y025896D01*
X078029Y028828D02*
X078149D01*
X078089Y028768D02*
Y028888D01*
X076442Y028225D02*
X076562D01*
X076502Y028165D02*
Y028285D01*
X068160Y030599D02*
X068280D01*
X068220Y030539D02*
Y030659D01*
X060253Y030593D02*
X060373D01*
X060313Y030533D02*
Y030653D01*
X069013Y032162D02*
X069133D01*
X069073Y032102D02*
Y032222D01*
X066729Y032816D02*
X066849D01*
X066789Y032756D02*
Y032876D01*
X066741Y032120D02*
X066861D01*
X066801Y032060D02*
Y032180D01*
X062184Y032903D02*
X062304D01*
X062244Y032843D02*
Y032963D01*
X061345Y032816D02*
X061465D01*
X061405Y032756D02*
Y032876D01*
X063332Y036848D02*
X063452D01*
X063392Y036788D02*
Y036908D01*
X066725Y039386D02*
X066845D01*
X066785Y039326D02*
Y039446D01*
X065791Y040173D02*
X065911D01*
X065851Y040113D02*
Y040233D01*
X065179Y040174D02*
X065299D01*
X065239Y040114D02*
Y040234D01*
X064275Y041028D02*
X064395D01*
X064335Y040968D02*
Y041088D01*
X074629Y049809D02*
X074749D01*
X074689Y049749D02*
Y049869D01*
X074080Y049728D02*
X074200D01*
X074140Y049668D02*
Y049788D01*
X078870Y050578D02*
X078990D01*
X078930Y050518D02*
Y050638D01*
X078908Y052009D02*
X079028D01*
X078968Y051949D02*
Y052069D01*
X068892Y052927D02*
X069012D01*
X068952Y052867D02*
Y052987D01*
X069143Y056069D02*
X069263D01*
X069203Y056009D02*
Y056129D01*
X078935Y058526D02*
X079055D01*
X078995Y058466D02*
Y058586D01*
X078686Y059414D02*
X078806D01*
X078746Y059354D02*
Y059474D01*
X071534Y057798D02*
X071654D01*
X071594Y057738D02*
Y057858D01*
X070804Y058532D02*
X070924D01*
X070864Y058472D02*
Y058592D01*
X068505Y057768D02*
X068625D01*
X068565Y057708D02*
Y057828D01*
X076805Y028084D02*
X076925D01*
X076865Y028024D02*
Y028144D01*
X075049Y029767D02*
X075169D01*
X075109Y029707D02*
Y029827D01*
X076825Y031276D02*
X076945D01*
X076885Y031216D02*
Y031336D01*
X067822Y038509D02*
X067942D01*
X067882Y038449D02*
Y038569D01*
X066240Y040202D02*
X066360D01*
X066300Y040142D02*
Y040262D01*
X066421Y049809D02*
X066541D01*
X066481Y049749D02*
Y049869D01*
X079142Y050447D02*
X079262D01*
X079202Y050387D02*
Y050507D01*
X074392Y053778D02*
X074512D01*
X074452Y053718D02*
Y053838D01*
X069440Y054454D02*
X069560D01*
X069500Y054394D02*
Y054514D01*
X068823Y054516D02*
X068943D01*
X068883Y054456D02*
Y054576D01*
X066385Y053778D02*
X066505D01*
X066445Y053718D02*
Y053838D01*
X070279Y057602D02*
X070399D01*
X070339Y057542D02*
Y057662D01*
X068838Y059418D02*
X068958D01*
X068898Y059358D02*
Y059478D01*
X068841Y058448D02*
X068961D01*
X068901Y058388D02*
Y058508D01*
X075200Y060088D02*
X075350D01*
X075275Y060013D02*
Y060163D01*
M02*
