G04*
G04 #@! TF.GenerationSoftware,Altium Limited,Altium Designer,20.1.8 (145)*
G04*
G04 Layer_Color=2752767*
%FSAX24Y24*%
%MOIN*%
G70*
G04*
G04 #@! TF.SameCoordinates,7D9F505B-2EBF-4E8E-82AC-92A1240CC430*
G04*
G04*
G04 #@! TF.FilePolarity,Positive*
G04*
G01*
G75*
%ADD167C,0.0020*%
%ADD168C,0.0027*%
%ADD169C,0.0013*%
D167*
X063034Y064838D02*
Y064998D01*
X063194D01*
Y064838D01*
X063034D01*
X063534D02*
Y064998D01*
X063694D01*
Y064838D01*
X063534D01*
X064034D02*
Y064998D01*
X064194D01*
Y064838D01*
X064034D01*
X086911Y035455D02*
X086831Y035615D01*
X086991D01*
X086911Y035455D01*
Y037455D02*
X086951Y037495D01*
X086991D01*
X086951Y037535D01*
X086991Y037575D01*
X086951D01*
X086911Y037615D01*
X086871Y037575D01*
X086831D01*
X086871Y037535D01*
X086831Y037495D01*
X086871D01*
X086911Y037455D01*
X084902Y047282D02*
X084942Y047322D01*
X084982D01*
X084942Y047362D01*
X084982Y047402D01*
X084942D01*
X084902Y047442D01*
X084862Y047402D01*
X084822D01*
X084862Y047362D01*
X084822Y047322D01*
X084862D01*
X084902Y047282D01*
Y044310D02*
X084822Y044470D01*
X084982D01*
X084902Y044310D01*
X084089Y055371D02*
X084129Y055451D01*
X084089Y055531D01*
X084169Y055491D01*
X084249Y055531D01*
X084209Y055451D01*
X084249Y055371D01*
X084169Y055411D01*
X084089Y055371D01*
Y053571D02*
X084129Y053651D01*
X084089Y053731D01*
X084169Y053691D01*
X084249Y053731D01*
X084209Y053651D01*
X084249Y053571D01*
X084169Y053611D01*
X084089Y053571D01*
Y054371D02*
X084129Y054451D01*
X084089Y054531D01*
X084169Y054491D01*
X084249Y054531D01*
X084209Y054451D01*
X084249Y054371D01*
X084169Y054411D01*
X084089Y054371D01*
X084829Y056611D02*
Y056571D01*
X084909D01*
Y056611D01*
X084949D01*
Y056691D01*
X084909D01*
Y056731D01*
X084829D01*
Y056691D01*
X084789D01*
Y056611D01*
X084829D01*
X084089Y052571D02*
X084129Y052651D01*
X084089Y052731D01*
X084169Y052691D01*
X084249Y052731D01*
X084209Y052651D01*
X084249Y052571D01*
X084169Y052611D01*
X084089Y052571D01*
X084829Y051411D02*
Y051371D01*
X084909D01*
Y051411D01*
X084949D01*
Y051491D01*
X084909D01*
Y051531D01*
X084829D01*
Y051491D01*
X084789D01*
Y051411D01*
X084829D01*
X086317Y061572D02*
X086357D01*
X086397Y061612D01*
X086437Y061572D01*
X086477D01*
Y061612D01*
X086437Y061652D01*
X086477Y061692D01*
Y061732D01*
X086437D01*
X086397Y061692D01*
X086357Y061732D01*
X086317D01*
Y061692D01*
X086357Y061652D01*
X086317Y061612D01*
Y061572D01*
X086562Y061414D02*
X086602D01*
X086642Y061454D01*
X086682Y061414D01*
X086722D01*
Y061454D01*
X086682Y061494D01*
X086722Y061534D01*
Y061574D01*
X086682D01*
X086642Y061534D01*
X086602Y061574D01*
X086562D01*
Y061534D01*
X086602Y061494D01*
X086562Y061454D01*
Y061414D01*
X086562Y061099D02*
X086602D01*
X086642Y061139D01*
X086682Y061099D01*
X086722D01*
Y061139D01*
X086682Y061179D01*
X086722Y061219D01*
Y061259D01*
X086682D01*
X086642Y061219D01*
X086602Y061259D01*
X086562D01*
Y061219D01*
X086602Y061179D01*
X086562Y061139D01*
Y061099D01*
X086317Y060942D02*
X086357D01*
X086397Y060982D01*
X086437Y060942D01*
X086477D01*
Y060982D01*
X086437Y061022D01*
X086477Y061062D01*
Y061102D01*
X086437D01*
X086397Y061062D01*
X086357Y061102D01*
X086317D01*
Y061062D01*
X086357Y061022D01*
X086317Y060982D01*
Y060942D01*
X086562Y060784D02*
X086602D01*
X086642Y060824D01*
X086682Y060784D01*
X086722D01*
Y060824D01*
X086682Y060864D01*
X086722Y060904D01*
Y060944D01*
X086682D01*
X086642Y060904D01*
X086602Y060944D01*
X086562D01*
Y060904D01*
X086602Y060864D01*
X086562Y060824D01*
Y060784D01*
X086521Y058923D02*
X086601Y059003D01*
X086681Y058923D01*
X086601Y058843D01*
X086521Y058923D01*
X088249Y058781D02*
X088329Y058861D01*
X088409Y058781D01*
X088329Y058702D01*
X088249Y058781D01*
X086109Y061914D02*
X086149Y061954D01*
X086189D01*
X086149Y061994D01*
X086189Y062034D01*
X086149D01*
X086109Y062074D01*
X086069Y062034D01*
X086029D01*
X086069Y061994D01*
X086029Y061954D01*
X086069D01*
X086109Y061914D01*
X086108Y059021D02*
X086148Y059061D01*
X086188D01*
X086148Y059101D01*
X086188Y059141D01*
X086148D01*
X086108Y059181D01*
X086068Y059141D01*
X086028D01*
X086068Y059101D01*
X086028Y059061D01*
X086068D01*
X086108Y059021D01*
X086317Y060627D02*
X086357D01*
X086397Y060667D01*
X086437Y060627D01*
X086477D01*
Y060667D01*
X086437Y060707D01*
X086477Y060747D01*
Y060787D01*
X086437D01*
X086397Y060747D01*
X086357Y060787D01*
X086317D01*
Y060747D01*
X086357Y060707D01*
X086317Y060667D01*
Y060627D01*
Y060312D02*
X086357D01*
X086397Y060352D01*
X086437Y060312D01*
X086477D01*
Y060352D01*
X086437Y060392D01*
X086477Y060432D01*
Y060472D01*
X086437D01*
X086397Y060432D01*
X086357Y060472D01*
X086317D01*
Y060432D01*
X086357Y060392D01*
X086317Y060352D01*
Y060312D01*
Y059997D02*
X086357D01*
X086397Y060037D01*
X086437Y059997D01*
X086477D01*
Y060037D01*
X086437Y060077D01*
X086477Y060117D01*
Y060157D01*
X086437D01*
X086397Y060117D01*
X086357Y060157D01*
X086317D01*
Y060117D01*
X086357Y060077D01*
X086317Y060037D01*
Y059997D01*
X086562Y060154D02*
X086602D01*
X086642Y060194D01*
X086682Y060154D01*
X086722D01*
Y060194D01*
X086682Y060234D01*
X086722Y060274D01*
Y060314D01*
X086682D01*
X086642Y060274D01*
X086602Y060314D01*
X086562D01*
Y060274D01*
X086602Y060234D01*
X086562Y060194D01*
Y060154D01*
Y059839D02*
X086602D01*
X086642Y059879D01*
X086682Y059839D01*
X086722D01*
Y059879D01*
X086682Y059919D01*
X086722Y059959D01*
Y059999D01*
X086682D01*
X086642Y059959D01*
X086602Y059999D01*
X086562D01*
Y059959D01*
X086602Y059919D01*
X086562Y059879D01*
Y059839D01*
Y059524D02*
X086602D01*
X086642Y059564D01*
X086682Y059524D01*
X086722D01*
Y059564D01*
X086682Y059604D01*
X086722Y059644D01*
Y059684D01*
X086682D01*
X086642Y059644D01*
X086602Y059684D01*
X086562D01*
Y059644D01*
X086602Y059604D01*
X086562Y059564D01*
Y059524D01*
X086317Y059367D02*
X086357D01*
X086397Y059407D01*
X086437Y059367D01*
X086477D01*
Y059407D01*
X086437Y059447D01*
X086477Y059487D01*
Y059527D01*
X086437D01*
X086397Y059487D01*
X086357Y059527D01*
X086317D01*
Y059487D01*
X086357Y059447D01*
X086317Y059407D01*
Y059367D01*
X088249Y062317D02*
X088329Y062397D01*
X088409Y062317D01*
X088329Y062237D01*
X088249Y062317D01*
X086521Y062175D02*
X086601Y062255D01*
X086681Y062175D01*
X086601Y062095D01*
X086521Y062175D01*
X024020Y063936D02*
Y064096D01*
X024180D01*
Y063936D01*
X024020D01*
X024060Y063976D02*
Y064056D01*
X024140D01*
Y063976D01*
X024060D01*
X017780Y063936D02*
Y064096D01*
X017940D01*
Y063936D01*
X017780D01*
X017820Y063976D02*
Y064056D01*
X017900D01*
Y063976D01*
X017820D01*
X066700Y061911D02*
Y062071D01*
X066860D01*
Y061911D01*
X066700D01*
X066740Y061951D02*
Y062031D01*
X066820D01*
Y061951D01*
X066740D01*
X060460Y061911D02*
Y062071D01*
X060620D01*
Y061911D01*
X060460D01*
X060500Y061951D02*
Y062031D01*
X060580D01*
Y061951D01*
X060500D01*
X027251Y064210D02*
Y064370D01*
X027411D01*
Y064210D01*
X027251D01*
X027751D02*
Y064370D01*
X027911D01*
Y064210D01*
X027751D01*
X011972Y054617D02*
X012012Y054657D01*
X012052D01*
X012012Y054697D01*
X012052Y054737D01*
X012012D01*
X011972Y054777D01*
X011932Y054737D01*
X011892D01*
X011932Y054697D01*
X011892Y054657D01*
X011932D01*
X011972Y054617D01*
X010472D02*
X010512Y054657D01*
X010552D01*
X010512Y054697D01*
X010552Y054737D01*
X010512D01*
X010472Y054777D01*
X010432Y054737D01*
X010392D01*
X010432Y054697D01*
X010392Y054657D01*
X010432D01*
X010472Y054617D01*
X010470Y041822D02*
X010510Y041862D01*
X010550D01*
X010510Y041902D01*
X010550Y041942D01*
X010510D01*
X010470Y041982D01*
X010430Y041942D01*
X010390D01*
X010430Y041902D01*
X010390Y041862D01*
X010430D01*
X010470Y041822D01*
X011970D02*
X012010Y041862D01*
X012050D01*
X012010Y041902D01*
X012050Y041942D01*
X012010D01*
X011970Y041982D01*
X011930Y041942D01*
X011890D01*
X011930Y041902D01*
X011890Y041862D01*
X011930D01*
X011970Y041822D01*
X087600Y062320D02*
X087520Y062480D01*
X087680D01*
X087600Y062320D01*
Y062360D02*
X087560Y062440D01*
X087640D01*
X087600Y062360D01*
X086400Y055120D02*
X086320Y055280D01*
X086480D01*
X086400Y055120D01*
Y055160D02*
X086360Y055240D01*
X086440D01*
X086400Y055160D01*
Y050320D02*
X086320Y050480D01*
X086480D01*
X086400Y050320D01*
Y050360D02*
X086360Y050440D01*
X086440D01*
X086400Y050360D01*
X087600Y033520D02*
X087520Y033680D01*
X087680D01*
X087600Y033520D01*
Y033560D02*
X087560Y033640D01*
X087640D01*
X087600Y033560D01*
X084000Y059920D02*
X083920Y060080D01*
X084080D01*
X084000Y059920D01*
Y059960D02*
X083960Y060040D01*
X084040D01*
X084000Y059960D01*
X085200Y057520D02*
X085120Y057680D01*
X085280D01*
X085200Y057520D01*
Y057560D02*
X085160Y057640D01*
X085240D01*
X085200Y057560D01*
Y052720D02*
X085120Y052880D01*
X085280D01*
X085200Y052720D01*
Y052760D02*
X085160Y052840D01*
X085240D01*
X085200Y052760D01*
Y047920D02*
X085120Y048080D01*
X085280D01*
X085200Y047920D01*
Y047960D02*
X085160Y048040D01*
X085240D01*
X085200Y047960D01*
Y043120D02*
X085120Y043280D01*
X085280D01*
X085200Y043120D01*
Y043160D02*
X085160Y043240D01*
X085240D01*
X085200Y043160D01*
Y038320D02*
X085120Y038480D01*
X085280D01*
X085200Y038320D01*
Y038360D02*
X085160Y038440D01*
X085240D01*
X085200Y038360D01*
Y033520D02*
X085120Y033680D01*
X085280D01*
X085200Y033520D01*
Y033560D02*
X085160Y033640D01*
X085240D01*
X085200Y033560D01*
X079200Y064720D02*
X079120Y064880D01*
X079280D01*
X079200Y064720D01*
Y064760D02*
X079160Y064840D01*
X079240D01*
X079200Y064760D01*
Y026320D02*
X079120Y026480D01*
X079280D01*
X079200Y026320D01*
Y026360D02*
X079160Y026440D01*
X079240D01*
X079200Y026360D01*
Y021520D02*
X079120Y021680D01*
X079280D01*
X079200Y021520D01*
Y021560D02*
X079160Y021640D01*
X079240D01*
X079200Y021560D01*
Y016720D02*
X079120Y016880D01*
X079280D01*
X079200Y016720D01*
Y016760D02*
X079160Y016840D01*
X079240D01*
X079200Y016760D01*
Y011920D02*
X079120Y012080D01*
X079280D01*
X079200Y011920D01*
Y011960D02*
X079160Y012040D01*
X079240D01*
X079200Y011960D01*
X076800Y026320D02*
X076720Y026480D01*
X076880D01*
X076800Y026320D01*
Y026360D02*
X076760Y026440D01*
X076840D01*
X076800Y026360D01*
Y011920D02*
X076720Y012080D01*
X076880D01*
X076800Y011920D01*
Y011960D02*
X076760Y012040D01*
X076840D01*
X076800Y011960D01*
X074400Y055120D02*
X074320Y055280D01*
X074480D01*
X074400Y055120D01*
Y055160D02*
X074360Y055240D01*
X074440D01*
X074400Y055160D01*
Y050320D02*
X074320Y050480D01*
X074480D01*
X074400Y050320D01*
Y050360D02*
X074360Y050440D01*
X074440D01*
X074400Y050360D01*
Y026320D02*
X074320Y026480D01*
X074480D01*
X074400Y026320D01*
Y026360D02*
X074360Y026440D01*
X074440D01*
X074400Y026360D01*
Y011920D02*
X074320Y012080D01*
X074480D01*
X074400Y011920D01*
Y011960D02*
X074360Y012040D01*
X074440D01*
X074400Y011960D01*
X073200Y057520D02*
X073120Y057680D01*
X073280D01*
X073200Y057520D01*
Y057560D02*
X073160Y057640D01*
X073240D01*
X073200Y057560D01*
Y038320D02*
X073120Y038480D01*
X073280D01*
X073200Y038320D01*
Y038360D02*
X073160Y038440D01*
X073240D01*
X073200Y038360D01*
Y014320D02*
X073120Y014480D01*
X073280D01*
X073200Y014320D01*
Y014360D02*
X073160Y014440D01*
X073240D01*
X073200Y014360D01*
X070800Y052720D02*
X070720Y052880D01*
X070880D01*
X070800Y052720D01*
Y052760D02*
X070760Y052840D01*
X070840D01*
X070800Y052760D01*
Y047920D02*
X070720Y048080D01*
X070880D01*
X070800Y047920D01*
Y047960D02*
X070760Y048040D01*
X070840D01*
X070800Y047960D01*
Y038320D02*
X070720Y038480D01*
X070880D01*
X070800Y038320D01*
Y038360D02*
X070760Y038440D01*
X070840D01*
X070800Y038360D01*
Y033520D02*
X070720Y033680D01*
X070880D01*
X070800Y033520D01*
Y033560D02*
X070760Y033640D01*
X070840D01*
X070800Y033560D01*
X069600Y016720D02*
X069520Y016880D01*
X069680D01*
X069600Y016720D01*
Y016760D02*
X069560Y016840D01*
X069640D01*
X069600Y016760D01*
X070800Y014320D02*
X070720Y014480D01*
X070880D01*
X070800Y014320D01*
Y014360D02*
X070760Y014440D01*
X070840D01*
X070800Y014360D01*
X069600Y011920D02*
X069520Y012080D01*
X069680D01*
X069600Y011920D01*
Y011960D02*
X069560Y012040D01*
X069640D01*
X069600Y011960D01*
X067200Y064720D02*
X067120Y064880D01*
X067280D01*
X067200Y064720D01*
Y064760D02*
X067160Y064840D01*
X067240D01*
X067200Y064760D01*
Y059920D02*
X067120Y060080D01*
X067280D01*
X067200Y059920D01*
Y059960D02*
X067160Y060040D01*
X067240D01*
X067200Y059960D01*
X068400Y047920D02*
X068320Y048080D01*
X068480D01*
X068400Y047920D01*
Y047960D02*
X068360Y048040D01*
X068440D01*
X068400Y047960D01*
X067200Y035920D02*
X067120Y036080D01*
X067280D01*
X067200Y035920D01*
Y035960D02*
X067160Y036040D01*
X067240D01*
X067200Y035960D01*
X068400Y019120D02*
X068320Y019280D01*
X068480D01*
X068400Y019120D01*
Y019160D02*
X068360Y019240D01*
X068440D01*
X068400Y019160D01*
Y014320D02*
X068320Y014480D01*
X068480D01*
X068400Y014320D01*
Y014360D02*
X068360Y014440D01*
X068440D01*
X068400Y014360D01*
X064800Y064720D02*
X064720Y064880D01*
X064880D01*
X064800Y064720D01*
Y064760D02*
X064760Y064840D01*
X064840D01*
X064800Y064760D01*
X066000Y023920D02*
X065920Y024080D01*
X066080D01*
X066000Y023920D01*
Y023960D02*
X065960Y024040D01*
X066040D01*
X066000Y023960D01*
Y019120D02*
X065920Y019280D01*
X066080D01*
X066000Y019120D01*
Y019160D02*
X065960Y019240D01*
X066040D01*
X066000Y019160D01*
X064800Y016720D02*
X064720Y016880D01*
X064880D01*
X064800Y016720D01*
Y016760D02*
X064760Y016840D01*
X064840D01*
X064800Y016760D01*
X066000Y014320D02*
X065920Y014480D01*
X066080D01*
X066000Y014320D01*
Y014360D02*
X065960Y014440D01*
X066040D01*
X066000Y014360D01*
X062400Y064720D02*
X062320Y064880D01*
X062480D01*
X062400Y064720D01*
Y064760D02*
X062360Y064840D01*
X062440D01*
X062400Y064760D01*
X063600Y019120D02*
X063520Y019280D01*
X063680D01*
X063600Y019120D01*
Y019160D02*
X063560Y019240D01*
X063640D01*
X063600Y019160D01*
Y014320D02*
X063520Y014480D01*
X063680D01*
X063600Y014320D01*
Y014360D02*
X063560Y014440D01*
X063640D01*
X063600Y014360D01*
X060000Y064720D02*
X059920Y064880D01*
X060080D01*
X060000Y064720D01*
Y064760D02*
X059960Y064840D01*
X060040D01*
X060000Y064760D01*
Y031120D02*
X059920Y031280D01*
X060080D01*
X060000Y031120D01*
Y031160D02*
X059960Y031240D01*
X060040D01*
X060000Y031160D01*
X061200Y019120D02*
X061120Y019280D01*
X061280D01*
X061200Y019120D01*
Y019160D02*
X061160Y019240D01*
X061240D01*
X061200Y019160D01*
X060000Y016720D02*
X059920Y016880D01*
X060080D01*
X060000Y016720D01*
Y016760D02*
X059960Y016840D01*
X060040D01*
X060000Y016760D01*
X061200Y014320D02*
X061120Y014480D01*
X061280D01*
X061200Y014320D01*
Y014360D02*
X061160Y014440D01*
X061240D01*
X061200Y014360D01*
X057600Y064720D02*
X057520Y064880D01*
X057680D01*
X057600Y064720D01*
Y064760D02*
X057560Y064840D01*
X057640D01*
X057600Y064760D01*
X058800Y052720D02*
X058720Y052880D01*
X058880D01*
X058800Y052720D01*
Y052760D02*
X058760Y052840D01*
X058840D01*
X058800Y052760D01*
X057600Y040720D02*
X057520Y040880D01*
X057680D01*
X057600Y040720D01*
Y040760D02*
X057560Y040840D01*
X057640D01*
X057600Y040760D01*
Y026320D02*
X057520Y026480D01*
X057680D01*
X057600Y026320D01*
Y026360D02*
X057560Y026440D01*
X057640D01*
X057600Y026360D01*
Y021520D02*
X057520Y021680D01*
X057680D01*
X057600Y021520D01*
Y021560D02*
X057560Y021640D01*
X057640D01*
X057600Y021560D01*
X055200Y064720D02*
X055120Y064880D01*
X055280D01*
X055200Y064720D01*
Y064760D02*
X055160Y064840D01*
X055240D01*
X055200Y064760D01*
X056400Y057520D02*
X056320Y057680D01*
X056480D01*
X056400Y057520D01*
Y057560D02*
X056360Y057640D01*
X056440D01*
X056400Y057560D01*
Y052720D02*
X056320Y052880D01*
X056480D01*
X056400Y052720D01*
Y052760D02*
X056360Y052840D01*
X056440D01*
X056400Y052760D01*
X055200Y045520D02*
X055120Y045680D01*
X055280D01*
X055200Y045520D01*
Y045560D02*
X055160Y045640D01*
X055240D01*
X055200Y045560D01*
Y011920D02*
X055120Y012080D01*
X055280D01*
X055200Y011920D01*
Y011960D02*
X055160Y012040D01*
X055240D01*
X055200Y011960D01*
X054000Y052720D02*
X053920Y052880D01*
X054080D01*
X054000Y052720D01*
Y052760D02*
X053960Y052840D01*
X054040D01*
X054000Y052760D01*
Y047920D02*
X053920Y048080D01*
X054080D01*
X054000Y047920D01*
Y047960D02*
X053960Y048040D01*
X054040D01*
X054000Y047960D01*
X052800Y045520D02*
X052720Y045680D01*
X052880D01*
X052800Y045520D01*
Y045560D02*
X052760Y045640D01*
X052840D01*
X052800Y045560D01*
X054000Y043120D02*
X053920Y043280D01*
X054080D01*
X054000Y043120D01*
Y043160D02*
X053960Y043240D01*
X054040D01*
X054000Y043160D01*
Y038320D02*
X053920Y038480D01*
X054080D01*
X054000Y038320D01*
Y038360D02*
X053960Y038440D01*
X054040D01*
X054000Y038360D01*
X052800Y031120D02*
X052720Y031280D01*
X052880D01*
X052800Y031120D01*
Y031160D02*
X052760Y031240D01*
X052840D01*
X052800Y031160D01*
X054000Y028720D02*
X053920Y028880D01*
X054080D01*
X054000Y028720D01*
Y028760D02*
X053960Y028840D01*
X054040D01*
X054000Y028760D01*
Y014320D02*
X053920Y014480D01*
X054080D01*
X054000Y014320D01*
Y014360D02*
X053960Y014440D01*
X054040D01*
X054000Y014360D01*
X052800Y011920D02*
X052720Y012080D01*
X052880D01*
X052800Y011920D01*
Y011960D02*
X052760Y012040D01*
X052840D01*
X052800Y011960D01*
X050400Y059920D02*
X050320Y060080D01*
X050480D01*
X050400Y059920D01*
Y059960D02*
X050360Y060040D01*
X050440D01*
X050400Y059960D01*
X051600Y043120D02*
X051520Y043280D01*
X051680D01*
X051600Y043120D01*
Y043160D02*
X051560Y043240D01*
X051640D01*
X051600Y043160D01*
X050400Y031120D02*
X050320Y031280D01*
X050480D01*
X050400Y031120D01*
Y031160D02*
X050360Y031240D01*
X050440D01*
X050400Y031160D01*
X051600Y023920D02*
X051520Y024080D01*
X051680D01*
X051600Y023920D01*
Y023960D02*
X051560Y024040D01*
X051640D01*
X051600Y023960D01*
X050400Y021520D02*
X050320Y021680D01*
X050480D01*
X050400Y021520D01*
Y021560D02*
X050360Y021640D01*
X050440D01*
X050400Y021560D01*
Y016720D02*
X050320Y016880D01*
X050480D01*
X050400Y016720D01*
Y016760D02*
X050360Y016840D01*
X050440D01*
X050400Y016760D01*
X051600Y014320D02*
X051520Y014480D01*
X051680D01*
X051600Y014320D01*
Y014360D02*
X051560Y014440D01*
X051640D01*
X051600Y014360D01*
X050400Y011920D02*
X050320Y012080D01*
X050480D01*
X050400Y011920D01*
Y011960D02*
X050360Y012040D01*
X050440D01*
X050400Y011960D01*
X049200Y062320D02*
X049120Y062480D01*
X049280D01*
X049200Y062320D01*
Y062360D02*
X049160Y062440D01*
X049240D01*
X049200Y062360D01*
X048000Y059920D02*
X047920Y060080D01*
X048080D01*
X048000Y059920D01*
Y059960D02*
X047960Y060040D01*
X048040D01*
X048000Y059960D01*
X049200Y052720D02*
X049120Y052880D01*
X049280D01*
X049200Y052720D01*
Y052760D02*
X049160Y052840D01*
X049240D01*
X049200Y052760D01*
X048000Y045520D02*
X047920Y045680D01*
X048080D01*
X048000Y045520D01*
Y045560D02*
X047960Y045640D01*
X048040D01*
X048000Y045560D01*
X049200Y019120D02*
X049120Y019280D01*
X049280D01*
X049200Y019120D01*
Y019160D02*
X049160Y019240D01*
X049240D01*
X049200Y019160D01*
X048000Y016720D02*
X047920Y016880D01*
X048080D01*
X048000Y016720D01*
Y016760D02*
X047960Y016840D01*
X048040D01*
X048000Y016760D01*
Y011920D02*
X047920Y012080D01*
X048080D01*
X048000Y011920D01*
Y011960D02*
X047960Y012040D01*
X048040D01*
X048000Y011960D01*
X046800Y062320D02*
X046720Y062480D01*
X046880D01*
X046800Y062320D01*
Y062360D02*
X046760Y062440D01*
X046840D01*
X046800Y062360D01*
X045600Y059920D02*
X045520Y060080D01*
X045680D01*
X045600Y059920D01*
Y059960D02*
X045560Y060040D01*
X045640D01*
X045600Y059960D01*
X046800Y057520D02*
X046720Y057680D01*
X046880D01*
X046800Y057520D01*
Y057560D02*
X046760Y057640D01*
X046840D01*
X046800Y057560D01*
X045600Y050320D02*
X045520Y050480D01*
X045680D01*
X045600Y050320D01*
Y050360D02*
X045560Y050440D01*
X045640D01*
X045600Y050360D01*
X046800Y043120D02*
X046720Y043280D01*
X046880D01*
X046800Y043120D01*
Y043160D02*
X046760Y043240D01*
X046840D01*
X046800Y043160D01*
Y033520D02*
X046720Y033680D01*
X046880D01*
X046800Y033520D01*
Y033560D02*
X046760Y033640D01*
X046840D01*
X046800Y033560D01*
X045600Y031120D02*
X045520Y031280D01*
X045680D01*
X045600Y031120D01*
Y031160D02*
X045560Y031240D01*
X045640D01*
X045600Y031160D01*
X046800Y023920D02*
X046720Y024080D01*
X046880D01*
X046800Y023920D01*
Y023960D02*
X046760Y024040D01*
X046840D01*
X046800Y023960D01*
Y019120D02*
X046720Y019280D01*
X046880D01*
X046800Y019120D01*
Y019160D02*
X046760Y019240D01*
X046840D01*
X046800Y019160D01*
X045600Y016720D02*
X045520Y016880D01*
X045680D01*
X045600Y016720D01*
Y016760D02*
X045560Y016840D01*
X045640D01*
X045600Y016760D01*
Y011920D02*
X045520Y012080D01*
X045680D01*
X045600Y011920D01*
Y011960D02*
X045560Y012040D01*
X045640D01*
X045600Y011960D01*
X044400Y062320D02*
X044320Y062480D01*
X044480D01*
X044400Y062320D01*
Y062360D02*
X044360Y062440D01*
X044440D01*
X044400Y062360D01*
X043200Y059920D02*
X043120Y060080D01*
X043280D01*
X043200Y059920D01*
Y059960D02*
X043160Y060040D01*
X043240D01*
X043200Y059960D01*
X044400Y057520D02*
X044320Y057680D01*
X044480D01*
X044400Y057520D01*
Y057560D02*
X044360Y057640D01*
X044440D01*
X044400Y057560D01*
X043200Y055120D02*
X043120Y055280D01*
X043280D01*
X043200Y055120D01*
Y055160D02*
X043160Y055240D01*
X043240D01*
X043200Y055160D01*
X044400Y052720D02*
X044320Y052880D01*
X044480D01*
X044400Y052720D01*
Y052760D02*
X044360Y052840D01*
X044440D01*
X044400Y052760D01*
X043200Y045520D02*
X043120Y045680D01*
X043280D01*
X043200Y045520D01*
Y045560D02*
X043160Y045640D01*
X043240D01*
X043200Y045560D01*
X044400Y043120D02*
X044320Y043280D01*
X044480D01*
X044400Y043120D01*
Y043160D02*
X044360Y043240D01*
X044440D01*
X044400Y043160D01*
Y028720D02*
X044320Y028880D01*
X044480D01*
X044400Y028720D01*
Y028760D02*
X044360Y028840D01*
X044440D01*
X044400Y028760D01*
X043200Y026320D02*
X043120Y026480D01*
X043280D01*
X043200Y026320D01*
Y026360D02*
X043160Y026440D01*
X043240D01*
X043200Y026360D01*
X044400Y023920D02*
X044320Y024080D01*
X044480D01*
X044400Y023920D01*
Y023960D02*
X044360Y024040D01*
X044440D01*
X044400Y023960D01*
X043200Y021520D02*
X043120Y021680D01*
X043280D01*
X043200Y021520D01*
Y021560D02*
X043160Y021640D01*
X043240D01*
X043200Y021560D01*
X044400Y019120D02*
X044320Y019280D01*
X044480D01*
X044400Y019120D01*
Y019160D02*
X044360Y019240D01*
X044440D01*
X044400Y019160D01*
X043200Y016720D02*
X043120Y016880D01*
X043280D01*
X043200Y016720D01*
Y016760D02*
X043160Y016840D01*
X043240D01*
X043200Y016760D01*
Y011920D02*
X043120Y012080D01*
X043280D01*
X043200Y011920D01*
Y011960D02*
X043160Y012040D01*
X043240D01*
X043200Y011960D01*
X042000Y062320D02*
X041920Y062480D01*
X042080D01*
X042000Y062320D01*
Y062360D02*
X041960Y062440D01*
X042040D01*
X042000Y062360D01*
Y057520D02*
X041920Y057680D01*
X042080D01*
X042000Y057520D01*
Y057560D02*
X041960Y057640D01*
X042040D01*
X042000Y057560D01*
Y052720D02*
X041920Y052880D01*
X042080D01*
X042000Y052720D01*
Y052760D02*
X041960Y052840D01*
X042040D01*
X042000Y052760D01*
X040800Y045520D02*
X040720Y045680D01*
X040880D01*
X040800Y045520D01*
Y045560D02*
X040760Y045640D01*
X040840D01*
X040800Y045560D01*
X042000Y043120D02*
X041920Y043280D01*
X042080D01*
X042000Y043120D01*
Y043160D02*
X041960Y043240D01*
X042040D01*
X042000Y043160D01*
X040800Y035920D02*
X040720Y036080D01*
X040880D01*
X040800Y035920D01*
Y035960D02*
X040760Y036040D01*
X040840D01*
X040800Y035960D01*
Y026320D02*
X040720Y026480D01*
X040880D01*
X040800Y026320D01*
Y026360D02*
X040760Y026440D01*
X040840D01*
X040800Y026360D01*
Y021520D02*
X040720Y021680D01*
X040880D01*
X040800Y021520D01*
Y021560D02*
X040760Y021640D01*
X040840D01*
X040800Y021560D01*
Y016720D02*
X040720Y016880D01*
X040880D01*
X040800Y016720D01*
Y016760D02*
X040760Y016840D01*
X040840D01*
X040800Y016760D01*
X039600Y062320D02*
X039520Y062480D01*
X039680D01*
X039600Y062320D01*
Y062360D02*
X039560Y062440D01*
X039640D01*
X039600Y062360D01*
Y057520D02*
X039520Y057680D01*
X039680D01*
X039600Y057520D01*
Y057560D02*
X039560Y057640D01*
X039640D01*
X039600Y057560D01*
Y052720D02*
X039520Y052880D01*
X039680D01*
X039600Y052720D01*
Y052760D02*
X039560Y052840D01*
X039640D01*
X039600Y052760D01*
Y047920D02*
X039520Y048080D01*
X039680D01*
X039600Y047920D01*
Y047960D02*
X039560Y048040D01*
X039640D01*
X039600Y047960D01*
Y043120D02*
X039520Y043280D01*
X039680D01*
X039600Y043120D01*
Y043160D02*
X039560Y043240D01*
X039640D01*
X039600Y043160D01*
Y038320D02*
X039520Y038480D01*
X039680D01*
X039600Y038320D01*
Y038360D02*
X039560Y038440D01*
X039640D01*
X039600Y038360D01*
X038400Y035920D02*
X038320Y036080D01*
X038480D01*
X038400Y035920D01*
Y035960D02*
X038360Y036040D01*
X038440D01*
X038400Y035960D01*
X039600Y028720D02*
X039520Y028880D01*
X039680D01*
X039600Y028720D01*
Y028760D02*
X039560Y028840D01*
X039640D01*
X039600Y028760D01*
Y023920D02*
X039520Y024080D01*
X039680D01*
X039600Y023920D01*
Y023960D02*
X039560Y024040D01*
X039640D01*
X039600Y023960D01*
Y019120D02*
X039520Y019280D01*
X039680D01*
X039600Y019120D01*
Y019160D02*
X039560Y019240D01*
X039640D01*
X039600Y019160D01*
X037200Y028720D02*
X037120Y028880D01*
X037280D01*
X037200Y028720D01*
Y028760D02*
X037160Y028840D01*
X037240D01*
X037200Y028760D01*
X036000Y026320D02*
X035920Y026480D01*
X036080D01*
X036000Y026320D01*
Y026360D02*
X035960Y026440D01*
X036040D01*
X036000Y026360D01*
X037200Y023920D02*
X037120Y024080D01*
X037280D01*
X037200Y023920D01*
Y023960D02*
X037160Y024040D01*
X037240D01*
X037200Y023960D01*
X036000Y021520D02*
X035920Y021680D01*
X036080D01*
X036000Y021520D01*
Y021560D02*
X035960Y021640D01*
X036040D01*
X036000Y021560D01*
X037200Y019120D02*
X037120Y019280D01*
X037280D01*
X037200Y019120D01*
Y019160D02*
X037160Y019240D01*
X037240D01*
X037200Y019160D01*
X036000Y016720D02*
X035920Y016880D01*
X036080D01*
X036000Y016720D01*
Y016760D02*
X035960Y016840D01*
X036040D01*
X036000Y016760D01*
X037200Y014320D02*
X037120Y014480D01*
X037280D01*
X037200Y014320D01*
Y014360D02*
X037160Y014440D01*
X037240D01*
X037200Y014360D01*
X034800Y033520D02*
X034720Y033680D01*
X034880D01*
X034800Y033520D01*
Y033560D02*
X034760Y033640D01*
X034840D01*
X034800Y033560D01*
X033600Y026320D02*
X033520Y026480D01*
X033680D01*
X033600Y026320D01*
Y026360D02*
X033560Y026440D01*
X033640D01*
X033600Y026360D01*
Y021520D02*
X033520Y021680D01*
X033680D01*
X033600Y021520D01*
Y021560D02*
X033560Y021640D01*
X033640D01*
X033600Y021560D01*
Y016720D02*
X033520Y016880D01*
X033680D01*
X033600Y016720D01*
Y016760D02*
X033560Y016840D01*
X033640D01*
X033600Y016760D01*
X031200Y064720D02*
X031120Y064880D01*
X031280D01*
X031200Y064720D01*
Y064760D02*
X031160Y064840D01*
X031240D01*
X031200Y064760D01*
Y059920D02*
X031120Y060080D01*
X031280D01*
X031200Y059920D01*
Y059960D02*
X031160Y060040D01*
X031240D01*
X031200Y059960D01*
X032400Y057520D02*
X032320Y057680D01*
X032480D01*
X032400Y057520D01*
Y057560D02*
X032360Y057640D01*
X032440D01*
X032400Y057560D01*
X031200Y055120D02*
X031120Y055280D01*
X031280D01*
X031200Y055120D01*
Y055160D02*
X031160Y055240D01*
X031240D01*
X031200Y055160D01*
X032400Y052720D02*
X032320Y052880D01*
X032480D01*
X032400Y052720D01*
Y052760D02*
X032360Y052840D01*
X032440D01*
X032400Y052760D01*
X031200Y050320D02*
X031120Y050480D01*
X031280D01*
X031200Y050320D01*
Y050360D02*
X031160Y050440D01*
X031240D01*
X031200Y050360D01*
X032400Y047920D02*
X032320Y048080D01*
X032480D01*
X032400Y047920D01*
Y047960D02*
X032360Y048040D01*
X032440D01*
X032400Y047960D01*
X031200Y045520D02*
X031120Y045680D01*
X031280D01*
X031200Y045520D01*
Y045560D02*
X031160Y045640D01*
X031240D01*
X031200Y045560D01*
X032400Y043120D02*
X032320Y043280D01*
X032480D01*
X032400Y043120D01*
Y043160D02*
X032360Y043240D01*
X032440D01*
X032400Y043160D01*
X031200Y040720D02*
X031120Y040880D01*
X031280D01*
X031200Y040720D01*
Y040760D02*
X031160Y040840D01*
X031240D01*
X031200Y040760D01*
X032400Y038320D02*
X032320Y038480D01*
X032480D01*
X032400Y038320D01*
Y038360D02*
X032360Y038440D01*
X032440D01*
X032400Y038360D01*
X031200Y035920D02*
X031120Y036080D01*
X031280D01*
X031200Y035920D01*
Y035960D02*
X031160Y036040D01*
X031240D01*
X031200Y035960D01*
X032400Y023920D02*
X032320Y024080D01*
X032480D01*
X032400Y023920D01*
Y023960D02*
X032360Y024040D01*
X032440D01*
X032400Y023960D01*
Y019120D02*
X032320Y019280D01*
X032480D01*
X032400Y019120D01*
Y019160D02*
X032360Y019240D01*
X032440D01*
X032400Y019160D01*
X028800Y064720D02*
X028720Y064880D01*
X028880D01*
X028800Y064720D01*
Y064760D02*
X028760Y064840D01*
X028840D01*
X028800Y064760D01*
X030000Y057520D02*
X029920Y057680D01*
X030080D01*
X030000Y057520D01*
Y057560D02*
X029960Y057640D01*
X030040D01*
X030000Y057560D01*
Y052720D02*
X029920Y052880D01*
X030080D01*
X030000Y052720D01*
Y052760D02*
X029960Y052840D01*
X030040D01*
X030000Y052760D01*
Y047920D02*
X029920Y048080D01*
X030080D01*
X030000Y047920D01*
Y047960D02*
X029960Y048040D01*
X030040D01*
X030000Y047960D01*
Y043120D02*
X029920Y043280D01*
X030080D01*
X030000Y043120D01*
Y043160D02*
X029960Y043240D01*
X030040D01*
X030000Y043160D01*
Y038320D02*
X029920Y038480D01*
X030080D01*
X030000Y038320D01*
Y038360D02*
X029960Y038440D01*
X030040D01*
X030000Y038360D01*
X028800Y031120D02*
X028720Y031280D01*
X028880D01*
X028800Y031120D01*
Y031160D02*
X028760Y031240D01*
X028840D01*
X028800Y031160D01*
X030000Y023920D02*
X029920Y024080D01*
X030080D01*
X030000Y023920D01*
Y023960D02*
X029960Y024040D01*
X030040D01*
X030000Y023960D01*
X028800Y021520D02*
X028720Y021680D01*
X028880D01*
X028800Y021520D01*
Y021560D02*
X028760Y021640D01*
X028840D01*
X028800Y021560D01*
X030000Y019120D02*
X029920Y019280D01*
X030080D01*
X030000Y019120D01*
Y019160D02*
X029960Y019240D01*
X030040D01*
X030000Y019160D01*
X028800Y016720D02*
X028720Y016880D01*
X028880D01*
X028800Y016720D01*
Y016760D02*
X028760Y016840D01*
X028840D01*
X028800Y016760D01*
X027600Y033520D02*
X027520Y033680D01*
X027680D01*
X027600Y033520D01*
Y033560D02*
X027560Y033640D01*
X027640D01*
X027600Y033560D01*
Y028720D02*
X027520Y028880D01*
X027680D01*
X027600Y028720D01*
Y028760D02*
X027560Y028840D01*
X027640D01*
X027600Y028760D01*
X026400Y021520D02*
X026320Y021680D01*
X026480D01*
X026400Y021520D01*
Y021560D02*
X026360Y021640D01*
X026440D01*
X026400Y021560D01*
Y011920D02*
X026320Y012080D01*
X026480D01*
X026400Y011920D01*
Y011960D02*
X026360Y012040D01*
X026440D01*
X026400Y011960D01*
X025200Y062320D02*
X025120Y062480D01*
X025280D01*
X025200Y062320D01*
Y062360D02*
X025160Y062440D01*
X025240D01*
X025200Y062360D01*
Y033520D02*
X025120Y033680D01*
X025280D01*
X025200Y033520D01*
Y033560D02*
X025160Y033640D01*
X025240D01*
X025200Y033560D01*
X024000Y031120D02*
X023920Y031280D01*
X024080D01*
X024000Y031120D01*
Y031160D02*
X023960Y031240D01*
X024040D01*
X024000Y031160D01*
X025200Y023920D02*
X025120Y024080D01*
X025280D01*
X025200Y023920D01*
Y023960D02*
X025160Y024040D01*
X025240D01*
X025200Y023960D01*
Y014320D02*
X025120Y014480D01*
X025280D01*
X025200Y014320D01*
Y014360D02*
X025160Y014440D01*
X025240D01*
X025200Y014360D01*
X024000Y011920D02*
X023920Y012080D01*
X024080D01*
X024000Y011920D01*
Y011960D02*
X023960Y012040D01*
X024040D01*
X024000Y011960D01*
X022800Y062320D02*
X022720Y062480D01*
X022880D01*
X022800Y062320D01*
Y062360D02*
X022760Y062440D01*
X022840D01*
X022800Y062360D01*
Y033520D02*
X022720Y033680D01*
X022880D01*
X022800Y033520D01*
Y033560D02*
X022760Y033640D01*
X022840D01*
X022800Y033560D01*
X021600Y031120D02*
X021520Y031280D01*
X021680D01*
X021600Y031120D01*
Y031160D02*
X021560Y031240D01*
X021640D01*
X021600Y031160D01*
Y021520D02*
X021520Y021680D01*
X021680D01*
X021600Y021520D01*
Y021560D02*
X021560Y021640D01*
X021640D01*
X021600Y021560D01*
X022800Y019120D02*
X022720Y019280D01*
X022880D01*
X022800Y019120D01*
Y019160D02*
X022760Y019240D01*
X022840D01*
X022800Y019160D01*
X021600Y016720D02*
X021520Y016880D01*
X021680D01*
X021600Y016720D01*
Y016760D02*
X021560Y016840D01*
X021640D01*
X021600Y016760D01*
X022800Y014320D02*
X022720Y014480D01*
X022880D01*
X022800Y014320D01*
Y014360D02*
X022760Y014440D01*
X022840D01*
X022800Y014360D01*
X021600Y011920D02*
X021520Y012080D01*
X021680D01*
X021600Y011920D01*
Y011960D02*
X021560Y012040D01*
X021640D01*
X021600Y011960D01*
X020400Y033520D02*
X020320Y033680D01*
X020480D01*
X020400Y033520D01*
Y033560D02*
X020360Y033640D01*
X020440D01*
X020400Y033560D01*
X019200Y031120D02*
X019120Y031280D01*
X019280D01*
X019200Y031120D01*
Y031160D02*
X019160Y031240D01*
X019240D01*
X019200Y031160D01*
Y021520D02*
X019120Y021680D01*
X019280D01*
X019200Y021520D01*
Y021560D02*
X019160Y021640D01*
X019240D01*
X019200Y021560D01*
Y016720D02*
X019120Y016880D01*
X019280D01*
X019200Y016720D01*
Y016760D02*
X019160Y016840D01*
X019240D01*
X019200Y016760D01*
Y011920D02*
X019120Y012080D01*
X019280D01*
X019200Y011920D01*
Y011960D02*
X019160Y012040D01*
X019240D01*
X019200Y011960D01*
X018000Y023920D02*
X017920Y024080D01*
X018080D01*
X018000Y023920D01*
Y023960D02*
X017960Y024040D01*
X018040D01*
X018000Y023960D01*
Y019120D02*
X017920Y019280D01*
X018080D01*
X018000Y019120D01*
Y019160D02*
X017960Y019240D01*
X018040D01*
X018000Y019160D01*
X016800Y016720D02*
X016720Y016880D01*
X016880D01*
X016800Y016720D01*
Y016760D02*
X016760Y016840D01*
X016840D01*
X016800Y016760D01*
X018000Y014320D02*
X017920Y014480D01*
X018080D01*
X018000Y014320D01*
Y014360D02*
X017960Y014440D01*
X018040D01*
X018000Y014360D01*
X016800Y011920D02*
X016720Y012080D01*
X016880D01*
X016800Y011920D01*
Y011960D02*
X016760Y012040D01*
X016840D01*
X016800Y011960D01*
X014400Y064720D02*
X014320Y064880D01*
X014480D01*
X014400Y064720D01*
Y064760D02*
X014360Y064840D01*
X014440D01*
X014400Y064760D01*
X015600Y062320D02*
X015520Y062480D01*
X015680D01*
X015600Y062320D01*
Y062360D02*
X015560Y062440D01*
X015640D01*
X015600Y062360D01*
Y028720D02*
X015520Y028880D01*
X015680D01*
X015600Y028720D01*
Y028760D02*
X015560Y028840D01*
X015640D01*
X015600Y028760D01*
Y014320D02*
X015520Y014480D01*
X015680D01*
X015600Y014320D01*
Y014360D02*
X015560Y014440D01*
X015640D01*
X015600Y014360D01*
X014400Y011920D02*
X014320Y012080D01*
X014480D01*
X014400Y011920D01*
Y011960D02*
X014360Y012040D01*
X014440D01*
X014400Y011960D01*
X012000Y055120D02*
X011920Y055280D01*
X012080D01*
X012000Y055120D01*
Y055160D02*
X011960Y055240D01*
X012040D01*
X012000Y055160D01*
Y045520D02*
X011920Y045680D01*
X012080D01*
X012000Y045520D01*
Y045560D02*
X011960Y045640D01*
X012040D01*
X012000Y045560D01*
Y035920D02*
X011920Y036080D01*
X012080D01*
X012000Y035920D01*
Y035960D02*
X011960Y036040D01*
X012040D01*
X012000Y035960D01*
Y016720D02*
X011920Y016880D01*
X012080D01*
X012000Y016720D01*
Y016760D02*
X011960Y016840D01*
X012040D01*
X012000Y016760D01*
X071642Y049359D02*
X071562Y049519D01*
X071722D01*
X071642Y049359D01*
Y049399D02*
X071602Y049479D01*
X071682D01*
X071642Y049399D01*
X074825Y059828D02*
X074745Y059988D01*
X074905D01*
X074825Y059828D01*
Y059868D02*
X074785Y059948D01*
X074865D01*
X074825Y059868D01*
X074575Y059552D02*
X074495Y059712D01*
X074655D01*
X074575Y059552D01*
Y059592D02*
X074535Y059672D01*
X074615D01*
X074575Y059592D01*
X075275Y060008D02*
X075195Y060168D01*
X075355D01*
X075275Y060008D01*
Y060048D02*
X075235Y060128D01*
X075315D01*
X075275Y060048D01*
D168*
X016202Y064685D02*
G03*
X016202Y064685I-000080J000000D01*
G01*
X049647Y012195D02*
G03*
X049647Y012195I-000080J000000D01*
G01*
X058824Y035217D02*
G03*
X058824Y035217I-000080J000000D01*
G01*
Y064744D02*
G03*
X058824Y064744I-000080J000000D01*
G01*
X010867Y012116D02*
G03*
X010867Y012116I-000080J000000D01*
G01*
X088052Y064685D02*
G03*
X088052Y064685I-000080J000000D01*
G01*
X076024Y012238D02*
G03*
X076024Y012238I-000080J000000D01*
G01*
X029689Y035217D02*
G03*
X029689Y035217I-000080J000000D01*
G01*
X029689Y064744D02*
G03*
X029689Y064744I-000080J000000D01*
G01*
X051231Y063740D02*
G03*
X051231Y063740I-000080J000000D01*
G01*
X051074Y064390D02*
G03*
X051074Y064390I-000080J000000D01*
G01*
X059540Y050493D02*
G03*
X059540Y050493I-000080J000000D01*
G01*
X060501Y050568D02*
G03*
X060501Y050568I-000080J000000D01*
G01*
X060501Y057249D02*
G03*
X060501Y057249I-000080J000000D01*
G01*
X060143Y058303D02*
G03*
X060143Y058303I-000080J000000D01*
G01*
X058734Y058313D02*
G03*
X058734Y058313I-000080J000000D01*
G01*
X060620Y058853D02*
G03*
X060620Y058853I-000080J000000D01*
G01*
X069269Y060042D02*
G03*
X069269Y060042I-000080J000000D01*
G01*
X069109Y059788D02*
G03*
X069109Y059788I-000080J000000D01*
G01*
X069955Y057956D02*
G03*
X069955Y057956I-000080J000000D01*
G01*
X069346Y058208D02*
G03*
X069346Y058208I-000080J000000D01*
G01*
X046033Y055654D02*
G03*
X046033Y055654I-000080J000000D01*
G01*
X046029Y054852D02*
G03*
X046029Y054852I-000080J000000D01*
G01*
X046009Y052940D02*
G03*
X046009Y052940I-000080J000000D01*
G01*
X047586Y052945D02*
G03*
X047586Y052945I-000080J000000D01*
G01*
X047423Y056016D02*
G03*
X047423Y056016I-000080J000000D01*
G01*
X044883Y053201D02*
G03*
X044883Y053201I-000080J000000D01*
G01*
X052255Y053917D02*
G03*
X052255Y053917I-000080J000000D01*
G01*
X043266Y049850D02*
G03*
X043266Y049850I-000080J000000D01*
G01*
X043280Y050156D02*
G03*
X043280Y050156I-000080J000000D01*
G01*
X047478Y049878D02*
G03*
X047478Y049878I-000080J000000D01*
G01*
X047466Y050206D02*
G03*
X047466Y050206I-000080J000000D01*
G01*
X047669Y048719D02*
G03*
X047669Y048719I-000080J000000D01*
G01*
X047667Y049034D02*
G03*
X047667Y049034I-000080J000000D01*
G01*
X046029Y049626D02*
G03*
X046029Y049626I-000080J000000D01*
G01*
X046033Y049289D02*
G03*
X046033Y049289I-000080J000000D01*
G01*
X044952Y048401D02*
G03*
X044952Y048401I-000080J000000D01*
G01*
Y048720D02*
G03*
X044952Y048720I-000080J000000D01*
G01*
X043955Y049610D02*
G03*
X043955Y049610I-000080J000000D01*
G01*
X043956Y049303D02*
G03*
X043956Y049303I-000080J000000D01*
G01*
X041184Y039330D02*
G03*
X041184Y039330I-000080J000000D01*
G01*
X037500Y061930D02*
G03*
X037500Y061930I-000080J000000D01*
G01*
X038013Y062018D02*
G03*
X038013Y062018I-000080J000000D01*
G01*
X038220Y062487D02*
G03*
X038220Y062487I-000080J000000D01*
G01*
X027985Y061981D02*
G03*
X027985Y061981I-000080J000000D01*
G01*
X086972Y064063D02*
G03*
X086972Y064063I-000080J000000D01*
G01*
X083745Y057426D02*
G03*
X083745Y057426I-000080J000000D01*
G01*
X086972Y065957D02*
G03*
X086972Y065957I-000080J000000D01*
G01*
X085490Y060781D02*
G03*
X085490Y060781I-000080J000000D01*
G01*
X011029Y047002D02*
G03*
X011029Y047002I-000080J000000D01*
G01*
X010812Y038194D02*
G03*
X010812Y038194I-000080J000000D01*
G01*
X011106Y038746D02*
G03*
X011106Y038746I-000080J000000D01*
G01*
X012222Y062290D02*
G03*
X012222Y062290I-000080J000000D01*
G01*
X012226Y063110D02*
G03*
X012226Y063110I-000080J000000D01*
G01*
X011952Y063918D02*
G03*
X011952Y063918I-000080J000000D01*
G01*
X020818Y064464D02*
G03*
X020818Y064464I-000080J000000D01*
G01*
X020313Y064454D02*
G03*
X020313Y064454I-000080J000000D01*
G01*
X025770Y063810D02*
G03*
X025770Y063810I-000080J000000D01*
G01*
X014009Y065879D02*
G03*
X014009Y065879I-000080J000000D01*
G01*
X023811Y065345D02*
G03*
X023811Y065345I-000080J000000D01*
G01*
X014009Y063161D02*
G03*
X014009Y063161I-000080J000000D01*
G01*
X023313Y063383D02*
G03*
X023313Y063383I-000080J000000D01*
G01*
X035213Y066463D02*
G03*
X035213Y066463I-000080J000000D01*
G01*
X078129Y065832D02*
G03*
X078129Y065832I-000080J000000D01*
G01*
X077398Y062105D02*
G03*
X077398Y062105I-000080J000000D01*
G01*
X066689Y043670D02*
G03*
X066689Y043670I-000080J000000D01*
G01*
X028152Y061713D02*
G03*
X028152Y061713I-000080J000000D01*
G01*
X027275Y062213D02*
G03*
X027275Y062213I-000080J000000D01*
G01*
X037860Y062376D02*
G03*
X037860Y062376I-000080J000000D01*
G01*
X032819Y063776D02*
G03*
X032819Y063776I-000080J000000D01*
G01*
X027501Y063504D02*
G03*
X027501Y063504I-000080J000000D01*
G01*
X021309Y063370D02*
G03*
X021309Y063370I-000080J000000D01*
G01*
X067363Y047559D02*
G03*
X067363Y047559I-000080J000000D01*
G01*
X048751Y040928D02*
G03*
X048751Y040928I-000080J000000D01*
G01*
X048289Y040305D02*
G03*
X048289Y040305I-000080J000000D01*
G01*
X048126Y041819D02*
G03*
X048126Y041819I-000080J000000D01*
G01*
X047897Y041487D02*
G03*
X047897Y041487I-000080J000000D01*
G01*
X048308Y042179D02*
G03*
X048308Y042179I-000080J000000D01*
G01*
X072071Y041969D02*
G03*
X072071Y041969I-000080J000000D01*
G01*
X058979Y055097D02*
G03*
X058979Y055097I-000080J000000D01*
G01*
X058659Y057250D02*
G03*
X058659Y057250I-000080J000000D01*
G01*
X060495Y055525D02*
G03*
X060495Y055525I-000080J000000D01*
G01*
X060475Y054717D02*
G03*
X060475Y054717I-000080J000000D01*
G01*
X082684Y055845D02*
G03*
X082684Y055845I-000080J000000D01*
G01*
X081981Y054239D02*
G03*
X081981Y054239I-000080J000000D01*
G01*
X068226Y036261D02*
G03*
X068226Y036261I-000080J000000D01*
G01*
X068242Y035539D02*
G03*
X068242Y035539I-000080J000000D01*
G01*
X080292Y044424D02*
G03*
X080292Y044424I-000080J000000D01*
G01*
X079680Y044960D02*
G03*
X079680Y044960I-000080J000000D01*
G01*
X076319Y048123D02*
G03*
X076319Y048123I-000080J000000D01*
G01*
X081559Y052525D02*
G03*
X081559Y052525I-000080J000000D01*
G01*
X073049Y064312D02*
G03*
X073049Y064312I-000080J000000D01*
G01*
X073045Y061731D02*
G03*
X073045Y061731I-000080J000000D01*
G01*
X077286Y063057D02*
G03*
X077286Y063057I-000080J000000D01*
G01*
X068713Y051978D02*
G03*
X068713Y051978I-000080J000000D01*
G01*
X047250Y051680D02*
G03*
X047250Y051680I-000080J000000D01*
G01*
X059454Y045458D02*
G03*
X059454Y045458I-000080J000000D01*
G01*
X059606Y049012D02*
G03*
X059606Y049012I-000080J000000D01*
G01*
X059093Y050631D02*
G03*
X059093Y050631I-000080J000000D01*
G01*
X082393Y036111D02*
G03*
X082393Y036111I-000080J000000D01*
G01*
X078938Y056156D02*
G03*
X078938Y056156I-000080J000000D01*
G01*
X080248Y039163D02*
G03*
X080248Y039163I-000080J000000D01*
G01*
X081776Y047818D02*
G03*
X081776Y047818I-000080J000000D01*
G01*
X082090Y048202D02*
G03*
X082090Y048202I-000080J000000D01*
G01*
X082339Y048720D02*
G03*
X082339Y048720I-000080J000000D01*
G01*
X082693Y054355D02*
G03*
X082693Y054355I-000080J000000D01*
G01*
X082339Y054709D02*
G03*
X082339Y054709I-000080J000000D01*
G01*
X083619Y050960D02*
G03*
X083619Y050960I-000080J000000D01*
G01*
X083260Y050367D02*
G03*
X083260Y050367I-000080J000000D01*
G01*
X068090Y025954D02*
G03*
X068090Y025954I-000080J000000D01*
G01*
X067275Y026196D02*
G03*
X067275Y026196I-000080J000000D01*
G01*
X064680Y026076D02*
G03*
X064680Y026076I-000080J000000D01*
G01*
X061920Y025605D02*
G03*
X061920Y025605I-000080J000000D01*
G01*
X061920Y026126D02*
G03*
X061920Y026126I-000080J000000D01*
G01*
X063252Y026086D02*
G03*
X063252Y026086I-000080J000000D01*
G01*
X063240Y025579D02*
G03*
X063240Y025579I-000080J000000D01*
G01*
X064661Y025562D02*
G03*
X064661Y025562I-000080J000000D01*
G01*
X067303Y027688D02*
G03*
X067303Y027688I-000080J000000D01*
G01*
X082272Y056986D02*
G03*
X082272Y056986I-000080J000000D01*
G01*
X072804Y041591D02*
G03*
X072804Y041591I-000080J000000D01*
G01*
X052599Y039615D02*
G03*
X052599Y039615I-000080J000000D01*
G01*
X064656Y056591D02*
G03*
X064656Y056591I-000080J000000D01*
G01*
X064469Y057023D02*
G03*
X064469Y057023I-000080J000000D01*
G01*
X067572Y057145D02*
G03*
X067572Y057145I-000080J000000D01*
G01*
X063805Y058884D02*
G03*
X063805Y058884I-000080J000000D01*
G01*
X065994D02*
G03*
X065994Y058884I-000080J000000D01*
G01*
X072462Y064312D02*
G03*
X072462Y064312I-000080J000000D01*
G01*
X072457Y061729D02*
G03*
X072457Y061729I-000080J000000D01*
G01*
X049548Y042869D02*
G03*
X049548Y042869I-000080J000000D01*
G01*
X046854Y040561D02*
G03*
X046854Y040561I-000080J000000D01*
G01*
X063989Y062400D02*
G03*
X063989Y062400I-000080J000000D01*
G01*
X062481Y061359D02*
G03*
X062481Y061359I-000080J000000D01*
G01*
X064492Y061689D02*
G03*
X064492Y061689I-000080J000000D01*
G01*
X065988Y063450D02*
G03*
X065988Y063450I-000080J000000D01*
G01*
X064508Y063818D02*
G03*
X064508Y063818I-000080J000000D01*
G01*
X050999Y059213D02*
G03*
X050999Y059213I-000080J000000D01*
G01*
X051022Y061862D02*
G03*
X051022Y061862I-000080J000000D01*
G01*
X069765Y056317D02*
G03*
X069765Y056317I-000080J000000D01*
G01*
X065002Y057042D02*
G03*
X065002Y057042I-000080J000000D01*
G01*
X060298Y057643D02*
G03*
X060298Y057643I-000080J000000D01*
G01*
X065942Y060018D02*
G03*
X065942Y060018I-000080J000000D01*
G01*
X066937Y060006D02*
G03*
X066937Y060006I-000080J000000D01*
G01*
X063649Y053423D02*
G03*
X063649Y053423I-000080J000000D01*
G01*
X063694Y055999D02*
G03*
X063694Y055999I-000080J000000D01*
G01*
X059529Y056736D02*
G03*
X059529Y056736I-000080J000000D01*
G01*
X058763Y044851D02*
G03*
X058763Y044851I-000080J000000D01*
G01*
X060689D02*
G03*
X060689Y044851I-000080J000000D01*
G01*
X047553Y031179D02*
G03*
X047553Y031179I-000080J000000D01*
G01*
X048421Y031416D02*
G03*
X048421Y031416I-000080J000000D01*
G01*
X049239Y031163D02*
G03*
X049239Y031163I-000080J000000D01*
G01*
X050168Y030999D02*
G03*
X050168Y030999I-000080J000000D01*
G01*
X054947Y029469D02*
G03*
X054947Y029469I-000080J000000D01*
G01*
X052515Y031400D02*
G03*
X052515Y031400I-000080J000000D01*
G01*
X053931Y030658D02*
G03*
X053931Y030658I-000080J000000D01*
G01*
X048982Y033927D02*
G03*
X048982Y033927I-000080J000000D01*
G01*
X046585Y033412D02*
G03*
X046585Y033412I-000080J000000D01*
G01*
X046569Y032483D02*
G03*
X046569Y032483I-000080J000000D01*
G01*
X045942Y031520D02*
G03*
X045942Y031520I-000080J000000D01*
G01*
X052035Y050997D02*
G03*
X052035Y050997I-000080J000000D01*
G01*
X051935Y049846D02*
G03*
X051935Y049846I-000080J000000D01*
G01*
X051569Y047593D02*
G03*
X051569Y047593I-000080J000000D01*
G01*
X051543Y046011D02*
G03*
X051543Y046011I-000080J000000D01*
G01*
X051583Y042802D02*
G03*
X051583Y042802I-000080J000000D01*
G01*
X050834Y040425D02*
G03*
X050834Y040425I-000080J000000D01*
G01*
X040832Y011745D02*
G03*
X040832Y011745I-000080J000000D01*
G01*
X029428Y012733D02*
G03*
X029428Y012733I-000080J000000D01*
G01*
X033561Y012743D02*
G03*
X033561Y012743I-000080J000000D01*
G01*
X028335Y017054D02*
G03*
X028335Y017054I-000080J000000D01*
G01*
X029060Y019780D02*
G03*
X029060Y019780I-000080J000000D01*
G01*
X029389Y025061D02*
G03*
X029389Y025061I-000080J000000D01*
G01*
X029043Y022871D02*
G03*
X029043Y022871I-000080J000000D01*
G01*
X030569Y026699D02*
G03*
X030569Y026699I-000080J000000D01*
G01*
X032813Y026640D02*
G03*
X032813Y026640I-000080J000000D01*
G01*
X037301Y014928D02*
G03*
X037301Y014928I-000080J000000D01*
G01*
X035972Y019081D02*
G03*
X035972Y019081I-000080J000000D01*
G01*
X036100Y022890D02*
G03*
X036100Y022890I-000080J000000D01*
G01*
X036524Y027231D02*
G03*
X036524Y027231I-000080J000000D01*
G01*
X040559Y026424D02*
G03*
X040559Y026424I-000080J000000D01*
G01*
X040628Y023392D02*
G03*
X040628Y023392I-000080J000000D01*
G01*
X040677Y017822D02*
G03*
X040677Y017822I-000080J000000D01*
G01*
X044811Y012694D02*
G03*
X044811Y012694I-000080J000000D01*
G01*
X078417Y053498D02*
G03*
X078417Y053498I-000080J000000D01*
G01*
X073151Y054219D02*
G03*
X073151Y054219I-000080J000000D01*
G01*
X074323Y052944D02*
G03*
X074323Y052944I-000080J000000D01*
G01*
X074573Y052009D02*
G03*
X074573Y052009I-000080J000000D01*
G01*
X075235D02*
G03*
X075235Y052009I-000080J000000D01*
G01*
X076131D02*
G03*
X076131Y052009I-000080J000000D01*
G01*
X078736Y052353D02*
G03*
X078736Y052353I-000080J000000D01*
G01*
X012013Y013284D02*
G03*
X012013Y013284I-000080J000000D01*
G01*
X011934Y012963D02*
G03*
X011934Y012963I-000080J000000D01*
G01*
X021816Y063354D02*
G03*
X021816Y063354I-000080J000000D01*
G01*
X022315Y063380D02*
G03*
X022315Y063380I-000080J000000D01*
G01*
X026143Y063504D02*
G03*
X026143Y063504I-000080J000000D01*
G01*
X018817Y064648D02*
G03*
X018817Y064648I-000080J000000D01*
G01*
X019819Y064469D02*
G03*
X019819Y064469I-000080J000000D01*
G01*
X022301Y065603D02*
G03*
X022301Y065603I-000080J000000D01*
G01*
X036315Y065241D02*
G03*
X036315Y065241I-000080J000000D01*
G01*
X035818D02*
G03*
X035818Y065241I-000080J000000D01*
G01*
X031828Y063738D02*
G03*
X031828Y063738I-000080J000000D01*
G01*
X032332Y063714D02*
G03*
X032332Y063714I-000080J000000D01*
G01*
X033800Y062211D02*
G03*
X033800Y062211I-000080J000000D01*
G01*
X080531Y056718D02*
G03*
X080531Y056718I-000080J000000D01*
G01*
X082440Y056371D02*
G03*
X082440Y056371I-000080J000000D01*
G01*
X081655Y054360D02*
G03*
X081655Y054360I-000080J000000D01*
G01*
X079278Y055155D02*
G03*
X079278Y055155I-000080J000000D01*
G01*
X080093Y053510D02*
G03*
X080093Y053510I-000080J000000D01*
G01*
X079234Y055794D02*
G03*
X079234Y055794I-000080J000000D01*
G01*
X081837Y056961D02*
G03*
X081837Y056961I-000080J000000D01*
G01*
X079226Y056659D02*
G03*
X079226Y056659I-000080J000000D01*
G01*
X080179Y052435D02*
G03*
X080179Y052435I-000080J000000D01*
G01*
Y052071D02*
G03*
X080179Y052071I-000080J000000D01*
G01*
X081912Y049098D02*
G03*
X081912Y049098I-000080J000000D01*
G01*
X085562Y050657D02*
G03*
X085562Y050657I-000080J000000D01*
G01*
X086364Y049754D02*
G03*
X086364Y049754I-000080J000000D01*
G01*
X085557Y049727D02*
G03*
X085557Y049727I-000080J000000D01*
G01*
X085562Y049418D02*
G03*
X085562Y049418I-000080J000000D01*
G01*
X085856Y050127D02*
G03*
X085856Y050127I-000080J000000D01*
G01*
X087606Y041631D02*
G03*
X087606Y041631I-000080J000000D01*
G01*
X087642Y057912D02*
G03*
X087642Y057912I-000080J000000D01*
G01*
X086778Y038098D02*
G03*
X086778Y038098I-000080J000000D01*
G01*
X088449Y040475D02*
G03*
X088449Y040475I-000080J000000D01*
G01*
X086215Y037531D02*
G03*
X086215Y037531I-000080J000000D01*
G01*
X084441Y061200D02*
G03*
X084441Y061200I-000080J000000D01*
G01*
X085188Y060305D02*
G03*
X085188Y060305I-000080J000000D01*
G01*
X080166Y063233D02*
G03*
X080166Y063233I-000080J000000D01*
G01*
X077487Y060012D02*
G03*
X077487Y060012I-000080J000000D01*
G01*
X080166Y063553D02*
G03*
X080166Y063553I-000080J000000D01*
G01*
X077841Y060011D02*
G03*
X077841Y060011I-000080J000000D01*
G01*
X083188Y045024D02*
G03*
X083188Y045024I-000080J000000D01*
G01*
X011054Y019314D02*
G03*
X011054Y019314I-000080J000000D01*
G01*
X011050Y030108D02*
G03*
X011050Y030108I-000080J000000D01*
G01*
X058639Y029124D02*
G03*
X058639Y029124I-000080J000000D01*
G01*
X060228D02*
G03*
X060228Y029124I-000080J000000D01*
G01*
X059766Y025180D02*
G03*
X059766Y025180I-000080J000000D01*
G01*
X048653Y013561D02*
G03*
X048653Y013561I-000080J000000D01*
G01*
Y013981D02*
G03*
X048653Y013981I-000080J000000D01*
G01*
X068018Y017748D02*
G03*
X068018Y017748I-000080J000000D01*
G01*
X047915Y022549D02*
G03*
X047915Y022549I-000080J000000D01*
G01*
X061542Y020522D02*
G03*
X061542Y020522I-000080J000000D01*
G01*
X061691Y020036D02*
G03*
X061691Y020036I-000080J000000D01*
G01*
X043246Y028189D02*
G03*
X043246Y028189I-000080J000000D01*
G01*
X041814Y028607D02*
G03*
X041814Y028607I-000080J000000D01*
G01*
X066064Y017372D02*
G03*
X066064Y017372I-000080J000000D01*
G01*
X054705Y017602D02*
G03*
X054705Y017602I-000080J000000D01*
G01*
X054675Y016860D02*
G03*
X054675Y016860I-000080J000000D01*
G01*
X054179Y020009D02*
G03*
X054179Y020009I-000080J000000D01*
G01*
X054402Y020808D02*
G03*
X054402Y020808I-000080J000000D01*
G01*
X054782Y019205D02*
G03*
X054782Y019205I-000080J000000D01*
G01*
X055001Y020031D02*
G03*
X055001Y020031I-000080J000000D01*
G01*
X054131Y019252D02*
G03*
X054131Y019252I-000080J000000D01*
G01*
X058963Y014741D02*
G03*
X058963Y014741I-000080J000000D01*
G01*
X061586Y013179D02*
G03*
X061586Y013179I-000080J000000D01*
G01*
X065774Y015190D02*
G03*
X065774Y015190I-000080J000000D01*
G01*
X046665Y019847D02*
G03*
X046665Y019847I-000080J000000D01*
G01*
X067846Y018022D02*
G03*
X067846Y018022I-000080J000000D01*
G01*
X063055Y018041D02*
G03*
X063055Y018041I-000080J000000D01*
G01*
Y022031D02*
G03*
X063055Y022031I-000080J000000D01*
G01*
Y023022D02*
G03*
X063055Y023022I-000080J000000D01*
G01*
X061863Y019531D02*
G03*
X061863Y019531I-000080J000000D01*
G01*
X055278Y017251D02*
G03*
X055278Y017251I-000080J000000D01*
G01*
X050238Y021303D02*
G03*
X050238Y021303I-000080J000000D01*
G01*
X049883Y021093D02*
G03*
X049883Y021093I-000080J000000D01*
G01*
X016832Y021132D02*
G03*
X016832Y021132I-000080J000000D01*
G01*
X042173Y013297D02*
G03*
X042173Y013297I-000080J000000D01*
G01*
X081712Y063992D02*
G03*
X081712Y063992I-000080J000000D01*
G01*
X081300Y060836D02*
G03*
X081300Y060836I-000080J000000D01*
G01*
X083436Y061696D02*
G03*
X083436Y061696I-000080J000000D01*
G01*
Y062453D02*
G03*
X083436Y062453I-000080J000000D01*
G01*
Y063110D02*
G03*
X083436Y063110I-000080J000000D01*
G01*
Y064008D02*
G03*
X083436Y064008I-000080J000000D01*
G01*
Y064744D02*
G03*
X083436Y064744I-000080J000000D01*
G01*
X082532Y060568D02*
G03*
X082532Y060568I-000080J000000D01*
G01*
X081854Y059399D02*
G03*
X081854Y059399I-000080J000000D01*
G01*
X079631Y062060D02*
G03*
X079631Y062060I-000080J000000D01*
G01*
X058336Y059090D02*
G03*
X058336Y059090I-000080J000000D01*
G01*
X058019Y059310D02*
G03*
X058019Y059310I-000080J000000D01*
G01*
X035208Y032490D02*
G03*
X035208Y032490I-000080J000000D01*
G01*
X031133Y032421D02*
G03*
X031133Y032421I-000080J000000D01*
G01*
X032779Y030518D02*
G03*
X032779Y030518I-000080J000000D01*
G01*
X081238Y038634D02*
G03*
X081238Y038634I-000080J000000D01*
G01*
X082010Y035166D02*
G03*
X082010Y035166I-000080J000000D01*
G01*
X082015Y034700D02*
G03*
X082015Y034700I-000080J000000D01*
G01*
X082309Y035414D02*
G03*
X082309Y035414I-000080J000000D01*
G01*
X082050Y035655D02*
G03*
X082050Y035655I-000080J000000D01*
G01*
X082302Y034935D02*
G03*
X082302Y034935I-000080J000000D01*
G01*
X082276Y034451D02*
G03*
X082276Y034451I-000080J000000D01*
G01*
X082046Y034124D02*
G03*
X082046Y034124I-000080J000000D01*
G01*
X082091Y033528D02*
G03*
X082091Y033528I-000080J000000D01*
G01*
X082249Y033834D02*
G03*
X082249Y033834I-000080J000000D01*
G01*
X082082Y032945D02*
G03*
X082082Y032945I-000080J000000D01*
G01*
X038407Y063667D02*
G03*
X038407Y063667I-000080J000000D01*
G01*
X026921Y062402D02*
G03*
X026921Y062402I-000080J000000D01*
G01*
X027754Y062213D02*
G03*
X027754Y062213I-000080J000000D01*
G01*
X026399Y064744D02*
G03*
X026399Y064744I-000080J000000D01*
G01*
X024923Y065039D02*
G03*
X024923Y065039I-000080J000000D01*
G01*
X013298Y020266D02*
G03*
X013298Y020266I-000080J000000D01*
G01*
X015080Y020787D02*
G03*
X015080Y020787I-000080J000000D01*
G01*
X011666Y019161D02*
G03*
X011666Y019161I-000080J000000D01*
G01*
X015080Y018652D02*
G03*
X015080Y018652I-000080J000000D01*
G01*
X016210Y019161D02*
G03*
X016210Y019161I-000080J000000D01*
G01*
X012153Y028868D02*
G03*
X012153Y028868I-000080J000000D01*
G01*
X013214Y028989D02*
G03*
X013214Y028989I-000080J000000D01*
G01*
X013730Y024882D02*
G03*
X013730Y024882I-000080J000000D01*
G01*
X013467Y026762D02*
G03*
X013467Y026762I-000080J000000D01*
G01*
X014932Y024986D02*
G03*
X014932Y024986I-000080J000000D01*
G01*
X059755Y047195D02*
G03*
X059755Y047195I-000080J000000D01*
G01*
X055946Y047313D02*
G03*
X055946Y047313I-000080J000000D01*
G01*
X030001Y028868D02*
G03*
X030001Y028868I-000080J000000D01*
G01*
X029736Y028563D02*
G03*
X029736Y028563I-000080J000000D01*
G01*
X019332Y024498D02*
G03*
X019332Y024498I-000080J000000D01*
G01*
X037378Y031490D02*
G03*
X037378Y031490I-000080J000000D01*
G01*
X047379Y041230D02*
G03*
X047379Y041230I-000080J000000D01*
G01*
X058421Y045924D02*
G03*
X058421Y045924I-000080J000000D01*
G01*
X057444Y045929D02*
G03*
X057444Y045929I-000080J000000D01*
G01*
X051622Y043671D02*
G03*
X051622Y043671I-000080J000000D01*
G01*
X050673Y049510D02*
G03*
X050673Y049510I-000080J000000D01*
G01*
X050070Y036109D02*
G03*
X050070Y036109I-000080J000000D01*
G01*
X088131Y056981D02*
G03*
X088131Y056981I-000080J000000D01*
G01*
X072475Y046171D02*
G03*
X072475Y046171I-000080J000000D01*
G01*
X085070Y042559D02*
G03*
X085070Y042559I-000080J000000D01*
G01*
X086143D02*
G03*
X086143Y042559I-000080J000000D01*
G01*
X084407D02*
G03*
X084407Y042559I-000080J000000D01*
G01*
X082558Y047411D02*
G03*
X082558Y047411I-000080J000000D01*
G01*
X076229Y037907D02*
G03*
X076229Y037907I-000080J000000D01*
G01*
X077186Y059092D02*
G03*
X077186Y059092I-000080J000000D01*
G01*
X074233Y056856D02*
G03*
X074233Y056856I-000080J000000D01*
G01*
X078761Y057643D02*
G03*
X078761Y057643I-000080J000000D01*
G01*
X079065Y056998D02*
G03*
X079065Y056998I-000080J000000D01*
G01*
X074769Y062119D02*
G03*
X074769Y062119I-000080J000000D01*
G01*
X075596D02*
G03*
X075596Y062119I-000080J000000D01*
G01*
X071028Y049687D02*
G03*
X071028Y049687I-000080J000000D01*
G01*
X079308Y051781D02*
G03*
X079308Y051781I-000080J000000D01*
G01*
X071176Y059703D02*
G03*
X071176Y059703I-000080J000000D01*
G01*
X051139Y056989D02*
G03*
X051139Y056989I-000080J000000D01*
G01*
X050946Y057250D02*
G03*
X050946Y057250I-000080J000000D01*
G01*
X050983Y057613D02*
G03*
X050983Y057613I-000080J000000D01*
G01*
X056090Y058293D02*
G03*
X056090Y058293I-000080J000000D01*
G01*
X058659Y057961D02*
G03*
X058659Y057961I-000080J000000D01*
G01*
X057269Y060412D02*
G03*
X057269Y060412I-000080J000000D01*
G01*
X047893Y054752D02*
G03*
X047893Y054752I-000080J000000D01*
G01*
X052419Y054334D02*
G03*
X052419Y054334I-000080J000000D01*
G01*
X056194Y052037D02*
G03*
X056194Y052037I-000080J000000D01*
G01*
X057560Y052241D02*
G03*
X057560Y052241I-000080J000000D01*
G01*
X055146Y054380D02*
G03*
X055146Y054380I-000080J000000D01*
G01*
X053997Y060837D02*
G03*
X053997Y060837I-000080J000000D01*
G01*
X052117Y052041D02*
G03*
X052117Y052041I-000080J000000D01*
G01*
X053151Y052037D02*
G03*
X053151Y052037I-000080J000000D01*
G01*
X055356Y054094D02*
G03*
X055356Y054094I-000080J000000D01*
G01*
X068121Y048041D02*
G03*
X068121Y048041I-000080J000000D01*
G01*
X056355Y049349D02*
G03*
X056355Y049349I-000080J000000D01*
G01*
X056704Y049309D02*
G03*
X056704Y049309I-000080J000000D01*
G01*
X057767Y061752D02*
G03*
X057767Y061752I-000080J000000D01*
G01*
X062490Y062346D02*
G03*
X062490Y062346I-000080J000000D01*
G01*
X054167Y058262D02*
G03*
X054167Y058262I-000080J000000D01*
G01*
X056684Y060246D02*
G03*
X056684Y060246I-000080J000000D01*
G01*
X060139Y052995D02*
G03*
X060139Y052995I-000080J000000D01*
G01*
X066597Y052180D02*
G03*
X066597Y052180I-000080J000000D01*
G01*
X058709Y058698D02*
G03*
X058709Y058698I-000080J000000D01*
G01*
X042304Y024498D02*
G03*
X042304Y024498I-000080J000000D01*
G01*
X056842Y031870D02*
G03*
X056842Y031870I-000080J000000D01*
G01*
X060365Y050205D02*
G03*
X060365Y050205I-000080J000000D01*
G01*
X053151Y053169D02*
G03*
X053151Y053169I-000080J000000D01*
G01*
Y063740D02*
G03*
X053151Y063740I-000080J000000D01*
G01*
Y061844D02*
G03*
X053151Y061844I-000080J000000D01*
G01*
X052117Y064232D02*
G03*
X052117Y064232I-000080J000000D01*
G01*
X060694Y045327D02*
G03*
X060694Y045327I-000080J000000D01*
G01*
X058860Y033917D02*
G03*
X058860Y033917I-000080J000000D01*
G01*
X065490Y064716D02*
G03*
X065490Y064716I-000080J000000D01*
G01*
X035484Y032746D02*
G03*
X035484Y032746I-000080J000000D01*
G01*
X035112Y030514D02*
G03*
X035112Y030514I-000080J000000D01*
G01*
X034765Y030512D02*
G03*
X034765Y030512I-000080J000000D01*
G01*
X038403Y035072D02*
G03*
X038403Y035072I-000080J000000D01*
G01*
X039089Y036022D02*
G03*
X039089Y036022I-000080J000000D01*
G01*
X039522Y033396D02*
G03*
X039522Y033396I-000080J000000D01*
G01*
X038210Y028917D02*
G03*
X038210Y028917I-000080J000000D01*
G01*
X037913Y028661D02*
G03*
X037913Y028661I-000080J000000D01*
G01*
X038230Y033022D02*
G03*
X038230Y033022I-000080J000000D01*
G01*
X037913Y032224D02*
G03*
X037913Y032224I-000080J000000D01*
G01*
X039522Y037925D02*
G03*
X039522Y037925I-000080J000000D01*
G01*
X042389Y030787D02*
G03*
X042389Y030787I-000080J000000D01*
G01*
X042927Y039068D02*
G03*
X042927Y039068I-000080J000000D01*
G01*
X042442Y042231D02*
G03*
X042442Y042231I-000080J000000D01*
G01*
X048655Y040079D02*
G03*
X048655Y040079I-000080J000000D01*
G01*
X018072Y030020D02*
G03*
X018072Y030020I-000080J000000D01*
G01*
X073305Y046171D02*
G03*
X073305Y046171I-000080J000000D01*
G01*
X050946Y064026D02*
G03*
X050946Y064026I-000080J000000D01*
G01*
X056478Y051240D02*
G03*
X056478Y051240I-000080J000000D01*
G01*
X066272Y025492D02*
G03*
X066272Y025492I-000080J000000D01*
G01*
X070260Y037214D02*
G03*
X070260Y037214I-000080J000000D01*
G01*
X072824Y037201D02*
G03*
X072824Y037201I-000080J000000D01*
G01*
X072804Y041111D02*
G03*
X072804Y041111I-000080J000000D01*
G01*
X083587Y049573D02*
G03*
X083587Y049573I-000080J000000D01*
G01*
X083387Y036419D02*
G03*
X083387Y036419I-000080J000000D01*
G01*
X065157Y054998D02*
G03*
X065157Y054998I-000080J000000D01*
G01*
X059003Y053916D02*
G03*
X059003Y053916I-000080J000000D01*
G01*
Y054297D02*
G03*
X059003Y054297I-000080J000000D01*
G01*
X041723Y037206D02*
G03*
X041723Y037206I-000080J000000D01*
G01*
X041173Y028661D02*
G03*
X041173Y028661I-000080J000000D01*
G01*
X038978Y062136D02*
G03*
X038978Y062136I-000080J000000D01*
G01*
X070175Y044634D02*
G03*
X070175Y044634I-000080J000000D01*
G01*
X079375Y027518D02*
G03*
X079375Y027518I-000080J000000D01*
G01*
X080356Y065827D02*
G03*
X080356Y065827I-000080J000000D01*
G01*
X076004Y038299D02*
G03*
X076004Y038299I-000080J000000D01*
G01*
X075759Y038671D02*
G03*
X075759Y038671I-000080J000000D01*
G01*
X068754Y040786D02*
G03*
X068754Y040786I-000080J000000D01*
G01*
X055946Y047746D02*
G03*
X055946Y047746I-000080J000000D01*
G01*
X069990Y050031D02*
G03*
X069990Y050031I-000080J000000D01*
G01*
X073827Y064918D02*
G03*
X073827Y064918I-000080J000000D01*
G01*
X067805Y046291D02*
G03*
X067805Y046291I-000080J000000D01*
G01*
X067795Y047451D02*
G03*
X067795Y047451I-000080J000000D01*
G01*
X073603Y052502D02*
G03*
X073603Y052502I-000080J000000D01*
G01*
Y052893D02*
G03*
X073603Y052893I-000080J000000D01*
G01*
X082245Y033210D02*
G03*
X082245Y033210I-000080J000000D01*
G01*
X072775Y034375D02*
G03*
X072775Y034375I-000080J000000D01*
G01*
X071707Y029437D02*
G03*
X071707Y029437I-000080J000000D01*
G01*
X072325Y035494D02*
G03*
X072325Y035494I-000080J000000D01*
G01*
X072219Y035848D02*
G03*
X072219Y035848I-000080J000000D01*
G01*
X072109Y036149D02*
G03*
X072109Y036149I-000080J000000D01*
G01*
X071998Y036536D02*
G03*
X071998Y036536I-000080J000000D01*
G01*
X072984Y034038D02*
G03*
X072984Y034038I-000080J000000D01*
G01*
X072459Y035151D02*
G03*
X072459Y035151I-000080J000000D01*
G01*
X072606Y034737D02*
G03*
X072606Y034737I-000080J000000D01*
G01*
X073152Y033711D02*
G03*
X073152Y033711I-000080J000000D01*
G01*
X073348Y033366D02*
G03*
X073348Y033366I-000080J000000D01*
G01*
X073495Y032991D02*
G03*
X073495Y032991I-000080J000000D01*
G01*
X054500Y029590D02*
G03*
X054500Y029590I-000080J000000D01*
G01*
X067828Y065169D02*
G03*
X067828Y065169I-000080J000000D01*
G01*
X067334D02*
G03*
X067334Y065169I-000080J000000D01*
G01*
X080080Y038897D02*
G03*
X080080Y038897I-000080J000000D01*
G01*
X064415Y041848D02*
G03*
X064415Y041848I-000080J000000D01*
G01*
X056045Y050039D02*
G03*
X056045Y050039I-000080J000000D01*
G01*
Y050588D02*
G03*
X056045Y050588I-000080J000000D01*
G01*
X075158Y064082D02*
G03*
X075158Y064082I-000080J000000D01*
G01*
X076664Y049966D02*
G03*
X076664Y049966I-000080J000000D01*
G01*
Y057961D02*
G03*
X076664Y057961I-000080J000000D01*
G01*
X076329Y057781D02*
G03*
X076329Y057781I-000080J000000D01*
G01*
X076490Y064564D02*
G03*
X076490Y064564I-000080J000000D01*
G01*
X076866Y063829D02*
G03*
X076866Y063829I-000080J000000D01*
G01*
X058635Y045238D02*
G03*
X058635Y045238I-000080J000000D01*
G01*
X059529Y050919D02*
G03*
X059529Y050919I-000080J000000D01*
G01*
X073052Y045056D02*
G03*
X073052Y045056I-000080J000000D01*
G01*
X077345Y064303D02*
G03*
X077345Y064303I-000080J000000D01*
G01*
X060118Y058698D02*
G03*
X060118Y058698I-000080J000000D01*
G01*
X081222Y054183D02*
G03*
X081222Y054183I-000080J000000D01*
G01*
X073827Y060104D02*
G03*
X073827Y060104I-000080J000000D01*
G01*
X058549Y046563D02*
G03*
X058549Y046563I-000080J000000D01*
G01*
X045179Y029139D02*
G03*
X045179Y029139I-000080J000000D01*
G01*
X045030Y034531D02*
G03*
X045030Y034531I-000080J000000D01*
G01*
X049081Y039631D02*
G03*
X049081Y039631I-000080J000000D01*
G01*
X042442Y040744D02*
G03*
X042442Y040744I-000080J000000D01*
G01*
X041753Y034358D02*
G03*
X041753Y034358I-000080J000000D01*
G01*
Y032951D02*
G03*
X041753Y032951I-000080J000000D01*
G01*
X042560Y029331D02*
G03*
X042560Y029331I-000080J000000D01*
G01*
X045060Y033381D02*
G03*
X045060Y033381I-000080J000000D01*
G01*
X045030Y036022D02*
G03*
X045030Y036022I-000080J000000D01*
G01*
X049010Y035931D02*
G03*
X049010Y035931I-000080J000000D01*
G01*
Y035609D02*
G03*
X049010Y035609I-000080J000000D01*
G01*
X049683Y035612D02*
G03*
X049683Y035612I-000080J000000D01*
G01*
X049991Y039626D02*
G03*
X049991Y039626I-000080J000000D01*
G01*
X050830Y036022D02*
G03*
X050830Y036022I-000080J000000D01*
G01*
X050471Y035812D02*
G03*
X050471Y035812I-000080J000000D01*
G01*
X050757Y035505D02*
G03*
X050757Y035505I-000080J000000D01*
G01*
X051295Y028547D02*
G03*
X051295Y028547I-000080J000000D01*
G01*
X051295Y029639D02*
G03*
X051295Y029639I-000080J000000D01*
G01*
X052090Y028547D02*
G03*
X052090Y028547I-000080J000000D01*
G01*
X052089Y029639D02*
G03*
X052089Y029639I-000080J000000D01*
G01*
X052975Y028547D02*
G03*
X052975Y028547I-000080J000000D01*
G01*
Y029639D02*
G03*
X052975Y029639I-000080J000000D01*
G01*
X054020Y034737D02*
G03*
X054020Y034737I-000080J000000D01*
G01*
X054500Y033179D02*
G03*
X054500Y033179I-000080J000000D01*
G01*
Y033973D02*
G03*
X054500Y033973I-000080J000000D01*
G01*
X043154Y037021D02*
G03*
X043154Y037021I-000080J000000D01*
G01*
X044382D02*
G03*
X044382Y037021I-000080J000000D01*
G01*
X048712Y036196D02*
G03*
X048712Y036196I-000080J000000D01*
G01*
X049701Y039474D02*
G03*
X049701Y039474I-000080J000000D01*
G01*
X051283Y032903D02*
G03*
X051283Y032903I-000080J000000D01*
G01*
X053636Y033057D02*
G03*
X053636Y033057I-000080J000000D01*
G01*
X054500Y034481D02*
G03*
X054500Y034481I-000080J000000D01*
G01*
X047045Y035837D02*
G03*
X047045Y035837I-000080J000000D01*
G01*
X050967Y032734D02*
G03*
X050967Y032734I-000080J000000D01*
G01*
X049473Y035912D02*
G03*
X049473Y035912I-000080J000000D01*
G01*
X053406Y028536D02*
G03*
X053406Y028536I-000080J000000D01*
G01*
X051736Y039615D02*
G03*
X051736Y039615I-000080J000000D01*
G01*
X053443Y039625D02*
G03*
X053443Y039625I-000080J000000D01*
G01*
X047666Y038455D02*
G03*
X047666Y038455I-000080J000000D01*
G01*
X049263Y036196D02*
G03*
X049263Y036196I-000080J000000D01*
G01*
X049365Y039479D02*
G03*
X049365Y039479I-000080J000000D01*
G01*
X070874Y060030D02*
G03*
X070874Y060030I-000080J000000D01*
G01*
X066225Y026266D02*
G03*
X066225Y026266I-000080J000000D01*
G01*
X065378Y026256D02*
G03*
X065378Y026256I-000080J000000D01*
G01*
X077810Y027070D02*
G03*
X077810Y027070I-000080J000000D01*
G01*
X077375Y027065D02*
G03*
X077375Y027065I-000080J000000D01*
G01*
X076601Y027100D02*
G03*
X076601Y027100I-000080J000000D01*
G01*
X078755Y027826D02*
G03*
X078755Y027826I-000080J000000D01*
G01*
X077995Y027518D02*
G03*
X077995Y027518I-000080J000000D01*
G01*
X078615Y028258D02*
G03*
X078615Y028258I-000080J000000D01*
G01*
X078855Y028787D02*
G03*
X078855Y028787I-000080J000000D01*
G01*
X074805Y028490D02*
G03*
X074805Y028490I-000080J000000D01*
G01*
X078615Y029268D02*
G03*
X078615Y029268I-000080J000000D01*
G01*
X074831Y029977D02*
G03*
X074831Y029977I-000080J000000D01*
G01*
X074716Y030319D02*
G03*
X074716Y030319I-000080J000000D01*
G01*
X074308Y030303D02*
G03*
X074308Y030303I-000080J000000D01*
G01*
X065255Y030050D02*
G03*
X065255Y030050I-000080J000000D01*
G01*
X063675Y029882D02*
G03*
X063675Y029882I-000080J000000D01*
G01*
X062176Y030122D02*
G03*
X062176Y030122I-000080J000000D01*
G01*
X060615Y030298D02*
G03*
X060615Y030298I-000080J000000D01*
G01*
X078855Y030846D02*
G03*
X078855Y030846I-000080J000000D01*
G01*
X077068Y031681D02*
G03*
X077068Y031681I-000080J000000D01*
G01*
X063775Y031982D02*
G03*
X063775Y031982I-000080J000000D01*
G01*
X062685Y031821D02*
G03*
X062685Y031821I-000080J000000D01*
G01*
X061141Y031863D02*
G03*
X061141Y031863I-000080J000000D01*
G01*
X077068Y032266D02*
G03*
X077068Y032266I-000080J000000D01*
G01*
X063580Y032371D02*
G03*
X063580Y032371I-000080J000000D01*
G01*
X062975Y032278D02*
G03*
X062975Y032278I-000080J000000D01*
G01*
X069028Y033294D02*
G03*
X069028Y033294I-000080J000000D01*
G01*
X068495Y037468D02*
G03*
X068495Y037468I-000080J000000D01*
G01*
X067132Y037448D02*
G03*
X067132Y037448I-000080J000000D01*
G01*
X066865Y037201D02*
G03*
X066865Y037201I-000080J000000D01*
G01*
X063725Y037448D02*
G03*
X063725Y037448I-000080J000000D01*
G01*
X068583Y038299D02*
G03*
X068583Y038299I-000080J000000D01*
G01*
X067665Y038748D02*
G03*
X067665Y038748I-000080J000000D01*
G01*
X069003Y039746D02*
G03*
X069003Y039746I-000080J000000D01*
G01*
X067865Y039726D02*
G03*
X067865Y039726I-000080J000000D01*
G01*
X067528Y039724D02*
G03*
X067528Y039724I-000080J000000D01*
G01*
X066704Y039706D02*
G03*
X066704Y039706I-000080J000000D01*
G01*
X067154Y039707D02*
G03*
X067154Y039707I-000080J000000D01*
G01*
X068435Y040358D02*
G03*
X068435Y040358I-000080J000000D01*
G01*
X064415Y040268D02*
G03*
X064415Y040268I-000080J000000D01*
G01*
Y040638D02*
G03*
X064415Y040638I-000080J000000D01*
G01*
Y041443D02*
G03*
X064415Y041443I-000080J000000D01*
G01*
X070260Y046291D02*
G03*
X070260Y046291I-000080J000000D01*
G01*
X079622Y048322D02*
G03*
X079622Y048322I-000080J000000D01*
G01*
X069115Y049439D02*
G03*
X069115Y049439I-000080J000000D01*
G01*
X079130Y050188D02*
G03*
X079130Y050188I-000080J000000D01*
G01*
X076329Y049848D02*
G03*
X076329Y049848I-000080J000000D01*
G01*
X073955Y049998D02*
G03*
X073955Y049998I-000080J000000D01*
G01*
X079138Y050880D02*
G03*
X079138Y050880I-000080J000000D01*
G01*
X079053Y052692D02*
G03*
X079053Y052692I-000080J000000D01*
G01*
X069008Y052457D02*
G03*
X069008Y052457I-000080J000000D01*
G01*
X059403Y052241D02*
G03*
X059403Y052241I-000080J000000D01*
G01*
X079120Y053510D02*
G03*
X079120Y053510I-000080J000000D01*
G01*
X069005Y053336D02*
G03*
X069005Y053336I-000080J000000D01*
G01*
X068607Y053103D02*
G03*
X068607Y053103I-000080J000000D01*
G01*
X068603Y053560D02*
G03*
X068603Y053560I-000080J000000D01*
G01*
X068618Y054297D02*
G03*
X068618Y054297I-000080J000000D01*
G01*
X068696Y054831D02*
G03*
X068696Y054831I-000080J000000D01*
G01*
X069283Y055675D02*
G03*
X069283Y055675I-000080J000000D01*
G01*
X069509Y055462D02*
G03*
X069509Y055462I-000080J000000D01*
G01*
X079054Y058132D02*
G03*
X079054Y058132I-000080J000000D01*
G01*
X078849Y058783D02*
G03*
X078849Y058783I-000080J000000D01*
G01*
X068675Y058698D02*
G03*
X068675Y058698I-000080J000000D01*
G01*
X079053Y059899D02*
G03*
X079053Y059899I-000080J000000D01*
G01*
X074193Y061157D02*
G03*
X074193Y061157I-000080J000000D01*
G01*
X065798Y026266D02*
G03*
X065798Y026266I-000080J000000D01*
G01*
X065626Y025841D02*
G03*
X065626Y025841I-000080J000000D01*
G01*
X073775Y028618D02*
G03*
X073775Y028618I-000080J000000D01*
G01*
X075325D02*
G03*
X075325Y028618I-000080J000000D01*
G01*
X074420Y028564D02*
G03*
X074420Y028564I-000080J000000D01*
G01*
X078399Y029046D02*
G03*
X078399Y029046I-000080J000000D01*
G01*
X078385Y029519D02*
G03*
X078385Y029519I-000080J000000D01*
G01*
X060943Y030203D02*
G03*
X060943Y030203I-000080J000000D01*
G01*
X064041Y031675D02*
G03*
X064041Y031675I-000080J000000D01*
G01*
X064846Y031903D02*
G03*
X064846Y031903I-000080J000000D01*
G01*
X061701Y032296D02*
G03*
X061701Y032296I-000080J000000D01*
G01*
X068119Y033295D02*
G03*
X068119Y033295I-000080J000000D01*
G01*
X063295Y036366D02*
G03*
X063295Y036366I-000080J000000D01*
G01*
X068189Y037448D02*
G03*
X068189Y037448I-000080J000000D01*
G01*
X068879Y038063D02*
G03*
X068879Y038063I-000080J000000D01*
G01*
X064039Y037969D02*
G03*
X064039Y037969I-000080J000000D01*
G01*
X067385Y039028D02*
G03*
X067385Y039028I-000080J000000D01*
G01*
X068172Y039048D02*
G03*
X068172Y039048I-000080J000000D01*
G01*
X065665Y040358D02*
G03*
X065665Y040358I-000080J000000D01*
G01*
X074595Y049444D02*
G03*
X074595Y049444I-000080J000000D01*
G01*
X069749Y049439D02*
G03*
X069749Y049439I-000080J000000D01*
G01*
X073603Y050031D02*
G03*
X073603Y050031I-000080J000000D01*
G01*
X074535Y050008D02*
G03*
X074535Y050008I-000080J000000D01*
G01*
X067376Y052268D02*
G03*
X067376Y052268I-000080J000000D01*
G01*
X068764Y052656D02*
G03*
X068764Y052656I-000080J000000D01*
G01*
X068955Y054063D02*
G03*
X068955Y054063I-000080J000000D01*
G01*
X073728Y054678D02*
G03*
X073728Y054678I-000080J000000D01*
G01*
X068985Y055885D02*
G03*
X068985Y055885I-000080J000000D01*
G01*
Y055462D02*
G03*
X068985Y055462I-000080J000000D01*
G01*
X070493Y056313D02*
G03*
X070493Y056313I-000080J000000D01*
G01*
X068985Y056305D02*
G03*
X068985Y056305I-000080J000000D01*
G01*
X079290Y057326D02*
G03*
X079290Y057326I-000080J000000D01*
G01*
X070377Y057970D02*
G03*
X070377Y057970I-000080J000000D01*
G01*
X068985Y057968D02*
G03*
X068985Y057968I-000080J000000D01*
G01*
X079263Y059598D02*
G03*
X079263Y059598I-000080J000000D01*
G01*
X079299Y060271D02*
G03*
X079299Y060271I-000080J000000D01*
G01*
X075231Y061163D02*
G03*
X075231Y061163I-000080J000000D01*
G01*
X066015Y025836D02*
G03*
X066015Y025836I-000080J000000D01*
G01*
X078169Y028828D02*
G03*
X078169Y028828I-000080J000000D01*
G01*
X076582Y028225D02*
G03*
X076582Y028225I-000080J000000D01*
G01*
X068300Y030599D02*
G03*
X068300Y030599I-000080J000000D01*
G01*
X060393Y030593D02*
G03*
X060393Y030593I-000080J000000D01*
G01*
X069153Y032162D02*
G03*
X069153Y032162I-000080J000000D01*
G01*
X066869Y032816D02*
G03*
X066869Y032816I-000080J000000D01*
G01*
X066881Y032120D02*
G03*
X066881Y032120I-000080J000000D01*
G01*
X062324Y032903D02*
G03*
X062324Y032903I-000080J000000D01*
G01*
X061485Y032816D02*
G03*
X061485Y032816I-000080J000000D01*
G01*
X063472Y036848D02*
G03*
X063472Y036848I-000080J000000D01*
G01*
X066865Y039386D02*
G03*
X066865Y039386I-000080J000000D01*
G01*
X065931Y040173D02*
G03*
X065931Y040173I-000080J000000D01*
G01*
X065319Y040174D02*
G03*
X065319Y040174I-000080J000000D01*
G01*
X064415Y041028D02*
G03*
X064415Y041028I-000080J000000D01*
G01*
X074769Y049809D02*
G03*
X074769Y049809I-000080J000000D01*
G01*
X074220Y049728D02*
G03*
X074220Y049728I-000080J000000D01*
G01*
X079010Y050578D02*
G03*
X079010Y050578I-000080J000000D01*
G01*
X079048Y052009D02*
G03*
X079048Y052009I-000080J000000D01*
G01*
X069032Y052927D02*
G03*
X069032Y052927I-000080J000000D01*
G01*
X069283Y056069D02*
G03*
X069283Y056069I-000080J000000D01*
G01*
X079075Y058526D02*
G03*
X079075Y058526I-000080J000000D01*
G01*
X078826Y059414D02*
G03*
X078826Y059414I-000080J000000D01*
G01*
X071674Y057798D02*
G03*
X071674Y057798I-000080J000000D01*
G01*
X070944Y058532D02*
G03*
X070944Y058532I-000080J000000D01*
G01*
X068645Y057768D02*
G03*
X068645Y057768I-000080J000000D01*
G01*
X076945Y028084D02*
G03*
X076945Y028084I-000080J000000D01*
G01*
X075189Y029767D02*
G03*
X075189Y029767I-000080J000000D01*
G01*
X076965Y031276D02*
G03*
X076965Y031276I-000080J000000D01*
G01*
X067962Y038509D02*
G03*
X067962Y038509I-000080J000000D01*
G01*
X066380Y040202D02*
G03*
X066380Y040202I-000080J000000D01*
G01*
X066561Y049809D02*
G03*
X066561Y049809I-000080J000000D01*
G01*
X079282Y050447D02*
G03*
X079282Y050447I-000080J000000D01*
G01*
X074532Y053778D02*
G03*
X074532Y053778I-000080J000000D01*
G01*
X069580Y054454D02*
G03*
X069580Y054454I-000080J000000D01*
G01*
X068963Y054516D02*
G03*
X068963Y054516I-000080J000000D01*
G01*
X066525Y053778D02*
G03*
X066525Y053778I-000080J000000D01*
G01*
X070419Y057602D02*
G03*
X070419Y057602I-000080J000000D01*
G01*
X068978Y059418D02*
G03*
X068978Y059418I-000080J000000D01*
G01*
X068981Y058448D02*
G03*
X068981Y058448I-000080J000000D01*
G01*
D169*
X051191Y063740D02*
G03*
X051191Y063740I-000040J000000D01*
G01*
X051034Y064390D02*
G03*
X051034Y064390I-000040J000000D01*
G01*
X059500Y050493D02*
G03*
X059500Y050493I-000040J000000D01*
G01*
X060461Y050568D02*
G03*
X060461Y050568I-000040J000000D01*
G01*
X060461Y057249D02*
G03*
X060461Y057249I-000040J000000D01*
G01*
X060103Y058303D02*
G03*
X060103Y058303I-000040J000000D01*
G01*
X058694Y058313D02*
G03*
X058694Y058313I-000040J000000D01*
G01*
X060580Y058853D02*
G03*
X060580Y058853I-000040J000000D01*
G01*
X069229Y060042D02*
G03*
X069229Y060042I-000040J000000D01*
G01*
X069069Y059788D02*
G03*
X069069Y059788I-000040J000000D01*
G01*
X069915Y057956D02*
G03*
X069915Y057956I-000040J000000D01*
G01*
X069306Y058208D02*
G03*
X069306Y058208I-000040J000000D01*
G01*
X045993Y055654D02*
G03*
X045993Y055654I-000040J000000D01*
G01*
X045989Y054852D02*
G03*
X045989Y054852I-000040J000000D01*
G01*
X045969Y052940D02*
G03*
X045969Y052940I-000040J000000D01*
G01*
X047546Y052945D02*
G03*
X047546Y052945I-000040J000000D01*
G01*
X047383Y056016D02*
G03*
X047383Y056016I-000040J000000D01*
G01*
X044843Y053201D02*
G03*
X044843Y053201I-000040J000000D01*
G01*
X052215Y053917D02*
G03*
X052215Y053917I-000040J000000D01*
G01*
X043226Y049850D02*
G03*
X043226Y049850I-000040J000000D01*
G01*
X043240Y050156D02*
G03*
X043240Y050156I-000040J000000D01*
G01*
X047438Y049878D02*
G03*
X047438Y049878I-000040J000000D01*
G01*
X047426Y050206D02*
G03*
X047426Y050206I-000040J000000D01*
G01*
X047629Y048719D02*
G03*
X047629Y048719I-000040J000000D01*
G01*
X047627Y049034D02*
G03*
X047627Y049034I-000040J000000D01*
G01*
X045989Y049626D02*
G03*
X045989Y049626I-000040J000000D01*
G01*
X045993Y049289D02*
G03*
X045993Y049289I-000040J000000D01*
G01*
X044912Y048401D02*
G03*
X044912Y048401I-000040J000000D01*
G01*
Y048720D02*
G03*
X044912Y048720I-000040J000000D01*
G01*
X043915Y049610D02*
G03*
X043915Y049610I-000040J000000D01*
G01*
X043916Y049303D02*
G03*
X043916Y049303I-000040J000000D01*
G01*
X041144Y039330D02*
G03*
X041144Y039330I-000040J000000D01*
G01*
X037460Y061930D02*
G03*
X037460Y061930I-000040J000000D01*
G01*
X037973Y062018D02*
G03*
X037973Y062018I-000040J000000D01*
G01*
X038180Y062487D02*
G03*
X038180Y062487I-000040J000000D01*
G01*
X027945Y061981D02*
G03*
X027945Y061981I-000040J000000D01*
G01*
X086932Y064063D02*
G03*
X086932Y064063I-000040J000000D01*
G01*
X083705Y057426D02*
G03*
X083705Y057426I-000040J000000D01*
G01*
X086932Y065957D02*
G03*
X086932Y065957I-000040J000000D01*
G01*
X085450Y060781D02*
G03*
X085450Y060781I-000040J000000D01*
G01*
X010989Y047002D02*
G03*
X010989Y047002I-000040J000000D01*
G01*
X010772Y038194D02*
G03*
X010772Y038194I-000040J000000D01*
G01*
X011066Y038746D02*
G03*
X011066Y038746I-000040J000000D01*
G01*
X012182Y062290D02*
G03*
X012182Y062290I-000040J000000D01*
G01*
X012186Y063110D02*
G03*
X012186Y063110I-000040J000000D01*
G01*
X011912Y063918D02*
G03*
X011912Y063918I-000040J000000D01*
G01*
X020778Y064464D02*
G03*
X020778Y064464I-000040J000000D01*
G01*
X020273Y064454D02*
G03*
X020273Y064454I-000040J000000D01*
G01*
X025730Y063810D02*
G03*
X025730Y063810I-000040J000000D01*
G01*
X013969Y065879D02*
G03*
X013969Y065879I-000040J000000D01*
G01*
X023771Y065345D02*
G03*
X023771Y065345I-000040J000000D01*
G01*
X013969Y063161D02*
G03*
X013969Y063161I-000040J000000D01*
G01*
X023273Y063383D02*
G03*
X023273Y063383I-000040J000000D01*
G01*
X035173Y066463D02*
G03*
X035173Y066463I-000040J000000D01*
G01*
X078089Y065832D02*
G03*
X078089Y065832I-000040J000000D01*
G01*
X077358Y062105D02*
G03*
X077358Y062105I-000040J000000D01*
G01*
X066649Y043670D02*
G03*
X066649Y043670I-000040J000000D01*
G01*
X028112Y061713D02*
G03*
X028112Y061713I-000040J000000D01*
G01*
X027235Y062213D02*
G03*
X027235Y062213I-000040J000000D01*
G01*
X037820Y062376D02*
G03*
X037820Y062376I-000040J000000D01*
G01*
X032779Y063776D02*
G03*
X032779Y063776I-000040J000000D01*
G01*
X027461Y063504D02*
G03*
X027461Y063504I-000040J000000D01*
G01*
X021269Y063370D02*
G03*
X021269Y063370I-000040J000000D01*
G01*
X067323Y047559D02*
G03*
X067323Y047559I-000040J000000D01*
G01*
X048711Y040928D02*
G03*
X048711Y040928I-000040J000000D01*
G01*
X048249Y040305D02*
G03*
X048249Y040305I-000040J000000D01*
G01*
X048086Y041819D02*
G03*
X048086Y041819I-000040J000000D01*
G01*
X047857Y041487D02*
G03*
X047857Y041487I-000040J000000D01*
G01*
X048268Y042179D02*
G03*
X048268Y042179I-000040J000000D01*
G01*
X072031Y041969D02*
G03*
X072031Y041969I-000040J000000D01*
G01*
X058939Y055097D02*
G03*
X058939Y055097I-000040J000000D01*
G01*
X058619Y057250D02*
G03*
X058619Y057250I-000040J000000D01*
G01*
X060455Y055525D02*
G03*
X060455Y055525I-000040J000000D01*
G01*
X060435Y054717D02*
G03*
X060435Y054717I-000040J000000D01*
G01*
X082644Y055845D02*
G03*
X082644Y055845I-000040J000000D01*
G01*
X081941Y054239D02*
G03*
X081941Y054239I-000040J000000D01*
G01*
X068186Y036261D02*
G03*
X068186Y036261I-000040J000000D01*
G01*
X068202Y035539D02*
G03*
X068202Y035539I-000040J000000D01*
G01*
X080252Y044424D02*
G03*
X080252Y044424I-000040J000000D01*
G01*
X079640Y044960D02*
G03*
X079640Y044960I-000040J000000D01*
G01*
X076279Y048123D02*
G03*
X076279Y048123I-000040J000000D01*
G01*
X081519Y052525D02*
G03*
X081519Y052525I-000040J000000D01*
G01*
X073009Y064312D02*
G03*
X073009Y064312I-000040J000000D01*
G01*
X073005Y061731D02*
G03*
X073005Y061731I-000040J000000D01*
G01*
X077246Y063057D02*
G03*
X077246Y063057I-000040J000000D01*
G01*
X068673Y051978D02*
G03*
X068673Y051978I-000040J000000D01*
G01*
X047210Y051680D02*
G03*
X047210Y051680I-000040J000000D01*
G01*
X059414Y045458D02*
G03*
X059414Y045458I-000040J000000D01*
G01*
X059566Y049012D02*
G03*
X059566Y049012I-000040J000000D01*
G01*
X059053Y050631D02*
G03*
X059053Y050631I-000040J000000D01*
G01*
X082353Y036111D02*
G03*
X082353Y036111I-000040J000000D01*
G01*
X078898Y056156D02*
G03*
X078898Y056156I-000040J000000D01*
G01*
X080208Y039163D02*
G03*
X080208Y039163I-000040J000000D01*
G01*
X081736Y047818D02*
G03*
X081736Y047818I-000040J000000D01*
G01*
X082050Y048202D02*
G03*
X082050Y048202I-000040J000000D01*
G01*
X082299Y048720D02*
G03*
X082299Y048720I-000040J000000D01*
G01*
X082653Y054355D02*
G03*
X082653Y054355I-000040J000000D01*
G01*
X082299Y054709D02*
G03*
X082299Y054709I-000040J000000D01*
G01*
X083579Y050960D02*
G03*
X083579Y050960I-000040J000000D01*
G01*
X083220Y050367D02*
G03*
X083220Y050367I-000040J000000D01*
G01*
X068050Y025954D02*
G03*
X068050Y025954I-000040J000000D01*
G01*
X067235Y026196D02*
G03*
X067235Y026196I-000040J000000D01*
G01*
X064640Y026076D02*
G03*
X064640Y026076I-000040J000000D01*
G01*
X061880Y025605D02*
G03*
X061880Y025605I-000040J000000D01*
G01*
X061880Y026126D02*
G03*
X061880Y026126I-000040J000000D01*
G01*
X063212Y026086D02*
G03*
X063212Y026086I-000040J000000D01*
G01*
X063200Y025579D02*
G03*
X063200Y025579I-000040J000000D01*
G01*
X064621Y025562D02*
G03*
X064621Y025562I-000040J000000D01*
G01*
X067263Y027688D02*
G03*
X067263Y027688I-000040J000000D01*
G01*
X082232Y056986D02*
G03*
X082232Y056986I-000040J000000D01*
G01*
X072764Y041591D02*
G03*
X072764Y041591I-000040J000000D01*
G01*
X052559Y039615D02*
G03*
X052559Y039615I-000040J000000D01*
G01*
X064616Y056591D02*
G03*
X064616Y056591I-000040J000000D01*
G01*
X064429Y057023D02*
G03*
X064429Y057023I-000040J000000D01*
G01*
X067532Y057145D02*
G03*
X067532Y057145I-000040J000000D01*
G01*
X063765Y058884D02*
G03*
X063765Y058884I-000040J000000D01*
G01*
X065954D02*
G03*
X065954Y058884I-000040J000000D01*
G01*
X072422Y064312D02*
G03*
X072422Y064312I-000040J000000D01*
G01*
X072417Y061729D02*
G03*
X072417Y061729I-000040J000000D01*
G01*
X049508Y042869D02*
G03*
X049508Y042869I-000040J000000D01*
G01*
X046814Y040561D02*
G03*
X046814Y040561I-000040J000000D01*
G01*
X063949Y062400D02*
G03*
X063949Y062400I-000040J000000D01*
G01*
X062441Y061359D02*
G03*
X062441Y061359I-000040J000000D01*
G01*
X064452Y061689D02*
G03*
X064452Y061689I-000040J000000D01*
G01*
X065948Y063450D02*
G03*
X065948Y063450I-000040J000000D01*
G01*
X064468Y063818D02*
G03*
X064468Y063818I-000040J000000D01*
G01*
X050959Y059213D02*
G03*
X050959Y059213I-000040J000000D01*
G01*
X050982Y061862D02*
G03*
X050982Y061862I-000040J000000D01*
G01*
X069725Y056317D02*
G03*
X069725Y056317I-000040J000000D01*
G01*
X064962Y057042D02*
G03*
X064962Y057042I-000040J000000D01*
G01*
X060258Y057643D02*
G03*
X060258Y057643I-000040J000000D01*
G01*
X065902Y060018D02*
G03*
X065902Y060018I-000040J000000D01*
G01*
X066897Y060006D02*
G03*
X066897Y060006I-000040J000000D01*
G01*
X063609Y053423D02*
G03*
X063609Y053423I-000040J000000D01*
G01*
X063654Y055999D02*
G03*
X063654Y055999I-000040J000000D01*
G01*
X059489Y056736D02*
G03*
X059489Y056736I-000040J000000D01*
G01*
X058723Y044851D02*
G03*
X058723Y044851I-000040J000000D01*
G01*
X060649D02*
G03*
X060649Y044851I-000040J000000D01*
G01*
X047513Y031179D02*
G03*
X047513Y031179I-000040J000000D01*
G01*
X048381Y031416D02*
G03*
X048381Y031416I-000040J000000D01*
G01*
X049199Y031163D02*
G03*
X049199Y031163I-000040J000000D01*
G01*
X050128Y030999D02*
G03*
X050128Y030999I-000040J000000D01*
G01*
X054907Y029469D02*
G03*
X054907Y029469I-000040J000000D01*
G01*
X052475Y031400D02*
G03*
X052475Y031400I-000040J000000D01*
G01*
X053891Y030658D02*
G03*
X053891Y030658I-000040J000000D01*
G01*
X048942Y033927D02*
G03*
X048942Y033927I-000040J000000D01*
G01*
X046545Y033412D02*
G03*
X046545Y033412I-000040J000000D01*
G01*
X046529Y032483D02*
G03*
X046529Y032483I-000040J000000D01*
G01*
X045902Y031520D02*
G03*
X045902Y031520I-000040J000000D01*
G01*
X051995Y050997D02*
G03*
X051995Y050997I-000040J000000D01*
G01*
X051895Y049846D02*
G03*
X051895Y049846I-000040J000000D01*
G01*
X051529Y047593D02*
G03*
X051529Y047593I-000040J000000D01*
G01*
X051503Y046011D02*
G03*
X051503Y046011I-000040J000000D01*
G01*
X051543Y042802D02*
G03*
X051543Y042802I-000040J000000D01*
G01*
X050794Y040425D02*
G03*
X050794Y040425I-000040J000000D01*
G01*
X040792Y011745D02*
G03*
X040792Y011745I-000040J000000D01*
G01*
X029388Y012733D02*
G03*
X029388Y012733I-000040J000000D01*
G01*
X033521Y012743D02*
G03*
X033521Y012743I-000040J000000D01*
G01*
X028295Y017054D02*
G03*
X028295Y017054I-000040J000000D01*
G01*
X029020Y019780D02*
G03*
X029020Y019780I-000040J000000D01*
G01*
X029349Y025061D02*
G03*
X029349Y025061I-000040J000000D01*
G01*
X029003Y022871D02*
G03*
X029003Y022871I-000040J000000D01*
G01*
X030529Y026699D02*
G03*
X030529Y026699I-000040J000000D01*
G01*
X032773Y026640D02*
G03*
X032773Y026640I-000040J000000D01*
G01*
X037261Y014928D02*
G03*
X037261Y014928I-000040J000000D01*
G01*
X035932Y019081D02*
G03*
X035932Y019081I-000040J000000D01*
G01*
X036060Y022890D02*
G03*
X036060Y022890I-000040J000000D01*
G01*
X036484Y027231D02*
G03*
X036484Y027231I-000040J000000D01*
G01*
X040519Y026424D02*
G03*
X040519Y026424I-000040J000000D01*
G01*
X040588Y023392D02*
G03*
X040588Y023392I-000040J000000D01*
G01*
X040637Y017822D02*
G03*
X040637Y017822I-000040J000000D01*
G01*
X044771Y012694D02*
G03*
X044771Y012694I-000040J000000D01*
G01*
X078377Y053498D02*
G03*
X078377Y053498I-000040J000000D01*
G01*
X073111Y054219D02*
G03*
X073111Y054219I-000040J000000D01*
G01*
X074283Y052944D02*
G03*
X074283Y052944I-000040J000000D01*
G01*
X074533Y052009D02*
G03*
X074533Y052009I-000040J000000D01*
G01*
X075195D02*
G03*
X075195Y052009I-000040J000000D01*
G01*
X076091D02*
G03*
X076091Y052009I-000040J000000D01*
G01*
X078696Y052353D02*
G03*
X078696Y052353I-000040J000000D01*
G01*
X011973Y013284D02*
G03*
X011973Y013284I-000040J000000D01*
G01*
X011894Y012963D02*
G03*
X011894Y012963I-000040J000000D01*
G01*
X021776Y063354D02*
G03*
X021776Y063354I-000040J000000D01*
G01*
X022275Y063380D02*
G03*
X022275Y063380I-000040J000000D01*
G01*
X026103Y063504D02*
G03*
X026103Y063504I-000040J000000D01*
G01*
X018777Y064648D02*
G03*
X018777Y064648I-000040J000000D01*
G01*
X019779Y064469D02*
G03*
X019779Y064469I-000040J000000D01*
G01*
X022261Y065603D02*
G03*
X022261Y065603I-000040J000000D01*
G01*
X036275Y065241D02*
G03*
X036275Y065241I-000040J000000D01*
G01*
X035778D02*
G03*
X035778Y065241I-000040J000000D01*
G01*
X031788Y063738D02*
G03*
X031788Y063738I-000040J000000D01*
G01*
X032292Y063714D02*
G03*
X032292Y063714I-000040J000000D01*
G01*
X033760Y062211D02*
G03*
X033760Y062211I-000040J000000D01*
G01*
X080491Y056718D02*
G03*
X080491Y056718I-000040J000000D01*
G01*
X082400Y056371D02*
G03*
X082400Y056371I-000040J000000D01*
G01*
X081615Y054360D02*
G03*
X081615Y054360I-000040J000000D01*
G01*
X079238Y055155D02*
G03*
X079238Y055155I-000040J000000D01*
G01*
X080053Y053510D02*
G03*
X080053Y053510I-000040J000000D01*
G01*
X079194Y055794D02*
G03*
X079194Y055794I-000040J000000D01*
G01*
X081797Y056961D02*
G03*
X081797Y056961I-000040J000000D01*
G01*
X079186Y056659D02*
G03*
X079186Y056659I-000040J000000D01*
G01*
X080139Y052435D02*
G03*
X080139Y052435I-000040J000000D01*
G01*
Y052071D02*
G03*
X080139Y052071I-000040J000000D01*
G01*
X081872Y049098D02*
G03*
X081872Y049098I-000040J000000D01*
G01*
X085522Y050657D02*
G03*
X085522Y050657I-000040J000000D01*
G01*
X086324Y049754D02*
G03*
X086324Y049754I-000040J000000D01*
G01*
X085517Y049727D02*
G03*
X085517Y049727I-000040J000000D01*
G01*
X085522Y049418D02*
G03*
X085522Y049418I-000040J000000D01*
G01*
X085816Y050127D02*
G03*
X085816Y050127I-000040J000000D01*
G01*
X087566Y041631D02*
G03*
X087566Y041631I-000040J000000D01*
G01*
X087602Y057912D02*
G03*
X087602Y057912I-000040J000000D01*
G01*
X086738Y038098D02*
G03*
X086738Y038098I-000040J000000D01*
G01*
X088409Y040475D02*
G03*
X088409Y040475I-000040J000000D01*
G01*
X086175Y037531D02*
G03*
X086175Y037531I-000040J000000D01*
G01*
X084401Y061200D02*
G03*
X084401Y061200I-000040J000000D01*
G01*
X085148Y060305D02*
G03*
X085148Y060305I-000040J000000D01*
G01*
X080126Y063233D02*
G03*
X080126Y063233I-000040J000000D01*
G01*
X077447Y060012D02*
G03*
X077447Y060012I-000040J000000D01*
G01*
X080126Y063553D02*
G03*
X080126Y063553I-000040J000000D01*
G01*
X077801Y060011D02*
G03*
X077801Y060011I-000040J000000D01*
G01*
X083148Y045024D02*
G03*
X083148Y045024I-000040J000000D01*
G01*
X011014Y019314D02*
G03*
X011014Y019314I-000040J000000D01*
G01*
X011010Y030108D02*
G03*
X011010Y030108I-000040J000000D01*
G01*
X058599Y029124D02*
G03*
X058599Y029124I-000040J000000D01*
G01*
X060188D02*
G03*
X060188Y029124I-000040J000000D01*
G01*
X059726Y025180D02*
G03*
X059726Y025180I-000040J000000D01*
G01*
X048613Y013561D02*
G03*
X048613Y013561I-000040J000000D01*
G01*
Y013981D02*
G03*
X048613Y013981I-000040J000000D01*
G01*
X067977Y017748D02*
G03*
X067977Y017748I-000040J000000D01*
G01*
X047875Y022549D02*
G03*
X047875Y022549I-000040J000000D01*
G01*
X061502Y020522D02*
G03*
X061502Y020522I-000040J000000D01*
G01*
X061651Y020036D02*
G03*
X061651Y020036I-000040J000000D01*
G01*
X043206Y028189D02*
G03*
X043206Y028189I-000040J000000D01*
G01*
X041774Y028607D02*
G03*
X041774Y028607I-000040J000000D01*
G01*
X066024Y017372D02*
G03*
X066024Y017372I-000040J000000D01*
G01*
X054665Y017602D02*
G03*
X054665Y017602I-000040J000000D01*
G01*
X054635Y016860D02*
G03*
X054635Y016860I-000040J000000D01*
G01*
X054139Y020009D02*
G03*
X054139Y020009I-000040J000000D01*
G01*
X054362Y020808D02*
G03*
X054362Y020808I-000040J000000D01*
G01*
X054742Y019205D02*
G03*
X054742Y019205I-000040J000000D01*
G01*
X054961Y020031D02*
G03*
X054961Y020031I-000040J000000D01*
G01*
X054091Y019252D02*
G03*
X054091Y019252I-000040J000000D01*
G01*
X058923Y014741D02*
G03*
X058923Y014741I-000040J000000D01*
G01*
X061546Y013179D02*
G03*
X061546Y013179I-000040J000000D01*
G01*
X065734Y015190D02*
G03*
X065734Y015190I-000040J000000D01*
G01*
X046625Y019847D02*
G03*
X046625Y019847I-000040J000000D01*
G01*
X067806Y018022D02*
G03*
X067806Y018022I-000040J000000D01*
G01*
X063015Y018041D02*
G03*
X063015Y018041I-000040J000000D01*
G01*
Y022031D02*
G03*
X063015Y022031I-000040J000000D01*
G01*
Y023022D02*
G03*
X063015Y023022I-000040J000000D01*
G01*
X061823Y019531D02*
G03*
X061823Y019531I-000040J000000D01*
G01*
X055238Y017251D02*
G03*
X055238Y017251I-000040J000000D01*
G01*
X050198Y021303D02*
G03*
X050198Y021303I-000040J000000D01*
G01*
X049843Y021093D02*
G03*
X049843Y021093I-000040J000000D01*
G01*
X016792Y021132D02*
G03*
X016792Y021132I-000040J000000D01*
G01*
X042133Y013297D02*
G03*
X042133Y013297I-000040J000000D01*
G01*
X081672Y063992D02*
G03*
X081672Y063992I-000040J000000D01*
G01*
X081260Y060836D02*
G03*
X081260Y060836I-000040J000000D01*
G01*
X083396Y061696D02*
G03*
X083396Y061696I-000040J000000D01*
G01*
Y062453D02*
G03*
X083396Y062453I-000040J000000D01*
G01*
Y063110D02*
G03*
X083396Y063110I-000040J000000D01*
G01*
Y064008D02*
G03*
X083396Y064008I-000040J000000D01*
G01*
Y064744D02*
G03*
X083396Y064744I-000040J000000D01*
G01*
X082492Y060568D02*
G03*
X082492Y060568I-000040J000000D01*
G01*
X081814Y059399D02*
G03*
X081814Y059399I-000040J000000D01*
G01*
X079591Y062060D02*
G03*
X079591Y062060I-000040J000000D01*
G01*
X058296Y059090D02*
G03*
X058296Y059090I-000040J000000D01*
G01*
X057979Y059310D02*
G03*
X057979Y059310I-000040J000000D01*
G01*
X035168Y032490D02*
G03*
X035168Y032490I-000040J000000D01*
G01*
X031093Y032421D02*
G03*
X031093Y032421I-000040J000000D01*
G01*
X032739Y030518D02*
G03*
X032739Y030518I-000040J000000D01*
G01*
X081198Y038634D02*
G03*
X081198Y038634I-000040J000000D01*
G01*
X081970Y035166D02*
G03*
X081970Y035166I-000040J000000D01*
G01*
X081975Y034700D02*
G03*
X081975Y034700I-000040J000000D01*
G01*
X082269Y035414D02*
G03*
X082269Y035414I-000040J000000D01*
G01*
X082010Y035655D02*
G03*
X082010Y035655I-000040J000000D01*
G01*
X082262Y034935D02*
G03*
X082262Y034935I-000040J000000D01*
G01*
X082236Y034451D02*
G03*
X082236Y034451I-000040J000000D01*
G01*
X082006Y034124D02*
G03*
X082006Y034124I-000040J000000D01*
G01*
X082051Y033528D02*
G03*
X082051Y033528I-000040J000000D01*
G01*
X082209Y033834D02*
G03*
X082209Y033834I-000040J000000D01*
G01*
X082042Y032945D02*
G03*
X082042Y032945I-000040J000000D01*
G01*
X038367Y063667D02*
G03*
X038367Y063667I-000040J000000D01*
G01*
X026881Y062402D02*
G03*
X026881Y062402I-000040J000000D01*
G01*
X027714Y062213D02*
G03*
X027714Y062213I-000040J000000D01*
G01*
X026359Y064744D02*
G03*
X026359Y064744I-000040J000000D01*
G01*
X024883Y065039D02*
G03*
X024883Y065039I-000040J000000D01*
G01*
X013259Y020266D02*
G03*
X013259Y020266I-000040J000000D01*
G01*
X015040Y020787D02*
G03*
X015040Y020787I-000040J000000D01*
G01*
X011626Y019161D02*
G03*
X011626Y019161I-000040J000000D01*
G01*
X015040Y018652D02*
G03*
X015040Y018652I-000040J000000D01*
G01*
X016170Y019161D02*
G03*
X016170Y019161I-000040J000000D01*
G01*
X012113Y028868D02*
G03*
X012113Y028868I-000040J000000D01*
G01*
X013174Y028989D02*
G03*
X013174Y028989I-000040J000000D01*
G01*
X013690Y024882D02*
G03*
X013690Y024882I-000040J000000D01*
G01*
X013427Y026762D02*
G03*
X013427Y026762I-000040J000000D01*
G01*
X014892Y024986D02*
G03*
X014892Y024986I-000040J000000D01*
G01*
X059715Y047195D02*
G03*
X059715Y047195I-000040J000000D01*
G01*
X055906Y047313D02*
G03*
X055906Y047313I-000040J000000D01*
G01*
X029961Y028868D02*
G03*
X029961Y028868I-000040J000000D01*
G01*
X029696Y028563D02*
G03*
X029696Y028563I-000040J000000D01*
G01*
X019292Y024498D02*
G03*
X019292Y024498I-000040J000000D01*
G01*
X037338Y031490D02*
G03*
X037338Y031490I-000040J000000D01*
G01*
X047339Y041230D02*
G03*
X047339Y041230I-000040J000000D01*
G01*
X058381Y045924D02*
G03*
X058381Y045924I-000040J000000D01*
G01*
X057404Y045929D02*
G03*
X057404Y045929I-000040J000000D01*
G01*
X051582Y043671D02*
G03*
X051582Y043671I-000040J000000D01*
G01*
X050633Y049510D02*
G03*
X050633Y049510I-000040J000000D01*
G01*
X050030Y036109D02*
G03*
X050030Y036109I-000040J000000D01*
G01*
X088091Y056981D02*
G03*
X088091Y056981I-000040J000000D01*
G01*
X072435Y046171D02*
G03*
X072435Y046171I-000040J000000D01*
G01*
X085030Y042559D02*
G03*
X085030Y042559I-000040J000000D01*
G01*
X086103D02*
G03*
X086103Y042559I-000040J000000D01*
G01*
X084367D02*
G03*
X084367Y042559I-000040J000000D01*
G01*
X082518Y047411D02*
G03*
X082518Y047411I-000040J000000D01*
G01*
X076189Y037907D02*
G03*
X076189Y037907I-000040J000000D01*
G01*
X077146Y059092D02*
G03*
X077146Y059092I-000040J000000D01*
G01*
X074193Y056856D02*
G03*
X074193Y056856I-000040J000000D01*
G01*
X078721Y057643D02*
G03*
X078721Y057643I-000040J000000D01*
G01*
X079025Y056998D02*
G03*
X079025Y056998I-000040J000000D01*
G01*
X074729Y062119D02*
G03*
X074729Y062119I-000040J000000D01*
G01*
X075556D02*
G03*
X075556Y062119I-000040J000000D01*
G01*
X070988Y049687D02*
G03*
X070988Y049687I-000040J000000D01*
G01*
X079268Y051781D02*
G03*
X079268Y051781I-000040J000000D01*
G01*
X071136Y059703D02*
G03*
X071136Y059703I-000040J000000D01*
G01*
X051099Y056989D02*
G03*
X051099Y056989I-000040J000000D01*
G01*
X050906Y057250D02*
G03*
X050906Y057250I-000040J000000D01*
G01*
X050943Y057613D02*
G03*
X050943Y057613I-000040J000000D01*
G01*
X056050Y058293D02*
G03*
X056050Y058293I-000040J000000D01*
G01*
X058619Y057961D02*
G03*
X058619Y057961I-000040J000000D01*
G01*
X057229Y060412D02*
G03*
X057229Y060412I-000040J000000D01*
G01*
X047853Y054752D02*
G03*
X047853Y054752I-000040J000000D01*
G01*
X052379Y054334D02*
G03*
X052379Y054334I-000040J000000D01*
G01*
X056154Y052037D02*
G03*
X056154Y052037I-000040J000000D01*
G01*
X057520Y052241D02*
G03*
X057520Y052241I-000040J000000D01*
G01*
X055106Y054380D02*
G03*
X055106Y054380I-000040J000000D01*
G01*
X053957Y060837D02*
G03*
X053957Y060837I-000040J000000D01*
G01*
X052077Y052041D02*
G03*
X052077Y052041I-000040J000000D01*
G01*
X053111Y052037D02*
G03*
X053111Y052037I-000040J000000D01*
G01*
X055316Y054094D02*
G03*
X055316Y054094I-000040J000000D01*
G01*
X068081Y048041D02*
G03*
X068081Y048041I-000040J000000D01*
G01*
X056315Y049349D02*
G03*
X056315Y049349I-000040J000000D01*
G01*
X056664Y049309D02*
G03*
X056664Y049309I-000040J000000D01*
G01*
X057727Y061752D02*
G03*
X057727Y061752I-000040J000000D01*
G01*
X062450Y062346D02*
G03*
X062450Y062346I-000040J000000D01*
G01*
X054127Y058262D02*
G03*
X054127Y058262I-000040J000000D01*
G01*
X056644Y060246D02*
G03*
X056644Y060246I-000040J000000D01*
G01*
X060099Y052995D02*
G03*
X060099Y052995I-000040J000000D01*
G01*
X066557Y052180D02*
G03*
X066557Y052180I-000040J000000D01*
G01*
X058669Y058698D02*
G03*
X058669Y058698I-000040J000000D01*
G01*
X042264Y024498D02*
G03*
X042264Y024498I-000040J000000D01*
G01*
X056802Y031870D02*
G03*
X056802Y031870I-000040J000000D01*
G01*
X060325Y050205D02*
G03*
X060325Y050205I-000040J000000D01*
G01*
X053111Y053169D02*
G03*
X053111Y053169I-000040J000000D01*
G01*
Y063740D02*
G03*
X053111Y063740I-000040J000000D01*
G01*
Y061844D02*
G03*
X053111Y061844I-000040J000000D01*
G01*
X052077Y064232D02*
G03*
X052077Y064232I-000040J000000D01*
G01*
X060654Y045327D02*
G03*
X060654Y045327I-000040J000000D01*
G01*
X058820Y033917D02*
G03*
X058820Y033917I-000040J000000D01*
G01*
X065450Y064716D02*
G03*
X065450Y064716I-000040J000000D01*
G01*
X035444Y032746D02*
G03*
X035444Y032746I-000040J000000D01*
G01*
X035072Y030514D02*
G03*
X035072Y030514I-000040J000000D01*
G01*
X034725Y030512D02*
G03*
X034725Y030512I-000040J000000D01*
G01*
X038363Y035072D02*
G03*
X038363Y035072I-000040J000000D01*
G01*
X039049Y036022D02*
G03*
X039049Y036022I-000040J000000D01*
G01*
X039482Y033396D02*
G03*
X039482Y033396I-000040J000000D01*
G01*
X038170Y028917D02*
G03*
X038170Y028917I-000040J000000D01*
G01*
X037873Y028661D02*
G03*
X037873Y028661I-000040J000000D01*
G01*
X038190Y033022D02*
G03*
X038190Y033022I-000040J000000D01*
G01*
X037873Y032224D02*
G03*
X037873Y032224I-000040J000000D01*
G01*
X039482Y037925D02*
G03*
X039482Y037925I-000040J000000D01*
G01*
X042349Y030787D02*
G03*
X042349Y030787I-000040J000000D01*
G01*
X042887Y039068D02*
G03*
X042887Y039068I-000040J000000D01*
G01*
X042402Y042231D02*
G03*
X042402Y042231I-000040J000000D01*
G01*
X048615Y040079D02*
G03*
X048615Y040079I-000040J000000D01*
G01*
X018032Y030020D02*
G03*
X018032Y030020I-000040J000000D01*
G01*
X073265Y046171D02*
G03*
X073265Y046171I-000040J000000D01*
G01*
X050906Y064026D02*
G03*
X050906Y064026I-000040J000000D01*
G01*
X056438Y051240D02*
G03*
X056438Y051240I-000040J000000D01*
G01*
X066232Y025492D02*
G03*
X066232Y025492I-000040J000000D01*
G01*
X070220Y037214D02*
G03*
X070220Y037214I-000040J000000D01*
G01*
X072784Y037201D02*
G03*
X072784Y037201I-000040J000000D01*
G01*
X072764Y041111D02*
G03*
X072764Y041111I-000040J000000D01*
G01*
X083547Y049573D02*
G03*
X083547Y049573I-000040J000000D01*
G01*
X083347Y036419D02*
G03*
X083347Y036419I-000040J000000D01*
G01*
X065117Y054998D02*
G03*
X065117Y054998I-000040J000000D01*
G01*
X058963Y053916D02*
G03*
X058963Y053916I-000040J000000D01*
G01*
Y054297D02*
G03*
X058963Y054297I-000040J000000D01*
G01*
X041683Y037206D02*
G03*
X041683Y037206I-000040J000000D01*
G01*
X041133Y028661D02*
G03*
X041133Y028661I-000040J000000D01*
G01*
X038938Y062136D02*
G03*
X038938Y062136I-000040J000000D01*
G01*
X070135Y044634D02*
G03*
X070135Y044634I-000040J000000D01*
G01*
X079335Y027518D02*
G03*
X079335Y027518I-000040J000000D01*
G01*
X080316Y065827D02*
G03*
X080316Y065827I-000040J000000D01*
G01*
X075964Y038299D02*
G03*
X075964Y038299I-000040J000000D01*
G01*
X075719Y038671D02*
G03*
X075719Y038671I-000040J000000D01*
G01*
X068714Y040786D02*
G03*
X068714Y040786I-000040J000000D01*
G01*
X055906Y047746D02*
G03*
X055906Y047746I-000040J000000D01*
G01*
X069950Y050031D02*
G03*
X069950Y050031I-000040J000000D01*
G01*
X073787Y064918D02*
G03*
X073787Y064918I-000040J000000D01*
G01*
X067765Y046291D02*
G03*
X067765Y046291I-000040J000000D01*
G01*
X067755Y047451D02*
G03*
X067755Y047451I-000040J000000D01*
G01*
X073563Y052502D02*
G03*
X073563Y052502I-000040J000000D01*
G01*
Y052893D02*
G03*
X073563Y052893I-000040J000000D01*
G01*
X082205Y033210D02*
G03*
X082205Y033210I-000040J000000D01*
G01*
X072735Y034375D02*
G03*
X072735Y034375I-000040J000000D01*
G01*
X071667Y029437D02*
G03*
X071667Y029437I-000040J000000D01*
G01*
X072285Y035494D02*
G03*
X072285Y035494I-000040J000000D01*
G01*
X072179Y035848D02*
G03*
X072179Y035848I-000040J000000D01*
G01*
X072069Y036149D02*
G03*
X072069Y036149I-000040J000000D01*
G01*
X071958Y036536D02*
G03*
X071958Y036536I-000040J000000D01*
G01*
X072944Y034038D02*
G03*
X072944Y034038I-000040J000000D01*
G01*
X072419Y035151D02*
G03*
X072419Y035151I-000040J000000D01*
G01*
X072566Y034737D02*
G03*
X072566Y034737I-000040J000000D01*
G01*
X073112Y033711D02*
G03*
X073112Y033711I-000040J000000D01*
G01*
X073308Y033366D02*
G03*
X073308Y033366I-000040J000000D01*
G01*
X073455Y032991D02*
G03*
X073455Y032991I-000040J000000D01*
G01*
X054460Y029590D02*
G03*
X054460Y029590I-000040J000000D01*
G01*
X067788Y065169D02*
G03*
X067788Y065169I-000040J000000D01*
G01*
X067294D02*
G03*
X067294Y065169I-000040J000000D01*
G01*
X080040Y038897D02*
G03*
X080040Y038897I-000040J000000D01*
G01*
X064375Y041848D02*
G03*
X064375Y041848I-000040J000000D01*
G01*
X056005Y050039D02*
G03*
X056005Y050039I-000040J000000D01*
G01*
Y050588D02*
G03*
X056005Y050588I-000040J000000D01*
G01*
X075118Y064082D02*
G03*
X075118Y064082I-000040J000000D01*
G01*
X076624Y049966D02*
G03*
X076624Y049966I-000040J000000D01*
G01*
Y057961D02*
G03*
X076624Y057961I-000040J000000D01*
G01*
X076289Y057781D02*
G03*
X076289Y057781I-000040J000000D01*
G01*
X076450Y064564D02*
G03*
X076450Y064564I-000040J000000D01*
G01*
X076826Y063829D02*
G03*
X076826Y063829I-000040J000000D01*
G01*
X058595Y045238D02*
G03*
X058595Y045238I-000040J000000D01*
G01*
X059489Y050919D02*
G03*
X059489Y050919I-000040J000000D01*
G01*
X073012Y045056D02*
G03*
X073012Y045056I-000040J000000D01*
G01*
X077305Y064303D02*
G03*
X077305Y064303I-000040J000000D01*
G01*
X060078Y058698D02*
G03*
X060078Y058698I-000040J000000D01*
G01*
X081182Y054183D02*
G03*
X081182Y054183I-000040J000000D01*
G01*
X073787Y060104D02*
G03*
X073787Y060104I-000040J000000D01*
G01*
X058509Y046563D02*
G03*
X058509Y046563I-000040J000000D01*
G01*
X045139Y029139D02*
G03*
X045139Y029139I-000040J000000D01*
G01*
X044990Y034531D02*
G03*
X044990Y034531I-000040J000000D01*
G01*
X049041Y039631D02*
G03*
X049041Y039631I-000040J000000D01*
G01*
X042402Y040744D02*
G03*
X042402Y040744I-000040J000000D01*
G01*
X041713Y034358D02*
G03*
X041713Y034358I-000040J000000D01*
G01*
Y032951D02*
G03*
X041713Y032951I-000040J000000D01*
G01*
X042520Y029331D02*
G03*
X042520Y029331I-000040J000000D01*
G01*
X045020Y033381D02*
G03*
X045020Y033381I-000040J000000D01*
G01*
X044990Y036022D02*
G03*
X044990Y036022I-000040J000000D01*
G01*
X048970Y035931D02*
G03*
X048970Y035931I-000040J000000D01*
G01*
Y035609D02*
G03*
X048970Y035609I-000040J000000D01*
G01*
X049643Y035612D02*
G03*
X049643Y035612I-000040J000000D01*
G01*
X049951Y039626D02*
G03*
X049951Y039626I-000040J000000D01*
G01*
X050790Y036022D02*
G03*
X050790Y036022I-000040J000000D01*
G01*
X050431Y035812D02*
G03*
X050431Y035812I-000040J000000D01*
G01*
X050717Y035505D02*
G03*
X050717Y035505I-000040J000000D01*
G01*
X051255Y028547D02*
G03*
X051255Y028547I-000040J000000D01*
G01*
X051255Y029639D02*
G03*
X051255Y029639I-000040J000000D01*
G01*
X052050Y028547D02*
G03*
X052050Y028547I-000040J000000D01*
G01*
X052049Y029639D02*
G03*
X052049Y029639I-000040J000000D01*
G01*
X052935Y028547D02*
G03*
X052935Y028547I-000040J000000D01*
G01*
Y029639D02*
G03*
X052935Y029639I-000040J000000D01*
G01*
X053980Y034737D02*
G03*
X053980Y034737I-000040J000000D01*
G01*
X054460Y033179D02*
G03*
X054460Y033179I-000040J000000D01*
G01*
Y033973D02*
G03*
X054460Y033973I-000040J000000D01*
G01*
X043114Y037021D02*
G03*
X043114Y037021I-000040J000000D01*
G01*
X044342D02*
G03*
X044342Y037021I-000040J000000D01*
G01*
X048672Y036196D02*
G03*
X048672Y036196I-000040J000000D01*
G01*
X049661Y039474D02*
G03*
X049661Y039474I-000040J000000D01*
G01*
X051243Y032903D02*
G03*
X051243Y032903I-000040J000000D01*
G01*
X053596Y033057D02*
G03*
X053596Y033057I-000040J000000D01*
G01*
X054460Y034481D02*
G03*
X054460Y034481I-000040J000000D01*
G01*
X047005Y035837D02*
G03*
X047005Y035837I-000040J000000D01*
G01*
X050927Y032734D02*
G03*
X050927Y032734I-000040J000000D01*
G01*
X049433Y035912D02*
G03*
X049433Y035912I-000040J000000D01*
G01*
X053366Y028536D02*
G03*
X053366Y028536I-000040J000000D01*
G01*
X051696Y039615D02*
G03*
X051696Y039615I-000040J000000D01*
G01*
X053403Y039625D02*
G03*
X053403Y039625I-000040J000000D01*
G01*
X047626Y038455D02*
G03*
X047626Y038455I-000040J000000D01*
G01*
X049223Y036196D02*
G03*
X049223Y036196I-000040J000000D01*
G01*
X049325Y039479D02*
G03*
X049325Y039479I-000040J000000D01*
G01*
X070834Y060030D02*
G03*
X070834Y060030I-000040J000000D01*
G01*
X066185Y026266D02*
G03*
X066185Y026266I-000040J000000D01*
G01*
X065338Y026256D02*
G03*
X065338Y026256I-000040J000000D01*
G01*
X077770Y027070D02*
G03*
X077770Y027070I-000040J000000D01*
G01*
X077335Y027065D02*
G03*
X077335Y027065I-000040J000000D01*
G01*
X076561Y027100D02*
G03*
X076561Y027100I-000040J000000D01*
G01*
X078715Y027826D02*
G03*
X078715Y027826I-000040J000000D01*
G01*
X077955Y027518D02*
G03*
X077955Y027518I-000040J000000D01*
G01*
X078575Y028258D02*
G03*
X078575Y028258I-000040J000000D01*
G01*
X078815Y028787D02*
G03*
X078815Y028787I-000040J000000D01*
G01*
X074765Y028490D02*
G03*
X074765Y028490I-000040J000000D01*
G01*
X078575Y029268D02*
G03*
X078575Y029268I-000040J000000D01*
G01*
X074791Y029977D02*
G03*
X074791Y029977I-000040J000000D01*
G01*
X074676Y030319D02*
G03*
X074676Y030319I-000040J000000D01*
G01*
X074268Y030303D02*
G03*
X074268Y030303I-000040J000000D01*
G01*
X065215Y030050D02*
G03*
X065215Y030050I-000040J000000D01*
G01*
X063635Y029882D02*
G03*
X063635Y029882I-000040J000000D01*
G01*
X062136Y030122D02*
G03*
X062136Y030122I-000040J000000D01*
G01*
X060575Y030298D02*
G03*
X060575Y030298I-000040J000000D01*
G01*
X078815Y030846D02*
G03*
X078815Y030846I-000040J000000D01*
G01*
X077028Y031681D02*
G03*
X077028Y031681I-000040J000000D01*
G01*
X063735Y031982D02*
G03*
X063735Y031982I-000040J000000D01*
G01*
X062645Y031821D02*
G03*
X062645Y031821I-000040J000000D01*
G01*
X061101Y031863D02*
G03*
X061101Y031863I-000040J000000D01*
G01*
X077028Y032266D02*
G03*
X077028Y032266I-000040J000000D01*
G01*
X063540Y032371D02*
G03*
X063540Y032371I-000040J000000D01*
G01*
X062935Y032278D02*
G03*
X062935Y032278I-000040J000000D01*
G01*
X068988Y033294D02*
G03*
X068988Y033294I-000040J000000D01*
G01*
X068455Y037468D02*
G03*
X068455Y037468I-000040J000000D01*
G01*
X067092Y037448D02*
G03*
X067092Y037448I-000040J000000D01*
G01*
X066825Y037201D02*
G03*
X066825Y037201I-000040J000000D01*
G01*
X063685Y037448D02*
G03*
X063685Y037448I-000040J000000D01*
G01*
X068543Y038299D02*
G03*
X068543Y038299I-000040J000000D01*
G01*
X067625Y038748D02*
G03*
X067625Y038748I-000040J000000D01*
G01*
X068963Y039746D02*
G03*
X068963Y039746I-000040J000000D01*
G01*
X067825Y039726D02*
G03*
X067825Y039726I-000040J000000D01*
G01*
X067488Y039724D02*
G03*
X067488Y039724I-000040J000000D01*
G01*
X066664Y039706D02*
G03*
X066664Y039706I-000040J000000D01*
G01*
X067114Y039707D02*
G03*
X067114Y039707I-000040J000000D01*
G01*
X068395Y040358D02*
G03*
X068395Y040358I-000040J000000D01*
G01*
X064375Y040268D02*
G03*
X064375Y040268I-000040J000000D01*
G01*
Y040638D02*
G03*
X064375Y040638I-000040J000000D01*
G01*
Y041443D02*
G03*
X064375Y041443I-000040J000000D01*
G01*
X070220Y046291D02*
G03*
X070220Y046291I-000040J000000D01*
G01*
X079582Y048322D02*
G03*
X079582Y048322I-000040J000000D01*
G01*
X069075Y049439D02*
G03*
X069075Y049439I-000040J000000D01*
G01*
X079090Y050188D02*
G03*
X079090Y050188I-000040J000000D01*
G01*
X076289Y049848D02*
G03*
X076289Y049848I-000040J000000D01*
G01*
X073915Y049998D02*
G03*
X073915Y049998I-000040J000000D01*
G01*
X079098Y050880D02*
G03*
X079098Y050880I-000040J000000D01*
G01*
X079013Y052692D02*
G03*
X079013Y052692I-000040J000000D01*
G01*
X068968Y052457D02*
G03*
X068968Y052457I-000040J000000D01*
G01*
X059363Y052241D02*
G03*
X059363Y052241I-000040J000000D01*
G01*
X079080Y053510D02*
G03*
X079080Y053510I-000040J000000D01*
G01*
X068965Y053336D02*
G03*
X068965Y053336I-000040J000000D01*
G01*
X068567Y053103D02*
G03*
X068567Y053103I-000040J000000D01*
G01*
X068563Y053560D02*
G03*
X068563Y053560I-000040J000000D01*
G01*
X068578Y054297D02*
G03*
X068578Y054297I-000040J000000D01*
G01*
X068656Y054831D02*
G03*
X068656Y054831I-000040J000000D01*
G01*
X069243Y055675D02*
G03*
X069243Y055675I-000040J000000D01*
G01*
X069469Y055462D02*
G03*
X069469Y055462I-000040J000000D01*
G01*
X079014Y058132D02*
G03*
X079014Y058132I-000040J000000D01*
G01*
X078809Y058783D02*
G03*
X078809Y058783I-000040J000000D01*
G01*
X068635Y058698D02*
G03*
X068635Y058698I-000040J000000D01*
G01*
X079013Y059899D02*
G03*
X079013Y059899I-000040J000000D01*
G01*
X074153Y061157D02*
G03*
X074153Y061157I-000040J000000D01*
G01*
X065758Y026266D02*
G03*
X065758Y026266I-000040J000000D01*
G01*
X065586Y025841D02*
G03*
X065586Y025841I-000040J000000D01*
G01*
X073735Y028618D02*
G03*
X073735Y028618I-000040J000000D01*
G01*
X075285D02*
G03*
X075285Y028618I-000040J000000D01*
G01*
X074380Y028564D02*
G03*
X074380Y028564I-000040J000000D01*
G01*
X078359Y029046D02*
G03*
X078359Y029046I-000040J000000D01*
G01*
X078345Y029519D02*
G03*
X078345Y029519I-000040J000000D01*
G01*
X060903Y030203D02*
G03*
X060903Y030203I-000040J000000D01*
G01*
X064001Y031675D02*
G03*
X064001Y031675I-000040J000000D01*
G01*
X064806Y031903D02*
G03*
X064806Y031903I-000040J000000D01*
G01*
X061661Y032296D02*
G03*
X061661Y032296I-000040J000000D01*
G01*
X068079Y033295D02*
G03*
X068079Y033295I-000040J000000D01*
G01*
X063255Y036366D02*
G03*
X063255Y036366I-000040J000000D01*
G01*
X068149Y037448D02*
G03*
X068149Y037448I-000040J000000D01*
G01*
X068839Y038063D02*
G03*
X068839Y038063I-000040J000000D01*
G01*
X063999Y037969D02*
G03*
X063999Y037969I-000040J000000D01*
G01*
X067345Y039028D02*
G03*
X067345Y039028I-000040J000000D01*
G01*
X068132Y039048D02*
G03*
X068132Y039048I-000040J000000D01*
G01*
X065625Y040358D02*
G03*
X065625Y040358I-000040J000000D01*
G01*
X074555Y049444D02*
G03*
X074555Y049444I-000040J000000D01*
G01*
X069709Y049439D02*
G03*
X069709Y049439I-000040J000000D01*
G01*
X073563Y050031D02*
G03*
X073563Y050031I-000040J000000D01*
G01*
X074495Y050008D02*
G03*
X074495Y050008I-000040J000000D01*
G01*
X067336Y052268D02*
G03*
X067336Y052268I-000040J000000D01*
G01*
X068724Y052656D02*
G03*
X068724Y052656I-000040J000000D01*
G01*
X068915Y054063D02*
G03*
X068915Y054063I-000040J000000D01*
G01*
X073688Y054678D02*
G03*
X073688Y054678I-000040J000000D01*
G01*
X068945Y055885D02*
G03*
X068945Y055885I-000040J000000D01*
G01*
Y055462D02*
G03*
X068945Y055462I-000040J000000D01*
G01*
X070453Y056313D02*
G03*
X070453Y056313I-000040J000000D01*
G01*
X068945Y056305D02*
G03*
X068945Y056305I-000040J000000D01*
G01*
X079250Y057326D02*
G03*
X079250Y057326I-000040J000000D01*
G01*
X070337Y057970D02*
G03*
X070337Y057970I-000040J000000D01*
G01*
X068945Y057968D02*
G03*
X068945Y057968I-000040J000000D01*
G01*
X079223Y059598D02*
G03*
X079223Y059598I-000040J000000D01*
G01*
X079259Y060271D02*
G03*
X079259Y060271I-000040J000000D01*
G01*
X075191Y061163D02*
G03*
X075191Y061163I-000040J000000D01*
G01*
X065975Y025836D02*
G03*
X065975Y025836I-000040J000000D01*
G01*
X078129Y028828D02*
G03*
X078129Y028828I-000040J000000D01*
G01*
X076542Y028225D02*
G03*
X076542Y028225I-000040J000000D01*
G01*
X068260Y030599D02*
G03*
X068260Y030599I-000040J000000D01*
G01*
X060353Y030593D02*
G03*
X060353Y030593I-000040J000000D01*
G01*
X069113Y032162D02*
G03*
X069113Y032162I-000040J000000D01*
G01*
X066829Y032816D02*
G03*
X066829Y032816I-000040J000000D01*
G01*
X066841Y032120D02*
G03*
X066841Y032120I-000040J000000D01*
G01*
X062284Y032903D02*
G03*
X062284Y032903I-000040J000000D01*
G01*
X061445Y032816D02*
G03*
X061445Y032816I-000040J000000D01*
G01*
X063432Y036848D02*
G03*
X063432Y036848I-000040J000000D01*
G01*
X066825Y039386D02*
G03*
X066825Y039386I-000040J000000D01*
G01*
X065891Y040173D02*
G03*
X065891Y040173I-000040J000000D01*
G01*
X065279Y040174D02*
G03*
X065279Y040174I-000040J000000D01*
G01*
X064375Y041028D02*
G03*
X064375Y041028I-000040J000000D01*
G01*
X074729Y049809D02*
G03*
X074729Y049809I-000040J000000D01*
G01*
X074180Y049728D02*
G03*
X074180Y049728I-000040J000000D01*
G01*
X078970Y050578D02*
G03*
X078970Y050578I-000040J000000D01*
G01*
X079008Y052009D02*
G03*
X079008Y052009I-000040J000000D01*
G01*
X068992Y052927D02*
G03*
X068992Y052927I-000040J000000D01*
G01*
X069243Y056069D02*
G03*
X069243Y056069I-000040J000000D01*
G01*
X079035Y058526D02*
G03*
X079035Y058526I-000040J000000D01*
G01*
X078786Y059414D02*
G03*
X078786Y059414I-000040J000000D01*
G01*
X071634Y057798D02*
G03*
X071634Y057798I-000040J000000D01*
G01*
X070904Y058532D02*
G03*
X070904Y058532I-000040J000000D01*
G01*
X068605Y057768D02*
G03*
X068605Y057768I-000040J000000D01*
G01*
X076905Y028084D02*
G03*
X076905Y028084I-000040J000000D01*
G01*
X075149Y029767D02*
G03*
X075149Y029767I-000040J000000D01*
G01*
X076925Y031276D02*
G03*
X076925Y031276I-000040J000000D01*
G01*
X067922Y038509D02*
G03*
X067922Y038509I-000040J000000D01*
G01*
X066340Y040202D02*
G03*
X066340Y040202I-000040J000000D01*
G01*
X066521Y049809D02*
G03*
X066521Y049809I-000040J000000D01*
G01*
X079242Y050447D02*
G03*
X079242Y050447I-000040J000000D01*
G01*
X074492Y053778D02*
G03*
X074492Y053778I-000040J000000D01*
G01*
X069540Y054454D02*
G03*
X069540Y054454I-000040J000000D01*
G01*
X068923Y054516D02*
G03*
X068923Y054516I-000040J000000D01*
G01*
X066485Y053778D02*
G03*
X066485Y053778I-000040J000000D01*
G01*
X070379Y057602D02*
G03*
X070379Y057602I-000040J000000D01*
G01*
X068938Y059418D02*
G03*
X068938Y059418I-000040J000000D01*
G01*
X068941Y058448D02*
G03*
X068941Y058448I-000040J000000D01*
G01*
M02*
