M48
;Layer_Color=11367680
;FILE_FORMAT=2:4
INCH
;TYPE=PLATED
T1F00S00C0.0120
T2F00S00C0.0150
T3F00S00C0.0157
T4F00S00C0.0236
T5F00S00C0.0276
T6F00S00C0.0300
T7F00S00C0.0787
T8F00S00C0.0850
;TYPE=NON_PLATED
T9F00S00C0.0256
T10F00S00C0.0276
T11F00S00C0.0630
%
T01
X011854Y012963
X011933Y013284
X029348Y012733
X033481Y012743
X037221Y014928
X042093Y013297
X040752Y011745
X044731Y012694
X048573Y013561
Y013981
X058883Y014741
X061506Y013179
X065694Y015190
X078675Y027826
X078535Y028258
X078775Y028787
X078319Y029046
X078535Y029268
X078305Y029519
X078775Y030846
X079295Y027518
X077915
X077730Y027070
X077295Y027065
X076521Y027100
X076502Y028225
X076865Y028084
X078089Y028828
X075245Y028618
X074725Y028490
X074340Y028564
X073695Y028618
X074228Y030303
X074636Y030319
X074751Y029977
X075109Y029767
X071627Y029437
X068220Y030599
X065175Y030050
X063595Y029882
X063172Y026086
X063160Y025579
X064581Y025562
X064600Y026076
X065298Y026256
X065718Y026266
X066145
X065935Y025836
X065546Y025841
X066192Y025492
X067195Y026196
X068010Y025954
X067223Y027688
X062975Y023022
Y022031
Y018041
X065984Y017372
X067937Y017748
X067766Y018022
X061783Y019531
X061611Y020036
X061462Y020522
X061840Y025605
X061840Y026126
X059686Y025180
X060148Y029124
X060535Y030298
X060863Y030203
X060313Y030593
X062096Y030122
X058559Y029124
X054867Y029469
X054420Y029590
X052895Y029639
X052009
X051215
X051215Y028547
X052010
X052895
X053326Y028536
X053851Y030658
X050088Y030999
X049159Y031163
X047473Y031179
X047835Y022549
X049803Y021093
X050158Y021303
X054322Y020808
X054099Y020009
X054051Y019252
X054702Y019205
X054921Y020031
X054625Y017602
X054595Y016860
X055198Y017251
X046585Y019847
X040597Y017822
X040548Y023392
X042224Y024498
X040479Y026424
X041093Y028661
X041734Y028607
X042480Y029331
X042309Y030787
X043166Y028189
X045099Y029139
X038130Y028917
X037833Y028661
X036444Y027231
X032733Y026640
X032699Y030518
X034685Y030512
X035032Y030514
X036020Y022890
X035892Y019081
X028980Y019780
X028963Y022871
X029309Y025061
X030489Y026699
X029656Y028563
X029921Y028868
X017992Y030020
X019252Y024498
X016752Y021132
X016130Y019161
X028255Y017054
X015000Y018652
Y020787
X013218Y020266
X011586Y019161
X010974Y019314
X013650Y024882
X014852Y024986
X013387Y026762
X013134Y028989
X012073Y028868
X010970Y030108
X010732Y038194
X011026Y038746
X031053Y032421
X035128Y032490
X035404Y032746
X037833Y032224
X038150Y033022
X039442Y033396
X041673Y032951
Y034358
X041643Y037206
X043074Y037021
X044302
X044950Y036022
Y034531
X044980Y033381
X046505Y033412
X046489Y032483
X045862Y031520
X037298Y031490
X038323Y035072
X039009Y036022
X039442Y037925
X041104Y039330
X042847Y039068
X042362Y040744
Y042231
X046774Y040561
X047299Y041230
X047817Y041487
X048046Y041819
X048228Y042179
X048671Y040928
X048575Y040079
X048209Y040305
X049001Y039631
X049285Y039479
X049621Y039474
X049911Y039626
X050754Y040425
X051656Y039615
X052519
X053363Y039625
X051503Y042802
X051542Y043671
X051463Y046011
X049468Y042869
X047586Y038455
X046965Y035837
X048632Y036196
X049183
X049393Y035912
X048930Y035931
Y035609
X049603Y035612
X049990Y036109
X050391Y035812
X050750Y036022
X050677Y035505
X050887Y032734
X051203Y032903
X053556Y033057
X054420Y033179
Y033973
Y034481
X053940Y034737
X052435Y031400
X048341Y031416
X048902Y033927
X058780Y033917
X061405Y032816
X061621Y032296
X061061Y031863
X062244Y032903
X056762Y031870
X057364Y045929
X058341Y045924
X058469Y046563
X058555Y045238
X058683Y044851
X059374Y045458
X060614Y045327
X060609Y044851
X064335Y041848
Y041443
Y041028
Y040638
Y040268
X065239Y040174
X065585Y040358
X065851Y040173
X066300Y040202
X066624Y039706
X067074Y039707
X067448Y039724
X067785Y039726
X068092Y039048
X067882Y038509
X067585Y038748
X067305Y039028
X066785Y039386
Y037201
X067052Y037448
X068109
X068415Y037468
X068503Y038299
X068799Y038063
X068923Y039746
X068355Y040358
X068674Y040786
X072724Y041111
Y041591
X071991Y041969
X072972Y045056
X073225Y046171
X072395
X070180Y046291
X070095Y044634
X067725Y046291
X066609Y043670
X063959Y037969
X063645Y037448
X063392Y036848
X063215Y036366
X063500Y032371
X063695Y031982
X063961Y031675
X064766Y031903
X062605Y031821
X062895Y032278
X066801Y032120
X066789Y032816
X068039Y033295
X068948Y033294
X069073Y032162
X068162Y035539
X068146Y036261
X070180Y037214
X071918Y036536
X072029Y036149
X072139Y035848
X072245Y035494
X072379Y035151
X072526Y034737
X072695Y034375
X072904Y034038
X073072Y033711
X073268Y033366
X073415Y032991
X076988Y032266
Y031681
X076885Y031276
X076149Y037907
X075924Y038299
X075679Y038671
X072744Y037201
X080000Y038897
X080168Y039163
X081158Y038634
X082313Y036111
X082229Y035414
X082222Y034935
X082196Y034451
X081935Y034700
X081930Y035166
X081970Y035655
X081966Y034124
X082169Y033834
X082011Y033528
X082165Y033210
X082002Y032945
X083307Y036419
X086135Y037531
X086698Y038098
X088369Y040475
X087526Y041631
X086063Y042559
X084990
X084327
X083108Y045024
X080212Y044424
X079600Y044960
X079542Y048322
X079050Y050188
X079202Y050447
X078930Y050578
X079058Y050880
X079228Y051781
X078968Y052009
X078656Y052353
X078973Y052692
X079040Y053510
X078337Y053498
X080013Y053510
X080099Y052435
Y052071
X081479Y052525
X081575Y054360
X081901Y054239
X081142Y054183
X082613Y054355
X082259Y054709
X082604Y055845
X082360Y056371
X082192Y056986
X081757Y056961
X080451Y056718
X079146Y056659
X078985Y056998
X079210Y057326
X078681Y057643
X078974Y058132
X078995Y058526
X078769Y058783
X078746Y059414
X079183Y059598
X078973Y059899
X079219Y060271
X079551Y062060
X081220Y060836
X082452Y060568
X081774Y059399
X083665Y057426
X085108Y060305
X085410Y060781
X084361Y061200
X083356Y061696
Y062453
X087562Y057912
X088051Y056981
X085482Y050657
X085776Y050127
X085477Y049727
X085482Y049418
X086284Y049754
X083507Y049573
X083180Y050367
X083539Y050960
X082259Y048720
X082010Y048202
X081696Y047818
X082478Y047411
X081832Y049098
X079198Y055155
X079154Y055794
X078858Y056156
X076584Y057961
X076249Y057781
X077106Y059092
X077407Y060012
X077761Y060011
X077318Y062105
X075516Y062119
X074689
X075151Y061163
X074113Y061157
X073747Y060104
X072965Y061731
X072377Y061729
X070794Y060030
X071096Y059703
X070864Y058532
X070297Y057970
X070339Y057602
X069875Y057956
X069266Y058208
X068905Y057968
X068901Y058448
X068595Y058698
X068565Y057768
X067492Y057145
X068905Y056305
Y055885
Y055462
X069203Y055675
Y056069
X069685Y056317
X070413Y056313
X069429Y055462
X069500Y054454
X068883Y054516
X068875Y054063
X068538Y054297
X068616Y054831
X068523Y053560
X068527Y053103
X068952Y052927
X068925Y053336
X068928Y052457
X068684Y052656
X068633Y051978
X067296Y052268
X066517Y052180
X066445Y053778
X065077Y054998
X064576Y056591
X064389Y057023
X064922Y057042
X063614Y055999
X063569Y053423
X063725Y058884
X065914
X065862Y060018
X066857Y060006
X069189Y060042
X069029Y059788
X068898Y059418
X071594Y057798
X074153Y056856
X073648Y054678
X073071Y054219
X073523Y052893
Y052502
X074243Y052944
X074452Y053778
X074493Y052009
X075155
X076051
X076249Y049848
X076584Y049966
X074689Y049809
X074455Y050008
X073875Y049998
X073523Y050031
X074140Y049728
X074515Y049444
X076239Y048123
X070948Y049687
X069910Y050031
X069669Y049439
X069035
X068041Y048041
X067715Y047451
X067283Y047559
X066481Y049809
X064412Y061689
X063909Y062400
X062410Y062346
X062401Y061359
X060540Y058853
X060038Y058698
X060063Y058303
X060218Y057643
X060421Y057249
X059449Y056736
X058579Y057250
Y057961
X058654Y058313
X058629Y058698
X058256Y059090
X057939Y059310
X057189Y060412
X056604Y060246
X056010Y058293
X054087Y058262
X053917Y060837
X053071Y061844
X050942Y061862
X050919Y059213
X050903Y057613
X050866Y057250
X051059Y056989
X052339Y054334
X052175Y053917
X053071Y053169
Y052037
X052037Y052041
X051955Y050997
X051855Y049846
X050593Y049510
X051489Y047593
X055866Y047746
Y047313
X056275Y049349
X056624Y049309
X055965Y050039
Y050588
X056398Y051240
X056114Y052037
X057480Y052241
X059323
X059449Y050919
X059460Y050493
X059013Y050631
X060421Y050568
X060285Y050205
X059526Y049012
X059675Y047195
X060059Y052995
X058923Y053916
Y054297
X058899Y055097
X060395Y054717
X060415Y055525
X055066Y054380
X055276Y054094
X047813Y054752
X047343Y056016
X047506Y052945
X047170Y051680
X047386Y050206
X047398Y049878
X047586Y049034
X047589Y048719
X057687Y061752
X045953Y055654
X045949Y054852
X045929Y052940
X044803Y053201
X043875Y049610
X043876Y049303
X043186Y049850
X043200Y050156
X044872Y048720
Y048401
X045953Y049289
X045949Y049626
X038898Y062136
X037933Y062018
X037780Y062376
X038140Y062487
X037420Y061930
X033720Y062211
X027905Y061981
X028072Y061713
X027674Y062213
X027195
X026841Y062402
X012142Y062290
X010949Y047002
X012146Y063110
X011872Y063918
X013929Y063161
Y065879
X018737Y064648
X019739Y064469
X020233Y064454
X020738Y064464
X021229Y063370
X021736Y063354
X022235Y063380
X023233Y063383
X023731Y065345
X024843Y065039
X026319Y064744
X026063Y063504
X025690Y063810
X027421Y063504
X022221Y065603
X031748Y063738
X032252Y063714
X032739Y063776
X035738Y065241
X036235
X035133Y066463
X038327Y063667
X051151Y063740
X050866Y064026
X050994Y064390
X052037Y064232
X053071Y063740
X064428Y063818
X065908Y063450
X065410Y064716
X067254Y065169
X067748
X072382Y064312
X072969Y064312
X073747Y064918
X075078Y064082
X076410Y064564
X076786Y063829
X077265Y064303
X077206Y063057
X078049Y065832
X080276Y065827
X080086Y063553
Y063233
X081632Y063992
X083356Y064008
Y064744
Y063110
X086892Y064063
X086892Y065957
T02
X014400Y012000
X015600Y014400
X018000
X019200Y012000
X021600
X024000
X026400
X025200Y014400
X022800
X016800Y012000
X037200Y014400
X043200Y012000
X045600
X048000
X050400
X052800
X055200
X054000Y014400
X051600
X061200
X063600
X066000
X068400
X070800
X073200
X074400Y012000
X076800
X069600
X079200
Y016800
Y021600
Y026400
X076800
X074400
X066000Y024000
Y019200
X068400
X069600Y016800
X064800
X063600Y019200
X061200
X060000Y016800
X057600Y021600
Y026400
X054000Y028800
X052800Y031200
X050400
X051600Y024000
X050400Y021600
X049200Y019200
X050400Y016800
X048000
X060000Y031200
X045600
X044400Y028800
X043200Y026400
X040800
X039600Y028800
X037200
X036000Y026400
X033600
X032400Y024000
X033600Y021600
X036000
X037200Y024000
X039600
X040800Y021600
X043200
X044400Y024000
X046800
Y019200
X044400
X045600Y016800
X043200
X040800
X039600Y019200
X037200
X036000Y016800
X033600
X032400Y019200
X030000
X028800Y021600
X026400
X025200Y024000
X030000
X027600Y028800
X028800Y031200
X024000
X021600
X019200
X018000Y024000
X019200Y021600
X021600
X022800Y019200
X021600Y016800
X019200
X016800
X018000Y019200
X028800Y016800
X012000
X015600Y028800
X012000Y036000
Y045600
X031200
X030000Y043200
X031200Y040800
X030000Y038400
X031200Y036000
X027600Y033600
X025200
X022800
X020400
X034800
X038400Y036000
X040800
X039600Y038400
Y043200
X042000
X044400
X046800
X043200Y045600
X040800
X032400Y043200
Y038400
X046800Y033600
X054000Y038400
Y043200
X051600
X052800Y045600
X055200
X057600Y040800
X048000Y045600
X067200Y036000
X070800Y038400
X073200
X070800Y033600
X085200
X087600
X085200Y038400
Y043200
Y048000
X086400Y050400
X085200Y052800
X086400Y055200
X085200Y057600
X084000Y060000
X087600Y062400
X075275Y060088
X074825Y059908
X074575Y059632
X073200Y057600
X074400Y055200
Y050400
X071642Y049439
X070800Y048000
X068400
X070800Y052800
X067200Y060000
X056400Y057600
Y052800
X058800
X054000
Y048000
X049200Y052800
X050400Y060000
X048000
X049200Y062400
X046800
X044400
X042000
X039600
Y057600
X042000
X044400
X046800
X045600Y060000
X043200
Y055200
X044400Y052800
X042000
X039600
Y048000
X032400
Y052800
Y057600
X045600Y050400
X031200
X030000Y052800
X031200Y055200
X030000Y057600
X031200Y060000
X025200Y062400
X022800
X030000Y048000
X012000Y055200
X015600Y062400
X014400Y064800
X028800
X031200
X055200
X057600
X060000
X062400
X064800
X067200
X079200
T03
X086397Y059447
X086642Y059604
Y059919
Y060234
X086397Y060077
Y060392
Y060707
Y061022
X086642Y061179
Y060864
X086642Y061494
X086397Y061652
T04
X027331Y064290
X027831
X063114Y064918
X063614
X064114
T05
X086601Y058923
X088329Y058781
Y062317
X086601Y062175
T06
X084169Y052651
Y053651
Y054451
Y055451
T07
X010787Y012116
X049567Y012195
X075944Y012238
X029609Y035217
X058744
X029609Y064744
X016122Y064685
X058744Y064744
X087972Y064685
T08
X084869Y051451
Y056651
T09
X010470Y041902
X011970
X086911Y037535
X084902Y047362
X086108Y059101
X086109Y061994
X011972Y054697
X010472
T10
X086911Y035535
X084902Y044390
T11
X066780Y061991
X060540
X024100Y064016
X017860
M30
