G04*
G04 #@! TF.GenerationSoftware,Altium Limited,Altium Designer,20.1.8 (145)*
G04*
G04 Layer_Color=52428*
%FSAX24Y24*%
%MOIN*%
G70*
G04*
G04 #@! TF.SameCoordinates,7D9F505B-2EBF-4E8E-82AC-92A1240CC430*
G04*
G04*
G04 #@! TF.FilePolarity,Positive*
G04*
G01*
G75*
%ADD10C,0.0315*%
%ADD11C,0.0100*%
%ADD12C,0.0500*%
%ADD13C,0.0150*%
%ADD14C,0.0098*%
%ADD15C,0.0200*%
%ADD16C,0.0040*%
%ADD17C,0.0120*%
%ADD18C,0.0394*%
%ADD19C,0.0080*%
%ADD20C,0.0140*%
D10*
X016707Y064685D02*
G03*
X016707Y064685I-000585J000000D01*
G01*
X088557D02*
G03*
X088557Y064685I-000585J000000D01*
G01*
X076529Y012238D02*
G03*
X076529Y012238I-000585J000000D01*
G01*
X050152Y012195D02*
G03*
X050152Y012195I-000585J000000D01*
G01*
X011372Y012116D02*
G03*
X011372Y012116I-000585J000000D01*
G01*
X059329Y035217D02*
G03*
X059329Y035217I-000585J000000D01*
G01*
X030194D02*
G03*
X030194Y035217I-000585J000000D01*
G01*
X059329Y064744D02*
G03*
X059329Y064744I-000585J000000D01*
G01*
X030194D02*
G03*
X030194Y064744I-000585J000000D01*
G01*
D11*
X028770Y035226D02*
G03*
X029567Y034419I000802J-000005D01*
G01*
X029675Y065591D02*
G03*
X028770Y064872I-000093J-000812D01*
G01*
X059616Y064754D02*
G03*
X058750Y065591I-000851J-000015D01*
G01*
X058809Y034419D02*
G03*
X059616Y035236I-000005J000812D01*
G01*
X060754Y015083D02*
G03*
X060754Y014386I-001046J-000349D01*
G01*
X029567Y034419D02*
X058809D01*
X029675Y065591D02*
X058750D01*
X059616Y035236D02*
Y064754D01*
X028770Y035226D02*
Y064872D01*
X071618Y017531D02*
Y023531D01*
X070709D02*
X071618D01*
X070296Y017531D02*
X071618D01*
X069609Y023531D02*
X069609Y017531D01*
X061869D02*
X069432D01*
X062469Y023531D02*
X068918D01*
X069432Y017531D02*
X070296D01*
X068918Y023531D02*
X070709D01*
X061869D02*
X062469D01*
X061869Y017531D02*
Y023531D01*
X019983Y025500D02*
Y028050D01*
X017823Y025510D02*
Y028060D01*
X018508Y026781D02*
X019295D01*
X018902Y026387D02*
Y027175D01*
X016833Y028070D02*
X020973D01*
X016833Y025500D02*
Y028070D01*
Y025500D02*
X020973D01*
Y028070D01*
X019983Y021487D02*
Y024037D01*
X017823Y021497D02*
Y024047D01*
X018508Y022768D02*
X019295D01*
X018902Y022374D02*
Y023161D01*
X016833Y024057D02*
X020973D01*
X016833Y021487D02*
Y024057D01*
Y021487D02*
X020973D01*
Y024057D01*
X019983Y017467D02*
Y020017D01*
X017823Y017477D02*
Y020027D01*
X018508Y018748D02*
X019295D01*
X018902Y018354D02*
Y019142D01*
X016833Y020037D02*
X020973D01*
X016833Y017467D02*
Y020037D01*
Y017467D02*
X020973D01*
Y020037D01*
X019983Y013457D02*
Y016007D01*
X017823Y013467D02*
Y016017D01*
X018508Y014738D02*
X019295D01*
X018902Y014344D02*
Y015132D01*
X016833Y016027D02*
X020973D01*
X016833Y013457D02*
Y016027D01*
Y013457D02*
X020973D01*
Y016027D01*
X027190Y025500D02*
Y028050D01*
X025030Y025510D02*
Y028060D01*
X025715Y026781D02*
X026502D01*
X026108Y026387D02*
Y027175D01*
X024040Y028070D02*
X028180D01*
X024040Y025500D02*
Y028070D01*
Y025500D02*
X028180D01*
Y028070D01*
X027190Y021487D02*
Y024037D01*
X025030Y021497D02*
Y024047D01*
X025715Y022768D02*
X026502D01*
X026108Y022374D02*
Y023161D01*
X024040Y024057D02*
X028180D01*
X024040Y021487D02*
Y024057D01*
Y021487D02*
X028180D01*
Y024057D01*
X027190Y017467D02*
Y020017D01*
X025030Y017477D02*
Y020027D01*
X025715Y018748D02*
X026502D01*
X026108Y018354D02*
Y019142D01*
X024040Y020037D02*
X028180D01*
X024040Y017467D02*
Y020037D01*
Y017467D02*
X028180D01*
Y020037D01*
X027190Y013457D02*
Y016007D01*
X025030Y013467D02*
Y016017D01*
X025715Y014738D02*
X026502D01*
X026108Y014344D02*
Y015132D01*
X024040Y016027D02*
X028180D01*
X024040Y013457D02*
Y016027D01*
Y013457D02*
X028180D01*
Y016027D01*
X034394Y025500D02*
Y028050D01*
X032234Y025510D02*
Y028060D01*
X032919Y026781D02*
X033707D01*
X033313Y026387D02*
Y027175D01*
X031244Y028070D02*
X035384D01*
X031244Y025500D02*
Y028070D01*
Y025500D02*
X035384D01*
Y028070D01*
X041599Y025500D02*
Y028050D01*
X039439Y025510D02*
Y028060D01*
X040124Y026781D02*
X040911D01*
X040518Y026387D02*
Y027175D01*
X038449Y028070D02*
X042589D01*
X038449Y025500D02*
Y028070D01*
Y025500D02*
X042589D01*
Y028070D01*
X048804Y025500D02*
Y028050D01*
X046644Y025510D02*
Y028060D01*
X047329Y026781D02*
X048116D01*
X047722Y026387D02*
Y027175D01*
X045654Y028070D02*
X049794D01*
X045654Y025500D02*
Y028070D01*
Y025500D02*
X049794D01*
Y028070D01*
X056009Y025500D02*
Y028050D01*
X053849Y025510D02*
Y028060D01*
X054533Y026781D02*
X055321D01*
X054927Y026387D02*
Y027175D01*
X052859Y028070D02*
X056999D01*
X052859Y025500D02*
Y028070D01*
Y025500D02*
X056999D01*
Y028070D01*
X034394Y021487D02*
Y024037D01*
X032234Y021497D02*
Y024047D01*
X032919Y022768D02*
X033707D01*
X033313Y022374D02*
Y023161D01*
X031244Y024057D02*
X035384D01*
X031244Y021487D02*
Y024057D01*
Y021487D02*
X035384D01*
Y024057D01*
X041599Y021487D02*
Y024037D01*
X039439Y021497D02*
Y024047D01*
X040124Y022768D02*
X040911D01*
X040518Y022374D02*
Y023161D01*
X038449Y024057D02*
X042589D01*
X038449Y021487D02*
Y024057D01*
Y021487D02*
X042589D01*
Y024057D01*
X048804Y021487D02*
Y024037D01*
X046644Y021497D02*
Y024047D01*
X047329Y022768D02*
X048116D01*
X047722Y022374D02*
Y023161D01*
X045654Y024057D02*
X049794D01*
X045654Y021487D02*
Y024057D01*
Y021487D02*
X049794D01*
Y024057D01*
X056009Y021487D02*
Y024037D01*
X053849Y021497D02*
Y024047D01*
X054533Y022768D02*
X055321D01*
X054927Y022374D02*
Y023161D01*
X052859Y024057D02*
X056999D01*
X052859Y021487D02*
Y024057D01*
Y021487D02*
X056999D01*
Y024057D01*
X034394Y017467D02*
Y020017D01*
X032234Y017477D02*
Y020027D01*
X032919Y018748D02*
X033707D01*
X033313Y018354D02*
Y019142D01*
X031244Y020037D02*
X035384D01*
X031244Y017467D02*
Y020037D01*
Y017467D02*
X035384D01*
Y020037D01*
X041599Y017467D02*
Y020017D01*
X039439Y017477D02*
Y020027D01*
X040124Y018748D02*
X040911D01*
X040518Y018354D02*
Y019142D01*
X038449Y020037D02*
X042589D01*
X038449Y017467D02*
Y020037D01*
Y017467D02*
X042589D01*
Y020037D01*
X048804Y015451D02*
Y018001D01*
X046644Y015461D02*
Y018011D01*
X047329Y016732D02*
X048116D01*
X047722Y016339D02*
Y017126D01*
X045654Y018021D02*
X049794D01*
X045654Y015451D02*
Y018021D01*
Y015451D02*
X049794D01*
Y018021D01*
X056009Y017467D02*
Y020017D01*
X053849Y017477D02*
Y020027D01*
X054533Y018748D02*
X055321D01*
X054927Y018354D02*
Y019142D01*
X052859Y020037D02*
X056999D01*
X052859Y017467D02*
Y020037D01*
Y017467D02*
X056999D01*
Y020037D01*
X034394Y013457D02*
Y016007D01*
X032234Y013467D02*
Y016017D01*
X032919Y014738D02*
X033707D01*
X033313Y014344D02*
Y015132D01*
X031244Y016027D02*
X035384D01*
X031244Y013457D02*
Y016027D01*
Y013457D02*
X035384D01*
Y016027D01*
X041599Y013457D02*
Y016007D01*
X039439Y013467D02*
Y016017D01*
X040124Y014738D02*
X040911D01*
X040518Y014344D02*
Y015132D01*
X038449Y016027D02*
X042589D01*
X038449Y013457D02*
Y016027D01*
Y013457D02*
X042589D01*
Y016027D01*
X056009Y013457D02*
Y016007D01*
X053849Y013467D02*
Y016017D01*
X054533Y014738D02*
X055321D01*
X054927Y014344D02*
Y015132D01*
X052859Y016027D02*
X056999D01*
X052859Y013457D02*
Y016027D01*
Y013457D02*
X056999D01*
Y016027D01*
D12*
X067200Y017180D02*
G03*
X079933Y013056I008155J003460D01*
G01*
X079887Y028241D02*
G03*
X067114Y023879I-004533J-007611D01*
G01*
D13*
X084282Y034577D02*
G03*
X085690Y036024I-000019J001428D01*
G01*
X085679Y060118D02*
G03*
X084813Y061020I-000884J000018D01*
G01*
X011181Y013081D02*
G03*
X012244Y011967I001063J-000049D01*
G01*
X012106Y029681D02*
G03*
X011170Y028745I000000J-000936D01*
G01*
X062367Y028591D02*
G03*
X061358Y029682I-001003J000084D01*
G01*
X061238Y011966D02*
G03*
X062369Y013097I000000J001131D01*
G01*
Y013071D02*
Y017333D01*
X036247Y034580D02*
X084275D01*
X036130Y034697D02*
X036247Y034580D01*
X036215Y061020D02*
X084795D01*
X036130Y060935D02*
X036215Y061020D01*
X085690Y035995D02*
Y060136D01*
X012244Y011968D02*
X061238Y011968D01*
X012106Y029685D02*
X061363D01*
X011171Y013081D02*
X011171Y028760D01*
X062369Y023720D02*
Y028593D01*
D14*
X060887Y014734D02*
G03*
X060887Y014734I-000029J000000D01*
G01*
D15*
X081441Y061226D02*
X085652D01*
X085652Y066299D01*
X081441Y061226D02*
Y066299D01*
X085652D01*
X069668Y022331D02*
X071368D01*
X070368Y021781D02*
X071368D01*
X070368Y021031D02*
X071368D01*
X070368Y020031D02*
X071368D01*
X070368Y019081D02*
X071368D01*
X070368Y018031D02*
X071368D01*
Y021781D02*
Y023031D01*
Y018581D02*
Y019081D01*
Y018031D02*
Y018781D01*
X069668Y023031D02*
X071368D01*
X070368Y019081D02*
Y020031D01*
X071368D02*
Y021031D01*
X070368D02*
Y021781D01*
D16*
X011212Y053327D02*
Y053527D01*
X011112Y053427D02*
X011312D01*
X021593Y062766D02*
Y062966D01*
X021493Y062866D02*
X021693D01*
D17*
X010110Y053535D02*
X011104D01*
X010110D02*
Y054285D01*
X011110Y053535D02*
Y054285D01*
Y055135D02*
Y055885D01*
X010110Y055135D02*
Y055885D01*
X011110D01*
X019134Y061764D02*
Y062764D01*
Y061764D02*
X019884D01*
X019134Y062764D02*
X019884D01*
X020734D02*
X021484D01*
X020734Y061764D02*
X021484D01*
Y062757D01*
D18*
X010364Y066703D02*
X088300Y066732D01*
X010669Y010709D02*
X079803Y010728D01*
D19*
X081711Y062589D02*
Y062269D01*
X081871D01*
X081924Y062322D01*
Y062375D01*
X081871Y062429D01*
X081711D01*
X081871D01*
X081924Y062482D01*
Y062535D01*
X081871Y062589D01*
X081711D01*
X082191D02*
X082084D01*
X082031Y062535D01*
Y062322D01*
X082084Y062269D01*
X082191D01*
X082244Y062322D01*
Y062535D01*
X082191Y062589D01*
X082511D02*
X082404D01*
X082351Y062535D01*
Y062322D01*
X082404Y062269D01*
X082511D01*
X082564Y062322D01*
Y062535D01*
X082511Y062589D01*
X082671D02*
X082884D01*
X082777D01*
Y062269D01*
X082991Y062535D02*
X083044Y062589D01*
X083151D01*
X083204Y062535D01*
Y062322D01*
X083151Y062269D01*
X083044D01*
X082991Y062322D01*
Y062535D01*
X081770Y063009D02*
Y063329D01*
X081983Y063009D01*
Y063329D01*
X082090Y063009D02*
Y063329D01*
X082250D01*
X082303Y063276D01*
Y063169D01*
X082250Y063116D01*
X082090D01*
X082196D02*
X082303Y063009D01*
X082623Y063276D02*
X082570Y063329D01*
X082463D01*
X082410Y063276D01*
Y063223D01*
X082463Y063169D01*
X082570D01*
X082623Y063116D01*
Y063063D01*
X082570Y063009D01*
X082463D01*
X082410Y063063D01*
X082730Y063329D02*
X082943D01*
X082836D01*
Y063009D01*
X081910Y061798D02*
X081857Y061851D01*
X081751D01*
X081697Y061798D01*
Y061745D01*
X081751Y061691D01*
X081857D01*
X081910Y061638D01*
Y061585D01*
X081857Y061531D01*
X081751D01*
X081697Y061585D01*
X082017Y061851D02*
Y061531D01*
X082124Y061638D01*
X082230Y061531D01*
Y061851D01*
X082550Y061798D02*
X082497Y061851D01*
X082390D01*
X082337Y061798D01*
Y061585D01*
X082390Y061531D01*
X082497D01*
X082550Y061585D01*
X082657Y061851D02*
Y061531D01*
X082870D01*
X082977Y061851D02*
Y061531D01*
Y061638D01*
X083190Y061851D01*
X083030Y061691D01*
X083190Y061531D01*
X081886Y064858D02*
X081833Y064911D01*
X081726D01*
X081673Y064858D01*
Y064805D01*
X081726Y064751D01*
X081833D01*
X081886Y064698D01*
Y064645D01*
X081833Y064591D01*
X081726D01*
X081673Y064645D01*
X081993Y064911D02*
Y064591D01*
X082100Y064698D01*
X082206Y064591D01*
Y064911D01*
X082313D02*
Y064591D01*
X082473D01*
X082526Y064645D01*
Y064858D01*
X082473Y064911D01*
X082313D01*
X082633D02*
X082739D01*
X082686D01*
Y064591D01*
X082633D01*
X082739D01*
X083059Y064911D02*
X082953D01*
X082899Y064858D01*
Y064645D01*
X082953Y064591D01*
X083059D01*
X083113Y064645D01*
Y064858D01*
X083059Y064911D01*
X081735Y064146D02*
X081949D01*
X081842D01*
Y063826D01*
X082055Y064146D02*
X082268Y063826D01*
Y064146D02*
X082055Y063826D01*
X082307Y065246D02*
X082414D01*
X082467Y065299D01*
Y065406D01*
X082414Y065459D01*
X082307D01*
X082254Y065406D01*
Y065299D01*
X082307Y065246D01*
X082574Y065139D02*
Y065459D01*
X082734D01*
X082787Y065406D01*
Y065299D01*
X082734Y065246D01*
X082574D01*
X082947Y065513D02*
Y065459D01*
X082894D01*
X083000D01*
X082947D01*
Y065299D01*
X083000Y065246D01*
X083160D02*
X083267D01*
X083214D01*
Y065459D01*
X083160D01*
X083480Y065246D02*
X083587D01*
X083640Y065299D01*
Y065406D01*
X083587Y065459D01*
X083480D01*
X083427Y065406D01*
Y065299D01*
X083480Y065246D01*
X083747D02*
Y065459D01*
X083907D01*
X083960Y065406D01*
Y065246D01*
X084067D02*
X084227D01*
X084280Y065299D01*
X084227Y065353D01*
X084120D01*
X084067Y065406D01*
X084120Y065459D01*
X084280D01*
X082172Y065985D02*
X082119Y066038D01*
X082012D01*
X081959Y065985D01*
Y065772D01*
X082012Y065718D01*
X082119D01*
X082172Y065772D01*
X082279Y065718D02*
Y066038D01*
X082439D01*
X082492Y065985D01*
Y065878D01*
X082439Y065825D01*
X082279D01*
X082598Y066038D02*
Y065772D01*
X082652Y065718D01*
X082758D01*
X082812Y065772D01*
Y066038D01*
X083452D02*
Y065718D01*
X083292D01*
X083238Y065772D01*
Y065878D01*
X083292Y065932D01*
X083452D01*
X083718Y065718D02*
X083611D01*
X083558Y065772D01*
Y065878D01*
X083611Y065932D01*
X083718D01*
X083771Y065878D01*
Y065825D01*
X083558D01*
X083878Y066038D02*
Y065718D01*
X084038D01*
X084091Y065772D01*
Y065825D01*
Y065878D01*
X084038Y065932D01*
X083878D01*
X084198D02*
Y065772D01*
X084251Y065718D01*
X084411D01*
Y065932D01*
X084624Y065612D02*
X084678D01*
X084731Y065665D01*
Y065932D01*
X084571D01*
X084518Y065878D01*
Y065772D01*
X084571Y065718D01*
X084731D01*
X025190Y028240D02*
X025297D01*
X025243D01*
Y028560D01*
X025190Y028507D01*
X025563Y028240D02*
X025457Y028347D01*
Y028453D01*
X025563Y028560D01*
X025723Y028240D02*
X025830D01*
X025776D01*
Y028560D01*
X025723Y028507D01*
X026203Y028560D02*
X026096Y028507D01*
X025990Y028400D01*
Y028293D01*
X026043Y028240D01*
X026150D01*
X026203Y028293D01*
Y028347D01*
X026150Y028400D01*
X025990D01*
X026310Y028507D02*
X026363Y028560D01*
X026470D01*
X026523Y028507D01*
Y028293D01*
X026470Y028240D01*
X026363D01*
X026310Y028293D01*
Y028507D01*
X026630Y028240D02*
Y028453D01*
X026683D01*
X026736Y028400D01*
Y028240D01*
Y028400D01*
X026789Y028453D01*
X026843Y028400D01*
Y028240D01*
X026949D02*
X027056Y028347D01*
Y028453D01*
X026949Y028560D01*
X014723Y025926D02*
Y026245D01*
X014830Y026139D01*
X014937Y026245D01*
Y025926D01*
X015256Y026245D02*
X015043D01*
Y026085D01*
X015150Y026139D01*
X015203D01*
X015256Y026085D01*
Y025979D01*
X015203Y025926D01*
X015097D01*
X015043Y025979D01*
X015576Y025926D02*
X015363D01*
X015576Y026139D01*
Y026192D01*
X015523Y026245D01*
X015416D01*
X015363Y026192D01*
X081399Y056870D02*
X081079D01*
X081185Y056976D01*
X081079Y057083D01*
X081399D01*
Y057350D02*
X081079D01*
X081239Y057190D01*
Y057403D01*
X081132Y057510D02*
X081079Y057563D01*
Y057669D01*
X081132Y057723D01*
X081345D01*
X081399Y057669D01*
Y057563D01*
X081345Y057510D01*
X081132D01*
X084619Y062304D02*
Y062624D01*
X084726Y062517D01*
X084832Y062624D01*
Y062304D01*
X084939Y062570D02*
X084992Y062624D01*
X085099D01*
X085152Y062570D01*
Y062517D01*
X085099Y062464D01*
X085046D01*
X085099D01*
X085152Y062410D01*
Y062357D01*
X085099Y062304D01*
X084992D01*
X084939Y062357D01*
X085419Y062304D02*
X085312D01*
X085259Y062357D01*
Y062464D01*
X085312Y062517D01*
X085419D01*
X085472Y062464D01*
Y062410D01*
X085259D01*
X084620Y062994D02*
Y063314D01*
X084727Y063208D01*
X084834Y063314D01*
Y062994D01*
X084940Y063261D02*
X084994Y063314D01*
X085100D01*
X085154Y063261D01*
Y063208D01*
X085100Y063154D01*
X085047D01*
X085100D01*
X085154Y063101D01*
Y063048D01*
X085100Y062994D01*
X084994D01*
X084940Y063048D01*
X085473Y063314D02*
Y062994D01*
X085314D01*
X085260Y063048D01*
Y063154D01*
X085314Y063208D01*
X085473D01*
X084653Y061536D02*
Y061856D01*
X084759Y061749D01*
X084866Y061856D01*
Y061536D01*
X084973Y061802D02*
X085026Y061856D01*
X085133D01*
X085186Y061802D01*
Y061749D01*
X085133Y061696D01*
X085079D01*
X085133D01*
X085186Y061642D01*
Y061589D01*
X085133Y061536D01*
X085026D01*
X084973Y061589D01*
X084612Y064599D02*
Y064919D01*
X084719Y064812D01*
X084826Y064919D01*
Y064599D01*
X084932Y064866D02*
X084986Y064919D01*
X085092D01*
X085146Y064866D01*
Y064812D01*
X085092Y064759D01*
X085039D01*
X085092D01*
X085146Y064706D01*
Y064652D01*
X085092Y064599D01*
X084986D01*
X084932Y064652D01*
X085252Y064919D02*
Y064599D01*
X085412D01*
X085465Y064652D01*
Y064706D01*
Y064759D01*
X085412Y064812D01*
X085252D01*
X084611Y063831D02*
Y064151D01*
X084717Y064045D01*
X084824Y064151D01*
Y063831D01*
X084930Y064098D02*
X084984Y064151D01*
X085090D01*
X085144Y064098D01*
Y064045D01*
X085090Y063991D01*
X085037D01*
X085090D01*
X085144Y063938D01*
Y063885D01*
X085090Y063831D01*
X084984D01*
X084930Y063885D01*
X085304Y064045D02*
X085410D01*
X085464Y063991D01*
Y063831D01*
X085304D01*
X085250Y063885D01*
X085304Y063938D01*
X085464D01*
X014943Y019529D02*
Y019848D01*
X015049Y019742D01*
X015156Y019848D01*
Y019529D01*
X015476Y019848D02*
X015263D01*
Y019689D01*
X015369Y019742D01*
X015422D01*
X015476Y019689D01*
Y019582D01*
X015422Y019529D01*
X015316D01*
X015263Y019582D01*
X015582D02*
X015636Y019529D01*
X015742D01*
X015796Y019582D01*
Y019795D01*
X015742Y019848D01*
X015636D01*
X015582Y019795D01*
Y019742D01*
X015636Y019689D01*
X015796D01*
X057574Y055421D02*
Y055741D01*
X057681Y055634D01*
X057788Y055741D01*
Y055421D01*
X058054D02*
Y055741D01*
X057894Y055581D01*
X058108D01*
X058214Y055741D02*
X058428D01*
Y055687D01*
X058214Y055474D01*
Y055421D01*
X056149Y054220D02*
Y054540D01*
X056255Y054433D01*
X056362Y054540D01*
Y054220D01*
X056629D02*
Y054540D01*
X056469Y054380D01*
X056682D01*
X057002Y054540D02*
X056895Y054487D01*
X056789Y054380D01*
Y054273D01*
X056842Y054220D01*
X056949D01*
X057002Y054273D01*
Y054327D01*
X056949Y054380D01*
X056789D01*
X057565Y053618D02*
Y053938D01*
X057672Y053831D01*
X057779Y053938D01*
Y053618D01*
X058045D02*
Y053938D01*
X057885Y053778D01*
X058098D01*
X058418Y053938D02*
X058205D01*
Y053778D01*
X058312Y053831D01*
X058365D01*
X058418Y053778D01*
Y053671D01*
X058365Y053618D01*
X058258D01*
X058205Y053671D01*
X068828Y033631D02*
Y033951D01*
X068934Y033844D01*
X069041Y033951D01*
Y033631D01*
X069361Y033951D02*
X069147D01*
Y033791D01*
X069254Y033844D01*
X069307D01*
X069361Y033791D01*
Y033684D01*
X069307Y033631D01*
X069201D01*
X069147Y033684D01*
X069467Y033898D02*
X069521Y033951D01*
X069627D01*
X069681Y033898D01*
Y033684D01*
X069627Y033631D01*
X069521D01*
X069467Y033684D01*
Y033898D01*
X051060Y058147D02*
Y058467D01*
X051166Y058360D01*
X051273Y058467D01*
Y058147D01*
X051540D02*
Y058467D01*
X051380Y058307D01*
X051593D01*
X051913Y058147D02*
X051699D01*
X051913Y058360D01*
Y058414D01*
X051859Y058467D01*
X051753D01*
X051699Y058414D01*
X052324Y058157D02*
Y058477D01*
X052430Y058370D01*
X052537Y058477D01*
Y058157D01*
X052803D02*
Y058477D01*
X052644Y058317D01*
X052857D01*
X052963Y058157D02*
X053070D01*
X053017D01*
Y058477D01*
X052963Y058424D01*
X076265Y061452D02*
Y061772D01*
X076372Y061666D01*
X076478Y061772D01*
Y061452D01*
X076745D02*
Y061772D01*
X076585Y061612D01*
X076798D01*
X077065Y061452D02*
Y061772D01*
X076905Y061612D01*
X077118D01*
X081802Y050736D02*
Y051056D01*
X081909Y050949D01*
X082015Y051056D01*
Y050736D01*
X082335D02*
X082122D01*
X082335Y050949D01*
Y051003D01*
X082282Y051056D01*
X082175D01*
X082122Y051003D01*
X082442Y050790D02*
X082495Y050736D01*
X082602D01*
X082655Y050790D01*
Y051003D01*
X082602Y051056D01*
X082495D01*
X082442Y051003D01*
Y050949D01*
X082495Y050896D01*
X082655D01*
X083314Y051887D02*
Y052207D01*
X083420Y052101D01*
X083527Y052207D01*
Y051887D01*
X083847D02*
X083634D01*
X083847Y052101D01*
Y052154D01*
X083793Y052207D01*
X083687D01*
X083634Y052154D01*
X083953D02*
X084007Y052207D01*
X084113D01*
X084167Y052154D01*
Y052101D01*
X084113Y052047D01*
X084167Y051994D01*
Y051941D01*
X084113Y051887D01*
X084007D01*
X083953Y051941D01*
Y051994D01*
X084007Y052047D01*
X083953Y052101D01*
Y052154D01*
X084007Y052047D02*
X084113D01*
X079740Y052956D02*
Y053276D01*
X079846Y053169D01*
X079953Y053276D01*
Y052956D01*
X080273D02*
X080059D01*
X080273Y053169D01*
Y053223D01*
X080219Y053276D01*
X080113D01*
X080059Y053223D01*
X080539Y052956D02*
Y053276D01*
X080379Y053116D01*
X080593D01*
X060495Y027954D02*
Y028274D01*
X060601Y028168D01*
X060708Y028274D01*
Y027954D01*
X061028D02*
X060815D01*
X061028Y028168D01*
Y028221D01*
X060975Y028274D01*
X060868D01*
X060815Y028221D01*
X010217Y056430D02*
Y056110D01*
X010431D01*
X010537Y056430D02*
Y056110D01*
X010697D01*
X010750Y056163D01*
Y056376D01*
X010697Y056430D01*
X010537D01*
X010857Y056110D02*
X010964D01*
X010910D01*
Y056430D01*
X010857Y056376D01*
X063109Y017370D02*
Y017103D01*
X063163Y017050D01*
X063269D01*
X063323Y017103D01*
Y017370D01*
X063429Y017317D02*
X063483Y017370D01*
X063589D01*
X063643Y017317D01*
Y017263D01*
X063589Y017210D01*
X063536D01*
X063589D01*
X063643Y017157D01*
Y017103D01*
X063589Y017050D01*
X063483D01*
X063429Y017103D01*
X082573Y053629D02*
Y053949D01*
X082679Y053843D01*
X082786Y053949D01*
Y053629D01*
X082892D02*
X082999D01*
X082946D01*
Y053949D01*
X082892Y053896D01*
X083372Y053949D02*
X083159D01*
Y053789D01*
X083266Y053843D01*
X083319D01*
X083372Y053789D01*
Y053683D01*
X083319Y053629D01*
X083212D01*
X083159Y053683D01*
X058542Y059028D02*
Y059348D01*
X058649Y059242D01*
X058756Y059348D01*
Y059028D01*
X059075D02*
X058862D01*
X059075Y059242D01*
Y059295D01*
X059022Y059348D01*
X058916D01*
X058862Y059295D01*
X059395Y059348D02*
X059182D01*
Y059188D01*
X059289Y059242D01*
X059342D01*
X059395Y059188D01*
Y059082D01*
X059342Y059028D01*
X059235D01*
X059182Y059082D01*
X053931Y051072D02*
Y051392D01*
X054038Y051285D01*
X054144Y051392D01*
Y051072D01*
X054464D02*
X054251D01*
X054464Y051285D01*
Y051338D01*
X054411Y051392D01*
X054304D01*
X054251Y051338D01*
X054571D02*
X054624Y051392D01*
X054731D01*
X054784Y051338D01*
Y051285D01*
X054731Y051232D01*
X054678D01*
X054731D01*
X054784Y051178D01*
Y051125D01*
X054731Y051072D01*
X054624D01*
X054571Y051125D01*
X053660Y050312D02*
Y050632D01*
X053767Y050526D01*
X053873Y050632D01*
Y050312D01*
X054193D02*
X053980D01*
X054193Y050526D01*
Y050579D01*
X054140Y050632D01*
X054033D01*
X053980Y050579D01*
X054513Y050312D02*
X054300D01*
X054513Y050526D01*
Y050579D01*
X054460Y050632D01*
X054353D01*
X054300Y050579D01*
X056241Y045078D02*
Y045398D01*
X056348Y045291D01*
X056454Y045398D01*
Y045078D01*
X056774D02*
X056561D01*
X056774Y045291D01*
Y045344D01*
X056721Y045398D01*
X056614D01*
X056561Y045344D01*
X056881Y045078D02*
X056987D01*
X056934D01*
Y045398D01*
X056881Y045344D01*
X057753Y052557D02*
Y052876D01*
X057859Y052770D01*
X057966Y052876D01*
Y052557D01*
X058286D02*
X058073D01*
X058286Y052770D01*
Y052823D01*
X058232Y052876D01*
X058126D01*
X058073Y052823D01*
X058392Y052876D02*
X058606D01*
Y052823D01*
X058392Y052610D01*
Y052557D01*
X053936Y051879D02*
Y052199D01*
X054043Y052092D01*
X054149Y052199D01*
Y051879D01*
X054469D02*
X054256D01*
X054469Y052092D01*
Y052146D01*
X054416Y052199D01*
X054309D01*
X054256Y052146D01*
X054789Y052199D02*
X054682Y052146D01*
X054576Y052039D01*
Y051933D01*
X054629Y051879D01*
X054736D01*
X054789Y051933D01*
Y051986D01*
X054736Y052039D01*
X054576D01*
X057749Y051277D02*
Y051597D01*
X057855Y051490D01*
X057962Y051597D01*
Y051277D01*
X058282D02*
X058068D01*
X058282Y051490D01*
Y051543D01*
X058228Y051597D01*
X058122D01*
X058068Y051543D01*
X058388D02*
X058442Y051597D01*
X058548D01*
X058602Y051543D01*
Y051330D01*
X058548Y051277D01*
X058442D01*
X058388Y051330D01*
Y051543D01*
X058429Y049397D02*
Y049717D01*
X058535Y049610D01*
X058642Y049717D01*
Y049397D01*
X058749D02*
X058855D01*
X058802D01*
Y049717D01*
X058749Y049664D01*
X059015Y049450D02*
X059069Y049397D01*
X059175D01*
X059229Y049450D01*
Y049664D01*
X059175Y049717D01*
X059069D01*
X059015Y049664D01*
Y049610D01*
X059069Y049557D01*
X059229D01*
X056589Y050512D02*
Y050832D01*
X056695Y050726D01*
X056802Y050832D01*
Y050512D01*
X056909D02*
X057015D01*
X056962D01*
Y050832D01*
X056909Y050779D01*
X057175D02*
X057229Y050832D01*
X057335D01*
X057389Y050779D01*
Y050726D01*
X057335Y050672D01*
X057389Y050619D01*
Y050566D01*
X057335Y050512D01*
X057229D01*
X057175Y050566D01*
Y050619D01*
X057229Y050672D01*
X057175Y050726D01*
Y050779D01*
X057229Y050672D02*
X057335D01*
X058725Y047108D02*
Y047427D01*
X058832Y047321D01*
X058939Y047427D01*
Y047108D01*
X059045D02*
X059152D01*
X059099D01*
Y047427D01*
X059045Y047374D01*
X059312Y047427D02*
X059525D01*
Y047374D01*
X059312Y047161D01*
Y047108D01*
X056214Y046405D02*
Y046725D01*
X056321Y046618D01*
X056428Y046725D01*
Y046405D01*
X056534D02*
X056641D01*
X056588D01*
Y046725D01*
X056534Y046672D01*
X057014Y046725D02*
X056907Y046672D01*
X056801Y046565D01*
Y046458D01*
X056854Y046405D01*
X056961D01*
X057014Y046458D01*
Y046512D01*
X056961Y046565D01*
X056801D01*
X076562Y065542D02*
Y065862D01*
X076668Y065755D01*
X076775Y065862D01*
Y065542D01*
X076882Y065809D02*
X076935Y065862D01*
X077042D01*
X077095Y065809D01*
Y065755D01*
X077042Y065702D01*
X076988D01*
X077042D01*
X077095Y065649D01*
Y065595D01*
X077042Y065542D01*
X076935D01*
X076882Y065595D01*
X077202Y065809D02*
X077255Y065862D01*
X077362D01*
X077415Y065809D01*
Y065755D01*
X077362Y065702D01*
X077415Y065649D01*
Y065595D01*
X077362Y065542D01*
X077255D01*
X077202Y065595D01*
Y065649D01*
X077255Y065702D01*
X077202Y065755D01*
Y065809D01*
X077255Y065702D02*
X077362D01*
X072546Y043248D02*
Y043567D01*
X072652Y043461D01*
X072759Y043567D01*
Y043248D01*
X073025D02*
Y043567D01*
X072865Y043407D01*
X073079D01*
X073185Y043514D02*
X073239Y043567D01*
X073345D01*
X073399Y043514D01*
Y043461D01*
X073345Y043407D01*
X073292D01*
X073345D01*
X073399Y043354D01*
Y043301D01*
X073345Y043248D01*
X073239D01*
X073185Y043301D01*
X077723Y063978D02*
Y064297D01*
X077829Y064191D01*
X077936Y064297D01*
Y063978D01*
X078043Y064244D02*
X078096Y064297D01*
X078203D01*
X078256Y064244D01*
Y064191D01*
X078203Y064137D01*
X078149D01*
X078203D01*
X078256Y064084D01*
Y064031D01*
X078203Y063978D01*
X078096D01*
X078043Y064031D01*
X078363D02*
X078416Y063978D01*
X078522D01*
X078576Y064031D01*
Y064244D01*
X078522Y064297D01*
X078416D01*
X078363Y064244D01*
Y064191D01*
X078416Y064137D01*
X078576D01*
X075987Y063436D02*
X075667D01*
X075773Y063543D01*
X075667Y063649D01*
X075987D01*
X075720Y063756D02*
X075667Y063809D01*
Y063916D01*
X075720Y063969D01*
X075773D01*
X075827Y063916D01*
Y063863D01*
Y063916D01*
X075880Y063969D01*
X075933D01*
X075987Y063916D01*
Y063809D01*
X075933Y063756D01*
X075987Y064236D02*
X075667D01*
X075827Y064076D01*
Y064289D01*
X080378Y051816D02*
Y052136D01*
X080485Y052029D01*
X080592Y052136D01*
Y051816D01*
X080698D02*
X080805D01*
X080752D01*
Y052136D01*
X080698Y052083D01*
X081125Y051816D02*
Y052136D01*
X080965Y051976D01*
X081178D01*
X088221Y054716D02*
X087902D01*
X088008Y054822D01*
X087902Y054929D01*
X088221D01*
Y055196D02*
X087902D01*
X088062Y055036D01*
Y055249D01*
X023623Y027757D02*
X023570Y027810D01*
X023463D01*
X023410Y027757D01*
Y027703D01*
X023463Y027650D01*
X023570D01*
X023623Y027597D01*
Y027543D01*
X023570Y027490D01*
X023463D01*
X023410Y027543D01*
X023730Y027490D02*
X023837D01*
X023783D01*
Y027810D01*
X023730Y027757D01*
X016293Y027687D02*
X016240Y027740D01*
X016133D01*
X016080Y027687D01*
Y027633D01*
X016133Y027580D01*
X016240D01*
X016293Y027527D01*
Y027473D01*
X016240Y027420D01*
X016133D01*
X016080Y027473D01*
X016400Y027687D02*
X016453Y027740D01*
X016560D01*
X016613Y027687D01*
Y027473D01*
X016560Y027420D01*
X016453D01*
X016400Y027473D01*
Y027687D01*
X017243Y028527D02*
X017190Y028580D01*
X017083D01*
X017030Y028527D01*
Y028473D01*
X017083Y028420D01*
X017190D01*
X017243Y028367D01*
Y028313D01*
X017190Y028260D01*
X017083D01*
X017030Y028313D01*
X017563Y028527D02*
X017510Y028580D01*
X017403D01*
X017350Y028527D01*
Y028473D01*
X017403Y028420D01*
X017510D01*
X017563Y028367D01*
Y028313D01*
X017510Y028260D01*
X017403D01*
X017350Y028313D01*
X017670Y028580D02*
Y028260D01*
X017830D01*
X017883Y028313D01*
Y028367D01*
X017830Y028420D01*
X017670D01*
X017830D01*
X017883Y028473D01*
Y028527D01*
X017830Y028580D01*
X017670D01*
X018096Y028260D02*
X017990Y028367D01*
Y028473D01*
X018096Y028580D01*
X018256D02*
Y028260D01*
X018470D01*
X018789Y028527D02*
X018736Y028580D01*
X018629D01*
X018576Y028527D01*
Y028473D01*
X018629Y028420D01*
X018736D01*
X018789Y028367D01*
Y028313D01*
X018736Y028260D01*
X018629D01*
X018576Y028313D01*
X018896Y028580D02*
Y028260D01*
X019056D01*
X019109Y028313D01*
Y028367D01*
X019056Y028420D01*
X018896D01*
X019056D01*
X019109Y028473D01*
Y028527D01*
X019056Y028580D01*
X018896D01*
X019216Y028260D02*
X019429Y028473D01*
X019536Y028580D02*
Y028313D01*
X019589Y028260D01*
X019696D01*
X019749Y028313D01*
Y028580D01*
X020069Y028527D02*
X020016Y028580D01*
X019909D01*
X019856Y028527D01*
Y028473D01*
X019909Y028420D01*
X020016D01*
X020069Y028367D01*
Y028313D01*
X020016Y028260D01*
X019909D01*
X019856Y028313D01*
X020176Y028580D02*
Y028260D01*
X020336D01*
X020389Y028313D01*
Y028367D01*
X020336Y028420D01*
X020176D01*
X020336D01*
X020389Y028473D01*
Y028527D01*
X020336Y028580D01*
X020176D01*
X020496Y028260D02*
X020602Y028367D01*
Y028473D01*
X020496Y028580D01*
X030703Y027756D02*
X030650Y027810D01*
X030543D01*
X030490Y027756D01*
Y027703D01*
X030543Y027650D01*
X030650D01*
X030703Y027596D01*
Y027543D01*
X030650Y027490D01*
X030543D01*
X030490Y027543D01*
X031023Y027490D02*
X030810D01*
X031023Y027703D01*
Y027756D01*
X030970Y027810D01*
X030863D01*
X030810Y027756D01*
X032923Y028400D02*
X032710D01*
X032923Y028613D01*
Y028667D01*
X032870Y028720D01*
X032763D01*
X032710Y028667D01*
X033137Y028400D02*
X033030Y028507D01*
Y028613D01*
X033137Y028720D01*
X033296Y028667D02*
X033350Y028720D01*
X033456D01*
X033510Y028667D01*
Y028613D01*
X033456Y028560D01*
X033510Y028507D01*
Y028453D01*
X033456Y028400D01*
X033350D01*
X033296Y028453D01*
Y028507D01*
X033350Y028560D01*
X033296Y028613D01*
Y028667D01*
X033350Y028560D02*
X033456D01*
X033616Y028667D02*
X033670Y028720D01*
X033776D01*
X033830Y028667D01*
Y028453D01*
X033776Y028400D01*
X033670D01*
X033616Y028453D01*
Y028667D01*
X033936Y028400D02*
Y028613D01*
X033990D01*
X034043Y028560D01*
Y028400D01*
Y028560D01*
X034096Y028613D01*
X034150Y028560D01*
Y028400D01*
X034256D02*
X034363Y028507D01*
Y028613D01*
X034256Y028720D01*
X037983Y027707D02*
X037930Y027760D01*
X037823D01*
X037770Y027707D01*
Y027653D01*
X037823Y027600D01*
X037930D01*
X037983Y027547D01*
Y027493D01*
X037930Y027440D01*
X037823D01*
X037770Y027493D01*
X038090Y027707D02*
X038143Y027760D01*
X038250D01*
X038303Y027707D01*
Y027653D01*
X038250Y027600D01*
X038197D01*
X038250D01*
X038303Y027547D01*
Y027493D01*
X038250Y027440D01*
X038143D01*
X038090Y027493D01*
X039870Y028687D02*
X039923Y028740D01*
X040030D01*
X040083Y028687D01*
Y028633D01*
X040030Y028580D01*
X039977D01*
X040030D01*
X040083Y028527D01*
Y028473D01*
X040030Y028420D01*
X039923D01*
X039870Y028473D01*
X040297Y028420D02*
X040190Y028527D01*
Y028633D01*
X040297Y028740D01*
X040670D02*
X040563Y028687D01*
X040456Y028580D01*
Y028473D01*
X040510Y028420D01*
X040616D01*
X040670Y028473D01*
Y028527D01*
X040616Y028580D01*
X040456D01*
X040776Y028687D02*
X040830Y028740D01*
X040936D01*
X040990Y028687D01*
Y028473D01*
X040936Y028420D01*
X040830D01*
X040776Y028473D01*
Y028687D01*
X041096Y028420D02*
Y028633D01*
X041150D01*
X041203Y028580D01*
Y028420D01*
Y028580D01*
X041256Y028633D01*
X041310Y028580D01*
Y028420D01*
X041416D02*
X041523Y028527D01*
Y028633D01*
X041416Y028740D01*
X045223Y027717D02*
X045170Y027770D01*
X045063D01*
X045010Y027717D01*
Y027663D01*
X045063Y027610D01*
X045170D01*
X045223Y027557D01*
Y027503D01*
X045170Y027450D01*
X045063D01*
X045010Y027503D01*
X045490Y027450D02*
Y027770D01*
X045330Y027610D01*
X045543D01*
X047130Y028400D02*
Y028720D01*
X047237Y028613D01*
X047343Y028720D01*
Y028400D01*
X047557D02*
X047450Y028507D01*
Y028613D01*
X047557Y028720D01*
X047876Y028400D02*
Y028720D01*
X047716Y028560D01*
X047930D01*
X048036Y028667D02*
X048090Y028720D01*
X048196D01*
X048250Y028667D01*
Y028453D01*
X048196Y028400D01*
X048090D01*
X048036Y028453D01*
Y028667D01*
X048356Y028400D02*
Y028613D01*
X048410D01*
X048463Y028560D01*
Y028400D01*
Y028560D01*
X048516Y028613D01*
X048570Y028560D01*
Y028400D01*
X048676D02*
X048783Y028507D01*
Y028613D01*
X048676Y028720D01*
X052393Y027657D02*
X052340Y027710D01*
X052233D01*
X052180Y027657D01*
Y027603D01*
X052233Y027550D01*
X052340D01*
X052393Y027497D01*
Y027443D01*
X052340Y027390D01*
X052233D01*
X052180Y027443D01*
X052713Y027710D02*
X052500D01*
Y027550D01*
X052607Y027603D01*
X052660D01*
X052713Y027550D01*
Y027443D01*
X052660Y027390D01*
X052553D01*
X052500Y027443D01*
X054550Y028720D02*
Y028400D01*
X054710D01*
X054763Y028453D01*
Y028667D01*
X054710Y028720D01*
X054550D01*
X055083Y028667D02*
X055030Y028720D01*
X054923D01*
X054870Y028667D01*
Y028613D01*
X054923Y028560D01*
X055030D01*
X055083Y028507D01*
Y028453D01*
X055030Y028400D01*
X054923D01*
X054870Y028453D01*
X055190Y028400D02*
Y028720D01*
X055350D01*
X055403Y028667D01*
Y028560D01*
X055350Y028507D01*
X055190D01*
X023483Y023743D02*
X023430Y023796D01*
X023323D01*
X023270Y023743D01*
Y023690D01*
X023323Y023636D01*
X023430D01*
X023483Y023583D01*
Y023530D01*
X023430Y023476D01*
X023323D01*
X023270Y023530D01*
X023590Y023796D02*
X023803D01*
Y023743D01*
X023590Y023530D01*
Y023476D01*
X025440Y024300D02*
Y024620D01*
X025280Y024460D01*
X025493D01*
X025707Y024300D02*
X025600Y024407D01*
Y024513D01*
X025707Y024620D01*
X025866Y024567D02*
X025920Y024620D01*
X026026D01*
X026080Y024567D01*
Y024513D01*
X026026Y024460D01*
X025973D01*
X026026D01*
X026080Y024407D01*
Y024353D01*
X026026Y024300D01*
X025920D01*
X025866Y024353D01*
X026186Y024567D02*
X026240Y024620D01*
X026346D01*
X026400Y024567D01*
Y024353D01*
X026346Y024300D01*
X026240D01*
X026186Y024353D01*
Y024567D01*
X026506Y024300D02*
Y024513D01*
X026560D01*
X026613Y024460D01*
Y024300D01*
Y024460D01*
X026666Y024513D01*
X026720Y024460D01*
Y024300D01*
X026826D02*
X026933Y024407D01*
Y024513D01*
X026826Y024620D01*
X030713Y023737D02*
X030660Y023790D01*
X030553D01*
X030500Y023737D01*
Y023683D01*
X030553Y023630D01*
X030660D01*
X030713Y023577D01*
Y023523D01*
X030660Y023470D01*
X030553D01*
X030500Y023523D01*
X030820Y023737D02*
X030873Y023790D01*
X030980D01*
X031033Y023737D01*
Y023683D01*
X030980Y023630D01*
X031033Y023577D01*
Y023523D01*
X030980Y023470D01*
X030873D01*
X030820Y023523D01*
Y023577D01*
X030873Y023630D01*
X030820Y023683D01*
Y023737D01*
X030873Y023630D02*
X030980D01*
X032853Y024750D02*
X032640D01*
Y024590D01*
X032747Y024643D01*
X032800D01*
X032853Y024590D01*
Y024483D01*
X032800Y024430D01*
X032693D01*
X032640Y024483D01*
X033067Y024430D02*
X032960Y024537D01*
Y024643D01*
X033067Y024750D01*
X033440Y024430D02*
X033226D01*
X033440Y024643D01*
Y024697D01*
X033386Y024750D01*
X033280D01*
X033226Y024697D01*
X033546D02*
X033600Y024750D01*
X033706D01*
X033760Y024697D01*
Y024483D01*
X033706Y024430D01*
X033600D01*
X033546Y024483D01*
Y024697D01*
X033866Y024430D02*
Y024643D01*
X033920D01*
X033973Y024590D01*
Y024430D01*
Y024590D01*
X034026Y024643D01*
X034080Y024590D01*
Y024430D01*
X034186D02*
X034293Y024537D01*
Y024643D01*
X034186Y024750D01*
X037943Y023717D02*
X037890Y023770D01*
X037783D01*
X037730Y023717D01*
Y023663D01*
X037783Y023610D01*
X037890D01*
X037943Y023557D01*
Y023503D01*
X037890Y023450D01*
X037783D01*
X037730Y023503D01*
X038050D02*
X038103Y023450D01*
X038210D01*
X038263Y023503D01*
Y023717D01*
X038210Y023770D01*
X038103D01*
X038050Y023717D01*
Y023663D01*
X038103Y023610D01*
X038263D01*
X040113Y024720D02*
X040007Y024667D01*
X039900Y024560D01*
Y024453D01*
X039953Y024400D01*
X040060D01*
X040113Y024453D01*
Y024507D01*
X040060Y024560D01*
X039900D01*
X040327Y024400D02*
X040220Y024507D01*
Y024613D01*
X040327Y024720D01*
X040486Y024400D02*
X040593D01*
X040540D01*
Y024720D01*
X040486Y024667D01*
X040753Y024720D02*
X040966D01*
Y024667D01*
X040753Y024453D01*
Y024400D01*
X041073D02*
Y024613D01*
X041126D01*
X041180Y024560D01*
Y024400D01*
Y024560D01*
X041233Y024613D01*
X041286Y024560D01*
Y024400D01*
X041393D02*
X041499Y024507D01*
Y024613D01*
X041393Y024720D01*
X044903Y023657D02*
X044850Y023710D01*
X044743D01*
X044690Y023657D01*
Y023603D01*
X044743Y023550D01*
X044850D01*
X044903Y023497D01*
Y023443D01*
X044850Y023390D01*
X044743D01*
X044690Y023443D01*
X045010Y023390D02*
X045117D01*
X045063D01*
Y023710D01*
X045010Y023657D01*
X045276D02*
X045330Y023710D01*
X045436D01*
X045490Y023657D01*
Y023443D01*
X045436Y023390D01*
X045330D01*
X045276Y023443D01*
Y023657D01*
X047263Y024647D02*
X047210Y024700D01*
X047103D01*
X047050Y024647D01*
Y024593D01*
X047103Y024540D01*
X047210D01*
X047263Y024487D01*
Y024433D01*
X047210Y024380D01*
X047103D01*
X047050Y024433D01*
X047477Y024380D02*
X047370Y024487D01*
Y024593D01*
X047477Y024700D01*
X047636Y024380D02*
X047743D01*
X047690D01*
Y024700D01*
X047636Y024647D01*
X048116Y024700D02*
X047903D01*
Y024540D01*
X048010Y024593D01*
X048063D01*
X048116Y024540D01*
Y024433D01*
X048063Y024380D01*
X047956D01*
X047903Y024433D01*
X048223Y024380D02*
Y024593D01*
X048276D01*
X048330Y024540D01*
Y024380D01*
Y024540D01*
X048383Y024593D01*
X048436Y024540D01*
Y024380D01*
X048543D02*
X048649Y024487D01*
Y024593D01*
X048543Y024700D01*
X052233Y023617D02*
X052180Y023670D01*
X052073D01*
X052020Y023617D01*
Y023563D01*
X052073Y023510D01*
X052180D01*
X052233Y023457D01*
Y023403D01*
X052180Y023350D01*
X052073D01*
X052020Y023403D01*
X052340Y023350D02*
X052447D01*
X052393D01*
Y023670D01*
X052340Y023617D01*
X052606Y023350D02*
X052713D01*
X052660D01*
Y023670D01*
X052606Y023617D01*
X054693Y024657D02*
X054640Y024710D01*
X054533D01*
X054480Y024657D01*
Y024603D01*
X054533Y024550D01*
X054640D01*
X054693Y024497D01*
Y024443D01*
X054640Y024390D01*
X054533D01*
X054480Y024443D01*
X054800Y024710D02*
X055013D01*
X054907D01*
Y024390D01*
X055333Y024710D02*
X055120D01*
Y024390D01*
X055333D01*
X055120Y024550D02*
X055226D01*
X055440Y024390D02*
Y024710D01*
X055600D01*
X055653Y024657D01*
Y024550D01*
X055600Y024497D01*
X055440D01*
X016099Y017983D02*
X016046Y018036D01*
X015939D01*
X015886Y017983D01*
Y017930D01*
X015939Y017876D01*
X016046D01*
X016099Y017823D01*
Y017770D01*
X016046Y017717D01*
X015939D01*
X015886Y017770D01*
X016206Y017717D02*
X016312D01*
X016259D01*
Y018036D01*
X016206Y017983D01*
X016686Y017717D02*
X016472D01*
X016686Y017930D01*
Y017983D01*
X016632Y018036D01*
X016526D01*
X016472Y017983D01*
X017260Y020200D02*
Y020413D01*
X017367Y020520D01*
X017473Y020413D01*
Y020200D01*
Y020360D01*
X017260D01*
X017580Y020200D02*
Y020520D01*
X017687Y020413D01*
X017793Y020520D01*
Y020200D01*
X018006D02*
X017900Y020307D01*
Y020413D01*
X018006Y020520D01*
X018380D02*
X018166D01*
Y020360D01*
X018273D01*
X018166D01*
Y020200D01*
X018486D02*
Y020520D01*
X018593Y020413D01*
X018700Y020520D01*
Y020200D01*
X018806D02*
X019019Y020413D01*
X019126Y020520D02*
Y020200D01*
X019286D01*
X019339Y020253D01*
Y020467D01*
X019286Y020520D01*
X019126D01*
X019446D02*
X019553D01*
X019499D01*
Y020200D01*
X019446D01*
X019553D01*
X019926Y020467D02*
X019872Y020520D01*
X019766D01*
X019713Y020467D01*
Y020253D01*
X019766Y020200D01*
X019872D01*
X019926Y020253D01*
Y020360D01*
X019819D01*
X020032Y020520D02*
X020139D01*
X020086D01*
Y020200D01*
X020032D01*
X020139D01*
X020299D02*
X020406Y020307D01*
Y020413D01*
X020299Y020520D01*
X023283Y019637D02*
X023230Y019690D01*
X023123D01*
X023070Y019637D01*
Y019583D01*
X023123Y019530D01*
X023230D01*
X023283Y019477D01*
Y019423D01*
X023230Y019370D01*
X023123D01*
X023070Y019423D01*
X023390Y019370D02*
X023497D01*
X023443D01*
Y019690D01*
X023390Y019637D01*
X023656D02*
X023710Y019690D01*
X023816D01*
X023870Y019637D01*
Y019583D01*
X023816Y019530D01*
X023763D01*
X023816D01*
X023870Y019477D01*
Y019423D01*
X023816Y019370D01*
X023710D01*
X023656Y019423D01*
X025440Y020710D02*
X025653D01*
Y020657D01*
X025440Y020443D01*
Y020390D01*
X025867D02*
X025760Y020497D01*
Y020603D01*
X025867Y020710D01*
X026026Y020390D02*
X026133D01*
X026080D01*
Y020710D01*
X026026Y020657D01*
X026506Y020390D02*
X026293D01*
X026506Y020603D01*
Y020657D01*
X026453Y020710D01*
X026346D01*
X026293Y020657D01*
X026613Y020390D02*
Y020603D01*
X026666D01*
X026720Y020550D01*
Y020390D01*
Y020550D01*
X026773Y020603D01*
X026826Y020550D01*
Y020390D01*
X026933D02*
X027039Y020497D01*
Y020603D01*
X026933Y020710D01*
X030533Y019647D02*
X030480Y019700D01*
X030373D01*
X030320Y019647D01*
Y019593D01*
X030373Y019540D01*
X030480D01*
X030533Y019487D01*
Y019433D01*
X030480Y019380D01*
X030373D01*
X030320Y019433D01*
X030640Y019380D02*
X030747D01*
X030693D01*
Y019700D01*
X030640Y019647D01*
X031066Y019380D02*
Y019700D01*
X030906Y019540D01*
X031120D01*
X032630Y020627D02*
X032683Y020680D01*
X032790D01*
X032843Y020627D01*
Y020573D01*
X032790Y020520D01*
X032843Y020467D01*
Y020413D01*
X032790Y020360D01*
X032683D01*
X032630Y020413D01*
Y020467D01*
X032683Y020520D01*
X032630Y020573D01*
Y020627D01*
X032683Y020520D02*
X032790D01*
X033057Y020360D02*
X032950Y020467D01*
Y020573D01*
X033057Y020680D01*
X033216Y020360D02*
X033323D01*
X033270D01*
Y020680D01*
X033216Y020627D01*
X033483D02*
X033536Y020680D01*
X033643D01*
X033696Y020627D01*
Y020413D01*
X033643Y020360D01*
X033536D01*
X033483Y020413D01*
Y020627D01*
X033803Y020360D02*
Y020573D01*
X033856D01*
X033910Y020520D01*
Y020360D01*
Y020520D01*
X033963Y020573D01*
X034016Y020520D01*
Y020360D01*
X034123D02*
X034229Y020467D01*
Y020573D01*
X034123Y020680D01*
X037733Y019717D02*
X037680Y019770D01*
X037573D01*
X037520Y019717D01*
Y019663D01*
X037573Y019610D01*
X037680D01*
X037733Y019557D01*
Y019503D01*
X037680Y019450D01*
X037573D01*
X037520Y019503D01*
X037840Y019450D02*
X037947D01*
X037893D01*
Y019770D01*
X037840Y019717D01*
X038320Y019770D02*
X038106D01*
Y019610D01*
X038213Y019663D01*
X038266D01*
X038320Y019610D01*
Y019503D01*
X038266Y019450D01*
X038160D01*
X038106Y019503D01*
X040020Y020413D02*
X040073Y020360D01*
X040180D01*
X040233Y020413D01*
Y020627D01*
X040180Y020680D01*
X040073D01*
X040020Y020627D01*
Y020573D01*
X040073Y020520D01*
X040233D01*
X040447Y020360D02*
X040340Y020467D01*
Y020573D01*
X040447Y020680D01*
X040820D02*
X040713Y020627D01*
X040606Y020520D01*
Y020413D01*
X040660Y020360D01*
X040766D01*
X040820Y020413D01*
Y020467D01*
X040766Y020520D01*
X040606D01*
X040926Y020360D02*
Y020573D01*
X040980D01*
X041033Y020520D01*
Y020360D01*
Y020520D01*
X041086Y020573D01*
X041140Y020520D01*
Y020360D01*
X041246D02*
X041353Y020467D01*
Y020573D01*
X041246Y020680D01*
X044833Y017627D02*
X044780Y017680D01*
X044673D01*
X044620Y017627D01*
Y017573D01*
X044673Y017520D01*
X044780D01*
X044833Y017467D01*
Y017413D01*
X044780Y017360D01*
X044673D01*
X044620Y017413D01*
X044940Y017360D02*
X045047D01*
X044993D01*
Y017680D01*
X044940Y017627D01*
X045420Y017680D02*
X045313Y017627D01*
X045206Y017520D01*
Y017413D01*
X045260Y017360D01*
X045366D01*
X045420Y017413D01*
Y017467D01*
X045366Y017520D01*
X045206D01*
X047280Y014985D02*
X047067D01*
Y014665D01*
X047280D01*
X047067Y014825D02*
X047174D01*
X047387Y014665D02*
Y014985D01*
X047600Y014665D01*
Y014985D01*
X047707D02*
X047920D01*
X047813D01*
Y014665D01*
X048240Y014985D02*
X048027D01*
Y014665D01*
X048240D01*
X048027Y014825D02*
X048133D01*
X048347Y014665D02*
Y014985D01*
X048506D01*
X048560Y014932D01*
Y014825D01*
X048506Y014772D01*
X048347D01*
X048453D02*
X048560Y014665D01*
X052123Y019637D02*
X052070Y019690D01*
X051963D01*
X051910Y019637D01*
Y019583D01*
X051963Y019530D01*
X052070D01*
X052123Y019477D01*
Y019423D01*
X052070Y019370D01*
X051963D01*
X051910Y019423D01*
X052230Y019370D02*
X052337D01*
X052283D01*
Y019690D01*
X052230Y019637D01*
X052496Y019690D02*
X052710D01*
Y019637D01*
X052496Y019423D01*
Y019370D01*
X054353Y020690D02*
X054140D01*
Y020530D01*
X054247D01*
X054140D01*
Y020370D01*
X054460Y020690D02*
X054567D01*
X054513D01*
Y020370D01*
X054460D01*
X054567D01*
X054726Y020690D02*
Y020370D01*
X054940D01*
X055046Y020690D02*
X055260D01*
X055153D01*
Y020370D01*
X055580Y020690D02*
X055366D01*
Y020370D01*
X055580D01*
X055366Y020530D02*
X055473D01*
X055686Y020370D02*
Y020690D01*
X055846D01*
X055899Y020637D01*
Y020530D01*
X055846Y020477D01*
X055686D01*
X055793D02*
X055899Y020370D01*
X016051Y013958D02*
X015998Y014011D01*
X015891D01*
X015838Y013958D01*
Y013904D01*
X015891Y013851D01*
X015998D01*
X016051Y013798D01*
Y013744D01*
X015998Y013691D01*
X015891D01*
X015838Y013744D01*
X016158Y013691D02*
X016264D01*
X016211D01*
Y014011D01*
X016158Y013958D01*
X016424D02*
X016478Y014011D01*
X016584D01*
X016638Y013958D01*
Y013904D01*
X016584Y013851D01*
X016638Y013798D01*
Y013744D01*
X016584Y013691D01*
X016478D01*
X016424Y013744D01*
Y013798D01*
X016478Y013851D01*
X016424Y013904D01*
Y013958D01*
X016478Y013851D02*
X016584D01*
X017523Y016580D02*
X017310D01*
Y016420D01*
X017417D01*
X017310D01*
Y016260D01*
X017630Y016580D02*
X017737D01*
X017683D01*
Y016260D01*
X017630D01*
X017737D01*
X017896Y016580D02*
X018110Y016260D01*
Y016580D02*
X017896Y016260D01*
X018323D02*
X018216Y016367D01*
Y016473D01*
X018323Y016580D01*
X018696Y016527D02*
X018643Y016580D01*
X018536D01*
X018483Y016527D01*
Y016313D01*
X018536Y016260D01*
X018643D01*
X018696Y016313D01*
X019016Y016580D02*
X018803D01*
Y016260D01*
X019016D01*
X018803Y016420D02*
X018909D01*
X019123Y016260D02*
Y016580D01*
X019336Y016260D01*
Y016580D01*
X019443D02*
X019656D01*
X019549D01*
Y016260D01*
X019976Y016580D02*
X019763D01*
Y016260D01*
X019976D01*
X019763Y016420D02*
X019869D01*
X020082Y016260D02*
Y016580D01*
X020242D01*
X020296Y016527D01*
Y016420D01*
X020242Y016367D01*
X020082D01*
X020189D02*
X020296Y016260D01*
X020402D02*
X020509Y016367D01*
Y016473D01*
X020402Y016580D01*
X023293Y015697D02*
X023240Y015750D01*
X023133D01*
X023080Y015697D01*
Y015643D01*
X023133Y015590D01*
X023240D01*
X023293Y015537D01*
Y015483D01*
X023240Y015430D01*
X023133D01*
X023080Y015483D01*
X023400Y015430D02*
X023507D01*
X023453D01*
Y015750D01*
X023400Y015697D01*
X023666Y015483D02*
X023720Y015430D01*
X023826D01*
X023880Y015483D01*
Y015697D01*
X023826Y015750D01*
X023720D01*
X023666Y015697D01*
Y015643D01*
X023720Y015590D01*
X023880D01*
X025620Y016370D02*
Y016423D01*
X025673D01*
Y016370D01*
X025620D01*
X025993D02*
X025887Y016477D01*
Y016583D01*
X025993Y016690D01*
X026313Y016370D02*
Y016690D01*
X026153Y016530D01*
X026366D01*
X026473Y016370D02*
Y016583D01*
X026526D01*
X026580Y016530D01*
Y016370D01*
Y016530D01*
X026633Y016583D01*
X026686Y016530D01*
Y016370D01*
X026793D02*
X026900Y016477D01*
Y016583D01*
X026793Y016690D01*
X030443Y015637D02*
X030390Y015690D01*
X030283D01*
X030230Y015637D01*
Y015583D01*
X030283Y015530D01*
X030390D01*
X030443Y015477D01*
Y015423D01*
X030390Y015370D01*
X030283D01*
X030230Y015423D01*
X030763Y015370D02*
X030550D01*
X030763Y015583D01*
Y015637D01*
X030710Y015690D01*
X030603D01*
X030550Y015637D01*
X030870D02*
X030923Y015690D01*
X031030D01*
X031083Y015637D01*
Y015423D01*
X031030Y015370D01*
X030923D01*
X030870Y015423D01*
Y015637D01*
X032890Y016687D02*
X032943Y016740D01*
X033050D01*
X033103Y016687D01*
Y016473D01*
X033050Y016420D01*
X032943D01*
X032890Y016473D01*
Y016687D01*
X033317Y016420D02*
X033210Y016527D01*
Y016633D01*
X033317Y016740D01*
X033476D02*
Y016420D01*
X033690D01*
X034010Y016740D02*
X033796D01*
Y016580D01*
X033903D01*
X033796D01*
Y016420D01*
X034116D02*
X034223Y016527D01*
Y016633D01*
X034116Y016740D01*
X037783Y015657D02*
X037730Y015710D01*
X037623D01*
X037570Y015657D01*
Y015603D01*
X037623Y015550D01*
X037730D01*
X037783Y015497D01*
Y015443D01*
X037730Y015390D01*
X037623D01*
X037570Y015443D01*
X038103Y015390D02*
X037890D01*
X038103Y015603D01*
Y015657D01*
X038050Y015710D01*
X037943D01*
X037890Y015657D01*
X038210Y015390D02*
X038316D01*
X038263D01*
Y015710D01*
X038210Y015657D01*
X040193Y016627D02*
X040140Y016680D01*
X040033D01*
X039980Y016627D01*
Y016413D01*
X040033Y016360D01*
X040140D01*
X040193Y016413D01*
X040407Y016360D02*
X040300Y016467D01*
Y016573D01*
X040407Y016680D01*
X040566Y016360D02*
Y016680D01*
X040673Y016573D01*
X040780Y016680D01*
Y016360D01*
X041100Y016680D02*
X040886D01*
Y016520D01*
X040993D01*
X040886D01*
Y016360D01*
X041206D02*
X041313Y016467D01*
Y016573D01*
X041206Y016680D01*
X052028Y015677D02*
X051975Y015730D01*
X051868D01*
X051815Y015677D01*
Y015623D01*
X051868Y015570D01*
X051975D01*
X052028Y015517D01*
Y015463D01*
X051975Y015410D01*
X051868D01*
X051815Y015463D01*
X052348Y015410D02*
X052135D01*
X052348Y015623D01*
Y015677D01*
X052295Y015730D01*
X052188D01*
X052135Y015677D01*
X052455D02*
X052508Y015730D01*
X052615D01*
X052668Y015677D01*
Y015623D01*
X052615Y015570D01*
X052562D01*
X052615D01*
X052668Y015517D01*
Y015463D01*
X052615Y015410D01*
X052508D01*
X052455Y015463D01*
X054583Y016627D02*
X054530Y016680D01*
X054423D01*
X054370Y016627D01*
Y016573D01*
X054423Y016520D01*
X054530D01*
X054583Y016467D01*
Y016413D01*
X054530Y016360D01*
X054423D01*
X054370Y016413D01*
X054690Y016360D02*
Y016680D01*
X054850D01*
X054903Y016627D01*
Y016520D01*
X054850Y016467D01*
X054690D01*
X055010Y016680D02*
Y016360D01*
X055223D01*
X055330Y016680D02*
X055436D01*
X055383D01*
Y016360D01*
X055330D01*
X055436D01*
X055596Y016680D02*
X055810D01*
X055703D01*
Y016360D01*
X082080Y045444D02*
Y045764D01*
X082186Y045658D01*
X082293Y045764D01*
Y045444D01*
X082613Y045764D02*
X082400D01*
Y045604D01*
X082506Y045658D01*
X082559D01*
X082613Y045604D01*
Y045498D01*
X082559Y045444D01*
X082453D01*
X082400Y045498D01*
X060967Y045654D02*
Y045974D01*
X061074Y045867D01*
X061180Y045974D01*
Y045654D01*
X061287Y045920D02*
X061340Y045974D01*
X061447D01*
X061500Y045920D01*
Y045867D01*
X061447Y045814D01*
X061500Y045760D01*
Y045707D01*
X061447Y045654D01*
X061340D01*
X061287Y045707D01*
Y045760D01*
X061340Y045814D01*
X061287Y045867D01*
Y045920D01*
X061340Y045814D02*
X061447D01*
X067598Y051660D02*
Y051980D01*
X067705Y051874D01*
X067812Y051980D01*
Y051660D01*
X067918Y051980D02*
X068131D01*
Y051927D01*
X067918Y051714D01*
Y051660D01*
X080671Y056891D02*
X080351D01*
X080458Y056997D01*
X080351Y057104D01*
X080671D01*
Y057211D02*
Y057317D01*
Y057264D01*
X080351D01*
X080404Y057211D01*
Y057477D02*
X080351Y057531D01*
Y057637D01*
X080404Y057691D01*
X080458D01*
X080511Y057637D01*
Y057584D01*
Y057637D01*
X080564Y057691D01*
X080618D01*
X080671Y057637D01*
Y057531D01*
X080618Y057477D01*
X077565Y053870D02*
Y054189D01*
X077672Y054083D01*
X077778Y054189D01*
Y053870D01*
X077885D02*
X077992D01*
X077938D01*
Y054189D01*
X077885Y054136D01*
X078365Y053870D02*
X078152D01*
X078365Y054083D01*
Y054136D01*
X078312Y054189D01*
X078205D01*
X078152Y054136D01*
X079956Y056726D02*
X079636D01*
X079743Y056833D01*
X079636Y056940D01*
X079956D01*
X079689Y057046D02*
X079636Y057100D01*
Y057206D01*
X079689Y057259D01*
X079743D01*
X079796Y057206D01*
Y057153D01*
Y057206D01*
X079849Y057259D01*
X079903D01*
X079956Y057206D01*
Y057100D01*
X079903Y057046D01*
X079636Y057579D02*
Y057366D01*
X079796D01*
X079743Y057473D01*
Y057526D01*
X079796Y057579D01*
X079903D01*
X079956Y057526D01*
Y057419D01*
X079903Y057366D01*
X072495Y059414D02*
Y059734D01*
X072602Y059628D01*
X072708Y059734D01*
Y059414D01*
X072815Y059681D02*
X072868Y059734D01*
X072975D01*
X073028Y059681D01*
Y059628D01*
X072975Y059574D01*
X072922D01*
X072975D01*
X073028Y059521D01*
Y059468D01*
X072975Y059414D01*
X072868D01*
X072815Y059468D01*
X073348Y059414D02*
X073135D01*
X073348Y059628D01*
Y059681D01*
X073295Y059734D01*
X073188D01*
X073135Y059681D01*
X073508Y059628D02*
X073615D01*
X073668Y059574D01*
Y059414D01*
X073508D01*
X073455Y059468D01*
X073508Y059521D01*
X073668D01*
X072965Y062088D02*
Y062408D01*
X073072Y062302D01*
X073178Y062408D01*
Y062088D01*
X073285Y062355D02*
X073338Y062408D01*
X073445D01*
X073498Y062355D01*
Y062302D01*
X073445Y062248D01*
X073392D01*
X073445D01*
X073498Y062195D01*
Y062142D01*
X073445Y062088D01*
X073338D01*
X073285Y062142D01*
X073818Y062088D02*
X073605D01*
X073818Y062302D01*
Y062355D01*
X073765Y062408D01*
X073658D01*
X073605Y062355D01*
X073914Y065160D02*
Y065480D01*
X074021Y065373D01*
X074127Y065480D01*
Y065160D01*
X074234Y065427D02*
X074287Y065480D01*
X074394D01*
X074447Y065427D01*
Y065373D01*
X074394Y065320D01*
X074341D01*
X074394D01*
X074447Y065267D01*
Y065213D01*
X074394Y065160D01*
X074287D01*
X074234Y065213D01*
X074554Y065427D02*
X074607Y065480D01*
X074714D01*
X074767Y065427D01*
Y065213D01*
X074714Y065160D01*
X074607D01*
X074554Y065213D01*
Y065427D01*
X077545Y054635D02*
Y054955D01*
X077651Y054848D01*
X077758Y054955D01*
Y054635D01*
X077864Y054902D02*
X077918Y054955D01*
X078024D01*
X078078Y054902D01*
Y054848D01*
X078024Y054795D01*
X077971D01*
X078024D01*
X078078Y054742D01*
Y054688D01*
X078024Y054635D01*
X077918D01*
X077864Y054688D01*
X078184Y054902D02*
X078238Y054955D01*
X078344D01*
X078398Y054902D01*
Y054848D01*
X078344Y054795D01*
X078291D01*
X078344D01*
X078398Y054742D01*
Y054688D01*
X078344Y054635D01*
X078238D01*
X078184Y054688D01*
X082046Y057135D02*
X081726D01*
X081833Y057241D01*
X081726Y057348D01*
X082046D01*
X081993Y057454D02*
X082046Y057508D01*
Y057614D01*
X081993Y057668D01*
X081780D01*
X081726Y057614D01*
Y057508D01*
X081780Y057454D01*
X081833D01*
X081886Y057508D01*
Y057668D01*
X083530Y047865D02*
Y048185D01*
X083637Y048078D01*
X083743Y048185D01*
Y047865D01*
X084063Y048185D02*
X083957Y048131D01*
X083850Y048025D01*
Y047918D01*
X083903Y047865D01*
X084010D01*
X084063Y047918D01*
Y047971D01*
X084010Y048025D01*
X083850D01*
X080759Y054350D02*
Y054670D01*
X080866Y054564D01*
X080973Y054670D01*
Y054350D01*
X081079Y054617D02*
X081132Y054670D01*
X081239D01*
X081292Y054617D01*
Y054564D01*
X081239Y054510D01*
X081186D01*
X081239D01*
X081292Y054457D01*
Y054404D01*
X081239Y054350D01*
X081132D01*
X081079Y054404D01*
X081399Y054670D02*
X081612D01*
Y054617D01*
X081399Y054404D01*
Y054350D01*
X057684Y057080D02*
Y057400D01*
X057790Y057293D01*
X057897Y057400D01*
Y057080D01*
X058004D02*
X058110D01*
X058057D01*
Y057400D01*
X058004Y057346D01*
X058270Y057080D02*
X058377D01*
X058323D01*
Y057400D01*
X058270Y057346D01*
X057600Y057792D02*
Y058112D01*
X057707Y058005D01*
X057813Y058112D01*
Y057792D01*
X057920D02*
X058027D01*
X057973D01*
Y058112D01*
X057920Y058058D01*
X058186D02*
X058240Y058112D01*
X058346D01*
X058400Y058058D01*
Y057845D01*
X058346Y057792D01*
X058240D01*
X058186Y057845D01*
Y058058D01*
X080195Y049148D02*
Y049468D01*
X080301Y049361D01*
X080408Y049468D01*
Y049148D01*
X080515Y049415D02*
X080568Y049468D01*
X080675D01*
X080728Y049415D01*
Y049361D01*
X080675Y049308D01*
X080621D01*
X080675D01*
X080728Y049255D01*
Y049201D01*
X080675Y049148D01*
X080568D01*
X080515Y049201D01*
X081048Y049468D02*
X080941Y049415D01*
X080835Y049308D01*
Y049201D01*
X080888Y049148D01*
X080995D01*
X081048Y049201D01*
Y049255D01*
X080995Y049308D01*
X080835D01*
X048135Y020375D02*
Y020694D01*
X048242Y020588D01*
X048349Y020694D01*
Y020375D01*
X048668Y020694D02*
X048455D01*
Y020535D01*
X048562Y020588D01*
X048615D01*
X048668Y020535D01*
Y020428D01*
X048615Y020375D01*
X048508D01*
X048455Y020428D01*
X048775Y020375D02*
X048882D01*
X048828D01*
Y020694D01*
X048775Y020641D01*
X018061Y062426D02*
Y062106D01*
X018274D01*
X018381Y062426D02*
Y062106D01*
X018541D01*
X018594Y062160D01*
Y062373D01*
X018541Y062426D01*
X018381D01*
X018914Y062106D02*
X018701D01*
X018914Y062320D01*
Y062373D01*
X018861Y062426D01*
X018754D01*
X018701Y062373D01*
X016323Y023727D02*
X016270Y023780D01*
X016163D01*
X016110Y023727D01*
Y023673D01*
X016163Y023620D01*
X016270D01*
X016323Y023567D01*
Y023513D01*
X016270Y023460D01*
X016163D01*
X016110Y023513D01*
X016643Y023780D02*
X016537Y023727D01*
X016430Y023620D01*
Y023513D01*
X016483Y023460D01*
X016590D01*
X016643Y023513D01*
Y023567D01*
X016590Y023620D01*
X016430D01*
X019662Y024459D02*
X019609Y024513D01*
X019502D01*
X019449Y024459D01*
Y024246D01*
X019502Y024193D01*
X019609D01*
X019662Y024246D01*
X019769Y024513D02*
Y024193D01*
X019875Y024300D01*
X019982Y024193D01*
Y024513D01*
X020195Y024193D02*
X020089Y024300D01*
Y024406D01*
X020195Y024513D01*
X020355D02*
Y024193D01*
Y024300D01*
X020568Y024513D01*
X020409Y024353D01*
X020568Y024193D01*
X020888Y024513D02*
X020675D01*
Y024193D01*
X020888D01*
X020675Y024353D02*
X020782D01*
X020995Y024513D02*
Y024459D01*
X021102Y024353D01*
X021208Y024459D01*
Y024513D01*
X021102Y024353D02*
Y024193D01*
X021528Y024513D02*
X021315D01*
Y024193D01*
X021528D01*
X021315Y024353D02*
X021422D01*
X021635Y024193D02*
Y024513D01*
X021795D01*
X021848Y024459D01*
Y024353D01*
X021795Y024300D01*
X021635D01*
X021741D02*
X021848Y024193D01*
X021955D02*
X022061Y024300D01*
Y024406D01*
X021955Y024513D01*
X074733Y062938D02*
Y063258D01*
X074840Y063151D01*
X074947Y063258D01*
Y062938D01*
X075213D02*
Y063258D01*
X075053Y063098D01*
X075267D01*
X075373Y063205D02*
X075427Y063258D01*
X075533D01*
X075587Y063205D01*
Y063151D01*
X075533Y063098D01*
X075587Y063045D01*
Y062991D01*
X075533Y062938D01*
X075427D01*
X075373Y062991D01*
Y063045D01*
X075427Y063098D01*
X075373Y063151D01*
Y063205D01*
X075427Y063098D02*
X075533D01*
D20*
X059296Y017246D02*
X060096D01*
Y017779D01*
X059296Y018446D02*
Y018179D01*
X059430Y018046D01*
X059963D01*
X060096Y018179D01*
Y018446D01*
X059963Y018579D01*
X059430D01*
X059296Y018446D01*
X060096Y018846D02*
X059296D01*
Y019246D01*
X059430Y019379D01*
X059696D01*
X059830Y019246D01*
Y018846D01*
Y019112D02*
X060096Y019379D01*
Y019646D02*
X059563D01*
X059296Y019912D01*
X059563Y020179D01*
X060096D01*
X059696D01*
Y019646D01*
X060096Y021245D02*
X059563D01*
X059296Y021512D01*
X059563Y021778D01*
X060096D01*
X059696D01*
Y021245D01*
X060096Y022045D02*
X059296D01*
X060096Y022578D01*
X059296D01*
Y022844D02*
Y023378D01*
Y023111D01*
X060096D01*
X059296Y024177D02*
Y023644D01*
X060096D01*
Y024177D01*
X059696Y023644D02*
Y023911D01*
X060096Y024444D02*
X059296D01*
X060096Y024977D01*
X059296D01*
X060096Y025244D02*
X059296D01*
X060096Y025777D01*
X059296D01*
X060096Y026043D02*
X059563D01*
X059296Y026310D01*
X059563Y026577D01*
X060096D01*
X059696D01*
Y026043D01*
M02*
