G04*
G04 #@! TF.GenerationSoftware,Altium Limited,Altium Designer,20.1.8 (145)*
G04*
G04 Layer_Color=8388736*
%FSAX24Y24*%
%MOIN*%
G70*
G04*
G04 #@! TF.SameCoordinates,7D9F505B-2EBF-4E8E-82AC-92A1240CC430*
G04*
G04*
G04 #@! TF.FilePolarity,Negative*
G04*
G01*
G75*
%ADD28R,0.0400X0.0480*%
%ADD29R,0.0480X0.0400*%
%ADD30R,0.0680X0.0680*%
%ADD31R,0.0867X0.0400*%
%ADD32O,0.2049X0.1655*%
%ADD33R,0.0680X0.0680*%
%ADD34R,0.0867X0.0867*%
%ADD35C,0.0474*%
%ADD36R,0.0474X0.0474*%
%ADD37C,0.1064*%
%ADD38C,0.0315*%
%ADD39C,0.0295*%
%ADD40C,0.0630*%
%ADD41C,0.1380*%
%ADD42C,0.0277*%
%ADD43O,0.0552X0.0410*%
%ADD44C,0.0198*%
%ADD45C,0.0395*%
G36*
X077188Y065174D02*
Y064934D01*
X076808D01*
X077048Y065174D01*
X076808Y065414D01*
X077188D01*
Y065174D01*
D02*
G37*
G36*
X077028D02*
X076788Y064934D01*
X076688D01*
Y065414D01*
X076788D01*
X077028Y065174D01*
D02*
G37*
G36*
X078289Y065060D02*
X078049Y064820D01*
X077809Y065060D01*
Y065160D01*
X078289D01*
Y065060D01*
D02*
G37*
G36*
X075318Y065053D02*
X075078Y064813D01*
X074838Y065053D01*
Y065153D01*
X075318D01*
Y065053D01*
D02*
G37*
G36*
X078289Y064660D02*
X077809D01*
Y065040D01*
X078049Y064800D01*
X078289Y065040D01*
Y064660D01*
D02*
G37*
G36*
X076067Y065039D02*
X075827Y064799D01*
X075587Y065039D01*
Y065139D01*
X076067D01*
Y065039D01*
D02*
G37*
G36*
X075318Y064653D02*
X074838D01*
Y065033D01*
X075078Y064793D01*
X075318Y065033D01*
Y064653D01*
D02*
G37*
G36*
X076067Y064639D02*
X075587D01*
Y065019D01*
X075827Y064779D01*
X076067Y065019D01*
Y064639D01*
D02*
G37*
G36*
X084261Y064504D02*
X084161D01*
X083921Y064744D01*
X084161Y064984D01*
X084261D01*
Y064504D01*
D02*
G37*
G36*
X083901Y064744D02*
X084141Y064504D01*
X083761D01*
Y064744D01*
Y064984D01*
X084141D01*
X083901Y064744D01*
D02*
G37*
G36*
X084261Y063768D02*
X084161D01*
X083921Y064008D01*
X084161Y064248D01*
X084261D01*
Y063768D01*
D02*
G37*
G36*
X083901Y064008D02*
X084141Y063768D01*
X083761D01*
Y064008D01*
Y064248D01*
X084141D01*
X083901Y064008D01*
D02*
G37*
G36*
X084261Y062933D02*
X084161D01*
X083921Y063173D01*
X084161Y063413D01*
X084261D01*
Y062933D01*
D02*
G37*
G36*
X083901Y063173D02*
X084141Y062933D01*
X083761D01*
Y063173D01*
Y063413D01*
X084141D01*
X083901Y063173D01*
D02*
G37*
G36*
X075441Y062585D02*
Y062345D01*
X075061D01*
X075301Y062585D01*
X075061Y062825D01*
X075441D01*
Y062585D01*
D02*
G37*
G36*
X075281D02*
X075041Y062345D01*
X074941D01*
Y062825D01*
X075041D01*
X075281Y062585D01*
D02*
G37*
G36*
X084286Y062453D02*
Y062213D01*
X083906D01*
X084146Y062453D01*
X083906Y062693D01*
X084286D01*
Y062453D01*
D02*
G37*
G36*
X084126D02*
X083886Y062213D01*
X083786D01*
Y062693D01*
X083886D01*
X084126Y062453D01*
D02*
G37*
G36*
X076892Y062104D02*
Y061864D01*
X076512D01*
X076752Y062104D01*
X076512Y062344D01*
X076892D01*
Y062104D01*
D02*
G37*
G36*
X076732D02*
X076492Y061864D01*
X076392D01*
Y062344D01*
X076492D01*
X076732Y062104D01*
D02*
G37*
G36*
X074354Y062069D02*
X074114Y061829D01*
X073874Y062069D01*
Y062169D01*
X074354D01*
Y062069D01*
D02*
G37*
G36*
Y061669D02*
X073874D01*
Y062049D01*
X074114Y061809D01*
X074354Y062049D01*
Y061669D01*
D02*
G37*
G36*
X084261Y061456D02*
X084161D01*
X083921Y061696D01*
X084161Y061936D01*
X084261D01*
Y061456D01*
D02*
G37*
G36*
X083901Y061696D02*
X084141Y061456D01*
X083761D01*
Y061696D01*
Y061936D01*
X084141D01*
X083901Y061696D01*
D02*
G37*
G36*
X073254Y060104D02*
Y059864D01*
X072874D01*
X073114Y060104D01*
X072874Y060344D01*
X073254D01*
Y060104D01*
D02*
G37*
G36*
X073094D02*
X072854Y059864D01*
X072754D01*
Y060344D01*
X072854D01*
X073094Y060104D01*
D02*
G37*
G36*
X052701Y059026D02*
X052461Y059266D01*
X052221Y059026D01*
Y059406D01*
X052701D01*
Y059026D01*
D02*
G37*
G36*
X051979Y059016D02*
X051739Y059256D01*
X051499Y059016D01*
Y059396D01*
X051979D01*
Y059016D01*
D02*
G37*
G36*
X052701Y059006D02*
Y058906D01*
X052221D01*
Y059006D01*
X052461Y059246D01*
X052701Y059006D01*
D02*
G37*
G36*
X051979Y058996D02*
Y058896D01*
X051499D01*
Y058996D01*
X051739Y059236D01*
X051979Y058996D01*
D02*
G37*
G36*
X059586Y058698D02*
Y058458D01*
X059206D01*
X059446Y058698D01*
X059206Y058938D01*
X059586D01*
Y058698D01*
D02*
G37*
G36*
X059426D02*
X059186Y058458D01*
X059086D01*
Y058938D01*
X059186D01*
X059426Y058698D01*
D02*
G37*
G36*
X059575Y057968D02*
Y057728D01*
X059195D01*
X059435Y057968D01*
X059195Y058208D01*
X059575D01*
Y057968D01*
D02*
G37*
G36*
X059415D02*
X059175Y057728D01*
X059075D01*
Y058208D01*
X059175D01*
X059415Y057968D01*
D02*
G37*
G36*
X059575Y057250D02*
Y057010D01*
X059195D01*
X059435Y057250D01*
X059195Y057490D01*
X059575D01*
Y057250D01*
D02*
G37*
G36*
X059415D02*
X059175Y057010D01*
X059075D01*
Y057490D01*
X059175D01*
X059415Y057250D01*
D02*
G37*
G36*
X082191Y055896D02*
X081951Y056136D01*
X081711Y055896D01*
Y056276D01*
X082191D01*
Y055896D01*
D02*
G37*
G36*
X080758Y055896D02*
X080518Y056136D01*
X080278Y055896D01*
Y056276D01*
X080758D01*
Y055896D01*
D02*
G37*
G36*
X080045D02*
X079805Y056136D01*
X079565Y055896D01*
Y056276D01*
X080045D01*
Y055896D01*
D02*
G37*
G36*
X081479Y055890D02*
X081239Y056130D01*
X080999Y055890D01*
Y056270D01*
X081479D01*
Y055890D01*
D02*
G37*
G36*
X082191Y055876D02*
Y055776D01*
X081711D01*
Y055876D01*
X081951Y056116D01*
X082191Y055876D01*
D02*
G37*
G36*
X080758Y055876D02*
Y055776D01*
X080278D01*
Y055876D01*
X080518Y056116D01*
X080758Y055876D01*
D02*
G37*
G36*
X080045D02*
Y055776D01*
X079565D01*
Y055876D01*
X079805Y056116D01*
X080045Y055876D01*
D02*
G37*
G36*
X088279Y056013D02*
X088039Y055773D01*
X087799Y056013D01*
Y056113D01*
X088279D01*
Y056013D01*
D02*
G37*
G36*
X081479Y055870D02*
Y055770D01*
X080999D01*
Y055870D01*
X081239Y056110D01*
X081479Y055870D01*
D02*
G37*
G36*
X088279Y055613D02*
X087799D01*
Y055993D01*
X088039Y055753D01*
X088279Y055993D01*
Y055613D01*
D02*
G37*
G36*
X058235Y055098D02*
Y054858D01*
X057855D01*
X058095Y055098D01*
X057855Y055338D01*
X058235D01*
Y055098D01*
D02*
G37*
G36*
X058075D02*
X057835Y054858D01*
X057735D01*
Y055338D01*
X057835D01*
X058075Y055098D01*
D02*
G37*
G36*
X079256Y054551D02*
X079156D01*
X078916Y054791D01*
X079156Y055031D01*
X079256D01*
Y054551D01*
D02*
G37*
G36*
X078896Y054791D02*
X079136Y054551D01*
X078756D01*
Y054791D01*
Y055031D01*
X079136D01*
X078896Y054791D01*
D02*
G37*
G36*
X058225Y054297D02*
Y054057D01*
X057845D01*
X058085Y054297D01*
X057845Y054537D01*
X058225D01*
Y054297D01*
D02*
G37*
G36*
X058065D02*
X057825Y054057D01*
X057725D01*
Y054537D01*
X057825D01*
X058065Y054297D01*
D02*
G37*
G36*
X080615Y053798D02*
X080375Y054038D01*
X080135Y053798D01*
Y054178D01*
X080615D01*
Y053798D01*
D02*
G37*
G36*
X079230Y053776D02*
X079130D01*
X078890Y054016D01*
X079130Y054256D01*
X079230D01*
Y053776D01*
D02*
G37*
G36*
X078870Y054016D02*
X079110Y053776D01*
X078730D01*
Y054016D01*
Y054256D01*
X079110D01*
X078870Y054016D01*
D02*
G37*
G36*
X080615Y053778D02*
Y053678D01*
X080135D01*
Y053778D01*
X080375Y054018D01*
X080615Y053778D01*
D02*
G37*
G36*
X056775Y053916D02*
Y053676D01*
X056395D01*
X056635Y053916D01*
X056395Y054156D01*
X056775D01*
Y053916D01*
D02*
G37*
G36*
X056615D02*
X056375Y053676D01*
X056275D01*
Y054156D01*
X056375D01*
X056615Y053916D01*
D02*
G37*
G36*
X082518Y053356D02*
X082278Y053596D01*
X082038Y053356D01*
Y053736D01*
X082518D01*
Y053356D01*
D02*
G37*
G36*
X081362Y053336D02*
X081122Y053576D01*
X080882Y053336D01*
Y053716D01*
X081362D01*
Y053336D01*
D02*
G37*
G36*
X082518Y053336D02*
Y053236D01*
X082038D01*
Y053336D01*
X082278Y053576D01*
X082518Y053336D01*
D02*
G37*
G36*
X081362Y053316D02*
Y053216D01*
X080882D01*
Y053316D01*
X081122Y053556D01*
X081362Y053316D01*
D02*
G37*
G36*
X058451Y052241D02*
Y052001D01*
X058071D01*
X058311Y052241D01*
X058071Y052481D01*
X058451D01*
Y052241D01*
D02*
G37*
G36*
X058291D02*
X058051Y052001D01*
X057951D01*
Y052481D01*
X058051D01*
X058291Y052241D01*
D02*
G37*
G36*
X055669Y052037D02*
Y051797D01*
X055289D01*
X055529Y052037D01*
X055289Y052277D01*
X055669D01*
Y052037D01*
D02*
G37*
G36*
X055509D02*
X055269Y051797D01*
X055169D01*
Y052277D01*
X055269D01*
X055509Y052037D01*
D02*
G37*
G36*
X083189Y051586D02*
X082949Y051826D01*
X082709Y051586D01*
Y051966D01*
X083189D01*
Y051586D01*
D02*
G37*
G36*
X082468D02*
X082228Y051826D01*
X081988Y051586D01*
Y051966D01*
X082468D01*
Y051586D01*
D02*
G37*
G36*
X081719D02*
X081479Y051826D01*
X081239Y051586D01*
Y051966D01*
X081719D01*
Y051586D01*
D02*
G37*
G36*
X067241Y051797D02*
Y051557D01*
X066861D01*
X067101Y051797D01*
X066861Y052037D01*
X067241D01*
Y051797D01*
D02*
G37*
G36*
X067081D02*
X066841Y051557D01*
X066741D01*
Y052037D01*
X066841D01*
X067081Y051797D01*
D02*
G37*
G36*
X083189Y051566D02*
Y051466D01*
X082709D01*
Y051566D01*
X082949Y051806D01*
X083189Y051566D01*
D02*
G37*
G36*
X082468D02*
Y051466D01*
X081988D01*
Y051566D01*
X082228Y051806D01*
X082468Y051566D01*
D02*
G37*
G36*
X081719D02*
Y051466D01*
X081239D01*
Y051566D01*
X081479Y051806D01*
X081719Y051566D01*
D02*
G37*
G36*
X055673Y051240D02*
Y051000D01*
X055293D01*
X055533Y051240D01*
X055293Y051480D01*
X055673D01*
Y051240D01*
D02*
G37*
G36*
X055513D02*
X055273Y051000D01*
X055173D01*
Y051480D01*
X055273D01*
X055513Y051240D01*
D02*
G37*
G36*
X058451Y050919D02*
Y050679D01*
X058071D01*
X058311Y050919D01*
X058071Y051159D01*
X058451D01*
Y050919D01*
D02*
G37*
G36*
X058291D02*
X058051Y050679D01*
X057951D01*
Y051159D01*
X058051D01*
X058291Y050919D01*
D02*
G37*
G36*
X055398Y050472D02*
Y050232D01*
X055018D01*
X055258Y050472D01*
X055018Y050712D01*
X055398D01*
Y050472D01*
D02*
G37*
G36*
X055238D02*
X054998Y050232D01*
X054898D01*
Y050712D01*
X054998D01*
X055238Y050472D01*
D02*
G37*
G36*
X057189Y049927D02*
X057089D01*
X056849Y050167D01*
X057089Y050407D01*
X057189D01*
Y049927D01*
D02*
G37*
G36*
X056829Y050167D02*
X057069Y049927D01*
X056689D01*
Y050167D01*
Y050407D01*
X057069D01*
X056829Y050167D01*
D02*
G37*
G36*
X059079Y050020D02*
Y049780D01*
X058699D01*
X058939Y050020D01*
X058699Y050260D01*
X059079D01*
Y050020D01*
D02*
G37*
G36*
X058919D02*
X058679Y049780D01*
X058579D01*
Y050260D01*
X058679D01*
X058919Y050020D01*
D02*
G37*
G36*
X081656Y048918D02*
X081416Y049158D01*
X081176Y048918D01*
Y049298D01*
X081656D01*
Y048918D01*
D02*
G37*
G36*
Y048898D02*
Y048798D01*
X081176D01*
Y048898D01*
X081416Y049138D01*
X081656Y048898D01*
D02*
G37*
G36*
X083140Y047762D02*
X083041D01*
X082801Y048002D01*
X083041Y048242D01*
X083140D01*
Y047762D01*
D02*
G37*
G36*
X082781Y048002D02*
X083020Y047762D01*
X082640D01*
Y048002D01*
Y048242D01*
X083020D01*
X082781Y048002D01*
D02*
G37*
G36*
X059915Y046338D02*
X059675Y046578D01*
X059435Y046338D01*
Y046718D01*
X059915D01*
Y046338D01*
D02*
G37*
G36*
X057930Y046555D02*
Y046315D01*
X057550D01*
X057790Y046555D01*
X057550Y046795D01*
X057930D01*
Y046555D01*
D02*
G37*
G36*
X057770D02*
X057530Y046315D01*
X057430D01*
Y046795D01*
X057530D01*
X057770Y046555D01*
D02*
G37*
G36*
X059915Y046318D02*
Y046218D01*
X059435D01*
Y046318D01*
X059675Y046558D01*
X059915Y046318D01*
D02*
G37*
G36*
X060854Y046249D02*
X060614Y046009D01*
X060374Y046249D01*
Y046349D01*
X060854D01*
Y046249D01*
D02*
G37*
G36*
Y045849D02*
X060374D01*
Y046229D01*
X060614Y045989D01*
X060854Y046229D01*
Y045849D01*
D02*
G37*
G36*
X081942Y045712D02*
X081702Y045952D01*
X081462Y045712D01*
Y046092D01*
X081942D01*
Y045712D01*
D02*
G37*
G36*
Y045692D02*
Y045592D01*
X081462D01*
Y045692D01*
X081702Y045932D01*
X081942Y045692D01*
D02*
G37*
G36*
X057917Y045238D02*
Y044998D01*
X057537D01*
X057777Y045238D01*
X057537Y045478D01*
X057917D01*
Y045238D01*
D02*
G37*
G36*
X057757D02*
X057517Y044998D01*
X057417D01*
Y045478D01*
X057517D01*
X057757Y045238D01*
D02*
G37*
G36*
X073212Y044144D02*
X072972Y044384D01*
X072732Y044144D01*
Y044524D01*
X073212D01*
Y044144D01*
D02*
G37*
G36*
Y044124D02*
Y044024D01*
X072732D01*
Y044124D01*
X072972Y044364D01*
X073212Y044124D01*
D02*
G37*
G36*
X068734Y034214D02*
X068494Y033974D01*
X068254Y034214D01*
Y034314D01*
X068734D01*
Y034214D01*
D02*
G37*
G36*
Y033814D02*
X068254D01*
Y034194D01*
X068494Y033954D01*
X068734Y034194D01*
Y033814D01*
D02*
G37*
G36*
X060388Y028589D02*
X060148Y028349D01*
X059908Y028589D01*
Y028689D01*
X060388D01*
Y028589D01*
D02*
G37*
G36*
Y028189D02*
X059908D01*
Y028569D01*
X060148Y028329D01*
X060388Y028569D01*
Y028189D01*
D02*
G37*
G36*
X015419Y025300D02*
X015319D01*
X015079Y025540D01*
X015319Y025780D01*
X015419D01*
Y025300D01*
D02*
G37*
G36*
X015059Y025540D02*
X015299Y025300D01*
X014919D01*
Y025540D01*
Y025780D01*
X015299D01*
X015059Y025540D01*
D02*
G37*
G36*
X047718Y020282D02*
X047618D01*
X047378Y020522D01*
X047618Y020762D01*
X047718D01*
Y020282D01*
D02*
G37*
G36*
X047358Y020522D02*
X047598Y020282D01*
X047218D01*
Y020522D01*
Y020762D01*
X047598D01*
X047358Y020522D01*
D02*
G37*
G36*
X015600Y019151D02*
Y018911D01*
X015220D01*
X015460Y019151D01*
X015220Y019391D01*
X015600D01*
Y019151D01*
D02*
G37*
G36*
X015440D02*
X015200Y018911D01*
X015100D01*
Y019391D01*
X015200D01*
X015440Y019151D01*
D02*
G37*
D28*
X015519Y025540D02*
D03*
X014844D02*
D03*
X075516Y062585D02*
D03*
X074841D02*
D03*
X047818Y020522D02*
D03*
X047143D02*
D03*
X058975Y057968D02*
D03*
X059650D02*
D03*
Y057250D02*
D03*
X058975D02*
D03*
X082565Y048002D02*
D03*
X083240D02*
D03*
X078681Y054791D02*
D03*
X079356D02*
D03*
X072654Y060104D02*
D03*
X073329D02*
D03*
X079330Y054016D02*
D03*
X078655D02*
D03*
X066641Y051797D02*
D03*
X067316D02*
D03*
X077263Y065174D02*
D03*
X076588D02*
D03*
X057330Y046555D02*
D03*
X058005D02*
D03*
X057289Y050167D02*
D03*
X056614D02*
D03*
X059154Y050020D02*
D03*
X058479D02*
D03*
X057851Y050919D02*
D03*
X058526D02*
D03*
X055744Y052037D02*
D03*
X055069D02*
D03*
X057851Y052241D02*
D03*
X058526D02*
D03*
X057992Y045238D02*
D03*
X057317D02*
D03*
X054798Y050472D02*
D03*
X055473D02*
D03*
X055748Y051240D02*
D03*
X055073D02*
D03*
X058986Y058698D02*
D03*
X059661D02*
D03*
X076292Y062104D02*
D03*
X076967D02*
D03*
X058300Y054297D02*
D03*
X057625D02*
D03*
X056175Y053916D02*
D03*
X056850D02*
D03*
X058310Y055098D02*
D03*
X057635D02*
D03*
X015000Y019151D02*
D03*
X015675D02*
D03*
X083686Y064008D02*
D03*
X084361D02*
D03*
X083686Y061696D02*
D03*
X084361D02*
D03*
X083686Y063173D02*
D03*
X084361D02*
D03*
X084361Y062453D02*
D03*
X083686D02*
D03*
X083686Y064744D02*
D03*
X084361D02*
D03*
D29*
X081416Y049373D02*
D03*
Y048698D02*
D03*
X081122Y053116D02*
D03*
Y053791D02*
D03*
X081951Y055676D02*
D03*
Y056351D02*
D03*
X075078Y065253D02*
D03*
Y064578D02*
D03*
X074114Y061594D02*
D03*
Y062269D02*
D03*
X079805Y056351D02*
D03*
Y055676D02*
D03*
X080518Y056351D02*
D03*
Y055676D02*
D03*
X060614Y045774D02*
D03*
Y046449D02*
D03*
X081702Y045492D02*
D03*
Y046167D02*
D03*
X088039Y055538D02*
D03*
Y056213D02*
D03*
X081479Y051366D02*
D03*
Y052041D02*
D03*
X075827Y065239D02*
D03*
Y064564D02*
D03*
X078049Y064585D02*
D03*
Y065260D02*
D03*
X072972Y043924D02*
D03*
Y044599D02*
D03*
X059675Y046793D02*
D03*
Y046118D02*
D03*
X082278Y053811D02*
D03*
Y053136D02*
D03*
X060148Y028789D02*
D03*
Y028114D02*
D03*
X080375Y054253D02*
D03*
Y053578D02*
D03*
X082949Y051366D02*
D03*
Y052041D02*
D03*
X082228D02*
D03*
Y051366D02*
D03*
X052461Y059481D02*
D03*
Y058806D02*
D03*
X051739Y058796D02*
D03*
Y059471D02*
D03*
X068494Y034414D02*
D03*
Y033739D02*
D03*
X081239Y056345D02*
D03*
Y055670D02*
D03*
D30*
X010610Y055385D02*
D03*
Y054035D02*
D03*
D31*
X062382Y018032D02*
D03*
Y018532D02*
D03*
Y019031D02*
D03*
Y019532D02*
D03*
Y020031D02*
D03*
Y020531D02*
D03*
Y021031D02*
D03*
Y021532D02*
D03*
Y022032D02*
D03*
Y022531D02*
D03*
Y023031D02*
D03*
D32*
X059716Y014736D02*
D03*
D33*
X020984Y062264D02*
D03*
X019634D02*
D03*
D34*
X020476Y025994D02*
D03*
Y027569D02*
D03*
X017327Y025994D02*
D03*
Y027569D02*
D03*
X020476Y021980D02*
D03*
Y023555D02*
D03*
X017327Y021980D02*
D03*
Y023555D02*
D03*
X020476Y017961D02*
D03*
Y019535D02*
D03*
X017327Y017961D02*
D03*
Y019535D02*
D03*
X020476Y013951D02*
D03*
Y015526D02*
D03*
X017327Y013951D02*
D03*
Y015526D02*
D03*
X027683Y025994D02*
D03*
Y027569D02*
D03*
X024533Y025994D02*
D03*
Y027569D02*
D03*
X027683Y021980D02*
D03*
Y023555D02*
D03*
X024533Y021980D02*
D03*
Y023555D02*
D03*
X027683Y017961D02*
D03*
Y019535D02*
D03*
X024533Y017961D02*
D03*
Y019535D02*
D03*
X027683Y013951D02*
D03*
Y015526D02*
D03*
X024533Y013951D02*
D03*
Y015526D02*
D03*
X034888Y025994D02*
D03*
Y027569D02*
D03*
X031738Y025994D02*
D03*
Y027569D02*
D03*
X042093Y025994D02*
D03*
Y027569D02*
D03*
X038943Y025994D02*
D03*
Y027569D02*
D03*
X049297Y025994D02*
D03*
Y027569D02*
D03*
X046148Y025994D02*
D03*
Y027569D02*
D03*
X056502Y025994D02*
D03*
Y027569D02*
D03*
X053352Y025994D02*
D03*
Y027569D02*
D03*
X034888Y021980D02*
D03*
Y023555D02*
D03*
X031738Y021980D02*
D03*
Y023555D02*
D03*
X042093Y021980D02*
D03*
Y023555D02*
D03*
X038943Y021980D02*
D03*
Y023555D02*
D03*
X049297Y021980D02*
D03*
Y023555D02*
D03*
X046148Y021980D02*
D03*
Y023555D02*
D03*
X056502Y021980D02*
D03*
Y023555D02*
D03*
X053352Y021980D02*
D03*
Y023555D02*
D03*
X034888Y017961D02*
D03*
Y019535D02*
D03*
X031738Y017961D02*
D03*
Y019535D02*
D03*
X042093Y017961D02*
D03*
Y019535D02*
D03*
X038943Y017961D02*
D03*
Y019535D02*
D03*
X049297Y015945D02*
D03*
Y017520D02*
D03*
X046148Y015945D02*
D03*
Y017520D02*
D03*
X056502Y017961D02*
D03*
Y019535D02*
D03*
X053352Y017961D02*
D03*
Y019535D02*
D03*
X034888Y013951D02*
D03*
Y015526D02*
D03*
X031738Y013951D02*
D03*
Y015526D02*
D03*
X042093Y013951D02*
D03*
Y015526D02*
D03*
X038943Y013951D02*
D03*
Y015526D02*
D03*
X056502Y013951D02*
D03*
Y015526D02*
D03*
X053352Y013951D02*
D03*
Y015526D02*
D03*
D35*
X063114Y064918D02*
D03*
X063614D02*
D03*
X027831Y064290D02*
D03*
D36*
X064114Y064918D02*
D03*
X027331Y064290D02*
D03*
D37*
X016122Y064685D02*
D03*
X049567Y012195D02*
D03*
X058744Y035217D02*
D03*
Y064744D02*
D03*
X010787Y012116D02*
D03*
X087972Y064685D02*
D03*
X075944Y012238D02*
D03*
X029609Y035217D02*
D03*
X029609Y064744D02*
D03*
D38*
X086911Y035535D02*
D03*
X084902Y044390D02*
D03*
D39*
X086911Y037535D02*
D03*
X084902Y047362D02*
D03*
X011972Y054697D02*
D03*
X010472D02*
D03*
X010470Y041902D02*
D03*
X011970D02*
D03*
D40*
X084169Y055451D02*
D03*
Y053651D02*
D03*
Y054451D02*
D03*
Y052651D02*
D03*
D41*
X084869Y056651D02*
D03*
Y051451D02*
D03*
D42*
X086397Y061652D02*
D03*
X086642Y061494D02*
D03*
X086642Y061179D02*
D03*
X086397Y061022D02*
D03*
X086642Y060864D02*
D03*
X086397Y060707D02*
D03*
Y060392D02*
D03*
Y060077D02*
D03*
X086642Y060234D02*
D03*
Y059919D02*
D03*
Y059604D02*
D03*
X086397Y059447D02*
D03*
D43*
X086601Y058923D02*
D03*
X088329Y058781D02*
D03*
Y062317D02*
D03*
X086601Y062175D02*
D03*
D44*
X086109Y061994D02*
D03*
X086108Y059101D02*
D03*
D45*
X024100Y064016D02*
D03*
X017860D02*
D03*
X066780Y061991D02*
D03*
X060540D02*
D03*
M02*
