G04*
G04 #@! TF.GenerationSoftware,Altium Limited,Altium Designer,20.1.8 (145)*
G04*
G04 Layer_Color=16711935*
%FSAX24Y24*%
%MOIN*%
G70*
G04*
G04 #@! TF.SameCoordinates,7D9F505B-2EBF-4E8E-82AC-92A1240CC430*
G04*
G04*
G04 #@! TF.FilePolarity,Positive*
G04*
G01*
G75*
%ADD166C,0.0050*%
G36*
X072119Y025781D02*
D01*
D02*
G37*
D166*
X027680Y034253D02*
G03*
X028074Y034637I000005J000389D01*
G01*
X013627Y034645D02*
G03*
X014011Y034252I000389J-000005D01*
G01*
X014021Y061385D02*
G03*
X013627Y061001I-000005J-000389D01*
G01*
X028073Y060992D02*
G03*
X027689Y061386I-000389J000005D01*
G01*
X037039Y060456D02*
G03*
X036655Y060850I-000389J000005D01*
G01*
X036643Y034778D02*
G03*
X037037Y035162I000005J000389D01*
G01*
X033027Y035173D02*
G03*
X033411Y034780I000389J-000005D01*
G01*
X033422Y060847D02*
G03*
X033028Y060464I-000005J-000389D01*
G01*
X071851Y016470D02*
G03*
X072235Y016076I000389J-000005D01*
G01*
X078445Y016078D02*
G03*
X078839Y016462I000005J000389D01*
G01*
X078843Y024725D02*
G03*
X078459Y025119I-000389J000005D01*
G01*
X072244Y025116D02*
G03*
X071850Y024732I-000005J-000389D01*
G01*
X080709Y031035D02*
G03*
X080276Y030619I-000008J-000424D01*
G01*
X088261Y031037D02*
G03*
X088763Y031565I-000013J000515D01*
G01*
X080000Y010414D02*
G03*
X080272Y010768I-000118J000372D01*
G01*
X010384Y067020D02*
G03*
X009995Y066624I000003J-000392D01*
G01*
X088772Y066539D02*
G03*
X088281Y067024I-000489J-000004D01*
G01*
X010000Y010889D02*
G03*
X010477Y010414I000475J000000D01*
G01*
X028073Y034638D02*
Y060996D01*
X014027Y034254D02*
X027689D01*
X014025Y034252D02*
X014027Y034254D01*
X013629Y034648D02*
Y061007D01*
X014007Y061385D02*
X027683D01*
X037037Y035159D02*
Y060471D01*
X033416Y060849D02*
X036659D01*
X033412Y034779D02*
X036657D01*
X033027Y035164D02*
Y060460D01*
X071849Y016474D02*
Y024749D01*
X072248Y016076D02*
X078444D01*
X078842Y016473D02*
Y024725D01*
X078494Y025116D02*
X078497Y025113D01*
X072217Y025116D02*
X078494D01*
X011496Y061360D02*
Y064860D01*
X009996D02*
X011496D01*
X009996Y061360D02*
X011496D01*
X009995Y066619D02*
X009996Y056993D01*
X080276Y010768D02*
X080276Y030619D01*
X080709Y031035D02*
X088256Y031035D01*
X028073Y048226D02*
X028073Y048226D01*
X088763Y031565D02*
X088770Y066531D01*
X010384Y067020D02*
X088283Y067020D01*
X011835Y014086D02*
X011835Y014402D01*
X012065Y019144D02*
Y019467D01*
X014045Y014086D02*
Y014402D01*
X014103Y019144D02*
Y019467D01*
X011280Y014077D02*
Y015852D01*
X011280Y016432D02*
Y018551D01*
X011596Y014076D02*
Y015852D01*
X011596Y016432D02*
Y018551D01*
X014298Y016553D02*
Y018642D01*
X014613Y016553D02*
Y018642D01*
X014298Y014081D02*
Y016225D01*
X014613Y014081D02*
Y016225D01*
X011280Y014077D02*
X011596Y014076D01*
X011280Y015852D02*
X011596D01*
X011280Y018551D02*
X011596D01*
X014298Y014081D02*
X014613D01*
X014298Y016225D02*
X014613Y016225D01*
X014298Y016553D02*
X014613D01*
X014298Y018642D02*
X014613Y018642D01*
X011280Y016432D02*
X011596Y016432D01*
X011835Y014402D02*
X014045D01*
X011835Y014086D02*
X014045D01*
X012065Y019144D02*
X014103Y019144D01*
X012065Y019467D02*
X014103D01*
X009996Y056993D02*
X010000Y010889D01*
X010477Y010414D02*
X080000Y010414D01*
M02*
