G04*
G04 #@! TF.GenerationSoftware,Altium Limited,Altium Designer,20.1.8 (145)*
G04*
G04 Layer_Color=16711935*
%FSAX24Y24*%
%MOIN*%
G70*
G04*
G04 #@! TF.SameCoordinates,7D9F505B-2EBF-4E8E-82AC-92A1240CC430*
G04*
G04*
G04 #@! TF.FilePolarity,Negative*
G04*
G01*
G75*
%ADD28R,0.0400X0.0480*%
%ADD30R,0.0680X0.0680*%
%ADD33R,0.0680X0.0680*%
%ADD35C,0.0474*%
%ADD36R,0.0474X0.0474*%
%ADD37C,0.1064*%
%ADD38C,0.0315*%
%ADD39C,0.0295*%
%ADD40C,0.0630*%
%ADD41C,0.1380*%
%ADD42C,0.0277*%
%ADD43O,0.0552X0.0410*%
%ADD44C,0.0198*%
%ADD45C,0.0395*%
%ADD104R,0.0530X0.0630*%
%ADD105R,0.0630X0.0530*%
%ADD106R,0.1064X0.0552*%
%ADD107R,0.0591X0.0807*%
%ADD108R,0.1417X0.0630*%
%ADD109R,0.1417X0.0591*%
%ADD110R,0.1417X0.0669*%
%ADD111R,0.1260X0.0512*%
%ADD112R,0.0669X0.0354*%
%ADD113R,0.0415X0.0198*%
%ADD114R,0.1261X0.0474*%
%ADD115R,0.1261X0.0474*%
%ADD116R,0.3623X0.4096*%
%ADD117R,0.1261X0.0500*%
%ADD118R,0.1261X0.0474*%
%ADD119R,0.0552X0.1163*%
%ADD120R,0.0395X0.0513*%
%ADD121R,0.0371X0.0867*%
%ADD122R,0.0474X0.1261*%
%ADD123O,0.0198X0.0552*%
%ADD124R,0.0198X0.0552*%
%ADD125O,0.0552X0.0198*%
%ADD126O,0.0198X0.0710*%
%ADD127O,0.0730X0.0178*%
%ADD128R,0.0440X0.0440*%
%ADD129R,0.0580X0.0440*%
%ADD130R,0.1415X0.0852*%
%ADD131R,0.2442X0.1261*%
%ADD132R,0.0867X0.0867*%
%ADD133R,0.0580X0.0780*%
%ADD134R,0.0395X0.0434*%
%ADD135R,0.0631X0.0946*%
%ADD136R,0.0434X0.0395*%
%ADD137O,0.0198X0.0671*%
%ADD138O,0.0671X0.0198*%
%ADD139R,0.0671X0.0198*%
%ADD140R,0.0828X0.0592*%
%ADD141O,0.0320X0.0880*%
%ADD142O,0.0178X0.0730*%
%ADD143O,0.0178X0.0808*%
%ADD144R,0.0493X0.0316*%
%ADD145R,0.0867X0.1458*%
%ADD146R,0.0635X0.0198*%
%ADD147R,0.0474X0.0198*%
%ADD148R,0.0474X0.0474*%
%ADD149R,0.0780X0.0580*%
G36*
X046649Y052008D02*
X046654Y052007D01*
X046659Y052006D01*
X046664Y052003D01*
X046668Y052000D01*
X046672Y051997D01*
X046675Y051993D01*
X046678Y051989D01*
X046681Y051984D01*
X046682Y051979D01*
X046683Y051974D01*
X046684Y051968D01*
Y051024D01*
X046683Y051018D01*
X046682Y051013D01*
X046681Y051008D01*
X046678Y051004D01*
X046675Y050999D01*
X046672Y050995D01*
X046672Y050995D01*
X046668Y050992D01*
X046664Y050989D01*
X046659Y050987D01*
X046654Y050985D01*
X046649Y050984D01*
X046644Y050984D01*
X045443D01*
X045437Y050984D01*
X045432Y050985D01*
X045427Y050987D01*
X045423Y050989D01*
X045418Y050992D01*
X045414Y050995D01*
X045411Y050999D01*
X045408Y051004D01*
X045406Y051008D01*
X045404Y051013D01*
X045403Y051018D01*
X045403Y051024D01*
Y051535D01*
X045403Y051541D01*
X045404Y051546D01*
X045406Y051551D01*
X045408Y051555D01*
X045411Y051560D01*
X045414Y051564D01*
X045418Y051567D01*
X045423Y051570D01*
X045427Y051572D01*
X045432Y051574D01*
X045437Y051575D01*
X045443Y051576D01*
X045737D01*
Y051968D01*
X045738Y051974D01*
X045739Y051979D01*
X045740Y051984D01*
X045743Y051989D01*
X045746Y051993D01*
X045749Y051997D01*
X045749Y051997D01*
X045753Y052000D01*
X045757Y052003D01*
X045762Y052006D01*
X045767Y052007D01*
X045772Y052008D01*
X045777Y052009D01*
X046644D01*
X046649Y052008D01*
D02*
G37*
G36*
X045443Y046339D02*
X046644D01*
X046649Y046339D01*
X046654Y046338D01*
X046659Y046336D01*
X046664Y046334D01*
X046668Y046331D01*
X046672Y046328D01*
X046675Y046324D01*
X046678Y046319D01*
X046681Y046315D01*
X046682Y046310D01*
X046683Y046304D01*
X046684Y046299D01*
Y045354D01*
X046683Y045349D01*
X046682Y045344D01*
X046681Y045339D01*
X046678Y045334D01*
X046675Y045330D01*
X046672Y045326D01*
X046668Y045323D01*
X046664Y045320D01*
X046659Y045317D01*
X046654Y045316D01*
X046649Y045315D01*
X046644Y045314D01*
X045777D01*
X045772Y045315D01*
X045767Y045316D01*
X045762Y045317D01*
X045757Y045320D01*
X045753Y045323D01*
X045749Y045326D01*
X045746Y045330D01*
X045743Y045334D01*
X045740Y045339D01*
X045739Y045344D01*
X045738Y045349D01*
X045737Y045354D01*
Y045747D01*
X045443D01*
X045437Y045748D01*
X045432Y045749D01*
X045427Y045750D01*
X045423Y045753D01*
X045418Y045756D01*
X045414Y045759D01*
X045411Y045763D01*
X045408Y045767D01*
X045406Y045772D01*
X045404Y045777D01*
X045403Y045782D01*
X045403Y045787D01*
Y046299D01*
X045403Y046304D01*
X045404Y046310D01*
X045406Y046315D01*
X045408Y046319D01*
X045411Y046324D01*
X045414Y046328D01*
X045418Y046331D01*
X045423Y046334D01*
X045427Y046336D01*
X045432Y046338D01*
X045437Y046339D01*
X045443Y046339D01*
X045443Y046339D01*
D02*
G37*
G36*
X028383Y024369D02*
Y024129D01*
X028003D01*
X028243Y024369D01*
X028003Y024609D01*
X028383D01*
Y024369D01*
D02*
G37*
G36*
X028223D02*
X027983Y024129D01*
X027883D01*
Y024609D01*
X027983D01*
X028223Y024369D01*
D02*
G37*
D28*
X028458D02*
D03*
X027783D02*
D03*
D30*
X026270Y028657D02*
D03*
Y030007D02*
D03*
X049388Y045513D02*
D03*
Y044163D02*
D03*
X026270Y025818D02*
D03*
Y027168D02*
D03*
X034973Y012430D02*
D03*
Y013780D02*
D03*
X070818Y044426D02*
D03*
Y043076D02*
D03*
X051027Y027659D02*
D03*
Y026309D02*
D03*
X046765D02*
D03*
Y027659D02*
D03*
X048151D02*
D03*
Y026309D02*
D03*
X049603Y027659D02*
D03*
Y026309D02*
D03*
X052477Y027659D02*
D03*
Y026309D02*
D03*
X057364Y036224D02*
D03*
Y037574D02*
D03*
X055737Y044562D02*
D03*
Y045912D02*
D03*
X015571Y022503D02*
D03*
Y023853D02*
D03*
D33*
X041704Y029331D02*
D03*
X040354D02*
D03*
X041673Y035085D02*
D03*
X040323D02*
D03*
X041734Y027904D02*
D03*
X040384D02*
D03*
X041643Y036486D02*
D03*
X040293D02*
D03*
X040323Y033684D02*
D03*
X041673D02*
D03*
X041685Y030781D02*
D03*
X040335D02*
D03*
X041685Y032185D02*
D03*
X040335D02*
D03*
X051545Y038355D02*
D03*
X052895D02*
D03*
X041635Y039341D02*
D03*
X040285D02*
D03*
X040256Y040778D02*
D03*
X041606D02*
D03*
X040293Y037925D02*
D03*
X041643D02*
D03*
X050845Y042869D02*
D03*
X052195D02*
D03*
X049727Y051541D02*
D03*
X051077D02*
D03*
X052739Y046821D02*
D03*
X051389D02*
D03*
D35*
X063114Y064918D02*
D03*
X063614D02*
D03*
X027831Y064290D02*
D03*
D36*
X064114Y064918D02*
D03*
X027331Y064290D02*
D03*
D37*
X016122Y064685D02*
D03*
X049567Y012195D02*
D03*
X058744Y035217D02*
D03*
Y064744D02*
D03*
X010787Y012116D02*
D03*
X087972Y064685D02*
D03*
X075944Y012238D02*
D03*
X029609Y035217D02*
D03*
X029609Y064744D02*
D03*
D38*
X086911Y035535D02*
D03*
X084902Y044390D02*
D03*
D39*
X086911Y037535D02*
D03*
X084902Y047362D02*
D03*
X011972Y054697D02*
D03*
X010472D02*
D03*
X010470Y041902D02*
D03*
X011970D02*
D03*
D40*
X084169Y055451D02*
D03*
Y053651D02*
D03*
Y054451D02*
D03*
Y052651D02*
D03*
D41*
X084869Y056651D02*
D03*
Y051451D02*
D03*
D42*
X086397Y061652D02*
D03*
X086642Y061494D02*
D03*
X086642Y061179D02*
D03*
X086397Y061022D02*
D03*
X086642Y060864D02*
D03*
X086397Y060707D02*
D03*
Y060392D02*
D03*
Y060077D02*
D03*
X086642Y060234D02*
D03*
Y059919D02*
D03*
Y059604D02*
D03*
X086397Y059447D02*
D03*
D43*
X086601Y058923D02*
D03*
X088329Y058781D02*
D03*
Y062317D02*
D03*
X086601Y062175D02*
D03*
D44*
X086109Y061994D02*
D03*
X086108Y059101D02*
D03*
D45*
X024100Y064016D02*
D03*
X017860D02*
D03*
X066780Y061991D02*
D03*
X060540D02*
D03*
D104*
X083662Y058781D02*
D03*
X083662Y057881D02*
D03*
X086892Y065386D02*
D03*
X086892Y064486D02*
D03*
X085207Y065386D02*
D03*
X085207Y064486D02*
D03*
X086052Y064493D02*
D03*
X086052Y065393D02*
D03*
X016732Y024498D02*
D03*
X016732Y023598D02*
D03*
X068531Y043578D02*
D03*
X068531Y044478D02*
D03*
X067729Y043578D02*
D03*
X067729Y044478D02*
D03*
X068051Y064282D02*
D03*
X068051Y063382D02*
D03*
X050246Y018431D02*
D03*
X050246Y019331D02*
D03*
X026270Y031565D02*
D03*
X026270Y032465D02*
D03*
X021043Y032435D02*
D03*
X021043Y031535D02*
D03*
X031459Y032454D02*
D03*
X031459Y031554D02*
D03*
X039395Y017899D02*
D03*
X039395Y016999D02*
D03*
X038568Y016991D02*
D03*
X038568Y017891D02*
D03*
X037734Y016991D02*
D03*
X037734Y017891D02*
D03*
X036181Y012441D02*
D03*
X036181Y013341D02*
D03*
X027062Y023461D02*
D03*
X027062Y024361D02*
D03*
X016152Y029508D02*
D03*
X016152Y028608D02*
D03*
X016171Y027032D02*
D03*
X016171Y026132D02*
D03*
X037060Y013348D02*
D03*
X037060Y012448D02*
D03*
X045196Y036617D02*
D03*
X045196Y037517D02*
D03*
X045543Y029153D02*
D03*
X045543Y030053D02*
D03*
X047576Y039069D02*
D03*
X047576Y039969D02*
D03*
X048816Y030044D02*
D03*
X048816Y029144D02*
D03*
X049603Y030053D02*
D03*
X049603Y029153D02*
D03*
X046397Y030052D02*
D03*
X046397Y029152D02*
D03*
X047183Y029153D02*
D03*
X047183Y030053D02*
D03*
X047980Y030044D02*
D03*
X047980Y029144D02*
D03*
X050417Y030053D02*
D03*
X050417Y029153D02*
D03*
X051215D02*
D03*
X051215Y030053D02*
D03*
X052009Y030070D02*
D03*
X052009Y029170D02*
D03*
X052895Y030071D02*
D03*
X052895Y029171D02*
D03*
X046774Y039955D02*
D03*
X046774Y039055D02*
D03*
X052719Y036401D02*
D03*
X052719Y035501D02*
D03*
X057364Y034557D02*
D03*
X057364Y033657D02*
D03*
X045946Y039041D02*
D03*
X045946Y039941D02*
D03*
X075771Y063783D02*
D03*
X075771Y064683D02*
D03*
X069370Y043578D02*
D03*
X069370Y044478D02*
D03*
X072025Y043586D02*
D03*
X072025Y044486D02*
D03*
X073737Y045341D02*
D03*
X073737Y046241D02*
D03*
X080920Y055478D02*
D03*
X080920Y056378D02*
D03*
X080481Y059022D02*
D03*
X080481Y059922D02*
D03*
X074344Y063783D02*
D03*
X074344Y064683D02*
D03*
X070554Y063390D02*
D03*
X070554Y064290D02*
D03*
X067719Y024252D02*
D03*
X067719Y025152D02*
D03*
X063760D02*
D03*
X063760Y024252D02*
D03*
X070095Y034734D02*
D03*
X070095Y033833D02*
D03*
X068292Y034739D02*
D03*
X068292Y033839D02*
D03*
X064355Y034716D02*
D03*
X064355Y033816D02*
D03*
X061163Y033839D02*
D03*
X061163Y034739D02*
D03*
X069215Y033848D02*
D03*
X069215Y034748D02*
D03*
X077141Y045611D02*
D03*
X077141Y046511D02*
D03*
X076328Y045599D02*
D03*
X076328Y046499D02*
D03*
X070948Y046516D02*
D03*
X070948Y047416D02*
D03*
X066914Y053895D02*
D03*
X066914Y052995D02*
D03*
X068906Y025152D02*
D03*
X068906Y024252D02*
D03*
X062606D02*
D03*
X062606Y025152D02*
D03*
X067111Y033839D02*
D03*
X067111Y034739D02*
D03*
X062190Y034725D02*
D03*
X062190Y033825D02*
D03*
X063185Y033808D02*
D03*
X063185Y034708D02*
D03*
X080195Y045599D02*
D03*
X080195Y046499D02*
D03*
X078479Y063410D02*
D03*
X078479Y062510D02*
D03*
X079276Y063417D02*
D03*
X079276Y062517D02*
D03*
X071373Y063399D02*
D03*
X071373Y064299D02*
D03*
X068905Y063382D02*
D03*
X068905Y064282D02*
D03*
X069738D02*
D03*
X069738Y063382D02*
D03*
X066626Y055996D02*
D03*
X066626Y055096D02*
D03*
X015337Y018114D02*
D03*
X015337Y017214D02*
D03*
X014401Y022530D02*
D03*
X014401Y023430D02*
D03*
X010875Y027406D02*
D03*
X010875Y028306D02*
D03*
X011973Y021166D02*
D03*
X011973Y020266D02*
D03*
X011975Y023432D02*
D03*
X011975Y022532D02*
D03*
X011139Y022522D02*
D03*
X011139Y023422D02*
D03*
X010838Y031727D02*
D03*
X010838Y032627D02*
D03*
X011691D02*
D03*
X011691Y031727D02*
D03*
X012545D02*
D03*
X012545Y032627D02*
D03*
X013478D02*
D03*
X013478Y031727D02*
D03*
X011136Y020246D02*
D03*
X011136Y021146D02*
D03*
X012778Y020257D02*
D03*
X012778Y021157D02*
D03*
X017480Y022662D02*
D03*
X017480Y021762D02*
D03*
X049144Y055654D02*
D03*
X049144Y054754D02*
D03*
X048327Y054774D02*
D03*
X048327Y055674D02*
D03*
X050738D02*
D03*
X050738Y054774D02*
D03*
X049950Y055654D02*
D03*
X049949Y054754D02*
D03*
X051536Y055661D02*
D03*
X051536Y054761D02*
D03*
X052337Y055654D02*
D03*
X052337Y054754D02*
D03*
X038898Y061470D02*
D03*
X038898Y060570D02*
D03*
X053794Y045057D02*
D03*
X053794Y044157D02*
D03*
X052895Y045057D02*
D03*
X052895Y044157D02*
D03*
X078346Y015359D02*
D03*
X078346Y014459D02*
D03*
X084390Y035855D02*
D03*
X084390Y034955D02*
D03*
X084385Y037689D02*
D03*
X084385Y036789D02*
D03*
X047963Y050872D02*
D03*
X047963Y051772D02*
D03*
D105*
X065971Y044522D02*
D03*
X066871Y044522D02*
D03*
X082022Y050770D02*
D03*
X081122Y050770D02*
D03*
X028024Y018283D02*
D03*
X027124Y018283D02*
D03*
Y019068D02*
D03*
X028024Y019068D02*
D03*
X081584Y062282D02*
D03*
X082484Y062282D02*
D03*
X082452Y061132D02*
D03*
X083352Y061132D02*
D03*
X065455Y057053D02*
D03*
X066355Y057053D02*
D03*
X037298Y030212D02*
D03*
X036398Y030212D02*
D03*
X037298Y031009D02*
D03*
X036398Y031009D02*
D03*
X034104Y029622D02*
D03*
X033204Y029622D02*
D03*
X034104Y030512D02*
D03*
X033204Y030512D02*
D03*
X034104Y031332D02*
D03*
X033204Y031332D02*
D03*
X034104Y033885D02*
D03*
X033204Y033885D02*
D03*
X037298Y033012D02*
D03*
X036398Y033012D02*
D03*
X037298Y032224D02*
D03*
X036398Y032224D02*
D03*
X063630Y022031D02*
D03*
X064530Y022031D02*
D03*
X027124Y019857D02*
D03*
X028024Y019857D02*
D03*
X018000Y027844D02*
D03*
X017100Y027844D02*
D03*
X017993Y028659D02*
D03*
X017093Y028659D02*
D03*
X018000Y029508D02*
D03*
X017100Y029508D02*
D03*
X018006Y027037D02*
D03*
X017106Y027037D02*
D03*
X017992Y026250D02*
D03*
X017092Y026250D02*
D03*
X017093Y025459D02*
D03*
X017993Y025459D02*
D03*
X076516Y013489D02*
D03*
X075616Y013489D02*
D03*
X077486Y013484D02*
D03*
X078386Y013484D02*
D03*
X084340Y041024D02*
D03*
X083440Y041024D02*
D03*
X083427Y041880D02*
D03*
X084327Y041880D02*
D03*
X063622Y023022D02*
D03*
X064522Y023022D02*
D03*
X028577Y012293D02*
D03*
X027677Y012293D02*
D03*
X055060Y036011D02*
D03*
X055960Y036011D02*
D03*
X044302Y037420D02*
D03*
X043402Y037420D02*
D03*
X044302Y038217D02*
D03*
X043402Y038217D02*
D03*
X043416Y039055D02*
D03*
X044316Y039055D02*
D03*
X043419Y031805D02*
D03*
X044319Y031805D02*
D03*
X043419Y030212D02*
D03*
X044319Y030212D02*
D03*
X044311Y035798D02*
D03*
X043411Y035798D02*
D03*
X043411Y033390D02*
D03*
X044311Y033390D02*
D03*
X044302Y032590D02*
D03*
X043402Y032590D02*
D03*
X043403Y031000D02*
D03*
X044303Y031000D02*
D03*
X055053Y033469D02*
D03*
X055953Y033469D02*
D03*
X055053Y034350D02*
D03*
X055953Y034350D02*
D03*
X043410Y036613D02*
D03*
X044310Y036613D02*
D03*
X055956Y035204D02*
D03*
X055056Y035204D02*
D03*
X055053Y036855D02*
D03*
X055953Y036855D02*
D03*
X055941Y038499D02*
D03*
X055041Y038499D02*
D03*
X049285Y038357D02*
D03*
X050185Y038357D02*
D03*
X043419Y034992D02*
D03*
X044319Y034992D02*
D03*
X055948Y032616D02*
D03*
X055048Y032616D02*
D03*
X055941Y031823D02*
D03*
X055041Y031823D02*
D03*
Y031039D02*
D03*
X055941Y031039D02*
D03*
X055949Y037700D02*
D03*
X055049Y037700D02*
D03*
X055944Y030214D02*
D03*
X055044Y030214D02*
D03*
X044319Y034203D02*
D03*
X043419Y034203D02*
D03*
X069420Y046973D02*
D03*
X068520Y046973D02*
D03*
X064387Y050230D02*
D03*
X065287Y050230D02*
D03*
X081157Y051740D02*
D03*
X082057Y051740D02*
D03*
X065287Y058853D02*
D03*
X064387Y058853D02*
D03*
X076788Y047796D02*
D03*
X077688Y047796D02*
D03*
X058110Y061752D02*
D03*
X057210Y061752D02*
D03*
Y060846D02*
D03*
X058110Y060846D02*
D03*
X082030Y049767D02*
D03*
X081130Y049767D02*
D03*
X080807Y053612D02*
D03*
X081707Y053612D02*
D03*
X055426Y057447D02*
D03*
X054526Y057447D02*
D03*
X055418Y058262D02*
D03*
X054518Y058262D02*
D03*
X055418Y061703D02*
D03*
X054518Y061703D02*
D03*
Y060846D02*
D03*
X055418Y060846D02*
D03*
X054487Y059090D02*
D03*
X055387Y059090D02*
D03*
X054508Y059990D02*
D03*
X055408Y059990D02*
D03*
X057913Y044419D02*
D03*
X057013Y044419D02*
D03*
X015337Y020277D02*
D03*
X014437Y020277D02*
D03*
X015378Y021265D02*
D03*
X014478Y021265D02*
D03*
X010970Y030598D02*
D03*
X011870Y030598D02*
D03*
X010877Y026336D02*
D03*
X011777Y026336D02*
D03*
X087065Y040950D02*
D03*
X087965Y040950D02*
D03*
X047161Y019852D02*
D03*
X048061Y019852D02*
D03*
X050636Y044163D02*
D03*
X051536Y044163D02*
D03*
X053071Y052598D02*
D03*
X052171Y052598D02*
D03*
X053639Y049013D02*
D03*
X052739Y049013D02*
D03*
X050177Y052598D02*
D03*
X051077Y052598D02*
D03*
X052739Y049823D02*
D03*
X053639Y049823D02*
D03*
X087065Y040017D02*
D03*
X087965Y040017D02*
D03*
X050636Y045028D02*
D03*
X051536Y045028D02*
D03*
X051077Y050244D02*
D03*
X050177Y050244D02*
D03*
X083427Y038563D02*
D03*
X084327Y038563D02*
D03*
X085463Y041880D02*
D03*
X086363Y041880D02*
D03*
X083440Y040204D02*
D03*
X084340Y040204D02*
D03*
X084327Y039389D02*
D03*
X083427Y039389D02*
D03*
X047963Y042869D02*
D03*
X048863Y042869D02*
D03*
D106*
X012146Y063910D02*
D03*
Y062310D02*
D03*
Y063110D02*
D03*
D107*
X085661Y037535D02*
D03*
Y036535D02*
D03*
Y035535D02*
D03*
X087411Y038535D02*
D03*
Y034535D02*
D03*
X086634Y042943D02*
D03*
D108*
X087795Y042854D02*
D03*
D109*
Y048740D02*
D03*
D110*
X083465Y048701D02*
D03*
D111*
X083268Y042795D02*
D03*
D112*
X082618Y043297D02*
D03*
Y043750D02*
D03*
Y044183D02*
D03*
Y044616D02*
D03*
Y045049D02*
D03*
Y045482D02*
D03*
Y045915D02*
D03*
Y046348D02*
D03*
Y046782D02*
D03*
D113*
X085912Y061238D02*
D03*
Y061435D02*
D03*
Y061041D02*
D03*
Y060844D02*
D03*
Y060648D02*
D03*
Y060451D02*
D03*
Y060254D02*
D03*
Y060057D02*
D03*
Y059467D02*
D03*
Y059860D02*
D03*
Y059663D02*
D03*
Y061632D02*
D03*
D114*
X052003Y020797D02*
D03*
Y020010D02*
D03*
D115*
Y019222D02*
D03*
Y018435D02*
D03*
Y017648D02*
D03*
Y016860D02*
D03*
Y016073D02*
D03*
Y015285D02*
D03*
X057923D02*
D03*
Y016073D02*
D03*
Y016860D02*
D03*
Y017648D02*
D03*
Y018435D02*
D03*
Y019222D02*
D03*
Y020010D02*
D03*
Y020797D02*
D03*
D116*
X031289Y015262D02*
D03*
D117*
X027401Y015938D02*
D03*
Y013928D02*
D03*
Y016608D02*
D03*
Y014598D02*
D03*
Y015262D02*
D03*
D118*
X027608Y032441D02*
D03*
X029970D02*
D03*
X022461Y032454D02*
D03*
X024823D02*
D03*
X022461Y029360D02*
D03*
X024823D02*
D03*
X027610Y029360D02*
D03*
X029972D02*
D03*
D119*
X024218Y064970D02*
D03*
X017742D02*
D03*
X024218Y063061D02*
D03*
X017742D02*
D03*
X066899Y062945D02*
D03*
X060422D02*
D03*
X066899Y061036D02*
D03*
X060422D02*
D03*
D120*
X023230Y065098D02*
D03*
X022730D02*
D03*
X022230D02*
D03*
X021730D02*
D03*
X021230D02*
D03*
X020730D02*
D03*
X020230D02*
D03*
X019730D02*
D03*
X019230D02*
D03*
X018730D02*
D03*
X023230Y062933D02*
D03*
X022730D02*
D03*
X022230D02*
D03*
X021730D02*
D03*
X021230D02*
D03*
X020730D02*
D03*
X020230D02*
D03*
X019730D02*
D03*
X019230D02*
D03*
X018730D02*
D03*
X065910Y063073D02*
D03*
X065410D02*
D03*
X064910D02*
D03*
X064410D02*
D03*
X063910D02*
D03*
X063410D02*
D03*
X062910D02*
D03*
X062410D02*
D03*
X061910D02*
D03*
X061410D02*
D03*
X065910Y060908D02*
D03*
X065410D02*
D03*
X064910D02*
D03*
X064410D02*
D03*
X063910D02*
D03*
X063410D02*
D03*
X062910D02*
D03*
X062410D02*
D03*
X061910D02*
D03*
X061410D02*
D03*
D121*
X031738Y063020D02*
D03*
X032238D02*
D03*
X032738D02*
D03*
X033238D02*
D03*
X033738D02*
D03*
X034238D02*
D03*
X034738D02*
D03*
X035238D02*
D03*
X035738D02*
D03*
X036238D02*
D03*
X031738Y064520D02*
D03*
X032238D02*
D03*
X032738D02*
D03*
X033238D02*
D03*
X033738D02*
D03*
X034238D02*
D03*
X034738D02*
D03*
X035238D02*
D03*
X035738D02*
D03*
X036238D02*
D03*
D122*
X019664Y020081D02*
D03*
Y022444D02*
D03*
D123*
X069823Y048982D02*
D03*
X069429D02*
D03*
X069626D02*
D03*
X069035D02*
D03*
X068838D02*
D03*
X069232D02*
D03*
X071594D02*
D03*
X071200D02*
D03*
X071397D02*
D03*
X070807D02*
D03*
X070610D02*
D03*
X071004D02*
D03*
X070216D02*
D03*
X070019D02*
D03*
X070413D02*
D03*
X073366D02*
D03*
X072972D02*
D03*
X073169D02*
D03*
X072578D02*
D03*
X072382D02*
D03*
X072775D02*
D03*
X071988D02*
D03*
X071791D02*
D03*
X072185D02*
D03*
X075137D02*
D03*
X074744D02*
D03*
X074941D02*
D03*
X074350D02*
D03*
X074153D02*
D03*
X074547D02*
D03*
X073563D02*
D03*
X073956D02*
D03*
X076909D02*
D03*
X076515D02*
D03*
X076712D02*
D03*
X076122D02*
D03*
X075925D02*
D03*
X076319D02*
D03*
X075531D02*
D03*
X075334D02*
D03*
X075728D02*
D03*
X077500D02*
D03*
X077106D02*
D03*
X077303D02*
D03*
X078090D02*
D03*
X077697D02*
D03*
X077893D02*
D03*
X078484D02*
D03*
X078287D02*
D03*
X078681D02*
D03*
X073760D02*
D03*
X068838Y060596D02*
D03*
X077893D02*
D03*
X078287D02*
D03*
X078090D02*
D03*
X078681D02*
D03*
X078878D02*
D03*
X078484D02*
D03*
X076122D02*
D03*
X076515D02*
D03*
X076319D02*
D03*
X076909D02*
D03*
X077106D02*
D03*
X076712D02*
D03*
X077500D02*
D03*
X077697D02*
D03*
X077303D02*
D03*
X074350D02*
D03*
X074744D02*
D03*
X074547D02*
D03*
X075137D02*
D03*
X075334D02*
D03*
X074941D02*
D03*
X075728D02*
D03*
X075925D02*
D03*
X075531D02*
D03*
X072578D02*
D03*
X072972D02*
D03*
X072775D02*
D03*
X073366D02*
D03*
X073563D02*
D03*
X073169D02*
D03*
X074153D02*
D03*
X073759D02*
D03*
X070807D02*
D03*
X071200D02*
D03*
X071004D02*
D03*
X071594D02*
D03*
X071791D02*
D03*
X071397D02*
D03*
X072185D02*
D03*
X072382D02*
D03*
X071988D02*
D03*
X070216D02*
D03*
X070610D02*
D03*
X070413D02*
D03*
X069626D02*
D03*
X070019D02*
D03*
X069823D02*
D03*
X069232D02*
D03*
X069429D02*
D03*
X069035D02*
D03*
X073956D02*
D03*
D124*
X078878Y048982D02*
D03*
D125*
X068051Y054888D02*
D03*
Y049966D02*
D03*
Y050360D02*
D03*
Y050163D02*
D03*
Y050754D02*
D03*
Y050951D02*
D03*
Y050557D02*
D03*
Y051344D02*
D03*
Y051541D02*
D03*
Y051147D02*
D03*
Y052919D02*
D03*
Y053313D02*
D03*
Y053116D02*
D03*
Y052329D02*
D03*
Y052722D02*
D03*
Y052525D02*
D03*
Y051935D02*
D03*
Y052132D02*
D03*
Y051738D02*
D03*
Y054691D02*
D03*
Y055084D02*
D03*
Y054100D02*
D03*
Y054494D02*
D03*
Y054297D02*
D03*
Y053706D02*
D03*
Y053903D02*
D03*
Y053510D02*
D03*
Y056462D02*
D03*
Y056856D02*
D03*
Y056659D02*
D03*
Y055872D02*
D03*
Y056266D02*
D03*
Y056069D02*
D03*
Y055478D02*
D03*
Y055675D02*
D03*
Y055281D02*
D03*
Y058234D02*
D03*
Y058628D02*
D03*
Y058431D02*
D03*
Y057643D02*
D03*
Y058037D02*
D03*
Y057840D02*
D03*
Y057250D02*
D03*
Y057447D02*
D03*
Y057053D02*
D03*
Y059415D02*
D03*
Y059809D02*
D03*
Y059612D02*
D03*
Y059021D02*
D03*
Y059218D02*
D03*
Y058825D02*
D03*
Y049769D02*
D03*
X079665D02*
D03*
Y058825D02*
D03*
Y059218D02*
D03*
Y059021D02*
D03*
Y059612D02*
D03*
Y059809D02*
D03*
Y059415D02*
D03*
Y057053D02*
D03*
Y057447D02*
D03*
Y057250D02*
D03*
Y057840D02*
D03*
Y058037D02*
D03*
Y057643D02*
D03*
Y058431D02*
D03*
Y058628D02*
D03*
Y058234D02*
D03*
Y055281D02*
D03*
Y055675D02*
D03*
Y055478D02*
D03*
Y056069D02*
D03*
Y056266D02*
D03*
Y055872D02*
D03*
Y056659D02*
D03*
Y056856D02*
D03*
Y056462D02*
D03*
Y053510D02*
D03*
Y053903D02*
D03*
Y053706D02*
D03*
Y054297D02*
D03*
Y054494D02*
D03*
Y054100D02*
D03*
Y055084D02*
D03*
Y054691D02*
D03*
Y051738D02*
D03*
Y052132D02*
D03*
Y051935D02*
D03*
Y052525D02*
D03*
Y052722D02*
D03*
Y052329D02*
D03*
Y053116D02*
D03*
Y053313D02*
D03*
Y052919D02*
D03*
Y051147D02*
D03*
Y051541D02*
D03*
Y051344D02*
D03*
Y050557D02*
D03*
Y050951D02*
D03*
Y050754D02*
D03*
Y050163D02*
D03*
Y050360D02*
D03*
Y049966D02*
D03*
Y054888D02*
D03*
D126*
X069865Y026795D02*
D03*
X069668D02*
D03*
X069471D02*
D03*
X069274D02*
D03*
X069077D02*
D03*
X068880D02*
D03*
X068684D02*
D03*
X068487D02*
D03*
X068290D02*
D03*
X068093D02*
D03*
X067896D02*
D03*
X067699D02*
D03*
X067502D02*
D03*
X067306D02*
D03*
X067109D02*
D03*
X066912D02*
D03*
X066715D02*
D03*
X066518D02*
D03*
X066321D02*
D03*
X066124D02*
D03*
X065928D02*
D03*
X065731D02*
D03*
X065534D02*
D03*
X065337D02*
D03*
X065140D02*
D03*
X064943D02*
D03*
X064747D02*
D03*
X064550D02*
D03*
X064353D02*
D03*
X064156D02*
D03*
X063959D02*
D03*
X063762D02*
D03*
X063565D02*
D03*
X063369D02*
D03*
X063172D02*
D03*
X062975D02*
D03*
X062778D02*
D03*
X062581D02*
D03*
X062384D02*
D03*
X062187D02*
D03*
X061991D02*
D03*
X061794D02*
D03*
X061597D02*
D03*
X069865Y031126D02*
D03*
X069668D02*
D03*
X069471D02*
D03*
X069274D02*
D03*
X069077D02*
D03*
X068880D02*
D03*
X068684D02*
D03*
X068487D02*
D03*
X068290D02*
D03*
X068093D02*
D03*
X067896D02*
D03*
X067699D02*
D03*
X067502D02*
D03*
X067306D02*
D03*
X067109D02*
D03*
X066912D02*
D03*
X066715D02*
D03*
X066518D02*
D03*
X066321D02*
D03*
X066124D02*
D03*
X065928D02*
D03*
X065731D02*
D03*
X065534D02*
D03*
X065337D02*
D03*
X065140D02*
D03*
X064943D02*
D03*
X064747D02*
D03*
X064550D02*
D03*
X064353D02*
D03*
X064156D02*
D03*
X063959D02*
D03*
X063762D02*
D03*
X063565D02*
D03*
X063369D02*
D03*
X063172D02*
D03*
X062975D02*
D03*
X062778D02*
D03*
X062581D02*
D03*
X062384D02*
D03*
X062187D02*
D03*
X061991D02*
D03*
X061794D02*
D03*
X061597D02*
D03*
D127*
X032825Y032224D02*
D03*
Y032421D02*
D03*
Y032618D02*
D03*
Y032815D02*
D03*
Y033012D02*
D03*
X034419Y032224D02*
D03*
Y032421D02*
D03*
Y032618D02*
D03*
Y032815D02*
D03*
Y033012D02*
D03*
D128*
X036506Y017896D02*
D03*
Y017146D02*
D03*
D129*
X035706Y017516D02*
D03*
D130*
X019808Y015612D02*
D03*
X019811Y013156D02*
D03*
D131*
X023659Y017427D02*
D03*
X023661Y013097D02*
D03*
X023661Y020039D02*
D03*
X023659Y024369D02*
D03*
D132*
X011872Y053547D02*
D03*
X010572D02*
D03*
X011872Y055847D02*
D03*
X010572D02*
D03*
X010570Y043052D02*
D03*
X011870D02*
D03*
X010570Y040752D02*
D03*
X011870D02*
D03*
D133*
X072339Y012451D02*
D03*
X073789D02*
D03*
X072339Y013829D02*
D03*
X073789D02*
D03*
X077047Y015207D02*
D03*
X075597D02*
D03*
X072303Y015197D02*
D03*
X073753D02*
D03*
D134*
X013078Y018068D02*
D03*
X013464Y018856D02*
D03*
X012692D02*
D03*
X052685Y060643D02*
D03*
X053457D02*
D03*
X053071Y059856D02*
D03*
D135*
X012566Y017143D02*
D03*
Y015254D02*
D03*
X013551D02*
D03*
Y017143D02*
D03*
D136*
X034803Y029622D02*
D03*
X035591Y029236D02*
D03*
Y030007D02*
D03*
X053967Y063925D02*
D03*
Y064697D02*
D03*
X054754Y064311D02*
D03*
D137*
X049209Y033127D02*
D03*
X049013Y036749D02*
D03*
X049603Y033127D02*
D03*
X049997Y036749D02*
D03*
X048816Y036749D02*
D03*
X049013Y033127D02*
D03*
X049406Y036749D02*
D03*
X049997Y033127D02*
D03*
X049209Y036749D02*
D03*
X050194Y033127D02*
D03*
X049406Y033127D02*
D03*
X049800D02*
D03*
X050587Y036749D02*
D03*
X049603Y036749D02*
D03*
X048422Y033127D02*
D03*
X048619Y036749D02*
D03*
X048816Y033127D02*
D03*
X050391Y033127D02*
D03*
X050587D02*
D03*
X048422Y036749D02*
D03*
X048619Y033127D02*
D03*
X049800Y036749D02*
D03*
X050391Y036749D02*
D03*
X050194Y036749D02*
D03*
D138*
X047694Y034840D02*
D03*
X051316Y034446D02*
D03*
X051316Y035233D02*
D03*
Y035627D02*
D03*
Y035430D02*
D03*
X047694Y035430D02*
D03*
Y035233D02*
D03*
Y035037D02*
D03*
Y034643D02*
D03*
Y034446D02*
D03*
Y034249D02*
D03*
X051316Y034643D02*
D03*
Y034840D02*
D03*
X051316Y035037D02*
D03*
X047694Y035824D02*
D03*
Y035627D02*
D03*
X047694Y034052D02*
D03*
Y033856D02*
D03*
X051316Y033856D02*
D03*
X047694Y036021D02*
D03*
X051316Y034052D02*
D03*
X051316Y035824D02*
D03*
X051316Y034249D02*
D03*
D139*
X051316Y036021D02*
D03*
D140*
X078051Y044345D02*
D03*
Y046511D02*
D03*
X079311Y044345D02*
D03*
Y046511D02*
D03*
D141*
X012387Y029605D02*
D03*
X011887D02*
D03*
Y027405D02*
D03*
X012887Y029605D02*
D03*
X013387D02*
D03*
X013887D02*
D03*
X014887Y027405D02*
D03*
X012887D02*
D03*
X013387D02*
D03*
X013887D02*
D03*
X014387Y029605D02*
D03*
X012387Y027405D02*
D03*
X014387D02*
D03*
X014887Y029605D02*
D03*
D142*
X012740Y024116D02*
D03*
X013134D02*
D03*
X013331D02*
D03*
X013528D02*
D03*
X012740Y022522D02*
D03*
X012937D02*
D03*
X013134D02*
D03*
X013331D02*
D03*
X013528D02*
D03*
D143*
X012937Y024077D02*
D03*
D144*
X085187Y040950D02*
D03*
Y040576D02*
D03*
Y040202D02*
D03*
X086250Y040950D02*
D03*
Y040202D02*
D03*
X048218Y017677D02*
D03*
Y018051D02*
D03*
Y018425D02*
D03*
X047156Y017677D02*
D03*
Y018425D02*
D03*
X051656Y048639D02*
D03*
Y048265D02*
D03*
Y049013D02*
D03*
X050593Y048265D02*
D03*
Y048639D02*
D03*
Y049013D02*
D03*
D145*
X046122Y053858D02*
D03*
X046128Y057165D02*
D03*
D146*
X046704Y054823D02*
D03*
Y055807D02*
D03*
Y055020D02*
D03*
Y055217D02*
D03*
Y055413D02*
D03*
Y055610D02*
D03*
Y056004D02*
D03*
Y056201D02*
D03*
D147*
X046841Y048957D02*
D03*
Y048366D02*
D03*
Y048760D02*
D03*
Y048169D02*
D03*
Y049350D02*
D03*
Y047972D02*
D03*
Y049547D02*
D03*
Y047776D02*
D03*
Y049744D02*
D03*
Y047579D02*
D03*
Y047382D02*
D03*
Y049154D02*
D03*
Y050138D02*
D03*
Y047185D02*
D03*
Y050335D02*
D03*
Y046988D02*
D03*
Y048563D02*
D03*
Y049941D02*
D03*
Y050531D02*
D03*
Y046791D02*
D03*
D148*
X046153Y051470D02*
D03*
Y045853D02*
D03*
D149*
X049388Y046815D02*
D03*
Y048265D02*
D03*
M02*
