G04*
G04 #@! TF.GenerationSoftware,Altium Limited,Altium Designer,20.1.8 (145)*
G04*
G04 Layer_Color=39423*
%FSAX24Y24*%
%MOIN*%
G70*
G04*
G04 #@! TF.SameCoordinates,C37C2F13-19AF-4E89-93B9-DE42FBC32811*
G04*
G04*
G04 #@! TF.FilePolarity,Positive*
G04*
G01*
G75*
%ADD10C,0.0100*%
%ADD11C,0.0315*%
%ADD12C,0.0039*%
%ADD15C,0.0098*%
%ADD16C,0.0079*%
%ADD17C,0.0197*%
%ADD20C,0.0060*%
%ADD22C,0.0120*%
%ADD24C,0.0080*%
%ADD146C,0.0400*%
%ADD147C,0.0050*%
%ADD148R,0.1290X0.0120*%
%ADD149R,0.0500X0.1650*%
D10*
X041063Y058130D02*
G03*
X041063Y058130I-004843J000000D01*
G01*
X043131D02*
G03*
X043131Y058130I-006911J000000D01*
G01*
X015532Y036340D02*
X040040Y036340D01*
X015532Y038308D02*
X040040Y038308D01*
X015532Y016655D02*
X040040Y016655D01*
X016024Y014686D02*
X040040Y014686D01*
X040040Y038308D02*
X040040Y038308D01*
Y013702D02*
X042500D01*
X040040D02*
Y039785D01*
X042500D01*
Y013702D02*
Y039785D01*
X040335Y031222D02*
X042205D01*
X040335Y021773D02*
X042205D01*
X010165Y051236D02*
X010366D01*
X010136Y049236D02*
X010366D01*
Y051236D01*
X010140Y050236D02*
X010366D01*
X046797Y032894D02*
X049257D01*
X046501Y032599D02*
X046797Y032894D01*
X049454Y031221D02*
Y032697D01*
X049257Y032894D02*
X049454Y032697D01*
X049159Y030926D02*
X049454Y031221D01*
X046797Y030926D02*
X049159D01*
X046501Y031221D02*
X046797Y030926D01*
X046501Y031221D02*
Y032599D01*
X072456Y048841D02*
X072856D01*
Y048541D01*
X072656Y048641D01*
X072556D01*
X072456Y048541D01*
Y048341D01*
X072556Y048241D01*
X072756D01*
X072856Y048341D01*
X071856Y048741D02*
X071956Y048841D01*
X072156D01*
X072256Y048741D01*
Y048641D01*
X072156Y048541D01*
X071956D01*
X071856Y048441D01*
Y048341D01*
X071956Y048241D01*
X072156D01*
X072256Y048341D01*
X071057Y048541D02*
X070657D01*
X069457Y048241D02*
X069857D01*
X069457Y048641D01*
Y048741D01*
X069557Y048841D01*
X069757D01*
X069857Y048741D01*
X069257Y048241D02*
X069057D01*
X069157D01*
Y048841D01*
X069257Y048741D01*
X068757Y048841D02*
X068358D01*
Y048741D01*
X068757Y048341D01*
Y048241D01*
X068158Y048741D02*
X068058Y048841D01*
X067858D01*
X067758Y048741D01*
Y048341D01*
X067858Y048241D01*
X068058D01*
X068158Y048341D01*
Y048741D01*
X067558D02*
X067458Y048841D01*
X067258D01*
X067158Y048741D01*
Y048341D01*
X067258Y048241D01*
X067458D01*
X067558Y048341D01*
Y048741D01*
X066858Y048141D02*
X066758Y048241D01*
Y048341D01*
X066858D01*
Y048241D01*
X066758D01*
X066858Y048141D01*
X066958Y048041D01*
X065758Y048641D02*
X065558Y048241D01*
X065358Y048641D01*
X064559Y048741D02*
X064459Y048841D01*
X064259D01*
X064159Y048741D01*
Y048341D01*
X064259Y048241D01*
X064459D01*
X064559Y048341D01*
Y048741D01*
X063959Y048241D02*
Y048341D01*
X063859D01*
Y048241D01*
X063959D01*
X063459D02*
X063259D01*
X063359D01*
Y048841D01*
X063459Y048741D01*
D11*
X016687Y064756D02*
G03*
X016687Y064756I-000585J000000D01*
G01*
X088536Y064756D02*
G03*
X088536Y064756I-000585J000000D01*
G01*
X050152Y012197D02*
G03*
X050152Y012197I-000585J000000D01*
G01*
X011372D02*
G03*
X011372Y012197I-000585J000000D01*
G01*
X076530D02*
G03*
X076530Y012197I-000585J000000D01*
G01*
D12*
X045830Y013113D02*
G03*
X045830Y013153I000000J000020D01*
G01*
D02*
G03*
X045830Y013113I000000J-000020D01*
G01*
X073480Y015987D02*
G03*
X073480Y016027I000000J000020D01*
G01*
D02*
G03*
X073480Y015987I000000J-000020D01*
G01*
X030197Y045137D02*
X032323D01*
Y043759D02*
Y045137D01*
X030197Y043759D02*
X032323D01*
X030197D02*
Y045137D01*
X035877Y045139D02*
X038003D01*
Y043761D02*
Y045139D01*
X035877Y043761D02*
X038003D01*
X035877D02*
Y045139D01*
D15*
X065279Y050713D02*
G03*
X065280Y050746I001181J-000016D01*
G01*
X030669Y045284D02*
G03*
X030669Y045284I-000049J000000D01*
G01*
X055675Y029710D02*
G03*
X055675Y029710I-002165J000000D01*
G01*
X054297D02*
G03*
X054297Y029710I-000787J000000D01*
G01*
X054277Y020400D02*
G03*
X054277Y020400I-000787J000000D01*
G01*
X055655D02*
G03*
X055655Y020400I-002165J000000D01*
G01*
X063515Y014100D02*
G03*
X063515Y014100I-002165J000000D01*
G01*
X062137D02*
G03*
X062137Y014100I-000787J000000D01*
G01*
X057497Y014110D02*
G03*
X057497Y014110I-000787J000000D01*
G01*
X058875D02*
G03*
X058875Y014110I-002165J000000D01*
G01*
X071207Y025020D02*
G03*
X071207Y025020I-000787J000000D01*
G01*
X072585D02*
G03*
X072585Y025020I-002165J000000D01*
G01*
X036349Y045287D02*
G03*
X036349Y045287I-000049J000000D01*
G01*
X043679Y020294D02*
G03*
X043679Y020294I-000049J000000D01*
G01*
Y029754D02*
G03*
X043679Y029754I-000049J000000D01*
G01*
X061817Y030300D02*
G03*
X061817Y030300I-000787J000000D01*
G01*
X063195D02*
G03*
X063195Y030300I-002165J000000D01*
G01*
X066557Y025020D02*
G03*
X066557Y025020I-000787J000000D01*
G01*
X067935D02*
G03*
X067935Y025020I-002165J000000D01*
G01*
X054081Y014187D02*
G03*
X054081Y014187I-002165J000000D01*
G01*
X052703D02*
G03*
X052703Y014187I-000787J000000D01*
G01*
X072805Y030340D02*
G03*
X072805Y030340I-002165J000000D01*
G01*
X071427D02*
G03*
X071427Y030340I-000787J000000D01*
G01*
X055675Y025100D02*
G03*
X055675Y025100I-002165J000000D01*
G01*
X054297D02*
G03*
X054297Y025100I-000787J000000D01*
G01*
X067977Y030300D02*
G03*
X067977Y030300I-002165J000000D01*
G01*
X066599D02*
G03*
X066599Y030300I-000787J000000D01*
G01*
X063319Y019374D02*
G03*
X063319Y019374I-002165J000000D01*
G01*
X061941D02*
G03*
X061941Y019374I-000787J000000D01*
G01*
X067985Y019380D02*
G03*
X067985Y019380I-002165J000000D01*
G01*
X066607D02*
G03*
X066607Y019380I-000787J000000D01*
G01*
X063245Y025000D02*
G03*
X063245Y025000I-002165J000000D01*
G01*
X061867D02*
G03*
X061867Y025000I-000787J000000D01*
G01*
X072635Y019390D02*
G03*
X072635Y019390I-002165J000000D01*
G01*
X071257D02*
G03*
X071257Y019390I-000787J000000D01*
G01*
D16*
X020216Y059136D02*
X020924D01*
X020216D02*
Y060344D01*
X020924D01*
Y059136D02*
Y060344D01*
X013067Y029583D02*
Y030637D01*
X011083Y028654D02*
X012137D01*
X010153Y029583D02*
Y030637D01*
X011083Y031567D02*
X012137D01*
X013067Y019347D02*
Y020401D01*
X011083Y018417D02*
X012137D01*
X010153Y019347D02*
Y020401D01*
X011083Y021331D02*
X012137D01*
X010116Y047874D02*
X014877D01*
X010116D02*
Y052492D01*
X014877Y047874D02*
Y051486D01*
X010116Y047874D02*
Y052492D01*
X014866D01*
X010112Y060453D02*
X010407Y060748D01*
X010112Y057303D02*
Y060453D01*
Y057303D02*
X010407Y057008D01*
X014836Y060748D02*
X015132Y060453D01*
Y057303D02*
Y060453D01*
X014836Y057008D02*
X015132Y057303D01*
X010407Y057008D02*
X014836D01*
X010407Y060748D02*
X014836D01*
X045228Y013743D02*
X045543D01*
X045228Y015397D02*
X045543D01*
X047117D02*
X047432D01*
X047117Y013743D02*
X047432D01*
X032283Y050748D02*
X043602D01*
Y050256D02*
Y050748D01*
X032283Y050256D02*
Y050748D01*
X071878Y015397D02*
X072193D01*
X071878Y013743D02*
X072193D01*
X073767D02*
X074082D01*
X073767Y015397D02*
X074082D01*
X010106Y041134D02*
X010401Y041429D01*
X010106Y037984D02*
Y041134D01*
Y037984D02*
X010401Y037689D01*
X014830Y041429D02*
X015126Y041134D01*
Y037984D02*
Y041134D01*
X014830Y037689D02*
X015126Y037984D01*
X010401Y037689D02*
X014830D01*
X010401Y041429D02*
X014830D01*
X054199Y030202D02*
X054593Y030596D01*
X054199Y029218D02*
X054593Y028824D01*
X053510Y030497D02*
Y031875D01*
X051984Y031236D02*
X052919Y030301D01*
X051344Y029710D02*
X052722D01*
X052033Y028135D02*
X053018Y029119D01*
X053510Y027545D02*
Y028923D01*
X053490Y018235D02*
Y019613D01*
X052014Y018825D02*
X052998Y019809D01*
X051325Y020400D02*
X052703D01*
X051964Y021926D02*
X052899Y020991D01*
X053490Y021187D02*
Y022565D01*
X054179Y019908D02*
X054573Y019514D01*
X054179Y020892D02*
X054573Y021286D01*
X060464Y015183D02*
X060858Y014789D01*
X061842D02*
X062236Y015183D01*
X059185Y014100D02*
X060563D01*
X059824Y012574D02*
X060759Y013509D01*
X061350Y011935D02*
Y013313D01*
X061941Y013608D02*
X062925Y012624D01*
X062137Y014100D02*
X063515D01*
X057497Y014110D02*
X058875D01*
X057301Y013618D02*
X058285Y012634D01*
X056710Y011945D02*
Y013323D01*
X055184Y012584D02*
X056119Y013519D01*
X054545Y014110D02*
X055923D01*
X057202Y014799D02*
X057596Y015193D01*
X055824D02*
X056218Y014799D01*
X068254Y025020D02*
X069632D01*
X068845Y026496D02*
X069829Y025512D01*
X070420Y025807D02*
Y027185D01*
X071010Y025611D02*
X071945Y026546D01*
X071207Y025020D02*
X072585D01*
X069534Y023937D02*
X069928Y024331D01*
X070912D02*
X071306Y023937D01*
X043138Y023246D02*
X044122D01*
X043138Y020195D02*
X044122D01*
X043138D02*
Y023246D01*
X044122Y020195D02*
Y023246D01*
X043138Y032706D02*
X044122D01*
X043138Y029655D02*
X044122D01*
X043138D02*
Y032706D01*
X044122Y029655D02*
Y032706D01*
X010106Y045484D02*
X010401Y045780D01*
X010106Y042335D02*
Y045484D01*
Y042335D02*
X010401Y042039D01*
X014830Y045780D02*
X015126Y045484D01*
Y042335D02*
Y045484D01*
X014830Y042039D02*
X015126Y042335D01*
X010401Y042039D02*
X014830D01*
X010401Y045780D02*
X014830D01*
X058865Y030300D02*
X060243D01*
X059455Y031776D02*
X060439Y030792D01*
X061030Y031087D02*
Y032465D01*
X061621Y030891D02*
X062556Y031826D01*
X061817Y030300D02*
X063195D01*
X060144Y029217D02*
X060538Y029611D01*
X061522D02*
X061916Y029217D01*
X063604Y025020D02*
X064982D01*
X064195Y026496D02*
X065179Y025512D01*
X065770Y025807D02*
Y027185D01*
X066360Y025611D02*
X067295Y026546D01*
X066557Y025020D02*
X067935D01*
X064884Y023937D02*
X065278Y024331D01*
X066262D02*
X066656Y023937D01*
X010457Y056417D02*
X014886D01*
X010457Y052677D02*
X014886D01*
X015182Y052972D01*
Y056122D01*
X014886Y056417D02*
X015182Y056122D01*
X010162Y052972D02*
X010457Y052677D01*
X010162Y052972D02*
Y056122D01*
X010457Y056417D01*
X010398Y065079D02*
X014827D01*
X010398Y061339D02*
X014827D01*
X015122Y061634D01*
Y064783D01*
X014827Y065079D02*
X015122Y064783D01*
X010102Y061634D02*
X010398Y061339D01*
X010102Y061634D02*
Y064783D01*
X010398Y065079D01*
X051030Y015270D02*
X051424Y014876D01*
X052408D02*
X052802Y015270D01*
X049750Y014187D02*
X051128D01*
X050390Y012661D02*
X051325Y013596D01*
X051916Y012021D02*
Y013399D01*
X052506Y013695D02*
X053491Y012710D01*
X052703Y014187D02*
X054081D01*
X071132Y029651D02*
X071526Y029257D01*
X069754D02*
X070148Y029651D01*
X071427Y030340D02*
X072805D01*
X071231Y030931D02*
X072166Y031866D01*
X070640Y031127D02*
Y032505D01*
X069065Y031816D02*
X070049Y030832D01*
X068475Y030340D02*
X069853D01*
X054199Y025592D02*
X054593Y025986D01*
X054199Y024608D02*
X054593Y024214D01*
X053510Y025887D02*
Y027265D01*
X051984Y026626D02*
X052919Y025691D01*
X051344Y025100D02*
X052722D01*
X052033Y023525D02*
X053018Y024509D01*
X053510Y022935D02*
Y024313D01*
X066304Y029611D02*
X066698Y029217D01*
X064926D02*
X065320Y029611D01*
X066599Y030300D02*
X067977D01*
X066403Y030891D02*
X067338Y031826D01*
X065812Y031087D02*
Y032465D01*
X064237Y031776D02*
X065221Y030792D01*
X063647Y030300D02*
X065025D01*
X060268Y020456D02*
X060662Y020063D01*
X061646D02*
X062040Y020456D01*
X058989Y019374D02*
X060367D01*
X059629Y017848D02*
X060564Y018783D01*
X061154Y017208D02*
Y018586D01*
X061745Y018881D02*
X062729Y017897D01*
X061941Y019374D02*
X063319D01*
X064934Y020463D02*
X065328Y020069D01*
X066312D02*
X066706Y020463D01*
X063655Y019380D02*
X065033D01*
X064294Y017854D02*
X065229Y018789D01*
X065820Y017215D02*
Y018593D01*
X066411Y018888D02*
X067395Y017904D01*
X066607Y019380D02*
X067985D01*
X061572Y024311D02*
X061966Y023917D01*
X060194D02*
X060588Y024311D01*
X061867Y025000D02*
X063245D01*
X061670Y025591D02*
X062605Y026526D01*
X061080Y025787D02*
Y027165D01*
X059505Y026476D02*
X060489Y025492D01*
X058914Y025000D02*
X060292D01*
X069584Y020473D02*
X069978Y020079D01*
X070962D02*
X071356Y020473D01*
X068304Y019390D02*
X069682D01*
X068944Y017864D02*
X069879Y018799D01*
X070470Y017225D02*
Y018603D01*
X071060Y018898D02*
X072045Y017914D01*
X071257Y019390D02*
X072635D01*
D17*
X049334Y062705D02*
Y063689D01*
X048842Y063197D02*
X049826D01*
X082110D02*
X083094D01*
X082602Y062705D02*
Y063689D01*
X074531Y062705D02*
Y063689D01*
X074039Y063197D02*
X075023D01*
X066460Y062705D02*
Y063689D01*
X065968Y063197D02*
X066952D01*
X057405Y062705D02*
Y063689D01*
X056913Y063197D02*
X057897D01*
D20*
X044250Y027225D02*
X044319Y027156D01*
X043611D02*
X043680Y027225D01*
X044250D01*
X044319Y026572D02*
Y027156D01*
Y025591D02*
Y026172D01*
X044241Y025512D02*
X044319Y025591D01*
X043680Y025512D02*
X044241D01*
X043611Y025581D02*
Y026172D01*
Y025581D02*
X043680Y025512D01*
X043610Y026572D02*
Y027155D01*
X042726Y026572D02*
Y027155D01*
X042726Y025581D02*
X042795Y025512D01*
X042726Y025581D02*
Y026172D01*
X042795Y025512D02*
X043356D01*
X043435Y025591D01*
Y026172D01*
Y026572D02*
Y027156D01*
X042795Y027225D02*
X043366D01*
X042726Y027156D02*
X042795Y027225D01*
X043366D02*
X043435Y027156D01*
X040865Y047486D02*
X041448D01*
X042439Y047486D02*
X042508Y047555D01*
X041848Y047486D02*
X042439D01*
X042508Y047555D02*
Y048116D01*
X042429Y048195D02*
X042508Y048116D01*
X041848Y048195D02*
X042429D01*
X040864D02*
X041448D01*
X040795Y047555D02*
Y048126D01*
Y047555D02*
X040864Y047486D01*
X040795Y048126D02*
X040864Y048195D01*
X035775Y047266D02*
X035844Y047335D01*
X035775Y046695D02*
X035844Y046626D01*
X035775Y046695D02*
Y047266D01*
X035844Y047335D02*
X036428D01*
X036828D02*
X037409D01*
X037488Y047256D01*
Y046695D02*
Y047256D01*
X036828Y046626D02*
X037419D01*
X037488Y046695D01*
X035845Y046626D02*
X036428D01*
X034796Y046722D02*
Y047305D01*
X034796Y045731D02*
X034865Y045662D01*
X034796Y045731D02*
Y046322D01*
X034865Y045662D02*
X035426D01*
X035505Y045741D01*
Y046322D01*
Y046722D02*
Y047306D01*
X034865Y047375D02*
X035436D01*
X034796Y047306D02*
X034865Y047375D01*
X035436D02*
X035505Y047306D01*
X032036Y049145D02*
X032105Y049076D01*
X031396D02*
X031465Y049145D01*
X032036D01*
X032105Y048492D02*
Y049076D01*
Y047511D02*
Y048092D01*
X032026Y047432D02*
X032105Y047511D01*
X031465Y047432D02*
X032026D01*
X031396Y047501D02*
Y048092D01*
Y047501D02*
X031465Y047432D01*
X031396Y048492D02*
Y049075D01*
X038855Y045176D02*
X038924Y045245D01*
X038855Y044605D02*
X038924Y044536D01*
X038855Y044605D02*
Y045176D01*
X038924Y045245D02*
X039508D01*
X039908D02*
X040489D01*
X040568Y045166D01*
Y044605D02*
Y045166D01*
X039908Y044536D02*
X040499D01*
X040568Y044605D01*
X038925Y044536D02*
X039508D01*
X041852Y046124D02*
X042435D01*
X040792Y046055D02*
X040861Y046124D01*
X041452D01*
X040792Y045494D02*
Y046055D01*
Y045494D02*
X040871Y045415D01*
X041452D01*
X041852D02*
X042436D01*
X042505Y045484D02*
Y046055D01*
X042436Y046124D02*
X042505Y046055D01*
X042436Y045415D02*
X042505Y045484D01*
X038905Y045416D02*
X039488D01*
X040479Y045416D02*
X040548Y045485D01*
X039888Y045416D02*
X040479D01*
X040548Y045485D02*
Y046046D01*
X040469Y046125D02*
X040548Y046046D01*
X039888Y046125D02*
X040469D01*
X038904D02*
X039488D01*
X038835Y045485D02*
Y046056D01*
Y045485D02*
X038904Y045416D01*
X038835Y046056D02*
X038904Y046125D01*
X040865Y048406D02*
X041448D01*
X042439Y048406D02*
X042508Y048475D01*
X041848Y048406D02*
X042439D01*
X042508Y048475D02*
Y049036D01*
X042429Y049115D02*
X042508Y049036D01*
X041848Y049115D02*
X042429D01*
X040864D02*
X041448D01*
X040795Y048475D02*
Y049046D01*
Y048475D02*
X040864Y048406D01*
X040795Y049046D02*
X040864Y049115D01*
X033366Y048512D02*
Y049095D01*
X033366Y047521D02*
X033435Y047452D01*
X033366Y047521D02*
Y048112D01*
X033435Y047452D02*
X033996D01*
X034075Y047531D01*
Y048112D01*
Y048512D02*
Y049096D01*
X033435Y049165D02*
X034006D01*
X033366Y049096D02*
X033435Y049165D01*
X034006D02*
X034075Y049096D01*
X032485Y045756D02*
X033068D01*
X034059Y045756D02*
X034128Y045825D01*
X033468Y045756D02*
X034059D01*
X034128Y045825D02*
Y046386D01*
X034049Y046465D02*
X034128Y046386D01*
X033468Y046465D02*
X034049D01*
X032484D02*
X033068D01*
X032415Y045825D02*
Y046396D01*
Y045825D02*
X032484Y045756D01*
X032415Y046396D02*
X032484Y046465D01*
X041852Y045244D02*
X042435D01*
X040792Y045175D02*
X040861Y045244D01*
X041452D01*
X040792Y044614D02*
Y045175D01*
Y044614D02*
X040871Y044535D01*
X041452D01*
X041852D02*
X042436D01*
X042505Y044604D02*
Y045175D01*
X042436Y045244D02*
X042505Y045175D01*
X042436Y044535D02*
X042505Y044604D01*
X032276Y048512D02*
Y049095D01*
X032276Y047521D02*
X032345Y047452D01*
X032276Y047521D02*
Y048112D01*
X032345Y047452D02*
X032906D01*
X032985Y047531D01*
Y048112D01*
Y048512D02*
Y049096D01*
X032345Y049165D02*
X032916D01*
X032276Y049096D02*
X032345Y049165D01*
X032916D02*
X032985Y049096D01*
X033284Y044093D02*
X033867D01*
X034858Y044094D02*
X034927Y044163D01*
X034266Y044094D02*
X034858D01*
X034927Y044163D02*
Y044724D01*
X034848Y044803D02*
X034927Y044724D01*
X034266Y044803D02*
X034848D01*
X033283D02*
X033866D01*
X033214Y044163D02*
Y044734D01*
Y044163D02*
X033283Y044094D01*
X033214Y044734D02*
X033283Y044803D01*
X020904Y057155D02*
Y057738D01*
X020835Y058798D02*
X020904Y058729D01*
Y058138D02*
Y058729D01*
X020274Y058798D02*
X020835D01*
X020195Y058719D02*
X020274Y058798D01*
X020195Y058138D02*
Y058719D01*
Y057154D02*
Y057738D01*
X020264Y057085D02*
X020835D01*
X020904Y057154D01*
X020195D02*
X020264Y057085D01*
X018938Y056714D02*
X019522D01*
X017879Y056644D02*
X017948Y056713D01*
X018539D01*
X017879Y056083D02*
Y056644D01*
Y056083D02*
X017958Y056004D01*
X018539D01*
X018939D02*
X019523D01*
X019591Y056073D02*
Y056644D01*
X019523Y056713D02*
X019591Y056644D01*
X019523Y056004D02*
X019591Y056073D01*
X039546Y044365D02*
X039615Y044296D01*
X038906D02*
X038975Y044365D01*
X039546D01*
X039615Y043712D02*
Y044296D01*
Y042731D02*
Y043312D01*
X039536Y042652D02*
X039615Y042731D01*
X038975Y042652D02*
X039536D01*
X038906Y042721D02*
Y043312D01*
Y042721D02*
X038975Y042652D01*
X038906Y043712D02*
Y044295D01*
D22*
X010181Y057337D02*
X010476Y057042D01*
X010181Y058382D02*
X010184Y057365D01*
X010142Y058878D02*
X010309D01*
X010253Y059366D02*
X010378Y059240D01*
X010155Y059366D02*
X010253D01*
X010378Y058500D02*
Y059240D01*
X010259Y058382D02*
X010378Y058500D01*
X010181Y058382D02*
X010259D01*
X010184Y059432D02*
X010185Y060405D01*
X010151Y060425D02*
X010446Y060720D01*
X011759Y060692D02*
X014377Y060686D01*
X011759Y057050D02*
X014377Y057044D01*
X066007Y051642D02*
X066907D01*
X066007Y049742D02*
X066907D01*
Y050892D02*
Y051642D01*
X066007Y050892D02*
Y051642D01*
Y049742D02*
Y050492D01*
X066907Y049742D02*
Y050492D01*
X010175Y038018D02*
X010470Y037723D01*
X010175Y039063D02*
X010178Y038047D01*
X010136Y039559D02*
X010303D01*
X010247Y040047D02*
X010372Y039921D01*
X010149Y040047D02*
X010247D01*
X010372Y039181D02*
Y039921D01*
X010253Y039063D02*
X010372Y039181D01*
X010175Y039063D02*
X010253D01*
X010178Y040113D02*
X010179Y041086D01*
X010145Y041106D02*
X010440Y041401D01*
X011753Y041373D02*
X014371Y041367D01*
X011753Y037731D02*
X014371Y037725D01*
X079190Y026260D02*
Y027260D01*
X076840Y026260D02*
Y027260D01*
X078440Y026260D02*
X079190D01*
X078440Y027260D02*
X079190D01*
X076840D02*
X077590D01*
X076840Y026260D02*
X077590D01*
X079190Y027590D02*
Y028590D01*
X076840Y027590D02*
Y028590D01*
X078440Y027590D02*
X079190D01*
X078440Y028590D02*
X079190D01*
X076840D02*
X077590D01*
X076840Y027590D02*
X077590D01*
X079170Y012430D02*
Y013430D01*
X076820Y012430D02*
Y013430D01*
X078420Y012430D02*
X079170D01*
X078420Y013430D02*
X079170D01*
X076820D02*
X077570D01*
X076820Y012430D02*
X077570D01*
X079170Y013730D02*
Y014730D01*
X076820Y013730D02*
Y014730D01*
X078420Y013730D02*
X079170D01*
X078420Y014730D02*
X079170D01*
X076820D02*
X077570D01*
X076820Y013730D02*
X077570D01*
X079190Y024920D02*
Y025920D01*
X076840Y024920D02*
Y025920D01*
X078440Y024920D02*
X079190D01*
X078440Y025920D02*
X079190D01*
X076840D02*
X077590D01*
X076840Y024920D02*
X077590D01*
X079200Y028920D02*
Y029920D01*
X076850Y028920D02*
Y029920D01*
X078450Y028920D02*
X079200D01*
X078450Y029920D02*
X079200D01*
X076850D02*
X077600D01*
X076850Y028920D02*
X077600D01*
X076840Y015060D02*
X077590D01*
X076840Y016060D02*
X077590D01*
X078440D02*
X079190D01*
X078440Y015060D02*
X079190D01*
X076840D02*
Y016060D01*
X079190Y015060D02*
Y016060D01*
Y016420D02*
Y017420D01*
X076840Y016420D02*
Y017420D01*
X078440Y016420D02*
X079190D01*
X078440Y017420D02*
X079190D01*
X076840D02*
X077590D01*
X076840Y016420D02*
X077590D01*
X018220Y057777D02*
Y058320D01*
X019370Y057777D02*
Y058320D01*
X018220D02*
X018374D01*
X018770Y057420D02*
X018820D01*
X019224Y058320D02*
X019370D01*
X019108Y061472D02*
X019360Y061220D01*
X018260Y061220D02*
X018410Y061370D01*
X018260Y060570D02*
Y061220D01*
X019360Y061220D02*
X019360Y060570D01*
X018411Y061370D02*
X019210Y061370D01*
X019360Y059020D02*
X019360Y059820D01*
X018260Y059020D02*
Y059820D01*
Y059020D02*
X019360Y059020D01*
X018515Y061473D02*
X019108Y061472D01*
X018411Y061370D02*
X018515Y061473D01*
X010175Y042369D02*
X010470Y042073D01*
X010175Y043413D02*
X010178Y042397D01*
X010136Y043909D02*
X010303D01*
X010247Y044397D02*
X010372Y044272D01*
X010149Y044397D02*
X010247D01*
X010372Y043532D02*
Y044272D01*
X010253Y043413D02*
X010372Y043532D01*
X010175Y043413D02*
X010253D01*
X010178Y044464D02*
X010179Y045437D01*
X010145Y045456D02*
X010440Y045752D01*
X011753Y045724D02*
X014371Y045717D01*
X011753Y042082D02*
X014371Y042076D01*
X039374Y048350D02*
X039520D01*
X038920Y047450D02*
X038970D01*
X038370Y048350D02*
X038524D01*
X039520Y047807D02*
Y048350D01*
X038370Y047807D02*
Y048350D01*
X011809Y052720D02*
X014427Y052713D01*
X011809Y056361D02*
X014427Y056355D01*
X010201Y056094D02*
X010496Y056389D01*
X010234Y055102D02*
X010235Y056074D01*
X010231Y054051D02*
X010309D01*
X010428Y054170D01*
Y054910D01*
X010205Y055035D02*
X010303D01*
X010428Y054910D01*
X010192Y054547D02*
X010359D01*
X010231Y054051D02*
X010234Y053035D01*
X010231Y053006D02*
X010526Y052711D01*
X011749Y061381D02*
X014367Y061375D01*
X011749Y065023D02*
X014367Y065017D01*
X010141Y064756D02*
X010437Y065051D01*
X010174Y063763D02*
X010176Y064736D01*
X010172Y062712D02*
X010250D01*
X010368Y062831D01*
Y063571D01*
X010145Y063696D02*
X010243D01*
X010368Y063571D01*
X010132Y063209D02*
X010299D01*
X010172Y062712D02*
X010174Y061696D01*
X010171Y061668D02*
X010467Y061372D01*
D24*
X015532Y011537D02*
X015532Y041458D01*
X036004Y011537D02*
X036004Y041458D01*
X015532D02*
X036004D01*
X015532Y011537D02*
X036004D01*
X044094Y050256D02*
Y066004D01*
X028346Y050256D02*
Y066004D01*
X044094D01*
X028346Y050256D02*
X044094D01*
X044350Y027637D02*
X044403Y027690D01*
X044510D01*
X044563Y027637D01*
Y027423D01*
X044510Y027370D01*
X044403D01*
X044350Y027423D01*
X044243Y027370D02*
X044137D01*
X044190D01*
Y027690D01*
X044243Y027637D01*
X043977Y027370D02*
X043870D01*
X043923D01*
Y027690D01*
X043977Y027637D01*
X043710Y027690D02*
X043497D01*
Y027637D01*
X043710Y027423D01*
Y027370D01*
X043553Y025080D02*
Y025400D01*
X043393D01*
X043340Y025347D01*
Y025240D01*
X043393Y025187D01*
X043553D01*
X043447D02*
X043340Y025080D01*
X043020Y025400D02*
X043127Y025347D01*
X043233Y025240D01*
Y025133D01*
X043180Y025080D01*
X043073D01*
X043020Y025133D01*
Y025187D01*
X043073Y025240D01*
X043233D01*
X042913Y025080D02*
X042807D01*
X042860D01*
Y025400D01*
X042913Y025347D01*
X020750Y060505D02*
Y060825D01*
X020590D01*
X020537Y060771D01*
Y060665D01*
X020590Y060611D01*
X020750D01*
X020430Y060505D02*
X020324D01*
X020377D01*
Y060825D01*
X020430Y060771D01*
X021773Y060200D02*
X021987D01*
Y060040D01*
X021880D01*
X021987D01*
Y059880D01*
X021613Y060093D02*
X021507D01*
X021453Y060040D01*
Y059880D01*
X021613D01*
X021667Y059933D01*
X021613Y059987D01*
X021453D01*
X021347Y059880D02*
Y060093D01*
X021187D01*
X021133Y060040D01*
Y059880D01*
X044144Y013446D02*
X044251D01*
X044198D01*
Y013180D01*
X044251Y013126D01*
X044304D01*
X044358Y013180D01*
X044038Y013126D02*
X043931D01*
X043984D01*
Y013446D01*
X044038Y013393D01*
X043771D02*
X043718Y013446D01*
X043611D01*
X043558Y013393D01*
Y013340D01*
X043611Y013286D01*
X043665D01*
X043611D01*
X043558Y013233D01*
Y013180D01*
X043611Y013126D01*
X043718D01*
X043771Y013180D01*
X070740Y013655D02*
X070847D01*
X070793D01*
Y013388D01*
X070847Y013335D01*
X070900D01*
X070953Y013388D01*
X070633D02*
X070580Y013335D01*
X070473D01*
X070420Y013388D01*
Y013601D01*
X070473Y013655D01*
X070580D01*
X070633Y013601D01*
Y013548D01*
X070580Y013495D01*
X070420D01*
X021853Y057309D02*
Y057629D01*
X021693D01*
X021640Y057576D01*
Y057469D01*
X021693Y057416D01*
X021853D01*
X021746D02*
X021640Y057309D01*
X021533D02*
X021426D01*
X021480D01*
Y057629D01*
X021533Y057576D01*
X021267D02*
X021213Y057629D01*
X021107D01*
X021053Y057576D01*
Y057523D01*
X021107Y057469D01*
X021160D01*
X021107D01*
X021053Y057416D01*
Y057363D01*
X021107Y057309D01*
X021213D01*
X021267Y057363D01*
X017383Y057225D02*
Y057438D01*
X017436Y057491D01*
X017543D01*
X017596Y057438D01*
Y057225D01*
X017543Y057172D01*
X017436D01*
X017489Y057278D02*
X017383Y057172D01*
X017436D02*
X017383Y057225D01*
X017276Y057172D02*
X017170D01*
X017223D01*
Y057491D01*
X017276Y057438D01*
X019033Y061991D02*
Y061671D01*
X018873D01*
X018820Y061724D01*
Y061937D01*
X018873Y061991D01*
X019033D01*
X018713Y061671D02*
X018607D01*
X018660D01*
Y061991D01*
X018713Y061937D01*
X018983Y055758D02*
X019037Y055812D01*
X019143D01*
X019197Y055758D01*
Y055545D01*
X019143Y055492D01*
X019037D01*
X018983Y055545D01*
X018663Y055492D02*
X018877D01*
X018663Y055705D01*
Y055758D01*
X018717Y055812D01*
X018823D01*
X018877Y055758D01*
X018557Y055545D02*
X018503Y055492D01*
X018397D01*
X018343Y055545D01*
Y055758D01*
X018397Y055812D01*
X018503D01*
X018557Y055758D01*
Y055705D01*
X018503Y055652D01*
X018343D01*
X044683Y022828D02*
Y023041D01*
X044737Y023095D01*
X044843D01*
X044897Y023041D01*
Y022828D01*
X044843Y022775D01*
X044737D01*
X044790Y022881D02*
X044683Y022775D01*
X044737D02*
X044683Y022828D01*
X044363Y023095D02*
X044577D01*
Y022935D01*
X044470Y022988D01*
X044417D01*
X044363Y022935D01*
Y022828D01*
X044417Y022775D01*
X044523D01*
X044577Y022828D01*
X041595Y013249D02*
Y012929D01*
Y013089D01*
X041381D01*
Y013249D01*
Y012929D01*
X041061Y013195D02*
X041115Y013249D01*
X041221D01*
X041275Y013195D01*
Y013142D01*
X041221Y013089D01*
X041115D01*
X041061Y013035D01*
Y012982D01*
X041115Y012929D01*
X041221D01*
X041275Y012982D01*
X040955Y012929D02*
X040848D01*
X040902D01*
Y013249D01*
X040955Y013195D01*
X044683Y032393D02*
Y032607D01*
X044737Y032660D01*
X044843D01*
X044897Y032607D01*
Y032393D01*
X044843Y032340D01*
X044737D01*
X044790Y032447D02*
X044683Y032340D01*
X044737D02*
X044683Y032393D01*
X044417Y032340D02*
Y032660D01*
X044577Y032500D01*
X044363D01*
X028054Y065760D02*
X027840D01*
X027947D01*
Y065440D01*
X027521Y065760D02*
X027734D01*
Y065600D01*
X027627D01*
X027734D01*
Y065440D01*
X027414D02*
X027307D01*
X027361D01*
Y065760D01*
X027414Y065707D01*
X054850Y012550D02*
Y012230D01*
X054637D01*
X054530D02*
X054423D01*
X054477D01*
Y012550D01*
X054530Y012497D01*
X054103Y012230D02*
Y012550D01*
X054263Y012390D01*
X054050D01*
X015893Y052015D02*
X016000D01*
X015947D01*
Y051748D01*
X016000Y051695D01*
X016053D01*
X016107Y051748D01*
X015627Y051695D02*
Y052015D01*
X015787Y051855D01*
X015573D01*
X016876Y051205D02*
Y051525D01*
X016716D01*
X016663Y051471D01*
Y051365D01*
X016716Y051311D01*
X016876D01*
X016556Y051525D02*
Y051205D01*
Y051365D01*
X016503Y051418D01*
X016397D01*
X016343Y051365D01*
Y051205D01*
X016183D02*
X016077D01*
X016023Y051258D01*
Y051365D01*
X016077Y051418D01*
X016183D01*
X016237Y051365D01*
Y051258D01*
X016183Y051205D01*
X015917D02*
Y051418D01*
X015757D01*
X015703Y051365D01*
Y051205D01*
X015437D02*
X015543D01*
X015597Y051258D01*
Y051365D01*
X015543Y051418D01*
X015437D01*
X015384Y051365D01*
Y051311D01*
X015597D01*
X015277Y051205D02*
X015117D01*
X015064Y051258D01*
X015117Y051311D01*
X015224D01*
X015277Y051365D01*
X015224Y051418D01*
X015064D01*
X012673Y022004D02*
X012780D01*
X012727D01*
Y021737D01*
X012780Y021684D01*
X012833D01*
X012887Y021737D01*
X012567Y021684D02*
X012460D01*
X012513D01*
Y022004D01*
X012567Y021951D01*
X012300Y021684D02*
X012193D01*
X012247D01*
Y022004D01*
X012300Y021951D01*
X011153Y021784D02*
Y021997D01*
X011047Y022104D01*
X010940Y021997D01*
Y021784D01*
Y021944D01*
X011153D01*
X010833Y021784D02*
Y022104D01*
X010620Y021784D01*
Y022104D01*
X010513D02*
X010300D01*
X010407D01*
Y021784D01*
X010193D02*
X010087D01*
X010140D01*
Y022104D01*
X010193Y022051D01*
X012677Y028190D02*
X012783D01*
X012730D01*
Y027924D01*
X012783Y027870D01*
X012837D01*
X012890Y027924D01*
X012570Y027870D02*
X012463D01*
X012517D01*
Y028190D01*
X012570Y028137D01*
X012090Y027870D02*
X012303D01*
X012090Y028084D01*
Y028137D01*
X012143Y028190D01*
X012250D01*
X012303Y028137D01*
X011336Y027850D02*
Y028064D01*
X011230Y028170D01*
X011123Y028064D01*
Y027850D01*
Y028010D01*
X011336D01*
X011017Y027850D02*
Y028170D01*
X010803Y027850D01*
Y028170D01*
X010697D02*
X010483D01*
X010590D01*
Y027850D01*
X010164D02*
X010377D01*
X010164Y028064D01*
Y028117D01*
X010217Y028170D01*
X010323D01*
X010377Y028117D01*
X034636Y047304D02*
X034316D01*
Y047144D01*
X034369Y047090D01*
X034476D01*
X034529Y047144D01*
Y047304D01*
Y047197D02*
X034636Y047090D01*
X034316Y046770D02*
Y046984D01*
X034476D01*
Y046877D01*
Y046984D01*
X034636D01*
X034369Y046451D02*
X034316Y046504D01*
Y046610D01*
X034369Y046664D01*
X034583D01*
X034636Y046610D01*
Y046504D01*
X034583Y046451D01*
X034636Y046344D02*
Y046237D01*
Y046291D01*
X034316D01*
X034369Y046344D01*
X034636Y045864D02*
Y046077D01*
X034423Y045864D01*
X034369D01*
X034316Y045917D01*
Y046024D01*
X034369Y046077D01*
X032263Y045951D02*
Y046271D01*
X032103D01*
X032050Y046217D01*
Y046111D01*
X032103Y046057D01*
X032263D01*
X032156D02*
X032050Y045951D01*
X031730Y046271D02*
X031943D01*
Y046111D01*
X031836D01*
X031943D01*
Y045951D01*
X031410Y046217D02*
X031463Y046271D01*
X031570D01*
X031623Y046217D01*
Y046004D01*
X031570Y045951D01*
X031463D01*
X031410Y046004D01*
X031303Y045951D02*
X031197D01*
X031250D01*
Y046271D01*
X031303Y046217D01*
X031037Y045951D02*
X030930D01*
X030983D01*
Y046271D01*
X031037Y046217D01*
X038686Y045659D02*
X038366D01*
Y045499D01*
X038419Y045446D01*
X038526D01*
X038579Y045499D01*
Y045659D01*
Y045552D02*
X038686Y045446D01*
X038366Y045126D02*
Y045339D01*
X038526D01*
Y045232D01*
Y045339D01*
X038686D01*
X038419Y044806D02*
X038366Y044859D01*
Y044966D01*
X038419Y045019D01*
X038632D01*
X038686Y044966D01*
Y044859D01*
X038632Y044806D01*
X038686Y044699D02*
Y044593D01*
Y044646D01*
X038366D01*
X038419Y044699D01*
Y044433D02*
X038366Y044379D01*
Y044273D01*
X038419Y044219D01*
X038632D01*
X038686Y044273D01*
Y044379D01*
X038632Y044433D01*
X038419D01*
X043462Y047664D02*
Y047984D01*
X043302D01*
X043249Y047930D01*
Y047824D01*
X043302Y047770D01*
X043462D01*
X043355D02*
X043249Y047664D01*
X043142Y047930D02*
X043089Y047984D01*
X042982D01*
X042929Y047930D01*
Y047877D01*
X042982Y047824D01*
X042929Y047770D01*
Y047717D01*
X042982Y047664D01*
X043089D01*
X043142Y047717D01*
Y047770D01*
X043089Y047824D01*
X043142Y047877D01*
Y047930D01*
X043089Y047824D02*
X042982D01*
X042609Y047984D02*
X042716Y047930D01*
X042822Y047824D01*
Y047717D01*
X042769Y047664D01*
X042662D01*
X042609Y047717D01*
Y047770D01*
X042662Y047824D01*
X042822D01*
X043473Y045641D02*
Y045961D01*
X043313D01*
X043260Y045907D01*
Y045801D01*
X043313Y045747D01*
X043473D01*
X043366D02*
X043260Y045641D01*
X043153Y045907D02*
X043100Y045961D01*
X042993D01*
X042940Y045907D01*
Y045854D01*
X042993Y045801D01*
X042940Y045747D01*
Y045694D01*
X042993Y045641D01*
X043100D01*
X043153Y045694D01*
Y045747D01*
X043100Y045801D01*
X043153Y045854D01*
Y045907D01*
X043100Y045801D02*
X042993D01*
X042620Y045961D02*
X042833D01*
Y045801D01*
X042726Y045854D01*
X042673D01*
X042620Y045801D01*
Y045694D01*
X042673Y045641D01*
X042780D01*
X042833Y045694D01*
X043457Y044753D02*
Y045073D01*
X043297D01*
X043243Y045020D01*
Y044913D01*
X043297Y044860D01*
X043457D01*
X043350D02*
X043243Y044753D01*
X043137Y045020D02*
X043083Y045073D01*
X042977D01*
X042924Y045020D01*
Y044966D01*
X042977Y044913D01*
X042924Y044860D01*
Y044806D01*
X042977Y044753D01*
X043083D01*
X043137Y044806D01*
Y044860D01*
X043083Y044913D01*
X043137Y044966D01*
Y045020D01*
X043083Y044913D02*
X042977D01*
X042657Y044753D02*
Y045073D01*
X042817Y044913D01*
X042604D01*
X042047Y049256D02*
Y049576D01*
X041887D01*
X041834Y049523D01*
Y049416D01*
X041887Y049363D01*
X042047D01*
X041940D02*
X041834Y049256D01*
X041727Y049523D02*
X041674Y049576D01*
X041567D01*
X041514Y049523D01*
Y049470D01*
X041567Y049416D01*
X041514Y049363D01*
Y049310D01*
X041567Y049256D01*
X041674D01*
X041727Y049310D01*
Y049363D01*
X041674Y049416D01*
X041727Y049470D01*
Y049523D01*
X041674Y049416D02*
X041567D01*
X041407Y049523D02*
X041354Y049576D01*
X041247D01*
X041194Y049523D01*
Y049470D01*
X041247Y049416D01*
X041301D01*
X041247D01*
X041194Y049363D01*
Y049310D01*
X041247Y049256D01*
X041354D01*
X041407Y049310D01*
X038284Y048874D02*
Y049087D01*
X038337Y049140D01*
X038444D01*
X038497Y049087D01*
Y048874D01*
X038444Y048820D01*
X038337D01*
X038390Y048927D02*
X038284Y048820D01*
X038337D02*
X038284Y048874D01*
X038177Y049087D02*
X038124Y049140D01*
X038017D01*
X037964Y049087D01*
Y049034D01*
X038017Y048980D01*
X037964Y048927D01*
Y048874D01*
X038017Y048820D01*
X038124D01*
X038177Y048874D01*
Y048927D01*
X038124Y048980D01*
X038177Y049034D01*
Y049087D01*
X038124Y048980D02*
X038017D01*
X030063Y044546D02*
Y044226D01*
X029903D01*
X029850Y044280D01*
Y044493D01*
X029903Y044546D01*
X030063D01*
X029744Y044226D02*
X029637D01*
X029690D01*
Y044546D01*
X029744Y044493D01*
X029477D02*
X029424Y044546D01*
X029317D01*
X029264Y044493D01*
Y044280D01*
X029317Y044226D01*
X029424D01*
X029477Y044280D01*
Y044493D01*
X037237Y043568D02*
Y043248D01*
X037077D01*
X037024Y043301D01*
Y043514D01*
X037077Y043568D01*
X037237D01*
X036917Y043301D02*
X036864Y043248D01*
X036757D01*
X036704Y043301D01*
Y043514D01*
X036757Y043568D01*
X036864D01*
X036917Y043514D01*
Y043461D01*
X036864Y043408D01*
X036704D01*
X031021Y048924D02*
X031074Y048978D01*
X031181D01*
X031234Y048924D01*
Y048711D01*
X031181Y048658D01*
X031074D01*
X031021Y048711D01*
X030914Y048658D02*
X030808D01*
X030861D01*
Y048978D01*
X030914Y048924D01*
X030648D02*
X030595Y048978D01*
X030488D01*
X030435Y048924D01*
Y048871D01*
X030488Y048818D01*
X030541D01*
X030488D01*
X030435Y048764D01*
Y048711D01*
X030488Y048658D01*
X030595D01*
X030648Y048711D01*
X030328Y048978D02*
X030115D01*
Y048924D01*
X030328Y048711D01*
Y048658D01*
X033018Y047244D02*
X033071Y047297D01*
X033178D01*
X033231Y047244D01*
Y047031D01*
X033178Y046977D01*
X033071D01*
X033018Y047031D01*
X032911Y046977D02*
X032805D01*
X032858D01*
Y047297D01*
X032911Y047244D01*
X032645D02*
X032591Y047297D01*
X032485D01*
X032431Y047244D01*
Y047191D01*
X032485Y047137D01*
X032538D01*
X032485D01*
X032431Y047084D01*
Y047031D01*
X032485Y046977D01*
X032591D01*
X032645Y047031D01*
X032111Y047297D02*
X032218Y047244D01*
X032325Y047137D01*
Y047031D01*
X032271Y046977D01*
X032165D01*
X032111Y047031D01*
Y047084D01*
X032165Y047137D01*
X032325D01*
X035142Y048927D02*
X035196Y048980D01*
X035302D01*
X035356Y048927D01*
Y048714D01*
X035302Y048660D01*
X035196D01*
X035142Y048714D01*
X035036Y048660D02*
X034929D01*
X034982D01*
Y048980D01*
X035036Y048927D01*
X034769D02*
X034716Y048980D01*
X034609D01*
X034556Y048927D01*
Y048874D01*
X034609Y048820D01*
X034662D01*
X034609D01*
X034556Y048767D01*
Y048714D01*
X034609Y048660D01*
X034716D01*
X034769Y048714D01*
X034236Y048980D02*
X034449D01*
Y048820D01*
X034343Y048874D01*
X034289D01*
X034236Y048820D01*
Y048714D01*
X034289Y048660D01*
X034396D01*
X034449Y048714D01*
X034333Y043835D02*
X034386Y043888D01*
X034493D01*
X034546Y043835D01*
Y043622D01*
X034493Y043569D01*
X034386D01*
X034333Y043622D01*
X034227Y043569D02*
X034120D01*
X034173D01*
Y043888D01*
X034227Y043835D01*
X033960D02*
X033907Y043888D01*
X033800D01*
X033747Y043835D01*
Y043782D01*
X033800Y043728D01*
X033853D01*
X033800D01*
X033747Y043675D01*
Y043622D01*
X033800Y043569D01*
X033907D01*
X033960Y043622D01*
X033480Y043569D02*
Y043888D01*
X033640Y043728D01*
X033427D01*
X036844Y046434D02*
X036897Y046487D01*
X037004D01*
X037057Y046434D01*
Y046221D01*
X037004Y046167D01*
X036897D01*
X036844Y046221D01*
X036737Y046167D02*
X036630D01*
X036684D01*
Y046487D01*
X036737Y046434D01*
X036470D02*
X036417Y046487D01*
X036310D01*
X036257Y046434D01*
Y046380D01*
X036310Y046327D01*
X036364D01*
X036310D01*
X036257Y046274D01*
Y046221D01*
X036310Y046167D01*
X036417D01*
X036470Y046221D01*
X036150Y046434D02*
X036097Y046487D01*
X035991D01*
X035937Y046434D01*
Y046380D01*
X035991Y046327D01*
X036044D01*
X035991D01*
X035937Y046274D01*
Y046221D01*
X035991Y046167D01*
X036097D01*
X036150Y046221D01*
X039957Y046509D02*
X040010Y046563D01*
X040117D01*
X040170Y046509D01*
Y046296D01*
X040117Y046243D01*
X040010D01*
X039957Y046296D01*
X039850Y046243D02*
X039744D01*
X039797D01*
Y046563D01*
X039850Y046509D01*
X039584D02*
X039530Y046563D01*
X039424D01*
X039370Y046509D01*
Y046456D01*
X039424Y046403D01*
X039477D01*
X039424D01*
X039370Y046349D01*
Y046296D01*
X039424Y046243D01*
X039530D01*
X039584Y046296D01*
X039051Y046243D02*
X039264D01*
X039051Y046456D01*
Y046509D01*
X039104Y046563D01*
X039210D01*
X039264Y046509D01*
X039553Y042477D02*
X039607Y042530D01*
X039713D01*
X039766Y042477D01*
Y042263D01*
X039713Y042210D01*
X039607D01*
X039553Y042263D01*
X039447Y042210D02*
X039340D01*
X039393D01*
Y042530D01*
X039447Y042477D01*
X039180D02*
X039127Y042530D01*
X039020D01*
X038967Y042477D01*
Y042423D01*
X039020Y042370D01*
X039073D01*
X039020D01*
X038967Y042317D01*
Y042263D01*
X039020Y042210D01*
X039127D01*
X039180Y042263D01*
X038860Y042210D02*
X038753D01*
X038807D01*
Y042530D01*
X038860Y042477D01*
X015843Y055659D02*
X015950D01*
X015897D01*
Y055393D01*
X015950Y055339D01*
X016003D01*
X016057Y055393D01*
X015523Y055339D02*
X015737D01*
X015523Y055553D01*
Y055606D01*
X015577Y055659D01*
X015683D01*
X015737Y055606D01*
X016230Y054739D02*
Y055059D01*
X016123Y054953D01*
X016017Y055059D01*
Y054739D01*
X015910D02*
X015803D01*
X015857D01*
Y054953D01*
X015910D01*
X015430D02*
X015590D01*
X015643Y054899D01*
Y054793D01*
X015590Y054739D01*
X015430D01*
X015713Y062738D02*
X015820D01*
X015767D01*
Y062471D01*
X015820Y062418D01*
X015873D01*
X015927Y062471D01*
X015393Y062738D02*
X015500Y062684D01*
X015607Y062578D01*
Y062471D01*
X015553Y062418D01*
X015447D01*
X015393Y062471D01*
Y062524D01*
X015447Y062578D01*
X015607D01*
X017293Y062228D02*
Y061908D01*
X017080D01*
X016973D02*
X016866D01*
X016920D01*
Y062121D01*
X016973D01*
X016707Y061908D02*
Y062121D01*
X016547D01*
X016493Y062068D01*
Y061908D01*
X016227D02*
X016333D01*
X016387Y061961D01*
Y062068D01*
X016333Y062121D01*
X016227D01*
X016173Y062068D01*
Y062014D01*
X016387D01*
X015747Y062228D02*
X015640D01*
X015694D01*
Y061908D01*
X015747D01*
X015640D01*
X015480D02*
Y062121D01*
X015320D01*
X015267Y062068D01*
Y061908D01*
X015723Y059680D02*
X015830D01*
X015777D01*
Y059413D01*
X015830Y059360D01*
X015883D01*
X015937Y059413D01*
X015403Y059680D02*
X015617D01*
Y059520D01*
X015510Y059573D01*
X015457D01*
X015403Y059520D01*
Y059413D01*
X015457Y059360D01*
X015563D01*
X015617Y059413D01*
X017586Y059160D02*
Y058840D01*
X017373D01*
X017266D02*
X017160D01*
X017213D01*
Y059053D01*
X017266D01*
X017000Y058840D02*
Y059053D01*
X016840D01*
X016787Y059000D01*
Y058840D01*
X016520D02*
X016627D01*
X016680Y058893D01*
Y059000D01*
X016627Y059053D01*
X016520D01*
X016467Y059000D01*
Y058947D01*
X016680D01*
X015880Y059160D02*
X015987D01*
X016040Y059107D01*
Y058893D01*
X015987Y058840D01*
X015880D01*
X015827Y058893D01*
Y059107D01*
X015880Y059160D01*
X015720Y059053D02*
Y058893D01*
X015667Y058840D01*
X015507D01*
Y059053D01*
X015347Y059107D02*
Y059053D01*
X015400D01*
X015294D01*
X015347D01*
Y058893D01*
X015294Y058840D01*
X079400Y016523D02*
X079720D01*
Y016683D01*
X079667Y016737D01*
X079560D01*
X079507Y016683D01*
Y016523D01*
Y016630D02*
X079400Y016737D01*
Y017057D02*
Y016843D01*
X079613Y017057D01*
X079667D01*
X079720Y017003D01*
Y016897D01*
X079667Y016843D01*
Y017163D02*
X079720Y017217D01*
Y017323D01*
X079667Y017377D01*
X079613D01*
X079560Y017323D01*
X079507Y017377D01*
X079453D01*
X079400Y017323D01*
Y017217D01*
X079453Y017163D01*
X079507D01*
X079560Y017217D01*
X079613Y017163D01*
X079667D01*
X079560Y017217D02*
Y017323D01*
X079349Y015223D02*
X079668D01*
Y015383D01*
X079615Y015437D01*
X079509D01*
X079455Y015383D01*
Y015223D01*
Y015330D02*
X079349Y015437D01*
Y015757D02*
Y015543D01*
X079562Y015757D01*
X079615D01*
X079668Y015703D01*
Y015597D01*
X079615Y015543D01*
X079668Y015863D02*
Y016076D01*
X079615D01*
X079402Y015863D01*
X079349D01*
X051470Y028450D02*
Y028130D01*
X051257D01*
X051150D02*
X051043D01*
X051097D01*
Y028450D01*
X051150Y028397D01*
X050884D02*
X050830Y028450D01*
X050724D01*
X050670Y028397D01*
Y028343D01*
X050724Y028290D01*
X050670Y028237D01*
Y028183D01*
X050724Y028130D01*
X050830D01*
X050884Y028183D01*
Y028237D01*
X050830Y028290D01*
X050884Y028343D01*
Y028397D01*
X050830Y028290D02*
X050724D01*
X049981Y015992D02*
Y015672D01*
X049767D01*
X049661D02*
X049554D01*
X049607D01*
Y015992D01*
X049661Y015938D01*
X049181Y015992D02*
X049394D01*
Y015832D01*
X049287Y015885D01*
X049234D01*
X049181Y015832D01*
Y015725D01*
X049234Y015672D01*
X049341D01*
X049394Y015725D01*
X068800Y028770D02*
Y028450D01*
X068587D01*
X068267D02*
X068480D01*
X068267Y028663D01*
Y028717D01*
X068320Y028770D01*
X068427D01*
X068480Y028717D01*
X068160Y028770D02*
X067947D01*
Y028717D01*
X068160Y028503D01*
Y028450D01*
X051550Y023570D02*
Y023250D01*
X051337D01*
X051230D02*
X051123D01*
X051177D01*
Y023570D01*
X051230Y023517D01*
X050964Y023570D02*
X050750D01*
Y023517D01*
X050964Y023303D01*
Y023250D01*
X063940Y028870D02*
Y028550D01*
X063727D01*
X063407D02*
X063620D01*
X063407Y028763D01*
Y028817D01*
X063460Y028870D01*
X063567D01*
X063620Y028817D01*
X063087Y028870D02*
X063194Y028817D01*
X063300Y028710D01*
Y028603D01*
X063247Y028550D01*
X063140D01*
X063087Y028603D01*
Y028657D01*
X063140Y028710D01*
X063300D01*
X051610Y018960D02*
Y018640D01*
X051397D01*
X051290D02*
X051183D01*
X051237D01*
Y018960D01*
X051290Y018907D01*
X050810Y018960D02*
X050917Y018907D01*
X051024Y018800D01*
Y018693D01*
X050970Y018640D01*
X050864D01*
X050810Y018693D01*
Y018747D01*
X050864Y018800D01*
X051024D01*
X059570Y012560D02*
Y012240D01*
X059357D01*
X059250D02*
X059143D01*
X059197D01*
Y012560D01*
X059250Y012507D01*
X058984D02*
X058930Y012560D01*
X058824D01*
X058770Y012507D01*
Y012453D01*
X058824Y012400D01*
X058877D01*
X058824D01*
X058770Y012347D01*
Y012293D01*
X058824Y012240D01*
X058930D01*
X058984Y012293D01*
X059240Y028770D02*
Y028450D01*
X059027D01*
X058707D02*
X058920D01*
X058707Y028663D01*
Y028717D01*
X058760Y028770D01*
X058867D01*
X058920Y028717D01*
X058387Y028770D02*
X058600D01*
Y028610D01*
X058494Y028663D01*
X058440D01*
X058387Y028610D01*
Y028503D01*
X058440Y028450D01*
X058547D01*
X058600Y028503D01*
X048456Y030394D02*
Y030714D01*
X048296D01*
X048243Y030661D01*
Y030554D01*
X048296Y030501D01*
X048456D01*
X048350D02*
X048243Y030394D01*
X047923Y030714D02*
X048137D01*
Y030554D01*
X048030D01*
X048137D01*
Y030394D01*
X047603Y030661D02*
X047657Y030714D01*
X047763D01*
X047817Y030661D01*
Y030448D01*
X047763Y030394D01*
X047657D01*
X047603Y030448D01*
X047283Y030714D02*
X047497D01*
Y030554D01*
X047390Y030608D01*
X047337D01*
X047283Y030554D01*
Y030448D01*
X047337Y030394D01*
X047443D01*
X047497Y030448D01*
X068790Y023260D02*
Y022940D01*
X068577D01*
X068257D02*
X068470D01*
X068257Y023153D01*
Y023207D01*
X068310Y023260D01*
X068417D01*
X068470Y023207D01*
X068150Y022940D02*
X068044D01*
X068097D01*
Y023260D01*
X068150Y023207D01*
X059280Y017840D02*
Y017520D01*
X059067D01*
X058747D02*
X058960D01*
X058747Y017733D01*
Y017787D01*
X058800Y017840D01*
X058907D01*
X058960Y017787D01*
X058480Y017520D02*
Y017840D01*
X058640Y017680D01*
X058427D01*
X064060Y023380D02*
Y023060D01*
X063847D01*
X063527D02*
X063740D01*
X063527Y023273D01*
Y023327D01*
X063580Y023380D01*
X063687D01*
X063740Y023327D01*
X063420D02*
X063367Y023380D01*
X063260D01*
X063207Y023327D01*
Y023113D01*
X063260Y023060D01*
X063367D01*
X063420Y023113D01*
Y023327D01*
X064050Y017840D02*
Y017520D01*
X063837D01*
X063517D02*
X063730D01*
X063517Y017733D01*
Y017787D01*
X063570Y017840D01*
X063677D01*
X063730Y017787D01*
X063410D02*
X063357Y017840D01*
X063250D01*
X063197Y017787D01*
Y017733D01*
X063250Y017680D01*
X063304D01*
X063250D01*
X063197Y017627D01*
Y017573D01*
X063250Y017520D01*
X063357D01*
X063410Y017573D01*
X059240Y023420D02*
Y023100D01*
X059027D01*
X058920D02*
X058813D01*
X058867D01*
Y023420D01*
X058920Y023367D01*
X058654Y023153D02*
X058600Y023100D01*
X058494D01*
X058440Y023153D01*
Y023367D01*
X058494Y023420D01*
X058600D01*
X058654Y023367D01*
Y023313D01*
X058600Y023260D01*
X058440D01*
X072831Y017447D02*
Y017127D01*
X072618D01*
X072298D02*
X072512D01*
X072298Y017340D01*
Y017393D01*
X072352Y017447D01*
X072458D01*
X072512Y017393D01*
X071978Y017127D02*
X072192D01*
X071978Y017340D01*
Y017393D01*
X072032Y017447D01*
X072138D01*
X072192Y017393D01*
X011187Y037479D02*
X011293D01*
X011240D01*
Y037212D01*
X011293Y037159D01*
X011347D01*
X011400Y037212D01*
X011080Y037426D02*
X011027Y037479D01*
X010920D01*
X010867Y037426D01*
Y037372D01*
X010920Y037319D01*
X010867Y037266D01*
Y037212D01*
X010920Y037159D01*
X011027D01*
X011080Y037212D01*
Y037266D01*
X011027Y037319D01*
X011080Y037372D01*
Y037426D01*
X011027Y037319D02*
X010920D01*
X011474Y036615D02*
Y036828D01*
X011367Y036935D01*
X011261Y036828D01*
Y036615D01*
Y036775D01*
X011474D01*
X010941Y036881D02*
X010994Y036935D01*
X011101D01*
X011154Y036881D01*
Y036668D01*
X011101Y036615D01*
X010994D01*
X010941Y036668D01*
X010621Y036881D02*
X010674Y036935D01*
X010781D01*
X010834Y036881D01*
Y036668D01*
X010781Y036615D01*
X010674D01*
X010621Y036668D01*
X015627Y044090D02*
X015733D01*
X015680D01*
Y043823D01*
X015733Y043770D01*
X015787D01*
X015840Y043823D01*
X015520Y044090D02*
X015307D01*
Y044037D01*
X015520Y043823D01*
Y043770D01*
X017397Y043271D02*
Y043591D01*
X017237D01*
X017184Y043538D01*
Y043431D01*
X017237Y043378D01*
X017397D01*
X017024Y043484D02*
X016918D01*
X016864Y043431D01*
Y043271D01*
X017024D01*
X017077Y043324D01*
X017024Y043378D01*
X016864D01*
X016544Y043591D02*
Y043271D01*
X016704D01*
X016758Y043324D01*
Y043431D01*
X016704Y043484D01*
X016544D01*
X016224Y043591D02*
Y043271D01*
X016384D01*
X016438Y043324D01*
Y043431D01*
X016384Y043484D01*
X016224D01*
X016118Y043271D02*
X016011D01*
X016064D01*
Y043591D01*
X016118D01*
X015691Y043271D02*
X015798D01*
X015851Y043324D01*
Y043431D01*
X015798Y043484D01*
X015691D01*
X015638Y043431D01*
Y043378D01*
X015851D01*
X015531Y043271D02*
X015371D01*
X015318Y043324D01*
X015371Y043378D01*
X015478D01*
X015531Y043431D01*
X015478Y043484D01*
X015318D01*
X076677Y029258D02*
Y029578D01*
X076517D01*
X076464Y029525D01*
Y029418D01*
X076517Y029365D01*
X076677D01*
X076571D02*
X076464Y029258D01*
X076144D02*
X076357D01*
X076144Y029472D01*
Y029525D01*
X076197Y029578D01*
X076304D01*
X076357Y029525D01*
X075824Y029578D02*
X075931Y029525D01*
X076037Y029418D01*
Y029312D01*
X075984Y029258D01*
X075877D01*
X075824Y029312D01*
Y029365D01*
X075877Y029418D01*
X076037D01*
X076649Y027891D02*
Y028210D01*
X076489D01*
X076435Y028157D01*
Y028050D01*
X076489Y027997D01*
X076649D01*
X076542D02*
X076435Y027891D01*
X076115D02*
X076329D01*
X076115Y028104D01*
Y028157D01*
X076169Y028210D01*
X076275D01*
X076329Y028157D01*
X075796Y028210D02*
X076009D01*
Y028050D01*
X075902Y028104D01*
X075849D01*
X075796Y028050D01*
Y027944D01*
X075849Y027891D01*
X075956D01*
X076009Y027944D01*
X076658Y026592D02*
Y026912D01*
X076498D01*
X076445Y026859D01*
Y026752D01*
X076498Y026699D01*
X076658D01*
X076552D02*
X076445Y026592D01*
X076125D02*
X076338D01*
X076125Y026806D01*
Y026859D01*
X076178Y026912D01*
X076285D01*
X076338Y026859D01*
X075858Y026592D02*
Y026912D01*
X076018Y026752D01*
X075805D01*
X076665Y024902D02*
Y025222D01*
X076505D01*
X076451Y025168D01*
Y025062D01*
X076505Y025008D01*
X076665D01*
X076558D02*
X076451Y024902D01*
X076131D02*
X076345D01*
X076131Y025115D01*
Y025168D01*
X076185Y025222D01*
X076291D01*
X076345Y025168D01*
X076025D02*
X075971Y025222D01*
X075865D01*
X075811Y025168D01*
Y025115D01*
X075865Y025062D01*
X075918D01*
X075865D01*
X075811Y025008D01*
Y024955D01*
X075865Y024902D01*
X075971D01*
X076025Y024955D01*
X079370Y013798D02*
X079690D01*
Y013958D01*
X079636Y014011D01*
X079530D01*
X079476Y013958D01*
Y013798D01*
Y013905D02*
X079370Y014011D01*
Y014331D02*
Y014118D01*
X079583Y014331D01*
X079636D01*
X079690Y014278D01*
Y014171D01*
X079636Y014118D01*
X079370Y014651D02*
Y014438D01*
X079583Y014651D01*
X079636D01*
X079690Y014598D01*
Y014491D01*
X079636Y014438D01*
X079352Y012552D02*
X079672D01*
Y012712D01*
X079619Y012766D01*
X079512D01*
X079459Y012712D01*
Y012552D01*
Y012659D02*
X079352Y012766D01*
Y013086D02*
Y012872D01*
X079565Y013086D01*
X079619D01*
X079672Y013032D01*
Y012926D01*
X079619Y012872D01*
X079352Y013192D02*
Y013299D01*
Y013245D01*
X079672D01*
X079619Y013192D01*
X086923Y033050D02*
Y032730D01*
X086763D01*
X086710Y032783D01*
Y032837D01*
X086763Y032890D01*
X086923D01*
X086763D01*
X086710Y032943D01*
Y032997D01*
X086763Y033050D01*
X086923D01*
X086603D02*
Y032730D01*
Y032890D01*
X086390D01*
Y033050D01*
Y032730D01*
X086283D02*
X086177D01*
X086230D01*
Y033050D01*
X086283Y032997D01*
D146*
X015926Y014981D02*
X035512Y014981D01*
X016024Y016359D02*
X035611Y016359D01*
X015926Y036635D02*
X035512Y036635D01*
X015926Y038013D02*
X035512Y038013D01*
X015926Y011733D02*
X015926Y041261D01*
X035611Y011733D02*
X035611Y041261D01*
X015926Y011733D02*
X035512Y011733D01*
X015926Y041261D02*
X035512Y041261D01*
X040367Y013895D02*
X042205D01*
X040335Y013899D02*
X040335Y039588D01*
Y039588D02*
X042205D01*
Y013895D02*
Y039588D01*
X044935Y065953D02*
X086999D01*
X044935Y033472D02*
X086999D01*
X086999Y065953D01*
X044935D02*
X044935Y033472D01*
X061736Y065854D02*
X061834Y033472D01*
D147*
X042710Y033197D02*
X079950D01*
X042710D02*
X042710Y011268D01*
X079950D01*
X079950Y033197D02*
X079950Y011268D01*
D148*
X018789Y058657D02*
D03*
X018799Y057127D02*
D03*
X038949Y047157D02*
D03*
X038939Y048687D02*
D03*
D149*
X019674Y057892D02*
D03*
X017924D02*
D03*
X038074Y047922D02*
D03*
X039824D02*
D03*
M02*
