G04*
G04 #@! TF.GenerationSoftware,Altium Limited,Altium Designer,20.1.8 (145)*
G04*
G04 Layer_Color=128*
%FSAX24Y24*%
%MOIN*%
G70*
G04*
G04 #@! TF.SameCoordinates,C37C2F13-19AF-4E89-93B9-DE42FBC32811*
G04*
G04*
G04 #@! TF.FilePolarity,Positive*
G04*
G01*
G75*
%ADD35R,0.0450X0.0550*%
%ADD36R,0.0550X0.0450*%
%ADD39R,0.0472X0.1083*%
%ADD40R,0.0315X0.0433*%
%ADD47R,0.0700X0.0500*%
%ADD135R,0.0500X0.0600*%
%ADD136R,0.0669X0.1260*%
%ADD137R,0.0600X0.0600*%
%ADD138R,0.0360X0.0360*%
%ADD139R,0.0360X0.0500*%
D35*
X043964Y026820D02*
D03*
X043964Y025920D02*
D03*
X043080Y025920D02*
D03*
X043080Y026820D02*
D03*
X035150Y046070D02*
D03*
X035150Y046970D02*
D03*
X031750Y048740D02*
D03*
X031750Y047840D02*
D03*
X033720Y047860D02*
D03*
X033720Y048760D02*
D03*
X032630Y047860D02*
D03*
X032630Y048760D02*
D03*
X020550Y058390D02*
D03*
X020550Y057490D02*
D03*
X039260Y043960D02*
D03*
X039260Y043060D02*
D03*
D36*
X042100Y047840D02*
D03*
X041200Y047840D02*
D03*
X036180Y046980D02*
D03*
X037080Y046980D02*
D03*
X039260Y044890D02*
D03*
X040160Y044890D02*
D03*
X041200Y045770D02*
D03*
X042100Y045770D02*
D03*
X040140Y045770D02*
D03*
X039240Y045770D02*
D03*
X042100Y048760D02*
D03*
X041200Y048760D02*
D03*
X033720Y046110D02*
D03*
X032820Y046110D02*
D03*
X041200Y044890D02*
D03*
X042100Y044890D02*
D03*
X034519Y044448D02*
D03*
X033619Y044448D02*
D03*
X018287Y056359D02*
D03*
X019187Y056359D02*
D03*
D39*
X044842Y013615D02*
D03*
Y015525D02*
D03*
X047818D02*
D03*
Y013615D02*
D03*
X071492Y015525D02*
D03*
Y013615D02*
D03*
X074468D02*
D03*
Y015525D02*
D03*
D40*
X045830Y013487D02*
D03*
X046330D02*
D03*
X046830D02*
D03*
X045830Y015653D02*
D03*
X046330D02*
D03*
X046830D02*
D03*
X072480Y013487D02*
D03*
X072980D02*
D03*
X073480D02*
D03*
X072480Y015653D02*
D03*
X072980D02*
D03*
X073480D02*
D03*
D47*
X018810Y059470D02*
D03*
Y060920D02*
D03*
D135*
X066457Y051142D02*
D03*
X066457Y050242D02*
D03*
D136*
X031929Y044448D02*
D03*
X030591D02*
D03*
X037609Y044450D02*
D03*
X036271D02*
D03*
D137*
X077340Y026760D02*
D03*
X078690D02*
D03*
X077340Y028090D02*
D03*
X078690D02*
D03*
X077320Y012930D02*
D03*
X078670D02*
D03*
X077320Y014230D02*
D03*
X078670D02*
D03*
X077340Y025420D02*
D03*
X078690D02*
D03*
X077350Y029420D02*
D03*
X078700D02*
D03*
X078690Y015560D02*
D03*
X077340D02*
D03*
Y016920D02*
D03*
X078690D02*
D03*
D138*
X018420Y057470D02*
D03*
X019170D02*
D03*
X039320Y047500D02*
D03*
X038570D02*
D03*
D139*
X018790Y058270D02*
D03*
X038940Y048300D02*
D03*
M02*
