M48
;Layer_Color=11367680
;FILE_FORMAT=2:4
INCH
;TYPE=PLATED
T1F00S00C0.0120
T2F00S00C0.0150
T3F00S00C0.0236
T4F00S00C0.0354
T5F00S00C0.0394
T6F00S00C0.0400
T7F00S00C0.0492
T8F00S00C0.0500
T9F00S00C0.0591
T10F00S00C0.0600
T11F00S00C0.0709
T12F00S00C0.0787
T13F00S00C0.0850
T14F00S00C0.0984
;TYPE=NON_PLATED
T15F00S00C0.0630
T16F00S00C0.0984
T17F00S00C0.1102
T18F00S00C0.9055
%
T01
X030120Y014370
X043387Y013800
X043911Y014045
X045830Y015238
X046331Y015180
X049208Y014038
X065690Y014620
Y013350
X066122Y011658
X067822Y013430
Y014543
X072480Y012974
X072980
X076610Y012930
X076261Y014228
X073750Y016654
X073249Y016946
X072640Y022142
X074156Y021883
X075761Y025433
X075258Y026765
X074762Y027365
X074264Y027688
X072840Y028820
X077460Y031200
X067740Y026670
X067756Y025570
X066045Y026307
X065150Y026310
X063690Y025890
Y026800
X060361Y027650
Y025120
X059066Y022140
Y020940
X056070Y022140
X050710Y031010
X046830Y015653
X033520Y017710
X031640Y016780
Y019170
X031374Y031188
X029756Y026612
X020990Y026710
X021000Y028470
X029430Y016700
X026210Y037934
X028782Y040882
X026210Y045840
X033930Y039506
X035910Y040882
X034590Y035710
X031389Y034787
X035650Y031760
X043430Y040410
X046061Y041495
X046486Y044531
X046061Y045991
X042100Y044430
X049620Y043358
X053762
X055927Y041344
X057390Y040370
X057030Y039363
X056770Y039146
X058423Y039290
X058425Y038968
X058750Y038964
X058748Y039293
X060215Y040133
X060868
X060803Y037835
X060215
X060232Y035860
X061669Y036040
X059090Y036420
X058140Y036540
X058140Y036897
X058426Y037117
X057735Y036780
X055611Y036114
X052660Y036080
X052470Y036430
X052283Y036700
X052070Y037020
X051780Y040920
X058380Y041746
X059927Y042090
X059923Y044900
X057568Y044865
X060950Y046560
X062572Y041199
X066558Y040807
X066520Y038733
X070050Y035750
X070050Y035427
X070314Y032860
X069347Y032550
X073050Y032260
X074035Y032550
X074999Y032469
X076107Y032710
X076810Y034290
Y035910
X062572Y036019
X079470Y032610
X079850
X079267Y058193
X079104Y061262
X080410Y061130
X084268Y058640
X077405Y058193
X077422Y060560
X075380Y060900
X065387Y060500
X064898Y060524
X066130Y057290
Y055280
X066858Y055282
X071150Y053860
X048460Y053780
X047950Y056100
X047934Y056595
X047950Y051073
X047080Y048072
X046005Y051073
X046541Y053012
X045725Y056602
X045727Y057084
X039240Y056210
X033083Y055962
X032109Y056648
Y057139
X033294Y054286
X032645Y051692
X043430Y048750
X029892Y057139
Y057635
X029050Y056940
X026850Y057530
Y059273
X024606Y058602
X024320Y057770
X023774Y056803
Y055652
X023488Y055923
X012645Y061512
Y065676
X015177Y065476
X017050Y065461
X016589Y063476
X018752Y062620
X019233Y062619
X018754Y064550
X019734Y064560
X020230Y064556
X020722Y064532
X022239Y064572
X022000Y063690
X022733Y062525
X053928Y062922
X053960Y063280
Y063720
Y064020
X053090Y065730
X052730Y065720
X059744Y063080
X059740Y062730
X061392Y063631
X061894Y063609
X063874Y062610
X064392Y062584
X071150Y062960
X083750Y062894
X083975Y063530
X083520Y064240
X085380Y063820
X085150Y063530
X085811Y064084
X084730Y062503
T02
X012000Y012000
X013200Y014400
X018000
X022800
X025200
X027600
X032400
X037200
X042000
X044400
X046800
X050400Y012000
X052800
X055200
X057600
X060000
X056400Y014400
X054000
X070800
X073200
X075600
X078000
X076800Y012000
X074400
X079200
Y021600
X078000Y024000
Y028800
X070800
X072000Y026400
X069600
X067200
X068400Y024000
X070800
Y019200
X068400
X069600Y016800
X072000
X067200
X063600Y019200
Y024000
X066000Y028800
X069600Y031200
X074400Y021600
X078000Y019200
X058800
X055200Y016800
X054000Y024000
X050400Y021600
X048000
X050400Y031200
X061200Y028800
Y024000
X046800
X044400
X045600Y026400
X044400Y028800
X042000
X039600
X040800Y031200
X033600
X034800Y028800
Y024000
X032400
Y019200
X037200
X039600
X040800Y021600
X039600Y024000
X045600Y021600
X028800
X026400
X024000
X025200Y024000
X027600
X030000
Y028800
X027600
X025200
X022800
X024000Y031200
X021600
X019200
X016800
Y026400
X018000Y024000
X019200Y021600
X016800
Y016800
X019200
X024000
X026400
X027600Y019200
X030000
X031200Y016800
X025200Y019200
X022800
Y024000
X024000Y026400
X028800Y031200
X014400
X012000Y021600
X014400Y016800
X015600Y033600
X013200
X014400Y036000
X012000
X016800
X019200
X021600
X024000
X025200Y033600
X027600
X028800Y036000
X030000Y043200
X027600
X025200
X022800
Y038400
X020400
X018000
Y043200
Y033600
X022800
X028800Y045600
X031200
X033600
X036000
X038400
X037200Y043200
X034800
X032400
X038400Y040800
X040800
X042000Y043200
X044400
X045600Y045600
Y040800
X046800Y038400
X044400
X042000
X039600
X037200
X038400Y036000
X040800
X043200
X039600Y033600
X036000Y036000
X033600
X050400
X056400Y033600
X058800
X061200Y038400
X062400Y040800
X060000
X061200Y043200
X056400
X063600
Y038400
X066000
X067200Y036000
X069600Y045600
X078000Y033600
X080400
X081600Y036000
X084000
X086400
X087600Y038400
X086400Y040800
X087600Y043200
X085200
X086400Y045600
X087600Y033600
X085200
X079200Y036000
X080400Y038400
Y048000
X081600Y050400
X082800Y052800
X085200
X087600
X086400Y055200
X087600Y057600
X085200
X080400
X081600Y055200
X079200
X080400Y052800
X086400Y050400
X087600Y048000
X085200
X079200Y060000
X072000
X069600
X070800Y062400
X073200
X068400
X070800Y057600
X063600
X069600Y050400
X072000
X070800Y048000
X075600
X056400
Y052800
X058800
X061200Y057600
X056400
X057600Y060000
X056400Y062400
X054000
X051600
X049200
X048000Y060000
Y055200
X049200Y052800
X050400Y050400
X051600Y048000
X044400
Y052800
X046800
X042000
X039600
X037200
X034800
X032400
Y062400
X034800
X039600
X046800
X045600Y060000
X031200
X030000Y062400
X027600
X026400Y055200
X024000
X025200Y052800
X027600
X030000
X031200Y055200
X028800Y050400
X030000Y048000
X027600
X020400Y052800
X018000
X019200Y055200
X016800
X019200Y060000
X012000Y055200
X013200Y052800
X026400Y064800
X031200
X033600
X036000
X038400
X040800
X045600
X048000
X060000
X062400
X064800
X084000
X086400
T03
X020570Y059490
Y059990
T04
X011920Y013220
X055726Y015586
X057694
X060366Y015576
X062334
X064836Y020856
X066804
X069486Y020866
X071454
X071404Y023544
X069436
X066754
X064786
X064828Y028824
X066796
X069656Y028864
X071624
X062014Y028824
X060046
X054986Y028726
Y030694
X054986Y026084
Y024116
X054966Y021384
Y019416
X052900Y015663
X050932
X060170Y020850
X062138
X062064Y023524
X060096
X011940Y023160
Y027097
X011920Y017157
T05
X043630Y020770
Y021770
Y022770
Y030230
Y031230
Y032230
X086900Y058358
Y062886
T06
X077813Y020406
Y021391
Y022375
X038371Y037352
X037371
X047470Y031910
X048470
T07
X088278Y058358
Y062886
T08
X011484Y038181
Y040937
Y042531
Y045287
X014634Y045091
Y042728
Y040740
Y038378
X014250Y048465
X014762Y052008
X014690Y053366
Y055728
X014640Y057697
Y060059
X014630Y062028
X011480Y061831
X011490Y060256
Y057500
X011540Y055925
Y053169
X011480Y064587
X014630Y064390
T09
X010936Y015188
X013495
X014381
X014401Y025129
X013515
X010956
T10
X010610Y018874
Y020874
X012610
Y018874
X011610Y019874
X010610Y029110
Y031110
X012610
Y029110
X011610Y030110
T11
X010982Y051102
X013856
T12
X010787Y012197
X049567
X075945
X078746Y031186
X068036Y017126
X054440
X048610Y024690
Y026462
Y028233
X045802Y031186
X037586Y028233
Y024690
X057405Y032404
X082602Y032404
X016102Y064756
X087951Y064756
T13
X074860Y018930
Y023851
T14
X049334Y034555
X057405
X066460
X074531
X082602
X057405Y064870
X049334Y064968
X066460Y064870
X074531
X082602
T15
X044960Y014570
X047700
X071610
X074350
X013610Y039559
X010791
Y043909
X013610
X066762Y062063
X060522
X013616Y058878
X010797
X010847Y054547
X013666
X013606Y063209
X010787
X017861Y064087
X024101
T16
X041280Y034174
T17
X041280Y018820
X029528Y051437
Y064823
X042913Y064921
T18
X021020Y047870
M30
