G04*
G04 #@! TF.GenerationSoftware,Altium Limited,Altium Designer,20.1.8 (145)*
G04*
G04 Layer_Color=128*
%FSAX24Y24*%
%MOIN*%
G70*
G04*
G04 #@! TF.SameCoordinates,C37C2F13-19AF-4E89-93B9-DE42FBC32811*
G04*
G04*
G04 #@! TF.FilePolarity,Positive*
G04*
G01*
G75*
%ADD150C,0.0020*%
D150*
X020452Y059490D02*
X020688D01*
X020570Y059372D02*
Y059608D01*
X020452Y059990D02*
X020688D01*
X020570Y059872D02*
Y060108D01*
X038171Y037352D02*
X038571D01*
X038371Y037152D02*
Y037552D01*
X037171Y037352D02*
X037571D01*
X037371Y037152D02*
Y037552D01*
X040788Y034174D02*
X041772D01*
X041280Y033682D02*
Y034666D01*
X040729Y018820D02*
X041831D01*
X041280Y018269D02*
Y019371D01*
X010310Y029110D02*
X010910D01*
X010610Y028810D02*
Y029410D01*
X010310Y031110D02*
X010910D01*
X010610Y030810D02*
Y031410D01*
X012310Y031110D02*
X012910D01*
X012610Y030810D02*
Y031410D01*
X012310Y029110D02*
X012910D01*
X012610Y028810D02*
Y029410D01*
X011310Y030110D02*
X011910D01*
X011610Y029810D02*
Y030410D01*
X010310Y018874D02*
X010910D01*
X010610Y018574D02*
Y019174D01*
X010310Y020874D02*
X010910D01*
X010610Y020574D02*
Y021174D01*
X012310Y020874D02*
X012910D01*
X012610Y020574D02*
Y021174D01*
X012310Y018874D02*
X012910D01*
X012610Y018574D02*
Y019174D01*
X011310Y019874D02*
X011910D01*
X011610Y019574D02*
Y020174D01*
X014512Y052008D02*
X015012D01*
X014762Y051758D02*
Y052258D01*
X014000Y048465D02*
X014500D01*
X014250Y048215D02*
Y048715D01*
X010628Y051102D02*
X011337D01*
X010982Y050748D02*
Y051457D01*
X013502Y051102D02*
X014211D01*
X013856Y050748D02*
Y051457D01*
X013301Y058878D02*
X013931D01*
X013616Y058563D02*
Y059193D01*
X014390Y060059D02*
X014890D01*
X014640Y059809D02*
Y060309D01*
X014390Y057697D02*
X014890D01*
X014640Y057447D02*
Y057947D01*
X011240Y060256D02*
X011740D01*
X011490Y060006D02*
Y060506D01*
X011240Y057500D02*
X011740D01*
X011490Y057250D02*
Y057750D01*
X010482Y058878D02*
X011112D01*
X010797Y058563D02*
Y059193D01*
X054046Y017126D02*
X054833D01*
X054440Y016732D02*
Y017520D01*
X067643Y017126D02*
X068430D01*
X068036Y016732D02*
Y017520D01*
X045408Y031186D02*
X046195D01*
X045802Y030793D02*
Y031580D01*
X078352Y031186D02*
X079139D01*
X078746Y030793D02*
Y031580D01*
X082208Y032404D02*
X082995D01*
X082602Y032011D02*
Y032798D01*
X057011Y032404D02*
X057798D01*
X057405Y032011D02*
Y032798D01*
X044645Y014570D02*
X045275D01*
X044960Y014255D02*
Y014885D01*
X047385Y014570D02*
X048015D01*
X047700Y014255D02*
Y014885D01*
X088032Y062886D02*
X088524D01*
X088278Y062640D02*
Y063132D01*
X088032Y058358D02*
X088524D01*
X088278Y058112D02*
Y058604D01*
X086703Y062886D02*
X087097D01*
X086900Y062689D02*
Y063083D01*
X086703Y058358D02*
X087097D01*
X086900Y058161D02*
Y058555D01*
X042362Y064921D02*
X043465D01*
X042913Y064370D02*
Y065473D01*
X028976Y064823D02*
X030079D01*
X029528Y064272D02*
Y065374D01*
X028976Y051437D02*
X030079D01*
X029528Y050886D02*
Y051988D01*
X048842Y064968D02*
X049826D01*
X049334Y064476D02*
Y065461D01*
X048842Y034555D02*
X049826D01*
X049334Y034063D02*
Y035047D01*
X056913Y034555D02*
X057897D01*
X057405Y034063D02*
Y035047D01*
X065968Y034555D02*
X066952D01*
X066460Y034063D02*
Y035047D01*
X074039Y034555D02*
X075023D01*
X074531Y034063D02*
Y035047D01*
X065968Y064870D02*
X066952D01*
X066460Y064378D02*
Y065362D01*
X082110Y034555D02*
X083094D01*
X082602Y034063D02*
Y035047D01*
X082110Y064870D02*
X083094D01*
X082602Y064378D02*
Y065362D01*
X074039Y064870D02*
X075023D01*
X074531Y064378D02*
Y065362D01*
X056913Y064870D02*
X057897D01*
X057405Y064378D02*
Y065362D01*
X015709Y064756D02*
X016496D01*
X016102Y064362D02*
Y065150D01*
X087557Y064756D02*
X088345D01*
X087951Y064362D02*
Y065150D01*
X010394Y012197D02*
X011181D01*
X010787Y011803D02*
Y012591D01*
X075551Y012197D02*
X076339D01*
X075945Y011803D02*
Y012591D01*
X049173Y012197D02*
X049961D01*
X049567Y011803D02*
Y012591D01*
X023786Y064087D02*
X024416D01*
X024101Y063772D02*
Y064402D01*
X017546Y064087D02*
X018176D01*
X017861Y063772D02*
Y064402D01*
X066447Y062063D02*
X067077D01*
X066762Y061748D02*
Y062378D01*
X060207Y062063D02*
X060837D01*
X060522Y061748D02*
Y062378D01*
X071295Y014570D02*
X071925D01*
X071610Y014255D02*
Y014885D01*
X074035Y014570D02*
X074665D01*
X074350Y014255D02*
Y014885D01*
X013295Y039559D02*
X013925D01*
X013610Y039244D02*
Y039874D01*
X014384Y040740D02*
X014884D01*
X014634Y040490D02*
Y040990D01*
X014384Y038378D02*
X014884D01*
X014634Y038128D02*
Y038628D01*
X011234Y040937D02*
X011734D01*
X011484Y040687D02*
Y041187D01*
X011234Y038181D02*
X011734D01*
X011484Y037931D02*
Y038431D01*
X010476Y039559D02*
X011106D01*
X010791Y039244D02*
Y039874D01*
X054809Y030694D02*
X055163D01*
X054986Y030517D02*
Y030871D01*
X054809Y028726D02*
X055163D01*
X054986Y028549D02*
Y028903D01*
X054789Y019416D02*
X055144D01*
X054966Y019239D02*
Y019593D01*
X054789Y021384D02*
X055144D01*
X054966Y021207D02*
Y021561D01*
X060189Y015576D02*
X060543D01*
X060366Y015399D02*
Y015754D01*
X062157Y015576D02*
X062511D01*
X062334Y015399D02*
Y015754D01*
X057517Y015586D02*
X057871D01*
X057694Y015409D02*
Y015764D01*
X055549Y015586D02*
X055903D01*
X055726Y015409D02*
Y015764D01*
X069258Y023544D02*
X069613D01*
X069436Y023366D02*
Y023721D01*
X071227Y023544D02*
X071581D01*
X071404Y023366D02*
Y023721D01*
X048270Y031910D02*
X048670D01*
X048470Y031710D02*
Y032110D01*
X047270Y031910D02*
X047670D01*
X047470Y031710D02*
Y032110D01*
X014085Y015188D02*
X014676D01*
X014381Y014893D02*
Y015484D01*
X010640Y015188D02*
X011231D01*
X010936Y014893D02*
Y015484D01*
X011743Y017157D02*
X012097D01*
X011920Y016980D02*
Y017334D01*
X011743Y013220D02*
X012097D01*
X011920Y013043D02*
Y013397D01*
X013200Y015188D02*
X013790D01*
X013495Y014893D02*
Y015484D01*
X043433Y022770D02*
X043827D01*
X043630Y022573D02*
Y022967D01*
X043433Y021770D02*
X043827D01*
X043630Y021573D02*
Y021967D01*
X043433Y020770D02*
X043827D01*
X043630Y020573D02*
Y020967D01*
X043433Y032230D02*
X043827D01*
X043630Y032033D02*
Y032427D01*
X043433Y031230D02*
X043827D01*
X043630Y031033D02*
Y031427D01*
X043433Y030230D02*
X043827D01*
X043630Y030033D02*
Y030427D01*
X048216Y024690D02*
X049004D01*
X048610Y024296D02*
Y025084D01*
X037193Y024690D02*
X037980D01*
X037586Y024296D02*
Y025084D01*
X048216Y028233D02*
X049004D01*
X048610Y027840D02*
Y028627D01*
X048216Y026462D02*
X049004D01*
X048610Y026068D02*
Y026855D01*
X037193Y028233D02*
X037980D01*
X037586Y027840D02*
Y028627D01*
X013295Y043909D02*
X013925D01*
X013610Y043594D02*
Y044224D01*
X014384Y045091D02*
X014884D01*
X014634Y044841D02*
Y045341D01*
X014384Y042728D02*
X014884D01*
X014634Y042478D02*
Y042978D01*
X011234Y045287D02*
X011734D01*
X011484Y045037D02*
Y045537D01*
X011234Y042531D02*
X011734D01*
X011484Y042281D02*
Y042782D01*
X010476Y043909D02*
X011106D01*
X010791Y043594D02*
Y044224D01*
X077613Y022375D02*
X078013D01*
X077813Y022175D02*
Y022575D01*
X077613Y020406D02*
X078013D01*
X077813Y020206D02*
Y020606D01*
X077613Y021391D02*
X078013D01*
X077813Y021191D02*
Y021591D01*
X074435Y023851D02*
X075285D01*
X074860Y023426D02*
Y024276D01*
X074435Y018930D02*
X075285D01*
X074860Y018505D02*
Y019355D01*
X059869Y028824D02*
X060223D01*
X060046Y028646D02*
Y029001D01*
X061837Y028824D02*
X062191D01*
X062014Y028646D02*
Y029001D01*
X014105Y025129D02*
X014696D01*
X014401Y024833D02*
Y025424D01*
X010660Y025129D02*
X011251D01*
X010956Y024833D02*
Y025424D01*
X011763Y027097D02*
X012117D01*
X011940Y026920D02*
Y027274D01*
X011763Y023160D02*
X012117D01*
X011940Y022983D02*
Y023337D01*
X013220Y025129D02*
X013810D01*
X013515Y024833D02*
Y025424D01*
X064608Y023544D02*
X064963D01*
X064786Y023366D02*
Y023721D01*
X066577Y023544D02*
X066931D01*
X066754Y023366D02*
Y023721D01*
X016492Y047870D02*
X025548D01*
X021020Y043342D02*
Y052398D01*
X010532Y054547D02*
X011162D01*
X010847Y054232D02*
Y054862D01*
X011290Y053169D02*
X011790D01*
X011540Y052919D02*
Y053419D01*
X011290Y055925D02*
X011790D01*
X011540Y055675D02*
Y056175D01*
X014440Y053366D02*
X014940D01*
X014690Y053116D02*
Y053616D01*
X014440Y055728D02*
X014940D01*
X014690Y055478D02*
Y055978D01*
X013351Y054547D02*
X013981D01*
X013666Y054232D02*
Y054862D01*
X010473Y063209D02*
X011102D01*
X010787Y062894D02*
Y063524D01*
X011230Y061831D02*
X011730D01*
X011480Y061581D02*
Y062081D01*
X011230Y064587D02*
X011730D01*
X011480Y064337D02*
Y064837D01*
X014380Y062028D02*
X014880D01*
X014630Y061778D02*
Y062278D01*
X014380Y064390D02*
X014880D01*
X014630Y064140D02*
Y064640D01*
X013291Y063209D02*
X013921D01*
X013606Y062894D02*
Y063524D01*
X050754Y015663D02*
X051109D01*
X050932Y015486D02*
Y015840D01*
X052723Y015663D02*
X053077D01*
X052900Y015486D02*
Y015840D01*
X071447Y028864D02*
X071801D01*
X071624Y028686D02*
Y029041D01*
X069479Y028864D02*
X069833D01*
X069656Y028686D02*
Y029041D01*
X054809Y026084D02*
X055163D01*
X054986Y025907D02*
Y026261D01*
X054809Y024116D02*
X055163D01*
X054986Y023939D02*
Y024293D01*
X066619Y028824D02*
X066973D01*
X066796Y028646D02*
Y029001D01*
X064651Y028824D02*
X065005D01*
X064828Y028646D02*
Y029001D01*
X059993Y020850D02*
X060347D01*
X060170Y020673D02*
Y021027D01*
X061961Y020850D02*
X062316D01*
X062138Y020673D02*
Y021027D01*
X064659Y020856D02*
X065013D01*
X064836Y020679D02*
Y021034D01*
X066627Y020856D02*
X066981D01*
X066804Y020679D02*
Y021034D01*
X061887Y023524D02*
X062241D01*
X062064Y023346D02*
Y023701D01*
X059918Y023524D02*
X060273D01*
X060096Y023346D02*
Y023701D01*
X069308Y020866D02*
X069663D01*
X069486Y020689D02*
Y021044D01*
X071277Y020866D02*
X071631D01*
X071454Y020689D02*
Y021044D01*
X016990Y065461D02*
X017110D01*
X017050Y065401D02*
Y065521D01*
X015117Y065476D02*
X015237D01*
X015177Y065416D02*
Y065536D01*
X016529Y063476D02*
X016649D01*
X016589Y063416D02*
Y063536D01*
X086325Y064800D02*
X086475D01*
X086400Y064725D02*
Y064875D01*
X087525Y057600D02*
X087675D01*
X087600Y057525D02*
Y057675D01*
X086325Y055200D02*
X086475D01*
X086400Y055125D02*
Y055275D01*
X087525Y052800D02*
X087675D01*
X087600Y052725D02*
Y052875D01*
X086325Y050400D02*
X086475D01*
X086400Y050325D02*
Y050475D01*
X087525Y048000D02*
X087675D01*
X087600Y047925D02*
Y048075D01*
X086325Y045600D02*
X086475D01*
X086400Y045525D02*
Y045675D01*
X087525Y043200D02*
X087675D01*
X087600Y043125D02*
Y043275D01*
X086325Y040800D02*
X086475D01*
X086400Y040725D02*
Y040875D01*
X087525Y038400D02*
X087675D01*
X087600Y038325D02*
Y038475D01*
X086325Y036000D02*
X086475D01*
X086400Y035925D02*
Y036075D01*
X087525Y033600D02*
X087675D01*
X087600Y033525D02*
Y033675D01*
X083925Y064800D02*
X084075D01*
X084000Y064725D02*
Y064875D01*
X085125Y057600D02*
X085275D01*
X085200Y057525D02*
Y057675D01*
X085125Y052800D02*
X085275D01*
X085200Y052725D02*
Y052875D01*
X085125Y048000D02*
X085275D01*
X085200Y047925D02*
Y048075D01*
X085125Y043200D02*
X085275D01*
X085200Y043125D02*
Y043275D01*
X083925Y036000D02*
X084075D01*
X084000Y035925D02*
Y036075D01*
X085125Y033600D02*
X085275D01*
X085200Y033525D02*
Y033675D01*
X081525Y055200D02*
X081675D01*
X081600Y055125D02*
Y055275D01*
X082725Y052800D02*
X082875D01*
X082800Y052725D02*
Y052875D01*
X081525Y050400D02*
X081675D01*
X081600Y050325D02*
Y050475D01*
X081525Y036000D02*
X081675D01*
X081600Y035925D02*
Y036075D01*
X079125Y060000D02*
X079275D01*
X079200Y059925D02*
Y060075D01*
X080325Y057600D02*
X080475D01*
X080400Y057525D02*
Y057675D01*
X079125Y055200D02*
X079275D01*
X079200Y055125D02*
Y055275D01*
X080325Y052800D02*
X080475D01*
X080400Y052725D02*
Y052875D01*
X080325Y048000D02*
X080475D01*
X080400Y047925D02*
Y048075D01*
X080325Y038400D02*
X080475D01*
X080400Y038325D02*
Y038475D01*
X079125Y036000D02*
X079275D01*
X079200Y035925D02*
Y036075D01*
X080325Y033600D02*
X080475D01*
X080400Y033525D02*
Y033675D01*
X079125Y021600D02*
X079275D01*
X079200Y021525D02*
Y021675D01*
X079125Y012000D02*
X079275D01*
X079200Y011925D02*
Y012075D01*
X077925Y033600D02*
X078075D01*
X078000Y033525D02*
Y033675D01*
X077925Y028800D02*
X078075D01*
X078000Y028725D02*
Y028875D01*
X077925Y024000D02*
X078075D01*
X078000Y023925D02*
Y024075D01*
X077925Y019200D02*
X078075D01*
X078000Y019125D02*
Y019275D01*
X077925Y014400D02*
X078075D01*
X078000Y014325D02*
Y014475D01*
X076725Y012000D02*
X076875D01*
X076800Y011925D02*
Y012075D01*
X075525Y048000D02*
X075675D01*
X075600Y047925D02*
Y048075D01*
X074325Y021600D02*
X074475D01*
X074400Y021525D02*
Y021675D01*
X075525Y014400D02*
X075675D01*
X075600Y014325D02*
Y014475D01*
X074325Y012000D02*
X074475D01*
X074400Y011925D02*
Y012075D01*
X073125Y062400D02*
X073275D01*
X073200Y062325D02*
Y062475D01*
X071925Y060000D02*
X072075D01*
X072000Y059925D02*
Y060075D01*
X071925Y050400D02*
X072075D01*
X072000Y050325D02*
Y050475D01*
X071925Y026400D02*
X072075D01*
X072000Y026325D02*
Y026475D01*
X071925Y016800D02*
X072075D01*
X072000Y016725D02*
Y016875D01*
X073125Y014400D02*
X073275D01*
X073200Y014325D02*
Y014475D01*
X070725Y062400D02*
X070875D01*
X070800Y062325D02*
Y062475D01*
X069525Y060000D02*
X069675D01*
X069600Y059925D02*
Y060075D01*
X070725Y057600D02*
X070875D01*
X070800Y057525D02*
Y057675D01*
X069525Y050400D02*
X069675D01*
X069600Y050325D02*
Y050475D01*
X070725Y048000D02*
X070875D01*
X070800Y047925D02*
Y048075D01*
X069525Y045600D02*
X069675D01*
X069600Y045525D02*
Y045675D01*
X069525Y031200D02*
X069675D01*
X069600Y031125D02*
Y031275D01*
X070725Y028800D02*
X070875D01*
X070800Y028725D02*
Y028875D01*
X069525Y026400D02*
X069675D01*
X069600Y026325D02*
Y026475D01*
X070725Y024000D02*
X070875D01*
X070800Y023925D02*
Y024075D01*
X070725Y019200D02*
X070875D01*
X070800Y019125D02*
Y019275D01*
X069525Y016800D02*
X069675D01*
X069600Y016725D02*
Y016875D01*
X070725Y014400D02*
X070875D01*
X070800Y014325D02*
Y014475D01*
X068325Y062400D02*
X068475D01*
X068400Y062325D02*
Y062475D01*
X067125Y036000D02*
X067275D01*
X067200Y035925D02*
Y036075D01*
X067125Y026400D02*
X067275D01*
X067200Y026325D02*
Y026475D01*
X068325Y024000D02*
X068475D01*
X068400Y023925D02*
Y024075D01*
X068325Y019200D02*
X068475D01*
X068400Y019125D02*
Y019275D01*
X067125Y016800D02*
X067275D01*
X067200Y016725D02*
Y016875D01*
X064725Y064800D02*
X064875D01*
X064800Y064725D02*
Y064875D01*
X065925Y038400D02*
X066075D01*
X066000Y038325D02*
Y038475D01*
X065925Y028800D02*
X066075D01*
X066000Y028725D02*
Y028875D01*
X062325Y064800D02*
X062475D01*
X062400Y064725D02*
Y064875D01*
X063525Y057600D02*
X063675D01*
X063600Y057525D02*
Y057675D01*
X063525Y043200D02*
X063675D01*
X063600Y043125D02*
Y043275D01*
X062325Y040800D02*
X062475D01*
X062400Y040725D02*
Y040875D01*
X063525Y038400D02*
X063675D01*
X063600Y038325D02*
Y038475D01*
X063525Y024000D02*
X063675D01*
X063600Y023925D02*
Y024075D01*
X063525Y019200D02*
X063675D01*
X063600Y019125D02*
Y019275D01*
X059925Y064800D02*
X060075D01*
X060000Y064725D02*
Y064875D01*
X061125Y057600D02*
X061275D01*
X061200Y057525D02*
Y057675D01*
X061125Y043200D02*
X061275D01*
X061200Y043125D02*
Y043275D01*
X059925Y040800D02*
X060075D01*
X060000Y040725D02*
Y040875D01*
X061125Y038400D02*
X061275D01*
X061200Y038325D02*
Y038475D01*
X061125Y028800D02*
X061275D01*
X061200Y028725D02*
Y028875D01*
X061125Y024000D02*
X061275D01*
X061200Y023925D02*
Y024075D01*
X059925Y012000D02*
X060075D01*
X060000Y011925D02*
Y012075D01*
X057525Y060000D02*
X057675D01*
X057600Y059925D02*
Y060075D01*
X058725Y052800D02*
X058875D01*
X058800Y052725D02*
Y052875D01*
X058725Y033600D02*
X058875D01*
X058800Y033525D02*
Y033675D01*
X058725Y019200D02*
X058875D01*
X058800Y019125D02*
Y019275D01*
X057525Y012000D02*
X057675D01*
X057600Y011925D02*
Y012075D01*
X056325Y062400D02*
X056475D01*
X056400Y062325D02*
Y062475D01*
X056325Y057600D02*
X056475D01*
X056400Y057525D02*
Y057675D01*
X056325Y052800D02*
X056475D01*
X056400Y052725D02*
Y052875D01*
X056325Y048000D02*
X056475D01*
X056400Y047925D02*
Y048075D01*
X056325Y043200D02*
X056475D01*
X056400Y043125D02*
Y043275D01*
X056325Y033600D02*
X056475D01*
X056400Y033525D02*
Y033675D01*
X055125Y016800D02*
X055275D01*
X055200Y016725D02*
Y016875D01*
X056325Y014400D02*
X056475D01*
X056400Y014325D02*
Y014475D01*
X055125Y012000D02*
X055275D01*
X055200Y011925D02*
Y012075D01*
X053925Y062400D02*
X054075D01*
X054000Y062325D02*
Y062475D01*
X053925Y024000D02*
X054075D01*
X054000Y023925D02*
Y024075D01*
X053925Y014400D02*
X054075D01*
X054000Y014325D02*
Y014475D01*
X052725Y012000D02*
X052875D01*
X052800Y011925D02*
Y012075D01*
X051525Y062400D02*
X051675D01*
X051600Y062325D02*
Y062475D01*
X050325Y050400D02*
X050475D01*
X050400Y050325D02*
Y050475D01*
X051525Y048000D02*
X051675D01*
X051600Y047925D02*
Y048075D01*
X050325Y036000D02*
X050475D01*
X050400Y035925D02*
Y036075D01*
X050325Y031200D02*
X050475D01*
X050400Y031125D02*
Y031275D01*
X050325Y021600D02*
X050475D01*
X050400Y021525D02*
Y021675D01*
X050325Y012000D02*
X050475D01*
X050400Y011925D02*
Y012075D01*
X047925Y064800D02*
X048075D01*
X048000Y064725D02*
Y064875D01*
X049125Y062400D02*
X049275D01*
X049200Y062325D02*
Y062475D01*
X047925Y060000D02*
X048075D01*
X048000Y059925D02*
Y060075D01*
X047925Y055200D02*
X048075D01*
X048000Y055125D02*
Y055275D01*
X049125Y052800D02*
X049275D01*
X049200Y052725D02*
Y052875D01*
X047925Y021600D02*
X048075D01*
X048000Y021525D02*
Y021675D01*
X045525Y064800D02*
X045675D01*
X045600Y064725D02*
Y064875D01*
X046725Y062400D02*
X046875D01*
X046800Y062325D02*
Y062475D01*
X045525Y060000D02*
X045675D01*
X045600Y059925D02*
Y060075D01*
X046725Y052800D02*
X046875D01*
X046800Y052725D02*
Y052875D01*
X045525Y045600D02*
X045675D01*
X045600Y045525D02*
Y045675D01*
X045525Y040800D02*
X045675D01*
X045600Y040725D02*
Y040875D01*
X046725Y038400D02*
X046875D01*
X046800Y038325D02*
Y038475D01*
X045525Y026400D02*
X045675D01*
X045600Y026325D02*
Y026475D01*
X046725Y024000D02*
X046875D01*
X046800Y023925D02*
Y024075D01*
X045525Y021600D02*
X045675D01*
X045600Y021525D02*
Y021675D01*
X046725Y014400D02*
X046875D01*
X046800Y014325D02*
Y014475D01*
X044325Y052800D02*
X044475D01*
X044400Y052725D02*
Y052875D01*
X044325Y048000D02*
X044475D01*
X044400Y047925D02*
Y048075D01*
X044325Y043200D02*
X044475D01*
X044400Y043125D02*
Y043275D01*
X044325Y038400D02*
X044475D01*
X044400Y038325D02*
Y038475D01*
X043125Y036000D02*
X043275D01*
X043200Y035925D02*
Y036075D01*
X044325Y028800D02*
X044475D01*
X044400Y028725D02*
Y028875D01*
X044325Y024000D02*
X044475D01*
X044400Y023925D02*
Y024075D01*
X044325Y014400D02*
X044475D01*
X044400Y014325D02*
Y014475D01*
X040725Y064800D02*
X040875D01*
X040800Y064725D02*
Y064875D01*
X041925Y052800D02*
X042075D01*
X042000Y052725D02*
Y052875D01*
X041925Y043200D02*
X042075D01*
X042000Y043125D02*
Y043275D01*
X040725Y040800D02*
X040875D01*
X040800Y040725D02*
Y040875D01*
X041925Y038400D02*
X042075D01*
X042000Y038325D02*
Y038475D01*
X040725Y036000D02*
X040875D01*
X040800Y035925D02*
Y036075D01*
X040725Y031200D02*
X040875D01*
X040800Y031125D02*
Y031275D01*
X041925Y028800D02*
X042075D01*
X042000Y028725D02*
Y028875D01*
X040725Y021600D02*
X040875D01*
X040800Y021525D02*
Y021675D01*
X041925Y014400D02*
X042075D01*
X042000Y014325D02*
Y014475D01*
X038325Y064800D02*
X038475D01*
X038400Y064725D02*
Y064875D01*
X039525Y062400D02*
X039675D01*
X039600Y062325D02*
Y062475D01*
X039525Y052800D02*
X039675D01*
X039600Y052725D02*
Y052875D01*
X038325Y045600D02*
X038475D01*
X038400Y045525D02*
Y045675D01*
X038325Y040800D02*
X038475D01*
X038400Y040725D02*
Y040875D01*
X039525Y038400D02*
X039675D01*
X039600Y038325D02*
Y038475D01*
X038325Y036000D02*
X038475D01*
X038400Y035925D02*
Y036075D01*
X039525Y033600D02*
X039675D01*
X039600Y033525D02*
Y033675D01*
X039525Y028800D02*
X039675D01*
X039600Y028725D02*
Y028875D01*
X039525Y024000D02*
X039675D01*
X039600Y023925D02*
Y024075D01*
X039525Y019200D02*
X039675D01*
X039600Y019125D02*
Y019275D01*
X035925Y064800D02*
X036075D01*
X036000Y064725D02*
Y064875D01*
X037125Y052800D02*
X037275D01*
X037200Y052725D02*
Y052875D01*
X035925Y045600D02*
X036075D01*
X036000Y045525D02*
Y045675D01*
X037125Y043200D02*
X037275D01*
X037200Y043125D02*
Y043275D01*
X037125Y038400D02*
X037275D01*
X037200Y038325D02*
Y038475D01*
X035925Y036000D02*
X036075D01*
X036000Y035925D02*
Y036075D01*
X037125Y019200D02*
X037275D01*
X037200Y019125D02*
Y019275D01*
X037125Y014400D02*
X037275D01*
X037200Y014325D02*
Y014475D01*
X033525Y064800D02*
X033675D01*
X033600Y064725D02*
Y064875D01*
X034725Y062400D02*
X034875D01*
X034800Y062325D02*
Y062475D01*
X034725Y052800D02*
X034875D01*
X034800Y052725D02*
Y052875D01*
X033525Y045600D02*
X033675D01*
X033600Y045525D02*
Y045675D01*
X034725Y043200D02*
X034875D01*
X034800Y043125D02*
Y043275D01*
X033525Y036000D02*
X033675D01*
X033600Y035925D02*
Y036075D01*
X033525Y031200D02*
X033675D01*
X033600Y031125D02*
Y031275D01*
X034725Y028800D02*
X034875D01*
X034800Y028725D02*
Y028875D01*
X034725Y024000D02*
X034875D01*
X034800Y023925D02*
Y024075D01*
X031125Y064800D02*
X031275D01*
X031200Y064725D02*
Y064875D01*
X032325Y062400D02*
X032475D01*
X032400Y062325D02*
Y062475D01*
X031125Y060000D02*
X031275D01*
X031200Y059925D02*
Y060075D01*
X031125Y055200D02*
X031275D01*
X031200Y055125D02*
Y055275D01*
X032325Y052800D02*
X032475D01*
X032400Y052725D02*
Y052875D01*
X031125Y045600D02*
X031275D01*
X031200Y045525D02*
Y045675D01*
X032325Y043200D02*
X032475D01*
X032400Y043125D02*
Y043275D01*
X032325Y024000D02*
X032475D01*
X032400Y023925D02*
Y024075D01*
X032325Y019200D02*
X032475D01*
X032400Y019125D02*
Y019275D01*
X031125Y016800D02*
X031275D01*
X031200Y016725D02*
Y016875D01*
X032325Y014400D02*
X032475D01*
X032400Y014325D02*
Y014475D01*
X029925Y062400D02*
X030075D01*
X030000Y062325D02*
Y062475D01*
X029925Y052800D02*
X030075D01*
X030000Y052725D02*
Y052875D01*
X028725Y050400D02*
X028875D01*
X028800Y050325D02*
Y050475D01*
X029925Y048000D02*
X030075D01*
X030000Y047925D02*
Y048075D01*
X028725Y045600D02*
X028875D01*
X028800Y045525D02*
Y045675D01*
X029925Y043200D02*
X030075D01*
X030000Y043125D02*
Y043275D01*
X028725Y036000D02*
X028875D01*
X028800Y035925D02*
Y036075D01*
X028725Y031200D02*
X028875D01*
X028800Y031125D02*
Y031275D01*
X029925Y028800D02*
X030075D01*
X030000Y028725D02*
Y028875D01*
X029925Y024000D02*
X030075D01*
X030000Y023925D02*
Y024075D01*
X028725Y021600D02*
X028875D01*
X028800Y021525D02*
Y021675D01*
X029925Y019200D02*
X030075D01*
X030000Y019125D02*
Y019275D01*
X026325Y064800D02*
X026475D01*
X026400Y064725D02*
Y064875D01*
X027525Y062400D02*
X027675D01*
X027600Y062325D02*
Y062475D01*
X026325Y055200D02*
X026475D01*
X026400Y055125D02*
Y055275D01*
X027525Y052800D02*
X027675D01*
X027600Y052725D02*
Y052875D01*
X027525Y048000D02*
X027675D01*
X027600Y047925D02*
Y048075D01*
X027525Y043200D02*
X027675D01*
X027600Y043125D02*
Y043275D01*
X027525Y033600D02*
X027675D01*
X027600Y033525D02*
Y033675D01*
X027525Y028800D02*
X027675D01*
X027600Y028725D02*
Y028875D01*
X027525Y024000D02*
X027675D01*
X027600Y023925D02*
Y024075D01*
X026325Y021600D02*
X026475D01*
X026400Y021525D02*
Y021675D01*
X027525Y019200D02*
X027675D01*
X027600Y019125D02*
Y019275D01*
X026325Y016800D02*
X026475D01*
X026400Y016725D02*
Y016875D01*
X027525Y014400D02*
X027675D01*
X027600Y014325D02*
Y014475D01*
X023925Y055200D02*
X024075D01*
X024000Y055125D02*
Y055275D01*
X025125Y052800D02*
X025275D01*
X025200Y052725D02*
Y052875D01*
X025125Y043200D02*
X025275D01*
X025200Y043125D02*
Y043275D01*
X023925Y036000D02*
X024075D01*
X024000Y035925D02*
Y036075D01*
X025125Y033600D02*
X025275D01*
X025200Y033525D02*
Y033675D01*
X023925Y031200D02*
X024075D01*
X024000Y031125D02*
Y031275D01*
X025125Y028800D02*
X025275D01*
X025200Y028725D02*
Y028875D01*
X023925Y026400D02*
X024075D01*
X024000Y026325D02*
Y026475D01*
X025125Y024000D02*
X025275D01*
X025200Y023925D02*
Y024075D01*
X023925Y021600D02*
X024075D01*
X024000Y021525D02*
Y021675D01*
X025125Y019200D02*
X025275D01*
X025200Y019125D02*
Y019275D01*
X023925Y016800D02*
X024075D01*
X024000Y016725D02*
Y016875D01*
X025125Y014400D02*
X025275D01*
X025200Y014325D02*
Y014475D01*
X022725Y043200D02*
X022875D01*
X022800Y043125D02*
Y043275D01*
X022725Y038400D02*
X022875D01*
X022800Y038325D02*
Y038475D01*
X021525Y036000D02*
X021675D01*
X021600Y035925D02*
Y036075D01*
X022725Y033600D02*
X022875D01*
X022800Y033525D02*
Y033675D01*
X021525Y031200D02*
X021675D01*
X021600Y031125D02*
Y031275D01*
X022725Y028800D02*
X022875D01*
X022800Y028725D02*
Y028875D01*
X022725Y024000D02*
X022875D01*
X022800Y023925D02*
Y024075D01*
X022725Y019200D02*
X022875D01*
X022800Y019125D02*
Y019275D01*
X022725Y014400D02*
X022875D01*
X022800Y014325D02*
Y014475D01*
X019125Y060000D02*
X019275D01*
X019200Y059925D02*
Y060075D01*
X019125Y055200D02*
X019275D01*
X019200Y055125D02*
Y055275D01*
X020325Y052800D02*
X020475D01*
X020400Y052725D02*
Y052875D01*
X020325Y038400D02*
X020475D01*
X020400Y038325D02*
Y038475D01*
X019125Y036000D02*
X019275D01*
X019200Y035925D02*
Y036075D01*
X019125Y031200D02*
X019275D01*
X019200Y031125D02*
Y031275D01*
X019125Y021600D02*
X019275D01*
X019200Y021525D02*
Y021675D01*
X019125Y016800D02*
X019275D01*
X019200Y016725D02*
Y016875D01*
X016725Y055200D02*
X016875D01*
X016800Y055125D02*
Y055275D01*
X017925Y052800D02*
X018075D01*
X018000Y052725D02*
Y052875D01*
X017925Y043200D02*
X018075D01*
X018000Y043125D02*
Y043275D01*
X017925Y038400D02*
X018075D01*
X018000Y038325D02*
Y038475D01*
X016725Y036000D02*
X016875D01*
X016800Y035925D02*
Y036075D01*
X017925Y033600D02*
X018075D01*
X018000Y033525D02*
Y033675D01*
X016725Y031200D02*
X016875D01*
X016800Y031125D02*
Y031275D01*
X016725Y026400D02*
X016875D01*
X016800Y026325D02*
Y026475D01*
X017925Y024000D02*
X018075D01*
X018000Y023925D02*
Y024075D01*
X016725Y021600D02*
X016875D01*
X016800Y021525D02*
Y021675D01*
X016725Y016800D02*
X016875D01*
X016800Y016725D02*
Y016875D01*
X017925Y014400D02*
X018075D01*
X018000Y014325D02*
Y014475D01*
X014325Y036000D02*
X014475D01*
X014400Y035925D02*
Y036075D01*
X015525Y033600D02*
X015675D01*
X015600Y033525D02*
Y033675D01*
X014325Y031200D02*
X014475D01*
X014400Y031125D02*
Y031275D01*
X014325Y016800D02*
X014475D01*
X014400Y016725D02*
Y016875D01*
X011925Y055200D02*
X012075D01*
X012000Y055125D02*
Y055275D01*
X013125Y052800D02*
X013275D01*
X013200Y052725D02*
Y052875D01*
X011925Y036000D02*
X012075D01*
X012000Y035925D02*
Y036075D01*
X013125Y033600D02*
X013275D01*
X013200Y033525D02*
Y033675D01*
X011925Y021600D02*
X012075D01*
X012000Y021525D02*
Y021675D01*
X013125Y014400D02*
X013275D01*
X013200Y014325D02*
Y014475D01*
X011925Y012000D02*
X012075D01*
X012000Y011925D02*
Y012075D01*
X083915Y063530D02*
X084035D01*
X083975Y063470D02*
Y063590D01*
X083690Y062894D02*
X083810D01*
X083750Y062834D02*
Y062954D01*
X072580Y022142D02*
X072700D01*
X072640Y022082D02*
Y022202D01*
X074702Y027365D02*
X074822D01*
X074762Y027305D02*
Y027425D01*
X074204Y027688D02*
X074324D01*
X074264Y027628D02*
Y027748D01*
X074096Y021883D02*
X074216D01*
X074156Y021823D02*
Y021943D01*
X075701Y025433D02*
X075821D01*
X075761Y025373D02*
Y025493D01*
X075198Y026765D02*
X075318D01*
X075258Y026705D02*
Y026825D01*
X035850Y040882D02*
X035970D01*
X035910Y040822D02*
Y040942D01*
X028722Y040882D02*
X028842D01*
X028782Y040822D02*
Y040942D01*
X029696Y026612D02*
X029816D01*
X029756Y026552D02*
Y026672D01*
X029370Y016700D02*
X029490D01*
X029430Y016640D02*
Y016760D01*
X069287Y032550D02*
X069407D01*
X069347Y032490D02*
Y032610D01*
X046271Y015180D02*
X046391D01*
X046331Y015120D02*
Y015240D01*
X045770Y015238D02*
X045890D01*
X045830Y015178D02*
Y015298D01*
X046770Y015653D02*
X046890D01*
X046830Y015593D02*
Y015713D01*
X043851Y014045D02*
X043971D01*
X043911Y013985D02*
Y014105D01*
X033870Y039506D02*
X033990D01*
X033930Y039446D02*
Y039566D01*
X043327Y013800D02*
X043447D01*
X043387Y013740D02*
Y013860D01*
X022673Y062525D02*
X022793D01*
X022733Y062465D02*
Y062585D01*
X026150Y045840D02*
X026270D01*
X026210Y045780D02*
Y045900D01*
X026150Y037934D02*
X026270D01*
X026210Y037874D02*
Y037994D01*
X019173Y062619D02*
X019293D01*
X019233Y062559D02*
Y062679D01*
X018692Y062620D02*
X018812D01*
X018752Y062560D02*
Y062680D01*
X012585Y065676D02*
X012705D01*
X012645Y065616D02*
Y065736D01*
X012585Y061512D02*
X012705D01*
X012645Y061452D02*
Y061572D01*
X059030Y036420D02*
X059150D01*
X059090Y036360D02*
Y036480D01*
X055551Y036114D02*
X055671D01*
X055611Y036054D02*
Y036174D01*
X057508Y044865D02*
X057628D01*
X057568Y044805D02*
Y044925D01*
X055867Y041344D02*
X055987D01*
X055927Y041284D02*
Y041404D01*
X060808Y040133D02*
X060928D01*
X060868Y040073D02*
Y040193D01*
X060155Y040133D02*
X060275D01*
X060215Y040073D02*
Y040193D01*
X060743Y037835D02*
X060863D01*
X060803Y037775D02*
Y037895D01*
X060155Y037835D02*
X060275D01*
X060215Y037775D02*
Y037895D01*
X058320Y041746D02*
X058440D01*
X058380Y041686D02*
Y041806D01*
X058690Y038964D02*
X058810D01*
X058750Y038904D02*
Y039024D01*
X058363Y039290D02*
X058483D01*
X058423Y039230D02*
Y039350D01*
X058365Y038968D02*
X058485D01*
X058425Y038908D02*
Y039028D01*
X058688Y039293D02*
X058808D01*
X058748Y039233D02*
Y039353D01*
X058080Y036540D02*
X058200D01*
X058140Y036480D02*
Y036600D01*
X066498Y040807D02*
X066618D01*
X066558Y040747D02*
Y040867D01*
X080350Y061130D02*
X080470D01*
X080410Y061070D02*
Y061190D01*
X079044Y061262D02*
X079164D01*
X079104Y061202D02*
Y061322D01*
X079207Y058193D02*
X079327D01*
X079267Y058133D02*
Y058253D01*
X077345Y058193D02*
X077465D01*
X077405Y058133D02*
Y058253D01*
X077362Y060560D02*
X077482D01*
X077422Y060500D02*
Y060620D01*
X033023Y055962D02*
X033143D01*
X033083Y055902D02*
Y056022D01*
X046481Y053012D02*
X046601D01*
X046541Y052952D02*
Y053072D01*
X039180Y056210D02*
X039300D01*
X039240Y056150D02*
Y056270D01*
X066798Y055282D02*
X066918D01*
X066858Y055222D02*
Y055342D01*
X059680Y062730D02*
X059800D01*
X059740Y062670D02*
Y062790D01*
X059684Y063080D02*
X059804D01*
X059744Y063020D02*
Y063140D01*
X065985Y026307D02*
X066105D01*
X066045Y026247D02*
Y026367D01*
X065090Y026310D02*
X065210D01*
X065150Y026250D02*
Y026370D01*
X046426Y044531D02*
X046546D01*
X046486Y044471D02*
Y044591D01*
X046001Y041495D02*
X046121D01*
X046061Y041435D02*
Y041556D01*
X046001Y045991D02*
X046121D01*
X046061Y045931D02*
Y046051D01*
X052010Y037020D02*
X052130D01*
X052070Y036960D02*
Y037080D01*
X033460Y017710D02*
X033580D01*
X033520Y017650D02*
Y017770D01*
X061834Y063609D02*
X061954D01*
X061894Y063549D02*
Y063669D01*
X061332Y063631D02*
X061452D01*
X061392Y063571D02*
Y063691D01*
X075320Y060900D02*
X075440D01*
X075380Y060840D02*
Y060960D01*
X064332Y062584D02*
X064452D01*
X064392Y062524D02*
Y062644D01*
X065327Y060500D02*
X065447D01*
X065387Y060440D02*
Y060560D01*
X064838Y060524D02*
X064958D01*
X064898Y060464D02*
Y060584D01*
X063814Y062610D02*
X063934D01*
X063874Y062550D02*
Y062670D01*
X084208Y058640D02*
X084328D01*
X084268Y058580D02*
Y058700D01*
X084670Y062503D02*
X084790D01*
X084730Y062443D02*
Y062563D01*
X083460Y064240D02*
X083580D01*
X083520Y064180D02*
Y064300D01*
X030060Y014370D02*
X030180D01*
X030120Y014310D02*
Y014430D01*
X070254Y032860D02*
X070374D01*
X070314Y032800D02*
Y032920D01*
X047020Y048072D02*
X047140D01*
X047080Y048012D02*
Y048132D01*
X051720Y040920D02*
X051840D01*
X051780Y040860D02*
Y040980D01*
X023714Y056803D02*
X023834D01*
X023774Y056743D02*
Y056863D01*
X033234Y054286D02*
X033354D01*
X033294Y054226D02*
Y054346D01*
X032585Y051692D02*
X032705D01*
X032645Y051632D02*
Y051752D01*
X048400Y053780D02*
X048520D01*
X048460Y053720D02*
Y053840D01*
X028990Y056940D02*
X029110D01*
X029050Y056880D02*
Y057000D01*
X045945Y051073D02*
X046065D01*
X046005Y051013D02*
Y051133D01*
X032049Y056648D02*
X032169D01*
X032109Y056588D02*
Y056708D01*
X053900Y064020D02*
X054020D01*
X053960Y063960D02*
Y064080D01*
X076750Y034290D02*
X076870D01*
X076810Y034230D02*
Y034350D01*
X076750Y035910D02*
X076870D01*
X076810Y035850D02*
Y035970D01*
X018694Y064550D02*
X018814D01*
X018754Y064490D02*
Y064610D01*
X019674Y064560D02*
X019794D01*
X019734Y064500D02*
Y064620D01*
X020662Y064532D02*
X020782D01*
X020722Y064472D02*
Y064592D01*
X020170Y064556D02*
X020290D01*
X020230Y064496D02*
Y064616D01*
X021940Y063690D02*
X022060D01*
X022000Y063630D02*
Y063750D01*
X022179Y064572D02*
X022299D01*
X022239Y064512D02*
Y064632D01*
X073690Y016654D02*
X073810D01*
X073750Y016594D02*
Y016714D01*
X049148Y014038D02*
X049268D01*
X049208Y013978D02*
Y014098D01*
X066062Y011658D02*
X066182D01*
X066122Y011598D02*
Y011718D01*
X072420Y012974D02*
X072540D01*
X072480Y012914D02*
Y013034D01*
X072920Y012974D02*
X073040D01*
X072980Y012914D02*
Y013034D01*
X023428Y055923D02*
X023548D01*
X023488Y055863D02*
Y055983D01*
X023714Y055652D02*
X023834D01*
X023774Y055592D02*
Y055712D01*
X085320Y063820D02*
X085440D01*
X085380Y063760D02*
Y063880D01*
X085090Y063530D02*
X085210D01*
X085150Y063470D02*
Y063590D01*
X085751Y064084D02*
X085871D01*
X085811Y064024D02*
Y064144D01*
X071090Y053860D02*
X071210D01*
X071150Y053800D02*
Y053920D01*
X071090Y062960D02*
X071210D01*
X071150Y062900D02*
Y063020D01*
X066460Y038733D02*
X066580D01*
X066520Y038673D02*
Y038793D01*
X066070Y057290D02*
X066190D01*
X066130Y057230D02*
Y057350D01*
X066070Y055280D02*
X066190D01*
X066130Y055220D02*
Y055340D01*
X035590Y031760D02*
X035710D01*
X035650Y031700D02*
Y031820D01*
X031314Y031188D02*
X031434D01*
X031374Y031128D02*
Y031248D01*
X034530Y035710D02*
X034650D01*
X034590Y035650D02*
Y035770D01*
X031329Y034787D02*
X031449D01*
X031389Y034727D02*
Y034847D01*
X062512Y036019D02*
X062632D01*
X062572Y035959D02*
Y036079D01*
X061609Y036040D02*
X061729D01*
X061669Y035980D02*
Y036100D01*
X062512Y041199D02*
X062632D01*
X062572Y041139D02*
Y041259D01*
X057330Y040370D02*
X057450D01*
X057390Y040310D02*
Y040430D01*
X056710Y039146D02*
X056830D01*
X056770Y039086D02*
Y039206D01*
X056970Y039363D02*
X057090D01*
X057030Y039303D02*
Y039423D01*
X059867Y042090D02*
X059987D01*
X059927Y042030D02*
Y042150D01*
X060890Y046560D02*
X061010D01*
X060950Y046500D02*
Y046620D01*
X059863Y044900D02*
X059983D01*
X059923Y044840D02*
Y044960D01*
X058366Y037117D02*
X058486D01*
X058426Y037057D02*
Y037177D01*
X060172Y035860D02*
X060292D01*
X060232Y035800D02*
Y035920D01*
X058080Y036897D02*
X058200D01*
X058140Y036837D02*
Y036957D01*
X057675Y036780D02*
X057795D01*
X057735Y036720D02*
Y036840D01*
X069990Y035427D02*
X070110D01*
X070050Y035367D02*
Y035487D01*
X069990Y035750D02*
X070110D01*
X070050Y035690D02*
Y035810D01*
X043370Y040410D02*
X043490D01*
X043430Y040350D02*
Y040470D01*
X052600Y036080D02*
X052720D01*
X052660Y036020D02*
Y036140D01*
X052410Y036430D02*
X052530D01*
X052470Y036370D02*
Y036490D01*
X052223Y036700D02*
X052343D01*
X052283Y036640D02*
Y036760D01*
X050650Y031010D02*
X050770D01*
X050710Y030950D02*
Y031070D01*
X049560Y043358D02*
X049680D01*
X049620Y043299D02*
Y043418D01*
X053702Y043358D02*
X053822D01*
X053762Y043299D02*
Y043418D01*
X020930Y026710D02*
X021050D01*
X020990Y026650D02*
Y026770D01*
X020940Y028470D02*
X021060D01*
X021000Y028410D02*
Y028530D01*
X031580Y016780D02*
X031700D01*
X031640Y016720D02*
Y016840D01*
X031580Y019170D02*
X031700D01*
X031640Y019110D02*
Y019230D01*
X053868Y062922D02*
X053988D01*
X053928Y062862D02*
Y062982D01*
X053900Y063280D02*
X054020D01*
X053960Y063220D02*
Y063340D01*
X053900Y063720D02*
X054020D01*
X053960Y063660D02*
Y063780D01*
X052670Y065720D02*
X052790D01*
X052730Y065660D02*
Y065780D01*
X053030Y065730D02*
X053150D01*
X053090Y065670D02*
Y065790D01*
X024260Y057770D02*
X024380D01*
X024320Y057710D02*
Y057830D01*
X024546Y058602D02*
X024666D01*
X024606Y058542D02*
Y058662D01*
X073975Y032550D02*
X074095D01*
X074035Y032490D02*
Y032610D01*
X072990Y032260D02*
X073110D01*
X073050Y032200D02*
Y032320D01*
X074939Y032469D02*
X075059D01*
X074999Y032409D02*
Y032529D01*
X076047Y032710D02*
X076167D01*
X076107Y032650D02*
Y032770D01*
X047874Y056595D02*
X047994D01*
X047934Y056535D02*
Y056655D01*
X042040Y044430D02*
X042160D01*
X042100Y044370D02*
Y044490D01*
X043370Y048750D02*
X043490D01*
X043430Y048690D02*
Y048810D01*
X047890Y051073D02*
X048010D01*
X047950Y051013D02*
Y051133D01*
X047890Y056100D02*
X048010D01*
X047950Y056040D02*
Y056160D01*
X045665Y056602D02*
X045785D01*
X045725Y056542D02*
Y056662D01*
X045667Y057084D02*
X045787D01*
X045727Y057024D02*
Y057144D01*
X029832Y057139D02*
X029952D01*
X029892Y057079D02*
Y057199D01*
X032049Y057139D02*
X032169D01*
X032109Y057079D02*
Y057199D01*
X029832Y057635D02*
X029952D01*
X029892Y057575D02*
Y057695D01*
X026790Y057530D02*
X026910D01*
X026850Y057470D02*
Y057590D01*
X026790Y059273D02*
X026910D01*
X026850Y059213D02*
Y059333D01*
X077400Y031200D02*
X077520D01*
X077460Y031140D02*
Y031260D01*
X072780Y028820D02*
X072900D01*
X072840Y028760D02*
Y028880D01*
X073189Y016946D02*
X073309D01*
X073249Y016886D02*
Y017006D01*
X076550Y012930D02*
X076670D01*
X076610Y012870D02*
Y012990D01*
X076201Y014228D02*
X076321D01*
X076261Y014168D02*
Y014288D01*
X079410Y032610D02*
X079530D01*
X079470Y032550D02*
Y032670D01*
X079790Y032610D02*
X079910D01*
X079850Y032550D02*
Y032670D01*
X060301Y027650D02*
X060421D01*
X060361Y027590D02*
Y027710D01*
X065630Y014620D02*
X065750D01*
X065690Y014560D02*
Y014680D01*
X059006Y020940D02*
X059126D01*
X059066Y020880D02*
Y021000D01*
X059006Y022140D02*
X059126D01*
X059066Y022080D02*
Y022200D01*
X060301Y025120D02*
X060421D01*
X060361Y025060D02*
Y025180D01*
X067680Y026670D02*
X067800D01*
X067740Y026610D02*
Y026730D01*
X067696Y025570D02*
X067816D01*
X067756Y025510D02*
Y025630D01*
X067762Y013430D02*
X067882D01*
X067822Y013370D02*
Y013490D01*
X067762Y014543D02*
X067882D01*
X067822Y014483D02*
Y014603D01*
X056010Y022140D02*
X056130D01*
X056070Y022080D02*
Y022200D01*
X065630Y013350D02*
X065750D01*
X065690Y013290D02*
Y013410D01*
X063630Y025890D02*
X063750D01*
X063690Y025830D02*
Y025950D01*
X063630Y026800D02*
X063750D01*
X063690Y026740D02*
Y026860D01*
M02*
