G04*
G04 #@! TF.GenerationSoftware,Altium Limited,Altium Designer,20.1.8 (145)*
G04*
G04 Layer_Color=16711935*
%FSAX24Y24*%
%MOIN*%
G70*
G04*
G04 #@! TF.SameCoordinates,C37C2F13-19AF-4E89-93B9-DE42FBC32811*
G04*
G04*
G04 #@! TF.FilePolarity,Negative*
G04*
G01*
G75*
%ADD65R,0.0530X0.0630*%
%ADD66R,0.0630X0.0530*%
%ADD69R,0.0552X0.1163*%
%ADD70R,0.0395X0.0513*%
%ADD77R,0.0780X0.0580*%
%ADD92C,0.0474*%
%ADD93R,0.0474X0.0474*%
%ADD94R,0.0700X0.0700*%
%ADD95C,0.0700*%
%ADD96C,0.1261*%
%ADD97C,0.1080*%
%ADD98C,0.0867*%
%ADD99C,0.0710*%
%ADD100C,0.1064*%
%ADD101C,0.0395*%
%ADD102C,0.0671*%
%ADD103C,0.0631*%
%ADD104C,0.1556*%
%ADD105C,0.0710*%
%ADD106R,0.0710X0.0710*%
%ADD107C,0.1458*%
%ADD108R,0.1458X0.1458*%
%ADD109O,0.1380X0.1182*%
%ADD110C,0.9055*%
%ADD141R,0.0580X0.0680*%
%ADD142R,0.0749X0.1340*%
%ADD143R,0.0680X0.0680*%
%ADD144R,0.0440X0.0440*%
%ADD145R,0.0440X0.0580*%
D65*
X043964Y026820D02*
D03*
X043964Y025920D02*
D03*
X043080Y025920D02*
D03*
X043080Y026820D02*
D03*
X035150Y046070D02*
D03*
X035150Y046970D02*
D03*
X031750Y048740D02*
D03*
X031750Y047840D02*
D03*
X033720Y047860D02*
D03*
X033720Y048760D02*
D03*
X032630Y047860D02*
D03*
X032630Y048760D02*
D03*
X020550Y058390D02*
D03*
X020550Y057490D02*
D03*
X039260Y043960D02*
D03*
X039260Y043060D02*
D03*
D66*
X042100Y047840D02*
D03*
X041200Y047840D02*
D03*
X036180Y046980D02*
D03*
X037080Y046980D02*
D03*
X039260Y044890D02*
D03*
X040160Y044890D02*
D03*
X041200Y045770D02*
D03*
X042100Y045770D02*
D03*
X040140Y045770D02*
D03*
X039240Y045770D02*
D03*
X042100Y048760D02*
D03*
X041200Y048760D02*
D03*
X033720Y046110D02*
D03*
X032820Y046110D02*
D03*
X041200Y044890D02*
D03*
X042100Y044890D02*
D03*
X034519Y044448D02*
D03*
X033619Y044448D02*
D03*
X018287Y056359D02*
D03*
X019187Y056359D02*
D03*
D69*
X044842Y013615D02*
D03*
Y015525D02*
D03*
X047818D02*
D03*
Y013615D02*
D03*
X071492Y015525D02*
D03*
Y013615D02*
D03*
X074468D02*
D03*
Y015525D02*
D03*
D70*
X045830Y013487D02*
D03*
X046330D02*
D03*
X046830D02*
D03*
X045830Y015653D02*
D03*
X046330D02*
D03*
X046830D02*
D03*
X072480Y013487D02*
D03*
X072980D02*
D03*
X073480D02*
D03*
X072480Y015653D02*
D03*
X072980D02*
D03*
X073480D02*
D03*
D77*
X018810Y059470D02*
D03*
Y060920D02*
D03*
D92*
X020570Y059490D02*
D03*
D93*
Y059990D02*
D03*
D94*
X038371Y037352D02*
D03*
X048470Y031910D02*
D03*
D95*
X037371Y037352D02*
D03*
X047470Y031910D02*
D03*
X077813Y022375D02*
D03*
Y020406D02*
D03*
Y021391D02*
D03*
D96*
X041280Y034174D02*
D03*
Y018820D02*
D03*
X042913Y064921D02*
D03*
X029528Y064823D02*
D03*
Y051437D02*
D03*
D97*
X010610Y029110D02*
D03*
Y031110D02*
D03*
X012610D02*
D03*
Y029110D02*
D03*
X011610Y030110D02*
D03*
X010610Y018874D02*
D03*
Y020874D02*
D03*
X012610D02*
D03*
Y018874D02*
D03*
X011610Y019874D02*
D03*
X010982Y051102D02*
D03*
X013856D02*
D03*
D98*
X014762Y052008D02*
D03*
X014250Y048465D02*
D03*
X014640Y060059D02*
D03*
Y057697D02*
D03*
X011490Y060256D02*
D03*
Y057500D02*
D03*
X014634Y040740D02*
D03*
Y038378D02*
D03*
X011484Y040937D02*
D03*
Y038181D02*
D03*
X014381Y015188D02*
D03*
X010936D02*
D03*
X013495D02*
D03*
X014634Y045091D02*
D03*
Y042728D02*
D03*
X011484Y045287D02*
D03*
Y042531D02*
D03*
X014401Y025129D02*
D03*
X010956D02*
D03*
X013515D02*
D03*
X011540Y053169D02*
D03*
Y055925D02*
D03*
X014690Y053366D02*
D03*
Y055728D02*
D03*
X011480Y061831D02*
D03*
Y064587D02*
D03*
X014630Y062028D02*
D03*
Y064390D02*
D03*
D99*
X013616Y058878D02*
D03*
X010797D02*
D03*
X013610Y039559D02*
D03*
X010791D02*
D03*
X013610Y043909D02*
D03*
X010791D02*
D03*
X010847Y054547D02*
D03*
X013666D02*
D03*
X010787Y063209D02*
D03*
X013606D02*
D03*
D100*
X054440Y017126D02*
D03*
X068036D02*
D03*
X045802Y031186D02*
D03*
X078746Y031186D02*
D03*
X082602Y032404D02*
D03*
X057405Y032404D02*
D03*
X016102Y064756D02*
D03*
X087951Y064756D02*
D03*
X010787Y012197D02*
D03*
X075945D02*
D03*
X049567D02*
D03*
D101*
X044960Y014570D02*
D03*
X047700D02*
D03*
X024101Y064087D02*
D03*
X017861D02*
D03*
X066762Y062063D02*
D03*
X060522D02*
D03*
X071610Y014570D02*
D03*
X074350D02*
D03*
D102*
X088278Y062886D02*
D03*
Y058358D02*
D03*
X054986Y030694D02*
D03*
Y028726D02*
D03*
X054966Y019416D02*
D03*
Y021384D02*
D03*
X060366Y015576D02*
D03*
X062334D02*
D03*
X057694Y015586D02*
D03*
X055726D02*
D03*
X069436Y023544D02*
D03*
X071404D02*
D03*
X011920Y017157D02*
D03*
Y013220D02*
D03*
X060046Y028824D02*
D03*
X062014D02*
D03*
X011940Y027097D02*
D03*
Y023160D02*
D03*
X064786Y023544D02*
D03*
X066754D02*
D03*
X050932Y015663D02*
D03*
X052900D02*
D03*
X071624Y028864D02*
D03*
X069656D02*
D03*
X054986Y026084D02*
D03*
Y024116D02*
D03*
X066796Y028824D02*
D03*
X064828D02*
D03*
X060170Y020850D02*
D03*
X062138D02*
D03*
X064836Y020856D02*
D03*
X066804D02*
D03*
X062064Y023524D02*
D03*
X060096D02*
D03*
X069486Y020866D02*
D03*
X071454D02*
D03*
D103*
X086900Y062886D02*
D03*
Y058358D02*
D03*
D104*
X049334Y064968D02*
D03*
Y034555D02*
D03*
X057405D02*
D03*
X066460D02*
D03*
X074531D02*
D03*
X066460Y064870D02*
D03*
X082602Y034555D02*
D03*
Y064870D02*
D03*
X074531D02*
D03*
X057405D02*
D03*
D105*
X043630Y022770D02*
D03*
Y021770D02*
D03*
Y032230D02*
D03*
Y031230D02*
D03*
D106*
Y020770D02*
D03*
Y030230D02*
D03*
D107*
X048610Y024690D02*
D03*
X037586D02*
D03*
X048610Y028233D02*
D03*
Y026462D02*
D03*
D108*
X037586Y028233D02*
D03*
D109*
X074860Y023851D02*
D03*
Y018930D02*
D03*
D110*
X021020Y047870D02*
D03*
D141*
X066457Y051142D02*
D03*
X066457Y050242D02*
D03*
D142*
X031929Y044448D02*
D03*
X030591D02*
D03*
X037609Y044450D02*
D03*
X036271D02*
D03*
D143*
X077340Y026760D02*
D03*
X078690D02*
D03*
X077340Y028090D02*
D03*
X078690D02*
D03*
X077320Y012930D02*
D03*
X078670D02*
D03*
X077320Y014230D02*
D03*
X078670D02*
D03*
X077340Y025420D02*
D03*
X078690D02*
D03*
X077350Y029420D02*
D03*
X078700D02*
D03*
X078690Y015560D02*
D03*
X077340D02*
D03*
Y016920D02*
D03*
X078690D02*
D03*
D144*
X018420Y057470D02*
D03*
X019170D02*
D03*
X039320Y047500D02*
D03*
X038570D02*
D03*
D145*
X018790Y058270D02*
D03*
X038940Y048300D02*
D03*
M02*
