G04*
G04 #@! TF.GenerationSoftware,Altium Limited,Altium Designer,20.1.8 (145)*
G04*
G04 Layer_Color=255*
%FSAX24Y24*%
%MOIN*%
G70*
G04*
G04 #@! TF.SameCoordinates,C37C2F13-19AF-4E89-93B9-DE42FBC32811*
G04*
G04*
G04 #@! TF.FilePolarity,Positive*
G04*
G01*
G75*
%ADD32R,0.1500X0.0787*%
%ADD33O,0.0240X0.0800*%
%ADD34R,0.0400X0.0320*%
%ADD35R,0.0450X0.0550*%
%ADD36R,0.0550X0.0450*%
%ADD37R,0.0335X0.0118*%
%ADD38R,0.0600X0.0600*%
%ADD39R,0.0472X0.1083*%
%ADD40R,0.0315X0.0433*%
%ADD41O,0.0650X0.0197*%
%ADD42R,0.0906X0.1260*%
%ADD43R,0.1181X0.0394*%
%ADD44R,0.0420X0.1181*%
%ADD45R,0.4016X0.3543*%
%ADD46R,0.2362X0.1181*%
%ADD47R,0.0700X0.0500*%
%ADD48R,0.0571X0.0571*%
%ADD49R,0.0315X0.0079*%
%ADD50R,0.0079X0.0315*%
%ADD51R,0.1335X0.0772*%
%ADD52R,0.2126X0.2441*%
%ADD53R,0.0394X0.1260*%
%ADD54O,0.0800X0.0240*%
%ADD55R,0.0354X0.0945*%
%ADD56R,0.0360X0.0360*%
%ADD57R,0.0500X0.0360*%
%ADD58O,0.0787X0.0591*%
%ADD59R,0.0500X0.0700*%
%ADD60R,0.0315X0.0551*%
%ADD61R,0.0551X0.0315*%
%ADD110C,0.9055*%
%ADD115C,0.0394*%
%ADD116R,0.0394X0.0394*%
%ADD117R,0.0620X0.0620*%
%ADD118C,0.0620*%
%ADD119C,0.1181*%
%ADD120C,0.1000*%
%ADD121C,0.0787*%
%ADD122C,0.0630*%
%ADD123C,0.0984*%
%ADD124C,0.0315*%
%ADD125C,0.0591*%
%ADD126C,0.0551*%
%ADD127C,0.1476*%
%ADD128C,0.0630*%
%ADD129R,0.0630X0.0630*%
%ADD130C,0.1378*%
%ADD131R,0.1378X0.1378*%
%ADD132O,0.1300X0.1102*%
D32*
X049340Y038420D02*
D03*
X049340Y035968D02*
D03*
D33*
X076260Y026118D02*
D03*
X075760Y028318D02*
D03*
X073760D02*
D03*
X075760Y026118D02*
D03*
X075260Y028318D02*
D03*
X074760D02*
D03*
X074260D02*
D03*
X076260D02*
D03*
X076760D02*
D03*
Y026118D02*
D03*
X075260D02*
D03*
X074760D02*
D03*
X074260D02*
D03*
X073260Y028318D02*
D03*
Y026118D02*
D03*
X073760D02*
D03*
X029890Y034060D02*
D03*
X030390Y031860D02*
D03*
X032390D02*
D03*
X030390Y034060D02*
D03*
X030890Y031860D02*
D03*
X031390D02*
D03*
X031890D02*
D03*
X029890D02*
D03*
X030890Y034060D02*
D03*
X031390D02*
D03*
X031890D02*
D03*
X032890Y031860D02*
D03*
Y034060D02*
D03*
X032390D02*
D03*
X033790Y018460D02*
D03*
X035290D02*
D03*
X034790Y018460D02*
D03*
X034290D02*
D03*
X033790Y020660D02*
D03*
X034290D02*
D03*
X034790D02*
D03*
X035290D02*
D03*
X033790Y014030D02*
D03*
X035290D02*
D03*
X034790Y014030D02*
D03*
X034290D02*
D03*
X033790Y016230D02*
D03*
X034290D02*
D03*
X034790D02*
D03*
X035290D02*
D03*
D34*
X049880Y032920D02*
D03*
Y032245D02*
D03*
X066320Y043070D02*
D03*
Y043745D02*
D03*
D35*
X021233Y060899D02*
D03*
X021233Y059999D02*
D03*
X084380Y055014D02*
D03*
X084380Y055914D02*
D03*
X051360Y031010D02*
D03*
X051360Y030110D02*
D03*
X083184Y061262D02*
D03*
X083184Y060362D02*
D03*
X057910Y041750D02*
D03*
X057910Y042650D02*
D03*
X055920Y039670D02*
D03*
X055920Y040570D02*
D03*
X057030Y042665D02*
D03*
X057030Y041765D02*
D03*
X066320Y042240D02*
D03*
X066320Y041340D02*
D03*
X060940Y048093D02*
D03*
X060940Y047193D02*
D03*
X034100Y061893D02*
D03*
X034100Y062793D02*
D03*
X035589Y061910D02*
D03*
X035589Y062810D02*
D03*
X037089D02*
D03*
X037089Y061910D02*
D03*
X040089D02*
D03*
X040089Y062810D02*
D03*
X041589Y061910D02*
D03*
X041589Y062810D02*
D03*
X043089Y061910D02*
D03*
X043089Y062810D02*
D03*
X044589D02*
D03*
X044589Y061910D02*
D03*
X038586Y062793D02*
D03*
X038586Y061893D02*
D03*
X072390Y028060D02*
D03*
X072390Y027160D02*
D03*
X077450Y032710D02*
D03*
X077450Y031810D02*
D03*
X076510Y029888D02*
D03*
X076510Y030788D02*
D03*
X076494Y031810D02*
D03*
X076494Y032710D02*
D03*
X050350Y030040D02*
D03*
X050350Y029140D02*
D03*
X053960Y028726D02*
D03*
X053960Y029626D02*
D03*
X046907Y050455D02*
D03*
X046907Y049555D02*
D03*
X016250Y020090D02*
D03*
X016250Y019190D02*
D03*
X019020Y025130D02*
D03*
X019020Y026030D02*
D03*
X050679Y056257D02*
D03*
X050679Y057157D02*
D03*
X046021Y050462D02*
D03*
X046021Y049562D02*
D03*
X047950Y049559D02*
D03*
X047950Y050459D02*
D03*
X034099Y054280D02*
D03*
X034099Y053380D02*
D03*
X034100Y059143D02*
D03*
X034100Y060043D02*
D03*
X034096Y057180D02*
D03*
X034096Y056280D02*
D03*
X036939Y053380D02*
D03*
X036939Y054280D02*
D03*
X037096Y059123D02*
D03*
X037096Y060023D02*
D03*
X037016Y056263D02*
D03*
X037016Y057163D02*
D03*
X038439Y053380D02*
D03*
X038439Y054280D02*
D03*
X038596Y059123D02*
D03*
X038596Y060023D02*
D03*
X038519Y057180D02*
D03*
X038519Y056280D02*
D03*
X042939Y053380D02*
D03*
X042939Y054280D02*
D03*
X043096Y059123D02*
D03*
X043096Y060023D02*
D03*
X043016Y056263D02*
D03*
X043016Y057163D02*
D03*
X044436Y054263D02*
D03*
X044436Y053363D02*
D03*
X044599Y060040D02*
D03*
X044599Y059140D02*
D03*
X044516Y056263D02*
D03*
X044516Y057163D02*
D03*
X029050Y055060D02*
D03*
X029050Y055960D02*
D03*
X035436Y053363D02*
D03*
X035436Y054263D02*
D03*
X035599Y059140D02*
D03*
X035599Y060040D02*
D03*
X035516Y057163D02*
D03*
X035516Y056263D02*
D03*
X039936Y053363D02*
D03*
X039936Y054263D02*
D03*
X040099Y059140D02*
D03*
X040099Y060040D02*
D03*
X040016Y057163D02*
D03*
X040016Y056263D02*
D03*
X041436Y053363D02*
D03*
X041436Y054263D02*
D03*
X041599Y059140D02*
D03*
X041599Y060040D02*
D03*
X041516Y057163D02*
D03*
X041516Y056263D02*
D03*
X029966Y054283D02*
D03*
X029966Y053383D02*
D03*
X032630Y054280D02*
D03*
X032630Y053380D02*
D03*
X031751Y054283D02*
D03*
X031751Y053383D02*
D03*
X050678Y058190D02*
D03*
X050678Y059090D02*
D03*
X050678Y060990D02*
D03*
X050678Y060090D02*
D03*
X030867Y054283D02*
D03*
X030867Y053383D02*
D03*
X049720Y058190D02*
D03*
X049720Y059090D02*
D03*
X049700Y060090D02*
D03*
X049700Y060990D02*
D03*
X048918Y050459D02*
D03*
X048918Y049559D02*
D03*
X055042Y040570D02*
D03*
X055042Y039670D02*
D03*
X010594Y041814D02*
D03*
X010594Y040914D02*
D03*
X012390Y042540D02*
D03*
X012390Y041640D02*
D03*
X013785Y042690D02*
D03*
X013785Y041790D02*
D03*
X048240Y043358D02*
D03*
X048240Y044258D02*
D03*
X020997Y030030D02*
D03*
X020997Y029130D02*
D03*
X049130Y043358D02*
D03*
X049130Y044258D02*
D03*
X015680Y063080D02*
D03*
X015680Y062180D02*
D03*
X012530Y054420D02*
D03*
X012530Y055320D02*
D03*
X011930Y051230D02*
D03*
X011930Y052130D02*
D03*
X012850D02*
D03*
X012850Y051230D02*
D03*
X049220Y015680D02*
D03*
X049220Y014780D02*
D03*
X060366Y014542D02*
D03*
X060366Y013642D02*
D03*
X057694D02*
D03*
X057694Y014542D02*
D03*
X035820Y028233D02*
D03*
X035820Y029133D02*
D03*
X032390Y030460D02*
D03*
X032390Y029560D02*
D03*
X030388Y030469D02*
D03*
X030388Y029569D02*
D03*
X028818Y033469D02*
D03*
X028818Y032569D02*
D03*
X031380Y030460D02*
D03*
X031380Y029560D02*
D03*
X045030Y017460D02*
D03*
X045030Y018360D02*
D03*
X035800Y023830D02*
D03*
X035800Y024730D02*
D03*
X035800Y026150D02*
D03*
X035800Y027050D02*
D03*
X036138Y033449D02*
D03*
X036138Y034349D02*
D03*
X045130Y032630D02*
D03*
X045130Y033530D02*
D03*
X037030Y034330D02*
D03*
X037030Y033430D02*
D03*
X035210Y034369D02*
D03*
X035210Y033469D02*
D03*
X033930D02*
D03*
X033930Y032569D02*
D03*
X020050Y021790D02*
D03*
X020050Y022690D02*
D03*
X019020Y019730D02*
D03*
X019020Y020630D02*
D03*
X020048Y026037D02*
D03*
X020048Y025137D02*
D03*
X019940Y029130D02*
D03*
X019940Y030030D02*
D03*
X020050Y019750D02*
D03*
X020050Y020650D02*
D03*
X021020Y025160D02*
D03*
X021020Y026060D02*
D03*
X079640Y037416D02*
D03*
X079640Y038316D02*
D03*
X078609Y038312D02*
D03*
X078609Y037412D02*
D03*
X069838Y038250D02*
D03*
X069838Y037350D02*
D03*
X070798Y037353D02*
D03*
X070798Y038253D02*
D03*
X075719Y056419D02*
D03*
X075719Y055519D02*
D03*
X024180Y039260D02*
D03*
X024180Y038360D02*
D03*
X050350Y027850D02*
D03*
X050350Y026950D02*
D03*
X075490Y031810D02*
D03*
X075490Y032710D02*
D03*
X074520D02*
D03*
X074520Y031810D02*
D03*
X073549D02*
D03*
X073549Y032710D02*
D03*
X073547Y029905D02*
D03*
X073547Y030805D02*
D03*
X074518Y030788D02*
D03*
X074518Y029888D02*
D03*
X075488Y029897D02*
D03*
X075488Y030797D02*
D03*
X050932Y014542D02*
D03*
X050932Y013642D02*
D03*
X071622Y030809D02*
D03*
X071622Y029909D02*
D03*
X055726Y014533D02*
D03*
X055726Y013633D02*
D03*
X066820Y029900D02*
D03*
X066820Y030800D02*
D03*
X064834Y029897D02*
D03*
X064834Y030797D02*
D03*
X062332Y013642D02*
D03*
X062332Y014542D02*
D03*
X060017Y029794D02*
D03*
X060017Y030694D02*
D03*
X071386Y024510D02*
D03*
X071386Y025410D02*
D03*
X060920Y019750D02*
D03*
X060920Y018850D02*
D03*
X069426Y024510D02*
D03*
X069426Y025410D02*
D03*
X064836Y019750D02*
D03*
X064836Y018850D02*
D03*
X069500Y019750D02*
D03*
X069500Y018850D02*
D03*
X071454Y019750D02*
D03*
X071454Y018850D02*
D03*
D36*
X020278Y060952D02*
D03*
X019378Y060952D02*
D03*
X070051Y022736D02*
D03*
X070951Y022736D02*
D03*
X013440Y053357D02*
D03*
X012540Y053357D02*
D03*
X012650Y063390D02*
D03*
X011750Y063390D02*
D03*
X072053Y051502D02*
D03*
X071153Y051502D02*
D03*
X079340Y050610D02*
D03*
X080240Y050610D02*
D03*
X064032Y039660D02*
D03*
X064932Y039660D02*
D03*
X064032Y040576D02*
D03*
X064932Y040576D02*
D03*
X065914Y039660D02*
D03*
X066814Y039660D02*
D03*
X081978Y059819D02*
D03*
X081078Y059819D02*
D03*
X081978Y060700D02*
D03*
X081078Y060700D02*
D03*
X081978Y058930D02*
D03*
X081078Y058930D02*
D03*
X078312Y061709D02*
D03*
X077412Y061709D02*
D03*
X078322Y063486D02*
D03*
X077422Y063486D02*
D03*
X047110Y032880D02*
D03*
X048010Y032880D02*
D03*
X059927Y045499D02*
D03*
X060827Y045499D02*
D03*
X055020Y038260D02*
D03*
X055920Y038260D02*
D03*
X055000Y037370D02*
D03*
X055900Y037370D02*
D03*
X047790Y035980D02*
D03*
X046890Y035980D02*
D03*
X059332Y034553D02*
D03*
X060232Y034553D02*
D03*
X059332Y035461D02*
D03*
X060232Y035461D02*
D03*
X061667Y034551D02*
D03*
X062567Y034551D02*
D03*
X065000Y034555D02*
D03*
X064100Y034555D02*
D03*
X062564Y035466D02*
D03*
X061664Y035466D02*
D03*
X073080Y034560D02*
D03*
X072180Y034560D02*
D03*
X078161Y034553D02*
D03*
X079061Y034553D02*
D03*
X081208Y034560D02*
D03*
X080308Y034560D02*
D03*
X055161Y047182D02*
D03*
X056061Y047182D02*
D03*
X055161Y046277D02*
D03*
X056061Y046277D02*
D03*
X055161Y045389D02*
D03*
X056061Y045389D02*
D03*
X060823Y042650D02*
D03*
X059923Y042650D02*
D03*
X077408Y062604D02*
D03*
X078308Y062604D02*
D03*
X051980Y014542D02*
D03*
X052880Y014542D02*
D03*
X053960Y030694D02*
D03*
X053060Y030694D02*
D03*
X053150Y021390D02*
D03*
X054050Y021390D02*
D03*
X053960Y026084D02*
D03*
X053060Y026084D02*
D03*
X053150Y019416D02*
D03*
X054050Y019416D02*
D03*
X025296Y057519D02*
D03*
X026196Y057519D02*
D03*
X050626Y055016D02*
D03*
X049726Y055016D02*
D03*
X026199Y059282D02*
D03*
X025299Y059282D02*
D03*
Y056648D02*
D03*
X026199Y056648D02*
D03*
X046362Y055016D02*
D03*
X047262Y055016D02*
D03*
X028623Y058399D02*
D03*
X027723Y058399D02*
D03*
X028623Y057519D02*
D03*
X027723Y057519D02*
D03*
X049726Y054042D02*
D03*
X050626Y054042D02*
D03*
X049750Y053086D02*
D03*
X050650Y053086D02*
D03*
X027720Y060160D02*
D03*
X028620Y060160D02*
D03*
Y059283D02*
D03*
X027720Y059283D02*
D03*
X050660Y052156D02*
D03*
X049760Y052156D02*
D03*
X046362Y052157D02*
D03*
X047262Y052157D02*
D03*
X025296Y058400D02*
D03*
X026196Y058400D02*
D03*
X039100Y017083D02*
D03*
X040000Y017083D02*
D03*
X040001Y013401D02*
D03*
X039101Y013401D02*
D03*
X012539Y039506D02*
D03*
X011639Y039506D02*
D03*
X011630Y043909D02*
D03*
X012530Y043909D02*
D03*
X013460Y045287D02*
D03*
X012560Y045287D02*
D03*
X050220Y043252D02*
D03*
X051120Y043252D02*
D03*
X012629Y038371D02*
D03*
X013529Y038371D02*
D03*
X047080Y047560D02*
D03*
X046180Y047560D02*
D03*
X012610Y057680D02*
D03*
X013510Y057680D02*
D03*
X012610Y058840D02*
D03*
X011710Y058840D02*
D03*
X012970Y047990D02*
D03*
X012070Y047990D02*
D03*
X012050Y048970D02*
D03*
X012950Y048970D02*
D03*
X056300Y016320D02*
D03*
X057200Y016320D02*
D03*
X061840Y016360D02*
D03*
X060940Y016360D02*
D03*
X039110Y017963D02*
D03*
X040010Y017963D02*
D03*
X043206Y019404D02*
D03*
X044106Y019404D02*
D03*
X031890Y035550D02*
D03*
X032790Y035550D02*
D03*
X039590Y021080D02*
D03*
X038690Y021080D02*
D03*
X039980Y016183D02*
D03*
X039080Y016183D02*
D03*
X043206Y018408D02*
D03*
X044106Y018408D02*
D03*
X034390Y017360D02*
D03*
X035290Y017360D02*
D03*
X030770Y035550D02*
D03*
X029870Y035550D02*
D03*
X030750Y036500D02*
D03*
X029850Y036500D02*
D03*
X044110Y034470D02*
D03*
X043210Y034470D02*
D03*
X035270Y013030D02*
D03*
X034370Y013030D02*
D03*
X040000Y014293D02*
D03*
X039100Y014293D02*
D03*
X032790Y036500D02*
D03*
X031890Y036500D02*
D03*
X032560Y020660D02*
D03*
X031660Y020660D02*
D03*
X032540Y015320D02*
D03*
X031640Y015320D02*
D03*
X031651Y016230D02*
D03*
X032551Y016230D02*
D03*
X031651Y019758D02*
D03*
X032551Y019758D02*
D03*
X017770Y030030D02*
D03*
X018670Y030030D02*
D03*
X017780Y027920D02*
D03*
X018680Y027920D02*
D03*
X017770Y029030D02*
D03*
X018670Y029030D02*
D03*
X080240Y049714D02*
D03*
X079340Y049714D02*
D03*
X086260Y044670D02*
D03*
X085360Y044670D02*
D03*
X079280Y043035D02*
D03*
X080180Y043035D02*
D03*
X080180Y043980D02*
D03*
X079280Y043980D02*
D03*
Y044990D02*
D03*
X080180Y044990D02*
D03*
X077405Y050611D02*
D03*
X078305Y050611D02*
D03*
X072053Y052405D02*
D03*
X071153Y052405D02*
D03*
X072050Y053320D02*
D03*
X071150Y053320D02*
D03*
X076724Y044670D02*
D03*
X075824Y044670D02*
D03*
X077405Y049718D02*
D03*
X078305Y049718D02*
D03*
X070267Y043035D02*
D03*
X071167Y043035D02*
D03*
X070264Y043980D02*
D03*
X071164Y043980D02*
D03*
X071167Y044990D02*
D03*
X070267Y044990D02*
D03*
X038810Y031650D02*
D03*
X039710Y031650D02*
D03*
X044110Y033510D02*
D03*
X043210Y033510D02*
D03*
X047570Y031100D02*
D03*
X048470Y031100D02*
D03*
X039980Y015223D02*
D03*
X039080Y015223D02*
D03*
X062147Y019752D02*
D03*
X063047Y019752D02*
D03*
X069660Y029920D02*
D03*
X070560Y029920D02*
D03*
X062687Y022690D02*
D03*
X063587Y022690D02*
D03*
X060394D02*
D03*
X061294Y022690D02*
D03*
D37*
X086605Y061508D02*
D03*
Y061311D02*
D03*
Y060917D02*
D03*
Y060327D02*
D03*
Y059933D02*
D03*
Y059736D02*
D03*
X086604Y059411D02*
D03*
X086605Y059292D02*
D03*
X086605Y059619D02*
D03*
X086605Y060130D02*
D03*
Y060524D02*
D03*
Y060720D02*
D03*
Y061114D02*
D03*
X086605Y061954D02*
D03*
X086604Y061626D02*
D03*
X086605Y061834D02*
D03*
D38*
X038181Y034819D02*
D03*
Y033469D02*
D03*
X083160Y059220D02*
D03*
Y057870D02*
D03*
X051325Y032350D02*
D03*
Y033700D02*
D03*
X059408Y052976D02*
D03*
Y051626D02*
D03*
X037460Y016283D02*
D03*
Y017633D02*
D03*
X037440Y015000D02*
D03*
Y013650D02*
D03*
X085359Y047262D02*
D03*
Y045912D02*
D03*
X075879Y047262D02*
D03*
Y045912D02*
D03*
X048980Y020170D02*
D03*
Y018820D02*
D03*
D39*
X024219Y063132D02*
D03*
X017743D02*
D03*
X024219Y065041D02*
D03*
X017743D02*
D03*
X066880Y061108D02*
D03*
X060404D02*
D03*
X066880Y063017D02*
D03*
X060404D02*
D03*
D40*
X023231Y063004D02*
D03*
X022731D02*
D03*
X022231D02*
D03*
X021731D02*
D03*
X021231D02*
D03*
X020731D02*
D03*
X020231D02*
D03*
X019731D02*
D03*
X019231D02*
D03*
X018731D02*
D03*
X023231Y065169D02*
D03*
X022731D02*
D03*
X022231D02*
D03*
X021731D02*
D03*
X021231D02*
D03*
X020731D02*
D03*
X020231D02*
D03*
X019731D02*
D03*
X019231D02*
D03*
X018731D02*
D03*
X065892Y060980D02*
D03*
X065392D02*
D03*
X064892D02*
D03*
X064392D02*
D03*
X063892D02*
D03*
X063392D02*
D03*
X062892D02*
D03*
X062392D02*
D03*
X061892D02*
D03*
X061392D02*
D03*
X065892Y063145D02*
D03*
X065392D02*
D03*
X064892D02*
D03*
X064392D02*
D03*
X063892D02*
D03*
X063392D02*
D03*
X062892D02*
D03*
X062392D02*
D03*
X061892D02*
D03*
X061392D02*
D03*
D41*
X081981Y061713D02*
D03*
Y062106D02*
D03*
Y062500D02*
D03*
Y062894D02*
D03*
Y063287D02*
D03*
X079619Y061713D02*
D03*
Y062106D02*
D03*
Y062500D02*
D03*
Y062894D02*
D03*
Y063287D02*
D03*
D42*
X080800Y062500D02*
D03*
D43*
X079991Y047262D02*
D03*
X077629D02*
D03*
X069227Y047110D02*
D03*
X071589D02*
D03*
D44*
X083016Y042731D02*
D03*
X083681D02*
D03*
X081671D02*
D03*
X084351D02*
D03*
X082341D02*
D03*
X073416Y042731D02*
D03*
X075426D02*
D03*
X072746D02*
D03*
X074756D02*
D03*
X074091D02*
D03*
D45*
X083016Y038843D02*
D03*
X074091Y038843D02*
D03*
D46*
X078812Y056275D02*
D03*
X078810Y051945D02*
D03*
D47*
X083180Y055010D02*
D03*
Y056460D02*
D03*
X034589Y038058D02*
D03*
Y039508D02*
D03*
X017630Y020620D02*
D03*
Y019170D02*
D03*
X017770Y026580D02*
D03*
Y025130D02*
D03*
X079640Y039530D02*
D03*
Y040980D02*
D03*
X070798Y039530D02*
D03*
Y040980D02*
D03*
D48*
X058585Y039127D02*
D03*
D49*
X057735Y038576D02*
D03*
Y038733D02*
D03*
Y038891D02*
D03*
Y039048D02*
D03*
Y039206D02*
D03*
Y039363D02*
D03*
Y039521D02*
D03*
Y039678D02*
D03*
X059435D02*
D03*
Y039521D02*
D03*
Y039363D02*
D03*
Y039206D02*
D03*
Y039048D02*
D03*
Y038891D02*
D03*
Y038733D02*
D03*
Y038576D02*
D03*
D50*
X058034Y039977D02*
D03*
X058191D02*
D03*
X058348D02*
D03*
X058506D02*
D03*
X058663D02*
D03*
X058821D02*
D03*
X058978D02*
D03*
X059136D02*
D03*
Y038301D02*
D03*
X058978D02*
D03*
X058821D02*
D03*
X058663D02*
D03*
X058506D02*
D03*
X058348Y038302D02*
D03*
X058191Y038301D02*
D03*
X058034Y038302D02*
D03*
D51*
X059412Y049836D02*
D03*
X059410Y047380D02*
D03*
X083287Y050074D02*
D03*
X083285Y047618D02*
D03*
X073740Y047618D02*
D03*
X073742Y050074D02*
D03*
D52*
X063776Y052935D02*
D03*
Y045460D02*
D03*
D53*
X064642Y050140D02*
D03*
X062910D02*
D03*
Y042665D02*
D03*
X064642D02*
D03*
D54*
X032730Y059650D02*
D03*
X030530Y059150D02*
D03*
Y057150D02*
D03*
X032730Y059150D02*
D03*
X030530Y058650D02*
D03*
Y058150D02*
D03*
Y057650D02*
D03*
Y059650D02*
D03*
Y060150D02*
D03*
X032730D02*
D03*
Y058650D02*
D03*
Y058150D02*
D03*
Y057650D02*
D03*
X030530Y056650D02*
D03*
X032730D02*
D03*
Y057150D02*
D03*
X048568Y056601D02*
D03*
Y056101D02*
D03*
X046368D02*
D03*
X048568Y057101D02*
D03*
Y057601D02*
D03*
Y058101D02*
D03*
Y059601D02*
D03*
X046368D02*
D03*
Y059101D02*
D03*
Y057101D02*
D03*
Y057601D02*
D03*
Y058101D02*
D03*
X048568Y058601D02*
D03*
X046368Y056601D02*
D03*
Y058601D02*
D03*
X048568Y059101D02*
D03*
X044940Y046030D02*
D03*
Y046530D02*
D03*
X047140D02*
D03*
X044940Y045530D02*
D03*
Y045030D02*
D03*
Y044530D02*
D03*
X047140Y043530D02*
D03*
Y045530D02*
D03*
Y045030D02*
D03*
Y044530D02*
D03*
X044940Y044030D02*
D03*
X047140Y046030D02*
D03*
Y044030D02*
D03*
X044940Y043530D02*
D03*
D55*
X067756Y027350D02*
D03*
X066496D02*
D03*
X065630D02*
D03*
X064764D02*
D03*
Y024830D02*
D03*
X065630D02*
D03*
X066496D02*
D03*
X067756D02*
D03*
X059066Y020290D02*
D03*
X057806D02*
D03*
X056940D02*
D03*
X056074D02*
D03*
Y022810D02*
D03*
X056940D02*
D03*
X057806D02*
D03*
X059066D02*
D03*
X059476Y025120D02*
D03*
X058216D02*
D03*
X057350D02*
D03*
X056484D02*
D03*
Y027640D02*
D03*
X057350D02*
D03*
X058216D02*
D03*
X059476D02*
D03*
X067822Y012740D02*
D03*
X066562D02*
D03*
X065696D02*
D03*
X064830D02*
D03*
Y015260D02*
D03*
X065696D02*
D03*
X066562D02*
D03*
X067822D02*
D03*
D56*
X050220Y045280D02*
D03*
Y044530D02*
D03*
X073503Y052576D02*
D03*
Y053326D02*
D03*
D57*
X051020Y044900D02*
D03*
X074303Y052946D02*
D03*
D58*
X051129Y040900D02*
D03*
Y041900D02*
D03*
X047192Y040900D02*
D03*
Y041900D02*
D03*
D59*
X082530Y045880D02*
D03*
X083980D02*
D03*
X074424D02*
D03*
X072974D02*
D03*
D60*
X032177Y027962D02*
D03*
X031390Y025678D02*
D03*
X030603Y027962D02*
D03*
X032177Y025678D02*
D03*
X030603D02*
D03*
D61*
X027702Y036493D02*
D03*
Y038067D02*
D03*
X025418Y036493D02*
D03*
X027702Y037280D02*
D03*
X025418Y038067D02*
D03*
D110*
X021020Y047870D02*
D03*
D115*
X020570Y059490D02*
D03*
D116*
Y059990D02*
D03*
D117*
X038371Y037352D02*
D03*
X048470Y031910D02*
D03*
D118*
X037371Y037352D02*
D03*
X047470Y031910D02*
D03*
X077813Y022375D02*
D03*
Y020406D02*
D03*
Y021391D02*
D03*
D119*
X041280Y034174D02*
D03*
Y018820D02*
D03*
X042913Y064921D02*
D03*
X029528Y064823D02*
D03*
Y051437D02*
D03*
D120*
X010610Y029110D02*
D03*
Y031110D02*
D03*
X012610D02*
D03*
Y029110D02*
D03*
X011610Y030110D02*
D03*
X010610Y018874D02*
D03*
Y020874D02*
D03*
X012610D02*
D03*
Y018874D02*
D03*
X011610Y019874D02*
D03*
X010982Y051102D02*
D03*
X013856D02*
D03*
D121*
X014762Y052008D02*
D03*
X014250Y048465D02*
D03*
X014640Y060059D02*
D03*
Y057697D02*
D03*
X011490Y060256D02*
D03*
Y057500D02*
D03*
X014634Y040740D02*
D03*
Y038378D02*
D03*
X011484Y040937D02*
D03*
Y038181D02*
D03*
X014381Y015188D02*
D03*
X010936D02*
D03*
X013495D02*
D03*
X014634Y045091D02*
D03*
Y042728D02*
D03*
X011484Y045287D02*
D03*
Y042531D02*
D03*
X014401Y025129D02*
D03*
X010956D02*
D03*
X013515D02*
D03*
X011540Y053169D02*
D03*
Y055925D02*
D03*
X014690Y053366D02*
D03*
Y055728D02*
D03*
X011480Y061831D02*
D03*
Y064587D02*
D03*
X014630Y062028D02*
D03*
Y064390D02*
D03*
D122*
X013616Y058878D02*
D03*
X010797D02*
D03*
X013610Y039559D02*
D03*
X010791D02*
D03*
X013610Y043909D02*
D03*
X010791D02*
D03*
X010847Y054547D02*
D03*
X013666D02*
D03*
X010787Y063209D02*
D03*
X013606D02*
D03*
D123*
X054440Y017126D02*
D03*
X068036D02*
D03*
X045802Y031186D02*
D03*
X078746Y031186D02*
D03*
X082602Y032404D02*
D03*
X057405Y032404D02*
D03*
X016102Y064756D02*
D03*
X087951Y064756D02*
D03*
X010787Y012197D02*
D03*
X075945D02*
D03*
X049567D02*
D03*
D124*
X044960Y014570D02*
D03*
X047700D02*
D03*
X024101Y064087D02*
D03*
X017861D02*
D03*
X066762Y062063D02*
D03*
X060522D02*
D03*
X071610Y014570D02*
D03*
X074350D02*
D03*
D125*
X088278Y062886D02*
D03*
Y058358D02*
D03*
X054986Y030694D02*
D03*
Y028726D02*
D03*
X054966Y019416D02*
D03*
Y021384D02*
D03*
X060366Y015576D02*
D03*
X062334D02*
D03*
X057694Y015586D02*
D03*
X055726D02*
D03*
X069436Y023544D02*
D03*
X071404D02*
D03*
X011920Y017157D02*
D03*
Y013220D02*
D03*
X060046Y028824D02*
D03*
X062014D02*
D03*
X011940Y027097D02*
D03*
Y023160D02*
D03*
X064786Y023544D02*
D03*
X066754D02*
D03*
X050932Y015663D02*
D03*
X052900D02*
D03*
X071624Y028864D02*
D03*
X069656D02*
D03*
X054986Y026084D02*
D03*
Y024116D02*
D03*
X066796Y028824D02*
D03*
X064828D02*
D03*
X060170Y020850D02*
D03*
X062138D02*
D03*
X064836Y020856D02*
D03*
X066804D02*
D03*
X062064Y023524D02*
D03*
X060096D02*
D03*
X069486Y020866D02*
D03*
X071454D02*
D03*
D126*
X086900Y062886D02*
D03*
Y058358D02*
D03*
D127*
X049334Y064968D02*
D03*
Y034555D02*
D03*
X057405D02*
D03*
X066460D02*
D03*
X074531D02*
D03*
X066460Y064870D02*
D03*
X082602Y034555D02*
D03*
Y064870D02*
D03*
X074531D02*
D03*
X057405D02*
D03*
D128*
X043630Y022770D02*
D03*
Y021770D02*
D03*
Y032230D02*
D03*
Y031230D02*
D03*
D129*
Y020770D02*
D03*
Y030230D02*
D03*
D130*
X048610Y024690D02*
D03*
X037586D02*
D03*
X048610Y028233D02*
D03*
Y026462D02*
D03*
D131*
X037586Y028233D02*
D03*
D132*
X074860Y023851D02*
D03*
Y018930D02*
D03*
M02*
