G04*
G04 #@! TF.GenerationSoftware,Altium Limited,Altium Designer,20.1.8 (145)*
G04*
G04 Layer_Color=2752767*
%FSAX24Y24*%
%MOIN*%
G70*
G04*
G04 #@! TF.SameCoordinates,C37C2F13-19AF-4E89-93B9-DE42FBC32811*
G04*
G04*
G04 #@! TF.FilePolarity,Positive*
G04*
G01*
G75*
%ADD150C,0.0020*%
%ADD151C,0.0027*%
%ADD152C,0.0013*%
D150*
X020490Y059410D02*
Y059570D01*
X020650D01*
Y059410D01*
X020490D01*
Y059910D02*
Y060070D01*
X020650D01*
Y059910D01*
X020490D01*
X041280Y034094D02*
X041200Y034254D01*
X041360D01*
X041280Y034094D01*
Y018740D02*
X041320Y018780D01*
X041360D01*
X041320Y018820D01*
X041360Y018860D01*
X041320D01*
X041280Y018900D01*
X041240Y018860D01*
X041200D01*
X041240Y018820D01*
X041200Y018780D01*
X041240D01*
X041280Y018740D01*
X010530Y029030D02*
X010570Y029110D01*
X010530Y029190D01*
X010610Y029150D01*
X010690Y029190D01*
X010650Y029110D01*
X010690Y029030D01*
X010610Y029070D01*
X010530Y029030D01*
Y031030D02*
X010570Y031110D01*
X010530Y031190D01*
X010610Y031150D01*
X010690Y031190D01*
X010650Y031110D01*
X010690Y031030D01*
X010610Y031070D01*
X010530Y031030D01*
X012530D02*
X012570Y031110D01*
X012530Y031190D01*
X012610Y031150D01*
X012690Y031190D01*
X012650Y031110D01*
X012690Y031030D01*
X012610Y031070D01*
X012530Y031030D01*
Y029030D02*
X012570Y029110D01*
X012530Y029190D01*
X012610Y029150D01*
X012690Y029190D01*
X012650Y029110D01*
X012690Y029030D01*
X012610Y029070D01*
X012530Y029030D01*
X011530Y030030D02*
X011570Y030110D01*
X011530Y030190D01*
X011610Y030150D01*
X011690Y030190D01*
X011650Y030110D01*
X011690Y030030D01*
X011610Y030070D01*
X011530Y030030D01*
X010530Y018794D02*
X010570Y018874D01*
X010530Y018954D01*
X010610Y018914D01*
X010690Y018954D01*
X010650Y018874D01*
X010690Y018794D01*
X010610Y018834D01*
X010530Y018794D01*
Y020794D02*
X010570Y020874D01*
X010530Y020954D01*
X010610Y020914D01*
X010690Y020954D01*
X010650Y020874D01*
X010690Y020794D01*
X010610Y020834D01*
X010530Y020794D01*
X012530D02*
X012570Y020874D01*
X012530Y020954D01*
X012610Y020914D01*
X012690Y020954D01*
X012650Y020874D01*
X012690Y020794D01*
X012610Y020834D01*
X012530Y020794D01*
Y018794D02*
X012570Y018874D01*
X012530Y018954D01*
X012610Y018914D01*
X012690Y018954D01*
X012650Y018874D01*
X012690Y018794D01*
X012610Y018834D01*
X012530Y018794D01*
X011530Y019794D02*
X011570Y019874D01*
X011530Y019954D01*
X011610Y019914D01*
X011690Y019954D01*
X011650Y019874D01*
X011690Y019794D01*
X011610Y019834D01*
X011530Y019794D01*
X014722Y051968D02*
Y051928D01*
X014802D01*
Y051968D01*
X014842D01*
Y052048D01*
X014802D01*
Y052088D01*
X014722D01*
Y052048D01*
X014682D01*
Y051968D01*
X014722D01*
X014210Y048425D02*
Y048385D01*
X014290D01*
Y048425D01*
X014330D01*
Y048505D01*
X014290D01*
Y048545D01*
X014210D01*
Y048505D01*
X014170D01*
Y048425D01*
X014210D01*
X010902Y051022D02*
X010942D01*
X010982Y051062D01*
X011022Y051022D01*
X011062D01*
Y051062D01*
X011022Y051102D01*
X011062Y051142D01*
Y051182D01*
X011022D01*
X010982Y051142D01*
X010942Y051182D01*
X010902D01*
Y051142D01*
X010942Y051102D01*
X010902Y051062D01*
Y051022D01*
X013776D02*
X013816D01*
X013856Y051062D01*
X013896Y051022D01*
X013936D01*
Y051062D01*
X013896Y051102D01*
X013936Y051142D01*
Y051182D01*
X013896D01*
X013856Y051142D01*
X013816Y051182D01*
X013776D01*
Y051142D01*
X013816Y051102D01*
X013776Y051062D01*
Y051022D01*
X013536Y058878D02*
X013616Y058958D01*
X013696Y058878D01*
X013616Y058798D01*
X013536Y058878D01*
X014600Y060019D02*
Y059979D01*
X014680D01*
Y060019D01*
X014720D01*
Y060099D01*
X014680D01*
Y060139D01*
X014600D01*
Y060099D01*
X014560D01*
Y060019D01*
X014600D01*
Y057657D02*
Y057617D01*
X014680D01*
Y057657D01*
X014720D01*
Y057737D01*
X014680D01*
Y057777D01*
X014600D01*
Y057737D01*
X014560D01*
Y057657D01*
X014600D01*
X011450Y060216D02*
Y060176D01*
X011530D01*
Y060216D01*
X011570D01*
Y060296D01*
X011530D01*
Y060336D01*
X011450D01*
Y060296D01*
X011410D01*
Y060216D01*
X011450D01*
Y057460D02*
Y057420D01*
X011530D01*
Y057460D01*
X011570D01*
Y057540D01*
X011530D01*
Y057580D01*
X011450D01*
Y057540D01*
X011410D01*
Y057460D01*
X011450D01*
X010717Y058878D02*
X010797Y058958D01*
X010877Y058878D01*
X010797Y058798D01*
X010717Y058878D01*
X054360Y017046D02*
Y017206D01*
X054520D01*
Y017046D01*
X054360D01*
X054400Y017086D02*
Y017166D01*
X054480D01*
Y017086D01*
X054400D01*
X067956Y017046D02*
Y017206D01*
X068116D01*
Y017046D01*
X067956D01*
X067996Y017086D02*
Y017166D01*
X068076D01*
Y017086D01*
X067996D01*
X045722Y031106D02*
Y031266D01*
X045882D01*
Y031106D01*
X045722D01*
X045762Y031146D02*
Y031226D01*
X045842D01*
Y031146D01*
X045762D01*
X078666Y031106D02*
Y031266D01*
X078826D01*
Y031106D01*
X078666D01*
X078706Y031146D02*
Y031226D01*
X078786D01*
Y031146D01*
X078706D01*
X082522Y032324D02*
Y032484D01*
X082682D01*
Y032324D01*
X082522D01*
X082562Y032364D02*
Y032444D01*
X082642D01*
Y032364D01*
X082562D01*
X057325Y032324D02*
Y032484D01*
X057485D01*
Y032324D01*
X057325D01*
X057365Y032364D02*
Y032444D01*
X057445D01*
Y032364D01*
X057365D01*
X044880Y014570D02*
X044960Y014650D01*
X045040Y014570D01*
X044960Y014490D01*
X044880Y014570D01*
X047620D02*
X047700Y014650D01*
X047780Y014570D01*
X047700Y014490D01*
X047620Y014570D01*
X086900Y062806D02*
X086820Y062966D01*
X086980D01*
X086900Y062806D01*
Y062846D02*
X086860Y062926D01*
X086940D01*
X086900Y062846D01*
Y058278D02*
X086820Y058438D01*
X086980D01*
X086900Y058278D01*
Y058318D02*
X086860Y058398D01*
X086940D01*
X086900Y058318D01*
X042913Y064841D02*
X042953Y064881D01*
X042993D01*
X042953Y064921D01*
X042993Y064961D01*
X042953D01*
X042913Y065001D01*
X042873Y064961D01*
X042833D01*
X042873Y064921D01*
X042833Y064881D01*
X042873D01*
X042913Y064841D01*
X029528Y064743D02*
X029568Y064783D01*
X029608D01*
X029568Y064823D01*
X029608Y064863D01*
X029568D01*
X029528Y064903D01*
X029488Y064863D01*
X029448D01*
X029488Y064823D01*
X029448Y064783D01*
X029488D01*
X029528Y064743D01*
Y051357D02*
X029568Y051397D01*
X029608D01*
X029568Y051437D01*
X029608Y051477D01*
X029568D01*
X029528Y051517D01*
X029488Y051477D01*
X029448D01*
X029488Y051437D01*
X029448Y051397D01*
X029488D01*
X029528Y051357D01*
X049334Y064888D02*
X049374Y064928D01*
X049414D01*
X049374Y064968D01*
X049414Y065008D01*
X049374D01*
X049334Y065048D01*
X049294Y065008D01*
X049254D01*
X049294Y064968D01*
X049254Y064928D01*
X049294D01*
X049334Y064888D01*
Y064928D02*
X049354Y064948D01*
X049374D01*
X049354Y064968D01*
X049374Y064988D01*
X049354D01*
X049334Y065008D01*
X049314Y064988D01*
X049294D01*
X049314Y064968D01*
X049294Y064948D01*
X049314D01*
X049334Y064928D01*
Y034475D02*
X049374Y034515D01*
X049414D01*
X049374Y034555D01*
X049414Y034595D01*
X049374D01*
X049334Y034635D01*
X049294Y034595D01*
X049254D01*
X049294Y034555D01*
X049254Y034515D01*
X049294D01*
X049334Y034475D01*
Y034515D02*
X049354Y034535D01*
X049374D01*
X049354Y034555D01*
X049374Y034575D01*
X049354D01*
X049334Y034595D01*
X049314Y034575D01*
X049294D01*
X049314Y034555D01*
X049294Y034535D01*
X049314D01*
X049334Y034515D01*
X057405Y034475D02*
X057445Y034515D01*
X057485D01*
X057445Y034555D01*
X057485Y034595D01*
X057445D01*
X057405Y034635D01*
X057365Y034595D01*
X057325D01*
X057365Y034555D01*
X057325Y034515D01*
X057365D01*
X057405Y034475D01*
Y034515D02*
X057425Y034535D01*
X057445D01*
X057425Y034555D01*
X057445Y034575D01*
X057425D01*
X057405Y034595D01*
X057385Y034575D01*
X057365D01*
X057385Y034555D01*
X057365Y034535D01*
X057385D01*
X057405Y034515D01*
X066460Y034475D02*
X066500Y034515D01*
X066540D01*
X066500Y034555D01*
X066540Y034595D01*
X066500D01*
X066460Y034635D01*
X066420Y034595D01*
X066380D01*
X066420Y034555D01*
X066380Y034515D01*
X066420D01*
X066460Y034475D01*
Y034515D02*
X066480Y034535D01*
X066500D01*
X066480Y034555D01*
X066500Y034575D01*
X066480D01*
X066460Y034595D01*
X066440Y034575D01*
X066420D01*
X066440Y034555D01*
X066420Y034535D01*
X066440D01*
X066460Y034515D01*
X074531Y034475D02*
X074571Y034515D01*
X074611D01*
X074571Y034555D01*
X074611Y034595D01*
X074571D01*
X074531Y034635D01*
X074491Y034595D01*
X074451D01*
X074491Y034555D01*
X074451Y034515D01*
X074491D01*
X074531Y034475D01*
Y034515D02*
X074551Y034535D01*
X074571D01*
X074551Y034555D01*
X074571Y034575D01*
X074551D01*
X074531Y034595D01*
X074511Y034575D01*
X074491D01*
X074511Y034555D01*
X074491Y034535D01*
X074511D01*
X074531Y034515D01*
X066460Y064790D02*
X066500Y064830D01*
X066540D01*
X066500Y064870D01*
X066540Y064910D01*
X066500D01*
X066460Y064950D01*
X066420Y064910D01*
X066380D01*
X066420Y064870D01*
X066380Y064830D01*
X066420D01*
X066460Y064790D01*
Y064830D02*
X066480Y064850D01*
X066500D01*
X066480Y064870D01*
X066500Y064890D01*
X066480D01*
X066460Y064910D01*
X066440Y064890D01*
X066420D01*
X066440Y064870D01*
X066420Y064850D01*
X066440D01*
X066460Y064830D01*
X082602Y034475D02*
X082642Y034515D01*
X082682D01*
X082642Y034555D01*
X082682Y034595D01*
X082642D01*
X082602Y034635D01*
X082562Y034595D01*
X082522D01*
X082562Y034555D01*
X082522Y034515D01*
X082562D01*
X082602Y034475D01*
Y034515D02*
X082622Y034535D01*
X082642D01*
X082622Y034555D01*
X082642Y034575D01*
X082622D01*
X082602Y034595D01*
X082582Y034575D01*
X082562D01*
X082582Y034555D01*
X082562Y034535D01*
X082582D01*
X082602Y034515D01*
Y064790D02*
X082642Y064830D01*
X082682D01*
X082642Y064870D01*
X082682Y064910D01*
X082642D01*
X082602Y064950D01*
X082562Y064910D01*
X082522D01*
X082562Y064870D01*
X082522Y064830D01*
X082562D01*
X082602Y064790D01*
Y064830D02*
X082622Y064850D01*
X082642D01*
X082622Y064870D01*
X082642Y064890D01*
X082622D01*
X082602Y064910D01*
X082582Y064890D01*
X082562D01*
X082582Y064870D01*
X082562Y064850D01*
X082582D01*
X082602Y064830D01*
X074531Y064790D02*
X074571Y064830D01*
X074611D01*
X074571Y064870D01*
X074611Y064910D01*
X074571D01*
X074531Y064950D01*
X074491Y064910D01*
X074451D01*
X074491Y064870D01*
X074451Y064830D01*
X074491D01*
X074531Y064790D01*
Y064830D02*
X074551Y064850D01*
X074571D01*
X074551Y064870D01*
X074571Y064890D01*
X074551D01*
X074531Y064910D01*
X074511Y064890D01*
X074491D01*
X074511Y064870D01*
X074491Y064850D01*
X074511D01*
X074531Y064830D01*
X057405Y064790D02*
X057445Y064830D01*
X057485D01*
X057445Y064870D01*
X057485Y064910D01*
X057445D01*
X057405Y064950D01*
X057365Y064910D01*
X057325D01*
X057365Y064870D01*
X057325Y064830D01*
X057365D01*
X057405Y064790D01*
Y064830D02*
X057425Y064850D01*
X057445D01*
X057425Y064870D01*
X057445Y064890D01*
X057425D01*
X057405Y064910D01*
X057385Y064890D01*
X057365D01*
X057385Y064870D01*
X057365Y064850D01*
X057385D01*
X057405Y064830D01*
X016022Y064676D02*
Y064836D01*
X016182D01*
Y064676D01*
X016022D01*
X016062Y064716D02*
Y064796D01*
X016142D01*
Y064716D01*
X016062D01*
X087871Y064676D02*
Y064836D01*
X088031D01*
Y064676D01*
X087871D01*
X087911Y064716D02*
Y064796D01*
X087991D01*
Y064716D01*
X087911D01*
X010707Y012117D02*
Y012277D01*
X010867D01*
Y012117D01*
X010707D01*
X010747Y012157D02*
Y012237D01*
X010827D01*
Y012157D01*
X010747D01*
X075865Y012117D02*
Y012277D01*
X076025D01*
Y012117D01*
X075865D01*
X075905Y012157D02*
Y012237D01*
X075985D01*
Y012157D01*
X075905D01*
X049487Y012117D02*
Y012277D01*
X049647D01*
Y012117D01*
X049487D01*
X049527Y012157D02*
Y012237D01*
X049607D01*
Y012157D01*
X049527D01*
X024021Y064087D02*
X024101Y064167D01*
X024181Y064087D01*
X024101Y064007D01*
X024021Y064087D01*
X017781D02*
X017861Y064167D01*
X017941Y064087D01*
X017861Y064007D01*
X017781Y064087D01*
X066682Y062063D02*
X066762Y062143D01*
X066842Y062063D01*
X066762Y061983D01*
X066682Y062063D01*
X060442D02*
X060522Y062143D01*
X060602Y062063D01*
X060522Y061983D01*
X060442Y062063D01*
X071530Y014570D02*
X071610Y014650D01*
X071690Y014570D01*
X071610Y014490D01*
X071530Y014570D01*
X074270D02*
X074350Y014650D01*
X074430Y014570D01*
X074350Y014490D01*
X074270Y014570D01*
X013530Y039559D02*
X013610Y039639D01*
X013690Y039559D01*
X013610Y039479D01*
X013530Y039559D01*
X014594Y040700D02*
Y040660D01*
X014674D01*
Y040700D01*
X014714D01*
Y040780D01*
X014674D01*
Y040820D01*
X014594D01*
Y040780D01*
X014554D01*
Y040700D01*
X014594D01*
Y038338D02*
Y038298D01*
X014674D01*
Y038338D01*
X014714D01*
Y038418D01*
X014674D01*
Y038458D01*
X014594D01*
Y038418D01*
X014554D01*
Y038338D01*
X014594D01*
X011444Y040897D02*
Y040857D01*
X011524D01*
Y040897D01*
X011564D01*
Y040977D01*
X011524D01*
Y041017D01*
X011444D01*
Y040977D01*
X011404D01*
Y040897D01*
X011444D01*
Y038141D02*
Y038101D01*
X011524D01*
Y038141D01*
X011564D01*
Y038221D01*
X011524D01*
Y038261D01*
X011444D01*
Y038221D01*
X011404D01*
Y038141D01*
X011444D01*
X010711Y039559D02*
X010791Y039639D01*
X010871Y039559D01*
X010791Y039479D01*
X010711Y039559D01*
X054906Y030614D02*
X054946Y030694D01*
X054906Y030774D01*
X054986Y030734D01*
X055066Y030774D01*
X055026Y030694D01*
X055066Y030614D01*
X054986Y030654D01*
X054906Y030614D01*
X054946Y030654D02*
X054966Y030694D01*
X054946Y030734D01*
X054986Y030714D01*
X055026Y030734D01*
X055006Y030694D01*
X055026Y030654D01*
X054986Y030674D01*
X054946Y030654D01*
X054906Y028646D02*
X054946Y028726D01*
X054906Y028806D01*
X054986Y028766D01*
X055066Y028806D01*
X055026Y028726D01*
X055066Y028646D01*
X054986Y028686D01*
X054906Y028646D01*
X054946Y028686D02*
X054966Y028726D01*
X054946Y028766D01*
X054986Y028746D01*
X055026Y028766D01*
X055006Y028726D01*
X055026Y028686D01*
X054986Y028706D01*
X054946Y028686D01*
X054886Y019336D02*
X054926Y019416D01*
X054886Y019496D01*
X054966Y019456D01*
X055046Y019496D01*
X055006Y019416D01*
X055046Y019336D01*
X054966Y019376D01*
X054886Y019336D01*
X054926Y019376D02*
X054946Y019416D01*
X054926Y019456D01*
X054966Y019436D01*
X055006Y019456D01*
X054986Y019416D01*
X055006Y019376D01*
X054966Y019396D01*
X054926Y019376D01*
X054886Y021304D02*
X054926Y021384D01*
X054886Y021464D01*
X054966Y021424D01*
X055046Y021464D01*
X055006Y021384D01*
X055046Y021304D01*
X054966Y021344D01*
X054886Y021304D01*
X054926Y021344D02*
X054946Y021384D01*
X054926Y021424D01*
X054966Y021404D01*
X055006Y021424D01*
X054986Y021384D01*
X055006Y021344D01*
X054966Y021364D01*
X054926Y021344D01*
X060286Y015496D02*
X060326Y015576D01*
X060286Y015656D01*
X060366Y015616D01*
X060446Y015656D01*
X060406Y015576D01*
X060446Y015496D01*
X060366Y015536D01*
X060286Y015496D01*
X060326Y015536D02*
X060346Y015576D01*
X060326Y015616D01*
X060366Y015596D01*
X060406Y015616D01*
X060386Y015576D01*
X060406Y015536D01*
X060366Y015556D01*
X060326Y015536D01*
X062254Y015496D02*
X062294Y015576D01*
X062254Y015656D01*
X062334Y015616D01*
X062414Y015656D01*
X062374Y015576D01*
X062414Y015496D01*
X062334Y015536D01*
X062254Y015496D01*
X062294Y015536D02*
X062314Y015576D01*
X062294Y015616D01*
X062334Y015596D01*
X062374Y015616D01*
X062354Y015576D01*
X062374Y015536D01*
X062334Y015556D01*
X062294Y015536D01*
X057614Y015506D02*
X057654Y015586D01*
X057614Y015666D01*
X057694Y015626D01*
X057774Y015666D01*
X057734Y015586D01*
X057774Y015506D01*
X057694Y015546D01*
X057614Y015506D01*
X057654Y015546D02*
X057674Y015586D01*
X057654Y015626D01*
X057694Y015606D01*
X057734Y015626D01*
X057714Y015586D01*
X057734Y015546D01*
X057694Y015566D01*
X057654Y015546D01*
X055646Y015506D02*
X055686Y015586D01*
X055646Y015666D01*
X055726Y015626D01*
X055806Y015666D01*
X055766Y015586D01*
X055806Y015506D01*
X055726Y015546D01*
X055646Y015506D01*
X055686Y015546D02*
X055706Y015586D01*
X055686Y015626D01*
X055726Y015606D01*
X055766Y015626D01*
X055746Y015586D01*
X055766Y015546D01*
X055726Y015566D01*
X055686Y015546D01*
X069356Y023464D02*
X069396Y023544D01*
X069356Y023624D01*
X069436Y023584D01*
X069516Y023624D01*
X069476Y023544D01*
X069516Y023464D01*
X069436Y023504D01*
X069356Y023464D01*
X069396Y023504D02*
X069416Y023544D01*
X069396Y023584D01*
X069436Y023564D01*
X069476Y023584D01*
X069456Y023544D01*
X069476Y023504D01*
X069436Y023524D01*
X069396Y023504D01*
X071324Y023464D02*
X071364Y023544D01*
X071324Y023624D01*
X071404Y023584D01*
X071484Y023624D01*
X071444Y023544D01*
X071484Y023464D01*
X071404Y023504D01*
X071324Y023464D01*
X071364Y023504D02*
X071384Y023544D01*
X071364Y023584D01*
X071404Y023564D01*
X071444Y023584D01*
X071424Y023544D01*
X071444Y023504D01*
X071404Y023524D01*
X071364Y023504D01*
X014341Y015149D02*
Y015108D01*
X014421D01*
Y015149D01*
X014461D01*
Y015229D01*
X014421D01*
Y015268D01*
X014341D01*
Y015229D01*
X014301D01*
Y015149D01*
X014341D01*
X014361Y015168D02*
Y015149D01*
X014401D01*
Y015168D01*
X014421D01*
Y015208D01*
X014401D01*
Y015229D01*
X014361D01*
Y015208D01*
X014341D01*
Y015168D01*
X014361D01*
X010896Y015149D02*
Y015108D01*
X010976D01*
Y015149D01*
X011016D01*
Y015229D01*
X010976D01*
Y015268D01*
X010896D01*
Y015229D01*
X010856D01*
Y015149D01*
X010896D01*
X010916Y015168D02*
Y015149D01*
X010956D01*
Y015168D01*
X010976D01*
Y015208D01*
X010956D01*
Y015229D01*
X010916D01*
Y015208D01*
X010896D01*
Y015168D01*
X010916D01*
X011840Y017077D02*
X011880Y017157D01*
X011840Y017237D01*
X011920Y017197D01*
X012000Y017237D01*
X011960Y017157D01*
X012000Y017077D01*
X011920Y017117D01*
X011840Y017077D01*
X011880Y017117D02*
X011900Y017157D01*
X011880Y017197D01*
X011920Y017177D01*
X011960Y017197D01*
X011940Y017157D01*
X011960Y017117D01*
X011920Y017137D01*
X011880Y017117D01*
X011840Y013140D02*
X011880Y013220D01*
X011840Y013300D01*
X011920Y013260D01*
X012000Y013300D01*
X011960Y013220D01*
X012000Y013140D01*
X011920Y013180D01*
X011840Y013140D01*
X011880Y013180D02*
X011900Y013220D01*
X011880Y013260D01*
X011920Y013240D01*
X011960Y013260D01*
X011940Y013220D01*
X011960Y013180D01*
X011920Y013200D01*
X011880Y013180D01*
X013455Y015149D02*
Y015108D01*
X013535D01*
Y015149D01*
X013575D01*
Y015229D01*
X013535D01*
Y015268D01*
X013455D01*
Y015229D01*
X013415D01*
Y015149D01*
X013455D01*
X013475Y015168D02*
Y015149D01*
X013515D01*
Y015168D01*
X013535D01*
Y015208D01*
X013515D01*
Y015229D01*
X013475D01*
Y015208D01*
X013455D01*
Y015168D01*
X013475D01*
X043630Y022690D02*
X043550Y022850D01*
X043710D01*
X043630Y022690D01*
Y022730D02*
X043590Y022810D01*
X043670D01*
X043630Y022730D01*
Y021690D02*
X043550Y021850D01*
X043710D01*
X043630Y021690D01*
Y021730D02*
X043590Y021810D01*
X043670D01*
X043630Y021730D01*
Y020690D02*
X043550Y020850D01*
X043710D01*
X043630Y020690D01*
Y020730D02*
X043590Y020810D01*
X043670D01*
X043630Y020730D01*
Y032150D02*
X043550Y032310D01*
X043710D01*
X043630Y032150D01*
Y032190D02*
X043590Y032270D01*
X043670D01*
X043630Y032190D01*
Y031150D02*
X043550Y031310D01*
X043710D01*
X043630Y031150D01*
Y031190D02*
X043590Y031270D01*
X043670D01*
X043630Y031190D01*
Y030150D02*
X043550Y030310D01*
X043710D01*
X043630Y030150D01*
Y030190D02*
X043590Y030270D01*
X043670D01*
X043630Y030190D01*
X048530Y024610D02*
Y024770D01*
X048690D01*
Y024610D01*
X048530D01*
X048570Y024650D02*
Y024730D01*
X048650D01*
Y024650D01*
X048570D01*
X037506Y024610D02*
Y024770D01*
X037666D01*
Y024610D01*
X037506D01*
X037546Y024650D02*
Y024730D01*
X037626D01*
Y024650D01*
X037546D01*
X048530Y028153D02*
Y028313D01*
X048690D01*
Y028153D01*
X048530D01*
X048570Y028193D02*
Y028273D01*
X048650D01*
Y028193D01*
X048570D01*
X048530Y026382D02*
Y026542D01*
X048690D01*
Y026382D01*
X048530D01*
X048570Y026422D02*
Y026502D01*
X048650D01*
Y026422D01*
X048570D01*
X037506Y028153D02*
Y028313D01*
X037666D01*
Y028153D01*
X037506D01*
X037546Y028193D02*
Y028273D01*
X037626D01*
Y028193D01*
X037546D01*
X013530Y043909D02*
X013610Y043989D01*
X013690Y043909D01*
X013610Y043829D01*
X013530Y043909D01*
X014594Y045051D02*
Y045011D01*
X014674D01*
Y045051D01*
X014714D01*
Y045131D01*
X014674D01*
Y045171D01*
X014594D01*
Y045131D01*
X014554D01*
Y045051D01*
X014594D01*
Y042688D02*
Y042648D01*
X014674D01*
Y042688D01*
X014714D01*
Y042768D01*
X014674D01*
Y042808D01*
X014594D01*
Y042768D01*
X014554D01*
Y042688D01*
X014594D01*
X011444Y045247D02*
Y045207D01*
X011524D01*
Y045247D01*
X011564D01*
Y045327D01*
X011524D01*
Y045367D01*
X011444D01*
Y045327D01*
X011404D01*
Y045247D01*
X011444D01*
Y042491D02*
Y042452D01*
X011524D01*
Y042491D01*
X011564D01*
Y042572D01*
X011524D01*
Y042611D01*
X011444D01*
Y042572D01*
X011404D01*
Y042491D01*
X011444D01*
X010711Y043909D02*
X010791Y043989D01*
X010871Y043909D01*
X010791Y043829D01*
X010711Y043909D01*
X074780Y023771D02*
X074820D01*
X074860Y023811D01*
X074900Y023771D01*
X074940D01*
Y023811D01*
X074900Y023851D01*
X074940Y023891D01*
Y023931D01*
X074900D01*
X074860Y023891D01*
X074820Y023931D01*
X074780D01*
Y023891D01*
X074820Y023851D01*
X074780Y023811D01*
Y023771D01*
X074820Y023811D02*
X074840D01*
X074860Y023831D01*
X074880Y023811D01*
X074900D01*
Y023831D01*
X074880Y023851D01*
X074900Y023871D01*
Y023891D01*
X074880D01*
X074860Y023871D01*
X074840Y023891D01*
X074820D01*
Y023871D01*
X074840Y023851D01*
X074820Y023831D01*
Y023811D01*
X074780Y018850D02*
X074820D01*
X074860Y018890D01*
X074900Y018850D01*
X074940D01*
Y018890D01*
X074900Y018930D01*
X074940Y018970D01*
Y019010D01*
X074900D01*
X074860Y018970D01*
X074820Y019010D01*
X074780D01*
Y018970D01*
X074820Y018930D01*
X074780Y018890D01*
Y018850D01*
X074820Y018890D02*
X074840D01*
X074860Y018910D01*
X074880Y018890D01*
X074900D01*
Y018910D01*
X074880Y018930D01*
X074900Y018950D01*
Y018970D01*
X074880D01*
X074860Y018950D01*
X074840Y018970D01*
X074820D01*
Y018950D01*
X074840Y018930D01*
X074820Y018910D01*
Y018890D01*
X059966Y028744D02*
X060006Y028824D01*
X059966Y028904D01*
X060046Y028864D01*
X060126Y028904D01*
X060086Y028824D01*
X060126Y028744D01*
X060046Y028784D01*
X059966Y028744D01*
X060006Y028784D02*
X060026Y028824D01*
X060006Y028864D01*
X060046Y028844D01*
X060086Y028864D01*
X060066Y028824D01*
X060086Y028784D01*
X060046Y028804D01*
X060006Y028784D01*
X061934Y028744D02*
X061974Y028824D01*
X061934Y028904D01*
X062014Y028864D01*
X062094Y028904D01*
X062054Y028824D01*
X062094Y028744D01*
X062014Y028784D01*
X061934Y028744D01*
X061974Y028784D02*
X061994Y028824D01*
X061974Y028864D01*
X062014Y028844D01*
X062054Y028864D01*
X062034Y028824D01*
X062054Y028784D01*
X062014Y028804D01*
X061974Y028784D01*
X014361Y025089D02*
Y025048D01*
X014441D01*
Y025089D01*
X014481D01*
Y025168D01*
X014441D01*
Y025208D01*
X014361D01*
Y025168D01*
X014321D01*
Y025089D01*
X014361D01*
X014381Y025108D02*
Y025089D01*
X014421D01*
Y025108D01*
X014441D01*
Y025148D01*
X014421D01*
Y025168D01*
X014381D01*
Y025148D01*
X014361D01*
Y025108D01*
X014381D01*
X010916Y025089D02*
Y025048D01*
X010996D01*
Y025089D01*
X011036D01*
Y025168D01*
X010996D01*
Y025208D01*
X010916D01*
Y025168D01*
X010876D01*
Y025089D01*
X010916D01*
X010936Y025108D02*
Y025089D01*
X010976D01*
Y025108D01*
X010996D01*
Y025148D01*
X010976D01*
Y025168D01*
X010936D01*
Y025148D01*
X010916D01*
Y025108D01*
X010936D01*
X011860Y027017D02*
X011900Y027097D01*
X011860Y027177D01*
X011940Y027137D01*
X012020Y027177D01*
X011980Y027097D01*
X012020Y027017D01*
X011940Y027057D01*
X011860Y027017D01*
X011900Y027057D02*
X011920Y027097D01*
X011900Y027137D01*
X011940Y027117D01*
X011980Y027137D01*
X011960Y027097D01*
X011980Y027057D01*
X011940Y027077D01*
X011900Y027057D01*
X011860Y023080D02*
X011900Y023160D01*
X011860Y023240D01*
X011940Y023200D01*
X012020Y023240D01*
X011980Y023160D01*
X012020Y023080D01*
X011940Y023120D01*
X011860Y023080D01*
X011900Y023120D02*
X011920Y023160D01*
X011900Y023200D01*
X011940Y023180D01*
X011980Y023200D01*
X011960Y023160D01*
X011980Y023120D01*
X011940Y023140D01*
X011900Y023120D01*
X013475Y025089D02*
Y025048D01*
X013555D01*
Y025089D01*
X013595D01*
Y025168D01*
X013555D01*
Y025208D01*
X013475D01*
Y025168D01*
X013435D01*
Y025089D01*
X013475D01*
X013495Y025108D02*
Y025089D01*
X013535D01*
Y025108D01*
X013555D01*
Y025148D01*
X013535D01*
Y025168D01*
X013495D01*
Y025148D01*
X013475D01*
Y025108D01*
X013495D01*
X064706Y023464D02*
X064746Y023544D01*
X064706Y023624D01*
X064786Y023584D01*
X064866Y023624D01*
X064826Y023544D01*
X064866Y023464D01*
X064786Y023504D01*
X064706Y023464D01*
X064746Y023504D02*
X064766Y023544D01*
X064746Y023584D01*
X064786Y023564D01*
X064826Y023584D01*
X064806Y023544D01*
X064826Y023504D01*
X064786Y023524D01*
X064746Y023504D01*
X066674Y023464D02*
X066714Y023544D01*
X066674Y023624D01*
X066754Y023584D01*
X066834Y023624D01*
X066794Y023544D01*
X066834Y023464D01*
X066754Y023504D01*
X066674Y023464D01*
X066714Y023504D02*
X066734Y023544D01*
X066714Y023584D01*
X066754Y023564D01*
X066794Y023584D01*
X066774Y023544D01*
X066794Y023504D01*
X066754Y023524D01*
X066714Y023504D01*
X021020Y047870D02*
Y048003D01*
X021087Y048070D01*
X021153Y048003D01*
Y047870D01*
Y047970D01*
X021020D01*
X010767Y054547D02*
X010847Y054627D01*
X010927Y054547D01*
X010847Y054467D01*
X010767Y054547D01*
X011500Y053129D02*
Y053089D01*
X011580D01*
Y053129D01*
X011620D01*
Y053209D01*
X011580D01*
Y053249D01*
X011500D01*
Y053209D01*
X011460D01*
Y053129D01*
X011500D01*
Y055885D02*
Y055845D01*
X011580D01*
Y055885D01*
X011620D01*
Y055965D01*
X011580D01*
Y056005D01*
X011500D01*
Y055965D01*
X011460D01*
Y055885D01*
X011500D01*
X014650Y053326D02*
Y053286D01*
X014730D01*
Y053326D01*
X014770D01*
Y053406D01*
X014730D01*
Y053446D01*
X014650D01*
Y053406D01*
X014610D01*
Y053326D01*
X014650D01*
Y055688D02*
Y055648D01*
X014730D01*
Y055688D01*
X014770D01*
Y055768D01*
X014730D01*
Y055808D01*
X014650D01*
Y055768D01*
X014610D01*
Y055688D01*
X014650D01*
X013586Y054547D02*
X013666Y054627D01*
X013746Y054547D01*
X013666Y054467D01*
X013586Y054547D01*
X010707Y063209D02*
X010787Y063289D01*
X010867Y063209D01*
X010787Y063129D01*
X010707Y063209D01*
X011440Y061791D02*
Y061751D01*
X011520D01*
Y061791D01*
X011560D01*
Y061871D01*
X011520D01*
Y061911D01*
X011440D01*
Y061871D01*
X011400D01*
Y061791D01*
X011440D01*
Y064547D02*
Y064507D01*
X011520D01*
Y064547D01*
X011560D01*
Y064627D01*
X011520D01*
Y064667D01*
X011440D01*
Y064627D01*
X011400D01*
Y064547D01*
X011440D01*
X014590Y061988D02*
Y061948D01*
X014670D01*
Y061988D01*
X014710D01*
Y062068D01*
X014670D01*
Y062108D01*
X014590D01*
Y062068D01*
X014550D01*
Y061988D01*
X014590D01*
Y064350D02*
Y064310D01*
X014670D01*
Y064350D01*
X014710D01*
Y064430D01*
X014670D01*
Y064470D01*
X014590D01*
Y064430D01*
X014550D01*
Y064350D01*
X014590D01*
X013526Y063209D02*
X013606Y063289D01*
X013686Y063209D01*
X013606Y063129D01*
X013526Y063209D01*
X050851Y015583D02*
X050891Y015663D01*
X050851Y015743D01*
X050932Y015703D01*
X051012Y015743D01*
X050971Y015663D01*
X051012Y015583D01*
X050932Y015623D01*
X050851Y015583D01*
X050891Y015623D02*
X050911Y015663D01*
X050891Y015703D01*
X050932Y015683D01*
X050971Y015703D01*
X050951Y015663D01*
X050971Y015623D01*
X050932Y015643D01*
X050891Y015623D01*
X052820Y015583D02*
X052860Y015663D01*
X052820Y015743D01*
X052900Y015703D01*
X052980Y015743D01*
X052940Y015663D01*
X052980Y015583D01*
X052900Y015623D01*
X052820Y015583D01*
X052860Y015623D02*
X052880Y015663D01*
X052860Y015703D01*
X052900Y015683D01*
X052940Y015703D01*
X052920Y015663D01*
X052940Y015623D01*
X052900Y015643D01*
X052860Y015623D01*
X071544Y028784D02*
X071584Y028864D01*
X071544Y028944D01*
X071624Y028904D01*
X071704Y028944D01*
X071664Y028864D01*
X071704Y028784D01*
X071624Y028824D01*
X071544Y028784D01*
X071584Y028824D02*
X071604Y028864D01*
X071584Y028904D01*
X071624Y028884D01*
X071664Y028904D01*
X071644Y028864D01*
X071664Y028824D01*
X071624Y028844D01*
X071584Y028824D01*
X069576Y028784D02*
X069616Y028864D01*
X069576Y028944D01*
X069656Y028904D01*
X069736Y028944D01*
X069696Y028864D01*
X069736Y028784D01*
X069656Y028824D01*
X069576Y028784D01*
X069616Y028824D02*
X069636Y028864D01*
X069616Y028904D01*
X069656Y028884D01*
X069696Y028904D01*
X069676Y028864D01*
X069696Y028824D01*
X069656Y028844D01*
X069616Y028824D01*
X054906Y026004D02*
X054946Y026084D01*
X054906Y026164D01*
X054986Y026124D01*
X055066Y026164D01*
X055026Y026084D01*
X055066Y026004D01*
X054986Y026044D01*
X054906Y026004D01*
X054946Y026044D02*
X054966Y026084D01*
X054946Y026124D01*
X054986Y026104D01*
X055026Y026124D01*
X055006Y026084D01*
X055026Y026044D01*
X054986Y026064D01*
X054946Y026044D01*
X054906Y024036D02*
X054946Y024116D01*
X054906Y024196D01*
X054986Y024156D01*
X055066Y024196D01*
X055026Y024116D01*
X055066Y024036D01*
X054986Y024076D01*
X054906Y024036D01*
X054946Y024076D02*
X054966Y024116D01*
X054946Y024156D01*
X054986Y024136D01*
X055026Y024156D01*
X055006Y024116D01*
X055026Y024076D01*
X054986Y024096D01*
X054946Y024076D01*
X066716Y028744D02*
X066756Y028824D01*
X066716Y028904D01*
X066796Y028864D01*
X066876Y028904D01*
X066836Y028824D01*
X066876Y028744D01*
X066796Y028784D01*
X066716Y028744D01*
X066756Y028784D02*
X066776Y028824D01*
X066756Y028864D01*
X066796Y028844D01*
X066836Y028864D01*
X066816Y028824D01*
X066836Y028784D01*
X066796Y028804D01*
X066756Y028784D01*
X064748Y028744D02*
X064788Y028824D01*
X064748Y028904D01*
X064828Y028864D01*
X064908Y028904D01*
X064868Y028824D01*
X064908Y028744D01*
X064828Y028784D01*
X064748Y028744D01*
X064788Y028784D02*
X064808Y028824D01*
X064788Y028864D01*
X064828Y028844D01*
X064868Y028864D01*
X064848Y028824D01*
X064868Y028784D01*
X064828Y028804D01*
X064788Y028784D01*
X060090Y020770D02*
X060130Y020850D01*
X060090Y020930D01*
X060170Y020890D01*
X060250Y020930D01*
X060210Y020850D01*
X060250Y020770D01*
X060170Y020810D01*
X060090Y020770D01*
X060130Y020810D02*
X060150Y020850D01*
X060130Y020890D01*
X060170Y020870D01*
X060210Y020890D01*
X060190Y020850D01*
X060210Y020810D01*
X060170Y020830D01*
X060130Y020810D01*
X062058Y020770D02*
X062098Y020850D01*
X062058Y020930D01*
X062138Y020890D01*
X062218Y020930D01*
X062178Y020850D01*
X062218Y020770D01*
X062138Y020810D01*
X062058Y020770D01*
X062098Y020810D02*
X062118Y020850D01*
X062098Y020890D01*
X062138Y020870D01*
X062178Y020890D01*
X062158Y020850D01*
X062178Y020810D01*
X062138Y020830D01*
X062098Y020810D01*
X064756Y020776D02*
X064796Y020856D01*
X064756Y020936D01*
X064836Y020896D01*
X064916Y020936D01*
X064876Y020856D01*
X064916Y020776D01*
X064836Y020816D01*
X064756Y020776D01*
X064796Y020816D02*
X064816Y020856D01*
X064796Y020896D01*
X064836Y020876D01*
X064876Y020896D01*
X064856Y020856D01*
X064876Y020816D01*
X064836Y020836D01*
X064796Y020816D01*
X066724Y020776D02*
X066764Y020856D01*
X066724Y020936D01*
X066804Y020896D01*
X066884Y020936D01*
X066844Y020856D01*
X066884Y020776D01*
X066804Y020816D01*
X066724Y020776D01*
X066764Y020816D02*
X066784Y020856D01*
X066764Y020896D01*
X066804Y020876D01*
X066844Y020896D01*
X066824Y020856D01*
X066844Y020816D01*
X066804Y020836D01*
X066764Y020816D01*
X061984Y023444D02*
X062024Y023524D01*
X061984Y023604D01*
X062064Y023564D01*
X062144Y023604D01*
X062104Y023524D01*
X062144Y023444D01*
X062064Y023484D01*
X061984Y023444D01*
X062024Y023484D02*
X062044Y023524D01*
X062024Y023564D01*
X062064Y023544D01*
X062104Y023564D01*
X062084Y023524D01*
X062104Y023484D01*
X062064Y023504D01*
X062024Y023484D01*
X060016Y023444D02*
X060056Y023524D01*
X060016Y023604D01*
X060096Y023564D01*
X060176Y023604D01*
X060136Y023524D01*
X060176Y023444D01*
X060096Y023484D01*
X060016Y023444D01*
X060056Y023484D02*
X060076Y023524D01*
X060056Y023564D01*
X060096Y023544D01*
X060136Y023564D01*
X060116Y023524D01*
X060136Y023484D01*
X060096Y023504D01*
X060056Y023484D01*
X069406Y020786D02*
X069446Y020866D01*
X069406Y020946D01*
X069486Y020906D01*
X069566Y020946D01*
X069526Y020866D01*
X069566Y020786D01*
X069486Y020826D01*
X069406Y020786D01*
X069446Y020826D02*
X069466Y020866D01*
X069446Y020906D01*
X069486Y020886D01*
X069526Y020906D01*
X069506Y020866D01*
X069526Y020826D01*
X069486Y020846D01*
X069446Y020826D01*
X071374Y020786D02*
X071414Y020866D01*
X071374Y020946D01*
X071454Y020906D01*
X071534Y020946D01*
X071494Y020866D01*
X071534Y020786D01*
X071454Y020826D01*
X071374Y020786D01*
X071414Y020826D02*
X071434Y020866D01*
X071414Y020906D01*
X071454Y020886D01*
X071494Y020906D01*
X071474Y020866D01*
X071494Y020826D01*
X071454Y020846D01*
X071414Y020826D01*
X017050Y065661D02*
Y065461D01*
X017150D01*
X017183Y065495D01*
Y065528D01*
X017150Y065561D01*
X017050D01*
X017150D01*
X017183Y065595D01*
Y065628D01*
X017150Y065661D01*
X017050D01*
X015177Y065676D02*
Y065476D01*
X015277D01*
X015311Y065509D01*
Y065542D01*
X015277Y065576D01*
X015177D01*
X015277D01*
X015311Y065609D01*
Y065642D01*
X015277Y065676D01*
X015177D01*
X016589Y063676D02*
Y063476D01*
X016689D01*
X016722Y063509D01*
Y063543D01*
X016689Y063576D01*
X016589D01*
X016689D01*
X016722Y063609D01*
Y063643D01*
X016689Y063676D01*
X016589D01*
X086533Y064967D02*
X086500Y065000D01*
X086433D01*
X086400Y064967D01*
Y064833D01*
X086433Y064800D01*
X086500D01*
X086533Y064833D01*
X087733Y057767D02*
X087700Y057800D01*
X087633D01*
X087600Y057767D01*
Y057633D01*
X087633Y057600D01*
X087700D01*
X087733Y057633D01*
X086533Y055367D02*
X086500Y055400D01*
X086433D01*
X086400Y055367D01*
Y055233D01*
X086433Y055200D01*
X086500D01*
X086533Y055233D01*
X087733Y052967D02*
X087700Y053000D01*
X087633D01*
X087600Y052967D01*
Y052833D01*
X087633Y052800D01*
X087700D01*
X087733Y052833D01*
X086533Y050567D02*
X086500Y050600D01*
X086433D01*
X086400Y050567D01*
Y050433D01*
X086433Y050400D01*
X086500D01*
X086533Y050433D01*
X087733Y048167D02*
X087700Y048200D01*
X087633D01*
X087600Y048167D01*
Y048033D01*
X087633Y048000D01*
X087700D01*
X087733Y048033D01*
X086533Y045767D02*
X086500Y045800D01*
X086433D01*
X086400Y045767D01*
Y045633D01*
X086433Y045600D01*
X086500D01*
X086533Y045633D01*
X087733Y043367D02*
X087700Y043400D01*
X087633D01*
X087600Y043367D01*
Y043233D01*
X087633Y043200D01*
X087700D01*
X087733Y043233D01*
X086533Y040967D02*
X086500Y041000D01*
X086433D01*
X086400Y040967D01*
Y040833D01*
X086433Y040800D01*
X086500D01*
X086533Y040833D01*
X087733Y038567D02*
X087700Y038600D01*
X087633D01*
X087600Y038567D01*
Y038433D01*
X087633Y038400D01*
X087700D01*
X087733Y038433D01*
X086533Y036167D02*
X086500Y036200D01*
X086433D01*
X086400Y036167D01*
Y036033D01*
X086433Y036000D01*
X086500D01*
X086533Y036033D01*
X087733Y033767D02*
X087700Y033800D01*
X087633D01*
X087600Y033767D01*
Y033633D01*
X087633Y033600D01*
X087700D01*
X087733Y033633D01*
X084133Y064967D02*
X084100Y065000D01*
X084033D01*
X084000Y064967D01*
Y064833D01*
X084033Y064800D01*
X084100D01*
X084133Y064833D01*
X085333Y057767D02*
X085300Y057800D01*
X085233D01*
X085200Y057767D01*
Y057633D01*
X085233Y057600D01*
X085300D01*
X085333Y057633D01*
Y052967D02*
X085300Y053000D01*
X085233D01*
X085200Y052967D01*
Y052833D01*
X085233Y052800D01*
X085300D01*
X085333Y052833D01*
Y048167D02*
X085300Y048200D01*
X085233D01*
X085200Y048167D01*
Y048033D01*
X085233Y048000D01*
X085300D01*
X085333Y048033D01*
Y043367D02*
X085300Y043400D01*
X085233D01*
X085200Y043367D01*
Y043233D01*
X085233Y043200D01*
X085300D01*
X085333Y043233D01*
X084133Y036167D02*
X084100Y036200D01*
X084033D01*
X084000Y036167D01*
Y036033D01*
X084033Y036000D01*
X084100D01*
X084133Y036033D01*
X085333Y033767D02*
X085300Y033800D01*
X085233D01*
X085200Y033767D01*
Y033633D01*
X085233Y033600D01*
X085300D01*
X085333Y033633D01*
X081733Y055367D02*
X081700Y055400D01*
X081633D01*
X081600Y055367D01*
Y055233D01*
X081633Y055200D01*
X081700D01*
X081733Y055233D01*
X082933Y052967D02*
X082900Y053000D01*
X082833D01*
X082800Y052967D01*
Y052833D01*
X082833Y052800D01*
X082900D01*
X082933Y052833D01*
X081733Y050567D02*
X081700Y050600D01*
X081633D01*
X081600Y050567D01*
Y050433D01*
X081633Y050400D01*
X081700D01*
X081733Y050433D01*
Y036167D02*
X081700Y036200D01*
X081633D01*
X081600Y036167D01*
Y036033D01*
X081633Y036000D01*
X081700D01*
X081733Y036033D01*
X079333Y060167D02*
X079300Y060200D01*
X079233D01*
X079200Y060167D01*
Y060033D01*
X079233Y060000D01*
X079300D01*
X079333Y060033D01*
X080533Y057767D02*
X080500Y057800D01*
X080433D01*
X080400Y057767D01*
Y057633D01*
X080433Y057600D01*
X080500D01*
X080533Y057633D01*
X079333Y055367D02*
X079300Y055400D01*
X079233D01*
X079200Y055367D01*
Y055233D01*
X079233Y055200D01*
X079300D01*
X079333Y055233D01*
X080533Y052967D02*
X080500Y053000D01*
X080433D01*
X080400Y052967D01*
Y052833D01*
X080433Y052800D01*
X080500D01*
X080533Y052833D01*
Y048167D02*
X080500Y048200D01*
X080433D01*
X080400Y048167D01*
Y048033D01*
X080433Y048000D01*
X080500D01*
X080533Y048033D01*
Y038567D02*
X080500Y038600D01*
X080433D01*
X080400Y038567D01*
Y038433D01*
X080433Y038400D01*
X080500D01*
X080533Y038433D01*
X079333Y036167D02*
X079300Y036200D01*
X079233D01*
X079200Y036167D01*
Y036033D01*
X079233Y036000D01*
X079300D01*
X079333Y036033D01*
X080533Y033767D02*
X080500Y033800D01*
X080433D01*
X080400Y033767D01*
Y033633D01*
X080433Y033600D01*
X080500D01*
X080533Y033633D01*
X079333Y021767D02*
X079300Y021800D01*
X079233D01*
X079200Y021767D01*
Y021633D01*
X079233Y021600D01*
X079300D01*
X079333Y021633D01*
Y012167D02*
X079300Y012200D01*
X079233D01*
X079200Y012167D01*
Y012033D01*
X079233Y012000D01*
X079300D01*
X079333Y012033D01*
X078133Y033767D02*
X078100Y033800D01*
X078033D01*
X078000Y033767D01*
Y033633D01*
X078033Y033600D01*
X078100D01*
X078133Y033633D01*
Y028967D02*
X078100Y029000D01*
X078033D01*
X078000Y028967D01*
Y028833D01*
X078033Y028800D01*
X078100D01*
X078133Y028833D01*
Y024167D02*
X078100Y024200D01*
X078033D01*
X078000Y024167D01*
Y024033D01*
X078033Y024000D01*
X078100D01*
X078133Y024033D01*
Y019367D02*
X078100Y019400D01*
X078033D01*
X078000Y019367D01*
Y019233D01*
X078033Y019200D01*
X078100D01*
X078133Y019233D01*
Y014567D02*
X078100Y014600D01*
X078033D01*
X078000Y014567D01*
Y014433D01*
X078033Y014400D01*
X078100D01*
X078133Y014433D01*
X076933Y012167D02*
X076900Y012200D01*
X076833D01*
X076800Y012167D01*
Y012033D01*
X076833Y012000D01*
X076900D01*
X076933Y012033D01*
X075733Y048167D02*
X075700Y048200D01*
X075633D01*
X075600Y048167D01*
Y048033D01*
X075633Y048000D01*
X075700D01*
X075733Y048033D01*
X074533Y021767D02*
X074500Y021800D01*
X074433D01*
X074400Y021767D01*
Y021633D01*
X074433Y021600D01*
X074500D01*
X074533Y021633D01*
X075733Y014567D02*
X075700Y014600D01*
X075633D01*
X075600Y014567D01*
Y014433D01*
X075633Y014400D01*
X075700D01*
X075733Y014433D01*
X074533Y012167D02*
X074500Y012200D01*
X074433D01*
X074400Y012167D01*
Y012033D01*
X074433Y012000D01*
X074500D01*
X074533Y012033D01*
X073333Y062567D02*
X073300Y062600D01*
X073233D01*
X073200Y062567D01*
Y062433D01*
X073233Y062400D01*
X073300D01*
X073333Y062433D01*
X072133Y060167D02*
X072100Y060200D01*
X072033D01*
X072000Y060167D01*
Y060033D01*
X072033Y060000D01*
X072100D01*
X072133Y060033D01*
Y050567D02*
X072100Y050600D01*
X072033D01*
X072000Y050567D01*
Y050433D01*
X072033Y050400D01*
X072100D01*
X072133Y050433D01*
Y026567D02*
X072100Y026600D01*
X072033D01*
X072000Y026567D01*
Y026433D01*
X072033Y026400D01*
X072100D01*
X072133Y026433D01*
Y016967D02*
X072100Y017000D01*
X072033D01*
X072000Y016967D01*
Y016833D01*
X072033Y016800D01*
X072100D01*
X072133Y016833D01*
X073333Y014567D02*
X073300Y014600D01*
X073233D01*
X073200Y014567D01*
Y014433D01*
X073233Y014400D01*
X073300D01*
X073333Y014433D01*
X070933Y062567D02*
X070900Y062600D01*
X070833D01*
X070800Y062567D01*
Y062433D01*
X070833Y062400D01*
X070900D01*
X070933Y062433D01*
X069733Y060167D02*
X069700Y060200D01*
X069633D01*
X069600Y060167D01*
Y060033D01*
X069633Y060000D01*
X069700D01*
X069733Y060033D01*
X070933Y057767D02*
X070900Y057800D01*
X070833D01*
X070800Y057767D01*
Y057633D01*
X070833Y057600D01*
X070900D01*
X070933Y057633D01*
X069733Y050567D02*
X069700Y050600D01*
X069633D01*
X069600Y050567D01*
Y050433D01*
X069633Y050400D01*
X069700D01*
X069733Y050433D01*
X070933Y048167D02*
X070900Y048200D01*
X070833D01*
X070800Y048167D01*
Y048033D01*
X070833Y048000D01*
X070900D01*
X070933Y048033D01*
X069733Y045767D02*
X069700Y045800D01*
X069633D01*
X069600Y045767D01*
Y045633D01*
X069633Y045600D01*
X069700D01*
X069733Y045633D01*
Y031367D02*
X069700Y031400D01*
X069633D01*
X069600Y031367D01*
Y031233D01*
X069633Y031200D01*
X069700D01*
X069733Y031233D01*
X070933Y028967D02*
X070900Y029000D01*
X070833D01*
X070800Y028967D01*
Y028833D01*
X070833Y028800D01*
X070900D01*
X070933Y028833D01*
X069733Y026567D02*
X069700Y026600D01*
X069633D01*
X069600Y026567D01*
Y026433D01*
X069633Y026400D01*
X069700D01*
X069733Y026433D01*
X070933Y024167D02*
X070900Y024200D01*
X070833D01*
X070800Y024167D01*
Y024033D01*
X070833Y024000D01*
X070900D01*
X070933Y024033D01*
Y019367D02*
X070900Y019400D01*
X070833D01*
X070800Y019367D01*
Y019233D01*
X070833Y019200D01*
X070900D01*
X070933Y019233D01*
X069733Y016967D02*
X069700Y017000D01*
X069633D01*
X069600Y016967D01*
Y016833D01*
X069633Y016800D01*
X069700D01*
X069733Y016833D01*
X070933Y014567D02*
X070900Y014600D01*
X070833D01*
X070800Y014567D01*
Y014433D01*
X070833Y014400D01*
X070900D01*
X070933Y014433D01*
X068533Y062567D02*
X068500Y062600D01*
X068433D01*
X068400Y062567D01*
Y062433D01*
X068433Y062400D01*
X068500D01*
X068533Y062433D01*
X067333Y036167D02*
X067300Y036200D01*
X067233D01*
X067200Y036167D01*
Y036033D01*
X067233Y036000D01*
X067300D01*
X067333Y036033D01*
Y026567D02*
X067300Y026600D01*
X067233D01*
X067200Y026567D01*
Y026433D01*
X067233Y026400D01*
X067300D01*
X067333Y026433D01*
X068533Y024167D02*
X068500Y024200D01*
X068433D01*
X068400Y024167D01*
Y024033D01*
X068433Y024000D01*
X068500D01*
X068533Y024033D01*
Y019367D02*
X068500Y019400D01*
X068433D01*
X068400Y019367D01*
Y019233D01*
X068433Y019200D01*
X068500D01*
X068533Y019233D01*
X067333Y016967D02*
X067300Y017000D01*
X067233D01*
X067200Y016967D01*
Y016833D01*
X067233Y016800D01*
X067300D01*
X067333Y016833D01*
X064933Y064967D02*
X064900Y065000D01*
X064833D01*
X064800Y064967D01*
Y064833D01*
X064833Y064800D01*
X064900D01*
X064933Y064833D01*
X066133Y038567D02*
X066100Y038600D01*
X066033D01*
X066000Y038567D01*
Y038433D01*
X066033Y038400D01*
X066100D01*
X066133Y038433D01*
Y028967D02*
X066100Y029000D01*
X066033D01*
X066000Y028967D01*
Y028833D01*
X066033Y028800D01*
X066100D01*
X066133Y028833D01*
X062533Y064967D02*
X062500Y065000D01*
X062433D01*
X062400Y064967D01*
Y064833D01*
X062433Y064800D01*
X062500D01*
X062533Y064833D01*
X063733Y057767D02*
X063700Y057800D01*
X063633D01*
X063600Y057767D01*
Y057633D01*
X063633Y057600D01*
X063700D01*
X063733Y057633D01*
Y043367D02*
X063700Y043400D01*
X063633D01*
X063600Y043367D01*
Y043233D01*
X063633Y043200D01*
X063700D01*
X063733Y043233D01*
X062533Y040967D02*
X062500Y041000D01*
X062433D01*
X062400Y040967D01*
Y040833D01*
X062433Y040800D01*
X062500D01*
X062533Y040833D01*
X063733Y038567D02*
X063700Y038600D01*
X063633D01*
X063600Y038567D01*
Y038433D01*
X063633Y038400D01*
X063700D01*
X063733Y038433D01*
Y024167D02*
X063700Y024200D01*
X063633D01*
X063600Y024167D01*
Y024033D01*
X063633Y024000D01*
X063700D01*
X063733Y024033D01*
Y019367D02*
X063700Y019400D01*
X063633D01*
X063600Y019367D01*
Y019233D01*
X063633Y019200D01*
X063700D01*
X063733Y019233D01*
X060133Y064967D02*
X060100Y065000D01*
X060033D01*
X060000Y064967D01*
Y064833D01*
X060033Y064800D01*
X060100D01*
X060133Y064833D01*
X061333Y057767D02*
X061300Y057800D01*
X061233D01*
X061200Y057767D01*
Y057633D01*
X061233Y057600D01*
X061300D01*
X061333Y057633D01*
Y043367D02*
X061300Y043400D01*
X061233D01*
X061200Y043367D01*
Y043233D01*
X061233Y043200D01*
X061300D01*
X061333Y043233D01*
X060133Y040967D02*
X060100Y041000D01*
X060033D01*
X060000Y040967D01*
Y040833D01*
X060033Y040800D01*
X060100D01*
X060133Y040833D01*
X061333Y038567D02*
X061300Y038600D01*
X061233D01*
X061200Y038567D01*
Y038433D01*
X061233Y038400D01*
X061300D01*
X061333Y038433D01*
Y028967D02*
X061300Y029000D01*
X061233D01*
X061200Y028967D01*
Y028833D01*
X061233Y028800D01*
X061300D01*
X061333Y028833D01*
Y024167D02*
X061300Y024200D01*
X061233D01*
X061200Y024167D01*
Y024033D01*
X061233Y024000D01*
X061300D01*
X061333Y024033D01*
X060133Y012167D02*
X060100Y012200D01*
X060033D01*
X060000Y012167D01*
Y012033D01*
X060033Y012000D01*
X060100D01*
X060133Y012033D01*
X057733Y060167D02*
X057700Y060200D01*
X057633D01*
X057600Y060167D01*
Y060033D01*
X057633Y060000D01*
X057700D01*
X057733Y060033D01*
X058933Y052967D02*
X058900Y053000D01*
X058833D01*
X058800Y052967D01*
Y052833D01*
X058833Y052800D01*
X058900D01*
X058933Y052833D01*
Y033767D02*
X058900Y033800D01*
X058833D01*
X058800Y033767D01*
Y033633D01*
X058833Y033600D01*
X058900D01*
X058933Y033633D01*
Y019367D02*
X058900Y019400D01*
X058833D01*
X058800Y019367D01*
Y019233D01*
X058833Y019200D01*
X058900D01*
X058933Y019233D01*
X057733Y012167D02*
X057700Y012200D01*
X057633D01*
X057600Y012167D01*
Y012033D01*
X057633Y012000D01*
X057700D01*
X057733Y012033D01*
X056533Y062567D02*
X056500Y062600D01*
X056433D01*
X056400Y062567D01*
Y062433D01*
X056433Y062400D01*
X056500D01*
X056533Y062433D01*
Y057767D02*
X056500Y057800D01*
X056433D01*
X056400Y057767D01*
Y057633D01*
X056433Y057600D01*
X056500D01*
X056533Y057633D01*
Y052967D02*
X056500Y053000D01*
X056433D01*
X056400Y052967D01*
Y052833D01*
X056433Y052800D01*
X056500D01*
X056533Y052833D01*
Y048167D02*
X056500Y048200D01*
X056433D01*
X056400Y048167D01*
Y048033D01*
X056433Y048000D01*
X056500D01*
X056533Y048033D01*
Y043367D02*
X056500Y043400D01*
X056433D01*
X056400Y043367D01*
Y043233D01*
X056433Y043200D01*
X056500D01*
X056533Y043233D01*
Y033767D02*
X056500Y033800D01*
X056433D01*
X056400Y033767D01*
Y033633D01*
X056433Y033600D01*
X056500D01*
X056533Y033633D01*
X055333Y016967D02*
X055300Y017000D01*
X055233D01*
X055200Y016967D01*
Y016833D01*
X055233Y016800D01*
X055300D01*
X055333Y016833D01*
X056533Y014567D02*
X056500Y014600D01*
X056433D01*
X056400Y014567D01*
Y014433D01*
X056433Y014400D01*
X056500D01*
X056533Y014433D01*
X055333Y012167D02*
X055300Y012200D01*
X055233D01*
X055200Y012167D01*
Y012033D01*
X055233Y012000D01*
X055300D01*
X055333Y012033D01*
X054133Y062567D02*
X054100Y062600D01*
X054033D01*
X054000Y062567D01*
Y062433D01*
X054033Y062400D01*
X054100D01*
X054133Y062433D01*
Y024167D02*
X054100Y024200D01*
X054033D01*
X054000Y024167D01*
Y024033D01*
X054033Y024000D01*
X054100D01*
X054133Y024033D01*
Y014567D02*
X054100Y014600D01*
X054033D01*
X054000Y014567D01*
Y014433D01*
X054033Y014400D01*
X054100D01*
X054133Y014433D01*
X052933Y012167D02*
X052900Y012200D01*
X052833D01*
X052800Y012167D01*
Y012033D01*
X052833Y012000D01*
X052900D01*
X052933Y012033D01*
X051733Y062567D02*
X051700Y062600D01*
X051633D01*
X051600Y062567D01*
Y062433D01*
X051633Y062400D01*
X051700D01*
X051733Y062433D01*
X050533Y050567D02*
X050500Y050600D01*
X050433D01*
X050400Y050567D01*
Y050433D01*
X050433Y050400D01*
X050500D01*
X050533Y050433D01*
X051733Y048167D02*
X051700Y048200D01*
X051633D01*
X051600Y048167D01*
Y048033D01*
X051633Y048000D01*
X051700D01*
X051733Y048033D01*
X050533Y036167D02*
X050500Y036200D01*
X050433D01*
X050400Y036167D01*
Y036033D01*
X050433Y036000D01*
X050500D01*
X050533Y036033D01*
Y031367D02*
X050500Y031400D01*
X050433D01*
X050400Y031367D01*
Y031233D01*
X050433Y031200D01*
X050500D01*
X050533Y031233D01*
Y021767D02*
X050500Y021800D01*
X050433D01*
X050400Y021767D01*
Y021633D01*
X050433Y021600D01*
X050500D01*
X050533Y021633D01*
Y012167D02*
X050500Y012200D01*
X050433D01*
X050400Y012167D01*
Y012033D01*
X050433Y012000D01*
X050500D01*
X050533Y012033D01*
X048133Y064967D02*
X048100Y065000D01*
X048033D01*
X048000Y064967D01*
Y064833D01*
X048033Y064800D01*
X048100D01*
X048133Y064833D01*
X049333Y062567D02*
X049300Y062600D01*
X049233D01*
X049200Y062567D01*
Y062433D01*
X049233Y062400D01*
X049300D01*
X049333Y062433D01*
X048133Y060167D02*
X048100Y060200D01*
X048033D01*
X048000Y060167D01*
Y060033D01*
X048033Y060000D01*
X048100D01*
X048133Y060033D01*
Y055367D02*
X048100Y055400D01*
X048033D01*
X048000Y055367D01*
Y055233D01*
X048033Y055200D01*
X048100D01*
X048133Y055233D01*
X049333Y052967D02*
X049300Y053000D01*
X049233D01*
X049200Y052967D01*
Y052833D01*
X049233Y052800D01*
X049300D01*
X049333Y052833D01*
X048133Y021767D02*
X048100Y021800D01*
X048033D01*
X048000Y021767D01*
Y021633D01*
X048033Y021600D01*
X048100D01*
X048133Y021633D01*
X045733Y064967D02*
X045700Y065000D01*
X045633D01*
X045600Y064967D01*
Y064833D01*
X045633Y064800D01*
X045700D01*
X045733Y064833D01*
X046933Y062567D02*
X046900Y062600D01*
X046833D01*
X046800Y062567D01*
Y062433D01*
X046833Y062400D01*
X046900D01*
X046933Y062433D01*
X045733Y060167D02*
X045700Y060200D01*
X045633D01*
X045600Y060167D01*
Y060033D01*
X045633Y060000D01*
X045700D01*
X045733Y060033D01*
X046933Y052967D02*
X046900Y053000D01*
X046833D01*
X046800Y052967D01*
Y052833D01*
X046833Y052800D01*
X046900D01*
X046933Y052833D01*
X045733Y045767D02*
X045700Y045800D01*
X045633D01*
X045600Y045767D01*
Y045633D01*
X045633Y045600D01*
X045700D01*
X045733Y045633D01*
Y040967D02*
X045700Y041000D01*
X045633D01*
X045600Y040967D01*
Y040833D01*
X045633Y040800D01*
X045700D01*
X045733Y040833D01*
X046933Y038567D02*
X046900Y038600D01*
X046833D01*
X046800Y038567D01*
Y038433D01*
X046833Y038400D01*
X046900D01*
X046933Y038433D01*
X045733Y026567D02*
X045700Y026600D01*
X045633D01*
X045600Y026567D01*
Y026433D01*
X045633Y026400D01*
X045700D01*
X045733Y026433D01*
X046933Y024167D02*
X046900Y024200D01*
X046833D01*
X046800Y024167D01*
Y024033D01*
X046833Y024000D01*
X046900D01*
X046933Y024033D01*
X045733Y021767D02*
X045700Y021800D01*
X045633D01*
X045600Y021767D01*
Y021633D01*
X045633Y021600D01*
X045700D01*
X045733Y021633D01*
X046933Y014567D02*
X046900Y014600D01*
X046833D01*
X046800Y014567D01*
Y014433D01*
X046833Y014400D01*
X046900D01*
X046933Y014433D01*
X044533Y052967D02*
X044500Y053000D01*
X044433D01*
X044400Y052967D01*
Y052833D01*
X044433Y052800D01*
X044500D01*
X044533Y052833D01*
Y048167D02*
X044500Y048200D01*
X044433D01*
X044400Y048167D01*
Y048033D01*
X044433Y048000D01*
X044500D01*
X044533Y048033D01*
Y043367D02*
X044500Y043400D01*
X044433D01*
X044400Y043367D01*
Y043233D01*
X044433Y043200D01*
X044500D01*
X044533Y043233D01*
Y038567D02*
X044500Y038600D01*
X044433D01*
X044400Y038567D01*
Y038433D01*
X044433Y038400D01*
X044500D01*
X044533Y038433D01*
X043333Y036167D02*
X043300Y036200D01*
X043233D01*
X043200Y036167D01*
Y036033D01*
X043233Y036000D01*
X043300D01*
X043333Y036033D01*
X044533Y028967D02*
X044500Y029000D01*
X044433D01*
X044400Y028967D01*
Y028833D01*
X044433Y028800D01*
X044500D01*
X044533Y028833D01*
Y024167D02*
X044500Y024200D01*
X044433D01*
X044400Y024167D01*
Y024033D01*
X044433Y024000D01*
X044500D01*
X044533Y024033D01*
Y014567D02*
X044500Y014600D01*
X044433D01*
X044400Y014567D01*
Y014433D01*
X044433Y014400D01*
X044500D01*
X044533Y014433D01*
X040933Y064967D02*
X040900Y065000D01*
X040833D01*
X040800Y064967D01*
Y064833D01*
X040833Y064800D01*
X040900D01*
X040933Y064833D01*
X042133Y052967D02*
X042100Y053000D01*
X042033D01*
X042000Y052967D01*
Y052833D01*
X042033Y052800D01*
X042100D01*
X042133Y052833D01*
Y043367D02*
X042100Y043400D01*
X042033D01*
X042000Y043367D01*
Y043233D01*
X042033Y043200D01*
X042100D01*
X042133Y043233D01*
X040933Y040967D02*
X040900Y041000D01*
X040833D01*
X040800Y040967D01*
Y040833D01*
X040833Y040800D01*
X040900D01*
X040933Y040833D01*
X042133Y038567D02*
X042100Y038600D01*
X042033D01*
X042000Y038567D01*
Y038433D01*
X042033Y038400D01*
X042100D01*
X042133Y038433D01*
X040933Y036167D02*
X040900Y036200D01*
X040833D01*
X040800Y036167D01*
Y036033D01*
X040833Y036000D01*
X040900D01*
X040933Y036033D01*
Y031367D02*
X040900Y031400D01*
X040833D01*
X040800Y031367D01*
Y031233D01*
X040833Y031200D01*
X040900D01*
X040933Y031233D01*
X042133Y028967D02*
X042100Y029000D01*
X042033D01*
X042000Y028967D01*
Y028833D01*
X042033Y028800D01*
X042100D01*
X042133Y028833D01*
X040933Y021767D02*
X040900Y021800D01*
X040833D01*
X040800Y021767D01*
Y021633D01*
X040833Y021600D01*
X040900D01*
X040933Y021633D01*
X042133Y014567D02*
X042100Y014600D01*
X042033D01*
X042000Y014567D01*
Y014433D01*
X042033Y014400D01*
X042100D01*
X042133Y014433D01*
X038533Y064967D02*
X038500Y065000D01*
X038433D01*
X038400Y064967D01*
Y064833D01*
X038433Y064800D01*
X038500D01*
X038533Y064833D01*
X039733Y062567D02*
X039700Y062600D01*
X039633D01*
X039600Y062567D01*
Y062433D01*
X039633Y062400D01*
X039700D01*
X039733Y062433D01*
Y052967D02*
X039700Y053000D01*
X039633D01*
X039600Y052967D01*
Y052833D01*
X039633Y052800D01*
X039700D01*
X039733Y052833D01*
X038533Y045767D02*
X038500Y045800D01*
X038433D01*
X038400Y045767D01*
Y045633D01*
X038433Y045600D01*
X038500D01*
X038533Y045633D01*
Y040967D02*
X038500Y041000D01*
X038433D01*
X038400Y040967D01*
Y040833D01*
X038433Y040800D01*
X038500D01*
X038533Y040833D01*
X039733Y038567D02*
X039700Y038600D01*
X039633D01*
X039600Y038567D01*
Y038433D01*
X039633Y038400D01*
X039700D01*
X039733Y038433D01*
X038533Y036167D02*
X038500Y036200D01*
X038433D01*
X038400Y036167D01*
Y036033D01*
X038433Y036000D01*
X038500D01*
X038533Y036033D01*
X039733Y033767D02*
X039700Y033800D01*
X039633D01*
X039600Y033767D01*
Y033633D01*
X039633Y033600D01*
X039700D01*
X039733Y033633D01*
Y028967D02*
X039700Y029000D01*
X039633D01*
X039600Y028967D01*
Y028833D01*
X039633Y028800D01*
X039700D01*
X039733Y028833D01*
Y024167D02*
X039700Y024200D01*
X039633D01*
X039600Y024167D01*
Y024033D01*
X039633Y024000D01*
X039700D01*
X039733Y024033D01*
Y019367D02*
X039700Y019400D01*
X039633D01*
X039600Y019367D01*
Y019233D01*
X039633Y019200D01*
X039700D01*
X039733Y019233D01*
X036133Y064967D02*
X036100Y065000D01*
X036033D01*
X036000Y064967D01*
Y064833D01*
X036033Y064800D01*
X036100D01*
X036133Y064833D01*
X037333Y052967D02*
X037300Y053000D01*
X037233D01*
X037200Y052967D01*
Y052833D01*
X037233Y052800D01*
X037300D01*
X037333Y052833D01*
X036133Y045767D02*
X036100Y045800D01*
X036033D01*
X036000Y045767D01*
Y045633D01*
X036033Y045600D01*
X036100D01*
X036133Y045633D01*
X037333Y043367D02*
X037300Y043400D01*
X037233D01*
X037200Y043367D01*
Y043233D01*
X037233Y043200D01*
X037300D01*
X037333Y043233D01*
Y038567D02*
X037300Y038600D01*
X037233D01*
X037200Y038567D01*
Y038433D01*
X037233Y038400D01*
X037300D01*
X037333Y038433D01*
X036133Y036167D02*
X036100Y036200D01*
X036033D01*
X036000Y036167D01*
Y036033D01*
X036033Y036000D01*
X036100D01*
X036133Y036033D01*
X037333Y019367D02*
X037300Y019400D01*
X037233D01*
X037200Y019367D01*
Y019233D01*
X037233Y019200D01*
X037300D01*
X037333Y019233D01*
Y014567D02*
X037300Y014600D01*
X037233D01*
X037200Y014567D01*
Y014433D01*
X037233Y014400D01*
X037300D01*
X037333Y014433D01*
X033733Y064967D02*
X033700Y065000D01*
X033633D01*
X033600Y064967D01*
Y064833D01*
X033633Y064800D01*
X033700D01*
X033733Y064833D01*
X034933Y062567D02*
X034900Y062600D01*
X034833D01*
X034800Y062567D01*
Y062433D01*
X034833Y062400D01*
X034900D01*
X034933Y062433D01*
Y052967D02*
X034900Y053000D01*
X034833D01*
X034800Y052967D01*
Y052833D01*
X034833Y052800D01*
X034900D01*
X034933Y052833D01*
X033733Y045767D02*
X033700Y045800D01*
X033633D01*
X033600Y045767D01*
Y045633D01*
X033633Y045600D01*
X033700D01*
X033733Y045633D01*
X034933Y043367D02*
X034900Y043400D01*
X034833D01*
X034800Y043367D01*
Y043233D01*
X034833Y043200D01*
X034900D01*
X034933Y043233D01*
X033733Y036167D02*
X033700Y036200D01*
X033633D01*
X033600Y036167D01*
Y036033D01*
X033633Y036000D01*
X033700D01*
X033733Y036033D01*
Y031367D02*
X033700Y031400D01*
X033633D01*
X033600Y031367D01*
Y031233D01*
X033633Y031200D01*
X033700D01*
X033733Y031233D01*
X034933Y028967D02*
X034900Y029000D01*
X034833D01*
X034800Y028967D01*
Y028833D01*
X034833Y028800D01*
X034900D01*
X034933Y028833D01*
Y024167D02*
X034900Y024200D01*
X034833D01*
X034800Y024167D01*
Y024033D01*
X034833Y024000D01*
X034900D01*
X034933Y024033D01*
X031333Y064967D02*
X031300Y065000D01*
X031233D01*
X031200Y064967D01*
Y064833D01*
X031233Y064800D01*
X031300D01*
X031333Y064833D01*
X032533Y062567D02*
X032500Y062600D01*
X032433D01*
X032400Y062567D01*
Y062433D01*
X032433Y062400D01*
X032500D01*
X032533Y062433D01*
X031333Y060167D02*
X031300Y060200D01*
X031233D01*
X031200Y060167D01*
Y060033D01*
X031233Y060000D01*
X031300D01*
X031333Y060033D01*
Y055367D02*
X031300Y055400D01*
X031233D01*
X031200Y055367D01*
Y055233D01*
X031233Y055200D01*
X031300D01*
X031333Y055233D01*
X032533Y052967D02*
X032500Y053000D01*
X032433D01*
X032400Y052967D01*
Y052833D01*
X032433Y052800D01*
X032500D01*
X032533Y052833D01*
X031333Y045767D02*
X031300Y045800D01*
X031233D01*
X031200Y045767D01*
Y045633D01*
X031233Y045600D01*
X031300D01*
X031333Y045633D01*
X032533Y043367D02*
X032500Y043400D01*
X032433D01*
X032400Y043367D01*
Y043233D01*
X032433Y043200D01*
X032500D01*
X032533Y043233D01*
Y024167D02*
X032500Y024200D01*
X032433D01*
X032400Y024167D01*
Y024033D01*
X032433Y024000D01*
X032500D01*
X032533Y024033D01*
Y019367D02*
X032500Y019400D01*
X032433D01*
X032400Y019367D01*
Y019233D01*
X032433Y019200D01*
X032500D01*
X032533Y019233D01*
X031333Y016967D02*
X031300Y017000D01*
X031233D01*
X031200Y016967D01*
Y016833D01*
X031233Y016800D01*
X031300D01*
X031333Y016833D01*
X032533Y014567D02*
X032500Y014600D01*
X032433D01*
X032400Y014567D01*
Y014433D01*
X032433Y014400D01*
X032500D01*
X032533Y014433D01*
X030133Y062567D02*
X030100Y062600D01*
X030033D01*
X030000Y062567D01*
Y062433D01*
X030033Y062400D01*
X030100D01*
X030133Y062433D01*
Y052967D02*
X030100Y053000D01*
X030033D01*
X030000Y052967D01*
Y052833D01*
X030033Y052800D01*
X030100D01*
X030133Y052833D01*
X028933Y050567D02*
X028900Y050600D01*
X028833D01*
X028800Y050567D01*
Y050433D01*
X028833Y050400D01*
X028900D01*
X028933Y050433D01*
X030133Y048167D02*
X030100Y048200D01*
X030033D01*
X030000Y048167D01*
Y048033D01*
X030033Y048000D01*
X030100D01*
X030133Y048033D01*
X028933Y045767D02*
X028900Y045800D01*
X028833D01*
X028800Y045767D01*
Y045633D01*
X028833Y045600D01*
X028900D01*
X028933Y045633D01*
X030133Y043367D02*
X030100Y043400D01*
X030033D01*
X030000Y043367D01*
Y043233D01*
X030033Y043200D01*
X030100D01*
X030133Y043233D01*
X028933Y036167D02*
X028900Y036200D01*
X028833D01*
X028800Y036167D01*
Y036033D01*
X028833Y036000D01*
X028900D01*
X028933Y036033D01*
Y031367D02*
X028900Y031400D01*
X028833D01*
X028800Y031367D01*
Y031233D01*
X028833Y031200D01*
X028900D01*
X028933Y031233D01*
X030133Y028967D02*
X030100Y029000D01*
X030033D01*
X030000Y028967D01*
Y028833D01*
X030033Y028800D01*
X030100D01*
X030133Y028833D01*
Y024167D02*
X030100Y024200D01*
X030033D01*
X030000Y024167D01*
Y024033D01*
X030033Y024000D01*
X030100D01*
X030133Y024033D01*
X028933Y021767D02*
X028900Y021800D01*
X028833D01*
X028800Y021767D01*
Y021633D01*
X028833Y021600D01*
X028900D01*
X028933Y021633D01*
X030133Y019367D02*
X030100Y019400D01*
X030033D01*
X030000Y019367D01*
Y019233D01*
X030033Y019200D01*
X030100D01*
X030133Y019233D01*
X026533Y064967D02*
X026500Y065000D01*
X026433D01*
X026400Y064967D01*
Y064833D01*
X026433Y064800D01*
X026500D01*
X026533Y064833D01*
X027733Y062567D02*
X027700Y062600D01*
X027633D01*
X027600Y062567D01*
Y062433D01*
X027633Y062400D01*
X027700D01*
X027733Y062433D01*
X026533Y055367D02*
X026500Y055400D01*
X026433D01*
X026400Y055367D01*
Y055233D01*
X026433Y055200D01*
X026500D01*
X026533Y055233D01*
X027733Y052967D02*
X027700Y053000D01*
X027633D01*
X027600Y052967D01*
Y052833D01*
X027633Y052800D01*
X027700D01*
X027733Y052833D01*
Y048167D02*
X027700Y048200D01*
X027633D01*
X027600Y048167D01*
Y048033D01*
X027633Y048000D01*
X027700D01*
X027733Y048033D01*
Y043367D02*
X027700Y043400D01*
X027633D01*
X027600Y043367D01*
Y043233D01*
X027633Y043200D01*
X027700D01*
X027733Y043233D01*
Y033767D02*
X027700Y033800D01*
X027633D01*
X027600Y033767D01*
Y033633D01*
X027633Y033600D01*
X027700D01*
X027733Y033633D01*
Y028967D02*
X027700Y029000D01*
X027633D01*
X027600Y028967D01*
Y028833D01*
X027633Y028800D01*
X027700D01*
X027733Y028833D01*
Y024167D02*
X027700Y024200D01*
X027633D01*
X027600Y024167D01*
Y024033D01*
X027633Y024000D01*
X027700D01*
X027733Y024033D01*
X026533Y021767D02*
X026500Y021800D01*
X026433D01*
X026400Y021767D01*
Y021633D01*
X026433Y021600D01*
X026500D01*
X026533Y021633D01*
X027733Y019367D02*
X027700Y019400D01*
X027633D01*
X027600Y019367D01*
Y019233D01*
X027633Y019200D01*
X027700D01*
X027733Y019233D01*
X026533Y016967D02*
X026500Y017000D01*
X026433D01*
X026400Y016967D01*
Y016833D01*
X026433Y016800D01*
X026500D01*
X026533Y016833D01*
X027733Y014567D02*
X027700Y014600D01*
X027633D01*
X027600Y014567D01*
Y014433D01*
X027633Y014400D01*
X027700D01*
X027733Y014433D01*
X024133Y055367D02*
X024100Y055400D01*
X024033D01*
X024000Y055367D01*
Y055233D01*
X024033Y055200D01*
X024100D01*
X024133Y055233D01*
X025333Y052967D02*
X025300Y053000D01*
X025233D01*
X025200Y052967D01*
Y052833D01*
X025233Y052800D01*
X025300D01*
X025333Y052833D01*
Y043367D02*
X025300Y043400D01*
X025233D01*
X025200Y043367D01*
Y043233D01*
X025233Y043200D01*
X025300D01*
X025333Y043233D01*
X024133Y036167D02*
X024100Y036200D01*
X024033D01*
X024000Y036167D01*
Y036033D01*
X024033Y036000D01*
X024100D01*
X024133Y036033D01*
X025333Y033767D02*
X025300Y033800D01*
X025233D01*
X025200Y033767D01*
Y033633D01*
X025233Y033600D01*
X025300D01*
X025333Y033633D01*
X024133Y031367D02*
X024100Y031400D01*
X024033D01*
X024000Y031367D01*
Y031233D01*
X024033Y031200D01*
X024100D01*
X024133Y031233D01*
X025333Y028967D02*
X025300Y029000D01*
X025233D01*
X025200Y028967D01*
Y028833D01*
X025233Y028800D01*
X025300D01*
X025333Y028833D01*
X024133Y026567D02*
X024100Y026600D01*
X024033D01*
X024000Y026567D01*
Y026433D01*
X024033Y026400D01*
X024100D01*
X024133Y026433D01*
X025333Y024167D02*
X025300Y024200D01*
X025233D01*
X025200Y024167D01*
Y024033D01*
X025233Y024000D01*
X025300D01*
X025333Y024033D01*
X024133Y021767D02*
X024100Y021800D01*
X024033D01*
X024000Y021767D01*
Y021633D01*
X024033Y021600D01*
X024100D01*
X024133Y021633D01*
X025333Y019367D02*
X025300Y019400D01*
X025233D01*
X025200Y019367D01*
Y019233D01*
X025233Y019200D01*
X025300D01*
X025333Y019233D01*
X024133Y016967D02*
X024100Y017000D01*
X024033D01*
X024000Y016967D01*
Y016833D01*
X024033Y016800D01*
X024100D01*
X024133Y016833D01*
X025333Y014567D02*
X025300Y014600D01*
X025233D01*
X025200Y014567D01*
Y014433D01*
X025233Y014400D01*
X025300D01*
X025333Y014433D01*
X022933Y043367D02*
X022900Y043400D01*
X022833D01*
X022800Y043367D01*
Y043233D01*
X022833Y043200D01*
X022900D01*
X022933Y043233D01*
Y038567D02*
X022900Y038600D01*
X022833D01*
X022800Y038567D01*
Y038433D01*
X022833Y038400D01*
X022900D01*
X022933Y038433D01*
X021733Y036167D02*
X021700Y036200D01*
X021633D01*
X021600Y036167D01*
Y036033D01*
X021633Y036000D01*
X021700D01*
X021733Y036033D01*
X022933Y033767D02*
X022900Y033800D01*
X022833D01*
X022800Y033767D01*
Y033633D01*
X022833Y033600D01*
X022900D01*
X022933Y033633D01*
X021733Y031367D02*
X021700Y031400D01*
X021633D01*
X021600Y031367D01*
Y031233D01*
X021633Y031200D01*
X021700D01*
X021733Y031233D01*
X022933Y028967D02*
X022900Y029000D01*
X022833D01*
X022800Y028967D01*
Y028833D01*
X022833Y028800D01*
X022900D01*
X022933Y028833D01*
Y024167D02*
X022900Y024200D01*
X022833D01*
X022800Y024167D01*
Y024033D01*
X022833Y024000D01*
X022900D01*
X022933Y024033D01*
Y019367D02*
X022900Y019400D01*
X022833D01*
X022800Y019367D01*
Y019233D01*
X022833Y019200D01*
X022900D01*
X022933Y019233D01*
Y014567D02*
X022900Y014600D01*
X022833D01*
X022800Y014567D01*
Y014433D01*
X022833Y014400D01*
X022900D01*
X022933Y014433D01*
X019333Y060167D02*
X019300Y060200D01*
X019233D01*
X019200Y060167D01*
Y060033D01*
X019233Y060000D01*
X019300D01*
X019333Y060033D01*
Y055367D02*
X019300Y055400D01*
X019233D01*
X019200Y055367D01*
Y055233D01*
X019233Y055200D01*
X019300D01*
X019333Y055233D01*
X020533Y052967D02*
X020500Y053000D01*
X020433D01*
X020400Y052967D01*
Y052833D01*
X020433Y052800D01*
X020500D01*
X020533Y052833D01*
Y038567D02*
X020500Y038600D01*
X020433D01*
X020400Y038567D01*
Y038433D01*
X020433Y038400D01*
X020500D01*
X020533Y038433D01*
X019333Y036167D02*
X019300Y036200D01*
X019233D01*
X019200Y036167D01*
Y036033D01*
X019233Y036000D01*
X019300D01*
X019333Y036033D01*
Y031367D02*
X019300Y031400D01*
X019233D01*
X019200Y031367D01*
Y031233D01*
X019233Y031200D01*
X019300D01*
X019333Y031233D01*
Y021767D02*
X019300Y021800D01*
X019233D01*
X019200Y021767D01*
Y021633D01*
X019233Y021600D01*
X019300D01*
X019333Y021633D01*
Y016967D02*
X019300Y017000D01*
X019233D01*
X019200Y016967D01*
Y016833D01*
X019233Y016800D01*
X019300D01*
X019333Y016833D01*
X016933Y055367D02*
X016900Y055400D01*
X016833D01*
X016800Y055367D01*
Y055233D01*
X016833Y055200D01*
X016900D01*
X016933Y055233D01*
X018133Y052967D02*
X018100Y053000D01*
X018033D01*
X018000Y052967D01*
Y052833D01*
X018033Y052800D01*
X018100D01*
X018133Y052833D01*
Y043367D02*
X018100Y043400D01*
X018033D01*
X018000Y043367D01*
Y043233D01*
X018033Y043200D01*
X018100D01*
X018133Y043233D01*
Y038567D02*
X018100Y038600D01*
X018033D01*
X018000Y038567D01*
Y038433D01*
X018033Y038400D01*
X018100D01*
X018133Y038433D01*
X016933Y036167D02*
X016900Y036200D01*
X016833D01*
X016800Y036167D01*
Y036033D01*
X016833Y036000D01*
X016900D01*
X016933Y036033D01*
X018133Y033767D02*
X018100Y033800D01*
X018033D01*
X018000Y033767D01*
Y033633D01*
X018033Y033600D01*
X018100D01*
X018133Y033633D01*
X016933Y031367D02*
X016900Y031400D01*
X016833D01*
X016800Y031367D01*
Y031233D01*
X016833Y031200D01*
X016900D01*
X016933Y031233D01*
Y026567D02*
X016900Y026600D01*
X016833D01*
X016800Y026567D01*
Y026433D01*
X016833Y026400D01*
X016900D01*
X016933Y026433D01*
X018133Y024167D02*
X018100Y024200D01*
X018033D01*
X018000Y024167D01*
Y024033D01*
X018033Y024000D01*
X018100D01*
X018133Y024033D01*
X016933Y021767D02*
X016900Y021800D01*
X016833D01*
X016800Y021767D01*
Y021633D01*
X016833Y021600D01*
X016900D01*
X016933Y021633D01*
Y016967D02*
X016900Y017000D01*
X016833D01*
X016800Y016967D01*
Y016833D01*
X016833Y016800D01*
X016900D01*
X016933Y016833D01*
X018133Y014567D02*
X018100Y014600D01*
X018033D01*
X018000Y014567D01*
Y014433D01*
X018033Y014400D01*
X018100D01*
X018133Y014433D01*
X014533Y036167D02*
X014500Y036200D01*
X014433D01*
X014400Y036167D01*
Y036033D01*
X014433Y036000D01*
X014500D01*
X014533Y036033D01*
X015733Y033767D02*
X015700Y033800D01*
X015633D01*
X015600Y033767D01*
Y033633D01*
X015633Y033600D01*
X015700D01*
X015733Y033633D01*
X014533Y031367D02*
X014500Y031400D01*
X014433D01*
X014400Y031367D01*
Y031233D01*
X014433Y031200D01*
X014500D01*
X014533Y031233D01*
Y016967D02*
X014500Y017000D01*
X014433D01*
X014400Y016967D01*
Y016833D01*
X014433Y016800D01*
X014500D01*
X014533Y016833D01*
X012133Y055367D02*
X012100Y055400D01*
X012033D01*
X012000Y055367D01*
Y055233D01*
X012033Y055200D01*
X012100D01*
X012133Y055233D01*
X013333Y052967D02*
X013300Y053000D01*
X013233D01*
X013200Y052967D01*
Y052833D01*
X013233Y052800D01*
X013300D01*
X013333Y052833D01*
X012133Y036167D02*
X012100Y036200D01*
X012033D01*
X012000Y036167D01*
Y036033D01*
X012033Y036000D01*
X012100D01*
X012133Y036033D01*
X013333Y033767D02*
X013300Y033800D01*
X013233D01*
X013200Y033767D01*
Y033633D01*
X013233Y033600D01*
X013300D01*
X013333Y033633D01*
X012133Y021767D02*
X012100Y021800D01*
X012033D01*
X012000Y021767D01*
Y021633D01*
X012033Y021600D01*
X012100D01*
X012133Y021633D01*
X013333Y014567D02*
X013300Y014600D01*
X013233D01*
X013200Y014567D01*
Y014433D01*
X013233Y014400D01*
X013300D01*
X013333Y014433D01*
X012133Y012167D02*
X012100Y012200D01*
X012033D01*
X012000Y012167D01*
Y012033D01*
X012033Y012000D01*
X012100D01*
X012133Y012033D01*
X083975Y063730D02*
Y063530D01*
X084075D01*
X084108Y063563D01*
Y063597D01*
X084075Y063630D01*
X083975D01*
X084075D01*
X084108Y063663D01*
Y063697D01*
X084075Y063730D01*
X083975D01*
X083750Y063094D02*
Y062894D01*
X083850D01*
X083883Y062927D01*
Y062960D01*
X083850Y062994D01*
X083750D01*
X083850D01*
X083883Y063027D01*
Y063060D01*
X083850Y063094D01*
X083750D01*
X072640Y022342D02*
Y022142D01*
X072740D01*
X072773Y022175D01*
Y022208D01*
X072740Y022242D01*
X072640D01*
X072740D01*
X072773Y022275D01*
Y022308D01*
X072740Y022342D01*
X072640D01*
X074762Y027565D02*
Y027365D01*
X074862D01*
X074896Y027398D01*
Y027431D01*
X074862Y027465D01*
X074762D01*
X074862D01*
X074896Y027498D01*
Y027531D01*
X074862Y027565D01*
X074762D01*
X074264Y027888D02*
Y027688D01*
X074364D01*
X074397Y027721D01*
Y027755D01*
X074364Y027788D01*
X074264D01*
X074364D01*
X074397Y027821D01*
Y027855D01*
X074364Y027888D01*
X074264D01*
X074156Y022083D02*
Y021883D01*
X074256D01*
X074289Y021916D01*
Y021949D01*
X074256Y021983D01*
X074156D01*
X074256D01*
X074289Y022016D01*
Y022049D01*
X074256Y022083D01*
X074156D01*
X075761Y025633D02*
Y025433D01*
X075861D01*
X075894Y025466D01*
Y025500D01*
X075861Y025533D01*
X075761D01*
X075861D01*
X075894Y025566D01*
Y025600D01*
X075861Y025633D01*
X075761D01*
X075258Y026965D02*
Y026765D01*
X075358D01*
X075391Y026798D01*
Y026831D01*
X075358Y026865D01*
X075258D01*
X075358D01*
X075391Y026898D01*
Y026931D01*
X075358Y026965D01*
X075258D01*
X035910Y041082D02*
Y040882D01*
X036010D01*
X036043Y040915D01*
Y040949D01*
X036010Y040982D01*
X035910D01*
X036010D01*
X036043Y041015D01*
Y041049D01*
X036010Y041082D01*
X035910D01*
X028782D02*
Y040882D01*
X028882D01*
X028915Y040915D01*
Y040949D01*
X028882Y040982D01*
X028782D01*
X028882D01*
X028915Y041015D01*
Y041049D01*
X028882Y041082D01*
X028782D01*
X029756Y026812D02*
Y026612D01*
X029856D01*
X029889Y026646D01*
Y026679D01*
X029856Y026712D01*
X029756D01*
X029856D01*
X029889Y026745D01*
Y026779D01*
X029856Y026812D01*
X029756D01*
X029430Y016900D02*
Y016700D01*
X029530D01*
X029563Y016733D01*
Y016767D01*
X029530Y016800D01*
X029430D01*
X029530D01*
X029563Y016833D01*
Y016867D01*
X029530Y016900D01*
X029430D01*
X069347Y032750D02*
Y032550D01*
X069447D01*
X069481Y032584D01*
Y032617D01*
X069447Y032650D01*
X069347D01*
X069447D01*
X069481Y032684D01*
Y032717D01*
X069447Y032750D01*
X069347D01*
X046331Y015380D02*
Y015180D01*
X046431D01*
X046465Y015213D01*
Y015247D01*
X046431Y015280D01*
X046331D01*
X046431D01*
X046465Y015313D01*
Y015347D01*
X046431Y015380D01*
X046331D01*
X045830Y015438D02*
Y015238D01*
X045930D01*
X045963Y015271D01*
Y015304D01*
X045930Y015338D01*
X045830D01*
X045930D01*
X045963Y015371D01*
Y015404D01*
X045930Y015438D01*
X045830D01*
X046830Y015853D02*
Y015653D01*
X046930D01*
X046963Y015686D01*
Y015719D01*
X046930Y015753D01*
X046830D01*
X046930D01*
X046963Y015786D01*
Y015819D01*
X046930Y015853D01*
X046830D01*
X043911Y014245D02*
Y014045D01*
X044011D01*
X044044Y014078D01*
Y014111D01*
X044011Y014145D01*
X043911D01*
X044011D01*
X044044Y014178D01*
Y014211D01*
X044011Y014245D01*
X043911D01*
X033930Y039706D02*
Y039506D01*
X034030D01*
X034063Y039539D01*
Y039573D01*
X034030Y039606D01*
X033930D01*
X034030D01*
X034063Y039639D01*
Y039673D01*
X034030Y039706D01*
X033930D01*
X043387Y014000D02*
Y013800D01*
X043487D01*
X043520Y013833D01*
Y013867D01*
X043487Y013900D01*
X043387D01*
X043487D01*
X043520Y013933D01*
Y013967D01*
X043487Y014000D01*
X043387D01*
X022733Y062725D02*
Y062525D01*
X022833D01*
X022866Y062558D01*
Y062592D01*
X022833Y062625D01*
X022733D01*
X022833D01*
X022866Y062658D01*
Y062692D01*
X022833Y062725D01*
X022733D01*
X026210Y046040D02*
Y045840D01*
X026310D01*
X026343Y045873D01*
Y045907D01*
X026310Y045940D01*
X026210D01*
X026310D01*
X026343Y045973D01*
Y046007D01*
X026310Y046040D01*
X026210D01*
Y038134D02*
Y037934D01*
X026310D01*
X026343Y037967D01*
Y038001D01*
X026310Y038034D01*
X026210D01*
X026310D01*
X026343Y038067D01*
Y038100D01*
X026310Y038134D01*
X026210D01*
X019233Y062819D02*
Y062619D01*
X019333D01*
X019366Y062652D01*
Y062685D01*
X019333Y062719D01*
X019233D01*
X019333D01*
X019366Y062752D01*
Y062785D01*
X019333Y062819D01*
X019233D01*
X018752Y062820D02*
Y062620D01*
X018852D01*
X018885Y062654D01*
Y062687D01*
X018852Y062720D01*
X018752D01*
X018852D01*
X018885Y062754D01*
Y062787D01*
X018852Y062820D01*
X018752D01*
X012645Y065876D02*
Y065676D01*
X012745D01*
X012779Y065709D01*
Y065742D01*
X012745Y065776D01*
X012645D01*
X012745D01*
X012779Y065809D01*
Y065842D01*
X012745Y065876D01*
X012645D01*
Y061712D02*
Y061512D01*
X012745D01*
X012779Y061545D01*
Y061579D01*
X012745Y061612D01*
X012645D01*
X012745D01*
X012779Y061645D01*
Y061679D01*
X012745Y061712D01*
X012645D01*
X059090Y036620D02*
Y036420D01*
X059190D01*
X059223Y036453D01*
Y036487D01*
X059190Y036520D01*
X059090D01*
X059190D01*
X059223Y036553D01*
Y036587D01*
X059190Y036620D01*
X059090D01*
X055611Y036314D02*
Y036114D01*
X055711D01*
X055744Y036147D01*
Y036181D01*
X055711Y036214D01*
X055611D01*
X055711D01*
X055744Y036247D01*
Y036281D01*
X055711Y036314D01*
X055611D01*
X057568Y045065D02*
Y044865D01*
X057668D01*
X057701Y044898D01*
Y044932D01*
X057668Y044965D01*
X057568D01*
X057668D01*
X057701Y044998D01*
Y045032D01*
X057668Y045065D01*
X057568D01*
X055927Y041544D02*
Y041344D01*
X056027D01*
X056060Y041377D01*
Y041410D01*
X056027Y041444D01*
X055927D01*
X056027D01*
X056060Y041477D01*
Y041510D01*
X056027Y041544D01*
X055927D01*
X060868Y040333D02*
Y040133D01*
X060968D01*
X061001Y040166D01*
Y040200D01*
X060968Y040233D01*
X060868D01*
X060968D01*
X061001Y040266D01*
Y040300D01*
X060968Y040333D01*
X060868D01*
X060215D02*
Y040133D01*
X060314D01*
X060348Y040166D01*
Y040200D01*
X060314Y040233D01*
X060215D01*
X060314D01*
X060348Y040266D01*
Y040300D01*
X060314Y040333D01*
X060215D01*
X060803Y038035D02*
Y037835D01*
X060903D01*
X060937Y037868D01*
Y037902D01*
X060903Y037935D01*
X060803D01*
X060903D01*
X060937Y037968D01*
Y038002D01*
X060903Y038035D01*
X060803D01*
X060215D02*
Y037835D01*
X060314D01*
X060348Y037868D01*
Y037902D01*
X060314Y037935D01*
X060215D01*
X060314D01*
X060348Y037968D01*
Y038002D01*
X060314Y038035D01*
X060215D01*
X058380Y041946D02*
Y041746D01*
X058480D01*
X058514Y041779D01*
Y041813D01*
X058480Y041846D01*
X058380D01*
X058480D01*
X058514Y041879D01*
Y041913D01*
X058480Y041946D01*
X058380D01*
X058750Y039164D02*
Y038964D01*
X058850D01*
X058883Y038997D01*
Y039031D01*
X058850Y039064D01*
X058750D01*
X058850D01*
X058883Y039097D01*
Y039131D01*
X058850Y039164D01*
X058750D01*
X058423Y039490D02*
Y039290D01*
X058523D01*
X058557Y039323D01*
Y039357D01*
X058523Y039390D01*
X058423D01*
X058523D01*
X058557Y039423D01*
Y039457D01*
X058523Y039490D01*
X058423D01*
X058425Y039168D02*
Y038968D01*
X058525D01*
X058558Y039001D01*
Y039035D01*
X058525Y039068D01*
X058425D01*
X058525D01*
X058558Y039101D01*
Y039135D01*
X058525Y039168D01*
X058425D01*
X058748Y039493D02*
Y039293D01*
X058848D01*
X058881Y039326D01*
Y039360D01*
X058848Y039393D01*
X058748D01*
X058848D01*
X058881Y039426D01*
Y039459D01*
X058848Y039493D01*
X058748D01*
X058140Y036740D02*
Y036540D01*
X058240D01*
X058273Y036573D01*
Y036607D01*
X058240Y036640D01*
X058140D01*
X058240D01*
X058273Y036673D01*
Y036707D01*
X058240Y036740D01*
X058140D01*
X066558Y041007D02*
Y040807D01*
X066658D01*
X066691Y040840D01*
Y040874D01*
X066658Y040907D01*
X066558D01*
X066658D01*
X066691Y040940D01*
Y040974D01*
X066658Y041007D01*
X066558D01*
X080410Y061330D02*
Y061130D01*
X080510D01*
X080543Y061163D01*
Y061197D01*
X080510Y061230D01*
X080410D01*
X080510D01*
X080543Y061263D01*
Y061297D01*
X080510Y061330D01*
X080410D01*
X079104Y061462D02*
Y061262D01*
X079204D01*
X079237Y061296D01*
Y061329D01*
X079204Y061362D01*
X079104D01*
X079204D01*
X079237Y061396D01*
Y061429D01*
X079204Y061462D01*
X079104D01*
X079267Y058393D02*
Y058193D01*
X079367D01*
X079400Y058226D01*
Y058259D01*
X079367Y058293D01*
X079267D01*
X079367D01*
X079400Y058326D01*
Y058359D01*
X079367Y058393D01*
X079267D01*
X077405D02*
Y058193D01*
X077505D01*
X077538Y058226D01*
Y058259D01*
X077505Y058293D01*
X077405D01*
X077505D01*
X077538Y058326D01*
Y058359D01*
X077505Y058393D01*
X077405D01*
X077422Y060760D02*
Y060560D01*
X077522D01*
X077555Y060594D01*
Y060627D01*
X077522Y060660D01*
X077422D01*
X077522D01*
X077555Y060694D01*
Y060727D01*
X077522Y060760D01*
X077422D01*
X033083Y056162D02*
Y055962D01*
X033183D01*
X033216Y055996D01*
Y056029D01*
X033183Y056062D01*
X033083D01*
X033183D01*
X033216Y056096D01*
Y056129D01*
X033183Y056162D01*
X033083D01*
X046541Y053212D02*
Y053012D01*
X046641D01*
X046674Y053046D01*
Y053079D01*
X046641Y053112D01*
X046541D01*
X046641D01*
X046674Y053146D01*
Y053179D01*
X046641Y053212D01*
X046541D01*
X039240Y056410D02*
Y056210D01*
X039340D01*
X039373Y056243D01*
Y056277D01*
X039340Y056310D01*
X039240D01*
X039340D01*
X039373Y056343D01*
Y056377D01*
X039340Y056410D01*
X039240D01*
X066858Y055482D02*
Y055282D01*
X066958D01*
X066991Y055315D01*
Y055348D01*
X066958Y055382D01*
X066858D01*
X066958D01*
X066991Y055415D01*
Y055448D01*
X066958Y055482D01*
X066858D01*
X059740Y062930D02*
Y062730D01*
X059840D01*
X059873Y062763D01*
Y062797D01*
X059840Y062830D01*
X059740D01*
X059840D01*
X059873Y062863D01*
Y062897D01*
X059840Y062930D01*
X059740D01*
X059744Y063280D02*
Y063080D01*
X059844D01*
X059878Y063114D01*
Y063147D01*
X059844Y063180D01*
X059744D01*
X059844D01*
X059878Y063214D01*
Y063247D01*
X059844Y063280D01*
X059744D01*
X066045Y026507D02*
Y026307D01*
X066145D01*
X066178Y026341D01*
Y026374D01*
X066145Y026407D01*
X066045D01*
X066145D01*
X066178Y026441D01*
Y026474D01*
X066145Y026507D01*
X066045D01*
X065150Y026510D02*
Y026310D01*
X065250D01*
X065283Y026343D01*
Y026377D01*
X065250Y026410D01*
X065150D01*
X065250D01*
X065283Y026443D01*
Y026477D01*
X065250Y026510D01*
X065150D01*
X046486Y044731D02*
Y044531D01*
X046586D01*
X046620Y044564D01*
Y044598D01*
X046586Y044631D01*
X046486D01*
X046586D01*
X046620Y044664D01*
Y044697D01*
X046586Y044731D01*
X046486D01*
X046061Y041695D02*
Y041495D01*
X046161D01*
X046194Y041529D01*
Y041562D01*
X046161Y041595D01*
X046061D01*
X046161D01*
X046194Y041629D01*
Y041662D01*
X046161Y041695D01*
X046061D01*
Y046191D02*
Y045991D01*
X046161D01*
X046194Y046024D01*
Y046057D01*
X046161Y046091D01*
X046061D01*
X046161D01*
X046194Y046124D01*
Y046157D01*
X046161Y046191D01*
X046061D01*
X052070Y037220D02*
Y037020D01*
X052170D01*
X052203Y037053D01*
Y037087D01*
X052170Y037120D01*
X052070D01*
X052170D01*
X052203Y037153D01*
Y037187D01*
X052170Y037220D01*
X052070D01*
X033520Y017910D02*
Y017710D01*
X033620D01*
X033653Y017743D01*
Y017777D01*
X033620Y017810D01*
X033520D01*
X033620D01*
X033653Y017843D01*
Y017877D01*
X033620Y017910D01*
X033520D01*
X061894Y063809D02*
Y063609D01*
X061994D01*
X062027Y063642D01*
Y063675D01*
X061994Y063709D01*
X061894D01*
X061994D01*
X062027Y063742D01*
Y063775D01*
X061994Y063809D01*
X061894D01*
X061392Y063831D02*
Y063631D01*
X061492D01*
X061525Y063664D01*
Y063698D01*
X061492Y063731D01*
X061392D01*
X061492D01*
X061525Y063764D01*
Y063798D01*
X061492Y063831D01*
X061392D01*
X075380Y061100D02*
Y060900D01*
X075480D01*
X075513Y060933D01*
Y060967D01*
X075480Y061000D01*
X075380D01*
X075480D01*
X075513Y061033D01*
Y061067D01*
X075480Y061100D01*
X075380D01*
X064392Y062784D02*
Y062584D01*
X064492D01*
X064525Y062617D01*
Y062650D01*
X064492Y062684D01*
X064392D01*
X064492D01*
X064525Y062717D01*
Y062750D01*
X064492Y062784D01*
X064392D01*
X065387Y060700D02*
Y060500D01*
X065487D01*
X065520Y060533D01*
Y060567D01*
X065487Y060600D01*
X065387D01*
X065487D01*
X065520Y060633D01*
Y060667D01*
X065487Y060700D01*
X065387D01*
X064898Y060724D02*
Y060524D01*
X064998D01*
X065031Y060557D01*
Y060591D01*
X064998Y060624D01*
X064898D01*
X064998D01*
X065031Y060657D01*
Y060691D01*
X064998Y060724D01*
X064898D01*
X063874Y062810D02*
Y062610D01*
X063974D01*
X064007Y062643D01*
Y062677D01*
X063974Y062710D01*
X063874D01*
X063974D01*
X064007Y062743D01*
Y062777D01*
X063974Y062810D01*
X063874D01*
X084268Y058840D02*
Y058640D01*
X084368D01*
X084402Y058673D01*
Y058707D01*
X084368Y058740D01*
X084268D01*
X084368D01*
X084402Y058773D01*
Y058807D01*
X084368Y058840D01*
X084268D01*
X084730Y062703D02*
Y062503D01*
X084830D01*
X084863Y062536D01*
Y062570D01*
X084830Y062603D01*
X084730D01*
X084830D01*
X084863Y062636D01*
Y062670D01*
X084830Y062703D01*
X084730D01*
X083520Y064440D02*
Y064240D01*
X083620D01*
X083653Y064273D01*
Y064307D01*
X083620Y064340D01*
X083520D01*
X083620D01*
X083653Y064373D01*
Y064407D01*
X083620Y064440D01*
X083520D01*
X030120Y014570D02*
Y014370D01*
X030220D01*
X030253Y014403D01*
Y014437D01*
X030220Y014470D01*
X030120D01*
X030220D01*
X030253Y014503D01*
Y014537D01*
X030220Y014570D01*
X030120D01*
X070314Y033060D02*
Y032860D01*
X070414D01*
X070448Y032893D01*
Y032927D01*
X070414Y032960D01*
X070314D01*
X070414D01*
X070448Y032993D01*
Y033026D01*
X070414Y033060D01*
X070314D01*
X047080Y048272D02*
Y048072D01*
X047180D01*
X047213Y048106D01*
Y048139D01*
X047180Y048172D01*
X047080D01*
X047180D01*
X047213Y048206D01*
Y048239D01*
X047180Y048272D01*
X047080D01*
X051780Y041120D02*
Y040920D01*
X051880D01*
X051913Y040953D01*
Y040987D01*
X051880Y041020D01*
X051780D01*
X051880D01*
X051913Y041053D01*
Y041087D01*
X051880Y041120D01*
X051780D01*
X023774Y057003D02*
Y056803D01*
X023874D01*
X023907Y056837D01*
Y056870D01*
X023874Y056903D01*
X023774D01*
X023874D01*
X023907Y056937D01*
Y056970D01*
X023874Y057003D01*
X023774D01*
X033294Y054486D02*
Y054286D01*
X033394D01*
X033427Y054319D01*
Y054353D01*
X033394Y054386D01*
X033294D01*
X033394D01*
X033427Y054419D01*
Y054453D01*
X033394Y054486D01*
X033294D01*
X032645Y051892D02*
Y051692D01*
X032745D01*
X032778Y051726D01*
Y051759D01*
X032745Y051792D01*
X032645D01*
X032745D01*
X032778Y051826D01*
Y051859D01*
X032745Y051892D01*
X032645D01*
X048460Y053980D02*
Y053780D01*
X048560D01*
X048593Y053813D01*
Y053847D01*
X048560Y053880D01*
X048460D01*
X048560D01*
X048593Y053913D01*
Y053947D01*
X048560Y053980D01*
X048460D01*
X029050Y057140D02*
Y056940D01*
X029150D01*
X029183Y056973D01*
Y057007D01*
X029150Y057040D01*
X029050D01*
X029150D01*
X029183Y057073D01*
Y057107D01*
X029150Y057140D01*
X029050D01*
X046005Y051273D02*
Y051073D01*
X046105D01*
X046138Y051106D01*
Y051140D01*
X046105Y051173D01*
X046005D01*
X046105D01*
X046138Y051206D01*
Y051239D01*
X046105Y051273D01*
X046005D01*
X032109Y056848D02*
Y056648D01*
X032209D01*
X032242Y056681D01*
Y056714D01*
X032209Y056748D01*
X032109D01*
X032209D01*
X032242Y056781D01*
Y056814D01*
X032209Y056848D01*
X032109D01*
X053960Y064220D02*
Y064020D01*
X054060D01*
X054093Y064053D01*
Y064087D01*
X054060Y064120D01*
X053960D01*
X054060D01*
X054093Y064153D01*
Y064187D01*
X054060Y064220D01*
X053960D01*
X076810Y034490D02*
Y034290D01*
X076910D01*
X076943Y034323D01*
Y034357D01*
X076910Y034390D01*
X076810D01*
X076910D01*
X076943Y034423D01*
Y034457D01*
X076910Y034490D01*
X076810D01*
Y036110D02*
Y035910D01*
X076910D01*
X076943Y035943D01*
Y035977D01*
X076910Y036010D01*
X076810D01*
X076910D01*
X076943Y036043D01*
Y036077D01*
X076910Y036110D01*
X076810D01*
X018754Y064750D02*
Y064550D01*
X018854D01*
X018888Y064583D01*
Y064616D01*
X018854Y064650D01*
X018754D01*
X018854D01*
X018888Y064683D01*
Y064716D01*
X018854Y064750D01*
X018754D01*
X019734Y064760D02*
Y064560D01*
X019834D01*
X019867Y064593D01*
Y064627D01*
X019834Y064660D01*
X019734D01*
X019834D01*
X019867Y064693D01*
Y064727D01*
X019834Y064760D01*
X019734D01*
X020722Y064731D02*
Y064532D01*
X020822D01*
X020855Y064565D01*
Y064598D01*
X020822Y064631D01*
X020722D01*
X020822D01*
X020855Y064665D01*
Y064698D01*
X020822Y064731D01*
X020722D01*
X020230Y064756D02*
Y064556D01*
X020330D01*
X020363Y064589D01*
Y064622D01*
X020330Y064656D01*
X020230D01*
X020330D01*
X020363Y064689D01*
Y064722D01*
X020330Y064756D01*
X020230D01*
X022000Y063890D02*
Y063690D01*
X022100D01*
X022133Y063723D01*
Y063757D01*
X022100Y063790D01*
X022000D01*
X022100D01*
X022133Y063823D01*
Y063857D01*
X022100Y063890D01*
X022000D01*
X022239Y064772D02*
Y064572D01*
X022339D01*
X022373Y064606D01*
Y064639D01*
X022339Y064672D01*
X022239D01*
X022339D01*
X022373Y064706D01*
Y064739D01*
X022339Y064772D01*
X022239D01*
X073750Y016854D02*
Y016654D01*
X073850D01*
X073884Y016687D01*
Y016720D01*
X073850Y016754D01*
X073750D01*
X073850D01*
X073884Y016787D01*
Y016820D01*
X073850Y016854D01*
X073750D01*
X049208Y014238D02*
Y014038D01*
X049308D01*
X049342Y014071D01*
Y014105D01*
X049308Y014138D01*
X049208D01*
X049308D01*
X049342Y014171D01*
Y014205D01*
X049308Y014238D01*
X049208D01*
X066122Y011858D02*
Y011658D01*
X066222D01*
X066255Y011691D01*
Y011725D01*
X066222Y011758D01*
X066122D01*
X066222D01*
X066255Y011791D01*
Y011825D01*
X066222Y011858D01*
X066122D01*
X072480Y013174D02*
Y012974D01*
X072580D01*
X072613Y013007D01*
Y013041D01*
X072580Y013074D01*
X072480D01*
X072580D01*
X072613Y013107D01*
Y013141D01*
X072580Y013174D01*
X072480D01*
X072980D02*
Y012974D01*
X073080D01*
X073113Y013007D01*
Y013041D01*
X073080Y013074D01*
X072980D01*
X073080D01*
X073113Y013107D01*
Y013141D01*
X073080Y013174D01*
X072980D01*
X023488Y056123D02*
Y055923D01*
X023588D01*
X023621Y055956D01*
Y055990D01*
X023588Y056023D01*
X023488D01*
X023588D01*
X023621Y056056D01*
Y056090D01*
X023588Y056123D01*
X023488D01*
X023774Y055852D02*
Y055652D01*
X023874D01*
X023907Y055685D01*
Y055718D01*
X023874Y055752D01*
X023774D01*
X023874D01*
X023907Y055785D01*
Y055818D01*
X023874Y055852D01*
X023774D01*
X085380Y064020D02*
Y063820D01*
X085480D01*
X085513Y063853D01*
Y063887D01*
X085480Y063920D01*
X085380D01*
X085480D01*
X085513Y063953D01*
Y063987D01*
X085480Y064020D01*
X085380D01*
X085150Y063730D02*
Y063530D01*
X085250D01*
X085283Y063563D01*
Y063597D01*
X085250Y063630D01*
X085150D01*
X085250D01*
X085283Y063663D01*
Y063697D01*
X085250Y063730D01*
X085150D01*
X085811Y064284D02*
Y064084D01*
X085911D01*
X085944Y064118D01*
Y064151D01*
X085911Y064184D01*
X085811D01*
X085911D01*
X085944Y064218D01*
Y064251D01*
X085911Y064284D01*
X085811D01*
X071150Y054060D02*
Y053860D01*
X071250D01*
X071283Y053893D01*
Y053927D01*
X071250Y053960D01*
X071150D01*
X071250D01*
X071283Y053993D01*
Y054027D01*
X071250Y054060D01*
X071150D01*
Y063160D02*
Y062960D01*
X071250D01*
X071283Y062993D01*
Y063027D01*
X071250Y063060D01*
X071150D01*
X071250D01*
X071283Y063093D01*
Y063127D01*
X071250Y063160D01*
X071150D01*
X066520Y038933D02*
Y038733D01*
X066620D01*
X066653Y038767D01*
Y038800D01*
X066620Y038833D01*
X066520D01*
X066620D01*
X066653Y038867D01*
Y038900D01*
X066620Y038933D01*
X066520D01*
X066130Y057490D02*
Y057290D01*
X066230D01*
X066263Y057323D01*
Y057357D01*
X066230Y057390D01*
X066130D01*
X066230D01*
X066263Y057423D01*
Y057457D01*
X066230Y057490D01*
X066130D01*
Y055480D02*
Y055280D01*
X066230D01*
X066263Y055313D01*
Y055347D01*
X066230Y055380D01*
X066130D01*
X066230D01*
X066263Y055413D01*
Y055447D01*
X066230Y055480D01*
X066130D01*
X035650Y031960D02*
Y031760D01*
X035750D01*
X035783Y031793D01*
Y031827D01*
X035750Y031860D01*
X035650D01*
X035750D01*
X035783Y031893D01*
Y031927D01*
X035750Y031960D01*
X035650D01*
X031374Y031388D02*
Y031188D01*
X031473D01*
X031507Y031221D01*
Y031254D01*
X031473Y031288D01*
X031374D01*
X031473D01*
X031507Y031321D01*
Y031354D01*
X031473Y031388D01*
X031374D01*
X034590Y035910D02*
Y035710D01*
X034690D01*
X034723Y035743D01*
Y035777D01*
X034690Y035810D01*
X034590D01*
X034690D01*
X034723Y035843D01*
Y035877D01*
X034690Y035910D01*
X034590D01*
X031389Y034987D02*
Y034787D01*
X031489D01*
X031523Y034820D01*
Y034853D01*
X031489Y034887D01*
X031389D01*
X031489D01*
X031523Y034920D01*
Y034953D01*
X031489Y034987D01*
X031389D01*
X062572Y036219D02*
Y036019D01*
X062672D01*
X062705Y036052D01*
Y036085D01*
X062672Y036119D01*
X062572D01*
X062672D01*
X062705Y036152D01*
Y036185D01*
X062672Y036219D01*
X062572D01*
X061669Y036240D02*
Y036040D01*
X061769D01*
X061802Y036073D01*
Y036106D01*
X061769Y036140D01*
X061669D01*
X061769D01*
X061802Y036173D01*
Y036206D01*
X061769Y036240D01*
X061669D01*
X062572Y041399D02*
Y041199D01*
X062672D01*
X062705Y041232D01*
Y041265D01*
X062672Y041299D01*
X062572D01*
X062672D01*
X062705Y041332D01*
Y041365D01*
X062672Y041399D01*
X062572D01*
X057390Y040570D02*
Y040370D01*
X057490D01*
X057523Y040403D01*
Y040437D01*
X057490Y040470D01*
X057390D01*
X057490D01*
X057523Y040503D01*
Y040537D01*
X057490Y040570D01*
X057390D01*
X056770Y039346D02*
Y039146D01*
X056870D01*
X056903Y039179D01*
Y039213D01*
X056870Y039246D01*
X056770D01*
X056870D01*
X056903Y039279D01*
Y039313D01*
X056870Y039346D01*
X056770D01*
X057030Y039563D02*
Y039363D01*
X057130D01*
X057163Y039397D01*
Y039430D01*
X057130Y039463D01*
X057030D01*
X057130D01*
X057163Y039497D01*
Y039530D01*
X057130Y039563D01*
X057030D01*
X059927Y042290D02*
Y042090D01*
X060027D01*
X060060Y042123D01*
Y042157D01*
X060027Y042190D01*
X059927D01*
X060027D01*
X060060Y042223D01*
Y042257D01*
X060027Y042290D01*
X059927D01*
X060950Y046760D02*
Y046560D01*
X061050D01*
X061083Y046593D01*
Y046627D01*
X061050Y046660D01*
X060950D01*
X061050D01*
X061083Y046693D01*
Y046727D01*
X061050Y046760D01*
X060950D01*
X059923Y045100D02*
Y044900D01*
X060023D01*
X060057Y044933D01*
Y044967D01*
X060023Y045000D01*
X059923D01*
X060023D01*
X060057Y045033D01*
Y045067D01*
X060023Y045100D01*
X059923D01*
X058426Y037317D02*
Y037117D01*
X058526D01*
X058559Y037151D01*
Y037184D01*
X058526Y037217D01*
X058426D01*
X058526D01*
X058559Y037251D01*
Y037284D01*
X058526Y037317D01*
X058426D01*
X060232Y036060D02*
Y035860D01*
X060332D01*
X060366Y035893D01*
Y035927D01*
X060332Y035960D01*
X060232D01*
X060332D01*
X060366Y035993D01*
Y036027D01*
X060332Y036060D01*
X060232D01*
X058140Y037097D02*
Y036897D01*
X058240D01*
X058273Y036931D01*
Y036964D01*
X058240Y036997D01*
X058140D01*
X058240D01*
X058273Y037031D01*
Y037064D01*
X058240Y037097D01*
X058140D01*
X057735Y036980D02*
Y036780D01*
X057835D01*
X057868Y036813D01*
Y036847D01*
X057835Y036880D01*
X057735D01*
X057835D01*
X057868Y036913D01*
Y036947D01*
X057835Y036980D01*
X057735D01*
X070050Y035627D02*
Y035427D01*
X070149D01*
X070183Y035460D01*
Y035493D01*
X070149Y035527D01*
X070050D01*
X070149D01*
X070183Y035560D01*
Y035593D01*
X070149Y035627D01*
X070050D01*
X070050Y035950D02*
Y035750D01*
X070150D01*
X070183Y035783D01*
Y035817D01*
X070150Y035850D01*
X070050D01*
X070150D01*
X070183Y035883D01*
Y035917D01*
X070150Y035950D01*
X070050D01*
X043430Y040610D02*
Y040410D01*
X043530D01*
X043563Y040443D01*
Y040477D01*
X043530Y040510D01*
X043430D01*
X043530D01*
X043563Y040543D01*
Y040577D01*
X043530Y040610D01*
X043430D01*
X052660Y036280D02*
Y036080D01*
X052760D01*
X052793Y036113D01*
Y036147D01*
X052760Y036180D01*
X052660D01*
X052760D01*
X052793Y036213D01*
Y036247D01*
X052760Y036280D01*
X052660D01*
X052470Y036630D02*
Y036430D01*
X052570D01*
X052603Y036463D01*
Y036497D01*
X052570Y036530D01*
X052470D01*
X052570D01*
X052603Y036563D01*
Y036597D01*
X052570Y036630D01*
X052470D01*
X052283Y036900D02*
Y036700D01*
X052383D01*
X052416Y036733D01*
Y036767D01*
X052383Y036800D01*
X052283D01*
X052383D01*
X052416Y036833D01*
Y036867D01*
X052383Y036900D01*
X052283D01*
X050710Y031210D02*
Y031010D01*
X050810D01*
X050843Y031043D01*
Y031077D01*
X050810Y031110D01*
X050710D01*
X050810D01*
X050843Y031143D01*
Y031177D01*
X050810Y031210D01*
X050710D01*
X049620Y043558D02*
Y043358D01*
X049720D01*
X049753Y043392D01*
Y043425D01*
X049720Y043458D01*
X049620D01*
X049720D01*
X049753Y043492D01*
Y043525D01*
X049720Y043558D01*
X049620D01*
X053762D02*
Y043358D01*
X053861D01*
X053895Y043392D01*
Y043425D01*
X053861Y043458D01*
X053762D01*
X053861D01*
X053895Y043492D01*
Y043525D01*
X053861Y043558D01*
X053762D01*
X020990Y026910D02*
Y026710D01*
X021090D01*
X021123Y026743D01*
Y026777D01*
X021090Y026810D01*
X020990D01*
X021090D01*
X021123Y026843D01*
Y026877D01*
X021090Y026910D01*
X020990D01*
X021000Y028670D02*
Y028470D01*
X021100D01*
X021133Y028503D01*
Y028537D01*
X021100Y028570D01*
X021000D01*
X021100D01*
X021133Y028603D01*
Y028637D01*
X021100Y028670D01*
X021000D01*
X031640Y016980D02*
Y016780D01*
X031740D01*
X031773Y016813D01*
Y016847D01*
X031740Y016880D01*
X031640D01*
X031740D01*
X031773Y016913D01*
Y016947D01*
X031740Y016980D01*
X031640D01*
Y019370D02*
Y019170D01*
X031740D01*
X031773Y019203D01*
Y019237D01*
X031740Y019270D01*
X031640D01*
X031740D01*
X031773Y019303D01*
Y019337D01*
X031740Y019370D01*
X031640D01*
X053928Y063122D02*
Y062922D01*
X054028D01*
X054061Y062956D01*
Y062989D01*
X054028Y063022D01*
X053928D01*
X054028D01*
X054061Y063056D01*
Y063089D01*
X054028Y063122D01*
X053928D01*
X053960Y063480D02*
Y063280D01*
X054060D01*
X054093Y063313D01*
Y063347D01*
X054060Y063380D01*
X053960D01*
X054060D01*
X054093Y063413D01*
Y063447D01*
X054060Y063480D01*
X053960D01*
Y063920D02*
Y063720D01*
X054060D01*
X054093Y063753D01*
Y063787D01*
X054060Y063820D01*
X053960D01*
X054060D01*
X054093Y063853D01*
Y063887D01*
X054060Y063920D01*
X053960D01*
X052730Y065920D02*
Y065720D01*
X052830D01*
X052863Y065753D01*
Y065787D01*
X052830Y065820D01*
X052730D01*
X052830D01*
X052863Y065853D01*
Y065887D01*
X052830Y065920D01*
X052730D01*
X053090Y065930D02*
Y065730D01*
X053190D01*
X053223Y065763D01*
Y065797D01*
X053190Y065830D01*
X053090D01*
X053190D01*
X053223Y065863D01*
Y065897D01*
X053190Y065930D01*
X053090D01*
X024320Y057970D02*
Y057770D01*
X024420D01*
X024453Y057803D01*
Y057837D01*
X024420Y057870D01*
X024320D01*
X024420D01*
X024453Y057903D01*
Y057937D01*
X024420Y057970D01*
X024320D01*
X024606Y058801D02*
Y058602D01*
X024706D01*
X024739Y058635D01*
Y058668D01*
X024706Y058702D01*
X024606D01*
X024706D01*
X024739Y058735D01*
Y058768D01*
X024706Y058801D01*
X024606D01*
X074035Y032750D02*
Y032550D01*
X074135D01*
X074169Y032584D01*
Y032617D01*
X074135Y032650D01*
X074035D01*
X074135D01*
X074169Y032684D01*
Y032717D01*
X074135Y032750D01*
X074035D01*
X073050Y032460D02*
Y032260D01*
X073150D01*
X073183Y032293D01*
Y032327D01*
X073150Y032360D01*
X073050D01*
X073150D01*
X073183Y032393D01*
Y032427D01*
X073150Y032460D01*
X073050D01*
X074999Y032669D02*
Y032469D01*
X075099D01*
X075132Y032502D01*
Y032536D01*
X075099Y032569D01*
X074999D01*
X075099D01*
X075132Y032602D01*
Y032636D01*
X075099Y032669D01*
X074999D01*
X076107Y032910D02*
Y032710D01*
X076207D01*
X076240Y032743D01*
Y032777D01*
X076207Y032810D01*
X076107D01*
X076207D01*
X076240Y032843D01*
Y032877D01*
X076207Y032910D01*
X076107D01*
X047934Y056795D02*
Y056595D01*
X048034D01*
X048067Y056629D01*
Y056662D01*
X048034Y056695D01*
X047934D01*
X048034D01*
X048067Y056728D01*
Y056762D01*
X048034Y056795D01*
X047934D01*
X042100Y044630D02*
Y044430D01*
X042200D01*
X042233Y044463D01*
Y044497D01*
X042200Y044530D01*
X042100D01*
X042200D01*
X042233Y044563D01*
Y044597D01*
X042200Y044630D01*
X042100D01*
X043430Y048950D02*
Y048750D01*
X043530D01*
X043563Y048783D01*
Y048817D01*
X043530Y048850D01*
X043430D01*
X043530D01*
X043563Y048883D01*
Y048917D01*
X043530Y048950D01*
X043430D01*
X047950Y051273D02*
Y051073D01*
X048050D01*
X048083Y051106D01*
Y051140D01*
X048050Y051173D01*
X047950D01*
X048050D01*
X048083Y051206D01*
Y051239D01*
X048050Y051273D01*
X047950D01*
X047950Y056300D02*
Y056100D01*
X048050D01*
X048083Y056133D01*
Y056167D01*
X048050Y056200D01*
X047950D01*
X048050D01*
X048083Y056233D01*
Y056267D01*
X048050Y056300D01*
X047950D01*
X045725Y056802D02*
Y056602D01*
X045825D01*
X045859Y056635D01*
Y056669D01*
X045825Y056702D01*
X045725D01*
X045825D01*
X045859Y056735D01*
Y056769D01*
X045825Y056802D01*
X045725D01*
X045727Y057284D02*
Y057084D01*
X045827D01*
X045861Y057118D01*
Y057151D01*
X045827Y057184D01*
X045727D01*
X045827D01*
X045861Y057218D01*
Y057251D01*
X045827Y057284D01*
X045727D01*
X029892Y057339D02*
Y057139D01*
X029992D01*
X030025Y057173D01*
Y057206D01*
X029992Y057239D01*
X029892D01*
X029992D01*
X030025Y057273D01*
Y057306D01*
X029992Y057339D01*
X029892D01*
X032109D02*
Y057139D01*
X032209D01*
X032242Y057173D01*
Y057206D01*
X032209Y057239D01*
X032109D01*
X032209D01*
X032242Y057273D01*
Y057306D01*
X032209Y057339D01*
X032109D01*
X029892Y057835D02*
Y057635D01*
X029992D01*
X030025Y057668D01*
Y057702D01*
X029992Y057735D01*
X029892D01*
X029992D01*
X030025Y057768D01*
Y057801D01*
X029992Y057835D01*
X029892D01*
X026850Y057730D02*
Y057530D01*
X026950D01*
X026983Y057563D01*
Y057597D01*
X026950Y057630D01*
X026850D01*
X026950D01*
X026983Y057663D01*
Y057697D01*
X026950Y057730D01*
X026850D01*
Y059473D02*
Y059273D01*
X026950D01*
X026983Y059306D01*
Y059340D01*
X026950Y059373D01*
X026850D01*
X026950D01*
X026983Y059406D01*
Y059439D01*
X026950Y059473D01*
X026850D01*
X077460Y031400D02*
Y031200D01*
X077560D01*
X077593Y031233D01*
Y031267D01*
X077560Y031300D01*
X077460D01*
X077560D01*
X077593Y031333D01*
Y031367D01*
X077560Y031400D01*
X077460D01*
X072840Y029020D02*
Y028820D01*
X072940D01*
X072973Y028853D01*
Y028887D01*
X072940Y028920D01*
X072840D01*
X072940D01*
X072973Y028953D01*
Y028987D01*
X072940Y029020D01*
X072840D01*
X073249Y017146D02*
Y016946D01*
X073349D01*
X073382Y016979D01*
Y017012D01*
X073349Y017046D01*
X073249D01*
X073349D01*
X073382Y017079D01*
Y017112D01*
X073349Y017146D01*
X073249D01*
X076610Y013130D02*
Y012930D01*
X076710D01*
X076743Y012963D01*
Y012997D01*
X076710Y013030D01*
X076610D01*
X076710D01*
X076743Y013063D01*
Y013097D01*
X076710Y013130D01*
X076610D01*
X076261Y014428D02*
Y014228D01*
X076361D01*
X076394Y014262D01*
Y014295D01*
X076361Y014328D01*
X076261D01*
X076361D01*
X076394Y014361D01*
Y014395D01*
X076361Y014428D01*
X076261D01*
X079470Y032810D02*
Y032610D01*
X079570D01*
X079603Y032643D01*
Y032677D01*
X079570Y032710D01*
X079470D01*
X079570D01*
X079603Y032743D01*
Y032777D01*
X079570Y032810D01*
X079470D01*
X079850D02*
Y032610D01*
X079950D01*
X079983Y032643D01*
Y032677D01*
X079950Y032710D01*
X079850D01*
X079950D01*
X079983Y032743D01*
Y032777D01*
X079950Y032810D01*
X079850D01*
X060361Y027850D02*
Y027650D01*
X060461D01*
X060494Y027683D01*
Y027717D01*
X060461Y027750D01*
X060361D01*
X060461D01*
X060494Y027783D01*
Y027817D01*
X060461Y027850D01*
X060361D01*
X065690Y014820D02*
Y014620D01*
X065790D01*
X065823Y014653D01*
Y014687D01*
X065790Y014720D01*
X065690D01*
X065790D01*
X065823Y014753D01*
Y014787D01*
X065790Y014820D01*
X065690D01*
X059066Y021140D02*
Y020940D01*
X059166D01*
X059199Y020973D01*
Y021007D01*
X059166Y021040D01*
X059066D01*
X059166D01*
X059199Y021073D01*
Y021107D01*
X059166Y021140D01*
X059066D01*
Y022340D02*
Y022140D01*
X059166D01*
X059199Y022173D01*
Y022207D01*
X059166Y022240D01*
X059066D01*
X059166D01*
X059199Y022273D01*
Y022307D01*
X059166Y022340D01*
X059066D01*
X060361Y025320D02*
Y025120D01*
X060461D01*
X060494Y025153D01*
Y025187D01*
X060461Y025220D01*
X060361D01*
X060461D01*
X060494Y025253D01*
Y025287D01*
X060461Y025320D01*
X060361D01*
X067740Y026870D02*
Y026670D01*
X067840D01*
X067873Y026703D01*
Y026737D01*
X067840Y026770D01*
X067740D01*
X067840D01*
X067873Y026803D01*
Y026837D01*
X067840Y026870D01*
X067740D01*
X067756Y025770D02*
Y025570D01*
X067856D01*
X067889Y025603D01*
Y025637D01*
X067856Y025670D01*
X067756D01*
X067856D01*
X067889Y025703D01*
Y025737D01*
X067856Y025770D01*
X067756D01*
X067822Y013630D02*
Y013430D01*
X067922D01*
X067955Y013463D01*
Y013497D01*
X067922Y013530D01*
X067822D01*
X067922D01*
X067955Y013563D01*
Y013597D01*
X067922Y013630D01*
X067822D01*
Y014743D02*
Y014543D01*
X067922D01*
X067955Y014576D01*
Y014610D01*
X067922Y014643D01*
X067822D01*
X067922D01*
X067955Y014676D01*
Y014710D01*
X067922Y014743D01*
X067822D01*
X056070Y022340D02*
Y022140D01*
X056170D01*
X056203Y022173D01*
Y022207D01*
X056170Y022240D01*
X056070D01*
X056170D01*
X056203Y022273D01*
Y022307D01*
X056170Y022340D01*
X056070D01*
X065690Y013550D02*
Y013350D01*
X065790D01*
X065823Y013383D01*
Y013417D01*
X065790Y013450D01*
X065690D01*
X065790D01*
X065823Y013483D01*
Y013517D01*
X065790Y013550D01*
X065690D01*
X063690Y026090D02*
Y025890D01*
X063790D01*
X063823Y025923D01*
Y025957D01*
X063790Y025990D01*
X063690D01*
X063790D01*
X063823Y026023D01*
Y026057D01*
X063790Y026090D01*
X063690D01*
Y027000D02*
Y026800D01*
X063790D01*
X063823Y026833D01*
Y026867D01*
X063790Y026900D01*
X063690D01*
X063790D01*
X063823Y026933D01*
Y026967D01*
X063790Y027000D01*
X063690D01*
D151*
X038451Y037352D02*
G03*
X038451Y037352I-000080J000000D01*
G01*
X037451D02*
G03*
X037451Y037352I-000080J000000D01*
G01*
X088358Y062886D02*
G03*
X088358Y062886I-000080J000000D01*
G01*
Y058358D02*
G03*
X088358Y058358I-000080J000000D01*
G01*
X048550Y031910D02*
G03*
X048550Y031910I-000080J000000D01*
G01*
X047550D02*
G03*
X047550Y031910I-000080J000000D01*
G01*
X077893Y022375D02*
G03*
X077893Y022375I-000080J000000D01*
G01*
Y020406D02*
G03*
X077893Y020406I-000080J000000D01*
G01*
Y021391D02*
G03*
X077893Y021391I-000080J000000D01*
G01*
D152*
X088318Y062886D02*
G03*
X088318Y062886I-000040J000000D01*
G01*
Y058358D02*
G03*
X088318Y058358I-000040J000000D01*
G01*
M02*
