G04*
G04 #@! TF.GenerationSoftware,Altium Limited,Altium Designer,20.1.8 (145)*
G04*
G04 Layer_Physical_Order=2*
G04 Layer_Color=16672372*
%FSAX24Y24*%
%MOIN*%
G70*
G04*
G04 #@! TF.SameCoordinates,C37C2F13-19AF-4E89-93B9-DE42FBC32811*
G04*
G04*
G04 #@! TF.FilePolarity,Positive*
G04*
G01*
G75*
%ADD10C,0.0100*%
%ADD13C,0.0200*%
%ADD20C,0.0060*%
%ADD24C,0.0080*%
%ADD35R,0.0450X0.0550*%
%ADD36R,0.0550X0.0450*%
%ADD39R,0.0472X0.1083*%
%ADD40R,0.0315X0.0433*%
%ADD47R,0.0700X0.0500*%
%ADD110C,0.9055*%
%ADD111C,0.0300*%
%ADD112C,0.0800*%
%ADD113C,0.0240*%
%ADD115C,0.0394*%
%ADD116R,0.0394X0.0394*%
%ADD117R,0.0620X0.0620*%
%ADD118C,0.0620*%
%ADD119C,0.1181*%
%ADD120C,0.1000*%
%ADD121C,0.0787*%
%ADD122C,0.0630*%
%ADD123C,0.0984*%
%ADD124C,0.0315*%
%ADD125C,0.0591*%
%ADD126C,0.0551*%
%ADD127C,0.1476*%
%ADD128C,0.0630*%
%ADD129R,0.0630X0.0630*%
%ADD130C,0.1378*%
%ADD131R,0.1378X0.1378*%
%ADD132O,0.1300X0.1102*%
%ADD133C,0.0240*%
%ADD134C,0.0300*%
%ADD135R,0.0500X0.0600*%
%ADD136R,0.0669X0.1260*%
%ADD137R,0.0600X0.0600*%
%ADD138R,0.0360X0.0360*%
%ADD139R,0.0360X0.0500*%
%ADD140C,0.1200*%
G36*
X010310Y066183D02*
X088430Y066183D01*
X088432Y066184D01*
X088504Y066169D01*
X088567Y066127D01*
X088609Y066064D01*
X088623Y065992D01*
X088623Y065990D01*
X088623Y063151D01*
X088573Y063134D01*
X088553Y063161D01*
X088472Y063222D01*
X088379Y063261D01*
X088278Y063274D01*
X088177Y063261D01*
X088084Y063222D01*
X088003Y063161D01*
X087941Y063080D01*
X087903Y062986D01*
X087889Y062886D01*
X087903Y062785D01*
X087941Y062692D01*
X088003Y062611D01*
X088068Y062561D01*
X088051Y062511D01*
X087081D01*
X087071Y062561D01*
X087084Y062566D01*
X087161Y062625D01*
X087219Y062701D01*
X087256Y062790D01*
X087269Y062886D01*
X087256Y062981D01*
X087219Y063070D01*
X087161Y063147D01*
X087084Y063205D01*
X086995Y063242D01*
X086900Y063255D01*
X086805Y063242D01*
X086716Y063205D01*
X086639Y063147D01*
X086581Y063070D01*
X086544Y062981D01*
X086531Y062886D01*
X086544Y062790D01*
X086581Y062701D01*
X086639Y062625D01*
X086716Y062566D01*
X086805Y062530D01*
X086841Y062525D01*
X086852Y062495D01*
X086856Y062472D01*
X086834Y062439D01*
X086825Y062394D01*
Y058850D01*
X086834Y058806D01*
X086856Y058772D01*
X086852Y058749D01*
X086841Y058719D01*
X086805Y058714D01*
X086716Y058678D01*
X086639Y058619D01*
X086581Y058543D01*
X086544Y058454D01*
X086531Y058358D01*
X086544Y058263D01*
X086581Y058174D01*
X086639Y058098D01*
X086716Y058039D01*
X086805Y058002D01*
X086900Y057990D01*
X086995Y058002D01*
X087084Y058039D01*
X087161Y058098D01*
X087219Y058174D01*
X087256Y058263D01*
X087269Y058358D01*
X087256Y058454D01*
X087219Y058543D01*
X087161Y058619D01*
X087084Y058678D01*
X087071Y058683D01*
X087081Y058733D01*
X088051D01*
X088068Y058683D01*
X088003Y058633D01*
X087941Y058553D01*
X087903Y058459D01*
X087889Y058358D01*
X087903Y058258D01*
X087941Y058164D01*
X088003Y058083D01*
X088084Y058022D01*
X088177Y057983D01*
X088278Y057970D01*
X088379Y057983D01*
X088472Y058022D01*
X088553Y058083D01*
X088573Y058110D01*
X088623Y058093D01*
X088623Y031493D01*
X088622Y031443D01*
X088622D01*
X088622Y031443D01*
X088613Y031377D01*
X088586Y031311D01*
X088543Y031255D01*
X088486Y031212D01*
X088421Y031185D01*
X088351Y031176D01*
X088351Y031176D01*
X088348Y031176D01*
X080704Y031176D01*
X080654Y031180D01*
X080648Y031180D01*
X080606Y031175D01*
X080518Y031163D01*
X080396Y031113D01*
X080292Y031033D01*
X080212Y030929D01*
X080161Y030807D01*
X080147Y030694D01*
X080144Y030683D01*
X080144Y030681D01*
X080146Y030670D01*
X080146Y011612D01*
X080142Y011563D01*
X080142D01*
X080142Y011563D01*
X080133Y011497D01*
X080106Y011431D01*
X080063Y011375D01*
X080006Y011332D01*
X079941Y011305D01*
X079872Y011296D01*
X079866Y011297D01*
X010310Y011297D01*
X010308Y011296D01*
X010236Y011311D01*
X010173Y011353D01*
X010131Y011416D01*
X010126Y011443D01*
X010117Y011490D01*
X010117Y011539D01*
X010117Y018454D01*
X010164Y018471D01*
X010184Y018448D01*
X010275Y018373D01*
X010379Y018317D01*
X010492Y018283D01*
X010560Y018276D01*
Y018874D01*
Y019472D01*
X010492Y019465D01*
X010379Y019431D01*
X010275Y019375D01*
X010184Y019300D01*
X010164Y019277D01*
X010117Y019294D01*
X010117Y020454D01*
X010164Y020471D01*
X010184Y020448D01*
X010275Y020373D01*
X010379Y020317D01*
X010492Y020283D01*
X010560Y020276D01*
Y020874D01*
Y021472D01*
X010492Y021465D01*
X010379Y021431D01*
X010275Y021375D01*
X010184Y021300D01*
X010164Y021277D01*
X010117Y021294D01*
X010117Y028691D01*
X010164Y028708D01*
X010184Y028684D01*
X010275Y028609D01*
X010379Y028553D01*
X010492Y028519D01*
X010560Y028512D01*
Y029110D01*
Y029708D01*
X010492Y029702D01*
X010379Y029667D01*
X010275Y029612D01*
X010184Y029537D01*
X010164Y029513D01*
X010117Y029530D01*
Y030691D01*
X010164Y030708D01*
X010184Y030684D01*
X010275Y030609D01*
X010379Y030553D01*
X010492Y030519D01*
X010560Y030512D01*
Y031110D01*
Y031708D01*
X010492Y031702D01*
X010379Y031667D01*
X010275Y031612D01*
X010184Y031537D01*
X010164Y031513D01*
X010117Y031530D01*
X010117Y065990D01*
X010117Y065992D01*
X010131Y066064D01*
X010173Y066127D01*
X010236Y066169D01*
X010308Y066184D01*
X010310Y066183D01*
D02*
G37*
%LPC*%
G36*
X060098Y066103D02*
X060098Y066103D01*
X052970D01*
X052915Y066092D01*
X052869Y066061D01*
X052869Y066061D01*
X052740Y065932D01*
X052730Y065934D01*
X052648Y065918D01*
X052579Y065871D01*
X052532Y065802D01*
X052516Y065720D01*
X052532Y065638D01*
X052579Y065569D01*
X052648Y065522D01*
X052696Y065513D01*
X052691Y065463D01*
X050000D01*
X049922Y065557D01*
X049796Y065660D01*
X049652Y065737D01*
X049496Y065785D01*
X049334Y065801D01*
X049172Y065785D01*
X049016Y065737D01*
X048872Y065660D01*
X048746Y065557D01*
X048642Y065431D01*
X048565Y065287D01*
X048518Y065131D01*
X048502Y064968D01*
X048518Y064806D01*
X048565Y064650D01*
X048642Y064506D01*
X048746Y064380D01*
X048872Y064276D01*
X049016Y064200D01*
X049104Y064173D01*
X049097Y064123D01*
X029736D01*
X029729Y064173D01*
X029789Y064191D01*
X029907Y064254D01*
X030011Y064339D01*
X030096Y064443D01*
X030159Y064561D01*
X030198Y064689D01*
X030211Y064823D01*
X030198Y064956D01*
X030159Y065085D01*
X030096Y065203D01*
X030011Y065306D01*
X029907Y065392D01*
X029789Y065455D01*
X029661Y065494D01*
X029528Y065507D01*
X029394Y065494D01*
X029266Y065455D01*
X029148Y065392D01*
X029044Y065306D01*
X028959Y065203D01*
X028896Y065085D01*
X028857Y064956D01*
X028844Y064823D01*
X028857Y064689D01*
X028896Y064561D01*
X028959Y064443D01*
X029044Y064339D01*
X029148Y064254D01*
X029266Y064191D01*
X029326Y064173D01*
X029319Y064123D01*
X025718D01*
X025718Y064123D01*
X025663Y064112D01*
X025617Y064081D01*
X025617Y064081D01*
X025349Y063812D01*
X025318Y063766D01*
X025307Y063712D01*
X025307Y063712D01*
Y061368D01*
X023332D01*
X023332Y061368D01*
X023278Y061357D01*
X023231Y061326D01*
X023231Y061326D01*
X023070Y061164D01*
X023039Y061118D01*
X023028Y061063D01*
X023028Y061063D01*
Y056240D01*
X023028Y056240D01*
X023039Y056186D01*
X023070Y056139D01*
X023276Y055933D01*
X023274Y055923D01*
X023290Y055841D01*
X023337Y055772D01*
X023406Y055725D01*
X023488Y055709D01*
X023521Y055715D01*
X023564Y055673D01*
X023560Y055652D01*
X023576Y055570D01*
X023622Y055500D01*
X023692Y055454D01*
X023774Y055437D01*
X023856Y055454D01*
X023925Y055500D01*
X023971Y055570D01*
X023988Y055652D01*
X023971Y055734D01*
X023925Y055803D01*
X023916Y055809D01*
Y056106D01*
X023916Y056106D01*
X023906Y056161D01*
X023875Y056207D01*
X023875Y056207D01*
X023473Y056608D01*
Y060907D01*
X024158D01*
X024185Y060859D01*
X024185Y060857D01*
X024175Y060804D01*
X024175Y060804D01*
Y057925D01*
X024169Y057921D01*
X024122Y057852D01*
X024106Y057770D01*
X024122Y057688D01*
X024169Y057619D01*
X024238Y057572D01*
X024320Y057556D01*
X024402Y057572D01*
X024471Y057619D01*
X024518Y057688D01*
X024534Y057770D01*
X024518Y057852D01*
X024471Y057921D01*
X024460Y057929D01*
Y058394D01*
X024504Y058417D01*
X024524Y058404D01*
X024606Y058387D01*
X024688Y058404D01*
X024758Y058450D01*
X024804Y058520D01*
X024820Y058602D01*
X024804Y058683D01*
X024758Y058753D01*
X024688Y058799D01*
X024620Y058813D01*
Y060563D01*
X025881D01*
X025881Y060563D01*
X025936Y060574D01*
X025982Y060605D01*
X026041Y060664D01*
X026041Y060664D01*
X026072Y060710D01*
X026083Y060764D01*
Y063291D01*
X053358D01*
X053716Y062933D01*
X053714Y062922D01*
X053730Y062840D01*
X053776Y062771D01*
X053846Y062725D01*
X053928Y062708D01*
X054010Y062725D01*
X054079Y062771D01*
X054125Y062840D01*
X054142Y062922D01*
X054125Y063004D01*
X054087Y063061D01*
X054096Y063118D01*
X054111Y063129D01*
X054158Y063198D01*
X054174Y063280D01*
X054158Y063362D01*
X054111Y063431D01*
X054050Y063473D01*
X054045Y063500D01*
X054050Y063527D01*
X054111Y063569D01*
X054158Y063638D01*
X054174Y063720D01*
X054158Y063802D01*
X054112Y063870D01*
X054158Y063938D01*
X054174Y064020D01*
X054158Y064102D01*
X054111Y064171D01*
X054042Y064218D01*
X053960Y064234D01*
X053878Y064218D01*
X053809Y064171D01*
X053776Y064123D01*
X049571D01*
X049564Y064173D01*
X049652Y064200D01*
X049796Y064276D01*
X049922Y064380D01*
X050000Y064474D01*
X054147D01*
X054326Y064295D01*
Y035024D01*
X054343Y034896D01*
X054392Y034777D01*
X054471Y034674D01*
X054939Y034206D01*
X055042Y034127D01*
X055161Y034078D01*
X055289Y034061D01*
X056739D01*
X056816Y033967D01*
X056943Y033863D01*
X057086Y033786D01*
X057243Y033739D01*
X057405Y033723D01*
X057567Y033739D01*
X057723Y033786D01*
X057867Y033863D01*
X057993Y033967D01*
X058097Y034093D01*
X058174Y034237D01*
X058221Y034393D01*
X058237Y034555D01*
X058221Y034717D01*
X058174Y034874D01*
X058097Y035017D01*
X057993Y035143D01*
X057867Y035247D01*
X057723Y035324D01*
X057567Y035371D01*
X057405Y035387D01*
X057243Y035371D01*
X057086Y035324D01*
X056943Y035247D01*
X056816Y035143D01*
X056739Y035049D01*
X055493D01*
X055314Y035228D01*
Y064500D01*
X055297Y064628D01*
X055248Y064747D01*
X055169Y064849D01*
X054701Y065318D01*
X054598Y065396D01*
X054479Y065446D01*
X054351Y065463D01*
X052769D01*
X052764Y065513D01*
X052812Y065522D01*
X052881Y065569D01*
X052888Y065579D01*
X052938D01*
X052939Y065579D01*
X053008Y065532D01*
X053090Y065516D01*
X053172Y065532D01*
X053241Y065579D01*
X053247Y065587D01*
X056895D01*
X056912Y065537D01*
X056816Y065458D01*
X056713Y065332D01*
X056636Y065188D01*
X056589Y065032D01*
X056573Y064870D01*
X056589Y064708D01*
X056636Y064552D01*
X056713Y064408D01*
X056816Y064282D01*
X056943Y064178D01*
X057086Y064101D01*
X057243Y064054D01*
X057405Y064038D01*
X057567Y064054D01*
X057723Y064101D01*
X057867Y064178D01*
X057993Y064282D01*
X058001Y064291D01*
X058257D01*
X058436Y064112D01*
Y055579D01*
X058453Y055451D01*
X058502Y055332D01*
X058581Y055229D01*
X059049Y054761D01*
X059152Y054682D01*
X059271Y054633D01*
X059399Y054616D01*
X064567D01*
X064746Y054437D01*
Y035775D01*
X064763Y035647D01*
X064812Y035528D01*
X064891Y035426D01*
X065640Y034676D01*
X065628Y034555D01*
X065644Y034393D01*
X065691Y034237D01*
X065768Y034093D01*
X065872Y033967D01*
X065998Y033863D01*
X066111Y033803D01*
X066098Y033753D01*
X060564D01*
X057987Y036330D01*
X058019Y036368D01*
X058058Y036342D01*
X058140Y036326D01*
X058222Y036342D01*
X058291Y036389D01*
X058338Y036458D01*
X058354Y036540D01*
X058400Y036567D01*
X060100D01*
Y036024D01*
X060081Y036011D01*
X060034Y035942D01*
X060018Y035860D01*
X060034Y035778D01*
X060081Y035709D01*
X060150Y035662D01*
X060232Y035646D01*
X060314Y035662D01*
X060384Y035709D01*
X060430Y035778D01*
X060446Y035860D01*
X060430Y035942D01*
X060384Y036011D01*
X060365Y036024D01*
Y036653D01*
X060355Y036704D01*
X060347Y036715D01*
X060374Y036765D01*
X061058D01*
X061535Y036288D01*
Y036203D01*
X061517Y036191D01*
X061471Y036122D01*
X061455Y036040D01*
X061471Y035958D01*
X061517Y035888D01*
X061587Y035842D01*
X061669Y035826D01*
X061751Y035842D01*
X061820Y035888D01*
X061867Y035958D01*
X061883Y036040D01*
X061867Y036122D01*
X061859Y036133D01*
X061898Y036165D01*
X062138Y035925D01*
X062181Y035896D01*
X062231Y035886D01*
X062408D01*
X062420Y035867D01*
X062490Y035821D01*
X062572Y035805D01*
X062654Y035821D01*
X062723Y035867D01*
X062770Y035937D01*
X062786Y036019D01*
X062770Y036101D01*
X062723Y036170D01*
X062654Y036217D01*
X062572Y036233D01*
X062490Y036217D01*
X062420Y036170D01*
X062408Y036151D01*
X062286D01*
X061226Y037211D01*
X061183Y037240D01*
X061133Y037250D01*
X058590D01*
X058577Y037269D01*
X058507Y037315D01*
X058426Y037331D01*
X058344Y037315D01*
X058274Y037269D01*
X058228Y037199D01*
X058217Y037147D01*
X058167Y037106D01*
X058140Y037111D01*
X058058Y037095D01*
X057988Y037049D01*
X057967Y037047D01*
X057920Y037094D01*
X057877Y037122D01*
X057826Y037133D01*
X057551D01*
X057500Y037122D01*
X057457Y037094D01*
X057402Y037038D01*
X057373Y036995D01*
X057363Y036944D01*
Y036436D01*
X057373Y036385D01*
X057402Y036342D01*
X060357Y033386D01*
X060400Y033358D01*
X060451Y033347D01*
X069700D01*
X069751Y033358D01*
X069794Y033386D01*
X069888Y033481D01*
X069917Y033524D01*
X069927Y033574D01*
Y035201D01*
X069977Y035227D01*
X070050Y035213D01*
X070131Y035229D01*
X070201Y035275D01*
X070247Y035345D01*
X070264Y035427D01*
X070247Y035509D01*
X070219Y035550D01*
X070205Y035589D01*
X070220Y035626D01*
X070248Y035668D01*
X070264Y035750D01*
X070248Y035832D01*
X070201Y035901D01*
X070132Y035948D01*
X070050Y035964D01*
X069968Y035948D01*
X069899Y035901D01*
X069879Y035873D01*
X069810D01*
X069759Y035862D01*
X069716Y035834D01*
X069556Y035674D01*
X069528Y035631D01*
X069517Y035580D01*
Y033753D01*
X066822D01*
X066809Y033803D01*
X066922Y033863D01*
X067048Y033967D01*
X067152Y034093D01*
X067229Y034237D01*
X067276Y034393D01*
X067292Y034555D01*
X067276Y034717D01*
X067229Y034874D01*
X067152Y035017D01*
X067048Y035143D01*
X066922Y035247D01*
X066778Y035324D01*
X066622Y035371D01*
X066460Y035387D01*
X066339Y035375D01*
X065734Y035980D01*
Y054641D01*
X065717Y054769D01*
X065668Y054888D01*
X065589Y054991D01*
X065121Y055459D01*
X065018Y055538D01*
X064899Y055587D01*
X064771Y055604D01*
X059603D01*
X059424Y055783D01*
Y064317D01*
X059407Y064445D01*
X059358Y064564D01*
X059279Y064666D01*
X058811Y065135D01*
X058708Y065213D01*
X058589Y065263D01*
X058461Y065280D01*
X058125D01*
X058097Y065332D01*
X057993Y065458D01*
X057897Y065537D01*
X057915Y065587D01*
X060042D01*
X061249Y064381D01*
Y063788D01*
X061240Y063783D01*
X061194Y063713D01*
X061178Y063631D01*
X061194Y063549D01*
X061240Y063480D01*
X061310Y063433D01*
X061392Y063417D01*
X061474Y063433D01*
X061543Y063480D01*
X061590Y063549D01*
X061606Y063631D01*
X061590Y063713D01*
X061543Y063783D01*
X061534Y063788D01*
Y064256D01*
X061581Y064275D01*
X061751Y064104D01*
Y063766D01*
X061743Y063760D01*
X061696Y063691D01*
X061680Y063609D01*
X061696Y063527D01*
X061743Y063457D01*
X061812Y063411D01*
X061894Y063395D01*
X061976Y063411D01*
X062046Y063457D01*
X062092Y063527D01*
X062108Y063609D01*
X062092Y063691D01*
X062046Y063760D01*
X062037Y063766D01*
Y064164D01*
X062026Y064218D01*
X061995Y064265D01*
X061995Y064265D01*
X060199Y066061D01*
X060152Y066092D01*
X060098Y066103D01*
D02*
G37*
G36*
X042913Y065605D02*
X042780Y065592D01*
X042652Y065553D01*
X042533Y065490D01*
X042430Y065405D01*
X042345Y065301D01*
X042282Y065183D01*
X042243Y065055D01*
X042230Y064921D01*
X042243Y064788D01*
X042282Y064660D01*
X042345Y064541D01*
X042430Y064438D01*
X042533Y064353D01*
X042652Y064290D01*
X042780Y064251D01*
X042913Y064237D01*
X043047Y064251D01*
X043175Y064290D01*
X043293Y064353D01*
X043397Y064438D01*
X043482Y064541D01*
X043545Y064660D01*
X043584Y064788D01*
X043597Y064921D01*
X043584Y065055D01*
X043545Y065183D01*
X043482Y065301D01*
X043397Y065405D01*
X043293Y065490D01*
X043175Y065553D01*
X043047Y065592D01*
X042913Y065605D01*
D02*
G37*
G36*
X087951Y065341D02*
X087837Y065330D01*
X087727Y065296D01*
X087626Y065242D01*
X087537Y065170D01*
X087465Y065081D01*
X087411Y064980D01*
X087377Y064870D01*
X087366Y064756D01*
X087377Y064642D01*
X087411Y064532D01*
X087465Y064431D01*
X087537Y064342D01*
X087626Y064270D01*
X087727Y064215D01*
X087837Y064182D01*
X087951Y064171D01*
X088065Y064182D01*
X088175Y064215D01*
X088276Y064270D01*
X088365Y064342D01*
X088437Y064431D01*
X088492Y064532D01*
X088525Y064642D01*
X088536Y064756D01*
X088525Y064870D01*
X088492Y064980D01*
X088437Y065081D01*
X088365Y065170D01*
X088276Y065242D01*
X088175Y065296D01*
X088065Y065330D01*
X087951Y065341D01*
D02*
G37*
G36*
X016102Y065341D02*
X015988Y065330D01*
X015879Y065296D01*
X015777Y065242D01*
X015689Y065170D01*
X015616Y065081D01*
X015562Y064980D01*
X015529Y064870D01*
X015517Y064756D01*
X015529Y064642D01*
X015562Y064532D01*
X015616Y064431D01*
X015689Y064342D01*
X015777Y064270D01*
X015879Y064215D01*
X015988Y064182D01*
X016102Y064171D01*
X016216Y064182D01*
X016326Y064215D01*
X016427Y064270D01*
X016516Y064342D01*
X016589Y064431D01*
X016643Y064532D01*
X016676Y064642D01*
X016687Y064756D01*
X016676Y064870D01*
X016643Y064980D01*
X016589Y065081D01*
X016516Y065170D01*
X016427Y065242D01*
X016326Y065296D01*
X016216Y065330D01*
X016102Y065341D01*
D02*
G37*
G36*
X011480Y065074D02*
X011354Y065058D01*
X011236Y065009D01*
X011135Y064932D01*
X011058Y064831D01*
X011009Y064713D01*
X010993Y064587D01*
X011009Y064460D01*
X011058Y064343D01*
X011135Y064242D01*
X011236Y064164D01*
X011354Y064115D01*
X011480Y064099D01*
X011607Y064115D01*
X011724Y064164D01*
X011825Y064242D01*
X011903Y064343D01*
X011952Y064460D01*
X011968Y064587D01*
X011952Y064713D01*
X011903Y064831D01*
X011825Y064932D01*
X011724Y065009D01*
X011607Y065058D01*
X011480Y065074D01*
D02*
G37*
G36*
X082602Y065702D02*
X082439Y065686D01*
X082283Y065639D01*
X082139Y065562D01*
X082013Y065458D01*
X081910Y065332D01*
X081833Y065188D01*
X081786Y065032D01*
X081770Y064870D01*
X081786Y064708D01*
X081833Y064552D01*
X081910Y064408D01*
X082013Y064282D01*
X082139Y064178D01*
X082283Y064101D01*
X082439Y064054D01*
X082602Y064038D01*
X082764Y064054D01*
X082920Y064101D01*
X083064Y064178D01*
X083190Y064282D01*
X083294Y064408D01*
X083371Y064552D01*
X083418Y064708D01*
X083434Y064870D01*
X083418Y065032D01*
X083371Y065188D01*
X083294Y065332D01*
X083190Y065458D01*
X083064Y065562D01*
X082920Y065639D01*
X082764Y065686D01*
X082602Y065702D01*
D02*
G37*
G36*
X014630Y064878D02*
X014504Y064861D01*
X014386Y064812D01*
X014285Y064735D01*
X014207Y064634D01*
X014159Y064516D01*
X014142Y064390D01*
X014159Y064263D01*
X014207Y064146D01*
X014285Y064045D01*
X014386Y063967D01*
X014504Y063919D01*
X014630Y063902D01*
X014756Y063919D01*
X014874Y063967D01*
X014975Y064045D01*
X015053Y064146D01*
X015101Y064263D01*
X015118Y064390D01*
X015101Y064516D01*
X015053Y064634D01*
X014975Y064735D01*
X014874Y064812D01*
X014756Y064861D01*
X014630Y064878D01*
D02*
G37*
G36*
X022239Y064787D02*
X022157Y064770D01*
X022088Y064724D01*
X022041Y064654D01*
X022025Y064572D01*
X022041Y064490D01*
X022088Y064421D01*
X022097Y064415D01*
Y063961D01*
X022102Y063931D01*
X022101Y063928D01*
X022061Y063892D01*
X022000Y063904D01*
X021918Y063888D01*
X021849Y063841D01*
X021843Y063833D01*
X021670D01*
X021670Y063833D01*
X021615Y063822D01*
X021569Y063791D01*
X021569Y063791D01*
X021289Y063511D01*
X021258Y063465D01*
X021247Y063410D01*
X021247Y063410D01*
Y058533D01*
X020865D01*
Y058755D01*
X020235D01*
Y058025D01*
X020865D01*
Y058247D01*
X021331D01*
X021331Y058247D01*
X021386Y058258D01*
X021432Y058289D01*
X021491Y058348D01*
X021491Y058348D01*
X021522Y058394D01*
X021533Y058449D01*
Y063351D01*
X021729Y063547D01*
X021843D01*
X021849Y063539D01*
X021918Y063492D01*
X022000Y063476D01*
X022082Y063492D01*
X022151Y063539D01*
X022198Y063608D01*
X022214Y063690D01*
X022198Y063772D01*
X022195Y063776D01*
X022225Y063821D01*
X022239Y063818D01*
X023028D01*
Y061855D01*
X022642Y061469D01*
X022611Y061422D01*
X022600Y061368D01*
X022600Y061368D01*
Y053523D01*
X022590Y053473D01*
X022590Y053473D01*
Y053414D01*
X022589D01*
X022604Y053256D01*
X022650Y053105D01*
X022725Y052965D01*
X022825Y052842D01*
X022948Y052742D01*
X023088Y052667D01*
X023143Y052650D01*
X023149Y052646D01*
X023153Y052645D01*
X023164Y052642D01*
X023168Y052641D01*
X023510Y052480D01*
X023834Y052285D01*
X024138Y052059D01*
X024419Y051805D01*
X024673Y051525D01*
X024860Y051272D01*
X024887Y051230D01*
X024887Y051230D01*
X024979Y051098D01*
X025249Y050643D01*
X025486Y050170D01*
X025689Y049681D01*
X025786Y049388D01*
X025794Y049363D01*
X025794Y049363D01*
X025798Y049344D01*
X025808Y049323D01*
X025813Y049312D01*
X025814Y049311D01*
X025821Y049296D01*
X025827Y049282D01*
X025930Y049113D01*
X026058Y048963D01*
X026209Y048834D01*
X026377Y048731D01*
X026560Y048655D01*
X026753Y048609D01*
X026950Y048594D01*
X027016Y048599D01*
X027024Y048597D01*
X031435D01*
Y048375D01*
X032065D01*
Y049105D01*
X031435D01*
Y048883D01*
X027072D01*
X027063Y048883D01*
X027014Y048884D01*
X026950Y048878D01*
X026759Y048897D01*
X026576Y048952D01*
X026407Y049042D01*
X026259Y049164D01*
X026138Y049312D01*
X026069Y049441D01*
X025956Y049781D01*
X025746Y050288D01*
X025500Y050780D01*
X025219Y051252D01*
X025126Y051387D01*
X025127Y051392D01*
X025127Y051392D01*
X024894Y051706D01*
X024621Y052007D01*
X024319Y052280D01*
X023993Y052522D01*
X023644Y052731D01*
X023308Y052890D01*
X023277Y052905D01*
X023262Y052910D01*
X023215Y052927D01*
X023135Y052960D01*
X023027Y053044D01*
X022943Y053152D01*
X022891Y053278D01*
X022879Y053366D01*
X022875Y053414D01*
D01*
X022881Y053461D01*
X022885Y053483D01*
X022885Y053483D01*
Y061309D01*
X023272Y061695D01*
X023272Y061695D01*
X023303Y061741D01*
X023313Y061796D01*
Y063882D01*
X023313Y063882D01*
X023303Y063937D01*
X023272Y063983D01*
X023193Y064062D01*
X023147Y064093D01*
X023092Y064103D01*
X023092Y064103D01*
X022382D01*
Y064415D01*
X022391Y064421D01*
X022437Y064490D01*
X022453Y064572D01*
X022437Y064654D01*
X022391Y064724D01*
X022321Y064770D01*
X022239Y064787D01*
D02*
G37*
G36*
X024101Y064495D02*
X023995Y064481D01*
X023897Y064440D01*
X023812Y064375D01*
X023747Y064291D01*
X023706Y064192D01*
X023692Y064087D01*
X023706Y063981D01*
X023747Y063882D01*
X023812Y063798D01*
X023897Y063733D01*
X023995Y063692D01*
X024101Y063678D01*
X024207Y063692D01*
X024305Y063733D01*
X024390Y063798D01*
X024455Y063882D01*
X024495Y063981D01*
X024509Y064087D01*
X024495Y064192D01*
X024455Y064291D01*
X024390Y064375D01*
X024305Y064440D01*
X024207Y064481D01*
X024101Y064495D01*
D02*
G37*
G36*
X017861D02*
X017755Y064481D01*
X017656Y064440D01*
X017572Y064375D01*
X017507Y064291D01*
X017466Y064192D01*
X017452Y064087D01*
X017466Y063981D01*
X017507Y063882D01*
X017572Y063798D01*
X017656Y063733D01*
X017755Y063692D01*
X017861Y063678D01*
X017966Y063692D01*
X018065Y063733D01*
X018149Y063798D01*
X018214Y063882D01*
X018255Y063981D01*
X018269Y064087D01*
X018255Y064192D01*
X018214Y064291D01*
X018149Y064375D01*
X018065Y064440D01*
X017966Y064481D01*
X017861Y064495D01*
D02*
G37*
G36*
X013606Y063617D02*
X013501Y063603D01*
X013402Y063562D01*
X013318Y063497D01*
X013253Y063413D01*
X013212Y063314D01*
X013198Y063209D01*
X013212Y063103D01*
X013253Y063004D01*
X013318Y062920D01*
X013402Y062855D01*
X013501Y062814D01*
X013606Y062800D01*
X013712Y062814D01*
X013811Y062855D01*
X013895Y062920D01*
X013960Y063004D01*
X014001Y063103D01*
X014015Y063209D01*
X014001Y063314D01*
X013960Y063413D01*
X013895Y063497D01*
X013811Y063562D01*
X013712Y063603D01*
X013606Y063617D01*
D02*
G37*
G36*
X010787D02*
X010682Y063603D01*
X010583Y063562D01*
X010499Y063497D01*
X010434Y063413D01*
X010393Y063314D01*
X010379Y063209D01*
X010393Y063103D01*
X010434Y063004D01*
X010499Y062920D01*
X010583Y062855D01*
X010682Y062814D01*
X010787Y062800D01*
X010893Y062814D01*
X010992Y062855D01*
X011076Y062920D01*
X011141Y063004D01*
X011182Y063103D01*
X011196Y063209D01*
X011182Y063314D01*
X011141Y063413D01*
X011076Y063497D01*
X010992Y063562D01*
X010893Y063603D01*
X010787Y063617D01*
D02*
G37*
G36*
X022733Y062739D02*
X022651Y062723D01*
X022581Y062676D01*
X022575Y062668D01*
X021985D01*
X021985Y062668D01*
X021930Y062657D01*
X021884Y062626D01*
X021884Y062626D01*
X021655Y062397D01*
X021624Y062351D01*
X021613Y062296D01*
X021613Y062296D01*
Y053373D01*
X016802D01*
X016748Y053362D01*
X016702Y053332D01*
X016702Y053332D01*
X016643Y053273D01*
X016612Y053227D01*
X016601Y053172D01*
X016601Y053172D01*
Y050658D01*
X016002Y050059D01*
X015479D01*
X015424Y050048D01*
X015378Y050017D01*
X015378Y050017D01*
X015319Y049959D01*
X015288Y049912D01*
X015277Y049858D01*
X015277Y049858D01*
Y042569D01*
X015277Y042569D01*
X015288Y042514D01*
X015319Y042468D01*
X015378Y042409D01*
X015378Y042409D01*
X015424Y042378D01*
X015479Y042367D01*
X018381D01*
X018487Y042261D01*
Y014080D01*
X018487Y014080D01*
X018498Y014025D01*
X018529Y013979D01*
X018724Y013784D01*
X018724Y013784D01*
X018771Y013753D01*
X018825Y013742D01*
X018825Y013742D01*
X043184D01*
X043189Y013718D01*
X043235Y013649D01*
X043305Y013602D01*
X043387Y013586D01*
X043469Y013602D01*
X043538Y013649D01*
X043585Y013718D01*
X043601Y013800D01*
X043590Y013852D01*
X043627Y013902D01*
X043753D01*
X043759Y013893D01*
X043829Y013847D01*
X043911Y013831D01*
X043993Y013847D01*
X044062Y013893D01*
X044108Y013963D01*
X044125Y014045D01*
X044108Y014127D01*
X044062Y014196D01*
X043993Y014243D01*
X043911Y014259D01*
X043829Y014243D01*
X043759Y014196D01*
X043753Y014188D01*
X030308D01*
X030284Y014238D01*
X030318Y014288D01*
X030334Y014370D01*
X030318Y014452D01*
X030314Y014458D01*
Y015223D01*
X030317Y015226D01*
X031530D01*
X031604Y015241D01*
X031667Y015283D01*
X032544Y016160D01*
X044506D01*
Y015575D01*
X044842D01*
X045178D01*
Y016160D01*
X047482D01*
Y015575D01*
X047818D01*
X048154D01*
Y016160D01*
X052373D01*
X052447Y016175D01*
X052510Y016217D01*
X052912Y016619D01*
X052954Y016682D01*
X052969Y016756D01*
Y031200D01*
X052972Y031204D01*
X067891D01*
X067965Y031219D01*
X068028Y031261D01*
X069124Y032357D01*
X069259D01*
X069265Y032353D01*
X069347Y032336D01*
X069429Y032353D01*
X069499Y032399D01*
X069545Y032469D01*
X069562Y032550D01*
X069548Y032616D01*
X069578Y032666D01*
X070226D01*
X070232Y032662D01*
X070314Y032646D01*
X070396Y032662D01*
X070466Y032708D01*
X070512Y032778D01*
X070528Y032860D01*
X070512Y032942D01*
X070466Y033011D01*
X070396Y033058D01*
X070314Y033074D01*
X070232Y033058D01*
X070226Y033054D01*
X068892D01*
X068818Y033039D01*
X068755Y032997D01*
X067677Y031919D01*
X057806D01*
X057789Y031966D01*
X057818Y031991D01*
X057891Y032079D01*
X057945Y032180D01*
X057978Y032290D01*
X057990Y032404D01*
X057978Y032518D01*
X057945Y032628D01*
X057891Y032729D01*
X057818Y032818D01*
X057730Y032891D01*
X057629Y032945D01*
X057519Y032978D01*
X057405Y032989D01*
X057291Y032978D01*
X057181Y032945D01*
X057080Y032891D01*
X056991Y032818D01*
X056918Y032729D01*
X056864Y032628D01*
X056831Y032518D01*
X056820Y032404D01*
X056831Y032290D01*
X056864Y032180D01*
X056918Y032079D01*
X056991Y031991D01*
X057021Y031966D01*
X057004Y031919D01*
X053933D01*
X053929Y031923D01*
Y041283D01*
X053915Y041357D01*
X053873Y041420D01*
X053755Y041537D01*
X053693Y041579D01*
X053619Y041594D01*
X048109D01*
X048034Y041669D01*
Y048080D01*
Y049746D01*
X048190D01*
X048264Y049761D01*
X048327Y049803D01*
X048597Y050073D01*
X048639Y050136D01*
X048654Y050210D01*
Y053692D01*
X048658Y053698D01*
X048674Y053780D01*
X048658Y053862D01*
X048611Y053931D01*
X048542Y053978D01*
X048460Y053994D01*
X048378Y053978D01*
X048309Y053931D01*
X048262Y053862D01*
X048246Y053780D01*
X048262Y053698D01*
X048266Y053692D01*
Y050290D01*
X048110Y050134D01*
X033570D01*
X033484Y050220D01*
Y054192D01*
X033492Y054204D01*
X033508Y054286D01*
X033492Y054368D01*
X033445Y054437D01*
X033376Y054484D01*
X033294Y054500D01*
X033212Y054484D01*
X033143Y054437D01*
X033096Y054368D01*
X033080Y054286D01*
X033096Y054204D01*
X033096Y054204D01*
Y050140D01*
X033111Y050066D01*
X033153Y050003D01*
X033353Y049803D01*
X033416Y049761D01*
X033490Y049746D01*
X047646D01*
Y048266D01*
X047168D01*
X047162Y048270D01*
X047080Y048286D01*
X046998Y048270D01*
X046929Y048224D01*
X046882Y048154D01*
X046866Y048072D01*
X046882Y047990D01*
X046929Y047921D01*
X046998Y047874D01*
X047080Y047858D01*
X047162Y047874D01*
X047168Y047878D01*
X047646D01*
Y041588D01*
X047661Y041514D01*
X047703Y041451D01*
X047891Y041263D01*
X047954Y041221D01*
X048028Y041206D01*
X051586D01*
Y041008D01*
X051582Y041002D01*
X051566Y040920D01*
X051582Y040838D01*
X051629Y040769D01*
X051698Y040722D01*
X051780Y040706D01*
X051862Y040722D01*
X051931Y040769D01*
X051978Y040838D01*
X051994Y040920D01*
X051978Y041002D01*
X051974Y041008D01*
Y041206D01*
X053538D01*
X053542Y041203D01*
Y031843D01*
X053557Y031769D01*
X053599Y031706D01*
X053667Y031638D01*
X053648Y031591D01*
X052892D01*
X052818Y031577D01*
X052755Y031535D01*
X052732Y031512D01*
X052686Y031531D01*
Y035871D01*
X052742Y035882D01*
X052811Y035929D01*
X052858Y035998D01*
X052874Y036080D01*
X052858Y036162D01*
X052811Y036231D01*
X052742Y036278D01*
X052688Y036289D01*
X052664Y036342D01*
X052668Y036348D01*
X052684Y036430D01*
X052668Y036512D01*
X052621Y036581D01*
X052552Y036628D01*
X052485Y036641D01*
X052497Y036700D01*
X052481Y036782D01*
X052435Y036851D01*
X052365Y036898D01*
X052309Y036909D01*
X052280Y036929D01*
X052273Y036963D01*
X052284Y037020D01*
X052268Y037102D01*
X052221Y037171D01*
X052152Y037218D01*
X052070Y037234D01*
X051988Y037218D01*
X051919Y037171D01*
X051881Y037115D01*
X051873Y037113D01*
X051823Y037146D01*
Y040370D01*
X051823Y040370D01*
X051812Y040425D01*
X051781Y040471D01*
X051781Y040471D01*
X051501Y040751D01*
X051455Y040782D01*
X051400Y040793D01*
X051400Y040793D01*
X046849D01*
X046629Y041013D01*
Y044374D01*
X046638Y044379D01*
X046684Y044449D01*
X046701Y044531D01*
X046684Y044613D01*
X046638Y044682D01*
X046568Y044729D01*
X046486Y044745D01*
X046404Y044729D01*
X046335Y044682D01*
X046289Y044613D01*
X046272Y044531D01*
X046289Y044449D01*
X046335Y044379D01*
X046344Y044374D01*
Y040954D01*
X046344Y040954D01*
X046355Y040899D01*
X046385Y040853D01*
X046689Y040549D01*
X046689Y040549D01*
X046735Y040518D01*
X046790Y040507D01*
X051341D01*
X051537Y040311D01*
Y037043D01*
X051537Y037043D01*
X051548Y036988D01*
X051579Y036942D01*
X051750Y036771D01*
Y027427D01*
X051750Y027427D01*
X051750Y027427D01*
Y017509D01*
X051694Y017453D01*
X033709D01*
X033663Y017499D01*
Y017553D01*
X033671Y017559D01*
X033718Y017628D01*
X033734Y017710D01*
X033718Y017792D01*
X033671Y017861D01*
X033602Y017908D01*
X033520Y017924D01*
X033438Y017908D01*
X033369Y017861D01*
X033322Y017792D01*
X033306Y017710D01*
X033322Y017628D01*
X033369Y017559D01*
X033377Y017553D01*
Y017440D01*
X033377Y017440D01*
X033388Y017385D01*
X033419Y017339D01*
X033427Y017331D01*
X033408Y017285D01*
X031804D01*
X031783Y017307D01*
Y019013D01*
X031791Y019019D01*
X031838Y019088D01*
X031854Y019170D01*
X031838Y019252D01*
X031791Y019321D01*
X031722Y019368D01*
X031640Y019384D01*
X031558Y019368D01*
X031489Y019321D01*
X031442Y019252D01*
X031426Y019170D01*
X031442Y019088D01*
X031489Y019019D01*
X031497Y019013D01*
Y017247D01*
X031497Y017247D01*
X031508Y017193D01*
X031539Y017147D01*
X031644Y017042D01*
X031643Y017030D01*
X031628Y016992D01*
X031558Y016978D01*
X031489Y016931D01*
X031442Y016862D01*
X031426Y016780D01*
X031442Y016698D01*
X031489Y016629D01*
X031558Y016582D01*
X031640Y016566D01*
X031722Y016582D01*
X031791Y016629D01*
X031802Y016644D01*
X031865D01*
X031885Y016594D01*
X031234Y015943D01*
X022014D01*
X021983Y015974D01*
Y028330D01*
X021983Y028330D01*
X021972Y028385D01*
X021941Y028431D01*
X021941Y028431D01*
X021801Y028571D01*
X021755Y028602D01*
X021700Y028613D01*
X021700Y028613D01*
X021157D01*
X021151Y028621D01*
X021082Y028668D01*
X021000Y028684D01*
X020918Y028668D01*
X020849Y028621D01*
X020802Y028552D01*
X020786Y028470D01*
X020802Y028388D01*
X020849Y028319D01*
X020918Y028272D01*
X021000Y028256D01*
X021082Y028272D01*
X021151Y028319D01*
X021157Y028327D01*
X021641D01*
X021697Y028271D01*
Y026810D01*
X021651Y026791D01*
X021631Y026811D01*
X021585Y026842D01*
X021530Y026853D01*
X021530Y026853D01*
X021147D01*
X021141Y026861D01*
X021072Y026908D01*
X020990Y026924D01*
X020908Y026908D01*
X020839Y026861D01*
X020792Y026792D01*
X020776Y026710D01*
X020792Y026628D01*
X020839Y026559D01*
X020908Y026512D01*
X020990Y026496D01*
X021072Y026512D01*
X021141Y026559D01*
X021147Y026567D01*
X021471D01*
X021507Y026531D01*
Y015878D01*
X021507Y015878D01*
X021518Y015824D01*
X021549Y015778D01*
X021788Y015539D01*
X021788Y015539D01*
X021834Y015508D01*
X021888Y015497D01*
X029975D01*
X029994Y015451D01*
X029983Y015440D01*
X029941Y015377D01*
X029926Y015303D01*
Y014458D01*
X029922Y014452D01*
X029906Y014370D01*
X029922Y014288D01*
X029956Y014238D01*
X029932Y014188D01*
X020640D01*
Y036707D01*
X027070D01*
X027070Y036707D01*
X027125Y036718D01*
X027171Y036749D01*
X027331Y036909D01*
X027331Y036909D01*
X027362Y036955D01*
X027373Y037010D01*
X027373Y037010D01*
Y038171D01*
X027459Y038257D01*
X033779D01*
X033779Y038257D01*
X033833Y038268D01*
X033880Y038299D01*
X034031Y038450D01*
X034031Y038450D01*
X034062Y038497D01*
X034073Y038551D01*
Y039349D01*
X034081Y039355D01*
X034128Y039424D01*
X034144Y039506D01*
X034128Y039588D01*
X034081Y039658D01*
X034012Y039704D01*
X033930Y039720D01*
X033848Y039704D01*
X033779Y039658D01*
X033732Y039588D01*
X033716Y039506D01*
X033732Y039424D01*
X033779Y039355D01*
X033787Y039349D01*
Y038611D01*
X033719Y038543D01*
X027400D01*
X027345Y038532D01*
X027299Y038501D01*
X027299Y038501D01*
X027129Y038331D01*
X027098Y038285D01*
X027087Y038230D01*
X027087Y038230D01*
Y037069D01*
X027011Y036993D01*
X020556D01*
X020501Y036982D01*
X020455Y036951D01*
X020455Y036951D01*
X020396Y036892D01*
X020365Y036846D01*
X020354Y036791D01*
X020354Y036791D01*
Y014103D01*
X020354Y014103D01*
X020359Y014078D01*
X020324Y014028D01*
X018884D01*
X018773Y014139D01*
Y042320D01*
X018773Y042320D01*
X018762Y042375D01*
X018731Y042421D01*
X018731Y042421D01*
X018541Y042611D01*
X018495Y042642D01*
X018440Y042653D01*
X018440Y042653D01*
X015563D01*
Y049774D01*
X016061D01*
X016061Y049774D01*
X016116Y049784D01*
X016162Y049815D01*
X016845Y050498D01*
X016845Y050498D01*
X016876Y050544D01*
X016887Y050599D01*
Y053088D01*
X021697D01*
X021697Y053088D01*
X021752Y053099D01*
X021798Y053130D01*
X021857Y053188D01*
X021857Y053188D01*
X021888Y053235D01*
X021899Y053289D01*
Y062237D01*
X022044Y062382D01*
X022575D01*
X022581Y062374D01*
X022651Y062327D01*
X022733Y062311D01*
X022815Y062327D01*
X022884Y062374D01*
X022930Y062443D01*
X022947Y062525D01*
X022930Y062607D01*
X022884Y062676D01*
X022815Y062723D01*
X022733Y062739D01*
D02*
G37*
G36*
X019734Y064774D02*
X019652Y064758D01*
X019583Y064711D01*
X019536Y064642D01*
X019520Y064560D01*
X019536Y064478D01*
X019583Y064409D01*
X019652Y064362D01*
X019734Y064346D01*
X019744Y064348D01*
X019902Y064190D01*
Y062126D01*
X019400D01*
X019389Y062138D01*
X019367Y062176D01*
X019376Y062218D01*
Y062462D01*
X019384Y062467D01*
X019431Y062537D01*
X019447Y062619D01*
X019431Y062701D01*
X019384Y062770D01*
X019315Y062817D01*
X019233Y062833D01*
X019151Y062817D01*
X019082Y062770D01*
X019035Y062701D01*
X019019Y062619D01*
X019035Y062537D01*
X019082Y062467D01*
X019090Y062462D01*
Y062302D01*
X018926D01*
X018920Y062305D01*
X018888Y062352D01*
X018894Y062382D01*
Y062463D01*
X018903Y062469D01*
X018949Y062539D01*
X018966Y062620D01*
X018949Y062702D01*
X018903Y062772D01*
X018834Y062818D01*
X018752Y062835D01*
X018670Y062818D01*
X018600Y062772D01*
X018564Y062718D01*
X018514Y062733D01*
Y063621D01*
X018855Y063962D01*
X018886Y064009D01*
X018897Y064063D01*
X018897Y064063D01*
Y064393D01*
X018906Y064398D01*
X018952Y064468D01*
X018969Y064550D01*
X018952Y064632D01*
X018906Y064701D01*
X018836Y064748D01*
X018754Y064764D01*
X018673Y064748D01*
X018603Y064701D01*
X018557Y064632D01*
X018540Y064550D01*
X018557Y064468D01*
X018603Y064398D01*
X018612Y064393D01*
Y064123D01*
X018270Y063781D01*
X018239Y063735D01*
X018228Y063680D01*
X018228Y063680D01*
Y062670D01*
X018191Y062632D01*
X017108D01*
X017108Y062632D01*
X017053Y062622D01*
X017007Y062591D01*
X017007Y062591D01*
X016329Y061913D01*
X016298Y061867D01*
X016287Y061812D01*
X016287Y061812D01*
Y061223D01*
X010670D01*
X010670Y061223D01*
X010615Y061212D01*
X010569Y061181D01*
X010569Y061181D01*
X010271Y060883D01*
X010240Y060837D01*
X010229Y060782D01*
X010229Y060782D01*
Y056009D01*
X010229Y056009D01*
X010240Y055954D01*
X010271Y055908D01*
X010364Y055815D01*
X010364Y055815D01*
X010410Y055784D01*
X010465Y055773D01*
X011079D01*
X011117Y055681D01*
X011195Y055580D01*
X011296Y055503D01*
X011414Y055454D01*
X011540Y055437D01*
X011666Y055454D01*
X011784Y055503D01*
X011885Y055580D01*
X011963Y055681D01*
X012011Y055799D01*
X012028Y055925D01*
X012011Y056051D01*
X011963Y056169D01*
X011885Y056270D01*
X011784Y056348D01*
X011666Y056396D01*
X011540Y056413D01*
X011414Y056396D01*
X011296Y056348D01*
X011195Y056270D01*
X011117Y056169D01*
X011072Y056059D01*
X010524D01*
X010515Y056068D01*
Y058528D01*
X010560Y058550D01*
X010593Y058524D01*
X010691Y058483D01*
X010797Y058470D01*
X010903Y058483D01*
X011001Y058524D01*
X011086Y058589D01*
X011151Y058674D01*
X011192Y058772D01*
X011206Y058878D01*
X011192Y058984D01*
X011151Y059082D01*
X011086Y059167D01*
X011001Y059232D01*
X010903Y059272D01*
X010797Y059286D01*
X010691Y059272D01*
X010593Y059232D01*
X010560Y059206D01*
X010515Y059228D01*
Y060723D01*
X010729Y060937D01*
X011345D01*
X011372Y060887D01*
X011358Y060867D01*
X011347Y060813D01*
X011347Y060813D01*
Y060720D01*
X011246Y060678D01*
X011145Y060601D01*
X011067Y060500D01*
X011019Y060382D01*
X011002Y060256D01*
X011019Y060130D01*
X011067Y060012D01*
X011145Y059911D01*
X011246Y059833D01*
X011364Y059785D01*
X011490Y059768D01*
X011616Y059785D01*
X011734Y059833D01*
X011835Y059911D01*
X011913Y060012D01*
X011961Y060130D01*
X011978Y060256D01*
X011961Y060382D01*
X011913Y060500D01*
X011835Y060601D01*
X011734Y060678D01*
X011744Y060728D01*
X016572D01*
X016572Y060728D01*
X016621Y060738D01*
X016640Y060732D01*
X016671Y060716D01*
Y057793D01*
X015115D01*
X015111Y057823D01*
X015062Y057941D01*
X014985Y058042D01*
X014884Y058119D01*
X014766Y058168D01*
X014640Y058185D01*
X014513Y058168D01*
X014396Y058119D01*
X014295Y058042D01*
X014217Y057941D01*
X014168Y057823D01*
X014152Y057697D01*
X014168Y057571D01*
X014217Y057453D01*
X014295Y057352D01*
X014396Y057274D01*
X014513Y057226D01*
X014640Y057209D01*
X014766Y057226D01*
X014884Y057274D01*
X014985Y057352D01*
X015062Y057453D01*
X015085Y057507D01*
X016571D01*
X016591Y057461D01*
X015919Y056790D01*
X015888Y056743D01*
X015877Y056689D01*
X015877Y056689D01*
Y052133D01*
X015233D01*
X015233Y052134D01*
X015184Y052252D01*
X015107Y052353D01*
X015006Y052430D01*
X014888Y052479D01*
X014762Y052496D01*
X014636Y052479D01*
X014518Y052430D01*
X014417Y052353D01*
X014339Y052252D01*
X014291Y052134D01*
X014274Y052008D01*
X014291Y051882D01*
X014339Y051764D01*
X014417Y051663D01*
X014518Y051585D01*
X014636Y051537D01*
X014762Y051520D01*
X014888Y051537D01*
X015006Y051585D01*
X015107Y051663D01*
X015184Y051764D01*
X015219Y051847D01*
X015961D01*
X015961Y051847D01*
X015997Y051854D01*
X016047Y051823D01*
Y051069D01*
X015749Y050771D01*
X014402D01*
X014370Y050812D01*
X014404Y050875D01*
X014438Y050987D01*
X014449Y051102D01*
X014438Y051218D01*
X014404Y051329D01*
X014349Y051432D01*
X014276Y051522D01*
X014186Y051595D01*
X014083Y051650D01*
X013972Y051684D01*
X013856Y051695D01*
X013741Y051684D01*
X013629Y051650D01*
X013527Y051595D01*
X013437Y051522D01*
X013363Y051432D01*
X013309Y051329D01*
X013275Y051218D01*
X013263Y051102D01*
X013275Y050987D01*
X013309Y050875D01*
X013363Y050773D01*
X013437Y050683D01*
X013527Y050609D01*
X013629Y050555D01*
X013741Y050521D01*
X013856Y050510D01*
X013972Y050521D01*
X014083Y050555D01*
X014155Y050593D01*
X014191Y050563D01*
X014193Y050514D01*
X014160Y050481D01*
X014129Y050435D01*
X014118Y050380D01*
X014118Y050380D01*
Y048933D01*
X014006Y048887D01*
X013905Y048810D01*
X013827Y048709D01*
X013779Y048591D01*
X013762Y048465D01*
X013779Y048338D01*
X013827Y048221D01*
X013905Y048120D01*
X014006Y048042D01*
X014124Y047993D01*
X014250Y047977D01*
X014376Y047993D01*
X014494Y048042D01*
X014595Y048120D01*
X014673Y048221D01*
X014721Y048338D01*
X014738Y048465D01*
X014721Y048591D01*
X014673Y048709D01*
X014595Y048810D01*
X014494Y048887D01*
X014403Y048925D01*
Y050296D01*
X015889D01*
X015889Y050296D01*
X015944Y050307D01*
X015990Y050338D01*
X016451Y050799D01*
X016451Y050799D01*
X016482Y050845D01*
X016493Y050900D01*
X016493Y050900D01*
Y056481D01*
X017395Y057383D01*
X017395Y057383D01*
X017426Y057429D01*
X017436Y057484D01*
X017436Y057484D01*
Y061460D01*
X020350D01*
X020350Y061460D01*
X020405Y061471D01*
X020451Y061502D01*
X020510Y061561D01*
X020510Y061561D01*
X020541Y061607D01*
X020551Y061661D01*
Y064160D01*
X020711Y064319D01*
X020722Y064317D01*
X020803Y064334D01*
X020873Y064380D01*
X020919Y064450D01*
X020936Y064532D01*
X020919Y064613D01*
X020873Y064683D01*
X020803Y064729D01*
X020722Y064746D01*
X020640Y064729D01*
X020570Y064683D01*
X020524Y064613D01*
X020509Y064537D01*
X020489Y064522D01*
X020444Y064550D01*
X020443Y064550D01*
X020444Y064556D01*
X020428Y064638D01*
X020382Y064707D01*
X020312Y064753D01*
X020230Y064770D01*
X020148Y064753D01*
X020079Y064707D01*
X020032Y064638D01*
X020020Y064575D01*
X020003Y064561D01*
X019977Y064552D01*
X019968Y064551D01*
X019947Y064567D01*
X019932Y064642D01*
X019885Y064711D01*
X019816Y064758D01*
X019734Y064774D01*
D02*
G37*
G36*
X066762Y062471D02*
X066656Y062457D01*
X066558Y062416D01*
X066473Y062351D01*
X066408Y062267D01*
X066367Y062168D01*
X066353Y062063D01*
X066367Y061957D01*
X066408Y061858D01*
X066473Y061774D01*
X066558Y061709D01*
X066656Y061668D01*
X066762Y061654D01*
X066868Y061668D01*
X066966Y061709D01*
X067051Y061774D01*
X067116Y061858D01*
X067156Y061957D01*
X067170Y062063D01*
X067156Y062168D01*
X067116Y062267D01*
X067051Y062351D01*
X066966Y062416D01*
X066868Y062457D01*
X066762Y062471D01*
D02*
G37*
G36*
X014630Y062515D02*
X014504Y062499D01*
X014386Y062450D01*
X014285Y062373D01*
X014207Y062271D01*
X014159Y062154D01*
X014142Y062028D01*
X014159Y061901D01*
X014207Y061784D01*
X014285Y061683D01*
X014386Y061605D01*
X014504Y061556D01*
X014630Y061540D01*
X014756Y061556D01*
X014874Y061605D01*
X014975Y061683D01*
X015053Y061784D01*
X015101Y061901D01*
X015118Y062028D01*
X015101Y062154D01*
X015053Y062271D01*
X014975Y062373D01*
X014874Y062450D01*
X014756Y062499D01*
X014630Y062515D01*
D02*
G37*
G36*
X011480Y062319D02*
X011354Y062302D01*
X011236Y062253D01*
X011135Y062176D01*
X011058Y062075D01*
X011009Y061957D01*
X010993Y061831D01*
X011009Y061704D01*
X011058Y061587D01*
X011135Y061486D01*
X011236Y061408D01*
X011354Y061359D01*
X011480Y061343D01*
X011607Y061359D01*
X011724Y061408D01*
X011825Y061486D01*
X011903Y061587D01*
X011952Y061704D01*
X011968Y061831D01*
X011952Y061957D01*
X011903Y062075D01*
X011825Y062176D01*
X011724Y062253D01*
X011607Y062302D01*
X011480Y062319D01*
D02*
G37*
G36*
X012645Y065890D02*
X012564Y065873D01*
X012494Y065827D01*
X012448Y065758D01*
X012431Y065676D01*
X012448Y065594D01*
X012494Y065524D01*
X012503Y065518D01*
Y061669D01*
X012494Y061663D01*
X012448Y061594D01*
X012431Y061512D01*
X012448Y061430D01*
X012494Y061361D01*
X012564Y061314D01*
X012645Y061298D01*
X012727Y061314D01*
X012797Y061361D01*
X012843Y061430D01*
X012860Y061512D01*
X012843Y061594D01*
X012797Y061663D01*
X012788Y061669D01*
Y065518D01*
X012797Y065524D01*
X012843Y065594D01*
X012860Y065676D01*
X012843Y065758D01*
X012797Y065827D01*
X012727Y065873D01*
X012645Y065890D01*
D02*
G37*
G36*
X019250Y061260D02*
X018370D01*
Y060580D01*
X019250D01*
Y060726D01*
X020362D01*
X020376Y060712D01*
Y060277D01*
X020283D01*
Y059703D01*
X020283D01*
X020301Y059653D01*
X020288Y059633D01*
X019250D01*
Y059810D01*
X018370D01*
Y059130D01*
X018647D01*
Y058610D01*
X018520D01*
Y057930D01*
X019060D01*
Y058610D01*
X018933D01*
Y059130D01*
X019250D01*
Y059347D01*
X020319D01*
X020319Y059345D01*
X020365Y059285D01*
X020425Y059239D01*
X020495Y059211D01*
X020570Y059201D01*
X020645Y059211D01*
X020715Y059239D01*
X020775Y059285D01*
X020821Y059345D01*
X020849Y059415D01*
X020859Y059490D01*
X020849Y059565D01*
X020821Y059635D01*
X020806Y059653D01*
X020831Y059703D01*
X020857D01*
Y060277D01*
X020764D01*
Y060793D01*
X020749Y060867D01*
X020707Y060930D01*
X020580Y061057D01*
X020517Y061099D01*
X020443Y061114D01*
X019250D01*
Y061260D01*
D02*
G37*
G36*
X014640Y060547D02*
X014513Y060530D01*
X014396Y060482D01*
X014295Y060404D01*
X014217Y060303D01*
X014168Y060185D01*
X014152Y060059D01*
X014168Y059933D01*
X014217Y059815D01*
X014295Y059714D01*
X014396Y059637D01*
X014513Y059588D01*
X014640Y059571D01*
X014766Y059588D01*
X014884Y059637D01*
X014985Y059714D01*
X015062Y059815D01*
X015111Y059933D01*
X015127Y060059D01*
X015111Y060185D01*
X015062Y060303D01*
X014985Y060404D01*
X014884Y060482D01*
X014766Y060530D01*
X014640Y060547D01*
D02*
G37*
G36*
X026850Y059487D02*
X026768Y059471D01*
X026699Y059424D01*
X026652Y059355D01*
X026636Y059273D01*
X026638Y059263D01*
X026586Y059211D01*
X026488D01*
X026488Y059211D01*
X026433Y059200D01*
X026387Y059169D01*
X026387Y059169D01*
X026209Y058991D01*
X026178Y058945D01*
X026167Y058890D01*
X026167Y058890D01*
Y057060D01*
X026167Y057060D01*
X026178Y057005D01*
X026209Y056959D01*
X026268Y056900D01*
X026268Y056900D01*
X026314Y056870D01*
X026369Y056859D01*
X026369Y056859D01*
X026971D01*
X026971Y056859D01*
X027026Y056870D01*
X027072Y056900D01*
X027664Y057492D01*
X029734D01*
X029740Y057483D01*
X029810Y057437D01*
X029892Y057421D01*
X029974Y057437D01*
X030043Y057483D01*
X030049Y057492D01*
X031526D01*
X031527Y057491D01*
Y057300D01*
X031477Y057273D01*
X031432Y057282D01*
X031432Y057282D01*
X030049D01*
X030043Y057291D01*
X029974Y057337D01*
X029892Y057354D01*
X029810Y057337D01*
X029740Y057291D01*
X029694Y057221D01*
X029678Y057139D01*
X029694Y057057D01*
X029740Y056988D01*
X029810Y056942D01*
X029892Y056925D01*
X029974Y056942D01*
X030043Y056988D01*
X030049Y056997D01*
X031348D01*
Y055294D01*
X031348Y055294D01*
X031358Y055239D01*
X031389Y055193D01*
X031681Y054902D01*
X031727Y054871D01*
X031782Y054860D01*
X031782Y054860D01*
X045336D01*
X045336Y054860D01*
X045353Y054863D01*
X045583D01*
Y050878D01*
X045583Y050878D01*
X045594Y050823D01*
X045625Y050777D01*
X045683Y050719D01*
X045683Y050718D01*
X045729Y050688D01*
X045784Y050677D01*
X046771D01*
X046771Y050677D01*
X046826Y050688D01*
X046872Y050718D01*
X046931Y050777D01*
X046931Y050777D01*
X046941Y050792D01*
X047079Y050930D01*
X047793D01*
X047799Y050921D01*
X047868Y050875D01*
X047950Y050859D01*
X048032Y050875D01*
X048101Y050921D01*
X048148Y050991D01*
X048164Y051073D01*
X048148Y051155D01*
X048101Y051224D01*
X048032Y051271D01*
X047950Y051287D01*
X047868Y051271D01*
X047799Y051224D01*
X047793Y051216D01*
X047569D01*
X047548Y051266D01*
X047616Y051334D01*
X047616Y051334D01*
X047647Y051380D01*
X047658Y051435D01*
Y055957D01*
X047793D01*
X047799Y055949D01*
X047868Y055902D01*
X047950Y055886D01*
X048032Y055902D01*
X048101Y055949D01*
X048148Y056018D01*
X048164Y056100D01*
X048148Y056182D01*
X048101Y056251D01*
X048032Y056298D01*
X047950Y056314D01*
X047868Y056298D01*
X047799Y056251D01*
X047793Y056243D01*
X047139D01*
X047023Y056359D01*
Y056450D01*
X047046Y056468D01*
X047073Y056477D01*
X047082Y056470D01*
X047137Y056459D01*
X047772D01*
X047782Y056444D01*
X047852Y056397D01*
X047934Y056381D01*
X048016Y056397D01*
X048085Y056444D01*
X048132Y056513D01*
X048148Y056595D01*
X048132Y056677D01*
X048085Y056747D01*
X048016Y056793D01*
X047934Y056809D01*
X047852Y056793D01*
X047782Y056747D01*
X047781Y056745D01*
X047221D01*
Y057862D01*
X047210Y057917D01*
X047179Y057963D01*
X047179Y057963D01*
X047121Y058022D01*
X047075Y058053D01*
X047020Y058063D01*
X047020Y058063D01*
X027241D01*
X027241Y058063D01*
X027186Y058053D01*
X027140Y058022D01*
X027140Y058022D01*
X026860Y057742D01*
X026850Y057744D01*
X026768Y057728D01*
X026699Y057681D01*
X026652Y057612D01*
X026636Y057530D01*
X026652Y057448D01*
X026699Y057379D01*
X026768Y057332D01*
X026850Y057316D01*
X026932Y057332D01*
X027001Y057379D01*
X027048Y057448D01*
X027064Y057530D01*
X027062Y057540D01*
X027300Y057778D01*
X027477D01*
X027489Y057759D01*
X027496Y057728D01*
X026912Y057144D01*
X026453D01*
Y058831D01*
X026547Y058925D01*
X026645D01*
X026645Y058925D01*
X026700Y058936D01*
X026746Y058967D01*
X026840Y059061D01*
X026850Y059059D01*
X026932Y059075D01*
X027001Y059121D01*
X027048Y059191D01*
X027064Y059273D01*
X027048Y059355D01*
X027001Y059424D01*
X026932Y059471D01*
X026850Y059487D01*
D02*
G37*
G36*
X013616Y059286D02*
X013510Y059272D01*
X013412Y059232D01*
X013327Y059167D01*
X013262Y059082D01*
X013221Y058984D01*
X013208Y058878D01*
X013221Y058772D01*
X013262Y058674D01*
X013327Y058589D01*
X013412Y058524D01*
X013510Y058483D01*
X013616Y058470D01*
X013722Y058483D01*
X013820Y058524D01*
X013905Y058589D01*
X013970Y058674D01*
X014011Y058772D01*
X014024Y058878D01*
X014011Y058984D01*
X013970Y059082D01*
X013905Y059167D01*
X013820Y059232D01*
X013722Y059272D01*
X013616Y059286D01*
D02*
G37*
G36*
X083520Y064454D02*
X083438Y064438D01*
X083369Y064391D01*
X083322Y064322D01*
X083306Y064240D01*
X083322Y064158D01*
X083369Y064089D01*
X083377Y064083D01*
Y062798D01*
X083377Y062798D01*
X083388Y062744D01*
X083419Y062698D01*
X083715Y062402D01*
X083715Y062402D01*
X083761Y062371D01*
X083815Y062360D01*
X083815Y062360D01*
X084573D01*
X084578Y062352D01*
X084648Y062305D01*
X084730Y062289D01*
X084812Y062305D01*
X084881Y062352D01*
X084928Y062421D01*
X084944Y062503D01*
X084928Y062585D01*
X084881Y062654D01*
X084812Y062701D01*
X084730Y062717D01*
X084648Y062701D01*
X084578Y062654D01*
X084573Y062646D01*
X083910D01*
X083882Y062676D01*
X083888Y062734D01*
X083901Y062742D01*
X083948Y062812D01*
X083964Y062894D01*
X083948Y062976D01*
X083901Y063045D01*
X083887Y063055D01*
Y063282D01*
X083937Y063323D01*
X083975Y063316D01*
X084057Y063332D01*
X084126Y063379D01*
X084132Y063387D01*
X084993D01*
X084999Y063379D01*
X085068Y063332D01*
X085150Y063316D01*
X085232Y063332D01*
X085301Y063379D01*
X085348Y063448D01*
X085364Y063530D01*
X085358Y063559D01*
X085380Y063606D01*
X085396Y063609D01*
X085462Y063622D01*
X085531Y063669D01*
X085572Y063729D01*
X085616Y063723D01*
X085622Y063721D01*
Y058869D01*
X085607Y058854D01*
X084268D01*
X084186Y058838D01*
X084117Y058791D01*
X084070Y058722D01*
X084054Y058640D01*
X084070Y058558D01*
X084117Y058489D01*
X084186Y058442D01*
X084268Y058426D01*
X085695D01*
X085777Y058442D01*
X085847Y058489D01*
X085987Y058629D01*
X086034Y058699D01*
X086050Y058781D01*
Y064060D01*
X086034Y064142D01*
X085987Y064211D01*
X085963Y064236D01*
X085893Y064282D01*
X085811Y064299D01*
X085729Y064282D01*
X085660Y064236D01*
X085613Y064166D01*
X085597Y064084D01*
X085613Y064003D01*
X085622Y063990D01*
Y063919D01*
X085616Y063917D01*
X085572Y063911D01*
X085531Y063971D01*
X085462Y064018D01*
X085380Y064034D01*
X085298Y064018D01*
X085229Y063971D01*
X085223Y063963D01*
X083803D01*
X083749Y063952D01*
X083713Y063928D01*
X083676Y063941D01*
X083663Y063950D01*
Y064083D01*
X083671Y064089D01*
X083718Y064158D01*
X083734Y064240D01*
X083718Y064322D01*
X083671Y064391D01*
X083602Y064438D01*
X083520Y064454D01*
D02*
G37*
G36*
X020865Y057855D02*
X020235D01*
Y057633D01*
X019440D01*
Y057740D01*
X018900D01*
Y057200D01*
X019044D01*
Y056674D01*
X018822D01*
Y056044D01*
X019552D01*
Y056674D01*
X019330D01*
Y057200D01*
X019440D01*
Y057347D01*
X020235D01*
Y057125D01*
X020865D01*
Y057855D01*
D02*
G37*
G36*
X018700Y057750D02*
X018470D01*
Y057520D01*
X018700D01*
Y057750D01*
D02*
G37*
G36*
X018370D02*
X018140D01*
Y057520D01*
X018370D01*
Y057750D01*
D02*
G37*
G36*
X018700Y057420D02*
X018470D01*
Y057190D01*
X018700D01*
Y057420D01*
D02*
G37*
G36*
X018370D02*
X018140D01*
Y057190D01*
X018370D01*
Y057420D01*
D02*
G37*
G36*
X011490Y057988D02*
X011364Y057971D01*
X011246Y057923D01*
X011145Y057845D01*
X011067Y057744D01*
X011019Y057626D01*
X011002Y057500D01*
X011019Y057374D01*
X011067Y057256D01*
X011145Y057155D01*
X011246Y057077D01*
X011364Y057029D01*
X011490Y057012D01*
X011616Y057029D01*
X011734Y057077D01*
X011835Y057155D01*
X011913Y057256D01*
X011961Y057374D01*
X011978Y057500D01*
X011961Y057626D01*
X011913Y057744D01*
X011835Y057845D01*
X011734Y057923D01*
X011616Y057971D01*
X011490Y057988D01*
D02*
G37*
G36*
X018662Y056684D02*
X018337D01*
Y056409D01*
X018662D01*
Y056684D01*
D02*
G37*
G36*
X018237D02*
X017912D01*
Y056409D01*
X018237D01*
Y056684D01*
D02*
G37*
G36*
X029050Y057154D02*
X028968Y057138D01*
X028962Y057134D01*
X027533D01*
X027459Y057119D01*
X027396Y057077D01*
X026619Y056300D01*
X024551D01*
X023973Y056878D01*
X023971Y056885D01*
X023925Y056955D01*
X023856Y057001D01*
X023774Y057017D01*
X023692Y057001D01*
X023622Y056955D01*
X023576Y056885D01*
X023560Y056803D01*
X023576Y056721D01*
X023622Y056652D01*
X023692Y056605D01*
X023699Y056604D01*
X024334Y055969D01*
X024396Y055927D01*
X024470Y055913D01*
X026699D01*
X026773Y055927D01*
X026836Y055969D01*
X027613Y056746D01*
X028962D01*
X028968Y056742D01*
X029050Y056726D01*
X029132Y056742D01*
X029201Y056789D01*
X029248Y056858D01*
X029264Y056940D01*
X029248Y057022D01*
X029201Y057091D01*
X029132Y057138D01*
X029050Y057154D01*
D02*
G37*
G36*
X018662Y056309D02*
X018337D01*
Y056034D01*
X018662D01*
Y056309D01*
D02*
G37*
G36*
X018237D02*
X017912D01*
Y056034D01*
X018237D01*
Y056309D01*
D02*
G37*
G36*
X014690Y056216D02*
X014563Y056200D01*
X014446Y056151D01*
X014345Y056073D01*
X014267Y055972D01*
X014218Y055855D01*
X014202Y055728D01*
X014218Y055602D01*
X014267Y055484D01*
X014345Y055383D01*
X014446Y055306D01*
X014563Y055257D01*
X014690Y055240D01*
X014816Y055257D01*
X014934Y055306D01*
X015035Y055383D01*
X015112Y055484D01*
X015161Y055602D01*
X015177Y055728D01*
X015161Y055855D01*
X015112Y055972D01*
X015035Y056073D01*
X014934Y056151D01*
X014816Y056200D01*
X014690Y056216D01*
D02*
G37*
G36*
X066130Y057504D02*
X066048Y057488D01*
X065979Y057441D01*
X065932Y057372D01*
X065916Y057290D01*
X065932Y057208D01*
X065936Y057202D01*
Y055368D01*
X065932Y055362D01*
X065916Y055280D01*
X065932Y055198D01*
X065979Y055129D01*
X066048Y055082D01*
X066130Y055066D01*
X066212Y055082D01*
X066281Y055129D01*
X066328Y055198D01*
X066344Y055280D01*
X066328Y055362D01*
X066324Y055368D01*
Y057202D01*
X066328Y057208D01*
X066344Y057290D01*
X066328Y057372D01*
X066281Y057441D01*
X066212Y057488D01*
X066130Y057504D01*
D02*
G37*
G36*
X013666Y054956D02*
X013560Y054942D01*
X013462Y054901D01*
X013377Y054836D01*
X013312Y054751D01*
X013271Y054653D01*
X013258Y054547D01*
X013271Y054442D01*
X013312Y054343D01*
X013377Y054258D01*
X013462Y054194D01*
X013560Y054153D01*
X013666Y054139D01*
X013772Y054153D01*
X013870Y054194D01*
X013955Y054258D01*
X014020Y054343D01*
X014061Y054442D01*
X014074Y054547D01*
X014061Y054653D01*
X014020Y054751D01*
X013955Y054836D01*
X013870Y054901D01*
X013772Y054942D01*
X013666Y054956D01*
D02*
G37*
G36*
X010847D02*
X010741Y054942D01*
X010643Y054901D01*
X010558Y054836D01*
X010493Y054751D01*
X010453Y054653D01*
X010439Y054547D01*
X010453Y054442D01*
X010493Y054343D01*
X010558Y054258D01*
X010643Y054194D01*
X010741Y054153D01*
X010847Y054139D01*
X010953Y054153D01*
X011051Y054194D01*
X011136Y054258D01*
X011201Y054343D01*
X011242Y054442D01*
X011256Y054547D01*
X011242Y054653D01*
X011201Y054751D01*
X011136Y054836D01*
X011051Y054901D01*
X010953Y054942D01*
X010847Y054956D01*
D02*
G37*
G36*
X071150Y063174D02*
X071068Y063158D01*
X070999Y063111D01*
X070952Y063042D01*
X070936Y062960D01*
X070952Y062878D01*
X070999Y062809D01*
X071007Y062803D01*
Y054017D01*
X070999Y054011D01*
X070952Y053942D01*
X070936Y053860D01*
X070952Y053778D01*
X070999Y053709D01*
X071068Y053662D01*
X071150Y053646D01*
X071232Y053662D01*
X071301Y053709D01*
X071348Y053778D01*
X071364Y053860D01*
X071348Y053942D01*
X071301Y054011D01*
X071293Y054017D01*
Y062803D01*
X071301Y062809D01*
X071348Y062878D01*
X071364Y062960D01*
X071348Y063042D01*
X071301Y063111D01*
X071232Y063158D01*
X071150Y063174D01*
D02*
G37*
G36*
X014690Y053854D02*
X014563Y053837D01*
X014446Y053789D01*
X014345Y053711D01*
X014267Y053610D01*
X014218Y053492D01*
X014202Y053366D01*
X014218Y053240D01*
X014267Y053122D01*
X014345Y053021D01*
X014446Y052944D01*
X014563Y052895D01*
X014690Y052878D01*
X014816Y052895D01*
X014934Y052944D01*
X015035Y053021D01*
X015112Y053122D01*
X015161Y053240D01*
X015177Y053366D01*
X015161Y053492D01*
X015112Y053610D01*
X015035Y053711D01*
X014934Y053789D01*
X014816Y053837D01*
X014690Y053854D01*
D02*
G37*
G36*
X011540Y053657D02*
X011414Y053641D01*
X011296Y053592D01*
X011195Y053514D01*
X011117Y053413D01*
X011069Y053296D01*
X011052Y053169D01*
X011069Y053043D01*
X011117Y052925D01*
X011195Y052824D01*
X011296Y052747D01*
X011414Y052698D01*
X011540Y052681D01*
X011666Y052698D01*
X011784Y052747D01*
X011885Y052824D01*
X011963Y052925D01*
X012011Y053043D01*
X012028Y053169D01*
X012011Y053296D01*
X011963Y053413D01*
X011885Y053514D01*
X011784Y053592D01*
X011666Y053641D01*
X011540Y053657D01*
D02*
G37*
G36*
X066407Y051542D02*
X066107D01*
Y051192D01*
X066407D01*
Y051542D01*
D02*
G37*
G36*
X029528Y052121D02*
X029394Y052108D01*
X029266Y052069D01*
X029148Y052006D01*
X029044Y051921D01*
X028959Y051817D01*
X028896Y051699D01*
X028857Y051571D01*
X028844Y051437D01*
X028857Y051304D01*
X028896Y051175D01*
X028959Y051057D01*
X029044Y050954D01*
X029148Y050868D01*
X029266Y050805D01*
X029394Y050766D01*
X029528Y050753D01*
X029661Y050766D01*
X029789Y050805D01*
X029907Y050868D01*
X030011Y050954D01*
X030096Y051057D01*
X030159Y051175D01*
X030198Y051304D01*
X030211Y051437D01*
X030198Y051571D01*
X030159Y051699D01*
X030096Y051817D01*
X030011Y051921D01*
X029907Y052006D01*
X029789Y052069D01*
X029661Y052108D01*
X029528Y052121D01*
D02*
G37*
G36*
X066407Y051092D02*
X066107D01*
Y050742D01*
X066407D01*
Y051092D01*
D02*
G37*
G36*
X010982Y051695D02*
X010867Y051684D01*
X010755Y051650D01*
X010653Y051595D01*
X010563Y051522D01*
X010489Y051432D01*
X010435Y051329D01*
X010401Y051218D01*
X010389Y051102D01*
X010401Y050987D01*
X010435Y050875D01*
X010489Y050773D01*
X010563Y050683D01*
X010653Y050609D01*
X010755Y050555D01*
X010867Y050521D01*
X010982Y050510D01*
X011098Y050521D01*
X011209Y050555D01*
X011312Y050609D01*
X011401Y050683D01*
X011475Y050773D01*
X011530Y050875D01*
X011564Y050987D01*
X011575Y051102D01*
X011564Y051218D01*
X011530Y051329D01*
X011475Y051432D01*
X011401Y051522D01*
X011312Y051595D01*
X011209Y051650D01*
X011098Y051684D01*
X010982Y051695D01*
D02*
G37*
G36*
X039260Y049087D02*
X039260Y049087D01*
X038597D01*
X038543Y049076D01*
X038496Y049045D01*
X038496Y049045D01*
X038354Y048903D01*
X036190D01*
X036190Y048903D01*
X036135Y048892D01*
X036089Y048861D01*
X036089Y048861D01*
X035231Y048003D01*
X034035D01*
Y048225D01*
X033405D01*
Y047495D01*
X033577D01*
Y046425D01*
X033355D01*
Y045795D01*
X034085D01*
Y046425D01*
X033863D01*
Y047495D01*
X034035D01*
Y047717D01*
X035290D01*
X035290Y047717D01*
X035345Y047728D01*
X035391Y047759D01*
X036249Y048617D01*
X038413D01*
X038413Y048617D01*
X038468Y048628D01*
X038514Y048659D01*
X038656Y048801D01*
X039201D01*
X039343Y048659D01*
X039343Y048659D01*
X039389Y048628D01*
X039444Y048617D01*
X040835D01*
Y048445D01*
X041565D01*
Y049075D01*
X040835D01*
Y048903D01*
X039503D01*
X039361Y049045D01*
X039315Y049076D01*
X039260Y049087D01*
D02*
G37*
G36*
X034045Y049135D02*
X033770D01*
Y048810D01*
X034045D01*
Y049135D01*
D02*
G37*
G36*
X033670D02*
X033395D01*
Y048810D01*
X033670D01*
Y049135D01*
D02*
G37*
G36*
X042465Y049075D02*
X041735D01*
Y048445D01*
X042465D01*
Y048607D01*
X043273D01*
X043279Y048599D01*
X043348Y048552D01*
X043430Y048536D01*
X043512Y048552D01*
X043581Y048599D01*
X043628Y048668D01*
X043644Y048750D01*
X043628Y048832D01*
X043581Y048901D01*
X043512Y048948D01*
X043430Y048964D01*
X043348Y048948D01*
X043279Y048901D01*
X043273Y048893D01*
X042465D01*
Y049075D01*
D02*
G37*
G36*
X039210Y048640D02*
X038670D01*
Y048429D01*
X036736D01*
X036736Y048429D01*
X036681Y048418D01*
X036635Y048387D01*
X036635Y048387D01*
X036079Y047831D01*
X036048Y047785D01*
X036037Y047730D01*
X036037Y047730D01*
Y047295D01*
X035815D01*
Y047123D01*
X035465D01*
Y047335D01*
X034835D01*
Y046605D01*
X035465D01*
Y046837D01*
X035815D01*
Y046665D01*
X036545D01*
Y047295D01*
X036323D01*
Y047671D01*
X036795Y048143D01*
X038670D01*
Y047960D01*
X039210D01*
Y048143D01*
X039989D01*
X040393Y047739D01*
X040393Y047739D01*
X040439Y047708D01*
X040494Y047697D01*
X040835D01*
Y047525D01*
X041565D01*
Y048155D01*
X040835D01*
Y047983D01*
X040553D01*
X040149Y048387D01*
X040103Y048418D01*
X040048Y048429D01*
X040048Y048429D01*
X039210D01*
Y048640D01*
D02*
G37*
G36*
X032645Y051907D02*
X032563Y051890D01*
X032494Y051844D01*
X032447Y051774D01*
X032431Y051692D01*
X032447Y051610D01*
X032494Y051541D01*
X032502Y051535D01*
Y049125D01*
X032315D01*
Y048395D01*
X032945D01*
Y049125D01*
X032788D01*
Y051535D01*
X032796Y051541D01*
X032843Y051610D01*
X032859Y051692D01*
X032843Y051774D01*
X032796Y051844D01*
X032727Y051890D01*
X032645Y051907D01*
D02*
G37*
G36*
X034045Y048710D02*
X033770D01*
Y048385D01*
X034045D01*
Y048710D01*
D02*
G37*
G36*
X033670D02*
X033395D01*
Y048385D01*
X033670D01*
Y048710D01*
D02*
G37*
G36*
X032945Y048225D02*
X032315D01*
Y048070D01*
X032278Y048037D01*
X032210Y048043D01*
X032115Y048034D01*
X032065Y048077D01*
Y048205D01*
X031435D01*
Y047475D01*
X031492D01*
X031525Y047438D01*
X031517Y047350D01*
Y045168D01*
X031505D01*
Y043728D01*
X032354D01*
Y043754D01*
X033010D01*
X033145Y043768D01*
X033275Y043807D01*
X033395Y043871D01*
X033500Y043958D01*
X033586Y044063D01*
X033624Y044133D01*
X033984D01*
Y044763D01*
X033624D01*
X033586Y044833D01*
X033500Y044938D01*
X033395Y045024D01*
X033275Y045088D01*
X033145Y045128D01*
X033010Y045141D01*
X032903D01*
Y045795D01*
X033185D01*
Y046425D01*
X032903D01*
Y047350D01*
X032894Y047445D01*
X032937Y047495D01*
X032945D01*
Y048225D01*
D02*
G37*
G36*
X038850Y047780D02*
X038620D01*
Y047550D01*
X038850D01*
Y047780D01*
D02*
G37*
G36*
X038520D02*
X038290D01*
Y047550D01*
X038520D01*
Y047780D01*
D02*
G37*
G36*
X038850Y047450D02*
X038620D01*
Y047220D01*
X038850D01*
Y047450D01*
D02*
G37*
G36*
X038520D02*
X038290D01*
Y047220D01*
X038520D01*
Y047450D01*
D02*
G37*
G36*
X037455Y047305D02*
X037130D01*
Y047030D01*
X037455D01*
Y047305D01*
D02*
G37*
G36*
X037030D02*
X036705D01*
Y047030D01*
X037030D01*
Y047305D01*
D02*
G37*
G36*
X037455Y046930D02*
X037130D01*
Y046655D01*
X037455D01*
Y046930D01*
D02*
G37*
G36*
X037030D02*
X036705D01*
Y046655D01*
X037030D01*
Y046930D01*
D02*
G37*
G36*
X060950Y046774D02*
X060868Y046758D01*
X060799Y046711D01*
X060786Y046693D01*
X056817D01*
X056766Y046682D01*
X056723Y046654D01*
X056676Y046607D01*
X056647Y046564D01*
X056637Y046513D01*
Y039310D01*
X056619Y039297D01*
X056572Y039228D01*
X056556Y039146D01*
X056572Y039064D01*
X056619Y038995D01*
X056688Y038948D01*
X056770Y038932D01*
X056852Y038948D01*
X056921Y038995D01*
X056968Y039064D01*
X056977Y039109D01*
X057030Y039149D01*
X057112Y039165D01*
X057181Y039212D01*
X057228Y039281D01*
X057244Y039363D01*
X057228Y039445D01*
X057181Y039515D01*
X057172Y039521D01*
Y040228D01*
X057222Y040243D01*
X057239Y040219D01*
X057308Y040172D01*
X057390Y040156D01*
X057472Y040172D01*
X057541Y040219D01*
X057588Y040288D01*
X057604Y040370D01*
X057588Y040452D01*
X057541Y040521D01*
X057523Y040534D01*
Y041046D01*
X062422D01*
X062490Y041001D01*
X062572Y040984D01*
X062654Y041001D01*
X062723Y041047D01*
X062770Y041117D01*
X062786Y041199D01*
X062770Y041281D01*
X062723Y041350D01*
X062654Y041396D01*
X062572Y041413D01*
X062490Y041396D01*
X062420Y041350D01*
X062394Y041311D01*
X060099D01*
X060058Y041361D01*
X060059Y041365D01*
Y041926D01*
X060078Y041939D01*
X060124Y042008D01*
X060141Y042090D01*
X060124Y042172D01*
X060078Y042241D01*
X060009Y042288D01*
X059927Y042304D01*
X059845Y042288D01*
X059775Y042241D01*
X059729Y042172D01*
X059713Y042090D01*
X059729Y042008D01*
X059775Y041939D01*
X059794Y041926D01*
Y041451D01*
X057368D01*
X057317Y041441D01*
X057274Y041412D01*
X057156Y041294D01*
X057128Y041251D01*
X057117Y041201D01*
Y040670D01*
X056952Y040505D01*
X056926Y040509D01*
X056902Y040523D01*
Y046427D01*
X060786D01*
X060799Y046409D01*
X060868Y046362D01*
X060950Y046346D01*
X061032Y046362D01*
X061101Y046409D01*
X061148Y046478D01*
X061164Y046560D01*
X061148Y046642D01*
X061101Y046711D01*
X061032Y046758D01*
X060950Y046774D01*
D02*
G37*
G36*
X039615Y046095D02*
X039290D01*
Y045820D01*
X039615D01*
Y046095D01*
D02*
G37*
G36*
X039190D02*
X038865D01*
Y045820D01*
X039190D01*
Y046095D01*
D02*
G37*
G36*
X039590Y047770D02*
X039050D01*
Y047230D01*
X039590D01*
Y047357D01*
X040081D01*
X041057Y046381D01*
Y046085D01*
X040835D01*
Y045455D01*
X041565D01*
Y046085D01*
X041343D01*
Y046440D01*
X041332Y046495D01*
X041301Y046541D01*
X041301Y046541D01*
X040241Y047601D01*
X040195Y047632D01*
X040140Y047643D01*
X040140Y047643D01*
X039590D01*
Y047770D01*
D02*
G37*
G36*
X039615Y045720D02*
X039290D01*
Y045445D01*
X039615D01*
Y045720D01*
D02*
G37*
G36*
X039190D02*
X038865D01*
Y045445D01*
X039190D01*
Y045720D01*
D02*
G37*
G36*
X014684Y045582D02*
Y045141D01*
X015125D01*
X015115Y045219D01*
X015065Y045340D01*
X014986Y045443D01*
X014883Y045522D01*
X014763Y045572D01*
X014684Y045582D01*
D02*
G37*
G36*
X014584D02*
X014505Y045572D01*
X014385Y045522D01*
X014282Y045443D01*
X014202Y045340D01*
X014153Y045219D01*
X014142Y045141D01*
X014584D01*
Y045582D01*
D02*
G37*
G36*
X039625Y045205D02*
X038895D01*
Y045147D01*
X038858Y045114D01*
X038760Y045123D01*
X038034D01*
Y045170D01*
X037185D01*
Y043730D01*
X038034D01*
Y043737D01*
X038760D01*
X038895Y043750D01*
X038907Y043751D01*
X038945Y043719D01*
Y043595D01*
X039575D01*
Y044325D01*
X039480D01*
X039447Y044362D01*
X039453Y044430D01*
X039444Y044525D01*
X039487Y044575D01*
X039625D01*
Y045205D01*
D02*
G37*
G36*
X011484Y045775D02*
X011358Y045759D01*
X011240Y045710D01*
X011139Y045632D01*
X011062Y045531D01*
X011013Y045414D01*
X010996Y045287D01*
X011013Y045161D01*
X011062Y045043D01*
X011139Y044942D01*
X011240Y044865D01*
X011358Y044816D01*
X011484Y044800D01*
X011610Y044816D01*
X011728Y044865D01*
X011829Y044942D01*
X011907Y045043D01*
X011955Y045161D01*
X011972Y045287D01*
X011955Y045414D01*
X011907Y045531D01*
X011829Y045632D01*
X011728Y045710D01*
X011610Y045759D01*
X011484Y045775D01*
D02*
G37*
G36*
X059923Y045114D02*
X059841Y045098D01*
X059772Y045051D01*
X059759Y045033D01*
X058427D01*
X058376Y045022D01*
X058333Y044994D01*
X058287Y044947D01*
X058258Y044904D01*
X058248Y044853D01*
Y041910D01*
X058229Y041897D01*
X058182Y041828D01*
X058166Y041746D01*
X058182Y041664D01*
X058229Y041595D01*
X058298Y041548D01*
X058380Y041532D01*
X058462Y041548D01*
X058532Y041595D01*
X058578Y041664D01*
X058594Y041746D01*
X058578Y041828D01*
X058532Y041897D01*
X058513Y041910D01*
Y044767D01*
X059759D01*
X059772Y044749D01*
X059841Y044702D01*
X059923Y044686D01*
X060005Y044702D01*
X060075Y044749D01*
X060121Y044818D01*
X060137Y044900D01*
X060121Y044982D01*
X060075Y045051D01*
X060005Y045098D01*
X059923Y045114D01*
D02*
G37*
G36*
X014584Y045041D02*
X014142D01*
X014153Y044962D01*
X014202Y044842D01*
X014282Y044738D01*
X014385Y044659D01*
X014505Y044610D01*
X014584Y044599D01*
Y045041D01*
D02*
G37*
G36*
X015125D02*
X014684D01*
Y044599D01*
X014763Y044610D01*
X014883Y044659D01*
X014986Y044738D01*
X015065Y044842D01*
X015115Y044962D01*
X015125Y045041D01*
D02*
G37*
G36*
X040505Y046085D02*
X039775D01*
Y045455D01*
X039997D01*
Y045205D01*
X039795D01*
Y044575D01*
X040525D01*
Y044747D01*
X040835D01*
Y044575D01*
X041565D01*
Y045205D01*
X040835D01*
Y045033D01*
X040525D01*
Y045205D01*
X040283D01*
Y045455D01*
X040505D01*
Y046085D01*
D02*
G37*
G36*
X031025Y045178D02*
X030641D01*
Y044498D01*
X031025D01*
Y045178D01*
D02*
G37*
G36*
X030541D02*
X030156D01*
Y044498D01*
X030541D01*
Y045178D01*
D02*
G37*
G36*
X042465Y046085D02*
X041735D01*
Y045455D01*
X041957D01*
Y045205D01*
X041735D01*
Y044575D01*
X041891D01*
X041915Y044531D01*
X041902Y044512D01*
X041886Y044430D01*
X041902Y044348D01*
X041949Y044279D01*
X042018Y044232D01*
X042100Y044216D01*
X042182Y044232D01*
X042251Y044279D01*
X042298Y044348D01*
X042314Y044430D01*
X042298Y044512D01*
X042285Y044531D01*
X042309Y044575D01*
X042465D01*
Y045205D01*
X042243D01*
Y045455D01*
X042465D01*
Y046085D01*
D02*
G37*
G36*
X035465Y046435D02*
X034835D01*
Y046054D01*
X034765Y046016D01*
X034660Y045930D01*
X034574Y045825D01*
X034509Y045705D01*
X034470Y045575D01*
X034457Y045440D01*
Y044763D01*
X034154D01*
Y044133D01*
X034536D01*
X034574Y044063D01*
X034660Y043957D01*
X034677Y043940D01*
X034783Y043854D01*
X034902Y043789D01*
X035032Y043750D01*
X035168Y043737D01*
X035846D01*
Y043730D01*
X036695D01*
Y044213D01*
X036720Y044295D01*
X036733Y044430D01*
X036720Y044565D01*
X036695Y044647D01*
Y045170D01*
X035846D01*
X035843Y045219D01*
Y045440D01*
X035830Y045575D01*
X035791Y045705D01*
X035726Y045825D01*
X035640Y045930D01*
X035535Y046016D01*
X035465Y046054D01*
Y046435D01*
D02*
G37*
G36*
X031025Y044398D02*
X030641D01*
Y043718D01*
X031025D01*
Y044398D01*
D02*
G37*
G36*
X030541D02*
X030156D01*
Y043718D01*
X030541D01*
Y044398D01*
D02*
G37*
G36*
X053762Y043573D02*
X053680Y043556D01*
X053610Y043510D01*
X053604Y043501D01*
X049777D01*
X049771Y043510D01*
X049702Y043556D01*
X049620Y043573D01*
X049538Y043556D01*
X049469Y043510D01*
X049422Y043440D01*
X049406Y043358D01*
X049422Y043277D01*
X049469Y043207D01*
X049538Y043161D01*
X049620Y043144D01*
X049702Y043161D01*
X049771Y043207D01*
X049777Y043216D01*
X053604D01*
X053610Y043207D01*
X053680Y043161D01*
X053762Y043144D01*
X053843Y043161D01*
X053913Y043207D01*
X053959Y043277D01*
X053976Y043358D01*
X053959Y043440D01*
X053913Y043510D01*
X053843Y043556D01*
X053762Y043573D01*
D02*
G37*
G36*
X013610Y044318D02*
X013504Y044304D01*
X013406Y044263D01*
X013321Y044198D01*
X013256Y044114D01*
X013215Y044015D01*
X013202Y043909D01*
X013215Y043804D01*
X013256Y043705D01*
X013321Y043621D01*
X013406Y043556D01*
X013504Y043515D01*
X013610Y043501D01*
X013716Y043515D01*
X013814Y043556D01*
X013899Y043621D01*
X013964Y043705D01*
X014005Y043804D01*
X014018Y043909D01*
X014005Y044015D01*
X013964Y044114D01*
X013899Y044198D01*
X013814Y044263D01*
X013716Y044304D01*
X013610Y044318D01*
D02*
G37*
G36*
X010791D02*
X010685Y044304D01*
X010587Y044263D01*
X010502Y044198D01*
X010437Y044114D01*
X010397Y044015D01*
X010383Y043909D01*
X010397Y043804D01*
X010437Y043705D01*
X010502Y043621D01*
X010587Y043556D01*
X010685Y043515D01*
X010791Y043501D01*
X010897Y043515D01*
X010995Y043556D01*
X011080Y043621D01*
X011145Y043705D01*
X011186Y043804D01*
X011200Y043909D01*
X011186Y044015D01*
X011145Y044114D01*
X011080Y044198D01*
X010995Y044263D01*
X010897Y044304D01*
X010791Y044318D01*
D02*
G37*
G36*
X021020Y052610D02*
X020607Y052591D01*
X020197Y052538D01*
X019793Y052448D01*
X019399Y052324D01*
X019017Y052165D01*
X018650Y051975D01*
X018302Y051752D01*
X017974Y051501D01*
X017669Y051221D01*
X017389Y050917D01*
X017138Y050588D01*
X016915Y050240D01*
X016725Y049873D01*
X016566Y049491D01*
X016442Y049097D01*
X016352Y048693D01*
X016299Y048283D01*
X016280Y047870D01*
X016299Y047457D01*
X016352Y047047D01*
X016442Y046643D01*
X016566Y046249D01*
X016725Y045867D01*
X016915Y045500D01*
X017138Y045152D01*
X017389Y044823D01*
X017669Y044519D01*
X017974Y044239D01*
X018302Y043988D01*
X018650Y043765D01*
X019017Y043575D01*
X019399Y043416D01*
X019793Y043292D01*
X020197Y043202D01*
X020607Y043149D01*
X021020Y043130D01*
X021433Y043149D01*
X021843Y043202D01*
X022247Y043292D01*
X022641Y043416D01*
X023023Y043575D01*
X023390Y043765D01*
X023738Y043988D01*
X024067Y044239D01*
X024371Y044519D01*
X024651Y044823D01*
X024902Y045152D01*
X025125Y045500D01*
X025315Y045867D01*
X025474Y046249D01*
X025598Y046643D01*
X025688Y047047D01*
X025741Y047457D01*
X025760Y047870D01*
X025741Y048283D01*
X025688Y048693D01*
X025598Y049097D01*
X025474Y049491D01*
X025315Y049873D01*
X025125Y050240D01*
X024902Y050588D01*
X024651Y050917D01*
X024371Y051221D01*
X024067Y051501D01*
X023738Y051752D01*
X023390Y051975D01*
X023023Y052165D01*
X022641Y052324D01*
X022247Y052448D01*
X021843Y052538D01*
X021433Y052591D01*
X021020Y052610D01*
D02*
G37*
G36*
X014634Y043216D02*
X014507Y043200D01*
X014390Y043151D01*
X014289Y043073D01*
X014211Y042972D01*
X014162Y042855D01*
X014146Y042728D01*
X014162Y042602D01*
X014211Y042484D01*
X014289Y042383D01*
X014390Y042306D01*
X014507Y042257D01*
X014634Y042240D01*
X014760Y042257D01*
X014878Y042306D01*
X014979Y042383D01*
X015056Y042484D01*
X015105Y042602D01*
X015122Y042728D01*
X015105Y042855D01*
X015056Y042972D01*
X014979Y043073D01*
X014878Y043151D01*
X014760Y043200D01*
X014634Y043216D01*
D02*
G37*
G36*
X011484Y043019D02*
X011358Y043003D01*
X011240Y042954D01*
X011139Y042876D01*
X011062Y042775D01*
X011013Y042658D01*
X010996Y042531D01*
X011013Y042405D01*
X011062Y042288D01*
X011139Y042187D01*
X011240Y042109D01*
X011358Y042060D01*
X011484Y042044D01*
X011610Y042060D01*
X011728Y042109D01*
X011829Y042187D01*
X011907Y042288D01*
X011955Y042405D01*
X011972Y042531D01*
X011955Y042658D01*
X011907Y042775D01*
X011829Y042876D01*
X011728Y042954D01*
X011610Y043003D01*
X011484Y043019D01*
D02*
G37*
G36*
X046061Y046205D02*
X045979Y046189D01*
X045910Y046142D01*
X045863Y046073D01*
X045847Y045991D01*
X045863Y045909D01*
X045910Y045839D01*
X045918Y045834D01*
Y041653D01*
X045910Y041647D01*
X045863Y041577D01*
X045847Y041495D01*
X045863Y041414D01*
X045910Y041344D01*
X045979Y041298D01*
X046061Y041281D01*
X046143Y041298D01*
X046213Y041344D01*
X046259Y041414D01*
X046275Y041495D01*
X046259Y041577D01*
X046213Y041647D01*
X046204Y041653D01*
Y045834D01*
X046213Y045839D01*
X046259Y045909D01*
X046275Y045991D01*
X046259Y046073D01*
X046213Y046142D01*
X046143Y046189D01*
X046061Y046205D01*
D02*
G37*
G36*
X035910Y041096D02*
X035828Y041080D01*
X035759Y041034D01*
X035753Y041025D01*
X028939D01*
X028934Y041034D01*
X028864Y041080D01*
X028782Y041096D01*
X028700Y041080D01*
X028631Y041034D01*
X028584Y040964D01*
X028568Y040882D01*
X028584Y040800D01*
X028631Y040731D01*
X028700Y040684D01*
X028782Y040668D01*
X028864Y040684D01*
X028934Y040731D01*
X028939Y040739D01*
X035753D01*
X035759Y040731D01*
X035828Y040684D01*
X035910Y040668D01*
X035992Y040684D01*
X036061Y040731D01*
X036108Y040800D01*
X036124Y040882D01*
X036108Y040964D01*
X036061Y041034D01*
X035992Y041080D01*
X035910Y041096D01*
D02*
G37*
G36*
X066858Y055496D02*
X066776Y055479D01*
X066706Y055433D01*
X066660Y055364D01*
X066643Y055282D01*
X066660Y055200D01*
X066706Y055130D01*
X066725Y055118D01*
Y051542D01*
X066507D01*
Y051142D01*
Y050742D01*
X066725D01*
Y050632D01*
X066117D01*
Y049852D01*
X066335D01*
Y041868D01*
X065913Y041447D01*
X065887Y041407D01*
X065878Y041360D01*
Y038815D01*
X065887Y038768D01*
X065913Y038729D01*
X065995Y038647D01*
X066035Y038620D01*
X066082Y038611D01*
X066349D01*
X066369Y038582D01*
X066438Y038535D01*
X066520Y038519D01*
X066602Y038535D01*
X066671Y038582D01*
X066718Y038651D01*
X066734Y038733D01*
X066718Y038815D01*
X066671Y038885D01*
X066602Y038931D01*
X066520Y038947D01*
X066438Y038931D01*
X066369Y038885D01*
X066349Y038856D01*
X066133D01*
X066122Y038866D01*
Y041309D01*
X066544Y041731D01*
X066570Y041770D01*
X066579Y041817D01*
Y049852D01*
X066725D01*
Y041162D01*
X066580Y041017D01*
X066558Y041021D01*
X066476Y041005D01*
X066406Y040959D01*
X066360Y040889D01*
X066344Y040807D01*
X066360Y040725D01*
X066406Y040656D01*
X066476Y040609D01*
X066558Y040593D01*
X066640Y040609D01*
X066709Y040656D01*
X066756Y040725D01*
X066772Y040807D01*
X066767Y040829D01*
X066951Y041013D01*
X066980Y041056D01*
X066990Y041107D01*
Y055118D01*
X067009Y055130D01*
X067055Y055200D01*
X067072Y055282D01*
X067055Y055364D01*
X067009Y055433D01*
X066939Y055479D01*
X066858Y055496D01*
D02*
G37*
G36*
X014684Y041232D02*
Y040790D01*
X015125D01*
X015115Y040869D01*
X015065Y040989D01*
X014986Y041092D01*
X014883Y041171D01*
X014763Y041221D01*
X014684Y041232D01*
D02*
G37*
G36*
X014584D02*
X014505Y041221D01*
X014385Y041171D01*
X014282Y041092D01*
X014202Y040989D01*
X014153Y040869D01*
X014142Y040790D01*
X014584D01*
Y041232D01*
D02*
G37*
G36*
X011484Y041425D02*
X011358Y041408D01*
X011240Y041360D01*
X011139Y041282D01*
X011062Y041181D01*
X011013Y041063D01*
X010996Y040937D01*
X011013Y040811D01*
X011062Y040693D01*
X011139Y040592D01*
X011240Y040514D01*
X011358Y040466D01*
X011484Y040449D01*
X011610Y040466D01*
X011728Y040514D01*
X011829Y040592D01*
X011907Y040693D01*
X011955Y040811D01*
X011972Y040937D01*
X011955Y041063D01*
X011907Y041181D01*
X011829Y041282D01*
X011728Y041360D01*
X011610Y041408D01*
X011484Y041425D01*
D02*
G37*
G36*
X015125Y040690D02*
X014684D01*
Y040249D01*
X014763Y040259D01*
X014883Y040309D01*
X014986Y040388D01*
X015065Y040491D01*
X015115Y040611D01*
X015125Y040690D01*
D02*
G37*
G36*
X014584D02*
X014142D01*
X014153Y040611D01*
X014202Y040491D01*
X014282Y040388D01*
X014385Y040309D01*
X014505Y040259D01*
X014584Y040249D01*
Y040690D01*
D02*
G37*
G36*
X042465Y048155D02*
X041735D01*
Y047525D01*
X042465D01*
Y047697D01*
X043224D01*
X043287Y047634D01*
Y040567D01*
X043279Y040561D01*
X043232Y040492D01*
X043216Y040410D01*
X043232Y040328D01*
X043279Y040259D01*
X043348Y040212D01*
X043430Y040196D01*
X043512Y040212D01*
X043581Y040259D01*
X043628Y040328D01*
X043644Y040410D01*
X043628Y040492D01*
X043581Y040561D01*
X043573Y040567D01*
Y047693D01*
X043573Y047693D01*
X043562Y047748D01*
X043531Y047794D01*
X043531Y047794D01*
X043384Y047941D01*
X043338Y047972D01*
X043283Y047983D01*
X043283Y047983D01*
X042465D01*
Y048155D01*
D02*
G37*
G36*
X013610Y039968D02*
X013504Y039954D01*
X013406Y039913D01*
X013321Y039848D01*
X013256Y039763D01*
X013215Y039665D01*
X013202Y039559D01*
X013215Y039453D01*
X013256Y039355D01*
X013321Y039270D01*
X013406Y039205D01*
X013504Y039165D01*
X013610Y039151D01*
X013716Y039165D01*
X013814Y039205D01*
X013899Y039270D01*
X013964Y039355D01*
X014005Y039453D01*
X014018Y039559D01*
X014005Y039665D01*
X013964Y039763D01*
X013899Y039848D01*
X013814Y039913D01*
X013716Y039954D01*
X013610Y039968D01*
D02*
G37*
G36*
X010791D02*
X010685Y039954D01*
X010587Y039913D01*
X010502Y039848D01*
X010437Y039763D01*
X010397Y039665D01*
X010383Y039559D01*
X010397Y039453D01*
X010437Y039355D01*
X010502Y039270D01*
X010587Y039205D01*
X010685Y039165D01*
X010791Y039151D01*
X010897Y039165D01*
X010995Y039205D01*
X011080Y039270D01*
X011145Y039355D01*
X011186Y039453D01*
X011200Y039559D01*
X011186Y039665D01*
X011145Y039763D01*
X011080Y039848D01*
X010995Y039913D01*
X010897Y039954D01*
X010791Y039968D01*
D02*
G37*
G36*
X014634Y038866D02*
X014507Y038849D01*
X014390Y038800D01*
X014289Y038723D01*
X014211Y038622D01*
X014162Y038504D01*
X014146Y038378D01*
X014162Y038252D01*
X014211Y038134D01*
X014289Y038033D01*
X014390Y037955D01*
X014507Y037907D01*
X014634Y037890D01*
X014760Y037907D01*
X014878Y037955D01*
X014979Y038033D01*
X015056Y038134D01*
X015105Y038252D01*
X015122Y038378D01*
X015105Y038504D01*
X015056Y038622D01*
X014979Y038723D01*
X014878Y038800D01*
X014760Y038849D01*
X014634Y038866D01*
D02*
G37*
G36*
X026210Y046054D02*
X026128Y046038D01*
X026059Y045991D01*
X026012Y045922D01*
X025996Y045840D01*
X026012Y045758D01*
X026059Y045689D01*
X026067Y045683D01*
Y038091D01*
X026059Y038085D01*
X026012Y038016D01*
X025996Y037934D01*
X026012Y037852D01*
X026059Y037782D01*
X026128Y037736D01*
X026210Y037720D01*
X026292Y037736D01*
X026361Y037782D01*
X026408Y037852D01*
X026424Y037934D01*
X026408Y038016D01*
X026361Y038085D01*
X026353Y038091D01*
Y045683D01*
X026361Y045689D01*
X026408Y045758D01*
X026424Y045840D01*
X026408Y045922D01*
X026361Y045991D01*
X026292Y046038D01*
X026210Y046054D01*
D02*
G37*
G36*
X011484Y038669D02*
X011358Y038652D01*
X011240Y038604D01*
X011139Y038526D01*
X011062Y038425D01*
X011013Y038307D01*
X010996Y038181D01*
X011013Y038055D01*
X011062Y037937D01*
X011139Y037836D01*
X011240Y037759D01*
X011358Y037710D01*
X011484Y037693D01*
X011610Y037710D01*
X011728Y037759D01*
X011829Y037836D01*
X011907Y037937D01*
X011955Y038055D01*
X011972Y038181D01*
X011955Y038307D01*
X011907Y038425D01*
X011829Y038526D01*
X011728Y038604D01*
X011610Y038652D01*
X011484Y038669D01*
D02*
G37*
G36*
X038771Y037752D02*
X037971D01*
Y036952D01*
X038771D01*
Y037752D01*
D02*
G37*
G36*
X037371Y037755D02*
X037267Y037741D01*
X037170Y037701D01*
X037086Y037637D01*
X037022Y037554D01*
X037019Y037545D01*
X028432D01*
X028358Y037531D01*
X028295Y037489D01*
X028178Y037372D01*
X028136Y037309D01*
X028121Y037235D01*
Y016817D01*
X028136Y016743D01*
X028178Y016680D01*
X028295Y016563D01*
X028358Y016521D01*
X028432Y016506D01*
X029342D01*
X029348Y016502D01*
X029430Y016486D01*
X029512Y016502D01*
X029581Y016549D01*
X029628Y016618D01*
X029644Y016700D01*
X029628Y016782D01*
X029581Y016851D01*
X029512Y016898D01*
X029430Y016914D01*
X029348Y016898D01*
X029342Y016894D01*
X028512D01*
X028509Y016897D01*
Y037154D01*
X028512Y037158D01*
X037019D01*
X037022Y037150D01*
X037086Y037066D01*
X037170Y037002D01*
X037267Y036962D01*
X037371Y036948D01*
X037476Y036962D01*
X037573Y037002D01*
X037657Y037066D01*
X037721Y037150D01*
X037761Y037247D01*
X037775Y037352D01*
X037761Y037456D01*
X037721Y037554D01*
X037657Y037637D01*
X037573Y037701D01*
X037476Y037741D01*
X037371Y037755D01*
D02*
G37*
G36*
X034590Y035924D02*
X034508Y035908D01*
X034439Y035861D01*
X034392Y035792D01*
X034376Y035710D01*
X034392Y035628D01*
X034439Y035559D01*
X034447Y035553D01*
Y034955D01*
X034422Y034929D01*
X031546D01*
X031541Y034938D01*
X031471Y034985D01*
X031389Y035001D01*
X031307Y034985D01*
X031238Y034938D01*
X031191Y034869D01*
X031175Y034787D01*
X031191Y034705D01*
X031238Y034635D01*
X031307Y034589D01*
X031389Y034573D01*
X031471Y034589D01*
X031541Y034635D01*
X031546Y034644D01*
X034481D01*
X034481Y034644D01*
X034536Y034655D01*
X034582Y034686D01*
X034691Y034795D01*
X034691Y034795D01*
X034722Y034841D01*
X034733Y034896D01*
X034733Y034896D01*
Y035553D01*
X034741Y035559D01*
X034788Y035628D01*
X034804Y035710D01*
X034788Y035792D01*
X034741Y035861D01*
X034672Y035908D01*
X034590Y035924D01*
D02*
G37*
G36*
X041330Y034863D02*
Y034224D01*
X041969D01*
X041961Y034310D01*
X041921Y034440D01*
X041857Y034560D01*
X041771Y034665D01*
X041666Y034751D01*
X041546Y034815D01*
X041415Y034855D01*
X041330Y034863D01*
D02*
G37*
G36*
X041230D02*
X041145Y034855D01*
X041014Y034815D01*
X040894Y034751D01*
X040789Y034665D01*
X040703Y034560D01*
X040639Y034440D01*
X040599Y034310D01*
X040591Y034224D01*
X041230D01*
Y034863D01*
D02*
G37*
G36*
X075380Y061114D02*
X075298Y061098D01*
X075229Y061051D01*
X075182Y060982D01*
X075166Y060900D01*
X075182Y060818D01*
X075229Y060749D01*
X075298Y060702D01*
X075380Y060686D01*
X075462Y060702D01*
X075468Y060706D01*
X076550D01*
X076616Y060640D01*
Y035998D01*
X076612Y035992D01*
X076596Y035910D01*
X076612Y035828D01*
X076616Y035822D01*
Y034378D01*
X076612Y034372D01*
X076596Y034290D01*
X076612Y034208D01*
X076659Y034139D01*
X076728Y034092D01*
X076810Y034076D01*
X076892Y034092D01*
X076961Y034139D01*
X077008Y034208D01*
X077024Y034290D01*
X077008Y034372D01*
X077004Y034378D01*
Y035822D01*
X077008Y035828D01*
X077024Y035910D01*
X077008Y035992D01*
X077004Y035998D01*
Y060720D01*
X076989Y060794D01*
X076947Y060857D01*
X076767Y061037D01*
X076704Y061079D01*
X076630Y061094D01*
X075468D01*
X075462Y061098D01*
X075380Y061114D01*
D02*
G37*
G36*
X074531Y065702D02*
X074369Y065686D01*
X074212Y065639D01*
X074069Y065562D01*
X073942Y065458D01*
X073839Y065332D01*
X073762Y065188D01*
X073715Y065032D01*
X073699Y064870D01*
X073715Y064708D01*
X073762Y064552D01*
X073839Y064408D01*
X073942Y064282D01*
X074069Y064178D01*
X074212Y064101D01*
X074369Y064054D01*
X074531Y064038D01*
X074693Y064054D01*
X074849Y064101D01*
X074993Y064178D01*
X075119Y064282D01*
X075197Y064376D01*
X077647D01*
X077826Y064197D01*
Y035024D01*
X077843Y034896D01*
X077892Y034777D01*
X077971Y034674D01*
X078439Y034206D01*
X078542Y034127D01*
X078661Y034078D01*
X078789Y034061D01*
X081936D01*
X082013Y033967D01*
X082139Y033863D01*
X082283Y033786D01*
X082439Y033739D01*
X082602Y033723D01*
X082764Y033739D01*
X082920Y033786D01*
X083064Y033863D01*
X083190Y033967D01*
X083294Y034093D01*
X083371Y034237D01*
X083418Y034393D01*
X083434Y034555D01*
X083418Y034717D01*
X083371Y034874D01*
X083294Y035017D01*
X083190Y035143D01*
X083064Y035247D01*
X082920Y035324D01*
X082764Y035371D01*
X082602Y035387D01*
X082439Y035371D01*
X082283Y035324D01*
X082139Y035247D01*
X082013Y035143D01*
X081936Y035049D01*
X078993D01*
X078814Y035228D01*
Y064401D01*
X078797Y064529D01*
X078748Y064648D01*
X078669Y064751D01*
X078201Y065219D01*
X078098Y065298D01*
X077979Y065347D01*
X077851Y065364D01*
X075197D01*
X075119Y065458D01*
X074993Y065562D01*
X074849Y065639D01*
X074693Y065686D01*
X074531Y065702D01*
D02*
G37*
G36*
X066460D02*
X066298Y065686D01*
X066142Y065639D01*
X065998Y065562D01*
X065872Y065458D01*
X065768Y065332D01*
X065691Y065188D01*
X065644Y065032D01*
X065628Y064870D01*
X065644Y064708D01*
X065691Y064552D01*
X065768Y064408D01*
X065872Y064282D01*
X065998Y064178D01*
X066142Y064101D01*
X066298Y064054D01*
X066460Y064038D01*
X066622Y064054D01*
X066778Y064101D01*
X066922Y064178D01*
X067048Y064282D01*
X067126Y064376D01*
X071895D01*
X074037Y062234D01*
Y035221D01*
X073942Y035143D01*
X073839Y035017D01*
X073762Y034874D01*
X073715Y034717D01*
X073699Y034555D01*
X073715Y034393D01*
X073762Y034237D01*
X073839Y034093D01*
X073942Y033967D01*
X074069Y033863D01*
X074212Y033786D01*
X074369Y033739D01*
X074531Y033723D01*
X074693Y033739D01*
X074849Y033786D01*
X074993Y033863D01*
X075119Y033967D01*
X075223Y034093D01*
X075300Y034237D01*
X075347Y034393D01*
X075363Y034555D01*
X075347Y034717D01*
X075300Y034874D01*
X075223Y035017D01*
X075119Y035143D01*
X075025Y035221D01*
Y062439D01*
X075008Y062567D01*
X074959Y062686D01*
X074880Y062789D01*
X072449Y065219D01*
X072347Y065298D01*
X072228Y065347D01*
X072100Y065364D01*
X067126D01*
X067048Y065458D01*
X066922Y065562D01*
X066778Y065639D01*
X066622Y065686D01*
X066460Y065702D01*
D02*
G37*
G36*
X049334Y035387D02*
X049172Y035371D01*
X049016Y035324D01*
X048872Y035247D01*
X048746Y035143D01*
X048642Y035017D01*
X048565Y034874D01*
X048518Y034717D01*
X048502Y034555D01*
X048518Y034393D01*
X048565Y034237D01*
X048642Y034093D01*
X048746Y033967D01*
X048872Y033863D01*
X049016Y033786D01*
X049172Y033739D01*
X049334Y033723D01*
X049496Y033739D01*
X049652Y033786D01*
X049796Y033863D01*
X049922Y033967D01*
X050026Y034093D01*
X050103Y034237D01*
X050150Y034393D01*
X050166Y034555D01*
X050150Y034717D01*
X050103Y034874D01*
X050026Y035017D01*
X049922Y035143D01*
X049796Y035247D01*
X049652Y035324D01*
X049496Y035371D01*
X049334Y035387D01*
D02*
G37*
G36*
X041969Y034124D02*
X041330D01*
Y033485D01*
X041415Y033494D01*
X041546Y033533D01*
X041666Y033597D01*
X041771Y033684D01*
X041857Y033789D01*
X041921Y033909D01*
X041961Y034039D01*
X041969Y034124D01*
D02*
G37*
G36*
X041230D02*
X040591D01*
X040599Y034039D01*
X040639Y033909D01*
X040703Y033789D01*
X040789Y033684D01*
X040894Y033597D01*
X041014Y033533D01*
X041145Y033494D01*
X041230Y033485D01*
Y034124D01*
D02*
G37*
G36*
X059744Y063294D02*
X059662Y063278D01*
X059593Y063232D01*
X059547Y063162D01*
X059530Y063080D01*
X059547Y062998D01*
X059586Y062940D01*
X059588Y062892D01*
X059584Y062875D01*
X059542Y062812D01*
X059526Y062730D01*
X059542Y062648D01*
X059588Y062579D01*
X059597Y062573D01*
Y060072D01*
X059597Y060072D01*
X059608Y060018D01*
X059639Y059971D01*
X059861Y059749D01*
X059861Y059749D01*
X059907Y059718D01*
X059962Y059707D01*
X059962Y059707D01*
X067245D01*
Y037326D01*
X067245Y037326D01*
X067256Y037271D01*
X067287Y037225D01*
X067849Y036663D01*
X067849Y036663D01*
X067895Y036632D01*
X067950Y036621D01*
X067950Y036621D01*
X071343D01*
Y032796D01*
X071343Y032796D01*
X071354Y032741D01*
X071385Y032695D01*
X071696Y032383D01*
X071696Y032383D01*
X071743Y032352D01*
X071797Y032341D01*
X072767D01*
X072838Y032270D01*
X072836Y032260D01*
X072852Y032178D01*
X072899Y032109D01*
X072968Y032062D01*
X073050Y032046D01*
X073132Y032062D01*
X073201Y032109D01*
X073248Y032178D01*
X073264Y032260D01*
X073248Y032342D01*
X073233Y032364D01*
X073257Y032408D01*
X073878D01*
X073884Y032399D01*
X073953Y032353D01*
X074035Y032336D01*
X074117Y032353D01*
X074187Y032399D01*
X074233Y032469D01*
X074249Y032550D01*
X074237Y032611D01*
X074269Y032661D01*
X074604D01*
X074787Y032479D01*
X074784Y032469D01*
X074801Y032387D01*
X074847Y032318D01*
X074917Y032271D01*
X074999Y032255D01*
X075081Y032271D01*
X075150Y032318D01*
X075196Y032387D01*
X075213Y032469D01*
X075196Y032551D01*
X075150Y032620D01*
X075081Y032667D01*
X074999Y032683D01*
X074988Y032681D01*
X074894Y032775D01*
X074913Y032821D01*
X075794D01*
X075895Y032720D01*
X075893Y032710D01*
X075909Y032628D01*
X075955Y032559D01*
X076025Y032512D01*
X076107Y032496D01*
X076189Y032512D01*
X076258Y032559D01*
X076305Y032628D01*
X076321Y032710D01*
X076305Y032792D01*
X076258Y032861D01*
X076189Y032908D01*
X076107Y032924D01*
X076106Y032924D01*
X076083Y032949D01*
X076103Y032997D01*
X079327D01*
Y032767D01*
X079319Y032761D01*
X079272Y032692D01*
X079256Y032610D01*
X079272Y032528D01*
X079319Y032459D01*
X079388Y032412D01*
X079470Y032396D01*
X079552Y032412D01*
X079621Y032459D01*
X079635Y032479D01*
X079685D01*
X079699Y032459D01*
X079768Y032412D01*
X079850Y032396D01*
X079932Y032412D01*
X080001Y032459D01*
X080048Y032528D01*
X080064Y032610D01*
X080048Y032692D01*
X080001Y032761D01*
X079993Y032767D01*
Y033001D01*
X079982Y033056D01*
X079951Y033102D01*
X079951Y033102D01*
X079652Y033401D01*
X079606Y033432D01*
X079551Y033443D01*
X079551Y033443D01*
X072429D01*
Y037071D01*
X072429Y037071D01*
X072418Y037125D01*
X072387Y037171D01*
X072387Y037171D01*
X071887Y037671D01*
X071841Y037702D01*
X071786Y037713D01*
X071786Y037713D01*
X068386D01*
Y061372D01*
X068375Y061426D01*
X068345Y061473D01*
X068345Y061473D01*
X068286Y061531D01*
X068240Y061562D01*
X068185Y061573D01*
X068185Y061573D01*
X064535D01*
Y062427D01*
X064544Y062432D01*
X064590Y062502D01*
X064606Y062584D01*
X064590Y062666D01*
X064544Y062735D01*
X064474Y062782D01*
X064392Y062798D01*
X064310Y062782D01*
X064241Y062735D01*
X064194Y062666D01*
X064178Y062584D01*
X064194Y062502D01*
X064241Y062432D01*
X064249Y062427D01*
Y061498D01*
X064249Y061498D01*
X064257Y061459D01*
X064228Y061409D01*
X064103D01*
X064017Y061496D01*
Y062453D01*
X064026Y062459D01*
X064072Y062528D01*
X064088Y062610D01*
X064072Y062692D01*
X064026Y062761D01*
X063956Y062808D01*
X063874Y062824D01*
X063792Y062808D01*
X063723Y062761D01*
X063676Y062692D01*
X063660Y062610D01*
X063676Y062528D01*
X063723Y062459D01*
X063731Y062453D01*
Y061437D01*
X063731Y061437D01*
X063742Y061382D01*
X063773Y061336D01*
X063943Y061166D01*
X063943Y061166D01*
X063990Y061135D01*
X064044Y061124D01*
X064044Y061124D01*
X067937D01*
Y060434D01*
X067891Y060415D01*
X067838Y060468D01*
X067791Y060499D01*
X067737Y060510D01*
X067737Y060510D01*
X065599D01*
X065584Y060582D01*
X065538Y060651D01*
X065469Y060698D01*
X065387Y060714D01*
X065305Y060698D01*
X065235Y060651D01*
X065189Y060582D01*
X065183Y060552D01*
X065179Y060548D01*
X065127Y060530D01*
X065108Y060544D01*
X065095Y060606D01*
X065049Y060675D01*
X064979Y060722D01*
X064898Y060738D01*
X064816Y060722D01*
X064746Y060675D01*
X064700Y060606D01*
X064683Y060524D01*
X064700Y060442D01*
X064746Y060373D01*
X064816Y060326D01*
X064898Y060310D01*
X064908Y060312D01*
X065021Y060199D01*
X065002Y060153D01*
X060112D01*
Y061862D01*
X060162Y061872D01*
X060168Y061858D01*
X060233Y061774D01*
X060317Y061709D01*
X060416Y061668D01*
X060522Y061654D01*
X060627Y061668D01*
X060726Y061709D01*
X060810Y061774D01*
X060875Y061858D01*
X060916Y061957D01*
X060930Y062063D01*
X060916Y062168D01*
X060875Y062267D01*
X060810Y062351D01*
X060726Y062416D01*
X060627Y062457D01*
X060522Y062471D01*
X060416Y062457D01*
X060317Y062416D01*
X060233Y062351D01*
X060168Y062267D01*
X060162Y062254D01*
X060112Y062264D01*
Y062855D01*
X060112Y062855D01*
X060102Y062910D01*
X060071Y062956D01*
X060071Y062956D01*
X059956Y063070D01*
X059958Y063080D01*
X059942Y063162D01*
X059896Y063232D01*
X059826Y063278D01*
X059744Y063294D01*
D02*
G37*
G36*
X043630Y032638D02*
X043524Y032625D01*
X043426Y032584D01*
X043341Y032519D01*
X043276Y032434D01*
X043235Y032336D01*
X043222Y032230D01*
X043235Y032124D01*
X043276Y032026D01*
X043341Y031941D01*
X043426Y031876D01*
X043524Y031835D01*
X043630Y031822D01*
X043736Y031835D01*
X043834Y031876D01*
X043919Y031941D01*
X043984Y032026D01*
X044025Y032124D01*
X044038Y032230D01*
X044025Y032336D01*
X043984Y032434D01*
X043919Y032519D01*
X043834Y032584D01*
X043736Y032625D01*
X043630Y032638D01*
D02*
G37*
G36*
X082602Y032989D02*
X082487Y032978D01*
X082378Y032945D01*
X082277Y032891D01*
X082188Y032818D01*
X082115Y032729D01*
X082061Y032628D01*
X082028Y032518D01*
X082017Y032404D01*
X082028Y032290D01*
X082061Y032180D01*
X082115Y032079D01*
X082188Y031991D01*
X082277Y031918D01*
X082378Y031864D01*
X082487Y031831D01*
X082602Y031819D01*
X082716Y031831D01*
X082825Y031864D01*
X082927Y031918D01*
X083015Y031991D01*
X083088Y032079D01*
X083142Y032180D01*
X083175Y032290D01*
X083187Y032404D01*
X083175Y032518D01*
X083142Y032628D01*
X083088Y032729D01*
X083015Y032818D01*
X082927Y032891D01*
X082825Y032945D01*
X082716Y032978D01*
X082602Y032989D01*
D02*
G37*
G36*
X048870Y032310D02*
X048070D01*
Y031510D01*
X048870D01*
Y032310D01*
D02*
G37*
G36*
X047470Y032313D02*
X047366Y032300D01*
X047268Y032259D01*
X047185Y032195D01*
X047121Y032112D01*
X047080Y032014D01*
X047067Y031910D01*
X047080Y031806D01*
X047121Y031708D01*
X047185Y031625D01*
X047268Y031561D01*
X047366Y031520D01*
X047470Y031507D01*
X047574Y031520D01*
X047672Y031561D01*
X047755Y031625D01*
X047819Y031708D01*
X047860Y031806D01*
X047873Y031910D01*
X047860Y032014D01*
X047819Y032112D01*
X047755Y032195D01*
X047672Y032259D01*
X047574Y032300D01*
X047470Y032313D01*
D02*
G37*
G36*
X043680Y031642D02*
Y031280D01*
X044042D01*
X044034Y031338D01*
X043992Y031439D01*
X043926Y031526D01*
X043839Y031592D01*
X043738Y031634D01*
X043680Y031642D01*
D02*
G37*
G36*
X043580D02*
X043522Y031634D01*
X043421Y031592D01*
X043334Y031526D01*
X043268Y031439D01*
X043226Y031338D01*
X043218Y031280D01*
X043580D01*
Y031642D01*
D02*
G37*
G36*
X012660Y031708D02*
Y031160D01*
X013208D01*
X013201Y031228D01*
X013167Y031341D01*
X013111Y031445D01*
X013036Y031537D01*
X012945Y031612D01*
X012841Y031667D01*
X012728Y031702D01*
X012660Y031708D01*
D02*
G37*
G36*
X010660D02*
Y031160D01*
X011208D01*
X011201Y031228D01*
X011167Y031341D01*
X011111Y031445D01*
X011036Y031537D01*
X010945Y031612D01*
X010841Y031667D01*
X010728Y031702D01*
X010660Y031708D01*
D02*
G37*
G36*
X012560D02*
X012492Y031702D01*
X012379Y031667D01*
X012275Y031612D01*
X012184Y031537D01*
X012109Y031445D01*
X012053Y031341D01*
X012019Y031228D01*
X012012Y031160D01*
X012560D01*
Y031708D01*
D02*
G37*
G36*
X035650Y032005D02*
X031549D01*
X031456Y031986D01*
X031376Y031933D01*
X031200Y031757D01*
X031147Y031678D01*
X031129Y031584D01*
Y031188D01*
X031147Y031094D01*
X031200Y031015D01*
X031280Y030962D01*
X031374Y030943D01*
X031467Y030962D01*
X031547Y031015D01*
X031600Y031094D01*
X031618Y031188D01*
Y031483D01*
X031651Y031515D01*
X035650D01*
X035744Y031534D01*
X035823Y031587D01*
X035876Y031666D01*
X035895Y031760D01*
X035876Y031854D01*
X035823Y031933D01*
X035744Y031986D01*
X035650Y032005D01*
D02*
G37*
G36*
X044042Y031180D02*
X043680D01*
Y030818D01*
X043738Y030826D01*
X043839Y030868D01*
X043926Y030934D01*
X043992Y031021D01*
X044034Y031122D01*
X044042Y031180D01*
D02*
G37*
G36*
X043580D02*
X043218D01*
X043226Y031122D01*
X043268Y031021D01*
X043334Y030934D01*
X043421Y030868D01*
X043522Y030826D01*
X043580Y030818D01*
Y031180D01*
D02*
G37*
G36*
X039575Y043425D02*
X038945D01*
Y042695D01*
X039101D01*
Y039885D01*
X039101Y039885D01*
X039112Y039830D01*
X039143Y039784D01*
X039307Y039619D01*
X039307Y039619D01*
X039353Y039588D01*
X039408Y039577D01*
X039408Y039577D01*
X050478D01*
X050567Y039488D01*
Y031167D01*
X050559Y031161D01*
X050512Y031092D01*
X050496Y031010D01*
X050512Y030928D01*
X050559Y030859D01*
X050628Y030812D01*
X050710Y030796D01*
X050792Y030812D01*
X050861Y030859D01*
X050908Y030928D01*
X050924Y031010D01*
X050908Y031092D01*
X050861Y031161D01*
X050853Y031167D01*
Y039547D01*
X050853Y039547D01*
X050842Y039602D01*
X050811Y039648D01*
X050811Y039648D01*
X050638Y039821D01*
X050592Y039852D01*
X050537Y039863D01*
X050537Y039863D01*
X039467D01*
X039386Y039944D01*
Y042695D01*
X039575D01*
Y043425D01*
D02*
G37*
G36*
X078746Y031771D02*
X078632Y031760D01*
X078522Y031727D01*
X078421Y031673D01*
X078332Y031600D01*
X078259Y031511D01*
X078205Y031410D01*
X078172Y031300D01*
X078161Y031186D01*
X078172Y031072D01*
X078205Y030962D01*
X078259Y030861D01*
X078332Y030773D01*
X078383Y030731D01*
X078365Y030681D01*
X077654D01*
Y031112D01*
X077658Y031118D01*
X077674Y031200D01*
X077658Y031282D01*
X077611Y031351D01*
X077542Y031398D01*
X077460Y031414D01*
X077378Y031398D01*
X077309Y031351D01*
X077262Y031282D01*
X077246Y031200D01*
X077262Y031118D01*
X077266Y031112D01*
Y030681D01*
X073093D01*
X073019Y030666D01*
X072956Y030624D01*
X072703Y030371D01*
X072661Y030308D01*
X072646Y030234D01*
Y028908D01*
X072642Y028902D01*
X072626Y028820D01*
X072642Y028738D01*
X072689Y028669D01*
X072758Y028622D01*
X072840Y028606D01*
X072922Y028622D01*
X072991Y028669D01*
X073038Y028738D01*
X073054Y028820D01*
X073038Y028902D01*
X073034Y028908D01*
Y030154D01*
X073173Y030294D01*
X078503D01*
X078506Y030290D01*
Y029810D01*
X078310D01*
Y029030D01*
X078496D01*
Y028480D01*
X078300D01*
Y027700D01*
X078496D01*
Y027150D01*
X078300D01*
Y026370D01*
X078496D01*
Y025810D01*
X078300D01*
Y025030D01*
X078496D01*
Y017310D01*
X078300D01*
Y016530D01*
X078476D01*
Y015950D01*
X078300D01*
Y015170D01*
X078476D01*
Y014620D01*
X078280D01*
Y013840D01*
X078476D01*
Y013320D01*
X078280D01*
Y012540D01*
X079060D01*
Y013320D01*
X078864D01*
Y013840D01*
X079060D01*
Y014620D01*
X078864D01*
Y015170D01*
X079080D01*
Y015950D01*
X078864D01*
Y016530D01*
X079080D01*
Y017310D01*
X078884D01*
Y025030D01*
X079080D01*
Y025810D01*
X078884D01*
Y026370D01*
X079080D01*
Y027150D01*
X078884D01*
Y027700D01*
X079080D01*
Y028480D01*
X078884D01*
Y029030D01*
X079090D01*
Y029810D01*
X078894D01*
Y030370D01*
X078879Y030444D01*
X078837Y030507D01*
X078789Y030555D01*
X078807Y030607D01*
X078860Y030613D01*
X078970Y030646D01*
X079071Y030700D01*
X079159Y030773D01*
X079232Y030861D01*
X079286Y030962D01*
X079319Y031072D01*
X079331Y031186D01*
X079319Y031300D01*
X079286Y031410D01*
X079232Y031511D01*
X079159Y031600D01*
X079071Y031673D01*
X078970Y031727D01*
X078860Y031760D01*
X078746Y031771D01*
D02*
G37*
G36*
X045802Y031771D02*
X045687Y031760D01*
X045578Y031727D01*
X045477Y031673D01*
X045388Y031600D01*
X045315Y031511D01*
X045261Y031410D01*
X045228Y031300D01*
X045217Y031186D01*
X045228Y031072D01*
X045261Y030962D01*
X045315Y030861D01*
X045388Y030773D01*
X045477Y030700D01*
X045578Y030646D01*
X045687Y030613D01*
X045802Y030601D01*
X045916Y030613D01*
X046025Y030646D01*
X046127Y030700D01*
X046215Y030773D01*
X046288Y030861D01*
X046342Y030962D01*
X046375Y031072D01*
X046386Y031186D01*
X046375Y031300D01*
X046342Y031410D01*
X046288Y031511D01*
X046215Y031600D01*
X046127Y031673D01*
X046025Y031727D01*
X045916Y031760D01*
X045802Y031771D01*
D02*
G37*
G36*
X013208Y031060D02*
X012660D01*
Y030512D01*
X012728Y030519D01*
X012841Y030553D01*
X012945Y030609D01*
X013036Y030684D01*
X013111Y030775D01*
X013167Y030880D01*
X013201Y030993D01*
X013208Y031060D01*
D02*
G37*
G36*
X011208D02*
X010660D01*
Y030512D01*
X010728Y030519D01*
X010841Y030553D01*
X010945Y030609D01*
X011036Y030684D01*
X011111Y030775D01*
X011167Y030880D01*
X011201Y030993D01*
X011208Y031060D01*
D02*
G37*
G36*
X012560D02*
X012012D01*
X012019Y030993D01*
X012053Y030880D01*
X012109Y030775D01*
X012184Y030684D01*
X012275Y030609D01*
X012379Y030553D01*
X012492Y030519D01*
X012560Y030512D01*
Y031060D01*
D02*
G37*
G36*
X054986Y031083D02*
X054886Y031070D01*
X054792Y031031D01*
X054711Y030969D01*
X054650Y030889D01*
X054611Y030795D01*
X054598Y030694D01*
X054611Y030594D01*
X054650Y030500D01*
X054711Y030419D01*
X054792Y030358D01*
X054886Y030319D01*
X054986Y030306D01*
X055087Y030319D01*
X055181Y030358D01*
X055261Y030419D01*
X055323Y030500D01*
X055362Y030594D01*
X055375Y030694D01*
X055362Y030795D01*
X055323Y030889D01*
X055261Y030969D01*
X055181Y031031D01*
X055087Y031070D01*
X054986Y031083D01*
D02*
G37*
G36*
X044035Y030635D02*
X043225D01*
Y029825D01*
X044035D01*
Y030635D01*
D02*
G37*
G36*
X012660Y029708D02*
Y029160D01*
X013208D01*
X013201Y029228D01*
X013167Y029341D01*
X013111Y029445D01*
X013036Y029537D01*
X012945Y029612D01*
X012841Y029667D01*
X012728Y029702D01*
X012660Y029708D01*
D02*
G37*
G36*
X010660D02*
Y029160D01*
X011208D01*
X011201Y029228D01*
X011167Y029341D01*
X011111Y029445D01*
X011036Y029537D01*
X010945Y029612D01*
X010841Y029667D01*
X010728Y029702D01*
X010660Y029708D01*
D02*
G37*
G36*
X012560D02*
X012492Y029702D01*
X012379Y029667D01*
X012275Y029612D01*
X012184Y029537D01*
X012109Y029445D01*
X012053Y029341D01*
X012019Y029228D01*
X012012Y029160D01*
X012560D01*
Y029708D01*
D02*
G37*
G36*
X077740Y029810D02*
X076960D01*
Y029614D01*
X076290D01*
X076216Y029599D01*
X076153Y029557D01*
X075723Y029127D01*
X075681Y029064D01*
X075666Y028990D01*
Y027882D01*
X075663Y027879D01*
X074357D01*
X074346Y027886D01*
X074264Y027902D01*
X074182Y027886D01*
X074171Y027879D01*
X060406D01*
X060332Y027864D01*
X060321Y027856D01*
X060279Y027848D01*
X060209Y027801D01*
X060163Y027732D01*
X060147Y027650D01*
X060163Y027568D01*
X060209Y027499D01*
X060279Y027452D01*
X060361Y027436D01*
X060443Y027452D01*
X060501Y027491D01*
X060839D01*
X060858Y027445D01*
X060224Y026811D01*
X060182Y026748D01*
X060167Y026674D01*
Y025208D01*
X060163Y025202D01*
X060147Y025120D01*
X060163Y025038D01*
X060209Y024969D01*
X060279Y024922D01*
X060361Y024906D01*
X060443Y024922D01*
X060512Y024969D01*
X060559Y025038D01*
X060575Y025120D01*
X060559Y025202D01*
X060554Y025208D01*
Y026593D01*
X061140Y027179D01*
X074663D01*
X074681Y027167D01*
X074762Y027151D01*
X074844Y027167D01*
X074862Y027179D01*
X075915D01*
X075990Y027194D01*
X076052Y027236D01*
X076713Y027896D01*
X076950D01*
Y027700D01*
X077730D01*
Y028480D01*
X076950D01*
Y028284D01*
X076633D01*
X076559Y028269D01*
X076496Y028227D01*
X076104Y027835D01*
X076054Y027856D01*
Y028910D01*
X076370Y029226D01*
X076960D01*
Y029030D01*
X077740D01*
Y029810D01*
D02*
G37*
G36*
X013208Y029060D02*
X012660D01*
Y028512D01*
X012728Y028519D01*
X012841Y028553D01*
X012945Y028609D01*
X013036Y028684D01*
X013111Y028775D01*
X013167Y028880D01*
X013201Y028993D01*
X013208Y029060D01*
D02*
G37*
G36*
X011208D02*
X010660D01*
Y028512D01*
X010728Y028519D01*
X010841Y028553D01*
X010945Y028609D01*
X011036Y028684D01*
X011111Y028775D01*
X011167Y028880D01*
X011201Y028993D01*
X011208Y029060D01*
D02*
G37*
G36*
X012560D02*
X012012D01*
X012019Y028993D01*
X012053Y028880D01*
X012109Y028775D01*
X012184Y028684D01*
X012275Y028609D01*
X012379Y028553D01*
X012492Y028519D01*
X012560Y028512D01*
Y029060D01*
D02*
G37*
G36*
X071624Y029252D02*
X071524Y029239D01*
X071430Y029200D01*
X071349Y029138D01*
X071288Y029058D01*
X071249Y028964D01*
X071236Y028864D01*
X071249Y028763D01*
X071288Y028669D01*
X071349Y028589D01*
X071430Y028527D01*
X071524Y028488D01*
X071624Y028475D01*
X071725Y028488D01*
X071819Y028527D01*
X071899Y028589D01*
X071961Y028669D01*
X072000Y028763D01*
X072013Y028864D01*
X072000Y028964D01*
X071961Y029058D01*
X071899Y029138D01*
X071819Y029200D01*
X071725Y029239D01*
X071624Y029252D01*
D02*
G37*
G36*
X069656D02*
X069555Y029239D01*
X069461Y029200D01*
X069381Y029138D01*
X069319Y029058D01*
X069280Y028964D01*
X069267Y028864D01*
X069280Y028763D01*
X069319Y028669D01*
X069381Y028589D01*
X069461Y028527D01*
X069555Y028488D01*
X069656Y028475D01*
X069756Y028488D01*
X069850Y028527D01*
X069931Y028589D01*
X069992Y028669D01*
X070031Y028763D01*
X070044Y028864D01*
X070031Y028964D01*
X069992Y029058D01*
X069931Y029138D01*
X069850Y029200D01*
X069756Y029239D01*
X069656Y029252D01*
D02*
G37*
G36*
X066796Y029212D02*
X066696Y029199D01*
X066602Y029160D01*
X066522Y029098D01*
X066460Y029018D01*
X066421Y028924D01*
X066408Y028824D01*
X066421Y028723D01*
X066460Y028629D01*
X066522Y028549D01*
X066602Y028487D01*
X066696Y028448D01*
X066796Y028435D01*
X066897Y028448D01*
X066991Y028487D01*
X067071Y028549D01*
X067133Y028629D01*
X067172Y028723D01*
X067185Y028824D01*
X067172Y028924D01*
X067133Y029018D01*
X067071Y029098D01*
X066991Y029160D01*
X066897Y029199D01*
X066796Y029212D01*
D02*
G37*
G36*
X064828D02*
X064727Y029199D01*
X064633Y029160D01*
X064553Y029098D01*
X064491Y029018D01*
X064452Y028924D01*
X064439Y028824D01*
X064452Y028723D01*
X064491Y028629D01*
X064553Y028549D01*
X064633Y028487D01*
X064727Y028448D01*
X064828Y028435D01*
X064928Y028448D01*
X065022Y028487D01*
X065103Y028549D01*
X065164Y028629D01*
X065203Y028723D01*
X065216Y028824D01*
X065203Y028924D01*
X065164Y029018D01*
X065103Y029098D01*
X065022Y029160D01*
X064928Y029199D01*
X064828Y029212D01*
D02*
G37*
G36*
X062014D02*
X061914Y029199D01*
X061820Y029160D01*
X061739Y029098D01*
X061678Y029018D01*
X061639Y028924D01*
X061626Y028824D01*
X061639Y028723D01*
X061678Y028629D01*
X061739Y028549D01*
X061820Y028487D01*
X061914Y028448D01*
X062014Y028435D01*
X062115Y028448D01*
X062209Y028487D01*
X062289Y028549D01*
X062351Y028629D01*
X062390Y028723D01*
X062403Y028824D01*
X062390Y028924D01*
X062351Y029018D01*
X062289Y029098D01*
X062209Y029160D01*
X062115Y029199D01*
X062014Y029212D01*
D02*
G37*
G36*
X060046D02*
X059945Y029199D01*
X059851Y029160D01*
X059771Y029098D01*
X059709Y029018D01*
X059670Y028924D01*
X059657Y028824D01*
X059670Y028723D01*
X059709Y028629D01*
X059771Y028549D01*
X059851Y028487D01*
X059945Y028448D01*
X060046Y028435D01*
X060146Y028448D01*
X060240Y028487D01*
X060321Y028549D01*
X060382Y028629D01*
X060421Y028723D01*
X060434Y028824D01*
X060421Y028924D01*
X060382Y029018D01*
X060321Y029098D01*
X060240Y029160D01*
X060146Y029199D01*
X060046Y029212D01*
D02*
G37*
G36*
X054986Y029114D02*
X054886Y029101D01*
X054792Y029062D01*
X054711Y029001D01*
X054650Y028920D01*
X054611Y028826D01*
X054598Y028726D01*
X054611Y028625D01*
X054650Y028531D01*
X054711Y028451D01*
X054792Y028389D01*
X054886Y028350D01*
X054986Y028337D01*
X055087Y028350D01*
X055181Y028389D01*
X055261Y028451D01*
X055323Y028531D01*
X055362Y028625D01*
X055375Y028726D01*
X055362Y028826D01*
X055323Y028920D01*
X055261Y029001D01*
X055181Y029062D01*
X055087Y029101D01*
X054986Y029114D01*
D02*
G37*
G36*
X038365Y029012D02*
X036807D01*
Y027454D01*
X038365D01*
Y029012D01*
D02*
G37*
G36*
X048610Y029016D02*
X048457Y029001D01*
X048310Y028956D01*
X048175Y028884D01*
X048057Y028787D01*
X047959Y028668D01*
X047887Y028533D01*
X047842Y028386D01*
X047827Y028233D01*
X047842Y028081D01*
X047887Y027934D01*
X047959Y027798D01*
X048057Y027680D01*
X048175Y027582D01*
X048310Y027510D01*
X048457Y027466D01*
X048610Y027451D01*
X048763Y027466D01*
X048910Y027510D01*
X049045Y027582D01*
X049163Y027680D01*
X049261Y027798D01*
X049333Y027934D01*
X049378Y028081D01*
X049393Y028233D01*
X049378Y028386D01*
X049333Y028533D01*
X049261Y028668D01*
X049163Y028787D01*
X049045Y028884D01*
X048910Y028956D01*
X048763Y029001D01*
X048610Y029016D01*
D02*
G37*
G36*
X043395Y027185D02*
X042765D01*
Y026963D01*
X042059D01*
X042059Y026963D01*
X042004Y026952D01*
X041958Y026921D01*
X041958Y026921D01*
X041792Y026755D01*
X029913D01*
X029907Y026764D01*
X029838Y026810D01*
X029756Y026826D01*
X029674Y026810D01*
X029605Y026764D01*
X029558Y026694D01*
X029542Y026612D01*
X029558Y026530D01*
X029605Y026461D01*
X029674Y026414D01*
X029756Y026398D01*
X029838Y026414D01*
X029907Y026461D01*
X029913Y026469D01*
X041851D01*
X041851Y026469D01*
X041905Y026480D01*
X041952Y026511D01*
X042118Y026677D01*
X042765D01*
Y026455D01*
X043395D01*
Y026677D01*
X043649D01*
Y026455D01*
X044279D01*
Y027185D01*
X043649D01*
Y026963D01*
X043395D01*
Y027185D01*
D02*
G37*
G36*
X077730Y027150D02*
X076950D01*
Y026954D01*
X075353D01*
X075340Y026963D01*
X075258Y026979D01*
X075176Y026963D01*
X075163Y026954D01*
X067841D01*
X067767Y026939D01*
X067704Y026897D01*
X067679Y026872D01*
X067658Y026868D01*
X067589Y026821D01*
X067542Y026752D01*
X067526Y026670D01*
X067542Y026588D01*
X067589Y026519D01*
X067658Y026472D01*
X067740Y026456D01*
X067822Y026472D01*
X067891Y026519D01*
X067923Y026566D01*
X075179D01*
X075258Y026551D01*
X075336Y026566D01*
X076950D01*
Y026370D01*
X077730D01*
Y027150D01*
D02*
G37*
G36*
X065150Y026555D02*
X065056Y026536D01*
X064977Y026483D01*
X064924Y026404D01*
X064905Y026310D01*
X064924Y026216D01*
X064977Y026137D01*
X064980Y026134D01*
X065059Y026081D01*
X065153Y026063D01*
X066045D01*
X066138Y026081D01*
X066218Y026134D01*
X066271Y026214D01*
X066289Y026307D01*
X066271Y026401D01*
X066218Y026480D01*
X066138Y026533D01*
X066045Y026552D01*
X065164D01*
X065150Y026555D01*
D02*
G37*
G36*
X043405Y026295D02*
X043130D01*
Y025970D01*
X043405D01*
Y026295D01*
D02*
G37*
G36*
X043030D02*
X042755D01*
Y025970D01*
X043030D01*
Y026295D01*
D02*
G37*
G36*
X044289Y026295D02*
X044014D01*
Y025970D01*
X044289D01*
Y026295D01*
D02*
G37*
G36*
X043914D02*
X043639D01*
Y025970D01*
X043914D01*
Y026295D01*
D02*
G37*
G36*
X054986Y026473D02*
X054886Y026460D01*
X054792Y026421D01*
X054711Y026359D01*
X054650Y026279D01*
X054611Y026185D01*
X054598Y026084D01*
X054611Y025984D01*
X054650Y025890D01*
X054711Y025809D01*
X054792Y025748D01*
X054886Y025709D01*
X054986Y025696D01*
X055087Y025709D01*
X055181Y025748D01*
X055261Y025809D01*
X055323Y025890D01*
X055362Y025984D01*
X055375Y026084D01*
X055362Y026185D01*
X055323Y026279D01*
X055261Y026359D01*
X055181Y026421D01*
X055087Y026460D01*
X054986Y026473D01*
D02*
G37*
G36*
X048610Y027244D02*
X048457Y027229D01*
X048310Y027185D01*
X048175Y027112D01*
X048057Y027015D01*
X047959Y026897D01*
X047887Y026761D01*
X047842Y026614D01*
X047827Y026462D01*
X047842Y026309D01*
X047887Y026162D01*
X047959Y026027D01*
X048057Y025908D01*
X048175Y025811D01*
X048310Y025738D01*
X048457Y025694D01*
X048610Y025679D01*
X048763Y025694D01*
X048910Y025738D01*
X049045Y025811D01*
X049163Y025908D01*
X049261Y026027D01*
X049333Y026162D01*
X049378Y026309D01*
X049393Y026462D01*
X049378Y026614D01*
X049333Y026761D01*
X049261Y026897D01*
X049163Y027015D01*
X049045Y027112D01*
X048910Y027185D01*
X048763Y027229D01*
X048610Y027244D01*
D02*
G37*
G36*
X063690Y027045D02*
X063596Y027026D01*
X063517Y026973D01*
X063464Y026894D01*
X063445Y026800D01*
Y025890D01*
X063464Y025796D01*
X063517Y025717D01*
X063596Y025664D01*
X063690Y025645D01*
X063784Y025664D01*
X063863Y025717D01*
X063916Y025796D01*
X063935Y025890D01*
Y026800D01*
X063916Y026894D01*
X063863Y026973D01*
X063784Y027026D01*
X063690Y027045D01*
D02*
G37*
G36*
X077730Y025810D02*
X076950D01*
Y025614D01*
X075869D01*
X075843Y025631D01*
X075761Y025647D01*
X075679Y025631D01*
X075654Y025614D01*
X067997D01*
X067944Y025667D01*
X067907Y025721D01*
X067838Y025768D01*
X067756Y025784D01*
X067674Y025768D01*
X067605Y025721D01*
X067558Y025652D01*
X067542Y025570D01*
X067558Y025488D01*
X067605Y025419D01*
X067674Y025372D01*
X067695Y025368D01*
X067780Y025283D01*
X067843Y025241D01*
X067917Y025226D01*
X075723D01*
X075761Y025219D01*
X075799Y025226D01*
X076950D01*
Y025030D01*
X077730D01*
Y025810D01*
D02*
G37*
G36*
X043405Y025870D02*
X043130D01*
Y025545D01*
X043405D01*
Y025870D01*
D02*
G37*
G36*
X043030D02*
X042755D01*
Y025545D01*
X043030D01*
Y025870D01*
D02*
G37*
G36*
X044289Y025870D02*
X044014D01*
Y025545D01*
X044289D01*
Y025870D01*
D02*
G37*
G36*
X043914D02*
X043639D01*
Y025545D01*
X043914D01*
Y025870D01*
D02*
G37*
G36*
X014351Y025620D02*
X014272Y025610D01*
X014152Y025560D01*
X014049Y025481D01*
X013982Y025393D01*
X013977Y025391D01*
X013933Y025389D01*
X013922Y025393D01*
X013860Y025473D01*
X013759Y025551D01*
X013641Y025600D01*
X013515Y025616D01*
X013389Y025600D01*
X013271Y025551D01*
X013170Y025473D01*
X013092Y025372D01*
X013044Y025255D01*
X013027Y025129D01*
X013044Y025002D01*
X013092Y024885D01*
X013170Y024784D01*
X013271Y024706D01*
X013389Y024657D01*
X013515Y024641D01*
X013641Y024657D01*
X013759Y024706D01*
X013860Y024784D01*
X013922Y024864D01*
X013933Y024868D01*
X013977Y024866D01*
X013982Y024864D01*
X014049Y024776D01*
X014152Y024697D01*
X014272Y024648D01*
X014351Y024637D01*
Y025129D01*
Y025620D01*
D02*
G37*
G36*
X014451D02*
Y025178D01*
X014892D01*
X014882Y025257D01*
X014832Y025377D01*
X014753Y025481D01*
X014650Y025560D01*
X014530Y025610D01*
X014451Y025620D01*
D02*
G37*
G36*
X048660Y025478D02*
Y024740D01*
X049398D01*
X049388Y024845D01*
X049342Y024993D01*
X049269Y025130D01*
X049171Y025251D01*
X049050Y025349D01*
X048913Y025422D01*
X048765Y025468D01*
X048660Y025478D01*
D02*
G37*
G36*
X048560D02*
X048455Y025468D01*
X048307Y025422D01*
X048170Y025349D01*
X048049Y025251D01*
X047951Y025130D01*
X047878Y024993D01*
X047832Y024845D01*
X047822Y024740D01*
X048560D01*
Y025478D01*
D02*
G37*
G36*
X010956Y025616D02*
X010829Y025600D01*
X010712Y025551D01*
X010611Y025473D01*
X010533Y025372D01*
X010484Y025255D01*
X010468Y025129D01*
X010484Y025002D01*
X010533Y024885D01*
X010611Y024784D01*
X010712Y024706D01*
X010829Y024657D01*
X010956Y024641D01*
X011082Y024657D01*
X011200Y024706D01*
X011301Y024784D01*
X011378Y024885D01*
X011427Y025002D01*
X011444Y025129D01*
X011427Y025255D01*
X011378Y025372D01*
X011301Y025473D01*
X011200Y025551D01*
X011082Y025600D01*
X010956Y025616D01*
D02*
G37*
G36*
X014892Y025078D02*
X014451D01*
Y024637D01*
X014530Y024648D01*
X014650Y024697D01*
X014753Y024776D01*
X014832Y024880D01*
X014882Y025000D01*
X014892Y025078D01*
D02*
G37*
G36*
X037586Y025473D02*
X037434Y025458D01*
X037287Y025413D01*
X037152Y025341D01*
X037033Y025243D01*
X036936Y025125D01*
X036863Y024990D01*
X036819Y024843D01*
X036804Y024690D01*
X036819Y024537D01*
X036863Y024390D01*
X036936Y024255D01*
X037033Y024137D01*
X037152Y024039D01*
X037287Y023967D01*
X037434Y023922D01*
X037586Y023907D01*
X037739Y023922D01*
X037886Y023967D01*
X038021Y024039D01*
X038140Y024137D01*
X038237Y024255D01*
X038310Y024390D01*
X038354Y024537D01*
X038369Y024690D01*
X038354Y024843D01*
X038310Y024990D01*
X038237Y025125D01*
X038140Y025243D01*
X038021Y025341D01*
X037886Y025413D01*
X037739Y025458D01*
X037586Y025473D01*
D02*
G37*
G36*
X049398Y024640D02*
X048660D01*
Y023902D01*
X048765Y023912D01*
X048913Y023958D01*
X049050Y024031D01*
X049171Y024129D01*
X049269Y024250D01*
X049342Y024387D01*
X049388Y024535D01*
X049398Y024640D01*
D02*
G37*
G36*
X048560D02*
X047822D01*
X047832Y024535D01*
X047878Y024387D01*
X047951Y024250D01*
X048049Y024129D01*
X048170Y024031D01*
X048307Y023958D01*
X048455Y023912D01*
X048560Y023902D01*
Y024640D01*
D02*
G37*
G36*
X074959Y024506D02*
X074910D01*
Y023901D01*
X075608D01*
X075601Y023979D01*
X075563Y024102D01*
X075503Y024215D01*
X075422Y024314D01*
X075322Y024395D01*
X075209Y024456D01*
X075086Y024493D01*
X074959Y024506D01*
D02*
G37*
G36*
X074810D02*
X074761D01*
X074634Y024493D01*
X074511Y024456D01*
X074398Y024395D01*
X074299Y024314D01*
X074217Y024215D01*
X074157Y024102D01*
X074119Y023979D01*
X074112Y023901D01*
X074810D01*
Y024506D01*
D02*
G37*
G36*
X054986Y024504D02*
X054886Y024491D01*
X054792Y024452D01*
X054711Y024391D01*
X054650Y024310D01*
X054611Y024216D01*
X054598Y024116D01*
X054611Y024015D01*
X054650Y023921D01*
X054711Y023841D01*
X054792Y023779D01*
X054886Y023740D01*
X054986Y023727D01*
X055087Y023740D01*
X055181Y023779D01*
X055261Y023841D01*
X055323Y023921D01*
X055362Y024015D01*
X055375Y024116D01*
X055362Y024216D01*
X055323Y024310D01*
X055261Y024391D01*
X055181Y024452D01*
X055087Y024491D01*
X054986Y024504D01*
D02*
G37*
G36*
X011990Y023552D02*
Y023210D01*
X012332D01*
X012325Y023263D01*
X012285Y023359D01*
X012222Y023442D01*
X012139Y023505D01*
X012043Y023545D01*
X011990Y023552D01*
D02*
G37*
G36*
X011890D02*
X011837Y023545D01*
X011741Y023505D01*
X011658Y023442D01*
X011595Y023359D01*
X011555Y023263D01*
X011548Y023210D01*
X011890D01*
Y023552D01*
D02*
G37*
G36*
X075608Y023801D02*
X074910D01*
Y023197D01*
X074959D01*
X075086Y023210D01*
X075209Y023247D01*
X075322Y023307D01*
X075422Y023389D01*
X075503Y023488D01*
X075563Y023601D01*
X075601Y023724D01*
X075608Y023801D01*
D02*
G37*
G36*
X074810D02*
X074112D01*
X074119Y023724D01*
X074157Y023601D01*
X074217Y023488D01*
X074299Y023389D01*
X074398Y023307D01*
X074511Y023247D01*
X074634Y023210D01*
X074761Y023197D01*
X074810D01*
Y023801D01*
D02*
G37*
G36*
X071404Y023932D02*
X071304Y023919D01*
X071210Y023880D01*
X071129Y023818D01*
X071068Y023738D01*
X071029Y023644D01*
X071016Y023544D01*
X071029Y023443D01*
X071068Y023349D01*
X071129Y023269D01*
X071210Y023207D01*
X071304Y023168D01*
X071404Y023155D01*
X071505Y023168D01*
X071598Y023207D01*
X071679Y023269D01*
X071741Y023349D01*
X071779Y023443D01*
X071793Y023544D01*
X071779Y023644D01*
X071741Y023738D01*
X071679Y023818D01*
X071598Y023880D01*
X071505Y023919D01*
X071404Y023932D01*
D02*
G37*
G36*
X069436D02*
X069335Y023919D01*
X069241Y023880D01*
X069161Y023818D01*
X069099Y023738D01*
X069060Y023644D01*
X069047Y023544D01*
X069060Y023443D01*
X069099Y023349D01*
X069161Y023269D01*
X069241Y023207D01*
X069335Y023168D01*
X069436Y023155D01*
X069536Y023168D01*
X069630Y023207D01*
X069710Y023269D01*
X069772Y023349D01*
X069811Y023443D01*
X069824Y023544D01*
X069811Y023644D01*
X069772Y023738D01*
X069710Y023818D01*
X069630Y023880D01*
X069536Y023919D01*
X069436Y023932D01*
D02*
G37*
G36*
X066754D02*
X066654Y023919D01*
X066560Y023880D01*
X066479Y023818D01*
X066418Y023738D01*
X066379Y023644D01*
X066365Y023544D01*
X066379Y023443D01*
X066418Y023349D01*
X066479Y023269D01*
X066560Y023207D01*
X066654Y023168D01*
X066754Y023155D01*
X066855Y023168D01*
X066948Y023207D01*
X067029Y023269D01*
X067091Y023349D01*
X067129Y023443D01*
X067143Y023544D01*
X067129Y023644D01*
X067091Y023738D01*
X067029Y023818D01*
X066948Y023880D01*
X066855Y023919D01*
X066754Y023932D01*
D02*
G37*
G36*
X064786D02*
X064685Y023919D01*
X064591Y023880D01*
X064511Y023818D01*
X064449Y023738D01*
X064410Y023644D01*
X064397Y023544D01*
X064410Y023443D01*
X064449Y023349D01*
X064511Y023269D01*
X064591Y023207D01*
X064685Y023168D01*
X064786Y023155D01*
X064886Y023168D01*
X064980Y023207D01*
X065060Y023269D01*
X065122Y023349D01*
X065161Y023443D01*
X065174Y023544D01*
X065161Y023644D01*
X065122Y023738D01*
X065060Y023818D01*
X064980Y023880D01*
X064886Y023919D01*
X064786Y023932D01*
D02*
G37*
G36*
X062064Y023912D02*
X061964Y023899D01*
X061870Y023860D01*
X061789Y023798D01*
X061728Y023718D01*
X061689Y023624D01*
X061676Y023524D01*
X061689Y023423D01*
X061728Y023329D01*
X061789Y023249D01*
X061870Y023187D01*
X061964Y023148D01*
X062064Y023135D01*
X062165Y023148D01*
X062258Y023187D01*
X062339Y023249D01*
X062401Y023329D01*
X062439Y023423D01*
X062453Y023524D01*
X062439Y023624D01*
X062401Y023718D01*
X062339Y023798D01*
X062258Y023860D01*
X062165Y023899D01*
X062064Y023912D01*
D02*
G37*
G36*
X060096D02*
X059995Y023899D01*
X059901Y023860D01*
X059821Y023798D01*
X059759Y023718D01*
X059720Y023624D01*
X059707Y023524D01*
X059720Y023423D01*
X059759Y023329D01*
X059821Y023249D01*
X059901Y023187D01*
X059995Y023148D01*
X060096Y023135D01*
X060196Y023148D01*
X060290Y023187D01*
X060370Y023249D01*
X060432Y023329D01*
X060471Y023423D01*
X060484Y023524D01*
X060471Y023624D01*
X060432Y023718D01*
X060370Y023798D01*
X060290Y023860D01*
X060196Y023899D01*
X060096Y023912D01*
D02*
G37*
G36*
X012332Y023110D02*
X011990D01*
Y022768D01*
X012043Y022775D01*
X012139Y022815D01*
X012222Y022878D01*
X012285Y022961D01*
X012325Y023057D01*
X012332Y023110D01*
D02*
G37*
G36*
X011890D02*
X011548D01*
X011555Y023057D01*
X011595Y022961D01*
X011658Y022878D01*
X011741Y022815D01*
X011837Y022775D01*
X011890Y022768D01*
Y023110D01*
D02*
G37*
G36*
X043630Y023178D02*
X043524Y023165D01*
X043426Y023124D01*
X043341Y023059D01*
X043276Y022974D01*
X043235Y022876D01*
X043222Y022770D01*
X043235Y022664D01*
X043276Y022566D01*
X043341Y022481D01*
X043426Y022416D01*
X043524Y022375D01*
X043630Y022362D01*
X043736Y022375D01*
X043834Y022416D01*
X043919Y022481D01*
X043984Y022566D01*
X044025Y022664D01*
X044038Y022770D01*
X044025Y022876D01*
X043984Y022974D01*
X043919Y023059D01*
X043834Y023124D01*
X043736Y023165D01*
X043630Y023178D01*
D02*
G37*
G36*
X072640Y022356D02*
X072558Y022340D01*
X072549Y022334D01*
X059154D01*
X059148Y022338D01*
X059066Y022354D01*
X058984Y022338D01*
X058915Y022291D01*
X058868Y022222D01*
X058852Y022140D01*
X058868Y022058D01*
X058915Y021989D01*
X058984Y021942D01*
X059052Y021929D01*
X059075Y021880D01*
X058929Y021735D01*
X058887Y021672D01*
X058872Y021598D01*
Y021028D01*
X058868Y021022D01*
X058852Y020940D01*
X058868Y020858D01*
X058915Y020789D01*
X058984Y020742D01*
X059066Y020726D01*
X059148Y020742D01*
X059217Y020789D01*
X059264Y020858D01*
X059280Y020940D01*
X059264Y021022D01*
X059260Y021028D01*
Y021518D01*
X059428Y021686D01*
X072359D01*
X072465Y021580D01*
X072527Y021538D01*
X072602Y021523D01*
X073257D01*
X073331Y021538D01*
X073394Y021580D01*
X073502Y021689D01*
X074068D01*
X074074Y021685D01*
X074156Y021669D01*
X074238Y021685D01*
X074307Y021731D01*
X074354Y021801D01*
X074370Y021883D01*
X074354Y021965D01*
X074307Y022034D01*
X074238Y022081D01*
X074156Y022097D01*
X074074Y022081D01*
X074068Y022076D01*
X073422D01*
X073348Y022062D01*
X073285Y022020D01*
X073176Y021911D01*
X072763D01*
X072747Y021961D01*
X072791Y021990D01*
X072838Y022060D01*
X072854Y022142D01*
X072838Y022224D01*
X072791Y022293D01*
X072722Y022340D01*
X072640Y022356D01*
D02*
G37*
G36*
X077813Y022778D02*
X077708Y022765D01*
X077611Y022724D01*
X077527Y022660D01*
X077463Y022577D01*
X077423Y022479D01*
X077409Y022375D01*
X077423Y022270D01*
X077463Y022173D01*
X077527Y022090D01*
X077611Y022025D01*
X077708Y021985D01*
X077813Y021971D01*
X077917Y021985D01*
X078014Y022025D01*
X078098Y022090D01*
X078162Y022173D01*
X078202Y022270D01*
X078216Y022375D01*
X078202Y022479D01*
X078162Y022577D01*
X078098Y022660D01*
X078014Y022724D01*
X077917Y022765D01*
X077813Y022778D01*
D02*
G37*
G36*
X043680Y022182D02*
Y021820D01*
X044042D01*
X044034Y021878D01*
X043992Y021979D01*
X043926Y022066D01*
X043839Y022132D01*
X043738Y022174D01*
X043680Y022182D01*
D02*
G37*
G36*
X043580D02*
X043522Y022174D01*
X043421Y022132D01*
X043334Y022066D01*
X043268Y021979D01*
X043226Y021878D01*
X043218Y021820D01*
X043580D01*
Y022182D01*
D02*
G37*
G36*
X077863Y021798D02*
Y021441D01*
X078220D01*
X078212Y021498D01*
X078171Y021597D01*
X078105Y021683D01*
X078020Y021749D01*
X077920Y021790D01*
X077863Y021798D01*
D02*
G37*
G36*
X077763Y021798D02*
X077706Y021790D01*
X077606Y021749D01*
X077520Y021683D01*
X077455Y021597D01*
X077413Y021498D01*
X077406Y021441D01*
X077763D01*
Y021798D01*
D02*
G37*
G36*
X044042Y021720D02*
X043680D01*
Y021358D01*
X043738Y021366D01*
X043839Y021408D01*
X043926Y021474D01*
X043992Y021561D01*
X044034Y021662D01*
X044042Y021720D01*
D02*
G37*
G36*
X043580D02*
X043218D01*
X043226Y021662D01*
X043268Y021561D01*
X043334Y021474D01*
X043421Y021408D01*
X043522Y021366D01*
X043580Y021358D01*
Y021720D01*
D02*
G37*
G36*
X054966Y021773D02*
X054866Y021760D01*
X054772Y021721D01*
X054692Y021659D01*
X054630Y021579D01*
X054591Y021485D01*
X054578Y021384D01*
X054591Y021284D01*
X054630Y021190D01*
X054692Y021109D01*
X054772Y021048D01*
X054866Y021009D01*
X054966Y020996D01*
X055067Y021009D01*
X055161Y021048D01*
X055241Y021109D01*
X055303Y021190D01*
X055342Y021284D01*
X055355Y021384D01*
X055342Y021485D01*
X055303Y021579D01*
X055241Y021659D01*
X055161Y021721D01*
X055067Y021760D01*
X054966Y021773D01*
D02*
G37*
G36*
X077763Y021341D02*
X077406D01*
X077413Y021284D01*
X077455Y021184D01*
X077520Y021098D01*
X077606Y021033D01*
X077706Y020991D01*
X077763Y020984D01*
Y021341D01*
D02*
G37*
G36*
X078220D02*
X077863D01*
Y020984D01*
X077920Y020991D01*
X078020Y021033D01*
X078105Y021098D01*
X078171Y021184D01*
X078212Y021284D01*
X078220Y021341D01*
D02*
G37*
G36*
X012660Y021472D02*
Y020924D01*
X013208D01*
X013201Y020992D01*
X013167Y021105D01*
X013111Y021209D01*
X013036Y021300D01*
X012945Y021375D01*
X012841Y021431D01*
X012728Y021465D01*
X012660Y021472D01*
D02*
G37*
G36*
X010660D02*
Y020924D01*
X011208D01*
X011201Y020992D01*
X011167Y021105D01*
X011111Y021209D01*
X011036Y021300D01*
X010945Y021375D01*
X010841Y021431D01*
X010728Y021465D01*
X010660Y021472D01*
D02*
G37*
G36*
X012560D02*
X012492Y021465D01*
X012379Y021431D01*
X012275Y021375D01*
X012184Y021300D01*
X012109Y021209D01*
X012053Y021105D01*
X012019Y020992D01*
X012012Y020924D01*
X012560D01*
Y021472D01*
D02*
G37*
G36*
X071454Y021255D02*
X071354Y021242D01*
X071260Y021203D01*
X071179Y021141D01*
X071118Y021061D01*
X071079Y020967D01*
X071066Y020866D01*
X071079Y020766D01*
X071118Y020672D01*
X071179Y020592D01*
X071260Y020530D01*
X071354Y020491D01*
X071454Y020478D01*
X071555Y020491D01*
X071648Y020530D01*
X071729Y020592D01*
X071791Y020672D01*
X071829Y020766D01*
X071843Y020866D01*
X071829Y020967D01*
X071791Y021061D01*
X071729Y021141D01*
X071648Y021203D01*
X071555Y021242D01*
X071454Y021255D01*
D02*
G37*
G36*
X069486D02*
X069385Y021242D01*
X069291Y021203D01*
X069211Y021141D01*
X069149Y021061D01*
X069110Y020967D01*
X069097Y020866D01*
X069110Y020766D01*
X069149Y020672D01*
X069211Y020592D01*
X069291Y020530D01*
X069385Y020491D01*
X069486Y020478D01*
X069586Y020491D01*
X069680Y020530D01*
X069760Y020592D01*
X069822Y020672D01*
X069861Y020766D01*
X069874Y020866D01*
X069861Y020967D01*
X069822Y021061D01*
X069760Y021141D01*
X069680Y021203D01*
X069586Y021242D01*
X069486Y021255D01*
D02*
G37*
G36*
X066804Y021245D02*
X066704Y021232D01*
X066610Y021193D01*
X066529Y021131D01*
X066468Y021051D01*
X066429Y020957D01*
X066416Y020856D01*
X066429Y020756D01*
X066468Y020662D01*
X066529Y020582D01*
X066610Y020520D01*
X066704Y020481D01*
X066804Y020468D01*
X066905Y020481D01*
X066999Y020520D01*
X067079Y020582D01*
X067141Y020662D01*
X067180Y020756D01*
X067193Y020856D01*
X067180Y020957D01*
X067141Y021051D01*
X067079Y021131D01*
X066999Y021193D01*
X066905Y021232D01*
X066804Y021245D01*
D02*
G37*
G36*
X064836D02*
X064735Y021232D01*
X064641Y021193D01*
X064561Y021131D01*
X064499Y021051D01*
X064460Y020957D01*
X064447Y020856D01*
X064460Y020756D01*
X064499Y020662D01*
X064561Y020582D01*
X064641Y020520D01*
X064735Y020481D01*
X064836Y020468D01*
X064936Y020481D01*
X065030Y020520D01*
X065111Y020582D01*
X065172Y020662D01*
X065211Y020756D01*
X065224Y020856D01*
X065211Y020957D01*
X065172Y021051D01*
X065111Y021131D01*
X065030Y021193D01*
X064936Y021232D01*
X064836Y021245D01*
D02*
G37*
G36*
X062138Y021239D02*
X062038Y021225D01*
X061944Y021187D01*
X061864Y021125D01*
X061802Y021044D01*
X061763Y020951D01*
X061750Y020850D01*
X061763Y020749D01*
X061802Y020656D01*
X061864Y020575D01*
X061944Y020513D01*
X062038Y020475D01*
X062138Y020461D01*
X062239Y020475D01*
X062333Y020513D01*
X062413Y020575D01*
X062475Y020656D01*
X062514Y020749D01*
X062527Y020850D01*
X062514Y020951D01*
X062475Y021044D01*
X062413Y021125D01*
X062333Y021187D01*
X062239Y021225D01*
X062138Y021239D01*
D02*
G37*
G36*
X060170D02*
X060069Y021225D01*
X059976Y021187D01*
X059895Y021125D01*
X059833Y021044D01*
X059794Y020951D01*
X059781Y020850D01*
X059794Y020749D01*
X059833Y020656D01*
X059895Y020575D01*
X059976Y020513D01*
X060069Y020475D01*
X060170Y020461D01*
X060270Y020475D01*
X060364Y020513D01*
X060445Y020575D01*
X060506Y020656D01*
X060545Y020749D01*
X060558Y020850D01*
X060545Y020951D01*
X060506Y021044D01*
X060445Y021125D01*
X060364Y021187D01*
X060270Y021225D01*
X060170Y021239D01*
D02*
G37*
G36*
X044035Y021175D02*
X043225D01*
Y020365D01*
X044035D01*
Y021175D01*
D02*
G37*
G36*
X013208Y020824D02*
X012660D01*
Y020276D01*
X012728Y020283D01*
X012841Y020317D01*
X012945Y020373D01*
X013036Y020448D01*
X013111Y020539D01*
X013167Y020643D01*
X013201Y020756D01*
X013208Y020824D01*
D02*
G37*
G36*
X011208D02*
X010660D01*
Y020276D01*
X010728Y020283D01*
X010841Y020317D01*
X010945Y020373D01*
X011036Y020448D01*
X011111Y020539D01*
X011167Y020643D01*
X011201Y020756D01*
X011208Y020824D01*
D02*
G37*
G36*
X012560D02*
X012012D01*
X012019Y020756D01*
X012053Y020643D01*
X012109Y020539D01*
X012184Y020448D01*
X012275Y020373D01*
X012379Y020317D01*
X012492Y020283D01*
X012560Y020276D01*
Y020824D01*
D02*
G37*
G36*
X077813Y020810D02*
X077708Y020796D01*
X077611Y020756D01*
X077527Y020692D01*
X077463Y020608D01*
X077423Y020511D01*
X077409Y020406D01*
X077423Y020302D01*
X077463Y020205D01*
X077527Y020121D01*
X077611Y020057D01*
X077708Y020017D01*
X077813Y020003D01*
X077917Y020017D01*
X078014Y020057D01*
X078098Y020121D01*
X078162Y020205D01*
X078202Y020302D01*
X078216Y020406D01*
X078202Y020511D01*
X078162Y020608D01*
X078098Y020692D01*
X078014Y020756D01*
X077917Y020796D01*
X077813Y020810D01*
D02*
G37*
G36*
X011610Y020467D02*
X011494Y020455D01*
X011383Y020422D01*
X011281Y020367D01*
X011191Y020293D01*
X011117Y020203D01*
X011062Y020101D01*
X011029Y019990D01*
X011017Y019874D01*
X011029Y019758D01*
X011062Y019647D01*
X011117Y019545D01*
X011191Y019455D01*
X011281Y019381D01*
X011383Y019326D01*
X011494Y019293D01*
X011610Y019281D01*
X011726Y019293D01*
X011837Y019326D01*
X011939Y019381D01*
X012029Y019455D01*
X012103Y019545D01*
X012158Y019647D01*
X012191Y019758D01*
X012203Y019874D01*
X012191Y019990D01*
X012158Y020101D01*
X012103Y020203D01*
X012029Y020293D01*
X011939Y020367D01*
X011837Y020422D01*
X011726Y020455D01*
X011610Y020467D01*
D02*
G37*
G36*
X054966Y019804D02*
X054866Y019791D01*
X054772Y019752D01*
X054692Y019691D01*
X054630Y019610D01*
X054591Y019516D01*
X054578Y019416D01*
X054591Y019315D01*
X054630Y019221D01*
X054692Y019141D01*
X054772Y019079D01*
X054866Y019040D01*
X054966Y019027D01*
X055067Y019040D01*
X055161Y019079D01*
X055241Y019141D01*
X055303Y019221D01*
X055342Y019315D01*
X055355Y019416D01*
X055342Y019516D01*
X055303Y019610D01*
X055241Y019691D01*
X055161Y019752D01*
X055067Y019791D01*
X054966Y019804D01*
D02*
G37*
G36*
X074959Y019584D02*
X074910D01*
Y018980D01*
X075608D01*
X075601Y019058D01*
X075563Y019180D01*
X075503Y019294D01*
X075422Y019393D01*
X075322Y019474D01*
X075209Y019535D01*
X075086Y019572D01*
X074959Y019584D01*
D02*
G37*
G36*
X074810D02*
X074761D01*
X074634Y019572D01*
X074511Y019535D01*
X074398Y019474D01*
X074299Y019393D01*
X074217Y019294D01*
X074157Y019180D01*
X074119Y019058D01*
X074112Y018980D01*
X074810D01*
Y019584D01*
D02*
G37*
G36*
X012660Y019472D02*
Y018924D01*
X013208D01*
X013201Y018992D01*
X013167Y019105D01*
X013111Y019209D01*
X013036Y019300D01*
X012945Y019375D01*
X012841Y019431D01*
X012728Y019465D01*
X012660Y019472D01*
D02*
G37*
G36*
X010660D02*
Y018924D01*
X011208D01*
X011201Y018992D01*
X011167Y019105D01*
X011111Y019209D01*
X011036Y019300D01*
X010945Y019375D01*
X010841Y019431D01*
X010728Y019465D01*
X010660Y019472D01*
D02*
G37*
G36*
X012560D02*
X012492Y019465D01*
X012379Y019431D01*
X012275Y019375D01*
X012184Y019300D01*
X012109Y019209D01*
X012053Y019105D01*
X012019Y018992D01*
X012012Y018924D01*
X012560D01*
Y019472D01*
D02*
G37*
G36*
X041330Y019509D02*
Y018870D01*
X041969D01*
X041961Y018955D01*
X041921Y019086D01*
X041857Y019206D01*
X041771Y019311D01*
X041666Y019397D01*
X041546Y019461D01*
X041415Y019501D01*
X041330Y019509D01*
D02*
G37*
G36*
X041230D02*
X041145Y019501D01*
X041014Y019461D01*
X040894Y019397D01*
X040789Y019311D01*
X040703Y019206D01*
X040639Y019086D01*
X040599Y018955D01*
X040591Y018870D01*
X041230D01*
Y019509D01*
D02*
G37*
G36*
X013208Y018824D02*
X012660D01*
Y018276D01*
X012728Y018283D01*
X012841Y018317D01*
X012945Y018373D01*
X013036Y018448D01*
X013111Y018539D01*
X013167Y018643D01*
X013201Y018756D01*
X013208Y018824D01*
D02*
G37*
G36*
X011208D02*
X010660D01*
Y018276D01*
X010728Y018283D01*
X010841Y018317D01*
X010945Y018373D01*
X011036Y018448D01*
X011111Y018539D01*
X011167Y018643D01*
X011201Y018756D01*
X011208Y018824D01*
D02*
G37*
G36*
X012560D02*
X012012D01*
X012019Y018756D01*
X012053Y018643D01*
X012109Y018539D01*
X012184Y018448D01*
X012275Y018373D01*
X012379Y018317D01*
X012492Y018283D01*
X012560Y018276D01*
Y018824D01*
D02*
G37*
G36*
X075608Y018880D02*
X074910D01*
Y018276D01*
X074959D01*
X075086Y018288D01*
X075209Y018325D01*
X075322Y018386D01*
X075422Y018467D01*
X075503Y018566D01*
X075563Y018680D01*
X075601Y018802D01*
X075608Y018880D01*
D02*
G37*
G36*
X074810D02*
X074112D01*
X074119Y018802D01*
X074157Y018680D01*
X074217Y018566D01*
X074299Y018467D01*
X074398Y018386D01*
X074511Y018325D01*
X074634Y018288D01*
X074761Y018276D01*
X074810D01*
Y018880D01*
D02*
G37*
G36*
X041969Y018770D02*
X041330D01*
Y018131D01*
X041415Y018139D01*
X041546Y018179D01*
X041666Y018243D01*
X041771Y018329D01*
X041857Y018434D01*
X041921Y018554D01*
X041961Y018685D01*
X041969Y018770D01*
D02*
G37*
G36*
X041230D02*
X040591D01*
X040599Y018685D01*
X040639Y018554D01*
X040703Y018434D01*
X040789Y018329D01*
X040894Y018243D01*
X041014Y018179D01*
X041145Y018139D01*
X041230Y018131D01*
Y018770D01*
D02*
G37*
G36*
X077730Y017310D02*
X076950D01*
Y017127D01*
X073355D01*
X073331Y017144D01*
X073249Y017160D01*
X073167Y017144D01*
X073097Y017097D01*
X073051Y017028D01*
X073035Y016946D01*
X073051Y016864D01*
X073097Y016794D01*
X073167Y016748D01*
X073249Y016732D01*
X073290Y016740D01*
X073502D01*
X073543Y016690D01*
X073536Y016654D01*
X073546Y016602D01*
X073510Y016552D01*
X070824D01*
X070750Y016537D01*
X070687Y016495D01*
X068928Y014737D01*
X067910D01*
X067904Y014741D01*
X067822Y014757D01*
X067740Y014741D01*
X067671Y014694D01*
X067624Y014625D01*
X067608Y014543D01*
X067624Y014461D01*
X067671Y014391D01*
X067740Y014345D01*
X067822Y014329D01*
X067904Y014345D01*
X067910Y014349D01*
X069009D01*
X069083Y014364D01*
X069146Y014406D01*
X070904Y016165D01*
X071156D01*
Y015575D01*
X071492D01*
X071828D01*
Y016165D01*
X074132D01*
Y015575D01*
X074468D01*
X074804D01*
Y016165D01*
X075571D01*
X076067Y015669D01*
Y014316D01*
X076063Y014310D01*
X076047Y014228D01*
X076063Y014146D01*
X076109Y014077D01*
X076179Y014030D01*
X076261Y014014D01*
X076343Y014030D01*
X076352Y014036D01*
X076930D01*
Y013840D01*
X077710D01*
Y014620D01*
X076930D01*
Y014424D01*
X076455D01*
Y015606D01*
X076501Y015625D01*
X076703Y015423D01*
X076766Y015381D01*
X076840Y015366D01*
X076950D01*
Y015170D01*
X077730D01*
Y015950D01*
X076950D01*
Y015795D01*
X076900Y015774D01*
X075980Y016694D01*
X075999Y016740D01*
X076950D01*
Y016530D01*
X077730D01*
Y017310D01*
D02*
G37*
G36*
X011920Y017546D02*
X011819Y017532D01*
X011726Y017494D01*
X011645Y017432D01*
X011583Y017351D01*
X011545Y017258D01*
X011531Y017157D01*
X011545Y017056D01*
X011583Y016963D01*
X011645Y016882D01*
X011726Y016820D01*
X011819Y016782D01*
X011920Y016768D01*
X012021Y016782D01*
X012114Y016820D01*
X012195Y016882D01*
X012257Y016963D01*
X012295Y017056D01*
X012309Y017157D01*
X012295Y017258D01*
X012257Y017351D01*
X012195Y017432D01*
X012114Y017494D01*
X012021Y017532D01*
X011920Y017546D01*
D02*
G37*
G36*
X068036Y017711D02*
X067922Y017700D01*
X067812Y017666D01*
X067711Y017612D01*
X067623Y017540D01*
X067550Y017451D01*
X067496Y017350D01*
X067463Y017240D01*
X067451Y017126D01*
X067463Y017012D01*
X067496Y016902D01*
X067550Y016801D01*
X067623Y016712D01*
X067711Y016640D01*
X067812Y016586D01*
X067922Y016552D01*
X068036Y016541D01*
X068150Y016552D01*
X068260Y016586D01*
X068361Y016640D01*
X068450Y016712D01*
X068523Y016801D01*
X068577Y016902D01*
X068610Y017012D01*
X068621Y017126D01*
X068610Y017240D01*
X068577Y017350D01*
X068523Y017451D01*
X068450Y017540D01*
X068361Y017612D01*
X068260Y017666D01*
X068150Y017700D01*
X068036Y017711D01*
D02*
G37*
G36*
X054440D02*
X054325Y017700D01*
X054216Y017666D01*
X054115Y017612D01*
X054026Y017540D01*
X053953Y017451D01*
X053899Y017350D01*
X053866Y017240D01*
X053855Y017126D01*
X053866Y017012D01*
X053899Y016902D01*
X053953Y016801D01*
X054026Y016712D01*
X054115Y016640D01*
X054216Y016586D01*
X054325Y016552D01*
X054440Y016541D01*
X054554Y016552D01*
X054663Y016586D01*
X054765Y016640D01*
X054853Y016712D01*
X054926Y016801D01*
X054980Y016902D01*
X055013Y017012D01*
X055025Y017126D01*
X055013Y017240D01*
X054980Y017350D01*
X054926Y017451D01*
X054853Y017540D01*
X054765Y017612D01*
X054663Y017666D01*
X054554Y017700D01*
X054440Y017711D01*
D02*
G37*
G36*
X073233Y015959D02*
X073183Y015959D01*
X072777D01*
X072733Y015959D01*
X072683Y015959D01*
X072233D01*
Y015346D01*
X072683D01*
X072727Y015346D01*
X072777Y015346D01*
X073183D01*
X073227Y015346D01*
X073277Y015346D01*
X073727D01*
Y015959D01*
X073233Y015959D01*
D02*
G37*
G36*
X014331Y015680D02*
X014252Y015669D01*
X014132Y015620D01*
X014029Y015541D01*
X013962Y015453D01*
X013957Y015451D01*
X013913Y015449D01*
X013902Y015453D01*
X013840Y015533D01*
X013739Y015611D01*
X013621Y015660D01*
X013495Y015676D01*
X013369Y015660D01*
X013251Y015611D01*
X013150Y015533D01*
X013072Y015432D01*
X013024Y015315D01*
X013007Y015188D01*
X013024Y015062D01*
X013072Y014945D01*
X013150Y014844D01*
X013251Y014766D01*
X013369Y014717D01*
X013495Y014701D01*
X013621Y014717D01*
X013739Y014766D01*
X013840Y014844D01*
X013902Y014924D01*
X013913Y014928D01*
X013957Y014926D01*
X013962Y014924D01*
X014029Y014836D01*
X014132Y014757D01*
X014252Y014708D01*
X014331Y014697D01*
Y015188D01*
Y015680D01*
D02*
G37*
G36*
X011940Y027486D02*
X011839Y027472D01*
X011746Y027434D01*
X011665Y027372D01*
X011603Y027291D01*
X011565Y027198D01*
X011551Y027097D01*
X011565Y026996D01*
X011603Y026903D01*
X011665Y026822D01*
X011695Y026799D01*
Y024950D01*
X011714Y024856D01*
X011767Y024777D01*
X013361Y023183D01*
Y016807D01*
X012479Y015926D01*
X012426Y015846D01*
X012408Y015753D01*
Y015433D01*
X011358D01*
X011281Y015533D01*
X011180Y015611D01*
X011062Y015660D01*
X010936Y015676D01*
X010809Y015660D01*
X010692Y015611D01*
X010591Y015533D01*
X010513Y015432D01*
X010465Y015315D01*
X010448Y015188D01*
X010465Y015062D01*
X010513Y014945D01*
X010591Y014844D01*
X010692Y014766D01*
X010809Y014717D01*
X010936Y014701D01*
X011062Y014717D01*
X011180Y014766D01*
X011281Y014844D01*
X011358Y014944D01*
X012408D01*
Y013897D01*
X012426Y013804D01*
X012479Y013724D01*
X014407Y011797D01*
X014486Y011744D01*
X014580Y011725D01*
X047980D01*
X048074Y011744D01*
X048153Y011797D01*
X049381Y013025D01*
X049434Y013105D01*
X049453Y013198D01*
Y014038D01*
X049434Y014132D01*
X049381Y014211D01*
X049302Y014264D01*
X049208Y014283D01*
X049115Y014264D01*
X049035Y014211D01*
X048982Y014132D01*
X048964Y014038D01*
Y013300D01*
X047879Y012215D01*
X014681D01*
X012897Y013999D01*
Y015188D01*
Y015651D01*
X013779Y016533D01*
X013832Y016612D01*
X013850Y016706D01*
Y023284D01*
X013832Y023378D01*
X013779Y023457D01*
X012185Y025051D01*
Y026799D01*
X012215Y026822D01*
X012277Y026903D01*
X012315Y026996D01*
X012329Y027097D01*
X012315Y027198D01*
X012277Y027291D01*
X012215Y027372D01*
X012134Y027434D01*
X012041Y027472D01*
X011940Y027486D01*
D02*
G37*
G36*
X046083Y015959D02*
X046033Y015959D01*
X045583D01*
Y015346D01*
X045594D01*
X045627Y015296D01*
X045616Y015238D01*
X045632Y015156D01*
X045678Y015086D01*
X045748Y015040D01*
X045830Y015023D01*
X045912Y015040D01*
X045981Y015086D01*
X046028Y015156D01*
X046044Y015238D01*
X046032Y015296D01*
X046065Y015346D01*
X046130Y015346D01*
X046156Y015296D01*
X046134Y015262D01*
X046117Y015180D01*
X046134Y015098D01*
X046180Y015029D01*
X046249Y014982D01*
X046331Y014966D01*
X046413Y014982D01*
X046483Y015029D01*
X046529Y015098D01*
X046545Y015180D01*
X046529Y015262D01*
X046506Y015296D01*
X046533Y015346D01*
X046577Y015346D01*
X046627Y015346D01*
X047077D01*
Y015959D01*
X046627D01*
X046583Y015959D01*
X046533Y015959D01*
X046083Y015959D01*
D02*
G37*
G36*
X052900Y016052D02*
X052799Y016039D01*
X052706Y016000D01*
X052625Y015938D01*
X052563Y015858D01*
X052525Y015764D01*
X052511Y015663D01*
X052525Y015563D01*
X052563Y015469D01*
X052625Y015388D01*
X052706Y015327D01*
X052799Y015288D01*
X052900Y015275D01*
X053001Y015288D01*
X053094Y015327D01*
X053175Y015388D01*
X053237Y015469D01*
X053275Y015563D01*
X053289Y015663D01*
X053275Y015764D01*
X053237Y015858D01*
X053175Y015938D01*
X053094Y016000D01*
X053001Y016039D01*
X052900Y016052D01*
D02*
G37*
G36*
X050932D02*
X050831Y016039D01*
X050737Y016000D01*
X050657Y015938D01*
X050595Y015858D01*
X050556Y015764D01*
X050543Y015663D01*
X050556Y015563D01*
X050595Y015469D01*
X050657Y015388D01*
X050737Y015327D01*
X050831Y015288D01*
X050932Y015275D01*
X051032Y015288D01*
X051126Y015327D01*
X051206Y015388D01*
X051268Y015469D01*
X051307Y015563D01*
X051320Y015663D01*
X051307Y015764D01*
X051268Y015858D01*
X051206Y015938D01*
X051126Y016000D01*
X051032Y016039D01*
X050932Y016052D01*
D02*
G37*
G36*
X014431Y015680D02*
Y015238D01*
X014872D01*
X014862Y015317D01*
X014812Y015437D01*
X014733Y015541D01*
X014630Y015620D01*
X014510Y015669D01*
X014431Y015680D01*
D02*
G37*
G36*
X057694Y015975D02*
X057594Y015962D01*
X057500Y015923D01*
X057419Y015861D01*
X057358Y015781D01*
X057319Y015687D01*
X057306Y015586D01*
X057319Y015486D01*
X057358Y015392D01*
X057419Y015312D01*
X057500Y015250D01*
X057594Y015211D01*
X057694Y015198D01*
X057795Y015211D01*
X057889Y015250D01*
X057969Y015312D01*
X058031Y015392D01*
X058070Y015486D01*
X058083Y015586D01*
X058070Y015687D01*
X058031Y015781D01*
X057969Y015861D01*
X057889Y015923D01*
X057795Y015962D01*
X057694Y015975D01*
D02*
G37*
G36*
X055726D02*
X055625Y015962D01*
X055531Y015923D01*
X055451Y015861D01*
X055389Y015781D01*
X055350Y015687D01*
X055337Y015586D01*
X055350Y015486D01*
X055389Y015392D01*
X055451Y015312D01*
X055531Y015250D01*
X055625Y015211D01*
X055726Y015198D01*
X055826Y015211D01*
X055920Y015250D01*
X056001Y015312D01*
X056062Y015392D01*
X056101Y015486D01*
X056114Y015586D01*
X056101Y015687D01*
X056062Y015781D01*
X056001Y015861D01*
X055920Y015923D01*
X055826Y015962D01*
X055726Y015975D01*
D02*
G37*
G36*
X062334Y015965D02*
X062234Y015952D01*
X062140Y015913D01*
X062059Y015851D01*
X061998Y015771D01*
X061959Y015677D01*
X061946Y015576D01*
X061959Y015476D01*
X061998Y015382D01*
X062059Y015302D01*
X062140Y015240D01*
X062234Y015201D01*
X062334Y015188D01*
X062435Y015201D01*
X062529Y015240D01*
X062609Y015302D01*
X062671Y015382D01*
X062710Y015476D01*
X062723Y015576D01*
X062710Y015677D01*
X062671Y015771D01*
X062609Y015851D01*
X062529Y015913D01*
X062435Y015952D01*
X062334Y015965D01*
D02*
G37*
G36*
X060366D02*
X060265Y015952D01*
X060171Y015913D01*
X060091Y015851D01*
X060029Y015771D01*
X059990Y015677D01*
X059977Y015576D01*
X059990Y015476D01*
X060029Y015382D01*
X060091Y015302D01*
X060171Y015240D01*
X060265Y015201D01*
X060366Y015188D01*
X060466Y015201D01*
X060560Y015240D01*
X060641Y015302D01*
X060702Y015382D01*
X060741Y015476D01*
X060754Y015576D01*
X060741Y015677D01*
X060702Y015771D01*
X060641Y015851D01*
X060560Y015913D01*
X060466Y015952D01*
X060366Y015965D01*
D02*
G37*
G36*
X014872Y015138D02*
X014431D01*
Y014697D01*
X014510Y014708D01*
X014630Y014757D01*
X014733Y014836D01*
X014812Y014940D01*
X014862Y015060D01*
X014872Y015138D01*
D02*
G37*
G36*
X073430Y013804D02*
X073223D01*
Y013794D01*
X072777D01*
X072733Y013794D01*
X072683Y013794D01*
X072233D01*
Y013181D01*
X072337D01*
Y013131D01*
X072329Y013125D01*
X072282Y013056D01*
X072266Y012974D01*
X072282Y012892D01*
X072329Y012823D01*
X072398Y012776D01*
X072480Y012760D01*
X072562Y012776D01*
X072631Y012823D01*
X072678Y012892D01*
X072694Y012974D01*
X072678Y013056D01*
X072631Y013125D01*
X072650Y013173D01*
X072658Y013181D01*
X072727Y013181D01*
X072777Y013181D01*
X072837D01*
Y013131D01*
X072829Y013125D01*
X072782Y013056D01*
X072766Y012974D01*
X072782Y012892D01*
X072829Y012823D01*
X072898Y012776D01*
X072980Y012760D01*
X073062Y012776D01*
X073131Y012823D01*
X073178Y012892D01*
X073194Y012974D01*
X073178Y013056D01*
X073131Y013125D01*
X073123Y013131D01*
Y013181D01*
X073223D01*
Y013171D01*
X073430D01*
Y013487D01*
Y013804D01*
D02*
G37*
G36*
X071828Y015475D02*
X071492D01*
X071156D01*
Y014883D01*
X071277D01*
X071302Y014833D01*
X071256Y014774D01*
X071215Y014676D01*
X071201Y014570D01*
X071215Y014464D01*
X071256Y014366D01*
X071302Y014307D01*
X071277Y014257D01*
X071156D01*
Y013665D01*
X071492D01*
X071828D01*
Y014227D01*
X071899Y014281D01*
X071964Y014366D01*
X072004Y014464D01*
X072018Y014570D01*
X072004Y014676D01*
X071964Y014774D01*
X071899Y014859D01*
X071828Y014913D01*
Y015475D01*
D02*
G37*
G36*
X045178Y015475D02*
X044842D01*
X044506D01*
Y014883D01*
X044627D01*
X044652Y014833D01*
X044606Y014774D01*
X044565Y014676D01*
X044551Y014570D01*
X044565Y014464D01*
X044606Y014366D01*
X044652Y014307D01*
X044627Y014257D01*
X044506D01*
Y013665D01*
X044842D01*
X045178D01*
Y014227D01*
X045249Y014281D01*
X045314Y014366D01*
X045354Y014464D01*
X045368Y014570D01*
X045354Y014676D01*
X045314Y014774D01*
X045249Y014859D01*
X045178Y014913D01*
Y015475D01*
D02*
G37*
G36*
X048154Y015475D02*
X047818D01*
X047482D01*
Y014913D01*
X047411Y014859D01*
X047346Y014774D01*
X047306Y014676D01*
X047292Y014570D01*
X047306Y014464D01*
X047346Y014366D01*
X047411Y014281D01*
X047482Y014227D01*
Y013665D01*
X047818D01*
X048154D01*
Y014257D01*
X048033D01*
X048008Y014307D01*
X048054Y014366D01*
X048095Y014464D01*
X048109Y014570D01*
X048095Y014676D01*
X048054Y014774D01*
X048008Y014833D01*
X048033Y014883D01*
X048154D01*
Y015475D01*
D02*
G37*
G36*
X074804Y015475D02*
X074468D01*
X074132D01*
Y014913D01*
X074061Y014859D01*
X073996Y014774D01*
X073956Y014676D01*
X073942Y014570D01*
X073956Y014464D01*
X073996Y014366D01*
X074061Y014281D01*
X074132Y014227D01*
Y013665D01*
X074468D01*
X074804D01*
Y014257D01*
X074683D01*
X074658Y014307D01*
X074704Y014366D01*
X074745Y014464D01*
X074759Y014570D01*
X074745Y014676D01*
X074704Y014774D01*
X074658Y014833D01*
X074683Y014883D01*
X074804D01*
Y015475D01*
D02*
G37*
G36*
X073737Y013804D02*
X073530D01*
Y013537D01*
X073737D01*
Y013804D01*
D02*
G37*
G36*
X047087D02*
X046880D01*
Y013537D01*
X047087D01*
Y013804D01*
D02*
G37*
G36*
X045780D02*
X045573D01*
Y013537D01*
X045780D01*
Y013804D01*
D02*
G37*
G36*
X011970Y013612D02*
Y013270D01*
X012312D01*
X012305Y013323D01*
X012265Y013419D01*
X012202Y013502D01*
X012119Y013565D01*
X012023Y013605D01*
X011970Y013612D01*
D02*
G37*
G36*
X011870D02*
X011817Y013605D01*
X011721Y013565D01*
X011638Y013502D01*
X011575Y013419D01*
X011535Y013323D01*
X011528Y013270D01*
X011870D01*
Y013612D01*
D02*
G37*
G36*
X073737Y013437D02*
X073530D01*
Y013171D01*
X073737D01*
Y013437D01*
D02*
G37*
G36*
X047087D02*
X046880D01*
Y013171D01*
X047087D01*
Y013437D01*
D02*
G37*
G36*
X045780D02*
X045573D01*
Y013171D01*
X045780D01*
Y013437D01*
D02*
G37*
G36*
X065690Y014865D02*
X065596Y014846D01*
X065517Y014793D01*
X065464Y014714D01*
X065445Y014620D01*
Y013350D01*
X065464Y013256D01*
X065517Y013177D01*
X065596Y013124D01*
X065690Y013105D01*
X065784Y013124D01*
X065863Y013177D01*
X065916Y013256D01*
X065935Y013350D01*
Y014620D01*
X065916Y014714D01*
X065863Y014793D01*
X065784Y014846D01*
X065690Y014865D01*
D02*
G37*
G36*
X074804Y013565D02*
X074518D01*
Y012974D01*
X074804D01*
Y013565D01*
D02*
G37*
G36*
X074418D02*
X074132D01*
Y012974D01*
X074418D01*
Y013565D01*
D02*
G37*
G36*
X071828Y013565D02*
X071542D01*
Y012974D01*
X071828D01*
Y013565D01*
D02*
G37*
G36*
X071442D02*
X071156D01*
Y012974D01*
X071442D01*
Y013565D01*
D02*
G37*
G36*
X048154Y013565D02*
X047868D01*
Y012974D01*
X048154D01*
Y013565D01*
D02*
G37*
G36*
X047768D02*
X047482D01*
Y012974D01*
X047768D01*
Y013565D01*
D02*
G37*
G36*
X045178Y013565D02*
X044892D01*
Y012974D01*
X045178D01*
Y013565D01*
D02*
G37*
G36*
X044792D02*
X044506D01*
Y012974D01*
X044792D01*
Y013565D01*
D02*
G37*
G36*
X012312Y013170D02*
X011970D01*
Y012828D01*
X012023Y012835D01*
X012119Y012875D01*
X012202Y012938D01*
X012265Y013021D01*
X012305Y013117D01*
X012312Y013170D01*
D02*
G37*
G36*
X011870D02*
X011528D01*
X011535Y013117D01*
X011575Y013021D01*
X011638Y012938D01*
X011721Y012875D01*
X011817Y012835D01*
X011870Y012828D01*
Y013170D01*
D02*
G37*
G36*
X067822Y013644D02*
X067740Y013628D01*
X067671Y013581D01*
X067624Y013512D01*
X067608Y013430D01*
X067624Y013348D01*
X067628Y013342D01*
Y012537D01*
X067643Y012463D01*
X067685Y012400D01*
X067802Y012283D01*
X067865Y012241D01*
X067939Y012226D01*
X074667D01*
X074741Y012241D01*
X074804Y012283D01*
X075597Y013076D01*
X076413D01*
X076416Y013072D01*
Y013018D01*
X076412Y013012D01*
X076396Y012930D01*
X076412Y012848D01*
X076459Y012779D01*
X076528Y012732D01*
X076610Y012716D01*
X076692Y012732D01*
X076698Y012736D01*
X076930D01*
Y012540D01*
X077710D01*
Y013320D01*
X076930D01*
Y013124D01*
X076804D01*
Y013152D01*
X076789Y013227D01*
X076747Y013289D01*
X076630Y013407D01*
X076567Y013449D01*
X076493Y013463D01*
X075516D01*
X075442Y013449D01*
X075379Y013407D01*
X074586Y012614D01*
X068020D01*
X068016Y012617D01*
Y013342D01*
X068020Y013348D01*
X068036Y013430D01*
X068020Y013512D01*
X067974Y013581D01*
X067904Y013628D01*
X067822Y013644D01*
D02*
G37*
G36*
X011610Y030703D02*
X011494Y030692D01*
X011383Y030658D01*
X011281Y030603D01*
X011191Y030529D01*
X011117Y030440D01*
X011062Y030337D01*
X011029Y030226D01*
X011017Y030110D01*
X011029Y029995D01*
X011062Y029883D01*
X011117Y029781D01*
X011191Y029691D01*
X011281Y029617D01*
X011383Y029563D01*
X011494Y029529D01*
X011610Y029517D01*
X011726Y029529D01*
X011837Y029563D01*
X011939Y029617D01*
X012029Y029691D01*
X012103Y029781D01*
X012148Y029866D01*
X014770D01*
X015155Y029480D01*
Y013080D01*
X015174Y012986D01*
X015227Y012907D01*
X015727Y012407D01*
X015806Y012354D01*
X015900Y012335D01*
X046154D01*
X046248Y012354D01*
X046327Y012407D01*
X046503Y012583D01*
X046556Y012662D01*
X046575Y012756D01*
Y013171D01*
X046780D01*
Y013487D01*
Y013804D01*
X046573D01*
Y013794D01*
X046087D01*
Y013804D01*
X045880D01*
Y013487D01*
Y013171D01*
X046085D01*
Y012857D01*
X046053Y012825D01*
X016001D01*
X015645Y013181D01*
Y029581D01*
X015626Y029675D01*
X015573Y029754D01*
X015044Y030283D01*
X014965Y030336D01*
X014871Y030355D01*
X012148D01*
X012103Y030440D01*
X012029Y030529D01*
X011939Y030603D01*
X011837Y030658D01*
X011726Y030692D01*
X011610Y030703D01*
D02*
G37*
G36*
X075945Y012782D02*
X075831Y012771D01*
X075721Y012737D01*
X075620Y012683D01*
X075531Y012610D01*
X075459Y012522D01*
X075404Y012421D01*
X075371Y012311D01*
X075360Y012197D01*
X075371Y012083D01*
X075404Y011973D01*
X075459Y011872D01*
X075531Y011783D01*
X075620Y011710D01*
X075721Y011656D01*
X075831Y011623D01*
X075945Y011612D01*
X076059Y011623D01*
X076169Y011656D01*
X076270Y011710D01*
X076358Y011783D01*
X076431Y011872D01*
X076485Y011973D01*
X076519Y012083D01*
X076530Y012197D01*
X076519Y012311D01*
X076485Y012421D01*
X076431Y012522D01*
X076358Y012610D01*
X076270Y012683D01*
X076169Y012737D01*
X076059Y012771D01*
X075945Y012782D01*
D02*
G37*
G36*
X049567D02*
X049453Y012771D01*
X049343Y012737D01*
X049242Y012683D01*
X049153Y012610D01*
X049081Y012522D01*
X049027Y012421D01*
X048993Y012311D01*
X048982Y012197D01*
X048993Y012083D01*
X049027Y011973D01*
X049081Y011872D01*
X049153Y011783D01*
X049242Y011710D01*
X049343Y011656D01*
X049453Y011623D01*
X049567Y011612D01*
X049681Y011623D01*
X049791Y011656D01*
X049892Y011710D01*
X049981Y011783D01*
X050053Y011872D01*
X050107Y011973D01*
X050141Y012083D01*
X050152Y012197D01*
X050141Y012311D01*
X050107Y012421D01*
X050053Y012522D01*
X049981Y012610D01*
X049892Y012683D01*
X049791Y012737D01*
X049681Y012771D01*
X049567Y012782D01*
D02*
G37*
G36*
X010787D02*
X010673Y012771D01*
X010564Y012737D01*
X010462Y012683D01*
X010374Y012610D01*
X010301Y012522D01*
X010247Y012421D01*
X010214Y012311D01*
X010202Y012197D01*
X010214Y012083D01*
X010247Y011973D01*
X010301Y011872D01*
X010374Y011783D01*
X010462Y011710D01*
X010564Y011656D01*
X010673Y011623D01*
X010787Y011612D01*
X010902Y011623D01*
X011011Y011656D01*
X011112Y011710D01*
X011201Y011783D01*
X011274Y011872D01*
X011328Y011973D01*
X011361Y012083D01*
X011372Y012197D01*
X011361Y012311D01*
X011328Y012421D01*
X011274Y012522D01*
X011201Y012610D01*
X011112Y012683D01*
X011011Y012737D01*
X010902Y012771D01*
X010787Y012782D01*
D02*
G37*
G36*
X056070Y022354D02*
X055988Y022338D01*
X055919Y022291D01*
X055872Y022222D01*
X055856Y022140D01*
X055872Y022058D01*
X055919Y021989D01*
X055988Y021942D01*
X056070Y021926D01*
X056152Y021942D01*
X056221Y021989D01*
X056227Y021997D01*
X056337D01*
Y019340D01*
X056337Y019340D01*
X056348Y019285D01*
X056379Y019239D01*
X056479Y019139D01*
X056479Y019139D01*
X056525Y019108D01*
X056580Y019097D01*
X057541D01*
X057597Y019041D01*
Y016831D01*
X057597Y016831D01*
X057608Y016777D01*
X057639Y016730D01*
X058116Y016253D01*
X058116Y016253D01*
X058163Y016222D01*
X058217Y016211D01*
X058923D01*
Y011648D01*
X058923Y011648D01*
X058934Y011593D01*
X058965Y011547D01*
X059085Y011426D01*
X059085Y011426D01*
X059132Y011395D01*
X059186Y011385D01*
X065991D01*
X065991Y011385D01*
X066046Y011395D01*
X066092Y011426D01*
X066112Y011446D01*
X066122Y011444D01*
X066204Y011460D01*
X066273Y011507D01*
X066320Y011576D01*
X066336Y011658D01*
X066320Y011740D01*
X066273Y011809D01*
X066204Y011856D01*
X066122Y011872D01*
X066040Y011856D01*
X065970Y011809D01*
X065924Y011740D01*
X065910Y011670D01*
X059245D01*
X059209Y011707D01*
Y016296D01*
X059198Y016350D01*
X059167Y016396D01*
X059167Y016396D01*
X059108Y016455D01*
X059062Y016486D01*
X059007Y016497D01*
X059007Y016497D01*
X058276D01*
X057883Y016890D01*
Y019100D01*
X057883Y019100D01*
X057872Y019155D01*
X057841Y019201D01*
X057841Y019201D01*
X057701Y019341D01*
X057655Y019372D01*
X057600Y019383D01*
X057600Y019383D01*
X056639D01*
X056623Y019399D01*
Y022070D01*
X056623Y022070D01*
X056612Y022125D01*
X056581Y022171D01*
X056511Y022241D01*
X056465Y022272D01*
X056410Y022283D01*
X056410Y022283D01*
X056227D01*
X056221Y022291D01*
X056152Y022338D01*
X056070Y022354D01*
D02*
G37*
%LPD*%
G36*
X033283Y057728D02*
X033278Y057702D01*
X033278Y057702D01*
Y056862D01*
X033206Y056791D01*
X032266D01*
X032260Y056799D01*
X032190Y056846D01*
X032109Y056862D01*
X032027Y056846D01*
X031957Y056799D01*
X031911Y056730D01*
X031894Y056648D01*
X031911Y056566D01*
X031957Y056496D01*
X032027Y056450D01*
X032109Y056434D01*
X032190Y056450D01*
X032260Y056496D01*
X032266Y056505D01*
X033265D01*
X033265Y056505D01*
X033319Y056516D01*
X033366Y056547D01*
X033521Y056702D01*
X033521Y056702D01*
X033552Y056749D01*
X033563Y056803D01*
X033563Y056803D01*
Y057618D01*
X046737D01*
Y056300D01*
X046737Y056300D01*
X046748Y056245D01*
X046779Y056199D01*
X046979Y055999D01*
X046979Y055999D01*
X047025Y055968D01*
X047080Y055957D01*
X047080Y055957D01*
X047372D01*
Y051494D01*
X047361Y051483D01*
X046724D01*
X046669Y051472D01*
X046623Y051441D01*
X046623Y051441D01*
X046397Y051216D01*
X046162D01*
X046156Y051224D01*
X046087Y051271D01*
X046005Y051287D01*
X045923Y051271D01*
X045912Y051263D01*
X045868Y051287D01*
Y055006D01*
Y056445D01*
X045877Y056451D01*
X045923Y056520D01*
X045940Y056602D01*
X045923Y056684D01*
X045877Y056753D01*
X045807Y056800D01*
X045773Y056807D01*
X045746Y056863D01*
X045752Y056875D01*
X045809Y056887D01*
X045879Y056933D01*
X045925Y057003D01*
X045942Y057084D01*
X045925Y057166D01*
X045879Y057236D01*
X045809Y057282D01*
X045727Y057299D01*
X045646Y057282D01*
X045576Y057236D01*
X045530Y057166D01*
X045513Y057084D01*
X045515Y057074D01*
X045321Y056879D01*
X045290Y056833D01*
X045279Y056779D01*
X045279Y056779D01*
Y055373D01*
X045211Y055305D01*
X031907D01*
X031813Y055400D01*
Y057550D01*
X031813Y057550D01*
X031802Y057605D01*
X031771Y057651D01*
X031771Y057651D01*
X031694Y057728D01*
X031701Y057759D01*
X031713Y057778D01*
X031966D01*
Y057297D01*
X031957Y057291D01*
X031911Y057221D01*
X031894Y057139D01*
X031911Y057057D01*
X031957Y056988D01*
X032027Y056942D01*
X032109Y056925D01*
X032190Y056942D01*
X032260Y056988D01*
X032306Y057057D01*
X032323Y057139D01*
X032306Y057221D01*
X032260Y057291D01*
X032251Y057297D01*
Y057778D01*
X033247D01*
X033283Y057728D01*
D02*
G37*
D10*
X022733Y053414D02*
G03*
X023203Y052778I000665J000000D01*
G01*
X025007Y051311D02*
G03*
X023207Y052777I-003316J-002233D01*
G01*
X025945Y049366D02*
G03*
X025007Y051311I-007202J-002276D01*
G01*
X025930Y049399D02*
G03*
X027024Y048740I001020J000455D01*
G01*
X036190Y048760D02*
X038413D01*
X038597Y048944D02*
X039260D01*
X038413Y048760D02*
X038597Y048944D01*
X039444Y048760D02*
X041200D01*
X039260Y048944D02*
X039444Y048760D01*
X040048Y048286D02*
X040494Y047840D01*
X038954Y048286D02*
X040048D01*
X040494Y047840D02*
X041200D01*
X018752Y062382D02*
Y062620D01*
X018693Y062323D02*
X018752Y062382D01*
X017167Y062323D02*
X018693D01*
X019233Y062218D02*
Y062619D01*
X019174Y062159D02*
X019233Y062218D01*
X017229Y062159D02*
X019174D01*
X017134Y061611D02*
X017314Y061791D01*
X020172D02*
X020230Y061850D01*
X017314Y061791D02*
X020172D01*
X020230Y061850D02*
Y064556D01*
X016631Y060930D02*
Y061787D01*
X016974Y061677D02*
X017280Y061983D01*
X017294Y061544D02*
X017352Y061603D01*
X018371Y062611D02*
Y063680D01*
X018250Y062490D02*
X018371Y062611D01*
X016814Y061743D02*
X017229Y062159D01*
X019734Y064560D02*
X020045Y064249D01*
X017134Y057576D02*
Y061611D01*
X016974Y057642D02*
Y061677D01*
X016430Y061158D02*
Y061812D01*
X019986Y061983D02*
X020045Y062042D01*
X020350Y061603D02*
X020409Y061661D01*
X017280Y061983D02*
X019986D01*
X016814Y057709D02*
Y061743D01*
X017294Y057484D02*
Y061544D01*
X016631Y061787D02*
X017167Y062323D01*
X020409Y061661D02*
Y064219D01*
X017108Y062490D02*
X018250D01*
X017352Y061603D02*
X020350D01*
X018371Y063680D02*
X018754Y064063D01*
X020045Y062042D02*
Y064249D01*
X018754Y064063D02*
Y064550D01*
X016430Y061812D02*
X017108Y062490D01*
X020409Y064219D02*
X020722Y064532D01*
X013856Y051102D02*
X014331Y050628D01*
X015808D01*
X014261Y048475D02*
Y050380D01*
X014319Y050439D01*
X015889D01*
X016350Y050900D01*
X015479Y049916D02*
X016061D01*
X016744Y050599D02*
Y053172D01*
X016061Y049916D02*
X016744Y050599D01*
X016802Y053231D02*
X021697D01*
X016744Y053172D02*
X016802Y053231D01*
X065387Y060500D02*
X065520Y060367D01*
X067737D02*
X067900Y060204D01*
X065520Y060367D02*
X067737D01*
X067681Y060196D02*
X067740Y060137D01*
Y037434D02*
Y060137D01*
X064898Y060524D02*
X065226Y060196D01*
X067681D01*
X067900Y037520D02*
Y060204D01*
X063874Y061437D02*
X064044Y061267D01*
X068080Y037566D02*
Y061208D01*
X068021Y061267D02*
X068080Y061208D01*
X064044Y061267D02*
X068021D01*
X068185Y061430D02*
X068244Y061372D01*
Y037629D02*
Y061372D01*
X064460Y061430D02*
X068185D01*
X083975Y063530D02*
X085150D01*
X083745Y062899D02*
X083750Y062894D01*
X015420Y042569D02*
X015479Y042510D01*
X018440D01*
X015420Y049858D02*
X015479Y049916D01*
X015420Y042569D02*
Y049858D01*
X028782Y040882D02*
X035910D01*
X041851Y026612D02*
X042059Y026820D01*
X029756Y026612D02*
X041851D01*
X014172Y048287D02*
X014349Y048465D01*
X014250D02*
X014261Y048475D01*
X014172Y048287D02*
Y048287D01*
X016020Y052049D02*
Y056689D01*
X014740Y051990D02*
X015961D01*
X016020Y052049D01*
X046330Y015653D02*
X046331Y015651D01*
Y015180D02*
Y015651D01*
X045830Y015238D02*
Y015652D01*
X045830Y015653D01*
X043911Y014045D02*
X043911Y014045D01*
X020556Y014045D02*
X043911D01*
X020497Y014103D02*
X020556Y014045D01*
X020497Y014103D02*
Y036791D01*
X020556Y036850D01*
X027070D01*
X027400Y038400D02*
X033779D01*
X033930Y038551D02*
Y039506D01*
X033779Y038400D02*
X033930Y038551D01*
X027230Y038230D02*
X027400Y038400D01*
X027230Y037010D02*
Y038230D01*
X027070Y036850D02*
X027230Y037010D01*
X018630Y014080D02*
X018825Y013885D01*
X043349Y013800D02*
X043387D01*
X043264Y013885D02*
X043349Y013800D01*
X018825Y013885D02*
X043264D01*
X018630Y014080D02*
Y042320D01*
X018440Y042510D02*
X018630Y042320D01*
X021756Y053289D02*
Y062296D01*
X021985Y062525D02*
X022733D01*
X021756Y062296D02*
X021985Y062525D01*
X021697Y053231D02*
X021756Y053289D01*
X022743Y053483D02*
Y061368D01*
X023171Y061796D02*
Y063882D01*
X022743Y061368D02*
X023171Y061796D01*
X022239Y063961D02*
X023092D01*
X023171Y063882D01*
X016350Y050900D02*
Y056540D01*
X016190Y051010D02*
Y056632D01*
X015808Y050628D02*
X016190Y051010D01*
X026210Y037934D02*
Y045840D01*
X042059Y026820D02*
X043080D01*
X043080Y026820D02*
X043964D01*
X043080Y026820D02*
X043080Y026820D01*
X012645Y061512D02*
Y065676D01*
X011549Y060871D02*
X016572D01*
X011490Y060813D02*
X011549Y060871D01*
X011490Y060246D02*
Y060813D01*
X059744Y063080D02*
X059970Y062855D01*
Y060069D02*
Y062855D01*
Y060069D02*
X060028Y060010D01*
X059740Y060072D02*
X059962Y059850D01*
X059740Y060072D02*
Y062730D01*
X059962Y059850D02*
X067329D01*
X060028Y060010D02*
X067513D01*
X051680Y037043D02*
Y040370D01*
X046790Y040650D02*
X051400D01*
X051680Y040370D01*
X046486Y040954D02*
Y044531D01*
Y040954D02*
X046790Y040650D01*
X046061Y041495D02*
Y045991D01*
X051893Y027427D02*
Y036830D01*
X051680Y037043D02*
X051893Y036830D01*
X052053Y035572D02*
Y037003D01*
X052070Y037020D01*
X051893Y017450D02*
Y027427D01*
X051893Y027427D02*
X051893Y027427D01*
X050710Y031010D02*
Y039547D01*
X050537Y039720D02*
X050710Y039547D01*
X039408Y039720D02*
X050537D01*
X052053Y017201D02*
Y035572D01*
X052280Y036700D02*
X052283D01*
X051995Y017142D02*
X052053Y017201D01*
X052053Y035572D02*
X052053Y035572D01*
X052213Y036633D02*
X052280Y036700D01*
X052373Y036118D02*
X052470Y036215D01*
X052543Y016821D02*
Y035951D01*
X052660Y036068D02*
Y036080D01*
X052543Y035951D02*
X052660Y036068D01*
X052373Y016877D02*
Y036118D01*
X052213Y017002D02*
Y036633D01*
X052155Y016943D02*
X052213Y017002D01*
X052259Y016763D02*
X052373Y016877D01*
X052470Y036215D02*
Y036430D01*
X052321Y016599D02*
X052543Y016821D01*
X033650Y017310D02*
X051753D01*
X051893Y017450D01*
X031293Y015800D02*
X032256Y016763D01*
X032360Y016599D02*
X052321D01*
X031647Y016787D02*
X031910D01*
X032256Y016763D02*
X052259D01*
X031401Y015640D02*
X032360Y016599D01*
X031745Y017142D02*
X051995D01*
X032066Y016943D02*
X052155D01*
X031640Y016780D02*
X031647Y016787D01*
X031910D02*
X032066Y016943D01*
X033520Y017440D02*
Y017710D01*
Y017440D02*
X033650Y017310D01*
X060098Y065960D02*
X061894Y064164D01*
Y063609D02*
Y064164D01*
X064392Y061498D02*
Y062584D01*
Y061498D02*
X064460Y061430D01*
X060101Y065730D02*
X061392Y064440D01*
Y063631D02*
Y064440D01*
X052970Y065960D02*
X060098D01*
X052730Y065720D02*
X052970Y065960D01*
X053090Y065730D02*
X060101D01*
X063874Y061437D02*
Y062610D01*
X083520Y062798D02*
X083815Y062503D01*
X084730D01*
X083520Y062798D02*
Y064240D01*
X021840Y015915D02*
X021955Y015800D01*
X031293D01*
X021888Y015640D02*
X031401D01*
X021650Y015878D02*
X021888Y015640D01*
X031640Y017247D02*
X031745Y017142D01*
X031640Y017247D02*
Y019170D01*
X043430Y040410D02*
Y047693D01*
X042100Y047840D02*
X043283D01*
X043430Y047693D01*
X026971Y057001D02*
X027605Y057635D01*
X029892D01*
X026369Y057001D02*
X026971D01*
X026310Y057060D02*
X026369Y057001D01*
X026310Y057060D02*
Y058890D01*
X031848Y055163D02*
X045270D01*
X031670Y055341D02*
X031848Y055163D01*
X031782Y055003D02*
X045336D01*
X031490Y055294D02*
Y057081D01*
X045270Y055163D02*
X045421Y055314D01*
X031490Y055294D02*
X031782Y055003D01*
X045336D02*
X045339Y055006D01*
X031670Y055341D02*
Y057550D01*
X045421Y055314D02*
Y056779D01*
X032645Y048775D02*
Y051692D01*
X032630Y048760D02*
X032645Y048775D01*
X032630Y048760D02*
X032630Y048760D01*
X045339Y055006D02*
X045725D01*
Y056602D01*
Y050878D02*
Y055006D01*
X045421Y056779D02*
X045727Y057084D01*
X045727D01*
X045725Y050878D02*
X045784Y050819D01*
X046830Y050878D02*
Y050883D01*
X046771Y050819D02*
X046830Y050878D01*
X045784Y050819D02*
X046771D01*
X046830Y050883D02*
X047020Y051073D01*
X046005D02*
X046456D01*
X033265Y056648D02*
X033420Y056803D01*
X032109Y056648D02*
X033265D01*
X033420Y056803D02*
Y057702D01*
X029892Y057139D02*
X031432D01*
X031490Y057081D01*
X025998Y063433D02*
X053417D01*
X025940Y060764D02*
Y063375D01*
X024536Y060706D02*
X025881D01*
X025940Y060764D01*
Y063375D02*
X025998Y063433D01*
X025711Y060866D02*
X025770Y060924D01*
X024477Y060647D02*
X024536Y060706D01*
X024317Y060804D02*
X024379Y060866D01*
X025711D01*
X024477Y058730D02*
Y060647D01*
X025770Y060924D02*
Y063560D01*
X024317Y057773D02*
Y060804D01*
X023332Y061225D02*
X025391D01*
X025770Y063560D02*
X025828Y063619D01*
X025487Y061050D02*
X025610Y061172D01*
X025803Y063820D02*
X053646D01*
X025450Y061283D02*
Y063712D01*
X025610Y063626D02*
X025803Y063820D01*
X025828Y063619D02*
X053621D01*
X025610Y061172D02*
Y063626D01*
X025450Y063712D02*
X025718Y063980D01*
X025391Y061225D02*
X025450Y061283D01*
X023389Y061050D02*
X025487D01*
X025718Y063980D02*
X053920D01*
X053417Y063433D02*
X053928Y062922D01*
X053621Y063619D02*
X053960Y063280D01*
X053933Y063747D02*
X053960Y063720D01*
X053719Y063747D02*
X053933D01*
X053646Y063820D02*
X053719Y063747D01*
X053920Y063980D02*
X053960Y064020D01*
X022733Y053473D02*
X022743Y053483D01*
X022733Y053414D02*
Y053473D01*
X022239Y063961D02*
Y064572D01*
X021670Y063690D02*
X022000D01*
X020550Y058390D02*
X021331D01*
X021390Y058449D01*
Y063410D01*
X021670Y063690D01*
X018810Y059470D02*
X018830Y059490D01*
X020570D01*
X018790Y058270D02*
Y059450D01*
X018810Y059470D01*
X019190Y057490D02*
X020550D01*
X019170Y057470D02*
X019190Y057490D01*
X019187Y056359D02*
Y057453D01*
X019170Y057470D02*
X019187Y057453D01*
X058217Y016354D02*
X059007D01*
X057740Y016831D02*
Y019100D01*
Y016831D02*
X058217Y016354D01*
X059007D02*
X059066Y016296D01*
Y011648D02*
Y016296D01*
Y011648D02*
X059186Y011527D01*
X065991D01*
X066122Y011658D01*
X072480Y012974D02*
Y013487D01*
X072980Y012974D02*
Y013487D01*
X056580Y019240D02*
X057600D01*
X057740Y019100D01*
X056480Y019340D02*
X056580Y019240D01*
X056480Y019340D02*
Y022070D01*
X056070Y022140D02*
X056410D01*
X056480Y022070D01*
X023171Y056240D02*
X023488Y055923D01*
X023171Y056240D02*
Y061063D01*
X023774Y055652D02*
Y056106D01*
X023331Y056549D02*
X023774Y056106D01*
X023331Y056549D02*
Y060991D01*
X023389Y061050D01*
X023171Y061063D02*
X023332Y061225D01*
X016350Y056540D02*
X017294Y057484D01*
X010670Y061080D02*
X016352D01*
X010372Y056009D02*
Y060782D01*
X010670Y061080D01*
X016572Y060871D02*
X016631Y060930D01*
X016352Y061080D02*
X016430Y061158D01*
X010465Y055916D02*
X011540D01*
X010372Y056009D02*
X010465Y055916D01*
X016020Y056689D02*
X016974Y057642D01*
X016755Y057650D02*
X016814Y057709D01*
X016190Y056632D02*
X017134Y057576D01*
X014676Y057650D02*
X016755D01*
X014640Y057687D02*
X014676Y057650D01*
X023203Y052778D02*
X023207Y052777D01*
X027024Y048740D02*
X031750D01*
X083745Y062899D02*
Y063761D01*
X083803Y063820D02*
X085380D01*
X083745Y063761D02*
X083803Y063820D01*
X071150Y053860D02*
Y062960D01*
X067572Y037376D02*
Y059951D01*
X067513Y060010D02*
X067572Y059951D01*
X067388Y037326D02*
Y059791D01*
X067329Y059850D02*
X067388Y059791D01*
X068023Y036924D02*
X071494D01*
X067740Y037434D02*
X068090Y037084D01*
X067388Y037326D02*
X067950Y036764D01*
X068080Y037566D02*
X068242Y037404D01*
X068302Y037570D02*
X071786D01*
X068090Y037084D02*
X071560D01*
X067950Y036764D02*
X071427D01*
X067900Y037520D02*
X068176Y037244D01*
X071660D01*
X068242Y037404D02*
X071726D01*
X068244Y037629D02*
X068302Y037570D01*
X067572Y037376D02*
X068023Y036924D01*
X031389Y034787D02*
X034481D01*
X034590Y034896D02*
Y035710D01*
X034481Y034787D02*
X034590Y034896D01*
X039244Y039885D02*
X039408Y039720D01*
X039244Y039885D02*
Y043043D01*
X049620Y043358D02*
X053762D01*
X021840Y015915D02*
Y028330D01*
X021650Y015878D02*
Y026590D01*
X021530Y026710D02*
X021650Y026590D01*
X020990Y026710D02*
X021530D01*
X021000Y028470D02*
X021700D01*
X021840Y028330D01*
X024477Y058730D02*
X024606Y058602D01*
X024317Y057773D02*
X024320Y057770D01*
X071646Y032918D02*
X071920Y032644D01*
X072912D02*
X073006Y032550D01*
X071494Y036924D02*
X071646Y036772D01*
X073006Y032550D02*
X074035D01*
X071646Y032918D02*
Y036772D01*
X071920Y032644D02*
X072912D01*
X079470Y032610D02*
Y033081D01*
X072126Y033199D02*
X072184Y033140D01*
X072126Y033199D02*
Y037004D01*
X071726Y037404D02*
X072126Y037004D01*
X072184Y033140D02*
X079411D01*
X079470Y033081D01*
X071786Y037570D02*
X072286Y037071D01*
X071966Y033126D02*
Y036938D01*
X071660Y037244D02*
X071966Y036938D01*
X072286Y033359D02*
Y037071D01*
X071560Y037084D02*
X071806Y036838D01*
X071427Y036764D02*
X071486Y036706D01*
Y032796D02*
Y036706D01*
X071806Y033060D02*
Y036838D01*
X071966Y033126D02*
X072128Y032964D01*
X072286Y033359D02*
X072344Y033300D01*
X071486Y032796D02*
X071797Y032484D01*
X071806Y033060D02*
X072062Y032804D01*
X072344Y033300D02*
X079551D01*
X071797Y032484D02*
X072826D01*
X072062Y032804D02*
X074663D01*
X072826Y032484D02*
X073050Y032260D01*
X074663Y032804D02*
X074999Y032469D01*
X072128Y032964D02*
X075853D01*
X076107Y032710D01*
X079551Y033300D02*
X079850Y033001D01*
Y032610D02*
Y033001D01*
X027241Y057921D02*
X032109D01*
Y057139D02*
Y057921D01*
X046724Y051340D02*
X047420D01*
X047515Y051435D01*
Y056100D01*
X047950D01*
X047080D02*
X047515D01*
X046456Y051073D02*
X046724Y051340D01*
X047020Y051073D02*
X047950D01*
X026310Y058890D02*
X026488Y059068D01*
X026645D02*
X026850Y059273D01*
X026488Y059068D02*
X026645D01*
X026850Y057530D02*
X027241Y057921D01*
X031585Y057635D02*
X031670Y057550D01*
X029892Y057635D02*
X031585D01*
X032109Y057921D02*
X047020D01*
X047137Y056602D02*
X047927D01*
X047020Y057921D02*
X047079Y057862D01*
Y056661D02*
Y057862D01*
Y056661D02*
X047137Y056602D01*
X046799Y057761D02*
X046880Y057680D01*
X033479Y057761D02*
X046799D01*
X033420Y057702D02*
X033479Y057761D01*
X046880Y056300D02*
Y057680D01*
Y056300D02*
X047080Y056100D01*
X047927Y056602D02*
X047934Y056595D01*
X042100Y044430D02*
Y044890D01*
Y048760D02*
X042110Y048750D01*
X043430D01*
X039244Y043043D02*
X039260Y043060D01*
X042100Y044890D02*
Y045770D01*
X041200Y045770D02*
Y046440D01*
X040140Y047500D02*
X041200Y046440D01*
X039320Y047500D02*
X040140D01*
X038940Y048300D02*
X038954Y048286D01*
X036180Y047730D02*
X036736Y048286D01*
X038926D01*
X038940Y048300D01*
X036180Y046980D02*
Y047730D01*
X033720Y047860D02*
X035290D01*
X036190Y048760D01*
X033720Y046110D02*
Y047860D01*
X033720Y047860D02*
X033720Y047860D01*
X035160Y046980D02*
X036180D01*
X035150Y046970D02*
X035160Y046980D01*
X040140Y044910D02*
Y045770D01*
Y044910D02*
X040160Y044890D01*
X041200D01*
D13*
X052892Y031398D02*
X067891D01*
X069044Y032550D02*
X069347D01*
X067891Y031398D02*
X069044Y032550D01*
X028315Y037235D02*
X028432Y037352D01*
X037371D01*
X028432Y016700D02*
X029430D01*
X028315Y016817D02*
X028432Y016700D01*
X028315Y016817D02*
Y037235D01*
X078670Y014230D02*
Y016900D01*
X077460Y030487D02*
X078583D01*
X073093D02*
X077460D01*
Y031200D01*
X078700Y029420D02*
Y030370D01*
X072840Y030234D02*
X073093Y030487D01*
X078583D02*
X078700Y030370D01*
X053736Y031843D02*
Y041283D01*
X067757Y031725D02*
X068892Y032860D01*
X053736Y031843D02*
X053853Y031725D01*
X067757D01*
X052775Y016756D02*
Y031281D01*
X052892Y031398D01*
X068892Y032860D02*
X070314D01*
X052373Y016354D02*
X052775Y016756D01*
X032464Y016354D02*
X052373D01*
X031530Y015420D02*
X032464Y016354D01*
X076810Y035910D02*
Y060720D01*
X076630Y060900D02*
X076810Y060720D01*
X075380Y060900D02*
X076630D01*
X030237Y015420D02*
X031530D01*
X030120Y015303D02*
X030237Y015420D01*
X030120Y014370D02*
Y015303D01*
X047840Y041588D02*
Y048080D01*
X048028Y041400D02*
X051780D01*
X047840Y041588D02*
X048028Y041400D01*
X051780D02*
X053619D01*
X053736Y041283D01*
X047840Y048080D02*
Y049940D01*
X047080Y048072D02*
X047832D01*
X047840Y048080D01*
X051780Y040920D02*
Y041400D01*
X047840Y049940D02*
X048190D01*
X033490D02*
X047840D01*
X026699Y056106D02*
X027533Y056940D01*
X024470Y056106D02*
X026699D01*
X023774Y056803D02*
X024470Y056106D01*
X027533Y056940D02*
X029050D01*
X033290Y050140D02*
Y054290D01*
Y050140D02*
X033490Y049940D01*
X048190D02*
X048460Y050210D01*
Y053780D01*
X076810Y034290D02*
Y035910D01*
X018810Y060920D02*
X020443D01*
X020570Y060793D01*
Y059990D02*
Y060793D01*
X075516Y013270D02*
X076493D01*
X067939Y012420D02*
X074667D01*
X075516Y013270D01*
X076610Y012930D02*
Y013152D01*
X076493Y013270D02*
X076610Y013152D01*
Y012930D02*
X077320D01*
X067822Y012537D02*
X067939Y012420D01*
X067822Y012537D02*
Y013430D01*
X070824Y016358D02*
X075651D01*
X076261Y014230D02*
Y015749D01*
X075651Y016358D02*
X076261Y015749D01*
X069009Y014543D02*
X070824Y016358D01*
X076261Y014230D02*
X077320D01*
X076261Y014228D02*
Y014230D01*
X067822Y014543D02*
X069009D01*
X073750Y016655D02*
X075745D01*
X072439Y021880D02*
X072602Y021717D01*
X073257D02*
X073422Y021883D01*
X072602Y021717D02*
X073257D01*
X059348Y021880D02*
X072439D01*
X059066Y022140D02*
X072658D01*
X073422Y021883D02*
X074156D01*
X059066Y021598D02*
X059348Y021880D01*
X059066Y020940D02*
Y021598D01*
X075745Y016655D02*
X076840Y015560D01*
X066130Y055280D02*
Y057290D01*
X072840Y028820D02*
Y030234D01*
X078690Y029410D02*
X078700Y029420D01*
X073249Y016934D02*
X077326D01*
X077340Y016920D01*
X060406Y027685D02*
X075743D01*
X075860Y027802D01*
Y028990D01*
X076290Y029420D01*
X060361Y027650D02*
X060372D01*
X060406Y027685D01*
X061060Y027373D02*
X075915D01*
X076633Y028090D01*
X077340D01*
X060361Y026674D02*
X061060Y027373D01*
X060361Y025120D02*
Y026674D01*
X076290Y029420D02*
X077350D01*
X067841Y026760D02*
X077340D01*
X067751Y026670D02*
X067841Y026760D01*
X067740Y026670D02*
X067751D01*
X067917Y025420D02*
X077340D01*
X067767Y025570D02*
X067917Y025420D01*
X067756Y025570D02*
X067767D01*
X076840Y015560D02*
X077340D01*
X078690Y028090D02*
Y029410D01*
Y026760D02*
Y028090D01*
Y025420D02*
Y026760D01*
Y016920D02*
Y025420D01*
X078670Y012930D02*
Y014230D01*
Y016900D02*
X078690Y016920D01*
D20*
X066082Y038733D02*
X066520D01*
X066000Y038815D02*
X066082Y038733D01*
X066000Y038815D02*
Y041360D01*
X066457Y041817D02*
Y050242D01*
X066000Y041360D02*
X066457Y041817D01*
D24*
X058380Y041746D02*
Y044853D01*
X058427Y044900D01*
X059923D01*
X058140Y036540D02*
X058300Y036700D01*
X066858Y041107D02*
Y055282D01*
X066558Y040807D02*
X066858Y041107D01*
X057495Y036436D02*
X060451Y033480D01*
X057495Y036944D02*
X057551Y037000D01*
X057495Y036436D02*
Y036944D01*
X060451Y033480D02*
X069700D01*
X060509Y033620D02*
X069593D01*
X057735Y036394D02*
Y036780D01*
Y036394D02*
X060509Y033620D01*
X061133Y037117D02*
X062231Y036019D01*
X062572D01*
X061667Y036041D02*
Y036343D01*
Y036041D02*
X061669Y036040D01*
X061113Y036897D02*
X061667Y036343D01*
X058140Y036897D02*
X061113D01*
X057040Y039373D02*
Y040404D01*
X057250Y040615D02*
Y041201D01*
X057040Y040404D02*
X057250Y040615D01*
Y041201D02*
X057368Y041318D01*
X059927Y041365D02*
Y042090D01*
X059880Y041318D02*
X059927Y041365D01*
X057368Y041318D02*
X059880D01*
X057390Y041132D02*
X057437Y041178D01*
X057390Y040370D02*
Y041132D01*
X057437Y041178D02*
X062552D01*
X062572Y041199D01*
X057030Y039363D02*
X057040Y039373D01*
X056770Y039146D02*
Y046513D01*
X056817Y046560D02*
X060950D01*
X056770Y046513D02*
X056817Y046560D01*
X060232Y035860D02*
Y036653D01*
X058300Y036700D02*
X060185D01*
X060232Y036653D01*
X057929Y036897D02*
X058140D01*
X058426Y037117D02*
X061133D01*
X057551Y037000D02*
X057826D01*
X057929Y036897D01*
X069650Y033677D02*
Y035580D01*
X069593Y033620D02*
X069650Y033677D01*
X069841Y035427D02*
X070050D01*
X069794Y035380D02*
X069841Y035427D01*
X069794Y033574D02*
Y035380D01*
X069700Y033480D02*
X069794Y033574D01*
X070040Y035740D02*
X070050Y035750D01*
X069810Y035740D02*
X070040D01*
X069650Y035580D02*
X069810Y035740D01*
D35*
X043964Y026820D02*
D03*
X043964Y025920D02*
D03*
X043080Y025920D02*
D03*
X043080Y026820D02*
D03*
X035150Y046070D02*
D03*
X035150Y046970D02*
D03*
X031750Y048740D02*
D03*
X031750Y047840D02*
D03*
X033720Y047860D02*
D03*
X033720Y048760D02*
D03*
X032630Y047860D02*
D03*
X032630Y048760D02*
D03*
X020550Y058390D02*
D03*
X020550Y057490D02*
D03*
X039260Y043960D02*
D03*
X039260Y043060D02*
D03*
D36*
X042100Y047840D02*
D03*
X041200Y047840D02*
D03*
X036180Y046980D02*
D03*
X037080Y046980D02*
D03*
X039260Y044890D02*
D03*
X040160Y044890D02*
D03*
X041200Y045770D02*
D03*
X042100Y045770D02*
D03*
X040140Y045770D02*
D03*
X039240Y045770D02*
D03*
X042100Y048760D02*
D03*
X041200Y048760D02*
D03*
X033720Y046110D02*
D03*
X032820Y046110D02*
D03*
X041200Y044890D02*
D03*
X042100Y044890D02*
D03*
X034519Y044448D02*
D03*
X033619Y044448D02*
D03*
X018287Y056359D02*
D03*
X019187Y056359D02*
D03*
D39*
X044842Y013615D02*
D03*
Y015525D02*
D03*
X047818D02*
D03*
Y013615D02*
D03*
X071492Y015525D02*
D03*
Y013615D02*
D03*
X074468D02*
D03*
Y015525D02*
D03*
D40*
X045830Y013487D02*
D03*
X046330D02*
D03*
X046830D02*
D03*
X045830Y015653D02*
D03*
X046330D02*
D03*
X046830D02*
D03*
X072480Y013487D02*
D03*
X072980D02*
D03*
X073480D02*
D03*
X072480Y015653D02*
D03*
X072980D02*
D03*
X073480D02*
D03*
D47*
X018810Y059470D02*
D03*
Y060920D02*
D03*
D110*
X021020Y047870D02*
D03*
D111*
X014871Y030110D02*
X015400Y029581D01*
X011610Y030110D02*
X014871D01*
X015400Y013080D02*
Y029581D01*
X065153Y026307D02*
X066045D01*
X065150Y026310D02*
X065153Y026307D01*
X014580Y011970D02*
X047980D01*
X049208Y013198D02*
Y014038D01*
X047980Y011970D02*
X049208Y013198D01*
X015900Y012580D02*
X046154D01*
X015400Y013080D02*
X015900Y012580D01*
X012653Y013897D02*
X014580Y011970D01*
X046330Y012756D02*
Y013487D01*
X046154Y012580D02*
X046330Y012756D01*
X012653Y015188D02*
Y015753D01*
Y013897D02*
Y015188D01*
Y015753D02*
X013606Y016706D01*
X031374Y031188D02*
Y031584D01*
X031549Y031760D02*
X035650D01*
X031374Y031584D02*
X031549Y031760D01*
X065690Y013350D02*
Y014620D01*
X063690Y025890D02*
Y026800D01*
X011940Y024950D02*
X013606Y023284D01*
Y016706D02*
Y023284D01*
X010936Y015188D02*
X012653D01*
X011940Y024950D02*
Y027097D01*
D112*
X074531Y034555D02*
Y062439D01*
X072100Y064870D02*
X074531Y062439D01*
Y034260D02*
Y034555D01*
X065240Y035775D02*
Y054641D01*
Y035775D02*
X066460Y034555D01*
X059399Y055110D02*
X064771D01*
X065240Y054641D01*
X058930Y055579D02*
Y064317D01*
Y055579D02*
X059399Y055110D01*
X057489Y064785D02*
X058461D01*
X057405Y064870D02*
X057489Y064785D01*
X058461D02*
X058930Y064317D01*
X054820Y035024D02*
Y064500D01*
X049334Y064968D02*
X054351D01*
X054820Y064500D01*
Y035024D02*
X055289Y034555D01*
X057405D01*
X078789D02*
X082602D01*
X078320Y035024D02*
X078789Y034555D01*
X078320Y035024D02*
Y064401D01*
X066460Y064870D02*
X072100D01*
X077851D02*
X078320Y064401D01*
X074531Y064870D02*
X077851D01*
D113*
X084268Y058640D02*
X085695D01*
X085836Y058781D01*
Y064060D01*
X085811Y064084D02*
X085836Y064060D01*
D115*
X020570Y059490D02*
D03*
D116*
Y059990D02*
D03*
D117*
X038371Y037352D02*
D03*
X048470Y031910D02*
D03*
D118*
X037371Y037352D02*
D03*
X047470Y031910D02*
D03*
X077813Y022375D02*
D03*
Y020406D02*
D03*
Y021391D02*
D03*
D119*
X041280Y034174D02*
D03*
Y018820D02*
D03*
X042913Y064921D02*
D03*
X029528Y064823D02*
D03*
Y051437D02*
D03*
D120*
X010610Y029110D02*
D03*
Y031110D02*
D03*
X012610D02*
D03*
Y029110D02*
D03*
X011610Y030110D02*
D03*
X010610Y018874D02*
D03*
Y020874D02*
D03*
X012610D02*
D03*
Y018874D02*
D03*
X011610Y019874D02*
D03*
X010982Y051102D02*
D03*
X013856D02*
D03*
D121*
X014762Y052008D02*
D03*
X014250Y048465D02*
D03*
X014640Y060059D02*
D03*
Y057697D02*
D03*
X011490Y060256D02*
D03*
Y057500D02*
D03*
X014634Y040740D02*
D03*
Y038378D02*
D03*
X011484Y040937D02*
D03*
Y038181D02*
D03*
X014381Y015188D02*
D03*
X010936D02*
D03*
X013495D02*
D03*
X014634Y045091D02*
D03*
Y042728D02*
D03*
X011484Y045287D02*
D03*
Y042531D02*
D03*
X014401Y025129D02*
D03*
X010956D02*
D03*
X013515D02*
D03*
X011540Y053169D02*
D03*
Y055925D02*
D03*
X014690Y053366D02*
D03*
Y055728D02*
D03*
X011480Y061831D02*
D03*
Y064587D02*
D03*
X014630Y062028D02*
D03*
Y064390D02*
D03*
D122*
X013616Y058878D02*
D03*
X010797D02*
D03*
X013610Y039559D02*
D03*
X010791D02*
D03*
X013610Y043909D02*
D03*
X010791D02*
D03*
X010847Y054547D02*
D03*
X013666D02*
D03*
X010787Y063209D02*
D03*
X013606D02*
D03*
D123*
X054440Y017126D02*
D03*
X068036D02*
D03*
X045802Y031186D02*
D03*
X078746Y031186D02*
D03*
X082602Y032404D02*
D03*
X057405Y032404D02*
D03*
X016102Y064756D02*
D03*
X087951Y064756D02*
D03*
X010787Y012197D02*
D03*
X075945D02*
D03*
X049567D02*
D03*
D124*
X044960Y014570D02*
D03*
X047700D02*
D03*
X024101Y064087D02*
D03*
X017861D02*
D03*
X066762Y062063D02*
D03*
X060522D02*
D03*
X071610Y014570D02*
D03*
X074350D02*
D03*
D125*
X088278Y062886D02*
D03*
Y058358D02*
D03*
X054986Y030694D02*
D03*
Y028726D02*
D03*
X054966Y019416D02*
D03*
Y021384D02*
D03*
X060366Y015576D02*
D03*
X062334D02*
D03*
X057694Y015586D02*
D03*
X055726D02*
D03*
X069436Y023544D02*
D03*
X071404D02*
D03*
X011920Y017157D02*
D03*
Y013220D02*
D03*
X060046Y028824D02*
D03*
X062014D02*
D03*
X011940Y027097D02*
D03*
Y023160D02*
D03*
X064786Y023544D02*
D03*
X066754D02*
D03*
X050932Y015663D02*
D03*
X052900D02*
D03*
X071624Y028864D02*
D03*
X069656D02*
D03*
X054986Y026084D02*
D03*
Y024116D02*
D03*
X066796Y028824D02*
D03*
X064828D02*
D03*
X060170Y020850D02*
D03*
X062138D02*
D03*
X064836Y020856D02*
D03*
X066804D02*
D03*
X062064Y023524D02*
D03*
X060096D02*
D03*
X069486Y020866D02*
D03*
X071454D02*
D03*
D126*
X086900Y062886D02*
D03*
Y058358D02*
D03*
D127*
X049334Y064968D02*
D03*
Y034555D02*
D03*
X057405D02*
D03*
X066460D02*
D03*
X074531D02*
D03*
X066460Y064870D02*
D03*
X082602Y034555D02*
D03*
Y064870D02*
D03*
X074531D02*
D03*
X057405D02*
D03*
D128*
X043630Y022770D02*
D03*
Y021770D02*
D03*
Y032230D02*
D03*
Y031230D02*
D03*
D129*
Y020770D02*
D03*
Y030230D02*
D03*
D130*
X048610Y024690D02*
D03*
X037586D02*
D03*
X048610Y028233D02*
D03*
Y026462D02*
D03*
D131*
X037586Y028233D02*
D03*
D132*
X074860Y023851D02*
D03*
Y018930D02*
D03*
D133*
X017050Y065461D02*
D03*
X015177Y065476D02*
D03*
X016589Y063476D02*
D03*
X083975Y063530D02*
D03*
X083750Y062894D02*
D03*
X072640Y022142D02*
D03*
X074762Y027365D02*
D03*
X074264Y027688D02*
D03*
X074156Y021883D02*
D03*
X075761Y025433D02*
D03*
X075258Y026765D02*
D03*
X035910Y040882D02*
D03*
X028782D02*
D03*
X029756Y026612D02*
D03*
X029430Y016700D02*
D03*
X069347Y032550D02*
D03*
X046331Y015180D02*
D03*
X045830Y015238D02*
D03*
X046830Y015653D02*
D03*
X043911Y014045D02*
D03*
X033930Y039506D02*
D03*
X043387Y013800D02*
D03*
X022733Y062525D02*
D03*
X026210Y045840D02*
D03*
Y037934D02*
D03*
X019233Y062619D02*
D03*
X018752Y062620D02*
D03*
X012645Y065676D02*
D03*
Y061512D02*
D03*
X059090Y036420D02*
D03*
X055611Y036114D02*
D03*
X057568Y044865D02*
D03*
X055927Y041344D02*
D03*
X060868Y040133D02*
D03*
X060215D02*
D03*
X060803Y037835D02*
D03*
X060215D02*
D03*
X058380Y041746D02*
D03*
X058750Y038964D02*
D03*
X058423Y039290D02*
D03*
X058425Y038968D02*
D03*
X058748Y039293D02*
D03*
X058140Y036540D02*
D03*
X066558Y040807D02*
D03*
X080410Y061130D02*
D03*
X079104Y061262D02*
D03*
X079267Y058193D02*
D03*
X077405D02*
D03*
X077422Y060560D02*
D03*
X033083Y055962D02*
D03*
X046541Y053012D02*
D03*
X039240Y056210D02*
D03*
X066858Y055282D02*
D03*
X059740Y062730D02*
D03*
X059744Y063080D02*
D03*
X066045Y026307D02*
D03*
X065150Y026310D02*
D03*
X046486Y044531D02*
D03*
X046061Y041495D02*
D03*
Y045991D02*
D03*
X052070Y037020D02*
D03*
X033520Y017710D02*
D03*
X061894Y063609D02*
D03*
X061392Y063631D02*
D03*
X075380Y060900D02*
D03*
X064392Y062584D02*
D03*
X065387Y060500D02*
D03*
X064898Y060524D02*
D03*
X063874Y062610D02*
D03*
X084268Y058640D02*
D03*
X084730Y062503D02*
D03*
X083520Y064240D02*
D03*
X030120Y014370D02*
D03*
X070314Y032860D02*
D03*
X047080Y048072D02*
D03*
X051780Y040920D02*
D03*
X023774Y056803D02*
D03*
X033294Y054286D02*
D03*
X032645Y051692D02*
D03*
X048460Y053780D02*
D03*
X029050Y056940D02*
D03*
X046005Y051073D02*
D03*
X032109Y056648D02*
D03*
X053960Y064020D02*
D03*
X076810Y034290D02*
D03*
Y035910D02*
D03*
X018754Y064550D02*
D03*
X019734Y064560D02*
D03*
X020722Y064532D02*
D03*
X020230Y064556D02*
D03*
X022000Y063690D02*
D03*
X022239Y064572D02*
D03*
X073750Y016654D02*
D03*
X049208Y014038D02*
D03*
X066122Y011658D02*
D03*
X072480Y012974D02*
D03*
X072980D02*
D03*
X023488Y055923D02*
D03*
X023774Y055652D02*
D03*
X085380Y063820D02*
D03*
X085150Y063530D02*
D03*
X085811Y064084D02*
D03*
X071150Y053860D02*
D03*
Y062960D02*
D03*
X066520Y038733D02*
D03*
X066130Y057290D02*
D03*
Y055280D02*
D03*
X035650Y031760D02*
D03*
X031374Y031188D02*
D03*
X034590Y035710D02*
D03*
X031389Y034787D02*
D03*
X062572Y036019D02*
D03*
X061669Y036040D02*
D03*
X062572Y041199D02*
D03*
X057390Y040370D02*
D03*
X056770Y039146D02*
D03*
X057030Y039363D02*
D03*
X059927Y042090D02*
D03*
X060950Y046560D02*
D03*
X059923Y044900D02*
D03*
X058426Y037117D02*
D03*
X060232Y035860D02*
D03*
X058140Y036897D02*
D03*
X057735Y036780D02*
D03*
X070050Y035427D02*
D03*
X070050Y035750D02*
D03*
X043430Y040410D02*
D03*
X052660Y036080D02*
D03*
X052470Y036430D02*
D03*
X052283Y036700D02*
D03*
X050710Y031010D02*
D03*
X049620Y043358D02*
D03*
X053762D02*
D03*
X020990Y026710D02*
D03*
X021000Y028470D02*
D03*
X031640Y016780D02*
D03*
Y019170D02*
D03*
X053928Y062922D02*
D03*
X053960Y063280D02*
D03*
Y063720D02*
D03*
X052730Y065720D02*
D03*
X053090Y065730D02*
D03*
X024320Y057770D02*
D03*
X024606Y058602D02*
D03*
X074035Y032550D02*
D03*
X073050Y032260D02*
D03*
X074999Y032469D02*
D03*
X076107Y032710D02*
D03*
X047934Y056595D02*
D03*
X042100Y044430D02*
D03*
X043430Y048750D02*
D03*
X047950Y051073D02*
D03*
X047950Y056100D02*
D03*
X045725Y056602D02*
D03*
X045727Y057084D02*
D03*
X029892Y057139D02*
D03*
X032109D02*
D03*
X029892Y057635D02*
D03*
X026850Y057530D02*
D03*
Y059273D02*
D03*
X077460Y031200D02*
D03*
X072840Y028820D02*
D03*
X073249Y016946D02*
D03*
X076610Y012930D02*
D03*
X076261Y014228D02*
D03*
X079470Y032610D02*
D03*
X079850D02*
D03*
X060361Y027650D02*
D03*
X065690Y014620D02*
D03*
X059066Y020940D02*
D03*
Y022140D02*
D03*
X060361Y025120D02*
D03*
X067740Y026670D02*
D03*
X067756Y025570D02*
D03*
X067822Y013430D02*
D03*
Y014543D02*
D03*
X056070Y022140D02*
D03*
X065690Y013350D02*
D03*
X063690Y025890D02*
D03*
Y026800D02*
D03*
D134*
X086400Y064800D02*
D03*
X087600Y057600D02*
D03*
X086400Y055200D02*
D03*
X087600Y052800D02*
D03*
X086400Y050400D02*
D03*
X087600Y048000D02*
D03*
X086400Y045600D02*
D03*
X087600Y043200D02*
D03*
X086400Y040800D02*
D03*
X087600Y038400D02*
D03*
X086400Y036000D02*
D03*
X087600Y033600D02*
D03*
X084000Y064800D02*
D03*
X085200Y057600D02*
D03*
Y052800D02*
D03*
Y048000D02*
D03*
Y043200D02*
D03*
X084000Y036000D02*
D03*
X085200Y033600D02*
D03*
X081600Y055200D02*
D03*
X082800Y052800D02*
D03*
X081600Y050400D02*
D03*
Y036000D02*
D03*
X079200Y060000D02*
D03*
X080400Y057600D02*
D03*
X079200Y055200D02*
D03*
X080400Y052800D02*
D03*
Y048000D02*
D03*
Y038400D02*
D03*
X079200Y036000D02*
D03*
X080400Y033600D02*
D03*
X079200Y021600D02*
D03*
Y012000D02*
D03*
X078000Y033600D02*
D03*
Y028800D02*
D03*
Y024000D02*
D03*
Y019200D02*
D03*
Y014400D02*
D03*
X076800Y012000D02*
D03*
X075600Y048000D02*
D03*
X074400Y021600D02*
D03*
X075600Y014400D02*
D03*
X074400Y012000D02*
D03*
X073200Y062400D02*
D03*
X072000Y060000D02*
D03*
Y050400D02*
D03*
Y026400D02*
D03*
Y016800D02*
D03*
X073200Y014400D02*
D03*
X070800Y062400D02*
D03*
X069600Y060000D02*
D03*
X070800Y057600D02*
D03*
X069600Y050400D02*
D03*
X070800Y048000D02*
D03*
X069600Y045600D02*
D03*
Y031200D02*
D03*
X070800Y028800D02*
D03*
X069600Y026400D02*
D03*
X070800Y024000D02*
D03*
Y019200D02*
D03*
X069600Y016800D02*
D03*
X070800Y014400D02*
D03*
X068400Y062400D02*
D03*
X067200Y036000D02*
D03*
Y026400D02*
D03*
X068400Y024000D02*
D03*
Y019200D02*
D03*
X067200Y016800D02*
D03*
X064800Y064800D02*
D03*
X066000Y038400D02*
D03*
Y028800D02*
D03*
X062400Y064800D02*
D03*
X063600Y057600D02*
D03*
Y043200D02*
D03*
X062400Y040800D02*
D03*
X063600Y038400D02*
D03*
Y024000D02*
D03*
Y019200D02*
D03*
X060000Y064800D02*
D03*
X061200Y057600D02*
D03*
Y043200D02*
D03*
X060000Y040800D02*
D03*
X061200Y038400D02*
D03*
Y028800D02*
D03*
Y024000D02*
D03*
X060000Y012000D02*
D03*
X057600Y060000D02*
D03*
X058800Y052800D02*
D03*
Y033600D02*
D03*
Y019200D02*
D03*
X057600Y012000D02*
D03*
X056400Y062400D02*
D03*
Y057600D02*
D03*
Y052800D02*
D03*
Y048000D02*
D03*
Y043200D02*
D03*
Y033600D02*
D03*
X055200Y016800D02*
D03*
X056400Y014400D02*
D03*
X055200Y012000D02*
D03*
X054000Y062400D02*
D03*
Y024000D02*
D03*
Y014400D02*
D03*
X052800Y012000D02*
D03*
X051600Y062400D02*
D03*
X050400Y050400D02*
D03*
X051600Y048000D02*
D03*
X050400Y036000D02*
D03*
Y031200D02*
D03*
Y021600D02*
D03*
Y012000D02*
D03*
X048000Y064800D02*
D03*
X049200Y062400D02*
D03*
X048000Y060000D02*
D03*
Y055200D02*
D03*
X049200Y052800D02*
D03*
X048000Y021600D02*
D03*
X045600Y064800D02*
D03*
X046800Y062400D02*
D03*
X045600Y060000D02*
D03*
X046800Y052800D02*
D03*
X045600Y045600D02*
D03*
Y040800D02*
D03*
X046800Y038400D02*
D03*
X045600Y026400D02*
D03*
X046800Y024000D02*
D03*
X045600Y021600D02*
D03*
X046800Y014400D02*
D03*
X044400Y052800D02*
D03*
Y048000D02*
D03*
Y043200D02*
D03*
Y038400D02*
D03*
X043200Y036000D02*
D03*
X044400Y028800D02*
D03*
Y024000D02*
D03*
Y014400D02*
D03*
X040800Y064800D02*
D03*
X042000Y052800D02*
D03*
Y043200D02*
D03*
X040800Y040800D02*
D03*
X042000Y038400D02*
D03*
X040800Y036000D02*
D03*
Y031200D02*
D03*
X042000Y028800D02*
D03*
X040800Y021600D02*
D03*
X042000Y014400D02*
D03*
X038400Y064800D02*
D03*
X039600Y062400D02*
D03*
Y052800D02*
D03*
X038400Y045600D02*
D03*
Y040800D02*
D03*
X039600Y038400D02*
D03*
X038400Y036000D02*
D03*
X039600Y033600D02*
D03*
Y028800D02*
D03*
Y024000D02*
D03*
Y019200D02*
D03*
X036000Y064800D02*
D03*
X037200Y052800D02*
D03*
X036000Y045600D02*
D03*
X037200Y043200D02*
D03*
Y038400D02*
D03*
X036000Y036000D02*
D03*
X037200Y019200D02*
D03*
Y014400D02*
D03*
X033600Y064800D02*
D03*
X034800Y062400D02*
D03*
Y052800D02*
D03*
X033600Y045600D02*
D03*
X034800Y043200D02*
D03*
X033600Y036000D02*
D03*
Y031200D02*
D03*
X034800Y028800D02*
D03*
Y024000D02*
D03*
X031200Y064800D02*
D03*
X032400Y062400D02*
D03*
X031200Y060000D02*
D03*
Y055200D02*
D03*
X032400Y052800D02*
D03*
X031200Y045600D02*
D03*
X032400Y043200D02*
D03*
Y024000D02*
D03*
Y019200D02*
D03*
X031200Y016800D02*
D03*
X032400Y014400D02*
D03*
X030000Y062400D02*
D03*
Y052800D02*
D03*
X028800Y050400D02*
D03*
X030000Y048000D02*
D03*
X028800Y045600D02*
D03*
X030000Y043200D02*
D03*
X028800Y036000D02*
D03*
Y031200D02*
D03*
X030000Y028800D02*
D03*
Y024000D02*
D03*
X028800Y021600D02*
D03*
X030000Y019200D02*
D03*
X026400Y064800D02*
D03*
X027600Y062400D02*
D03*
X026400Y055200D02*
D03*
X027600Y052800D02*
D03*
Y048000D02*
D03*
Y043200D02*
D03*
Y033600D02*
D03*
Y028800D02*
D03*
Y024000D02*
D03*
X026400Y021600D02*
D03*
X027600Y019200D02*
D03*
X026400Y016800D02*
D03*
X027600Y014400D02*
D03*
X024000Y055200D02*
D03*
X025200Y052800D02*
D03*
Y043200D02*
D03*
X024000Y036000D02*
D03*
X025200Y033600D02*
D03*
X024000Y031200D02*
D03*
X025200Y028800D02*
D03*
X024000Y026400D02*
D03*
X025200Y024000D02*
D03*
X024000Y021600D02*
D03*
X025200Y019200D02*
D03*
X024000Y016800D02*
D03*
X025200Y014400D02*
D03*
X022800Y043200D02*
D03*
Y038400D02*
D03*
X021600Y036000D02*
D03*
X022800Y033600D02*
D03*
X021600Y031200D02*
D03*
X022800Y028800D02*
D03*
Y024000D02*
D03*
Y019200D02*
D03*
Y014400D02*
D03*
X019200Y060000D02*
D03*
Y055200D02*
D03*
X020400Y052800D02*
D03*
Y038400D02*
D03*
X019200Y036000D02*
D03*
Y031200D02*
D03*
Y021600D02*
D03*
Y016800D02*
D03*
X016800Y055200D02*
D03*
X018000Y052800D02*
D03*
Y043200D02*
D03*
Y038400D02*
D03*
X016800Y036000D02*
D03*
X018000Y033600D02*
D03*
X016800Y031200D02*
D03*
Y026400D02*
D03*
X018000Y024000D02*
D03*
X016800Y021600D02*
D03*
Y016800D02*
D03*
X018000Y014400D02*
D03*
X014400Y036000D02*
D03*
X015600Y033600D02*
D03*
X014400Y031200D02*
D03*
Y016800D02*
D03*
X012000Y055200D02*
D03*
X013200Y052800D02*
D03*
X012000Y036000D02*
D03*
X013200Y033600D02*
D03*
X012000Y021600D02*
D03*
X013200Y014400D02*
D03*
X012000Y012000D02*
D03*
D135*
X066457Y051142D02*
D03*
X066457Y050242D02*
D03*
D136*
X031929Y044448D02*
D03*
X030591D02*
D03*
X037609Y044450D02*
D03*
X036271D02*
D03*
D137*
X077340Y026760D02*
D03*
X078690D02*
D03*
X077340Y028090D02*
D03*
X078690D02*
D03*
X077320Y012930D02*
D03*
X078670D02*
D03*
X077320Y014230D02*
D03*
X078670D02*
D03*
X077340Y025420D02*
D03*
X078690D02*
D03*
X077350Y029420D02*
D03*
X078700D02*
D03*
X078690Y015560D02*
D03*
X077340D02*
D03*
Y016920D02*
D03*
X078690D02*
D03*
D138*
X018420Y057470D02*
D03*
X019170D02*
D03*
X039320Y047500D02*
D03*
X038570D02*
D03*
D139*
X018790Y058270D02*
D03*
X038940Y048300D02*
D03*
D140*
X035150Y044448D02*
Y045440D01*
Y044448D02*
X035168Y044430D01*
X032210Y044448D02*
Y047350D01*
Y044448D02*
X033010D01*
X035168Y044430D02*
X036040D01*
X037940D02*
X038760D01*
M02*
