G04*
G04 #@! TF.GenerationSoftware,Altium Limited,Altium Designer,20.1.8 (145)*
G04*
G04 Layer_Physical_Order=1*
G04 Layer_Color=824512*
%FSAX24Y24*%
%MOIN*%
G70*
G04*
G04 #@! TF.SameCoordinates,11B2BD8A-5282-4B5C-B75C-580E7C91704B*
G04*
G04*
G04 #@! TF.FilePolarity,Positive*
G04*
G01*
G75*
%ADD14O,0.0250X0.0500*%
%ADD15R,0.0433X0.0315*%
%ADD16R,0.1083X0.0472*%
%ADD17R,0.0472X0.1083*%
%ADD18R,0.0315X0.0433*%
%ADD26C,0.0060*%
%ADD27C,0.0315*%
%ADD28C,0.0984*%
%ADD29C,0.0240*%
G36*
X040006Y025696D02*
X040177Y025644D01*
X040334Y025560D01*
X040472Y025447D01*
X040586Y025309D01*
X040670Y025151D01*
X040722Y024980D01*
X040739Y024807D01*
X040734Y024782D01*
X040736Y019853D01*
X040737Y015375D01*
X040744Y015341D01*
X040748Y004612D01*
X040748Y004611D01*
X040733Y004456D01*
X040686Y004301D01*
X040609Y004158D01*
X040506Y004033D01*
X040381Y003930D01*
X040238Y003854D01*
X040083Y003807D01*
X039927Y003792D01*
X039925Y003792D01*
X004107D01*
X004107Y003794D01*
X004038Y003788D01*
X003870Y003804D01*
X003708Y003853D01*
X003559Y003933D01*
X003428Y004040D01*
X003321Y004171D01*
X003241Y004320D01*
X003192Y004482D01*
X003178Y004624D01*
X003178Y004674D01*
X003178D01*
X003177Y004723D01*
X003177Y024826D01*
X003177Y024871D01*
X003177Y024876D01*
X003181Y024923D01*
X003192Y025034D01*
X003240Y025191D01*
X003317Y025336D01*
X003421Y025463D01*
X003548Y025567D01*
X003693Y025644D01*
X003850Y025692D01*
X003969Y025704D01*
X004018Y025707D01*
X004018Y025707D01*
X004020Y025708D01*
X004067Y025710D01*
X039840Y025712D01*
X039840Y025712D01*
X040006Y025696D01*
D02*
G37*
%LPC*%
G36*
X038108Y025260D02*
X038108Y025260D01*
X038108Y025260D01*
X038093Y025257D01*
X038074Y025253D01*
X038074Y025253D01*
X038074D01*
X038064Y025246D01*
X038046Y025235D01*
X038046Y025235D01*
X038046Y025235D01*
X038035Y025217D01*
X038028Y025206D01*
Y025206D01*
X038028Y025206D01*
X038024Y025188D01*
X038021Y025173D01*
X038021Y025173D01*
X038021Y025173D01*
Y018410D01*
X038028Y018377D01*
X038046Y018349D01*
X038074Y018330D01*
X038108Y018323D01*
X038423D01*
X038456Y018330D01*
X038485Y018349D01*
X038503Y018377D01*
X038510Y018410D01*
Y025173D01*
X038507Y025188D01*
X038503Y025206D01*
X038503Y025206D01*
Y025206D01*
X038496Y025217D01*
X038485Y025235D01*
X038485Y025235D01*
X038485Y025235D01*
X038467Y025246D01*
X038456Y025253D01*
X038456D01*
X038456Y025253D01*
X038438Y025257D01*
X038423Y025260D01*
X038108Y025260D01*
D02*
G37*
G36*
X007108Y025240D02*
X007108Y025240D01*
X007108Y025240D01*
X007093Y025237D01*
X007074Y025233D01*
X007074Y025233D01*
X007074D01*
X007064Y025226D01*
X007046Y025215D01*
X007046Y025215D01*
X007046Y025215D01*
X007035Y025197D01*
X007028Y025186D01*
Y025186D01*
X007028Y025186D01*
X007024Y025168D01*
X007021Y025153D01*
X007021Y025153D01*
X007021Y025153D01*
Y018390D01*
X007028Y018357D01*
X007046Y018329D01*
X007074Y018310D01*
X007108Y018303D01*
X007423D01*
X007456Y018310D01*
X007485Y018329D01*
X007503Y018357D01*
X007507Y018374D01*
X007513Y018390D01*
X007513Y025163D01*
X007494Y025209D01*
X007494Y025209D01*
X007486Y025213D01*
X007485Y025215D01*
X007485Y025215D01*
X007485Y025215D01*
X007467Y025226D01*
X007456Y025233D01*
X007456D01*
X007456Y025233D01*
X007438Y025237D01*
X007423Y025240D01*
X007108Y025240D01*
D02*
G37*
G36*
X030320Y025263D02*
X030304Y025257D01*
X030287Y025253D01*
X030287Y025253D01*
X030287D01*
X030276Y025246D01*
X030259Y025235D01*
X030259Y025235D01*
X030259Y025235D01*
X030247Y025217D01*
X030240Y025206D01*
Y025206D01*
X030240Y025206D01*
X030236Y025188D01*
X030233Y025173D01*
X030233Y024858D01*
X030233Y024858D01*
X030187Y024837D01*
X030017D01*
X030005Y024834D01*
X029997Y024837D01*
X029962Y024863D01*
X029957Y024872D01*
Y025163D01*
X029950Y025196D01*
X029931Y025225D01*
X029903Y025243D01*
X029886Y025247D01*
X029870Y025253D01*
X022730Y025253D01*
X022714Y025247D01*
X022697Y025243D01*
X022697Y025243D01*
X022697D01*
X022686Y025236D01*
X022669Y025225D01*
X022669Y025225D01*
X022669Y025225D01*
X022657Y025207D01*
X022650Y025196D01*
Y025196D01*
X022650Y025196D01*
X022646Y025178D01*
X022643Y025163D01*
X022643Y024848D01*
X022643Y024848D01*
X022602Y024817D01*
X022432D01*
X022407Y024848D01*
Y025163D01*
X022400Y025196D01*
X022381Y025225D01*
X022353Y025243D01*
X022336Y025247D01*
X022320Y025253D01*
X014910Y025253D01*
X014894Y025247D01*
X014877Y025243D01*
X014877Y025243D01*
X014877D01*
X014866Y025236D01*
X014849Y025225D01*
X014849Y025225D01*
X014849Y025225D01*
X014837Y025207D01*
X014830Y025196D01*
Y025196D01*
X014830Y025196D01*
X014826Y025178D01*
X014823Y025163D01*
X014823Y024848D01*
X014823Y024848D01*
X014777Y024827D01*
X014556D01*
X014547Y024838D01*
Y025153D01*
X014540Y025186D01*
X014521Y025215D01*
X014493Y025233D01*
X014476Y025237D01*
X014460Y025243D01*
X007687Y025243D01*
X007641Y025224D01*
X007641Y025224D01*
X007638Y025216D01*
X007635Y025215D01*
X007635Y025215D01*
X007635Y025215D01*
X007624Y025197D01*
X007617Y025186D01*
Y025186D01*
X007617Y025186D01*
X007613Y025168D01*
X007610Y025153D01*
X007610Y024838D01*
X007610Y024838D01*
X007610Y024838D01*
X007613Y024823D01*
X007617Y024804D01*
X007617Y024804D01*
Y024804D01*
X007624Y024794D01*
X007635Y024776D01*
X007635Y024776D01*
X007635Y024776D01*
X007653Y024765D01*
X007664Y024758D01*
X007664D01*
X007664Y024758D01*
X007682Y024754D01*
X007697Y024751D01*
X007697Y024751D01*
X007697Y024751D01*
X014381D01*
X014427Y024701D01*
X014427Y018170D01*
X014433Y018154D01*
X014437Y018137D01*
X014437Y018137D01*
Y018137D01*
X014444Y018126D01*
X014455Y018109D01*
X014455Y018109D01*
X014455Y018109D01*
X014473Y018097D01*
X014484Y018090D01*
X014484D01*
X014484Y018090D01*
X014502Y018086D01*
X014517Y018083D01*
X014832Y018083D01*
X014832Y018083D01*
X014832Y018083D01*
X014847Y018086D01*
X014866Y018090D01*
X014866Y018090D01*
X014866D01*
X014876Y018097D01*
X014894Y018109D01*
X014894Y018109D01*
X014894Y018109D01*
X014905Y018126D01*
X014912Y018137D01*
Y018137D01*
X014912Y018137D01*
X014916Y018156D01*
X014919Y018170D01*
X014919Y018170D01*
X014919Y018170D01*
Y024740D01*
X014936Y024761D01*
X022245D01*
X022290Y024730D01*
Y018160D01*
X022293Y018146D01*
X022297Y018127D01*
X022297Y018127D01*
Y018127D01*
X022304Y018116D01*
X022315Y018099D01*
X022315Y018099D01*
X022315Y018099D01*
X022333Y018087D01*
X022344Y018080D01*
X022344D01*
X022344Y018080D01*
X022362Y018076D01*
X022377Y018073D01*
X022692Y018073D01*
X022692Y018073D01*
X022692Y018073D01*
X022707Y018076D01*
X022726Y018080D01*
X022726Y018080D01*
X022726D01*
X022736Y018087D01*
X022754Y018099D01*
X022754Y018099D01*
X022754Y018099D01*
X022765Y018116D01*
X022772Y018127D01*
Y018127D01*
X022772Y018127D01*
X022776Y018146D01*
X022779Y018160D01*
X022779Y018160D01*
X022779Y018160D01*
Y024730D01*
X022804Y024761D01*
X029870D01*
X029881Y024763D01*
X029884Y024762D01*
X029924Y024730D01*
X029927Y024725D01*
X029927Y018180D01*
X029933Y018164D01*
X029937Y018147D01*
X029937Y018147D01*
Y018147D01*
X029944Y018136D01*
X029955Y018119D01*
X029955Y018119D01*
X029955Y018119D01*
X029973Y018107D01*
X029984Y018100D01*
X029984D01*
X029984Y018100D01*
X030002Y018096D01*
X030017Y018093D01*
X030332Y018093D01*
X030332Y018093D01*
X030332Y018093D01*
X030347Y018096D01*
X030366Y018100D01*
X030366Y018100D01*
X030366D01*
X030376Y018107D01*
X030394Y018119D01*
X030394Y018119D01*
X030394Y018119D01*
X030405Y018136D01*
X030412Y018147D01*
Y018147D01*
X030412Y018147D01*
X030416Y018166D01*
X030419Y018180D01*
X030419Y018180D01*
X030419Y018180D01*
Y024750D01*
X030466Y024771D01*
X037730D01*
X037763Y024778D01*
X037791Y024796D01*
X037810Y024824D01*
X037817Y024858D01*
Y025173D01*
X037810Y025206D01*
X037791Y025235D01*
X037763Y025253D01*
X037746Y025257D01*
X037730Y025263D01*
X030320Y025263D01*
D02*
G37*
G36*
X006342Y024253D02*
X006197Y024234D01*
X006063Y024179D01*
X005948Y024090D01*
X005859Y023975D01*
X005804Y023840D01*
X005785Y023696D01*
X005804Y023552D01*
X005859Y023418D01*
X005948Y023302D01*
X006063Y023214D01*
X006197Y023158D01*
X006342Y023139D01*
X006486Y023158D01*
X006620Y023214D01*
X006735Y023302D01*
X006824Y023418D01*
X006879Y023552D01*
X006898Y023696D01*
X006879Y023840D01*
X006824Y023975D01*
X006735Y024090D01*
X006620Y024179D01*
X006486Y024234D01*
X006342Y024253D01*
D02*
G37*
G36*
X039286Y024253D02*
X039142Y024234D01*
X039007Y024179D01*
X038892Y024090D01*
X038803Y023975D01*
X038748Y023840D01*
X038729Y023696D01*
X038748Y023552D01*
X038803Y023418D01*
X038892Y023302D01*
X039007Y023214D01*
X039142Y023158D01*
X039286Y023139D01*
X039430Y023158D01*
X039564Y023214D01*
X039679Y023302D01*
X039768Y023418D01*
X039824Y023552D01*
X039843Y023696D01*
X039824Y023840D01*
X039768Y023975D01*
X039679Y024090D01*
X039564Y024179D01*
X039430Y024234D01*
X039286Y024253D01*
D02*
G37*
G36*
X035991Y021502D02*
X034789D01*
Y021325D01*
X034739Y021308D01*
X034703Y021355D01*
X034624Y021415D01*
X034533Y021453D01*
X034435Y021465D01*
X034338Y021453D01*
X034246Y021415D01*
X034168Y021355D01*
X034132Y021308D01*
X034082Y021325D01*
Y021502D01*
X032879D01*
Y020909D01*
X034082D01*
X034121Y020882D01*
X034168Y020820D01*
X034246Y020760D01*
X034338Y020722D01*
X034435Y020709D01*
X034533Y020722D01*
X034624Y020760D01*
X034703Y020820D01*
X034750Y020882D01*
X034789Y020909D01*
X035991D01*
Y021502D01*
D02*
G37*
G36*
X028101D02*
X026898D01*
Y021325D01*
X026848Y021308D01*
X026812Y021355D01*
X026734Y021415D01*
X026643Y021453D01*
X026545Y021465D01*
X026447Y021453D01*
X026356Y021415D01*
X026278Y021355D01*
X026242Y021308D01*
X026192Y021325D01*
Y021502D01*
X024989D01*
Y020909D01*
X026192D01*
X026230Y020882D01*
X026278Y020820D01*
X026356Y020760D01*
X026447Y020722D01*
X026545Y020709D01*
X026643Y020722D01*
X026734Y020760D01*
X026812Y020820D01*
X026860Y020882D01*
X026898Y020909D01*
X028101D01*
Y021502D01*
D02*
G37*
G36*
X020449D02*
X019246D01*
Y021325D01*
X019196Y021308D01*
X019160Y021355D01*
X019082Y021415D01*
X018990Y021453D01*
X018892Y021465D01*
X018795Y021453D01*
X018703Y021415D01*
X018625Y021355D01*
X018589Y021308D01*
X018539Y021325D01*
Y021502D01*
X017336D01*
Y020909D01*
X018539D01*
X018578Y020882D01*
X018625Y020820D01*
X018703Y020760D01*
X018795Y020722D01*
X018892Y020709D01*
X018990Y020722D01*
X019082Y020760D01*
X019160Y020820D01*
X019207Y020882D01*
X019246Y020909D01*
X020449D01*
Y021502D01*
D02*
G37*
G36*
X012750D02*
X011547D01*
Y021325D01*
X011497Y021308D01*
X011461Y021355D01*
X011383Y021415D01*
X011292Y021453D01*
X011194Y021465D01*
X011096Y021453D01*
X011005Y021415D01*
X010926Y021355D01*
X010890Y021308D01*
X010840Y021325D01*
Y021502D01*
X009638D01*
Y020909D01*
X010840D01*
X010879Y020882D01*
X010926Y020820D01*
X011005Y020760D01*
X011096Y020722D01*
X011194Y020709D01*
X011292Y020722D01*
X011383Y020760D01*
X011461Y020820D01*
X011508Y020882D01*
X011547Y020909D01*
X012750D01*
Y021502D01*
D02*
G37*
G36*
X035795Y020435D02*
X035242D01*
Y020000D01*
X035795D01*
Y020435D01*
D02*
G37*
G36*
X033629D02*
X033076D01*
Y020000D01*
X033629D01*
Y020435D01*
D02*
G37*
G36*
X027904D02*
X027351D01*
Y020000D01*
X027904D01*
Y020435D01*
D02*
G37*
G36*
X025739D02*
X025186D01*
Y020000D01*
X025739D01*
Y020435D01*
D02*
G37*
G36*
X020252D02*
X019699D01*
Y020000D01*
X020252D01*
Y020435D01*
D02*
G37*
G36*
X018086D02*
X017533D01*
Y020000D01*
X018086D01*
Y020435D01*
D02*
G37*
G36*
X012553D02*
X012000D01*
Y020000D01*
X012553D01*
Y020435D01*
D02*
G37*
G36*
X010387D02*
X009834D01*
Y020000D01*
X010387D01*
Y020435D01*
D02*
G37*
G36*
X035795Y019935D02*
X035242D01*
Y019500D01*
X035795D01*
Y019935D01*
D02*
G37*
G36*
X033629D02*
X033076D01*
Y019500D01*
X033629D01*
Y019935D01*
D02*
G37*
G36*
X027904D02*
X027351D01*
Y019500D01*
X027904D01*
Y019935D01*
D02*
G37*
G36*
X025739D02*
X025186D01*
Y019500D01*
X025739D01*
Y019935D01*
D02*
G37*
G36*
X020252D02*
X019699D01*
Y019500D01*
X020252D01*
Y019935D01*
D02*
G37*
G36*
X018086D02*
X017533D01*
Y019500D01*
X018086D01*
Y019935D01*
D02*
G37*
G36*
X012553D02*
X012000D01*
Y019500D01*
X012553D01*
Y019935D01*
D02*
G37*
G36*
X010387D02*
X009834D01*
Y019500D01*
X010387D01*
Y019935D01*
D02*
G37*
G36*
X035795Y019435D02*
X035242D01*
Y019000D01*
X035795D01*
Y019435D01*
D02*
G37*
G36*
X033629D02*
X033076D01*
Y019000D01*
X033629D01*
Y019435D01*
D02*
G37*
G36*
X027904D02*
X027351D01*
Y019000D01*
X027904D01*
Y019435D01*
D02*
G37*
G36*
X025739D02*
X025186D01*
Y019000D01*
X025739D01*
Y019435D01*
D02*
G37*
G36*
X020252D02*
X019699D01*
Y019000D01*
X020252D01*
Y019435D01*
D02*
G37*
G36*
X018086D02*
X017533D01*
Y019000D01*
X018086D01*
Y019435D01*
D02*
G37*
G36*
X012553D02*
X012000D01*
Y019000D01*
X012553D01*
Y019435D01*
D02*
G37*
G36*
X010387D02*
X009834D01*
Y019000D01*
X010387D01*
Y019435D01*
D02*
G37*
G36*
X035795Y018935D02*
X035242D01*
Y018500D01*
X035795D01*
Y018935D01*
D02*
G37*
G36*
X033629D02*
X033076D01*
Y018500D01*
X033629D01*
Y018935D01*
D02*
G37*
G36*
X027904D02*
X027351D01*
Y018500D01*
X027904D01*
Y018935D01*
D02*
G37*
G36*
X025739D02*
X025186D01*
Y018500D01*
X025739D01*
Y018935D01*
D02*
G37*
G36*
X020252D02*
X019699D01*
Y018500D01*
X020252D01*
Y018935D01*
D02*
G37*
G36*
X018086D02*
X017533D01*
Y018500D01*
X018086D01*
Y018935D01*
D02*
G37*
G36*
X012553D02*
X012000D01*
Y018500D01*
X012553D01*
Y018935D01*
D02*
G37*
G36*
X010387D02*
X009834D01*
Y018500D01*
X010387D01*
Y018935D01*
D02*
G37*
G36*
X038118Y018047D02*
X038118Y018047D01*
X038118Y018047D01*
X038103Y018044D01*
X038084Y018040D01*
X038084Y018040D01*
X038084D01*
X038074Y018033D01*
X038056Y018021D01*
X038056Y018021D01*
X038056Y018021D01*
X038045Y018004D01*
X038038Y017993D01*
Y017993D01*
X038038Y017993D01*
X038034Y017974D01*
X038031Y017960D01*
X038031Y017960D01*
X038031Y017960D01*
Y010550D01*
X038038Y010517D01*
X038056Y010489D01*
X038084Y010470D01*
X038118Y010463D01*
X038433D01*
X038466Y010470D01*
X038495Y010489D01*
X038513Y010517D01*
X038517Y010534D01*
X038523Y010550D01*
X038523Y017960D01*
X038517Y017976D01*
X038513Y017993D01*
X038513Y017993D01*
Y017993D01*
X038506Y018004D01*
X038495Y018021D01*
X038495Y018021D01*
X038495Y018021D01*
X038477Y018033D01*
X038466Y018040D01*
X038466D01*
X038466Y018040D01*
X038448Y018044D01*
X038433Y018047D01*
X038118Y018047D01*
D02*
G37*
G36*
X007118Y018027D02*
X007118Y018027D01*
X007118Y018027D01*
X007103Y018024D01*
X007084Y018020D01*
X007084Y018020D01*
X007084D01*
X007074Y018013D01*
X007056Y018001D01*
X007056Y018001D01*
X007056Y018001D01*
X007045Y017984D01*
X007038Y017973D01*
Y017973D01*
X007038Y017973D01*
X007034Y017954D01*
X007031Y017940D01*
X007031Y017940D01*
X007031Y017940D01*
Y010530D01*
X007038Y010497D01*
X007056Y010469D01*
X007084Y010450D01*
X007118Y010443D01*
X007433D01*
X007466Y010450D01*
X007495Y010469D01*
X007513Y010497D01*
X007517Y010514D01*
X007523Y010530D01*
X007523Y017940D01*
X007517Y017956D01*
X007513Y017973D01*
X007513Y017973D01*
Y017973D01*
X007506Y017984D01*
X007495Y018001D01*
X007495Y018001D01*
X007495Y018001D01*
X007477Y018013D01*
X007466Y018020D01*
X007466D01*
X007466Y018020D01*
X007448Y018024D01*
X007433Y018027D01*
X007118Y018027D01*
D02*
G37*
G36*
X035795Y018435D02*
X035242D01*
Y018000D01*
X035795D01*
Y018435D01*
D02*
G37*
G36*
X033629D02*
X033076D01*
Y018000D01*
X033629D01*
Y018435D01*
D02*
G37*
G36*
X027904D02*
X027351D01*
Y018000D01*
X027904D01*
Y018435D01*
D02*
G37*
G36*
X025739D02*
X025186D01*
Y018000D01*
X025739D01*
Y018435D01*
D02*
G37*
G36*
X020252D02*
X019699D01*
Y018000D01*
X020252D01*
Y018435D01*
D02*
G37*
G36*
X018086D02*
X017533D01*
Y018000D01*
X018086D01*
Y018435D01*
D02*
G37*
G36*
X012553D02*
X012000D01*
Y018000D01*
X012553D01*
Y018435D01*
D02*
G37*
G36*
X010387D02*
X009834D01*
Y018000D01*
X010387D01*
Y018435D01*
D02*
G37*
G36*
X035795Y017935D02*
X035242D01*
Y017500D01*
X035795D01*
Y017935D01*
D02*
G37*
G36*
X033629D02*
X033076D01*
Y017500D01*
X033629D01*
Y017935D01*
D02*
G37*
G36*
X027904D02*
X027351D01*
Y017500D01*
X027904D01*
Y017935D01*
D02*
G37*
G36*
X025739D02*
X025186D01*
Y017500D01*
X025739D01*
Y017935D01*
D02*
G37*
G36*
X020252D02*
X019699D01*
Y017500D01*
X020252D01*
Y017935D01*
D02*
G37*
G36*
X018086D02*
X017533D01*
Y017500D01*
X018086D01*
Y017935D01*
D02*
G37*
G36*
X012553D02*
X012000D01*
Y017500D01*
X012553D01*
Y017935D01*
D02*
G37*
G36*
X010387D02*
X009834D01*
Y017500D01*
X010387D01*
Y017935D01*
D02*
G37*
G36*
X035795Y017435D02*
X035242D01*
Y017000D01*
X035795D01*
Y017435D01*
D02*
G37*
G36*
X033629D02*
X033076D01*
Y017000D01*
X033629D01*
Y017435D01*
D02*
G37*
G36*
X027904D02*
X027351D01*
Y017000D01*
X027904D01*
Y017435D01*
D02*
G37*
G36*
X025739D02*
X025186D01*
Y017000D01*
X025739D01*
Y017435D01*
D02*
G37*
G36*
X020252D02*
X019699D01*
Y017000D01*
X020252D01*
Y017435D01*
D02*
G37*
G36*
X018086D02*
X017533D01*
Y017000D01*
X018086D01*
Y017435D01*
D02*
G37*
G36*
X012553D02*
X012000D01*
Y017000D01*
X012553D01*
Y017435D01*
D02*
G37*
G36*
X010387D02*
X009834D01*
Y017000D01*
X010387D01*
Y017435D01*
D02*
G37*
G36*
X035795Y016935D02*
X035242D01*
Y016500D01*
X035795D01*
Y016935D01*
D02*
G37*
G36*
X033629D02*
X033076D01*
Y016500D01*
X033629D01*
Y016935D01*
D02*
G37*
G36*
X027904D02*
X027351D01*
Y016500D01*
X027904D01*
Y016935D01*
D02*
G37*
G36*
X025739D02*
X025186D01*
Y016500D01*
X025739D01*
Y016935D01*
D02*
G37*
G36*
X020252D02*
X019699D01*
Y016500D01*
X020252D01*
Y016935D01*
D02*
G37*
G36*
X018086D02*
X017533D01*
Y016500D01*
X018086D01*
Y016935D01*
D02*
G37*
G36*
X012553D02*
X012000D01*
Y016500D01*
X012553D01*
Y016935D01*
D02*
G37*
G36*
X010387D02*
X009834D01*
Y016500D01*
X010387D01*
Y016935D01*
D02*
G37*
G36*
X035795Y016435D02*
X035242D01*
Y016000D01*
X035795D01*
Y016435D01*
D02*
G37*
G36*
X033629D02*
X033076D01*
Y016000D01*
X033629D01*
Y016435D01*
D02*
G37*
G36*
X027904D02*
X027351D01*
Y016000D01*
X027904D01*
Y016435D01*
D02*
G37*
G36*
X025739D02*
X025186D01*
Y016000D01*
X025739D01*
Y016435D01*
D02*
G37*
G36*
X020252D02*
X019699D01*
Y016000D01*
X020252D01*
Y016435D01*
D02*
G37*
G36*
X018086D02*
X017533D01*
Y016000D01*
X018086D01*
Y016435D01*
D02*
G37*
G36*
X012553D02*
X012000D01*
Y016000D01*
X012553D01*
Y016435D01*
D02*
G37*
G36*
X010387D02*
X009834D01*
Y016000D01*
X010387D01*
Y016435D01*
D02*
G37*
G36*
X035795Y015935D02*
X035242D01*
Y015500D01*
X035795D01*
Y015935D01*
D02*
G37*
G36*
X033629D02*
X033076D01*
Y015500D01*
X033629D01*
Y015935D01*
D02*
G37*
G36*
X027904D02*
X027351D01*
Y015500D01*
X027904D01*
Y015935D01*
D02*
G37*
G36*
X025739D02*
X025186D01*
Y015500D01*
X025739D01*
Y015935D01*
D02*
G37*
G36*
X020252D02*
X019699D01*
Y015500D01*
X020252D01*
Y015935D01*
D02*
G37*
G36*
X018086D02*
X017533D01*
Y015500D01*
X018086D01*
Y015935D01*
D02*
G37*
G36*
X012553D02*
X012000D01*
Y015500D01*
X012553D01*
Y015935D01*
D02*
G37*
G36*
X010387D02*
X009834D01*
Y015500D01*
X010387D01*
Y015935D01*
D02*
G37*
G36*
X034435Y015225D02*
X034338Y015212D01*
X034246Y015175D01*
X034168Y015114D01*
X034121Y015053D01*
X034082Y015025D01*
X032879D01*
Y014433D01*
X034082D01*
Y014610D01*
X034132Y014626D01*
X034168Y014580D01*
X034246Y014519D01*
X034338Y014482D01*
X034435Y014469D01*
X034533Y014482D01*
X034624Y014519D01*
X034703Y014580D01*
X034739Y014626D01*
X034789Y014610D01*
Y014433D01*
X035991D01*
Y015025D01*
X034789D01*
X034750Y015053D01*
X034703Y015114D01*
X034624Y015175D01*
X034533Y015212D01*
X034435Y015225D01*
D02*
G37*
G36*
X026545D02*
X026447Y015212D01*
X026356Y015175D01*
X026278Y015114D01*
X026230Y015053D01*
X026192Y015025D01*
X024989D01*
Y014433D01*
X026192D01*
Y014610D01*
X026242Y014626D01*
X026278Y014580D01*
X026356Y014519D01*
X026447Y014482D01*
X026545Y014469D01*
X026643Y014482D01*
X026734Y014519D01*
X026812Y014580D01*
X026848Y014626D01*
X026898Y014610D01*
Y014433D01*
X028101D01*
Y015025D01*
X026898D01*
X026860Y015053D01*
X026812Y015114D01*
X026734Y015175D01*
X026643Y015212D01*
X026545Y015225D01*
D02*
G37*
G36*
X018892D02*
X018795Y015212D01*
X018703Y015175D01*
X018625Y015114D01*
X018578Y015053D01*
X018539Y015025D01*
X017336D01*
Y014433D01*
X018539D01*
Y014610D01*
X018589Y014626D01*
X018625Y014580D01*
X018703Y014519D01*
X018795Y014482D01*
X018892Y014469D01*
X018990Y014482D01*
X019082Y014519D01*
X019160Y014580D01*
X019196Y014626D01*
X019246Y014610D01*
Y014433D01*
X020449D01*
Y015025D01*
X019246D01*
X019207Y015053D01*
X019160Y015114D01*
X019082Y015175D01*
X018990Y015212D01*
X018892Y015225D01*
D02*
G37*
G36*
X011194D02*
X011096Y015212D01*
X011005Y015175D01*
X010926Y015114D01*
X010879Y015053D01*
X010840Y015025D01*
X009638D01*
Y014433D01*
X010840D01*
Y014610D01*
X010890Y014626D01*
X010926Y014580D01*
X011005Y014519D01*
X011096Y014482D01*
X011194Y014469D01*
X011292Y014482D01*
X011383Y014519D01*
X011461Y014580D01*
X011497Y014626D01*
X011547Y014610D01*
Y014433D01*
X012750D01*
Y015025D01*
X011547D01*
X011508Y015053D01*
X011461Y015114D01*
X011383Y015175D01*
X011292Y015212D01*
X011194Y015225D01*
D02*
G37*
G36*
X030342Y017817D02*
X030027D01*
X029994Y017810D01*
X029965Y017791D01*
X029947Y017763D01*
X029943Y017746D01*
X029937Y017730D01*
X029937Y010957D01*
X029892Y010943D01*
X022837Y010943D01*
X022789Y010947D01*
Y017710D01*
X022782Y017743D01*
X022764Y017771D01*
X022736Y017790D01*
X022702Y017797D01*
X022387D01*
X022354Y017790D01*
X022325Y017771D01*
X022307Y017743D01*
X022303Y017726D01*
X022297Y017710D01*
X022297Y010953D01*
X014977Y010953D01*
X014929Y010957D01*
Y017720D01*
X014922Y017753D01*
X014904Y017781D01*
X014876Y017800D01*
X014842Y017807D01*
X014527D01*
X014494Y017800D01*
X014465Y017781D01*
X014447Y017753D01*
X014443Y017736D01*
X014437Y017720D01*
X014437Y010993D01*
X014388Y010943D01*
X007677Y010943D01*
X007631Y010924D01*
X007631Y010924D01*
X007628Y010916D01*
X007625Y010915D01*
X007625Y010915D01*
X007625Y010915D01*
X007614Y010897D01*
X007607Y010886D01*
Y010886D01*
X007607Y010886D01*
X007603Y010868D01*
X007600Y010853D01*
X007600Y010538D01*
X007600Y010538D01*
X007600Y010538D01*
X007603Y010523D01*
X007607Y010504D01*
X007607Y010504D01*
Y010504D01*
X007614Y010494D01*
X007625Y010476D01*
X007625Y010476D01*
X007625Y010476D01*
X007643Y010465D01*
X007654Y010458D01*
X007654D01*
X007654Y010458D01*
X007672Y010454D01*
X007687Y010451D01*
X007687Y010451D01*
X007687Y010451D01*
X014450D01*
X014483Y010458D01*
X014511Y010476D01*
X014530Y010504D01*
X014537Y010538D01*
Y010820D01*
X014580Y010870D01*
X014766Y010870D01*
X014813Y010820D01*
X014813Y010548D01*
X014813Y010548D01*
X014813Y010548D01*
X014816Y010533D01*
X014820Y010514D01*
X014820Y010514D01*
Y010514D01*
X014827Y010504D01*
X014839Y010486D01*
X014839Y010486D01*
X014839Y010486D01*
X014856Y010475D01*
X014867Y010468D01*
X014867D01*
X014867Y010468D01*
X014886Y010464D01*
X014900Y010461D01*
X014900Y010461D01*
X014900Y010461D01*
X022310D01*
X022343Y010468D01*
X022371Y010486D01*
X022390Y010514D01*
X022397Y010548D01*
Y010825D01*
X022432Y010860D01*
X022606Y010860D01*
X022653Y010810D01*
X022653Y010538D01*
X022653Y010538D01*
X022653Y010538D01*
X022656Y010523D01*
X022660Y010504D01*
X022660Y010504D01*
Y010504D01*
X022667Y010494D01*
X022679Y010476D01*
X022679Y010476D01*
X022679Y010476D01*
X022696Y010465D01*
X022707Y010458D01*
X022707D01*
X022707Y010458D01*
X022726Y010454D01*
X022740Y010451D01*
X022740Y010451D01*
X022740Y010451D01*
X029960D01*
X029993Y010458D01*
X030021Y010476D01*
X030040Y010504D01*
X030047Y010538D01*
Y010830D01*
X030086Y010880D01*
X030276Y010880D01*
X030282Y010878D01*
X030323Y010830D01*
X030323Y010548D01*
X030323Y010548D01*
X030323Y010548D01*
X030326Y010533D01*
X030330Y010514D01*
X030330Y010514D01*
Y010514D01*
X030337Y010504D01*
X030349Y010486D01*
X030349Y010486D01*
X030349Y010486D01*
X030366Y010475D01*
X030377Y010468D01*
X030377D01*
X030377Y010468D01*
X030396Y010464D01*
X030410Y010461D01*
X030410Y010461D01*
X030410Y010461D01*
X037820D01*
X037853Y010468D01*
X037881Y010486D01*
X037900Y010514D01*
X037907Y010548D01*
Y010863D01*
X037900Y010896D01*
X037881Y010925D01*
X037853Y010943D01*
X037836Y010947D01*
X037820Y010953D01*
X030476Y010953D01*
X030429Y010967D01*
Y017730D01*
X030422Y017763D01*
X030404Y017791D01*
X030376Y017810D01*
X030342Y017817D01*
D02*
G37*
G36*
X028576Y010193D02*
X028432Y010174D01*
X028298Y010118D01*
X028182Y010030D01*
X028094Y009914D01*
X028038Y009780D01*
X028019Y009636D01*
X028038Y009492D01*
X028094Y009358D01*
X028182Y009242D01*
X028298Y009154D01*
X028432Y009098D01*
X028576Y009079D01*
X028720Y009098D01*
X028855Y009154D01*
X028970Y009242D01*
X029059Y009358D01*
X029114Y009492D01*
X029133Y009636D01*
X029114Y009780D01*
X029059Y009914D01*
X028970Y010030D01*
X028855Y010118D01*
X028720Y010174D01*
X028576Y010193D01*
D02*
G37*
G36*
X014980D02*
X014835Y010174D01*
X014701Y010118D01*
X014586Y010030D01*
X014497Y009914D01*
X014442Y009780D01*
X014423Y009636D01*
X014442Y009492D01*
X014497Y009358D01*
X014586Y009242D01*
X014701Y009154D01*
X014835Y009098D01*
X014980Y009079D01*
X015124Y009098D01*
X015258Y009154D01*
X015373Y009242D01*
X015462Y009358D01*
X015518Y009492D01*
X015537Y009636D01*
X015518Y009780D01*
X015462Y009914D01*
X015373Y010030D01*
X015258Y010118D01*
X015124Y010174D01*
X014980Y010193D01*
D02*
G37*
G36*
X032361Y008683D02*
X032075D01*
Y008092D01*
X032361D01*
Y008683D01*
D02*
G37*
G36*
X031975D02*
X031689D01*
Y008092D01*
X031975D01*
Y008683D01*
D02*
G37*
G36*
X035337D02*
X035051D01*
Y008092D01*
X035337D01*
Y008683D01*
D02*
G37*
G36*
X034951D02*
X034665D01*
Y008092D01*
X034951D01*
Y008683D01*
D02*
G37*
G36*
X008694Y008676D02*
X008408D01*
Y008085D01*
X008694D01*
Y008676D01*
D02*
G37*
G36*
X005718D02*
X005432D01*
Y008085D01*
X005718D01*
Y008676D01*
D02*
G37*
G36*
X005332D02*
X005046D01*
Y008085D01*
X005332D01*
Y008676D01*
D02*
G37*
G36*
X008308D02*
X008022D01*
Y008085D01*
X008308D01*
Y008676D01*
D02*
G37*
G36*
X034230Y008446D02*
X033795D01*
Y007893D01*
X034230D01*
Y008446D01*
D02*
G37*
G36*
X033730D02*
X033295D01*
Y007893D01*
X033730D01*
Y008446D01*
D02*
G37*
G36*
X033230D02*
X032795D01*
Y007893D01*
X033230D01*
Y008446D01*
D02*
G37*
G36*
X008038Y010032D02*
X007966Y010018D01*
X007904Y009977D01*
X007864Y009916D01*
X007849Y009844D01*
Y009594D01*
X007864Y009521D01*
X007904Y009460D01*
X007946Y009432D01*
Y009346D01*
X007882Y009282D01*
X007560D01*
X007525Y009275D01*
X007495Y009255D01*
X007305Y009065D01*
X007285Y009035D01*
X007278Y009000D01*
Y008439D01*
X007153D01*
Y007886D01*
X007587D01*
Y008439D01*
X007462D01*
Y008962D01*
X007598Y009098D01*
X007920D01*
X007955Y009105D01*
X007985Y009125D01*
X008103Y009243D01*
X008123Y009273D01*
X008130Y009308D01*
Y009432D01*
X008171Y009460D01*
X008212Y009521D01*
X008226Y009594D01*
Y009844D01*
X008212Y009916D01*
X008171Y009977D01*
X008110Y010018D01*
X008038Y010032D01*
D02*
G37*
G36*
X006870Y010064D02*
X006798Y010049D01*
X006737Y010008D01*
X006696Y009947D01*
X006681Y009875D01*
Y009625D01*
X006696Y009553D01*
X006737Y009492D01*
X006778Y009464D01*
Y008439D01*
X006653D01*
Y007886D01*
X007087D01*
Y008439D01*
X006962D01*
Y009464D01*
X007003Y009492D01*
X007044Y009553D01*
X007059Y009625D01*
Y009875D01*
X007044Y009947D01*
X007003Y010008D01*
X006942Y010049D01*
X006870Y010064D01*
D02*
G37*
G36*
X004934Y010032D02*
X004862Y010018D01*
X004800Y009977D01*
X004759Y009916D01*
X004745Y009844D01*
Y009594D01*
X004759Y009521D01*
X004800Y009460D01*
X004842Y009432D01*
Y009115D01*
X004849Y009080D01*
X004869Y009050D01*
X004904Y009015D01*
X004934Y008995D01*
X004969Y008988D01*
X006262D01*
X006278Y008972D01*
Y008439D01*
X006153D01*
Y007886D01*
X006587D01*
Y008439D01*
X006462D01*
Y009010D01*
X006455Y009045D01*
X006435Y009075D01*
X006365Y009145D01*
X006335Y009165D01*
X006300Y009172D01*
X005025D01*
Y009432D01*
X005067Y009460D01*
X005108Y009521D01*
X005122Y009594D01*
Y009844D01*
X005108Y009916D01*
X005067Y009977D01*
X005006Y010018D01*
X004934Y010032D01*
D02*
G37*
G36*
X035337Y007992D02*
X035001D01*
X034665D01*
Y007401D01*
X034665Y007401D01*
X034665D01*
X034632Y007367D01*
X034616Y007355D01*
X034555Y007276D01*
X034518Y007185D01*
X034505Y007087D01*
X034518Y006989D01*
X034555Y006898D01*
X034616Y006820D01*
X034632Y006807D01*
X034665Y006774D01*
X034665D01*
X034665Y006774D01*
Y006182D01*
X035001D01*
X035337D01*
Y006774D01*
X035166D01*
X035159Y006793D01*
X035154Y006824D01*
X035211Y006898D01*
X035248Y006989D01*
X035261Y007087D01*
X035248Y007185D01*
X035211Y007276D01*
X035154Y007351D01*
X035159Y007381D01*
X035166Y007401D01*
X035337D01*
Y007992D01*
D02*
G37*
G36*
X008694Y007985D02*
X008358D01*
X008022D01*
Y007393D01*
X008022Y007393D01*
X008022D01*
X007989Y007360D01*
X007973Y007347D01*
X007913Y007269D01*
X007875Y007178D01*
X007862Y007080D01*
X007875Y006982D01*
X007913Y006891D01*
X007973Y006813D01*
X007989Y006800D01*
X008022Y006767D01*
X008022D01*
X008022Y006767D01*
Y006175D01*
X008358D01*
X008694D01*
Y006767D01*
X008523D01*
X008517Y006786D01*
X008511Y006817D01*
X008568Y006891D01*
X008605Y006982D01*
X008618Y007080D01*
X008605Y007178D01*
X008568Y007269D01*
X008511Y007343D01*
X008517Y007374D01*
X008523Y007393D01*
X008694D01*
Y007985D01*
D02*
G37*
G36*
X032361Y007992D02*
X032025D01*
X031689D01*
Y007401D01*
X031860D01*
X031866Y007381D01*
X031872Y007351D01*
X031815Y007276D01*
X031778Y007185D01*
X031765Y007087D01*
X031778Y006989D01*
X031815Y006898D01*
X031872Y006824D01*
X031866Y006793D01*
X031860Y006774D01*
X031689D01*
Y006183D01*
X032025D01*
X032361D01*
Y006774D01*
X032361Y006774D01*
X032361D01*
X032394Y006808D01*
X032410Y006820D01*
X032470Y006898D01*
X032508Y006989D01*
X032521Y007087D01*
X032508Y007185D01*
X032470Y007276D01*
X032410Y007355D01*
X032394Y007367D01*
X032361Y007401D01*
X032361D01*
X032361Y007401D01*
Y007992D01*
D02*
G37*
G36*
X005718Y007985D02*
X005382D01*
X005046D01*
Y007393D01*
X005217D01*
X005223Y007374D01*
X005229Y007343D01*
X005172Y007269D01*
X005135Y007178D01*
X005122Y007080D01*
X005135Y006982D01*
X005172Y006891D01*
X005229Y006817D01*
X005223Y006786D01*
X005217Y006767D01*
X005046D01*
Y006175D01*
X005382D01*
X005718D01*
Y006767D01*
X005718Y006767D01*
X005718D01*
X005751Y006800D01*
X005767Y006813D01*
X005827Y006891D01*
X005865Y006982D01*
X005878Y007080D01*
X005865Y007178D01*
X005827Y007269D01*
X005767Y007347D01*
X005751Y007360D01*
X005718Y007393D01*
X005718D01*
X005718Y007393D01*
Y007985D01*
D02*
G37*
G36*
X007320Y006314D02*
X007113D01*
Y006313D01*
X007087Y006274D01*
X007063Y006274D01*
X006677D01*
X006653Y006274D01*
X006627Y006313D01*
Y006314D01*
X006420D01*
Y005997D01*
Y005681D01*
X006627D01*
Y005681D01*
X006653Y005721D01*
X006677Y005721D01*
X006768D01*
Y004886D01*
X006727Y004858D01*
X006686Y004797D01*
X006671Y004725D01*
Y004475D01*
X006686Y004403D01*
X006727Y004342D01*
X006788Y004301D01*
X006860Y004286D01*
X006932Y004301D01*
X006993Y004342D01*
X007034Y004403D01*
X007049Y004475D01*
Y004725D01*
X007034Y004797D01*
X006993Y004858D01*
X006952Y004886D01*
Y005685D01*
X006987Y005721D01*
X007087Y005721D01*
X007113Y005681D01*
Y005681D01*
X007320D01*
Y005997D01*
X007370D01*
D01*
X007320D01*
Y006314D01*
D02*
G37*
G36*
X034270Y006321D02*
X034063D01*
Y006055D01*
X034270D01*
Y006321D01*
D02*
G37*
G36*
X007627Y006314D02*
X007420D01*
Y006047D01*
X007627D01*
Y006314D01*
D02*
G37*
G36*
X006320D02*
X006113D01*
Y006047D01*
X006320D01*
Y006314D01*
D02*
G37*
G36*
X034270Y005955D02*
X034063D01*
Y005688D01*
X034270D01*
Y005955D01*
D02*
G37*
G36*
X033963Y006321D02*
X033755D01*
Y006321D01*
X033730Y006281D01*
X033705Y006281D01*
X033295D01*
Y005728D01*
X033421D01*
Y005387D01*
X033428Y005352D01*
X033448Y005322D01*
X033645Y005125D01*
X033675Y005105D01*
X033710Y005098D01*
X033932D01*
X034000Y005030D01*
Y004908D01*
X033959Y004880D01*
X033918Y004819D01*
X033904Y004746D01*
Y004496D01*
X033918Y004424D01*
X033959Y004363D01*
X034020Y004322D01*
X034092Y004308D01*
X034164Y004322D01*
X034226Y004363D01*
X034266Y004424D01*
X034281Y004496D01*
Y004746D01*
X034266Y004819D01*
X034226Y004880D01*
X034184Y004908D01*
Y005068D01*
X034177Y005103D01*
X034157Y005133D01*
X034035Y005255D01*
X034005Y005275D01*
X033970Y005282D01*
X033748D01*
X033605Y005425D01*
Y005693D01*
X033640Y005728D01*
X033730Y005728D01*
X033755Y005688D01*
Y005688D01*
X033963D01*
Y006005D01*
Y006321D01*
D02*
G37*
G36*
X007627Y005947D02*
X007420D01*
Y005681D01*
X007627D01*
Y005947D01*
D02*
G37*
G36*
X006320D02*
X006113D01*
Y005681D01*
X006320D01*
Y005947D01*
D02*
G37*
G36*
X035337Y006082D02*
X035051D01*
Y005491D01*
X035337D01*
Y006082D01*
D02*
G37*
G36*
X034951D02*
X034665D01*
Y005491D01*
X034951D01*
Y006082D01*
D02*
G37*
G36*
X032361Y006083D02*
X032075D01*
Y005491D01*
X032361D01*
Y006083D01*
D02*
G37*
G36*
X031975D02*
X031689D01*
Y005491D01*
X031975D01*
Y006083D01*
D02*
G37*
G36*
X008694Y006075D02*
X008408D01*
Y005484D01*
X008694D01*
Y006075D01*
D02*
G37*
G36*
X008308D02*
X008022D01*
Y005484D01*
X008308D01*
Y006075D01*
D02*
G37*
G36*
X005718D02*
X005432D01*
Y005484D01*
X005718D01*
Y006075D01*
D02*
G37*
G36*
X005332D02*
X005046D01*
Y005484D01*
X005332D01*
Y006075D01*
D02*
G37*
G36*
X033230Y006281D02*
X032795D01*
Y005728D01*
X032921D01*
Y005411D01*
X032772Y005262D01*
X032617D01*
X032582Y005255D01*
X032552Y005235D01*
X032517Y005200D01*
X032497Y005170D01*
X032490Y005135D01*
Y004888D01*
X032449Y004860D01*
X032408Y004799D01*
X032394Y004726D01*
Y004476D01*
X032408Y004404D01*
X032449Y004343D01*
X032510Y004302D01*
X032582Y004288D01*
X032654Y004302D01*
X032716Y004343D01*
X032756Y004404D01*
X032771Y004476D01*
Y004726D01*
X032756Y004799D01*
X032716Y004860D01*
X032674Y004888D01*
Y005078D01*
X032810D01*
X032845Y005085D01*
X032875Y005105D01*
X033078Y005308D01*
X033098Y005338D01*
X033105Y005373D01*
Y005728D01*
X033230D01*
Y006281D01*
D02*
G37*
%LPD*%
D14*
X004934Y009719D02*
D03*
X006860Y004600D02*
D03*
X006870Y009750D02*
D03*
X008038Y009719D02*
D03*
X032582Y004601D02*
D03*
X034092Y004621D02*
D03*
D15*
X033353Y015717D02*
D03*
Y016217D02*
D03*
Y016717D02*
D03*
Y017217D02*
D03*
Y017717D02*
D03*
Y018217D02*
D03*
Y018717D02*
D03*
Y019217D02*
D03*
Y019717D02*
D03*
Y020217D02*
D03*
X035518Y015717D02*
D03*
Y016217D02*
D03*
Y016717D02*
D03*
Y017217D02*
D03*
Y017717D02*
D03*
Y018217D02*
D03*
Y018717D02*
D03*
Y019217D02*
D03*
Y019717D02*
D03*
Y020217D02*
D03*
X025462Y015717D02*
D03*
Y016217D02*
D03*
Y016717D02*
D03*
Y017217D02*
D03*
Y017717D02*
D03*
Y018217D02*
D03*
Y018717D02*
D03*
Y019217D02*
D03*
Y019717D02*
D03*
Y020217D02*
D03*
X027628Y015717D02*
D03*
Y016217D02*
D03*
Y016717D02*
D03*
Y017217D02*
D03*
Y017717D02*
D03*
Y018217D02*
D03*
Y018717D02*
D03*
Y019217D02*
D03*
Y019717D02*
D03*
Y020217D02*
D03*
X017810Y015717D02*
D03*
Y016217D02*
D03*
Y016717D02*
D03*
Y017217D02*
D03*
Y017717D02*
D03*
Y018217D02*
D03*
Y018717D02*
D03*
Y019217D02*
D03*
Y019717D02*
D03*
Y020217D02*
D03*
X019975Y015717D02*
D03*
Y016217D02*
D03*
Y016717D02*
D03*
Y017217D02*
D03*
Y017717D02*
D03*
Y018217D02*
D03*
Y018717D02*
D03*
Y019217D02*
D03*
Y019717D02*
D03*
Y020217D02*
D03*
X010111Y015717D02*
D03*
Y016217D02*
D03*
Y016717D02*
D03*
Y017217D02*
D03*
Y017717D02*
D03*
Y018217D02*
D03*
Y018717D02*
D03*
Y019217D02*
D03*
Y019717D02*
D03*
Y020217D02*
D03*
X012276Y015717D02*
D03*
Y016217D02*
D03*
Y016717D02*
D03*
Y017217D02*
D03*
Y017717D02*
D03*
Y018217D02*
D03*
Y018717D02*
D03*
Y019217D02*
D03*
Y019717D02*
D03*
Y020217D02*
D03*
D16*
X033481Y014729D02*
D03*
Y021205D02*
D03*
X035390Y014729D02*
D03*
Y021205D02*
D03*
X025590Y014729D02*
D03*
Y021205D02*
D03*
X027500Y014729D02*
D03*
Y021205D02*
D03*
X017938Y014729D02*
D03*
Y021205D02*
D03*
X019847Y014729D02*
D03*
Y021205D02*
D03*
X010239Y014729D02*
D03*
Y021205D02*
D03*
X012148Y014729D02*
D03*
Y021205D02*
D03*
D17*
X032025Y006132D02*
D03*
Y008042D02*
D03*
X035001D02*
D03*
Y006132D02*
D03*
X008358Y008035D02*
D03*
Y006125D02*
D03*
X005382D02*
D03*
Y008035D02*
D03*
D18*
X033013Y008170D02*
D03*
X033513D02*
D03*
X034013D02*
D03*
X033013Y006005D02*
D03*
X033513D02*
D03*
X034013D02*
D03*
X007370Y005997D02*
D03*
X006870D02*
D03*
X006370D02*
D03*
X007370Y008163D02*
D03*
X006870D02*
D03*
X006370D02*
D03*
D26*
X032617Y005170D02*
X032810D01*
X032582Y004601D02*
Y005135D01*
X032617Y005170D01*
X033013Y005373D02*
Y006005D01*
X032810Y005170D02*
X033013Y005373D01*
X034092Y004621D02*
Y005068D01*
X033710Y005190D02*
X033970D01*
X034092Y005068D01*
X033513Y005387D02*
Y006005D01*
Y005387D02*
X033710Y005190D01*
X004934Y009115D02*
X004969Y009080D01*
X006300D01*
X004934Y009115D02*
Y009719D01*
X006300Y009080D02*
X006370Y009010D01*
Y008163D02*
Y009010D01*
X008038Y009308D02*
Y009719D01*
X007920Y009190D02*
X008038Y009308D01*
X007370Y009000D02*
X007560Y009190D01*
X007920D01*
X007370Y008163D02*
Y009000D01*
X006870Y008163D02*
Y009750D01*
X006860Y005987D02*
X006870Y005997D01*
X006860Y004600D02*
Y005987D01*
D27*
X034435Y014847D02*
D03*
Y021087D02*
D03*
X026545Y014847D02*
D03*
Y021087D02*
D03*
X018892Y014847D02*
D03*
Y021087D02*
D03*
X011194Y014847D02*
D03*
Y021087D02*
D03*
X032143Y007087D02*
D03*
X034883D02*
D03*
X008240Y007080D02*
D03*
X005500D02*
D03*
D28*
X039286Y023696D02*
D03*
X006342Y023696D02*
D03*
X028576Y009636D02*
D03*
X014980D02*
D03*
D29*
X010195Y020222D02*
D03*
X010185Y019722D02*
D03*
Y019212D02*
D03*
Y018712D02*
D03*
Y018222D02*
D03*
Y017712D02*
D03*
Y017212D02*
D03*
X010195Y016722D02*
D03*
X010185Y016212D02*
D03*
Y015722D02*
D03*
X012195D02*
D03*
Y016222D02*
D03*
Y016712D02*
D03*
Y017222D02*
D03*
Y017722D02*
D03*
Y018222D02*
D03*
Y018722D02*
D03*
Y019212D02*
D03*
Y019722D02*
D03*
Y020222D02*
D03*
X017885D02*
D03*
Y019722D02*
D03*
Y019222D02*
D03*
Y018712D02*
D03*
Y018212D02*
D03*
X017895Y017712D02*
D03*
X017875Y017212D02*
D03*
X017885Y016722D02*
D03*
Y016212D02*
D03*
X017895Y015722D02*
D03*
X019895Y015712D02*
D03*
Y016222D02*
D03*
X019885Y016712D02*
D03*
Y017212D02*
D03*
Y017712D02*
D03*
X019895Y018212D02*
D03*
Y018722D02*
D03*
Y019212D02*
D03*
Y019712D02*
D03*
X019905Y020212D02*
D03*
X025535D02*
D03*
Y019712D02*
D03*
Y019222D02*
D03*
Y018712D02*
D03*
X025545Y018212D02*
D03*
X025535Y017722D02*
D03*
X025545Y017222D02*
D03*
X025535Y016702D02*
D03*
Y016212D02*
D03*
Y015712D02*
D03*
X027545D02*
D03*
X027555Y016212D02*
D03*
X027545Y016722D02*
D03*
X027555Y017222D02*
D03*
X027535Y017712D02*
D03*
X027555Y018222D02*
D03*
Y018722D02*
D03*
X027545Y019222D02*
D03*
Y019722D02*
D03*
Y020222D02*
D03*
X033430Y015720D02*
D03*
X033440Y016210D02*
D03*
Y016720D02*
D03*
X033430Y017220D02*
D03*
X033440Y017720D02*
D03*
Y018220D02*
D03*
Y018710D02*
D03*
Y019220D02*
D03*
X033420Y019710D02*
D03*
X033430Y020220D02*
D03*
X035430Y015720D02*
D03*
X035442Y016706D02*
D03*
X035430Y016220D02*
D03*
X035440Y017230D02*
D03*
X035430Y017710D02*
D03*
X035440Y018220D02*
D03*
Y018720D02*
D03*
Y019220D02*
D03*
Y019720D02*
D03*
Y020220D02*
D03*
X036140Y004540D02*
D03*
X009850Y007110D02*
D03*
X034511Y012306D02*
D03*
X026551Y012196D02*
D03*
X018921Y012246D02*
D03*
X011111Y011986D02*
D03*
M02*
