G04*
G04 #@! TF.GenerationSoftware,Altium Limited,Altium Designer,20.1.8 (145)*
G04*
G04 Layer_Color=8388736*
%FSAX24Y24*%
%MOIN*%
G70*
G04*
G04 #@! TF.SameCoordinates,11B2BD8A-5282-4B5C-B75C-580E7C91704B*
G04*
G04*
G04 #@! TF.FilePolarity,Negative*
G04*
G01*
G75*
%ADD19O,0.0370X0.0620*%
%ADD20R,0.0553X0.0435*%
%ADD21R,0.1203X0.0592*%
%ADD22R,0.0592X0.1203*%
%ADD23R,0.0435X0.0553*%
%ADD24C,0.0435*%
%ADD25C,0.1104*%
D19*
X004934Y009719D02*
D03*
X006860Y004600D02*
D03*
X006870Y009750D02*
D03*
X008038Y009719D02*
D03*
X032582Y004601D02*
D03*
X034092Y004621D02*
D03*
D20*
X033353Y015717D02*
D03*
Y016217D02*
D03*
Y016717D02*
D03*
Y017217D02*
D03*
Y017717D02*
D03*
Y018217D02*
D03*
Y018717D02*
D03*
Y019217D02*
D03*
Y019717D02*
D03*
Y020217D02*
D03*
X035518Y015717D02*
D03*
Y016217D02*
D03*
Y016717D02*
D03*
Y017217D02*
D03*
Y017717D02*
D03*
Y018217D02*
D03*
Y018717D02*
D03*
Y019217D02*
D03*
Y019717D02*
D03*
Y020217D02*
D03*
X025462Y015717D02*
D03*
Y016217D02*
D03*
Y016717D02*
D03*
Y017217D02*
D03*
Y017717D02*
D03*
Y018217D02*
D03*
Y018717D02*
D03*
Y019217D02*
D03*
Y019717D02*
D03*
Y020217D02*
D03*
X027628Y015717D02*
D03*
Y016217D02*
D03*
Y016717D02*
D03*
Y017217D02*
D03*
Y017717D02*
D03*
Y018217D02*
D03*
Y018717D02*
D03*
Y019217D02*
D03*
Y019717D02*
D03*
Y020217D02*
D03*
X017810Y015717D02*
D03*
Y016217D02*
D03*
Y016717D02*
D03*
Y017217D02*
D03*
Y017717D02*
D03*
Y018217D02*
D03*
Y018717D02*
D03*
Y019217D02*
D03*
Y019717D02*
D03*
Y020217D02*
D03*
X019975Y015717D02*
D03*
Y016217D02*
D03*
Y016717D02*
D03*
Y017217D02*
D03*
Y017717D02*
D03*
Y018217D02*
D03*
Y018717D02*
D03*
Y019217D02*
D03*
Y019717D02*
D03*
Y020217D02*
D03*
X010111Y015717D02*
D03*
Y016217D02*
D03*
Y016717D02*
D03*
Y017217D02*
D03*
Y017717D02*
D03*
Y018217D02*
D03*
Y018717D02*
D03*
Y019217D02*
D03*
Y019717D02*
D03*
Y020217D02*
D03*
X012276Y015717D02*
D03*
Y016217D02*
D03*
Y016717D02*
D03*
Y017217D02*
D03*
Y017717D02*
D03*
Y018217D02*
D03*
Y018717D02*
D03*
Y019217D02*
D03*
Y019717D02*
D03*
Y020217D02*
D03*
D21*
X033481Y014729D02*
D03*
Y021205D02*
D03*
X035390Y014729D02*
D03*
Y021205D02*
D03*
X025590Y014729D02*
D03*
Y021205D02*
D03*
X027500Y014729D02*
D03*
Y021205D02*
D03*
X017938Y014729D02*
D03*
Y021205D02*
D03*
X019847Y014729D02*
D03*
Y021205D02*
D03*
X010239Y014729D02*
D03*
Y021205D02*
D03*
X012148Y014729D02*
D03*
Y021205D02*
D03*
D22*
X032025Y006132D02*
D03*
Y008042D02*
D03*
X035001D02*
D03*
Y006132D02*
D03*
X008358Y008035D02*
D03*
Y006125D02*
D03*
X005382D02*
D03*
Y008035D02*
D03*
D23*
X033013Y008170D02*
D03*
X033513D02*
D03*
X034013D02*
D03*
X033013Y006005D02*
D03*
X033513D02*
D03*
X034013D02*
D03*
X007370Y005997D02*
D03*
X006870D02*
D03*
X006370D02*
D03*
X007370Y008163D02*
D03*
X006870D02*
D03*
X006370D02*
D03*
D24*
X034435Y014847D02*
D03*
Y021087D02*
D03*
X026545Y014847D02*
D03*
Y021087D02*
D03*
X018892Y014847D02*
D03*
Y021087D02*
D03*
X011194Y014847D02*
D03*
Y021087D02*
D03*
X032143Y007087D02*
D03*
X034883D02*
D03*
X008240Y007080D02*
D03*
X005500D02*
D03*
D25*
X039286Y023696D02*
D03*
X006342Y023696D02*
D03*
X028576Y009636D02*
D03*
X014980D02*
D03*
M02*
