G04*
G04 #@! TF.GenerationSoftware,Altium Limited,Altium Designer,20.1.8 (145)*
G04*
G04 Layer_Color=16711935*
%FSAX24Y24*%
%MOIN*%
G70*
G04*
G04 #@! TF.SameCoordinates,11B2BD8A-5282-4B5C-B75C-580E7C91704B*
G04*
G04*
G04 #@! TF.FilePolarity,Negative*
G04*
G01*
G75*
%ADD24C,0.0435*%
%ADD25C,0.1104*%
%ADD31R,0.0907X0.0411*%
D24*
X034435Y014847D02*
D03*
Y021087D02*
D03*
X026545Y014847D02*
D03*
Y021087D02*
D03*
X018892Y014847D02*
D03*
Y021087D02*
D03*
X011194Y014847D02*
D03*
Y021087D02*
D03*
X032143Y007087D02*
D03*
X034883D02*
D03*
X008240Y007080D02*
D03*
X005500D02*
D03*
D25*
X039286Y023696D02*
D03*
X006342Y023696D02*
D03*
X028576Y009636D02*
D03*
X014980D02*
D03*
D31*
X027300Y015720D02*
D03*
Y016220D02*
D03*
Y016720D02*
D03*
Y017220D02*
D03*
Y017720D02*
D03*
Y018220D02*
D03*
Y018720D02*
D03*
Y019220D02*
D03*
Y019720D02*
D03*
Y020220D02*
D03*
X025800Y015720D02*
D03*
Y016220D02*
D03*
Y016720D02*
D03*
Y017220D02*
D03*
Y017720D02*
D03*
Y018220D02*
D03*
Y018720D02*
D03*
Y019220D02*
D03*
Y019720D02*
D03*
Y020220D02*
D03*
X019640Y015720D02*
D03*
Y016220D02*
D03*
Y016720D02*
D03*
Y017220D02*
D03*
Y017720D02*
D03*
Y018220D02*
D03*
Y018720D02*
D03*
Y019220D02*
D03*
Y019720D02*
D03*
Y020220D02*
D03*
X018140Y015720D02*
D03*
Y016220D02*
D03*
Y016720D02*
D03*
Y017220D02*
D03*
Y017720D02*
D03*
Y018220D02*
D03*
Y018720D02*
D03*
Y019220D02*
D03*
Y019720D02*
D03*
Y020220D02*
D03*
X011939Y015720D02*
D03*
Y016220D02*
D03*
Y016720D02*
D03*
Y017220D02*
D03*
Y017720D02*
D03*
Y018220D02*
D03*
Y018720D02*
D03*
Y019220D02*
D03*
Y019720D02*
D03*
Y020220D02*
D03*
X010439Y015720D02*
D03*
Y016220D02*
D03*
Y016720D02*
D03*
Y017220D02*
D03*
Y017720D02*
D03*
Y018220D02*
D03*
Y018720D02*
D03*
Y019220D02*
D03*
Y019720D02*
D03*
Y020220D02*
D03*
X035180Y015720D02*
D03*
Y016220D02*
D03*
Y016720D02*
D03*
Y017220D02*
D03*
Y017720D02*
D03*
Y018220D02*
D03*
Y018720D02*
D03*
Y019220D02*
D03*
Y019720D02*
D03*
Y020220D02*
D03*
X033680Y015720D02*
D03*
Y016220D02*
D03*
Y016720D02*
D03*
Y017220D02*
D03*
Y017720D02*
D03*
Y018220D02*
D03*
Y018720D02*
D03*
Y019220D02*
D03*
Y019720D02*
D03*
Y020220D02*
D03*
M02*
