G04*
G04 #@! TF.GenerationSoftware,Altium Limited,Altium Designer,20.1.8 (145)*
G04*
G04 Layer_Color=52428*
%FSAX24Y24*%
%MOIN*%
G70*
G04*
G04 #@! TF.SameCoordinates,11B2BD8A-5282-4B5C-B75C-580E7C91704B*
G04*
G04*
G04 #@! TF.FilePolarity,Positive*
G04*
G01*
G75*
%ADD10C,0.0098*%
%ADD11C,0.0039*%
%ADD12C,0.0079*%
%ADD13C,0.0080*%
D10*
X004965Y010104D02*
G03*
X004965Y010104I-000029J000000D01*
G01*
X006887Y004215D02*
G03*
X006887Y004215I-000029J000000D01*
G01*
X006901Y010135D02*
G03*
X006901Y010135I-000029J000000D01*
G01*
X008069Y010104D02*
G03*
X008069Y010104I-000029J000000D01*
G01*
X032609Y004216D02*
G03*
X032609Y004216I-000029J000000D01*
G01*
X034119Y004236D02*
G03*
X034119Y004236I-000029J000000D01*
G01*
D11*
X032861Y015717D02*
G03*
X032821Y015717I-000020J000000D01*
G01*
D02*
G03*
X032861Y015717I000020J000000D01*
G01*
X024970D02*
G03*
X024931Y015717I-000020J000000D01*
G01*
D02*
G03*
X024970Y015717I000020J000000D01*
G01*
X017318D02*
G03*
X017278Y015717I-000020J000000D01*
G01*
D02*
G03*
X017318Y015717I000020J000000D01*
G01*
X009619D02*
G03*
X009579Y015717I-000020J000000D01*
G01*
D02*
G03*
X009619Y015717I000020J000000D01*
G01*
X034013Y005631D02*
G03*
X034013Y005670I000000J000020D01*
G01*
D02*
G03*
X034013Y005631I000000J-000020D01*
G01*
X006370Y008537D02*
G03*
X006370Y008497I000000J-000020D01*
G01*
D02*
G03*
X006370Y008537I000000J000020D01*
G01*
D12*
X033609Y015132D02*
Y015369D01*
X035262Y015132D02*
Y015369D01*
Y020566D02*
Y020802D01*
X033609Y020566D02*
Y020802D01*
X025718Y015132D02*
Y015369D01*
X027372Y015132D02*
Y015369D01*
Y020566D02*
Y020802D01*
X025718Y020566D02*
Y020802D01*
X018066Y015132D02*
Y015369D01*
X019719Y015132D02*
Y015369D01*
Y020566D02*
Y020802D01*
X018066Y020566D02*
Y020802D01*
X010367Y015132D02*
Y015369D01*
X012020Y015132D02*
Y015369D01*
Y020566D02*
Y020802D01*
X010367Y020566D02*
Y020802D01*
X032411Y006260D02*
X032726D01*
X032411Y007914D02*
X032726D01*
X034300D02*
X034615D01*
X034300Y006260D02*
X034615D01*
X007657Y007907D02*
X007972D01*
X007657Y006253D02*
X007972D01*
X005768D02*
X006083D01*
X005768Y007907D02*
X006083D01*
D13*
X005661Y004759D02*
X005875D01*
X005768D01*
Y004439D01*
X005981D02*
Y004759D01*
X006141D01*
X006194Y004705D01*
Y004599D01*
X006141Y004545D01*
X005981D01*
X006514Y004759D02*
X006408Y004705D01*
X006301Y004599D01*
Y004492D01*
X006354Y004439D01*
X006461D01*
X006514Y004492D01*
Y004545D01*
X006461Y004599D01*
X006301D01*
X003799Y009899D02*
X004013D01*
X003906D01*
Y009579D01*
X004119D02*
Y009899D01*
X004279D01*
X004333Y009845D01*
Y009739D01*
X004279Y009685D01*
X004119D01*
X004652Y009899D02*
X004439D01*
Y009739D01*
X004546Y009792D01*
X004599D01*
X004652Y009739D01*
Y009632D01*
X004599Y009579D01*
X004493D01*
X004439Y009632D01*
X005726Y009931D02*
X005939D01*
X005832D01*
Y009611D01*
X006046D02*
Y009931D01*
X006206D01*
X006259Y009878D01*
Y009771D01*
X006206Y009718D01*
X006046D01*
X006525Y009611D02*
Y009931D01*
X006365Y009771D01*
X006579D01*
X008673Y009920D02*
X008887D01*
X008780D01*
Y009600D01*
X008993D02*
Y009920D01*
X009153D01*
X009207Y009867D01*
Y009760D01*
X009153Y009707D01*
X008993D01*
X009313Y009867D02*
X009367Y009920D01*
X009473D01*
X009527Y009867D01*
Y009813D01*
X009473Y009760D01*
X009420D01*
X009473D01*
X009527Y009707D01*
Y009653D01*
X009473Y009600D01*
X009367D01*
X009313Y009653D01*
X034363Y004770D02*
X034577D01*
X034470D01*
Y004450D01*
X034683D02*
Y004770D01*
X034843D01*
X034897Y004717D01*
Y004610D01*
X034843Y004557D01*
X034683D01*
X035217Y004450D02*
X035003D01*
X035217Y004663D01*
Y004717D01*
X035163Y004770D01*
X035057D01*
X035003Y004717D01*
X031497Y004740D02*
X031710D01*
X031603D01*
Y004420D01*
X031817D02*
Y004740D01*
X031977D01*
X032030Y004687D01*
Y004580D01*
X031977Y004527D01*
X031817D01*
X032137Y004420D02*
X032243D01*
X032190D01*
Y004740D01*
X032137Y004687D01*
X009573Y022480D02*
X009467D01*
X009520D01*
Y022213D01*
X009467Y022160D01*
X009413D01*
X009360Y022213D01*
X009840Y022160D02*
Y022480D01*
X009680Y022320D01*
X009893D01*
X017273Y022480D02*
X017167D01*
X017220D01*
Y022213D01*
X017167Y022160D01*
X017113D01*
X017060Y022213D01*
X017380Y022427D02*
X017433Y022480D01*
X017540D01*
X017593Y022427D01*
Y022373D01*
X017540Y022320D01*
X017487D01*
X017540D01*
X017593Y022267D01*
Y022213D01*
X017540Y022160D01*
X017433D01*
X017380Y022213D01*
X024933Y022480D02*
X024827D01*
X024880D01*
Y022213D01*
X024827Y022160D01*
X024773D01*
X024720Y022213D01*
X025253Y022160D02*
X025040D01*
X025253Y022373D01*
Y022427D01*
X025200Y022480D01*
X025093D01*
X025040Y022427D01*
X032823Y022480D02*
X032717D01*
X032770D01*
Y022213D01*
X032717Y022160D01*
X032663D01*
X032610Y022213D01*
X032930Y022160D02*
X033037D01*
X032983D01*
Y022480D01*
X032930Y022427D01*
X036017Y006340D02*
X035910D01*
X035963D01*
Y006073D01*
X035910Y006020D01*
X035857D01*
X035804Y006073D01*
X036283Y006020D02*
Y006340D01*
X036123Y006180D01*
X036337D01*
X036657Y006020D02*
X036443D01*
X036657Y006233D01*
Y006287D01*
X036603Y006340D01*
X036497D01*
X036443Y006287D01*
X036817Y006233D02*
X036923D01*
X036976Y006180D01*
Y006020D01*
X036817D01*
X036763Y006073D01*
X036817Y006127D01*
X036976D01*
X003767Y005980D02*
X003660D01*
X003713D01*
Y005713D01*
X003660Y005660D01*
X003607D01*
X003554Y005713D01*
X004033Y005660D02*
Y005980D01*
X003873Y005820D01*
X004087D01*
X004407Y005660D02*
X004193D01*
X004407Y005873D01*
Y005927D01*
X004353Y005980D01*
X004247D01*
X004193Y005927D01*
X004513Y005980D02*
Y005660D01*
X004673D01*
X004726Y005713D01*
Y005767D01*
Y005820D01*
X004673Y005873D01*
X004513D01*
M02*
