G04*
G04 #@! TF.GenerationSoftware,Altium Limited,Altium Designer,20.1.8 (145)*
G04*
G04 Layer_Color=16711935*
%FSAX24Y24*%
%MOIN*%
G70*
G04*
G04 #@! TF.SameCoordinates,11B2BD8A-5282-4B5C-B75C-580E7C91704B*
G04*
G04*
G04 #@! TF.FilePolarity,Positive*
G04*
G01*
G75*
%ADD26C,0.0060*%
%ADD35C,0.0050*%
D26*
X040830Y024782D02*
G03*
X039840Y025804I-001002J000020D01*
G01*
X004018Y025799D02*
G03*
X003085Y024876I-000005J-000928D01*
G01*
X039927Y003700D02*
G03*
X040839Y004622I-000005J000917D01*
G01*
X003085Y004676D02*
G03*
X004115Y003700I000953J-000026D01*
G01*
X040826Y024782D02*
X040827Y019853D01*
X004021Y025801D02*
X039840Y025804D01*
X003085Y004676D02*
X003085Y024871D01*
X004094Y003700D02*
X039925D01*
X040836Y015366D02*
X040839Y004612D01*
X040827Y019853D02*
X040829Y015375D01*
D35*
X030342Y010967D02*
Y017730D01*
X030027Y010967D02*
Y017730D01*
X030342D01*
X030027Y010967D02*
X030342Y010967D01*
X030017Y018180D02*
X030332Y018180D01*
X030017Y024750D02*
X030332D01*
X030017Y018180D02*
Y024750D01*
X030332Y018180D02*
Y024750D01*
X022702Y010947D02*
Y017710D01*
X022387Y010947D02*
Y017710D01*
X022702D01*
X022387Y010947D02*
X022702Y010947D01*
X022377Y018160D02*
X022692Y018160D01*
X022377Y024730D02*
X022692D01*
X022377Y018160D02*
Y024730D01*
X022692Y018160D02*
Y024730D01*
X014832Y018170D02*
Y024740D01*
X014517Y018170D02*
Y024740D01*
X014832D01*
X014517Y018170D02*
X014832Y018170D01*
X014527Y010957D02*
X014842Y010957D01*
X014527Y017720D02*
X014842D01*
X014527Y010957D02*
Y017720D01*
X014842Y010957D02*
Y017720D01*
X022320Y024848D02*
Y025163D01*
X022730Y024848D02*
X022730Y025163D01*
X030320Y024858D02*
X037730D01*
X030320Y025173D02*
X037730D01*
Y024858D02*
Y025173D01*
X030320Y024858D02*
X030320Y025173D01*
X029870Y024848D02*
Y025163D01*
X022730D02*
X029870D01*
X022730Y024848D02*
X029870D01*
X014910D02*
X022320D01*
X014910Y025163D02*
X022320D01*
X014910Y024848D02*
X014910Y025163D01*
X007697Y024838D02*
X007697Y025153D01*
X014460Y024838D02*
Y025153D01*
X007697D02*
X014460D01*
X007697Y024838D02*
X014460D01*
X030410Y010548D02*
X037820D01*
X030410Y010863D02*
X037820D01*
Y010548D02*
Y010863D01*
X030410Y010548D02*
X030410Y010863D01*
X022740Y010538D02*
X022740Y010853D01*
X029960Y010538D02*
Y010853D01*
X022740D02*
X029960D01*
X022740Y010538D02*
X029960D01*
X014900Y010548D02*
X022310D01*
X014900Y010863D02*
X022310D01*
Y010548D02*
Y010863D01*
X014900Y010548D02*
X014900Y010863D01*
X007687Y010538D02*
X007687Y010853D01*
X014450Y010538D02*
Y010853D01*
X007687D02*
X014450D01*
X007687Y010538D02*
X014450D01*
X038108Y018410D02*
Y025173D01*
X038423Y018410D02*
Y025173D01*
X038108Y018410D02*
X038423D01*
X038108Y025173D02*
X038423Y025173D01*
X038118Y017960D02*
X038433Y017960D01*
X038118Y010550D02*
X038433D01*
Y017960D01*
X038118Y010550D02*
Y017960D01*
X007118Y010530D02*
Y017940D01*
X007433Y010530D02*
Y017940D01*
X007118Y010530D02*
X007433D01*
X007118Y017940D02*
X007433Y017940D01*
X007108Y025153D02*
X007423Y025153D01*
X007108Y018390D02*
X007423D01*
Y025153D01*
X007108Y018390D02*
Y025153D01*
M02*
