G04*
G04 #@! TF.GenerationSoftware,Altium Limited,Altium Designer,20.1.8 (145)*
G04*
G04 Layer_Color=128*
%FSAX24Y24*%
%MOIN*%
G70*
G04*
G04 #@! TF.SameCoordinates,11B2BD8A-5282-4B5C-B75C-580E7C91704B*
G04*
G04*
G04 #@! TF.FilePolarity,Positive*
G04*
G01*
G75*
%ADD36C,0.0020*%
D36*
X034120Y014847D02*
X034750D01*
X034435Y014532D02*
Y015162D01*
X034120Y021087D02*
X034750D01*
X034435Y020772D02*
Y021402D01*
X026230Y014847D02*
X026860D01*
X026545Y014532D02*
Y015162D01*
X026230Y021087D02*
X026860D01*
X026545Y020772D02*
Y021402D01*
X018577Y014847D02*
X019207D01*
X018892Y014532D02*
Y015162D01*
X018577Y021087D02*
X019207D01*
X018892Y020772D02*
Y021402D01*
X010879Y014847D02*
X011509D01*
X011194Y014532D02*
Y015162D01*
X010879Y021087D02*
X011509D01*
X011194Y020772D02*
Y021402D01*
X031828Y007087D02*
X032458D01*
X032143Y006772D02*
Y007402D01*
X034568Y007087D02*
X035198D01*
X034883Y006772D02*
Y007402D01*
X007925Y007080D02*
X008555D01*
X008240Y006765D02*
Y007395D01*
X005185Y007080D02*
X005815D01*
X005500Y006765D02*
Y007395D01*
X038892Y023696D02*
X039679D01*
X039286Y023303D02*
Y024090D01*
X005948Y023696D02*
X006735D01*
X006342Y023303D02*
Y024090D01*
X028183Y009636D02*
X028970D01*
X028576Y009242D02*
Y010030D01*
X014586Y009636D02*
X015373D01*
X014980Y009242D02*
Y010030D01*
X010135Y020222D02*
X010255D01*
X010195Y020162D02*
Y020282D01*
X010125Y019722D02*
X010245D01*
X010185Y019662D02*
Y019782D01*
X010125Y019212D02*
X010245D01*
X010185Y019152D02*
Y019272D01*
X010125Y018712D02*
X010245D01*
X010185Y018652D02*
Y018772D01*
X010125Y018222D02*
X010245D01*
X010185Y018162D02*
Y018282D01*
X010125Y017712D02*
X010245D01*
X010185Y017652D02*
Y017772D01*
X010125Y017212D02*
X010245D01*
X010185Y017152D02*
Y017272D01*
X010135Y016722D02*
X010255D01*
X010195Y016662D02*
Y016782D01*
X010125Y016212D02*
X010245D01*
X010185Y016152D02*
Y016272D01*
X010125Y015722D02*
X010245D01*
X010185Y015662D02*
Y015782D01*
X012135Y015722D02*
X012255D01*
X012195Y015662D02*
Y015782D01*
X012135Y016222D02*
X012255D01*
X012195Y016162D02*
Y016282D01*
X012135Y016712D02*
X012255D01*
X012195Y016652D02*
Y016772D01*
X012135Y017222D02*
X012255D01*
X012195Y017162D02*
Y017282D01*
X012135Y017722D02*
X012255D01*
X012195Y017662D02*
Y017782D01*
X012135Y018222D02*
X012255D01*
X012195Y018162D02*
Y018282D01*
X012135Y018722D02*
X012255D01*
X012195Y018662D02*
Y018782D01*
X012135Y019212D02*
X012255D01*
X012195Y019152D02*
Y019272D01*
X012135Y019722D02*
X012255D01*
X012195Y019662D02*
Y019782D01*
X012135Y020222D02*
X012255D01*
X012195Y020162D02*
Y020282D01*
X017825Y020222D02*
X017945D01*
X017885Y020162D02*
Y020282D01*
X017825Y019722D02*
X017945D01*
X017885Y019662D02*
Y019782D01*
X017825Y019222D02*
X017945D01*
X017885Y019162D02*
Y019282D01*
X017825Y018712D02*
X017945D01*
X017885Y018652D02*
Y018772D01*
X017825Y018212D02*
X017945D01*
X017885Y018152D02*
Y018272D01*
X017835Y017712D02*
X017955D01*
X017895Y017652D02*
Y017772D01*
X017815Y017212D02*
X017935D01*
X017875Y017152D02*
Y017272D01*
X017825Y016722D02*
X017945D01*
X017885Y016662D02*
Y016782D01*
X017825Y016212D02*
X017945D01*
X017885Y016152D02*
Y016272D01*
X017835Y015722D02*
X017955D01*
X017895Y015662D02*
Y015782D01*
X019835Y015712D02*
X019955D01*
X019895Y015652D02*
Y015772D01*
X019835Y016222D02*
X019955D01*
X019895Y016162D02*
Y016282D01*
X019825Y016712D02*
X019945D01*
X019885Y016652D02*
Y016772D01*
X019825Y017212D02*
X019945D01*
X019885Y017152D02*
Y017272D01*
X019825Y017712D02*
X019945D01*
X019885Y017652D02*
Y017772D01*
X019835Y018212D02*
X019955D01*
X019895Y018152D02*
Y018272D01*
X019835Y018722D02*
X019955D01*
X019895Y018662D02*
Y018782D01*
X019835Y019212D02*
X019955D01*
X019895Y019152D02*
Y019272D01*
X019835Y019712D02*
X019955D01*
X019895Y019652D02*
Y019772D01*
X019845Y020212D02*
X019965D01*
X019905Y020152D02*
Y020272D01*
X025475Y020212D02*
X025595D01*
X025535Y020152D02*
Y020272D01*
X025475Y019712D02*
X025595D01*
X025535Y019652D02*
Y019772D01*
X025475Y019222D02*
X025595D01*
X025535Y019162D02*
Y019282D01*
X025475Y018712D02*
X025595D01*
X025535Y018652D02*
Y018772D01*
X025485Y018212D02*
X025605D01*
X025545Y018152D02*
Y018272D01*
X025475Y017722D02*
X025595D01*
X025535Y017662D02*
Y017782D01*
X025485Y017222D02*
X025605D01*
X025545Y017162D02*
Y017282D01*
X025475Y016702D02*
X025595D01*
X025535Y016642D02*
Y016762D01*
X025475Y016212D02*
X025595D01*
X025535Y016152D02*
Y016272D01*
X025475Y015712D02*
X025595D01*
X025535Y015652D02*
Y015772D01*
X027485Y015712D02*
X027605D01*
X027545Y015652D02*
Y015772D01*
X027495Y016212D02*
X027615D01*
X027555Y016152D02*
Y016272D01*
X027485Y016722D02*
X027605D01*
X027545Y016662D02*
Y016782D01*
X027495Y017222D02*
X027615D01*
X027555Y017162D02*
Y017282D01*
X027475Y017712D02*
X027595D01*
X027535Y017652D02*
Y017772D01*
X027495Y018222D02*
X027615D01*
X027555Y018162D02*
Y018282D01*
X027495Y018722D02*
X027615D01*
X027555Y018662D02*
Y018782D01*
X027485Y019222D02*
X027605D01*
X027545Y019162D02*
Y019282D01*
X027485Y019722D02*
X027605D01*
X027545Y019662D02*
Y019782D01*
X027485Y020222D02*
X027605D01*
X027545Y020162D02*
Y020282D01*
X033370Y015720D02*
X033490D01*
X033430Y015660D02*
Y015780D01*
X033380Y016210D02*
X033500D01*
X033440Y016150D02*
Y016270D01*
X033380Y016720D02*
X033500D01*
X033440Y016660D02*
Y016780D01*
X033370Y017220D02*
X033490D01*
X033430Y017160D02*
Y017280D01*
X033380Y017720D02*
X033500D01*
X033440Y017660D02*
Y017780D01*
X033380Y018220D02*
X033500D01*
X033440Y018160D02*
Y018280D01*
X033380Y018710D02*
X033500D01*
X033440Y018650D02*
Y018770D01*
X033380Y019220D02*
X033500D01*
X033440Y019160D02*
Y019280D01*
X033360Y019710D02*
X033480D01*
X033420Y019650D02*
Y019770D01*
X033370Y020220D02*
X033490D01*
X033430Y020160D02*
Y020280D01*
X035370Y015720D02*
X035490D01*
X035430Y015660D02*
Y015780D01*
X035382Y016706D02*
X035502D01*
X035442Y016646D02*
Y016766D01*
X035370Y016220D02*
X035490D01*
X035430Y016160D02*
Y016280D01*
X035380Y017230D02*
X035500D01*
X035440Y017170D02*
Y017290D01*
X035370Y017710D02*
X035490D01*
X035430Y017650D02*
Y017770D01*
X035380Y018220D02*
X035500D01*
X035440Y018160D02*
Y018280D01*
X035380Y018720D02*
X035500D01*
X035440Y018660D02*
Y018780D01*
X035380Y019220D02*
X035500D01*
X035440Y019160D02*
Y019280D01*
X035380Y019720D02*
X035500D01*
X035440Y019660D02*
Y019780D01*
X035380Y020220D02*
X035500D01*
X035440Y020160D02*
Y020280D01*
X036080Y004540D02*
X036200D01*
X036140Y004480D02*
Y004600D01*
X009790Y007110D02*
X009910D01*
X009850Y007050D02*
Y007170D01*
X034451Y012306D02*
X034571D01*
X034511Y012246D02*
Y012366D01*
X026491Y012196D02*
X026611D01*
X026551Y012136D02*
Y012256D01*
X018861Y012246D02*
X018981D01*
X018921Y012186D02*
Y012306D01*
X011051Y011986D02*
X011171D01*
X011111Y011926D02*
Y012046D01*
M02*
