M48
;Layer_Color=11367680
;FILE_FORMAT=2:4
INCH
;TYPE=PLATED
T1F00S00C0.0120
T2F00S00C0.0787
;TYPE=NON_PLATED
T3F00S00C0.0630
%
T01
X009850Y007110
X011111Y011986
X018921Y012246
X026551Y012196
X034511Y012306
X036140Y004540
X035430Y015720
Y016220
X035442Y016706
X035440Y017230
X035430Y017710
X035440Y018220
Y018720
Y019220
Y019720
Y020220
X033430
X033420Y019710
X033440Y019220
Y018710
Y018220
Y017720
X033430Y017220
X033440Y016720
Y016210
X033430Y015720
X027545Y015712
X027555Y016212
X027545Y016722
X027555Y017222
X027535Y017712
X027555Y018222
Y018722
X027545Y019222
Y019722
Y020222
X025535Y020212
Y019712
Y019222
Y018712
X025545Y018212
X025535Y017722
X025545Y017222
X025535Y016702
Y016212
Y015712
X019895
Y016222
X019885Y016712
Y017212
Y017712
X019895Y018212
Y018722
Y019212
Y019712
X019905Y020212
X017885Y020222
Y019722
Y019222
Y018712
Y018212
X017895Y017712
X017875Y017212
X017885Y016722
Y016212
X017895Y015722
X012195
Y016222
Y016712
Y017222
Y017722
Y018222
Y018722
Y019212
Y019722
Y020222
X010195
X010185Y019722
Y019212
Y018712
Y018222
Y017712
Y017212
X010195Y016722
X010185Y016212
Y015722
T02
X014980Y009636
X028576
X039286Y023696
X006342Y023696
T03
X005500Y007080
X008240
X011194Y014847
X018892
X026545
X034435
X034883Y007087
X032143
X034435Y021087
X026545
X018892
X011194
M30
