G04*
G04 #@! TF.GenerationSoftware,Altium Limited,Altium Designer,20.1.8 (145)*
G04*
G04 Layer_Color=2752767*
%FSAX24Y24*%
%MOIN*%
G70*
G04*
G04 #@! TF.SameCoordinates,548E75E3-62BA-4D27-8EBC-4AC5D718A5B1*
G04*
G04*
G04 #@! TF.FilePolarity,Positive*
G04*
G01*
G75*
%ADD69C,0.0020*%
%ADD70C,0.0027*%
D69*
X003898Y004534D02*
Y004694D01*
X004058D01*
Y004534D01*
X003898D01*
X033030D02*
Y004694D01*
X033190D01*
Y004534D01*
X033030D01*
X003899Y034061D02*
Y034221D01*
X004059D01*
Y034061D01*
X003899D01*
X033030Y034041D02*
Y034201D01*
X033190D01*
Y034041D01*
X033030D01*
X031200Y033520D02*
X031120Y033680D01*
X031280D01*
X031200Y033520D01*
X032400Y031120D02*
X032320Y031280D01*
X032480D01*
X032400Y031120D01*
Y026320D02*
X032320Y026480D01*
X032480D01*
X032400Y026320D01*
X031200Y019120D02*
X031120Y019280D01*
X031280D01*
X031200Y019120D01*
X032400Y016720D02*
X032320Y016880D01*
X032480D01*
X032400Y016720D01*
X031200Y014320D02*
X031120Y014480D01*
X031280D01*
X031200Y014320D01*
X032400Y011920D02*
X032320Y012080D01*
X032480D01*
X032400Y011920D01*
Y007120D02*
X032320Y007280D01*
X032480D01*
X032400Y007120D01*
X028800Y033520D02*
X028720Y033680D01*
X028880D01*
X028800Y033520D01*
X030000Y031120D02*
X029920Y031280D01*
X030080D01*
X030000Y031120D01*
Y026320D02*
X029920Y026480D01*
X030080D01*
X030000Y026320D01*
X028800Y019120D02*
X028720Y019280D01*
X028880D01*
X028800Y019120D01*
X030000Y016720D02*
X029920Y016880D01*
X030080D01*
X030000Y016720D01*
X028800Y014320D02*
X028720Y014480D01*
X028880D01*
X028800Y014320D01*
X026400Y033520D02*
X026320Y033680D01*
X026480D01*
X026400Y033520D01*
X027600Y031120D02*
X027520Y031280D01*
X027680D01*
X027600Y031120D01*
X026400Y028720D02*
X026320Y028880D01*
X026480D01*
X026400Y028720D01*
Y023920D02*
X026320Y024080D01*
X026480D01*
X026400Y023920D01*
X027600Y021520D02*
X027520Y021680D01*
X027680D01*
X027600Y021520D01*
X026400Y019120D02*
X026320Y019280D01*
X026480D01*
X026400Y019120D01*
X027600Y016720D02*
X027520Y016880D01*
X027680D01*
X027600Y016720D01*
X026400Y014320D02*
X026320Y014480D01*
X026480D01*
X026400Y014320D01*
X027600Y007120D02*
X027520Y007280D01*
X027680D01*
X027600Y007120D01*
X026400Y004720D02*
X026320Y004880D01*
X026480D01*
X026400Y004720D01*
X024000Y033520D02*
X023920Y033680D01*
X024080D01*
X024000Y033520D01*
X025200Y031120D02*
X025120Y031280D01*
X025280D01*
X025200Y031120D01*
Y026320D02*
X025120Y026480D01*
X025280D01*
X025200Y026320D01*
X024000Y019120D02*
X023920Y019280D01*
X024080D01*
X024000Y019120D01*
X025200Y016720D02*
X025120Y016880D01*
X025280D01*
X025200Y016720D01*
X024000Y014320D02*
X023920Y014480D01*
X024080D01*
X024000Y014320D01*
Y009520D02*
X023920Y009680D01*
X024080D01*
X024000Y009520D01*
X025200Y007120D02*
X025120Y007280D01*
X025280D01*
X025200Y007120D01*
X024000Y004720D02*
X023920Y004880D01*
X024080D01*
X024000Y004720D01*
X021600Y033520D02*
X021520Y033680D01*
X021680D01*
X021600Y033520D01*
X022800Y031120D02*
X022720Y031280D01*
X022880D01*
X022800Y031120D01*
X021600Y019120D02*
X021520Y019280D01*
X021680D01*
X021600Y019120D01*
X022800Y016720D02*
X022720Y016880D01*
X022880D01*
X022800Y016720D01*
X021600Y009520D02*
X021520Y009680D01*
X021680D01*
X021600Y009520D01*
X019200Y033520D02*
X019120Y033680D01*
X019280D01*
X019200Y033520D01*
Y028720D02*
X019120Y028880D01*
X019280D01*
X019200Y028720D01*
Y019120D02*
X019120Y019280D01*
X019280D01*
X019200Y019120D01*
X020400Y016720D02*
X020320Y016880D01*
X020480D01*
X020400Y016720D01*
X019200Y014320D02*
X019120Y014480D01*
X019280D01*
X019200Y014320D01*
X020400Y007120D02*
X020320Y007280D01*
X020480D01*
X020400Y007120D01*
X016800Y023920D02*
X016720Y024080D01*
X016880D01*
X016800Y023920D01*
Y019120D02*
X016720Y019280D01*
X016880D01*
X016800Y019120D01*
X018000Y016720D02*
X017920Y016880D01*
X018080D01*
X018000Y016720D01*
X016800Y014320D02*
X016720Y014480D01*
X016880D01*
X016800Y014320D01*
X018000Y011920D02*
X017920Y012080D01*
X018080D01*
X018000Y011920D01*
X016800Y009520D02*
X016720Y009680D01*
X016880D01*
X016800Y009520D01*
Y004720D02*
X016720Y004880D01*
X016880D01*
X016800Y004720D01*
X014400Y023920D02*
X014320Y024080D01*
X014480D01*
X014400Y023920D01*
Y019120D02*
X014320Y019280D01*
X014480D01*
X014400Y019120D01*
X015600Y016720D02*
X015520Y016880D01*
X015680D01*
X015600Y016720D01*
X014400Y014320D02*
X014320Y014480D01*
X014480D01*
X014400Y014320D01*
X015600Y011920D02*
X015520Y012080D01*
X015680D01*
X015600Y011920D01*
X014400Y009520D02*
X014320Y009680D01*
X014480D01*
X014400Y009520D01*
X015600Y007120D02*
X015520Y007280D01*
X015680D01*
X015600Y007120D01*
X014400Y004720D02*
X014320Y004880D01*
X014480D01*
X014400Y004720D01*
X013200Y021520D02*
X013120Y021680D01*
X013280D01*
X013200Y021520D01*
X012000Y019120D02*
X011920Y019280D01*
X012080D01*
X012000Y019120D01*
X013200Y016720D02*
X013120Y016880D01*
X013280D01*
X013200Y016720D01*
X012000Y009520D02*
X011920Y009680D01*
X012080D01*
X012000Y009520D01*
X013200Y007120D02*
X013120Y007280D01*
X013280D01*
X013200Y007120D01*
X012000Y004720D02*
X011920Y004880D01*
X012080D01*
X012000Y004720D01*
X009600Y023920D02*
X009520Y024080D01*
X009680D01*
X009600Y023920D01*
Y019120D02*
X009520Y019280D01*
X009680D01*
X009600Y019120D01*
X010800Y016720D02*
X010720Y016880D01*
X010880D01*
X010800Y016720D01*
Y011920D02*
X010720Y012080D01*
X010880D01*
X010800Y011920D01*
X008400Y016720D02*
X008320Y016880D01*
X008480D01*
X008400Y016720D01*
Y011920D02*
X008320Y012080D01*
X008480D01*
X008400Y011920D01*
X007200Y009520D02*
X007120Y009680D01*
X007280D01*
X007200Y009520D01*
X004800Y033520D02*
X004720Y033680D01*
X004880D01*
X004800Y033520D01*
X006000Y026320D02*
X005920Y026480D01*
X006080D01*
X006000Y026320D01*
X004800Y019120D02*
X004720Y019280D01*
X004880D01*
X004800Y019120D01*
X006000Y011920D02*
X005920Y012080D01*
X006080D01*
X006000Y011920D01*
X004800Y009520D02*
X004720Y009680D01*
X004880D01*
X004800Y009520D01*
Y004720D02*
X004720Y004880D01*
X004880D01*
X004800Y004720D01*
D70*
X008380Y008380D02*
G03*
X008380Y008380I-000080J000000D01*
G01*
X014062Y029686D02*
G03*
X014062Y029686I-000080J000000D01*
G01*
X004157Y007228D02*
G03*
X004157Y007228I-000080J000000D01*
G01*
X005607Y007248D02*
G03*
X005607Y007248I-000080J000000D01*
G01*
X005327Y024888D02*
G03*
X005327Y024888I-000080J000000D01*
G01*
X006097Y024918D02*
G03*
X006097Y024918I-000080J000000D01*
G01*
X005300Y030010D02*
G03*
X005300Y030010I-000080J000000D01*
G01*
X006167Y030008D02*
G03*
X006167Y030008I-000080J000000D01*
G01*
X005327Y028418D02*
G03*
X005327Y028418I-000080J000000D01*
G01*
X006127Y028388D02*
G03*
X006127Y028388I-000080J000000D01*
G01*
X005337Y026398D02*
G03*
X005337Y026398I-000080J000000D01*
G01*
X006677Y023688D02*
G03*
X006677Y023688I-000080J000000D01*
G01*
X006657Y022078D02*
G03*
X006657Y022078I-000080J000000D01*
G01*
X007677Y023718D02*
G03*
X007677Y023718I-000080J000000D01*
G01*
Y022088D02*
G03*
X007677Y022088I-000080J000000D01*
G01*
X005773Y020940D02*
G03*
X005773Y020940I-000080J000000D01*
G01*
X007940Y020940D02*
G03*
X007940Y020940I-000080J000000D01*
G01*
X026868Y008777D02*
G03*
X026868Y008777I-000080J000000D01*
G01*
X027957Y008798D02*
G03*
X027957Y008798I-000080J000000D01*
G01*
X031607Y009070D02*
G03*
X031607Y009070I-000080J000000D01*
G01*
X023807Y012368D02*
G03*
X023807Y012368I-000080J000000D01*
G01*
X017267Y026214D02*
G03*
X017267Y026214I-000080J000000D01*
G01*
X014750Y019930D02*
G03*
X014750Y019930I-000080J000000D01*
G01*
X007067Y015694D02*
G03*
X007067Y015694I-000080J000000D01*
G01*
X007081Y016240D02*
G03*
X007081Y016240I-000080J000000D01*
G01*
X007668Y015689D02*
G03*
X007668Y015689I-000080J000000D01*
G01*
X007660Y016240D02*
G03*
X007660Y016240I-000080J000000D01*
G01*
X008760Y016053D02*
G03*
X008760Y016053I-000080J000000D01*
G01*
X005714Y033917D02*
G03*
X005714Y033917I-000080J000000D01*
G01*
X006688Y033230D02*
G03*
X006688Y033230I-000080J000000D01*
G01*
X010180Y033674D02*
G03*
X010180Y033674I-000080J000000D01*
G01*
X011125Y033931D02*
G03*
X011125Y033931I-000080J000000D01*
G01*
X031962Y024025D02*
G03*
X031962Y024025I-000080J000000D01*
G01*
X031981Y024508D02*
G03*
X031981Y024508I-000080J000000D01*
G01*
X013209Y009163D02*
G03*
X013209Y009163I-000080J000000D01*
G01*
X010150Y014370D02*
G03*
X010150Y014370I-000080J000000D01*
G01*
X015724Y030035D02*
G03*
X015724Y030035I-000080J000000D01*
G01*
X015736Y030453D02*
G03*
X015736Y030453I-000080J000000D01*
G01*
X015737Y031197D02*
G03*
X015737Y031197I-000080J000000D01*
G01*
X015738Y030831D02*
G03*
X015738Y030831I-000080J000000D01*
G01*
X017580Y008650D02*
G03*
X017580Y008650I-000080J000000D01*
G01*
X011188Y007968D02*
G03*
X011188Y007968I-000080J000000D01*
G01*
X011190Y006400D02*
G03*
X011190Y006400I-000080J000000D01*
G01*
X010000Y007180D02*
G03*
X010000Y007180I-000080J000000D01*
G01*
X007870Y006400D02*
G03*
X007870Y006400I-000080J000000D01*
G01*
X018427Y008168D02*
G03*
X018427Y008168I-000080J000000D01*
G01*
X019800Y008160D02*
G03*
X019800Y008160I-000080J000000D01*
G01*
X007960Y028270D02*
G03*
X007960Y028270I-000080J000000D01*
G01*
X011120Y027480D02*
G03*
X011120Y027480I-000080J000000D01*
G01*
X013527Y028240D02*
G03*
X013527Y028240I-000080J000000D01*
G01*
X013515Y026663D02*
G03*
X013515Y026663I-000080J000000D01*
G01*
X004920Y031120D02*
G03*
X004920Y031120I-000080J000000D01*
G01*
X007152Y031197D02*
G03*
X007152Y031197I-000080J000000D01*
G01*
X006676Y031187D02*
G03*
X006676Y031187I-000080J000000D01*
G01*
X033130Y020273D02*
G03*
X033130Y020273I-000080J000000D01*
G01*
X017284Y026971D02*
G03*
X017284Y026971I-000080J000000D01*
G01*
X032886Y020633D02*
G03*
X032886Y020633I-000080J000000D01*
G01*
M02*
