G04*
G04 #@! TF.GenerationSoftware,Altium Limited,Altium Designer,20.1.8 (145)*
G04*
G04 Layer_Color=16711935*
%FSAX24Y24*%
%MOIN*%
G70*
G04*
G04 #@! TF.SameCoordinates,548E75E3-62BA-4D27-8EBC-4AC5D718A5B1*
G04*
G04*
G04 #@! TF.FilePolarity,Negative*
G04*
G01*
G75*
%ADD20C,0.1104*%
%ADD45R,0.0670X0.0570*%
%ADD46R,0.0533X0.0300*%
%ADD47R,0.0230X0.0392*%
%ADD48R,0.0392X0.0210*%
%ADD49R,0.0970X0.0970*%
%ADD50R,0.0720X0.1120*%
%ADD51R,0.1120X0.0720*%
%ADD52R,0.0570X0.0670*%
G04:AMPARAMS|DCode=53|XSize=90.7mil|YSize=130.1mil|CornerRadius=0mil|HoleSize=0mil|Usage=FLASHONLY|Rotation=180.000|XOffset=0mil|YOffset=0mil|HoleType=Round|Shape=Octagon|*
%AMOCTAGOND53*
4,1,8,0.0227,-0.0651,-0.0227,-0.0651,-0.0454,-0.0424,-0.0454,0.0424,-0.0227,0.0651,0.0227,0.0651,0.0454,0.0424,0.0454,-0.0424,0.0227,-0.0651,0.0*
%
%ADD53OCTAGOND53*%

%ADD54R,0.0435X0.0592*%
%ADD55R,0.0435X0.0750*%
%ADD56R,0.0480X0.0480*%
%ADD57R,0.0480X0.0620*%
%ADD58O,0.0360X0.0920*%
%ADD59R,0.0720X0.0720*%
%ADD60O,0.0920X0.0360*%
%ADD61R,0.0480X0.0480*%
%ADD62R,0.0620X0.0480*%
%ADD63R,0.0720X0.0720*%
D20*
X003978Y004614D02*
D03*
X033110D02*
D03*
X003979Y034141D02*
D03*
X033110Y034121D02*
D03*
D45*
X008299Y008891D02*
D03*
X009199Y008891D02*
D03*
X009620Y030460D02*
D03*
X008720Y030460D02*
D03*
X005655Y014369D02*
D03*
X004755Y014369D02*
D03*
X004750Y015440D02*
D03*
X005650Y015440D02*
D03*
X004740Y016280D02*
D03*
X005640Y016280D02*
D03*
X004741Y017132D02*
D03*
X005641Y017132D02*
D03*
X004750Y018030D02*
D03*
X005650Y018030D02*
D03*
X008520Y014380D02*
D03*
X009420Y014380D02*
D03*
X010170Y015580D02*
D03*
X009270Y015580D02*
D03*
X010160Y016380D02*
D03*
X009260Y016380D02*
D03*
X026107Y005801D02*
D03*
X025207Y005801D02*
D03*
X026090Y008482D02*
D03*
X025190Y008482D02*
D03*
X031259Y010018D02*
D03*
X030359Y010018D02*
D03*
X011204Y023072D02*
D03*
X012104Y023072D02*
D03*
X031177Y027326D02*
D03*
X032077Y027326D02*
D03*
X008291Y007192D02*
D03*
X009191Y007192D02*
D03*
X018972Y011253D02*
D03*
X018072Y011253D02*
D03*
X021199Y010137D02*
D03*
X022099Y010137D02*
D03*
X025199Y007648D02*
D03*
X026099Y007648D02*
D03*
X029972Y005708D02*
D03*
X029072Y005708D02*
D03*
X028459Y010817D02*
D03*
X029359Y010817D02*
D03*
X012520Y026630D02*
D03*
X011620Y026630D02*
D03*
X015043Y021841D02*
D03*
X015943Y021841D02*
D03*
X014790Y028219D02*
D03*
X015690Y028219D02*
D03*
X026426Y021996D02*
D03*
X025526Y021996D02*
D03*
X032103Y020730D02*
D03*
X031203Y020730D02*
D03*
X031194Y021607D02*
D03*
X032094Y021607D02*
D03*
X006480Y008890D02*
D03*
X007380Y008890D02*
D03*
X016590Y006390D02*
D03*
X015690Y006390D02*
D03*
X018999Y010148D02*
D03*
X019899Y010148D02*
D03*
X029972Y004912D02*
D03*
X029072Y004912D02*
D03*
X014109Y019942D02*
D03*
X013209Y019942D02*
D03*
X017826Y028186D02*
D03*
X018726Y028186D02*
D03*
X027859Y024915D02*
D03*
X026959Y024915D02*
D03*
X029146Y027328D02*
D03*
X030046Y027328D02*
D03*
X005535Y008890D02*
D03*
X004635Y008890D02*
D03*
X015690Y007953D02*
D03*
X016590Y007953D02*
D03*
X029361Y010018D02*
D03*
X028461Y010018D02*
D03*
X013209Y020750D02*
D03*
X014109Y020750D02*
D03*
X015690Y026645D02*
D03*
X014790Y026645D02*
D03*
X030037Y021634D02*
D03*
X029137Y021634D02*
D03*
X031186Y028186D02*
D03*
X032086Y028186D02*
D03*
X012493Y027472D02*
D03*
X011593Y027472D02*
D03*
D46*
X012267Y022173D02*
D03*
X011204D02*
D03*
Y021424D02*
D03*
X012267Y021798D02*
D03*
Y021424D02*
D03*
D47*
X006890Y016720D02*
D03*
X007090D02*
D03*
X007490D02*
D03*
X007690Y015220D02*
D03*
X007490D02*
D03*
X007290D02*
D03*
X007090D02*
D03*
X006890D02*
D03*
X007290Y016720D02*
D03*
X007690D02*
D03*
D48*
X008040Y016370D02*
D03*
Y016170D02*
D03*
Y015970D02*
D03*
Y015770D02*
D03*
Y015570D02*
D03*
X006540D02*
D03*
Y015770D02*
D03*
Y015970D02*
D03*
Y016170D02*
D03*
Y016370D02*
D03*
D49*
X007290Y015970D02*
D03*
D50*
X024272Y029181D02*
D03*
X022922D02*
D03*
X024272Y027532D02*
D03*
X022922D02*
D03*
X024268Y023383D02*
D03*
X022918D02*
D03*
Y021318D02*
D03*
X024268D02*
D03*
D51*
X022639Y006032D02*
D03*
Y004682D02*
D03*
Y008844D02*
D03*
Y007494D02*
D03*
D52*
X008856Y026018D02*
D03*
X008856Y026918D02*
D03*
X009620Y026910D02*
D03*
X009620Y026010D02*
D03*
X005410Y019350D02*
D03*
X005410Y020250D02*
D03*
X006250Y019350D02*
D03*
X006250Y020250D02*
D03*
X007080Y011640D02*
D03*
X007080Y012540D02*
D03*
X007082Y020259D02*
D03*
X007082Y019359D02*
D03*
X007890Y019340D02*
D03*
X007890Y020240D02*
D03*
X009570Y021241D02*
D03*
X009570Y022141D02*
D03*
X010416D02*
D03*
X010416Y021241D02*
D03*
X009210Y005400D02*
D03*
X009210Y004500D02*
D03*
X007503Y005427D02*
D03*
X007503Y004527D02*
D03*
X013372Y023072D02*
D03*
X013372Y022172D02*
D03*
X007380Y029170D02*
D03*
X007380Y028270D02*
D03*
X021752Y029175D02*
D03*
X021752Y030075D02*
D03*
X027061Y026705D02*
D03*
X027061Y025805D02*
D03*
X027876Y023068D02*
D03*
X027876Y023968D02*
D03*
X008330Y004510D02*
D03*
X008330Y005410D02*
D03*
X022288Y011468D02*
D03*
X022288Y012368D02*
D03*
X027062Y023942D02*
D03*
X027062Y023042D02*
D03*
X032710Y024560D02*
D03*
X032710Y025460D02*
D03*
X021442Y011468D02*
D03*
X021442Y012368D02*
D03*
X025530D02*
D03*
X025530Y011468D02*
D03*
X030932Y008159D02*
D03*
X030932Y009059D02*
D03*
X018006Y021692D02*
D03*
X018006Y020792D02*
D03*
X021754Y027532D02*
D03*
X021754Y026632D02*
D03*
X027895Y026705D02*
D03*
X027895Y025805D02*
D03*
X031209Y029107D02*
D03*
X031209Y030007D02*
D03*
X032700Y022720D02*
D03*
X032700Y023620D02*
D03*
X011820Y010820D02*
D03*
X011820Y011720D02*
D03*
X021442Y014205D02*
D03*
X021442Y013305D02*
D03*
X023092Y012375D02*
D03*
X023092Y011475D02*
D03*
X031049Y004914D02*
D03*
X031049Y005814D02*
D03*
X018812Y021685D02*
D03*
X018812Y020785D02*
D03*
X021750Y024985D02*
D03*
X021750Y024085D02*
D03*
X032058Y030021D02*
D03*
X032058Y029121D02*
D03*
D53*
X009020Y028220D02*
D03*
D54*
X009611Y029204D02*
D03*
X008429D02*
D03*
D55*
X009020Y029126D02*
D03*
D56*
X006490Y007210D02*
D03*
X007240D02*
D03*
D57*
X006870Y006410D02*
D03*
D58*
X030064Y006864D02*
D03*
X029564D02*
D03*
X029064D02*
D03*
X028564D02*
D03*
X029064Y009064D02*
D03*
X029564D02*
D03*
X030064Y009064D02*
D03*
X028564D02*
D03*
D59*
X025136Y025333D02*
D03*
X023786D02*
D03*
X009649Y009978D02*
D03*
X008299D02*
D03*
X029877Y020609D02*
D03*
X028527D02*
D03*
X010960Y025300D02*
D03*
X012310D02*
D03*
X028766Y029706D02*
D03*
X027416D02*
D03*
X010980Y024110D02*
D03*
X012330D02*
D03*
X027686Y028046D02*
D03*
X026336D02*
D03*
D60*
X031234Y025523D02*
D03*
Y026023D02*
D03*
X029034D02*
D03*
X031234Y025023D02*
D03*
Y024523D02*
D03*
Y024023D02*
D03*
X029034Y023023D02*
D03*
Y025023D02*
D03*
Y024523D02*
D03*
Y024023D02*
D03*
X031234Y023523D02*
D03*
X029034Y025523D02*
D03*
Y023523D02*
D03*
X031234Y023023D02*
D03*
X021190Y008650D02*
D03*
Y009150D02*
D03*
X018990D02*
D03*
X021190Y008150D02*
D03*
Y007650D02*
D03*
Y007150D02*
D03*
Y005650D02*
D03*
X018990D02*
D03*
Y006150D02*
D03*
Y008150D02*
D03*
Y007650D02*
D03*
Y007150D02*
D03*
X021190Y006650D02*
D03*
X018990Y008650D02*
D03*
Y006650D02*
D03*
X021190Y006150D02*
D03*
X020014Y026713D02*
D03*
Y027213D02*
D03*
X017814D02*
D03*
X020014Y026213D02*
D03*
Y025713D02*
D03*
Y025213D02*
D03*
Y023713D02*
D03*
X017814D02*
D03*
Y024213D02*
D03*
Y026213D02*
D03*
Y025713D02*
D03*
Y025213D02*
D03*
X020014Y024713D02*
D03*
X017814Y026713D02*
D03*
Y024713D02*
D03*
X020014Y024213D02*
D03*
D61*
X011981Y020692D02*
D03*
Y019942D02*
D03*
D62*
X011181Y020312D02*
D03*
D63*
X020350Y013750D02*
D03*
Y012400D02*
D03*
X020016Y020800D02*
D03*
Y022150D02*
D03*
M02*
