G04*
G04 #@! TF.GenerationSoftware,Altium Limited,Altium Designer,20.1.8 (145)*
G04*
G04 Layer_Color=39423*
%FSAX24Y24*%
%MOIN*%
G70*
G04*
G04 #@! TF.SameCoordinates,548E75E3-62BA-4D27-8EBC-4AC5D718A5B1*
G04*
G04*
G04 #@! TF.FilePolarity,Positive*
G04*
G01*
G75*
%ADD10C,0.0039*%
%ADD11C,0.0079*%
%ADD12C,0.0098*%
%ADD13C,0.0100*%
%ADD15C,0.0080*%
%ADD21C,0.0060*%
%ADD22C,0.0120*%
%ADD64C,0.0315*%
%ADD65C,0.0040*%
%ADD66R,0.1790X0.0990*%
%ADD67R,0.1020X0.3380*%
%ADD68R,0.1000X0.3890*%
D10*
X008075Y027590D02*
Y029480D01*
Y027590D02*
X009965D01*
Y029480D01*
X008075D02*
X009965D01*
D11*
X011243Y021110D02*
Y021208D01*
X012227Y021110D02*
Y021208D01*
X011243Y021110D02*
X012227D01*
X011243Y022389D02*
Y022487D01*
X012227Y022389D02*
Y022487D01*
X011243Y022487D02*
X012227D01*
X006483Y016777D02*
X006640D01*
X006483Y016620D02*
Y016777D01*
X007940D02*
X008097D01*
Y016620D02*
Y016777D01*
Y015163D02*
Y015320D01*
X007940Y015163D02*
X008097D01*
X006483D02*
X006640D01*
X006483D02*
Y015320D01*
X009532Y028023D02*
X009926D01*
Y029047D01*
X008114Y028023D02*
X008508D01*
X008114D02*
Y029047D01*
D12*
X012424Y022487D02*
G03*
X012424Y022487I-000049J000000D01*
G01*
X006633Y016920D02*
G03*
X006633Y016920I-000020J000000D01*
G01*
X008183Y029372D02*
G03*
X008183Y029372I-000049J000000D01*
G01*
D13*
X003180Y004576D02*
G03*
X003970Y003780I000793J-000003D01*
G01*
X033111Y003799D02*
G03*
X033960Y004600I000024J000825D01*
G01*
Y034120D02*
G03*
X033130Y034940I-000825J-000005D01*
G01*
X030414Y008214D02*
G03*
X030414Y007714I000000J-000250D01*
G01*
X029884Y026403D02*
G03*
X030384Y026403I000250J000000D01*
G01*
X003964Y034939D02*
G03*
X003180Y034126I000015J-000798D01*
G01*
X019840Y009550D02*
G03*
X020340Y009550I000250J000000D01*
G01*
X018664Y027613D02*
G03*
X019164Y027613I000250J000000D01*
G01*
X033960Y034120D02*
X033960Y004600D01*
X028274Y007464D02*
X030394D01*
X028274D02*
X028274Y008464D01*
X030394D01*
X030414Y008214D02*
Y008464D01*
X030414Y007526D02*
Y007651D01*
Y007526D02*
X030414D01*
Y007464D02*
Y007526D01*
X030414Y007651D02*
Y007714D01*
X003180Y004576D02*
X003180Y034141D01*
X030384Y026403D02*
X030634D01*
X029634D02*
X029884D01*
X029634Y022673D02*
Y026403D01*
Y022673D02*
X030634D01*
Y026403D01*
X003979Y034940D02*
X033130Y034940D01*
X003970Y003780D02*
X033111Y003799D01*
X020340Y009550D02*
X020590D01*
X019590D02*
X019840D01*
X019590Y005300D02*
Y009550D01*
Y005300D02*
X020590D01*
Y009550D01*
X019164Y027613D02*
X019414D01*
X018414D02*
X018664D01*
X018414Y023363D02*
Y027613D01*
Y023363D02*
X019414D01*
Y027613D01*
D15*
X025317Y028963D02*
X025370Y028910D01*
Y028803D01*
X025317Y028750D01*
X025103D01*
X025050Y028803D01*
Y028910D01*
X025103Y028963D01*
X025050Y029283D02*
Y029070D01*
X025263Y029283D01*
X025317D01*
X025370Y029230D01*
Y029123D01*
X025317Y029070D01*
Y029390D02*
X025370Y029443D01*
Y029550D01*
X025317Y029603D01*
X025263D01*
X025210Y029550D01*
X025157Y029603D01*
X025103D01*
X025050Y029550D01*
Y029443D01*
X025103Y029390D01*
X025157D01*
X025210Y029443D01*
X025263Y029390D01*
X025317D01*
X025210Y029443D02*
Y029550D01*
X005747Y006433D02*
Y006647D01*
X005800Y006700D01*
X005907D01*
X005960Y006647D01*
Y006433D01*
X005907Y006380D01*
X005800D01*
X005853Y006487D02*
X005747Y006380D01*
X005800D02*
X005747Y006433D01*
X005640Y006380D02*
X005533D01*
X005587D01*
Y006700D01*
X005640Y006647D01*
X009357Y013520D02*
Y013840D01*
X009197D01*
X009143Y013787D01*
Y013680D01*
X009197Y013627D01*
X009357D01*
X009250D02*
X009143Y013520D01*
X008823D02*
X009037D01*
X008823Y013733D01*
Y013787D01*
X008877Y013840D01*
X008983D01*
X009037Y013787D01*
X008503Y013840D02*
X008717D01*
Y013680D01*
X008610Y013733D01*
X008557D01*
X008503Y013680D01*
Y013573D01*
X008557Y013520D01*
X008663D01*
X008717Y013573D01*
X006337Y012707D02*
X006390Y012760D01*
X006497D01*
X006550Y012707D01*
Y012493D01*
X006497Y012440D01*
X006390D01*
X006337Y012493D01*
X006230Y012440D02*
X006123D01*
X006177D01*
Y012760D01*
X006230Y012707D01*
X005964Y012760D02*
X005750D01*
Y012707D01*
X005964Y012493D01*
Y012440D01*
X005331Y013519D02*
Y013839D01*
X005171D01*
X005118Y013785D01*
Y013679D01*
X005171Y013625D01*
X005331D01*
X005225D02*
X005118Y013519D01*
X004798D02*
X005011D01*
X004798Y013732D01*
Y013785D01*
X004852Y013839D01*
X004958D01*
X005011Y013785D01*
X004532Y013519D02*
Y013839D01*
X004692Y013679D01*
X004478D01*
X004193Y015282D02*
Y015602D01*
X004033D01*
X003980Y015549D01*
Y015442D01*
X004033Y015389D01*
X004193D01*
X004087D02*
X003980Y015282D01*
X003660D02*
X003873D01*
X003660Y015495D01*
Y015549D01*
X003713Y015602D01*
X003820D01*
X003873Y015549D01*
X003553D02*
X003500Y015602D01*
X003393D01*
X003340Y015549D01*
Y015495D01*
X003393Y015442D01*
X003447D01*
X003393D01*
X003340Y015389D01*
Y015336D01*
X003393Y015282D01*
X003500D01*
X003553Y015336D01*
X004187Y016120D02*
Y016440D01*
X004027D01*
X003973Y016387D01*
Y016280D01*
X004027Y016227D01*
X004187D01*
X004080D02*
X003973Y016120D01*
X003653D02*
X003867D01*
X003653Y016333D01*
Y016387D01*
X003707Y016440D01*
X003813D01*
X003867Y016387D01*
X003333Y016120D02*
X003547D01*
X003333Y016333D01*
Y016387D01*
X003387Y016440D01*
X003493D01*
X003547Y016387D01*
X004173Y016990D02*
Y017310D01*
X004013D01*
X003960Y017257D01*
Y017150D01*
X004013Y017097D01*
X004173D01*
X004067D02*
X003960Y016990D01*
X003640D02*
X003853D01*
X003640Y017203D01*
Y017257D01*
X003693Y017310D01*
X003800D01*
X003853Y017257D01*
X003533Y016990D02*
X003427D01*
X003480D01*
Y017310D01*
X003533Y017257D01*
X004217Y017890D02*
Y018210D01*
X004057D01*
X004003Y018157D01*
Y018050D01*
X004057Y017997D01*
X004217D01*
X004110D02*
X004003Y017890D01*
X003683D02*
X003897D01*
X003683Y018103D01*
Y018157D01*
X003737Y018210D01*
X003843D01*
X003897Y018157D01*
X003577D02*
X003523Y018210D01*
X003417D01*
X003363Y018157D01*
Y017943D01*
X003417Y017890D01*
X003523D01*
X003577Y017943D01*
Y018157D01*
X007750Y020880D02*
X008070D01*
Y021040D01*
X008017Y021093D01*
X007910D01*
X007857Y021040D01*
Y020880D01*
Y020987D02*
X007750Y021093D01*
Y021200D02*
Y021307D01*
Y021253D01*
X008070D01*
X008017Y021200D01*
X007803Y021467D02*
X007750Y021520D01*
Y021627D01*
X007803Y021680D01*
X008017D01*
X008070Y021627D01*
Y021520D01*
X008017Y021467D01*
X007963D01*
X007910Y021520D01*
Y021680D01*
X006100Y020890D02*
X006420D01*
Y021050D01*
X006367Y021103D01*
X006260D01*
X006207Y021050D01*
Y020890D01*
Y020997D02*
X006100Y021103D01*
Y021210D02*
Y021317D01*
Y021263D01*
X006420D01*
X006367Y021210D01*
Y021477D02*
X006420Y021530D01*
Y021637D01*
X006367Y021690D01*
X006313D01*
X006260Y021637D01*
X006207Y021690D01*
X006153D01*
X006100Y021637D01*
Y021530D01*
X006153Y021477D01*
X006207D01*
X006260Y021530D01*
X006313Y021477D01*
X006367D01*
X006260Y021530D02*
Y021637D01*
X011357Y015707D02*
X011410Y015760D01*
X011517D01*
X011570Y015707D01*
Y015493D01*
X011517Y015440D01*
X011410D01*
X011357Y015493D01*
X011250Y015440D02*
X011143D01*
X011197D01*
Y015760D01*
X011250Y015707D01*
X010983D02*
X010930Y015760D01*
X010823D01*
X010770Y015707D01*
Y015653D01*
X010823Y015600D01*
X010770Y015547D01*
Y015493D01*
X010823Y015440D01*
X010930D01*
X010983Y015493D01*
Y015547D01*
X010930Y015600D01*
X010983Y015653D01*
Y015707D01*
X010930Y015600D02*
X010823D01*
X005577Y021093D02*
X005630Y021040D01*
Y020933D01*
X005577Y020880D01*
X005363D01*
X005310Y020933D01*
Y021040D01*
X005363Y021093D01*
X005310Y021200D02*
Y021307D01*
Y021253D01*
X005630D01*
X005577Y021200D01*
X005630Y021680D02*
X005577Y021573D01*
X005470Y021467D01*
X005363D01*
X005310Y021520D01*
Y021627D01*
X005363Y021680D01*
X005417D01*
X005470Y021627D01*
Y021467D01*
X008600Y017390D02*
Y017123D01*
X008547Y017070D01*
X008440D01*
X008387Y017123D01*
Y017390D01*
X008280Y017337D02*
X008227Y017390D01*
X008120D01*
X008067Y017337D01*
Y017283D01*
X008120Y017230D01*
X008173D01*
X008120D01*
X008067Y017177D01*
Y017123D01*
X008120Y017070D01*
X008227D01*
X008280Y017123D01*
X010790Y029300D02*
Y029033D01*
X010737Y028980D01*
X010630D01*
X010577Y029033D01*
Y029300D01*
X010470D02*
X010257D01*
Y029247D01*
X010470Y029033D01*
Y028980D01*
X012170Y012260D02*
Y012580D01*
X012010D01*
X011957Y012527D01*
Y012420D01*
X012010Y012367D01*
X012170D01*
X012063D02*
X011957Y012260D01*
X011850D02*
X011743D01*
X011797D01*
Y012580D01*
X011850Y012527D01*
X011370Y012580D02*
X011584D01*
Y012420D01*
X011477Y012473D01*
X011424D01*
X011370Y012420D01*
Y012313D01*
X011424Y012260D01*
X011530D01*
X011584Y012313D01*
X025330Y012970D02*
X025650D01*
Y013130D01*
X025597Y013183D01*
X025490D01*
X025437Y013130D01*
Y012970D01*
Y013077D02*
X025330Y013183D01*
Y013290D02*
Y013397D01*
Y013343D01*
X025650D01*
X025597Y013290D01*
X025330Y013716D02*
X025650D01*
X025490Y013556D01*
Y013770D01*
X010043Y007239D02*
X010096Y007292D01*
X010203D01*
X010256Y007239D01*
Y007026D01*
X010203Y006973D01*
X010096D01*
X010043Y007026D01*
X009776Y006973D02*
Y007292D01*
X009936Y007132D01*
X009723D01*
X011397Y016467D02*
X011450Y016520D01*
X011557D01*
X011610Y016467D01*
Y016253D01*
X011557Y016200D01*
X011450D01*
X011397Y016253D01*
X011290Y016200D02*
X011183D01*
X011237D01*
Y016520D01*
X011290Y016467D01*
X011024Y016253D02*
X010970Y016200D01*
X010864D01*
X010810Y016253D01*
Y016467D01*
X010864Y016520D01*
X010970D01*
X011024Y016467D01*
Y016413D01*
X010970Y016360D01*
X010810D01*
X007217Y021093D02*
X007270Y021040D01*
Y020933D01*
X007217Y020880D01*
X007003D01*
X006950Y020933D01*
Y021040D01*
X007003Y021093D01*
X006950Y021200D02*
Y021307D01*
Y021253D01*
X007270D01*
X007217Y021200D01*
X007270Y021680D02*
Y021466D01*
X007110D01*
X007163Y021573D01*
Y021626D01*
X007110Y021680D01*
X007003D01*
X006950Y021626D01*
Y021520D01*
X007003Y021466D01*
X033353Y025607D02*
X033300Y025660D01*
Y025767D01*
X033353Y025820D01*
X033567D01*
X033620Y025767D01*
Y025660D01*
X033567Y025607D01*
X033353Y025500D02*
X033300Y025447D01*
Y025340D01*
X033353Y025287D01*
X033407D01*
X033460Y025340D01*
Y025393D01*
Y025340D01*
X033513Y025287D01*
X033567D01*
X033620Y025340D01*
Y025447D01*
X033567Y025500D01*
Y025180D02*
X033620Y025127D01*
Y025020D01*
X033567Y024967D01*
X033353D01*
X033300Y025020D01*
Y025127D01*
X033353Y025180D01*
X033407D01*
X033460Y025127D01*
Y024967D01*
X022230Y025580D02*
Y025900D01*
X022070D01*
X022017Y025847D01*
Y025740D01*
X022070Y025687D01*
X022230D01*
X022123D02*
X022017Y025580D01*
X021910Y025847D02*
X021857Y025900D01*
X021750D01*
X021697Y025847D01*
Y025793D01*
X021750Y025740D01*
X021803D01*
X021750D01*
X021697Y025687D01*
Y025633D01*
X021750Y025580D01*
X021857D01*
X021910Y025633D01*
X021377Y025900D02*
X021484Y025847D01*
X021590Y025740D01*
Y025633D01*
X021537Y025580D01*
X021430D01*
X021377Y025633D01*
Y025687D01*
X021430Y025740D01*
X021590D01*
X030654Y022503D02*
Y022237D01*
X030601Y022183D01*
X030494D01*
X030441Y022237D01*
Y022503D01*
X030174Y022183D02*
Y022503D01*
X030334Y022343D01*
X030121D01*
X015040Y022980D02*
Y023300D01*
X014880D01*
X014827Y023247D01*
Y023140D01*
X014880Y023087D01*
X015040D01*
X014933D02*
X014827Y022980D01*
X014507Y023300D02*
X014720D01*
Y023140D01*
X014613D01*
X014720D01*
Y022980D01*
X014187Y023247D02*
X014240Y023300D01*
X014347D01*
X014400Y023247D01*
Y023033D01*
X014347Y022980D01*
X014240D01*
X014187Y023033D01*
X014080Y023247D02*
X014027Y023300D01*
X013920D01*
X013867Y023247D01*
Y023193D01*
X013920Y023140D01*
X013974D01*
X013920D01*
X013867Y023087D01*
Y023033D01*
X013920Y022980D01*
X014027D01*
X014080Y023033D01*
X018990Y020240D02*
X018670D01*
Y020080D01*
X018723Y020027D01*
X018830D01*
X018883Y020080D01*
Y020240D01*
Y020133D02*
X018990Y020027D01*
Y019760D02*
X018670D01*
X018830Y019920D01*
Y019707D01*
X018723Y019600D02*
X018670Y019547D01*
Y019440D01*
X018723Y019387D01*
X018777D01*
X018830Y019440D01*
Y019494D01*
Y019440D01*
X018883Y019387D01*
X018937D01*
X018990Y019440D01*
Y019547D01*
X018937Y019600D01*
X018180Y020190D02*
X017860D01*
Y020030D01*
X017913Y019977D01*
X018020D01*
X018073Y020030D01*
Y020190D01*
Y020083D02*
X018180Y019977D01*
Y019710D02*
X017860D01*
X018020Y019870D01*
Y019657D01*
X018180Y019337D02*
Y019550D01*
X017967Y019337D01*
X017913D01*
X017860Y019390D01*
Y019497D01*
X017913Y019550D01*
X026600Y022820D02*
Y023140D01*
X026440D01*
X026387Y023087D01*
Y022980D01*
X026440Y022927D01*
X026600D01*
X026493D02*
X026387Y022820D01*
X026280Y023087D02*
X026227Y023140D01*
X026120D01*
X026067Y023087D01*
Y023033D01*
X026120Y022980D01*
X026173D01*
X026120D01*
X026067Y022927D01*
Y022873D01*
X026120Y022820D01*
X026227D01*
X026280Y022873D01*
X025960Y023087D02*
X025907Y023140D01*
X025800D01*
X025747Y023087D01*
Y023033D01*
X025800Y022980D01*
X025854D01*
X025800D01*
X025747Y022927D01*
Y022873D01*
X025800Y022820D01*
X025907D01*
X025960Y022873D01*
X026570Y027000D02*
X026250D01*
Y026840D01*
X026303Y026787D01*
X026410D01*
X026463Y026840D01*
Y027000D01*
Y026893D02*
X026570Y026787D01*
X026303Y026680D02*
X026250Y026627D01*
Y026520D01*
X026303Y026467D01*
X026357D01*
X026410Y026520D01*
Y026573D01*
Y026520D01*
X026463Y026467D01*
X026517D01*
X026570Y026520D01*
Y026627D01*
X026517Y026680D01*
X026570Y026147D02*
Y026360D01*
X026357Y026147D01*
X026303D01*
X026250Y026200D01*
Y026307D01*
X026303Y026360D01*
X028570Y021510D02*
Y021830D01*
X028410D01*
X028357Y021777D01*
Y021670D01*
X028410Y021617D01*
X028570D01*
X028463D02*
X028357Y021510D01*
X028250Y021777D02*
X028197Y021830D01*
X028090D01*
X028037Y021777D01*
Y021723D01*
X028090Y021670D01*
X028143D01*
X028090D01*
X028037Y021617D01*
Y021563D01*
X028090Y021510D01*
X028197D01*
X028250Y021563D01*
X027930Y021510D02*
X027824D01*
X027877D01*
Y021830D01*
X027930Y021777D01*
X029908Y027799D02*
Y028118D01*
X029748D01*
X029695Y028065D01*
Y027959D01*
X029748Y027905D01*
X029908D01*
X029802D02*
X029695Y027799D01*
X029588Y028065D02*
X029535Y028118D01*
X029428D01*
X029375Y028065D01*
Y028012D01*
X029428Y027959D01*
X029482D01*
X029428D01*
X029375Y027905D01*
Y027852D01*
X029428Y027799D01*
X029535D01*
X029588Y027852D01*
X029268Y028065D02*
X029215Y028118D01*
X029109D01*
X029055Y028065D01*
Y027852D01*
X029109Y027799D01*
X029215D01*
X029268Y027852D01*
Y028065D01*
X033500Y021450D02*
Y021770D01*
X033340D01*
X033287Y021717D01*
Y021610D01*
X033340Y021557D01*
X033500D01*
X033393D02*
X033287Y021450D01*
X032967D02*
X033180D01*
X032967Y021663D01*
Y021717D01*
X033020Y021770D01*
X033127D01*
X033180Y021717D01*
X032860Y021503D02*
X032807Y021450D01*
X032700D01*
X032647Y021503D01*
Y021717D01*
X032700Y021770D01*
X032807D01*
X032860Y021717D01*
Y021663D01*
X032807Y021610D01*
X032647D01*
X033446Y027191D02*
Y027510D01*
X033286D01*
X033233Y027457D01*
Y027351D01*
X033286Y027297D01*
X033446D01*
X033339D02*
X033233Y027191D01*
X032913D02*
X033126D01*
X032913Y027404D01*
Y027457D01*
X032966Y027510D01*
X033073D01*
X033126Y027457D01*
X032593Y027510D02*
X032699Y027457D01*
X032806Y027351D01*
Y027244D01*
X032753Y027191D01*
X032646D01*
X032593Y027244D01*
Y027297D01*
X032646Y027351D01*
X032806D01*
X033386Y029902D02*
Y030221D01*
X033226D01*
X033173Y030168D01*
Y030062D01*
X033226Y030008D01*
X033386D01*
X033280D02*
X033173Y029902D01*
X032853D02*
X033066D01*
X032853Y030115D01*
Y030168D01*
X032906Y030221D01*
X033013D01*
X033066Y030168D01*
X032747D02*
X032693Y030221D01*
X032587D01*
X032533Y030168D01*
Y030115D01*
X032587Y030062D01*
X032533Y030008D01*
Y029955D01*
X032587Y029902D01*
X032693D01*
X032747Y029955D01*
Y030008D01*
X032693Y030062D01*
X032747Y030115D01*
Y030168D01*
X032693Y030062D02*
X032587D01*
X030764Y029903D02*
Y030223D01*
X030604D01*
X030551Y030170D01*
Y030063D01*
X030604Y030010D01*
X030764D01*
X030658D02*
X030551Y029903D01*
X030231D02*
X030444D01*
X030231Y030117D01*
Y030170D01*
X030284Y030223D01*
X030391D01*
X030444Y030170D01*
X030124Y030223D02*
X029911D01*
Y030170D01*
X030124Y029957D01*
Y029903D01*
X016127Y022647D02*
X016180Y022700D01*
X016287D01*
X016340Y022647D01*
Y022433D01*
X016287Y022380D01*
X016180D01*
X016127Y022433D01*
X016020Y022647D02*
X015967Y022700D01*
X015860D01*
X015807Y022647D01*
Y022593D01*
X015860Y022540D01*
X015913D01*
X015860D01*
X015807Y022487D01*
Y022433D01*
X015860Y022380D01*
X015967D01*
X016020Y022433D01*
X015700Y022647D02*
X015647Y022700D01*
X015540D01*
X015487Y022647D01*
Y022593D01*
X015540Y022540D01*
X015487Y022487D01*
Y022433D01*
X015540Y022380D01*
X015647D01*
X015700Y022433D01*
Y022487D01*
X015647Y022540D01*
X015700Y022593D01*
Y022647D01*
X015647Y022540D02*
X015540D01*
X020318Y019985D02*
X020371Y020038D01*
X020478D01*
X020531Y019985D01*
Y019772D01*
X020478Y019718D01*
X020371D01*
X020318Y019772D01*
X020211Y019985D02*
X020158Y020038D01*
X020051D01*
X019998Y019985D01*
Y019932D01*
X020051Y019878D01*
X020104D01*
X020051D01*
X019998Y019825D01*
Y019772D01*
X020051Y019718D01*
X020158D01*
X020211Y019772D01*
X019891Y020038D02*
X019678D01*
Y019985D01*
X019891Y019772D01*
Y019718D01*
X033567Y022653D02*
X033620Y022600D01*
Y022493D01*
X033567Y022440D01*
X033353D01*
X033300Y022493D01*
Y022600D01*
X033353Y022653D01*
X033567Y022760D02*
X033620Y022813D01*
Y022920D01*
X033567Y022973D01*
X033513D01*
X033460Y022920D01*
Y022867D01*
Y022920D01*
X033407Y022973D01*
X033353D01*
X033300Y022920D01*
Y022813D01*
X033353Y022760D01*
X033620Y023293D02*
X033567Y023186D01*
X033460Y023080D01*
X033353D01*
X033300Y023133D01*
Y023240D01*
X033353Y023293D01*
X033407D01*
X033460Y023240D01*
Y023080D01*
X028737Y019807D02*
X028790Y019860D01*
X028897D01*
X028950Y019807D01*
Y019593D01*
X028897Y019540D01*
X028790D01*
X028737Y019593D01*
X028417Y019540D02*
X028630D01*
X028417Y019753D01*
Y019807D01*
X028470Y019860D01*
X028577D01*
X028630Y019807D01*
X028310Y019860D02*
X028097D01*
Y019807D01*
X028310Y019593D01*
Y019540D01*
X024191Y026274D02*
X024244Y026328D01*
X024351D01*
X024404Y026274D01*
Y026061D01*
X024351Y026008D01*
X024244D01*
X024191Y026061D01*
X023871Y026008D02*
X024084D01*
X023871Y026221D01*
Y026274D01*
X023924Y026328D01*
X024031D01*
X024084Y026274D01*
X023551Y026328D02*
X023658Y026274D01*
X023764Y026168D01*
Y026061D01*
X023711Y026008D01*
X023604D01*
X023551Y026061D01*
Y026114D01*
X023604Y026168D01*
X023764D01*
X026591Y028985D02*
X026644Y029038D01*
X026751D01*
X026804Y028985D01*
Y028772D01*
X026751Y028718D01*
X026644D01*
X026591Y028772D01*
X026271Y028718D02*
X026484D01*
X026271Y028932D01*
Y028985D01*
X026324Y029038D01*
X026431D01*
X026484Y028985D01*
X025951Y029038D02*
X026164D01*
Y028878D01*
X026058Y028932D01*
X026004D01*
X025951Y028878D01*
Y028772D01*
X026004Y028718D01*
X026111D01*
X026164Y028772D01*
X027597Y030787D02*
X027650Y030840D01*
X027757D01*
X027810Y030787D01*
Y030573D01*
X027757Y030520D01*
X027650D01*
X027597Y030573D01*
X027277Y030520D02*
X027490D01*
X027277Y030733D01*
Y030787D01*
X027330Y030840D01*
X027437D01*
X027490Y030787D01*
X027010Y030520D02*
Y030840D01*
X027170Y030680D01*
X026957D01*
X033207Y020867D02*
X033260Y020920D01*
X033367D01*
X033420Y020867D01*
Y020653D01*
X033367Y020600D01*
X033260D01*
X033207Y020653D01*
X032887Y020600D02*
X033100D01*
X032887Y020813D01*
Y020867D01*
X032940Y020920D01*
X033047D01*
X033100Y020867D01*
X032780Y020600D02*
X032674D01*
X032727D01*
Y020920D01*
X032780Y020867D01*
X028257Y022467D02*
X028310Y022520D01*
X028417D01*
X028470Y022467D01*
Y022253D01*
X028417Y022200D01*
X028310D01*
X028257Y022253D01*
X027937Y022200D02*
X028150D01*
X027937Y022413D01*
Y022467D01*
X027990Y022520D01*
X028097D01*
X028150Y022467D01*
X027830D02*
X027777Y022520D01*
X027670D01*
X027617Y022467D01*
Y022413D01*
X027670Y022360D01*
X027724D01*
X027670D01*
X027617Y022307D01*
Y022253D01*
X027670Y022200D01*
X027777D01*
X027830Y022253D01*
X033271Y028309D02*
X033325Y028363D01*
X033431D01*
X033485Y028309D01*
Y028096D01*
X033431Y028043D01*
X033325D01*
X033271Y028096D01*
X032951Y028043D02*
X033165D01*
X032951Y028256D01*
Y028309D01*
X033005Y028363D01*
X033111D01*
X033165Y028309D01*
X032845D02*
X032791Y028363D01*
X032685D01*
X032631Y028309D01*
Y028096D01*
X032685Y028043D01*
X032791D01*
X032845Y028096D01*
Y028309D01*
X029007Y026757D02*
X029060Y026810D01*
X029167D01*
X029220Y026757D01*
Y026543D01*
X029167Y026490D01*
X029060D01*
X029007Y026543D01*
X028687Y026490D02*
X028900D01*
X028687Y026703D01*
Y026757D01*
X028740Y026810D01*
X028847D01*
X028900Y026757D01*
X028367Y026490D02*
X028580D01*
X028367Y026703D01*
Y026757D01*
X028420Y026810D01*
X028527D01*
X028580Y026757D01*
X022977Y010207D02*
X023030Y010260D01*
X023137D01*
X023190Y010207D01*
Y009993D01*
X023137Y009940D01*
X023030D01*
X022977Y009993D01*
X022657Y010260D02*
X022870D01*
Y010100D01*
X022763Y010153D01*
X022710D01*
X022657Y010100D01*
Y009993D01*
X022710Y009940D01*
X022817D01*
X022870Y009993D01*
X028100Y008140D02*
Y007873D01*
X028047Y007820D01*
X027940D01*
X027887Y007873D01*
Y008140D01*
X027567Y007820D02*
X027780D01*
X027567Y008033D01*
Y008087D01*
X027620Y008140D01*
X027727D01*
X027780Y008087D01*
X020230Y004990D02*
Y004723D01*
X020177Y004670D01*
X020070D01*
X020017Y004723D01*
Y004990D01*
X019910Y004670D02*
X019803D01*
X019857D01*
Y004990D01*
X019910Y004937D01*
X022150Y012930D02*
X022470D01*
Y013090D01*
X022417Y013143D01*
X022310D01*
X022257Y013090D01*
Y012930D01*
Y013037D02*
X022150Y013143D01*
X022470Y013463D02*
Y013250D01*
X022310D01*
Y013357D01*
Y013250D01*
X022150D01*
X022417Y013783D02*
X022470Y013730D01*
Y013623D01*
X022417Y013570D01*
X022203D01*
X022150Y013623D01*
Y013730D01*
X022203Y013783D01*
X022150Y013890D02*
Y013996D01*
Y013943D01*
X022470D01*
X022417Y013890D01*
X021909Y014774D02*
Y015094D01*
X021749D01*
X021696Y015041D01*
Y014934D01*
X021749Y014881D01*
X021909D01*
X021802D02*
X021696Y014774D01*
X021589D02*
X021482D01*
X021536D01*
Y015094D01*
X021589Y015041D01*
X021322Y015094D02*
X021109D01*
Y015041D01*
X021322Y014828D01*
Y014774D01*
X020980Y011250D02*
Y011570D01*
X020820D01*
X020767Y011517D01*
Y011410D01*
X020820Y011357D01*
X020980D01*
X020873D02*
X020767Y011250D01*
X020660D02*
X020553D01*
X020607D01*
Y011570D01*
X020660Y011517D01*
X020180Y011570D02*
X020287Y011517D01*
X020394Y011410D01*
Y011303D01*
X020340Y011250D01*
X020234D01*
X020180Y011303D01*
Y011357D01*
X020234Y011410D01*
X020394D01*
X027930Y010670D02*
Y010990D01*
X027770D01*
X027717Y010937D01*
Y010830D01*
X027770Y010777D01*
X027930D01*
X027823D02*
X027717Y010670D01*
X027610D02*
X027503D01*
X027557D01*
Y010990D01*
X027610Y010937D01*
X027344D02*
X027290Y010990D01*
X027184D01*
X027130Y010937D01*
Y010883D01*
X027184Y010830D01*
X027237D01*
X027184D01*
X027130Y010777D01*
Y010723D01*
X027184Y010670D01*
X027290D01*
X027344Y010723D01*
X031243Y010505D02*
Y010825D01*
X031083D01*
X031030Y010771D01*
Y010665D01*
X031083Y010611D01*
X031243D01*
X031137D02*
X031030Y010505D01*
X030923D02*
X030817D01*
X030870D01*
Y010825D01*
X030923Y010771D01*
X030444Y010505D02*
X030657D01*
X030444Y010718D01*
Y010771D01*
X030497Y010825D01*
X030604D01*
X030657Y010771D01*
X031470Y004060D02*
Y004380D01*
X031310D01*
X031257Y004327D01*
Y004220D01*
X031310Y004167D01*
X031470D01*
X031363D02*
X031257Y004060D01*
X031150D02*
X031043D01*
X031097D01*
Y004380D01*
X031150Y004327D01*
X030884Y004060D02*
X030777D01*
X030830D01*
Y004380D01*
X030884Y004327D01*
X028548Y004796D02*
Y005116D01*
X028388D01*
X028334Y005062D01*
Y004956D01*
X028388Y004902D01*
X028548D01*
X028441D02*
X028334Y004796D01*
X028228D02*
X028121D01*
X028174D01*
Y005116D01*
X028228Y005062D01*
X027961D02*
X027908Y005116D01*
X027801D01*
X027748Y005062D01*
Y004849D01*
X027801Y004796D01*
X027908D01*
X027961Y004849D01*
Y005062D01*
X024683Y007487D02*
Y007807D01*
X024523D01*
X024470Y007754D01*
Y007647D01*
X024523Y007594D01*
X024683D01*
X024577D02*
X024470Y007487D01*
X024363Y007540D02*
X024310Y007487D01*
X024204D01*
X024150Y007540D01*
Y007754D01*
X024204Y007807D01*
X024310D01*
X024363Y007754D01*
Y007700D01*
X024310Y007647D01*
X024150D01*
X025460Y006280D02*
Y006600D01*
X025300D01*
X025247Y006547D01*
Y006440D01*
X025300Y006387D01*
X025460D01*
X025353D02*
X025247Y006280D01*
X025140Y006547D02*
X025087Y006600D01*
X024980D01*
X024927Y006547D01*
Y006493D01*
X024980Y006440D01*
X024927Y006387D01*
Y006333D01*
X024980Y006280D01*
X025087D01*
X025140Y006333D01*
Y006387D01*
X025087Y006440D01*
X025140Y006493D01*
Y006547D01*
X025087Y006440D02*
X024980D01*
X015140Y007800D02*
Y008120D01*
X014980D01*
X014927Y008067D01*
Y007960D01*
X014980Y007907D01*
X015140D01*
X015033D02*
X014927Y007800D01*
X014820Y008120D02*
X014607D01*
Y008067D01*
X014820Y007853D01*
Y007800D01*
X015130Y006220D02*
Y006540D01*
X014970D01*
X014917Y006487D01*
Y006380D01*
X014970Y006327D01*
X015130D01*
X015023D02*
X014917Y006220D01*
X014597Y006540D02*
X014703Y006487D01*
X014810Y006380D01*
Y006273D01*
X014757Y006220D01*
X014650D01*
X014597Y006273D01*
Y006327D01*
X014650Y006380D01*
X014810D01*
X008150Y005970D02*
X008470D01*
Y006130D01*
X008417Y006183D01*
X008310D01*
X008257Y006130D01*
Y005970D01*
Y006077D02*
X008150Y006183D01*
X008470Y006503D02*
Y006290D01*
X008310D01*
X008363Y006397D01*
Y006450D01*
X008310Y006503D01*
X008203D01*
X008150Y006450D01*
Y006343D01*
X008203Y006290D01*
X007010Y004330D02*
Y004650D01*
X006850D01*
X006797Y004597D01*
Y004490D01*
X006850Y004437D01*
X007010D01*
X006903D02*
X006797Y004330D01*
X006530D02*
Y004650D01*
X006690Y004490D01*
X006477D01*
X004060Y008750D02*
Y009070D01*
X003900D01*
X003847Y009017D01*
Y008910D01*
X003900Y008857D01*
X004060D01*
X003953D02*
X003847Y008750D01*
X003740Y009017D02*
X003687Y009070D01*
X003580D01*
X003527Y009017D01*
Y008963D01*
X003580Y008910D01*
X003633D01*
X003580D01*
X003527Y008857D01*
Y008803D01*
X003580Y008750D01*
X003687D01*
X003740Y008803D01*
X006840Y009440D02*
Y009760D01*
X006680D01*
X006627Y009707D01*
Y009600D01*
X006680Y009547D01*
X006840D01*
X006733D02*
X006627Y009440D01*
X006307D02*
X006520D01*
X006307Y009653D01*
Y009707D01*
X006360Y009760D01*
X006467D01*
X006520Y009707D01*
X017540Y011080D02*
Y011400D01*
X017380D01*
X017327Y011347D01*
Y011240D01*
X017380Y011187D01*
X017540D01*
X017433D02*
X017327Y011080D01*
X017220D02*
X017113D01*
X017167D01*
Y011400D01*
X017220Y011347D01*
X023217Y013133D02*
X023270Y013080D01*
Y012973D01*
X023217Y012920D01*
X023003D01*
X022950Y012973D01*
Y013080D01*
X023003Y013133D01*
X022950Y013240D02*
Y013347D01*
Y013293D01*
X023270D01*
X023217Y013240D01*
X022950Y013666D02*
X023270D01*
X023110Y013506D01*
Y013720D01*
X019397Y014067D02*
X019450Y014120D01*
X019557D01*
X019610Y014067D01*
Y013853D01*
X019557Y013800D01*
X019450D01*
X019397Y013853D01*
X019290Y013800D02*
X019183D01*
X019237D01*
Y014120D01*
X019290Y014067D01*
X019024D02*
X018970Y014120D01*
X018864D01*
X018810Y014067D01*
Y014013D01*
X018864Y013960D01*
X018917D01*
X018864D01*
X018810Y013907D01*
Y013853D01*
X018864Y013800D01*
X018970D01*
X019024Y013853D01*
X010657Y010007D02*
X010710Y010060D01*
X010817D01*
X010870Y010007D01*
Y009793D01*
X010817Y009740D01*
X010710D01*
X010657Y009793D01*
X010550Y009740D02*
X010443D01*
X010497D01*
Y010060D01*
X010550Y010007D01*
X026210Y009214D02*
X026264Y009267D01*
X026370D01*
X026424Y009214D01*
Y009001D01*
X026370Y008947D01*
X026264D01*
X026210Y009001D01*
X026104D02*
X026050Y008947D01*
X025944D01*
X025890Y009001D01*
Y009214D01*
X025944Y009267D01*
X026050D01*
X026104Y009214D01*
Y009161D01*
X026050Y009107D01*
X025890D01*
X027717Y010117D02*
X027770Y010170D01*
X027877D01*
X027930Y010117D01*
Y009903D01*
X027877Y009850D01*
X027770D01*
X027717Y009903D01*
X027610Y009850D02*
X027503D01*
X027557D01*
Y010170D01*
X027610Y010117D01*
X027130Y009850D02*
X027344D01*
X027130Y010063D01*
Y010117D01*
X027184Y010170D01*
X027290D01*
X027344Y010117D01*
X031957Y008237D02*
X032010Y008290D01*
X032117D01*
X032170Y008237D01*
Y008023D01*
X032117Y007970D01*
X032010D01*
X031957Y008023D01*
X031850Y007970D02*
X031743D01*
X031797D01*
Y008290D01*
X031850Y008237D01*
X031584Y007970D02*
X031477D01*
X031530D01*
Y008290D01*
X031584Y008237D01*
X028334Y005803D02*
X028388Y005856D01*
X028494D01*
X028548Y005803D01*
Y005589D01*
X028494Y005536D01*
X028388D01*
X028334Y005589D01*
X028228Y005536D02*
X028121D01*
X028174D01*
Y005856D01*
X028228Y005803D01*
X027961D02*
X027908Y005856D01*
X027801D01*
X027748Y005803D01*
Y005589D01*
X027801Y005536D01*
X027908D01*
X027961Y005589D01*
Y005803D01*
X023897Y009267D02*
X023950Y009320D01*
X024057D01*
X024110Y009267D01*
Y009053D01*
X024057Y009000D01*
X023950D01*
X023897Y009053D01*
X023790Y009267D02*
X023737Y009320D01*
X023630D01*
X023577Y009267D01*
Y009213D01*
X023630Y009160D01*
X023577Y009107D01*
Y009053D01*
X023630Y009000D01*
X023737D01*
X023790Y009053D01*
Y009107D01*
X023737Y009160D01*
X023790Y009213D01*
Y009267D01*
X023737Y009160D02*
X023630D01*
X023897Y004637D02*
X023950Y004690D01*
X024057D01*
X024110Y004637D01*
Y004423D01*
X024057Y004370D01*
X023950D01*
X023897Y004423D01*
X023790Y004690D02*
X023577D01*
Y004637D01*
X023790Y004423D01*
Y004370D01*
X018217Y010257D02*
X018270Y010310D01*
X018377D01*
X018430Y010257D01*
Y010043D01*
X018377Y009990D01*
X018270D01*
X018217Y010043D01*
X017897Y010310D02*
X018003Y010257D01*
X018110Y010150D01*
Y010043D01*
X018057Y009990D01*
X017950D01*
X017897Y010043D01*
Y010097D01*
X017950Y010150D01*
X018110D01*
X010087Y004537D02*
X010140Y004590D01*
X010247D01*
X010300Y004537D01*
Y004323D01*
X010247Y004270D01*
X010140D01*
X010087Y004323D01*
X009980Y004537D02*
X009927Y004590D01*
X009820D01*
X009767Y004537D01*
Y004483D01*
X009820Y004430D01*
X009873D01*
X009820D01*
X009767Y004377D01*
Y004323D01*
X009820Y004270D01*
X009927D01*
X009980Y004323D01*
X010117Y008967D02*
X010170Y009020D01*
X010277D01*
X010330Y008967D01*
Y008753D01*
X010277Y008700D01*
X010170D01*
X010117Y008753D01*
X009797Y008700D02*
X010010D01*
X009797Y008913D01*
Y008967D01*
X009850Y009020D01*
X009957D01*
X010010Y008967D01*
X020420Y028210D02*
Y027943D01*
X020367Y027890D01*
X020260D01*
X020207Y027943D01*
Y028210D01*
X019887D02*
X020100D01*
Y028050D01*
X019993Y028103D01*
X019940D01*
X019887Y028050D01*
Y027943D01*
X019940Y027890D01*
X020047D01*
X020100Y027943D01*
X014209Y026499D02*
Y026819D01*
X014050D01*
X013996Y026765D01*
Y026659D01*
X014050Y026605D01*
X014209D01*
X014103D02*
X013996Y026499D01*
X013676Y026819D02*
X013890D01*
Y026659D01*
X013783D01*
X013890D01*
Y026499D01*
X013356Y026765D02*
X013410Y026819D01*
X013516D01*
X013570Y026765D01*
Y026552D01*
X013516Y026499D01*
X013410D01*
X013356Y026552D01*
X013037Y026499D02*
X013250D01*
X013037Y026712D01*
Y026765D01*
X013090Y026819D01*
X013196D01*
X013250Y026765D01*
X015990Y025780D02*
Y026100D01*
X015830D01*
X015777Y026047D01*
Y025940D01*
X015830Y025887D01*
X015990D01*
X015883D02*
X015777Y025780D01*
X015670Y026047D02*
X015617Y026100D01*
X015510D01*
X015457Y026047D01*
Y025993D01*
X015510Y025940D01*
X015563D01*
X015510D01*
X015457Y025887D01*
Y025833D01*
X015510Y025780D01*
X015617D01*
X015670Y025833D01*
X015350D02*
X015297Y025780D01*
X015190D01*
X015137Y025833D01*
Y026047D01*
X015190Y026100D01*
X015297D01*
X015350Y026047D01*
Y025993D01*
X015297Y025940D01*
X015137D01*
X022020Y028120D02*
Y028440D01*
X021860D01*
X021807Y028387D01*
Y028280D01*
X021860Y028227D01*
X022020D01*
X021913D02*
X021807Y028120D01*
X021700Y028387D02*
X021647Y028440D01*
X021540D01*
X021487Y028387D01*
Y028333D01*
X021540Y028280D01*
X021593D01*
X021540D01*
X021487Y028227D01*
Y028173D01*
X021540Y028120D01*
X021647D01*
X021700Y028173D01*
X021380Y028440D02*
X021167D01*
Y028387D01*
X021380Y028173D01*
Y028120D01*
X026380Y021180D02*
Y021500D01*
X026220D01*
X026167Y021447D01*
Y021340D01*
X026220Y021287D01*
X026380D01*
X026273D02*
X026167Y021180D01*
X026060Y021447D02*
X026007Y021500D01*
X025900D01*
X025847Y021447D01*
Y021393D01*
X025900Y021340D01*
X025953D01*
X025900D01*
X025847Y021287D01*
Y021233D01*
X025900Y021180D01*
X026007D01*
X026060Y021233D01*
X025527Y021500D02*
X025740D01*
Y021340D01*
X025634Y021393D01*
X025580D01*
X025527Y021340D01*
Y021233D01*
X025580Y021180D01*
X025687D01*
X025740Y021233D01*
X022180Y030700D02*
Y031020D01*
X022020D01*
X021967Y030967D01*
Y030860D01*
X022020Y030807D01*
X022180D01*
X022073D02*
X021967Y030700D01*
X021860Y030967D02*
X021807Y031020D01*
X021700D01*
X021647Y030967D01*
Y030913D01*
X021700Y030860D01*
X021753D01*
X021700D01*
X021647Y030807D01*
Y030753D01*
X021700Y030700D01*
X021807D01*
X021860Y030753D01*
X021380Y030700D02*
Y031020D01*
X021540Y030860D01*
X021327D01*
X012287Y028297D02*
X012340Y028350D01*
X012447D01*
X012500Y028297D01*
Y028083D01*
X012447Y028030D01*
X012340D01*
X012287Y028083D01*
X012180Y028297D02*
X012127Y028350D01*
X012020D01*
X011967Y028297D01*
Y028243D01*
X012020Y028190D01*
X012073D01*
X012020D01*
X011967Y028137D01*
Y028083D01*
X012020Y028030D01*
X012127D01*
X012180Y028083D01*
X011860Y028297D02*
X011807Y028350D01*
X011700D01*
X011647Y028297D01*
Y028243D01*
X011700Y028190D01*
X011754D01*
X011700D01*
X011647Y028137D01*
Y028083D01*
X011700Y028030D01*
X011807D01*
X011860Y028083D01*
X018537Y028947D02*
X018590Y029000D01*
X018697D01*
X018750Y028947D01*
Y028733D01*
X018697Y028680D01*
X018590D01*
X018537Y028733D01*
X018430Y028947D02*
X018377Y029000D01*
X018270D01*
X018217Y028947D01*
Y028893D01*
X018270Y028840D01*
X018323D01*
X018270D01*
X018217Y028787D01*
Y028733D01*
X018270Y028680D01*
X018377D01*
X018430Y028733D01*
X017897Y028680D02*
X018110D01*
X017897Y028893D01*
Y028947D01*
X017950Y029000D01*
X018057D01*
X018110Y028947D01*
X021957Y023097D02*
X022010Y023150D01*
X022117D01*
X022170Y023097D01*
Y022883D01*
X022117Y022830D01*
X022010D01*
X021957Y022883D01*
X021850Y023097D02*
X021797Y023150D01*
X021690D01*
X021637Y023097D01*
Y023043D01*
X021690Y022990D01*
X021743D01*
X021690D01*
X021637Y022937D01*
Y022883D01*
X021690Y022830D01*
X021797D01*
X021850Y022883D01*
X021530Y023097D02*
X021477Y023150D01*
X021370D01*
X021317Y023097D01*
Y022883D01*
X021370Y022830D01*
X021477D01*
X021530Y022883D01*
Y023097D01*
X025257Y027473D02*
X025310Y027420D01*
Y027313D01*
X025257Y027260D01*
X025043D01*
X024990Y027313D01*
Y027420D01*
X025043Y027473D01*
X025257Y027580D02*
X025310Y027633D01*
Y027740D01*
X025257Y027793D01*
X025203D01*
X025150Y027740D01*
Y027687D01*
Y027740D01*
X025097Y027793D01*
X025043D01*
X024990Y027740D01*
Y027633D01*
X025043Y027580D01*
X024990Y027900D02*
Y028006D01*
Y027953D01*
X025310D01*
X025257Y027900D01*
X021997Y021467D02*
X022050Y021520D01*
X022157D01*
X022210Y021467D01*
Y021253D01*
X022157Y021200D01*
X022050D01*
X021997Y021253D01*
X021677Y021200D02*
X021890D01*
X021677Y021413D01*
Y021467D01*
X021730Y021520D01*
X021837D01*
X021890Y021467D01*
X021570Y021253D02*
X021517Y021200D01*
X021410D01*
X021357Y021253D01*
Y021467D01*
X021410Y021520D01*
X021517D01*
X021570Y021467D01*
Y021413D01*
X021517Y021360D01*
X021357D01*
X011187Y019253D02*
Y019467D01*
X011240Y019520D01*
X011347D01*
X011400Y019467D01*
Y019253D01*
X011347Y019200D01*
X011240D01*
X011293Y019307D02*
X011187Y019200D01*
X011240D02*
X011187Y019253D01*
X010867Y019200D02*
X011080D01*
X010867Y019413D01*
Y019467D01*
X010920Y019520D01*
X011027D01*
X011080Y019467D01*
X006643Y028993D02*
X006590Y029047D01*
Y029153D01*
X006643Y029207D01*
X006857D01*
X006910Y029153D01*
Y029047D01*
X006857Y028993D01*
X006910Y028727D02*
X006590D01*
X006750Y028887D01*
Y028673D01*
X006643Y028567D02*
X006590Y028513D01*
Y028407D01*
X006643Y028353D01*
X006857D01*
X006910Y028407D01*
Y028513D01*
X006857Y028567D01*
X006643D01*
X008753Y025210D02*
X008700Y025263D01*
Y025370D01*
X008753Y025423D01*
X008967D01*
X009020Y025370D01*
Y025263D01*
X008967Y025210D01*
X009020Y024943D02*
X008700D01*
X008860Y025103D01*
Y024890D01*
X009020Y024783D02*
Y024677D01*
Y024730D01*
X008700D01*
X008753Y024783D01*
X013718Y025364D02*
X013771Y025418D01*
X013878D01*
X013931Y025364D01*
Y025151D01*
X013878Y025098D01*
X013771D01*
X013718Y025151D01*
X013451Y025098D02*
Y025418D01*
X013611Y025258D01*
X013398D01*
X013078Y025098D02*
X013291D01*
X013078Y025311D01*
Y025364D01*
X013131Y025418D01*
X013238D01*
X013291Y025364D01*
X009343Y031167D02*
X009397Y031220D01*
X009503D01*
X009557Y031167D01*
Y030953D01*
X009503Y030900D01*
X009397D01*
X009343Y030953D01*
X009077Y030900D02*
Y031220D01*
X009237Y031060D01*
X009023D01*
X008917Y031167D02*
X008863Y031220D01*
X008757D01*
X008703Y031167D01*
Y031113D01*
X008757Y031060D01*
X008810D01*
X008757D01*
X008703Y031007D01*
Y030953D01*
X008757Y030900D01*
X008863D01*
X008917Y030953D01*
X013960Y023962D02*
Y024282D01*
X013800D01*
X013746Y024229D01*
Y024122D01*
X013800Y024069D01*
X013960D01*
X013853D02*
X013746Y023962D01*
X013480D02*
Y024282D01*
X013640Y024122D01*
X013427D01*
X013160Y023962D02*
Y024282D01*
X013320Y024122D01*
X013107D01*
X009750Y025416D02*
X009430D01*
Y025257D01*
X009483Y025203D01*
X009590D01*
X009643Y025257D01*
Y025416D01*
Y025310D02*
X009750Y025203D01*
X009430Y024883D02*
Y025097D01*
X009590D01*
Y024990D01*
Y025097D01*
X009750D01*
X009483Y024563D02*
X009430Y024617D01*
Y024723D01*
X009483Y024777D01*
X009697D01*
X009750Y024723D01*
Y024617D01*
X009697Y024563D01*
X009750Y024297D02*
X009430D01*
X009590Y024457D01*
Y024244D01*
X026183Y025093D02*
X026130Y025147D01*
Y025253D01*
X026183Y025307D01*
X026397D01*
X026450Y025253D01*
Y025147D01*
X026397Y025093D01*
X026183Y024987D02*
X026130Y024933D01*
Y024827D01*
X026183Y024773D01*
X026237D01*
X026290Y024827D01*
Y024880D01*
Y024827D01*
X026343Y024773D01*
X026397D01*
X026450Y024827D01*
Y024933D01*
X026397Y024987D01*
X026130Y024453D02*
Y024667D01*
X026290D01*
X026237Y024560D01*
Y024507D01*
X026290Y024453D01*
X026397D01*
X026450Y024507D01*
Y024613D01*
X026397Y024667D01*
X016057Y028740D02*
Y029060D01*
X015897D01*
X015843Y029007D01*
Y028900D01*
X015897Y028847D01*
X016057D01*
X015950D02*
X015843Y028740D01*
X015737Y029007D02*
X015683Y029060D01*
X015577D01*
X015523Y029007D01*
Y028953D01*
X015577Y028900D01*
X015630D01*
X015577D01*
X015523Y028847D01*
Y028793D01*
X015577Y028740D01*
X015683D01*
X015737Y028793D01*
X015417Y029007D02*
X015363Y029060D01*
X015257D01*
X015203Y029007D01*
Y028953D01*
X015257Y028900D01*
X015203Y028847D01*
Y028793D01*
X015257Y028740D01*
X015363D01*
X015417Y028793D01*
Y028847D01*
X015363Y028900D01*
X015417Y028953D01*
Y029007D01*
X015363Y028900D02*
X015257D01*
X010334Y023179D02*
X010388Y023232D01*
X010494D01*
X010548Y023179D01*
Y022965D01*
X010494Y022912D01*
X010388D01*
X010334Y022965D01*
X010228Y023179D02*
X010174Y023232D01*
X010068D01*
X010014Y023179D01*
Y023125D01*
X010068Y023072D01*
X010121D01*
X010068D01*
X010014Y023019D01*
Y022965D01*
X010068Y022912D01*
X010174D01*
X010228Y022965D01*
X009748Y022912D02*
Y023232D01*
X009908Y023072D01*
X009695D01*
X009764Y020496D02*
X009444D01*
X009551Y020389D01*
X009444Y020283D01*
X009764D01*
Y020176D02*
Y020069D01*
Y020123D01*
X009444D01*
X009498Y020176D01*
X015367Y019790D02*
Y020110D01*
X015260Y020003D01*
X015153Y020110D01*
Y019790D01*
X014833D02*
X015047D01*
X014833Y020003D01*
Y020057D01*
X014887Y020110D01*
X014993D01*
X015047Y020057D01*
X015577Y020570D02*
Y020890D01*
X015417D01*
X015363Y020837D01*
Y020730D01*
X015417Y020677D01*
X015577D01*
X015470D02*
X015363Y020570D01*
X015097D02*
Y020890D01*
X015257Y020730D01*
X015043D01*
X014937Y020837D02*
X014883Y020890D01*
X014777D01*
X014723Y020837D01*
Y020623D01*
X014777Y020570D01*
X014883D01*
X014937Y020623D01*
Y020837D01*
X010550Y020593D02*
X010230D01*
Y020433D01*
X010283Y020380D01*
X010390D01*
X010443Y020433D01*
Y020593D01*
Y020487D02*
X010550Y020380D01*
Y020113D02*
X010230D01*
X010390Y020273D01*
Y020060D01*
X010550Y019953D02*
Y019847D01*
Y019900D01*
X010230D01*
X010283Y019953D01*
X012960Y021193D02*
X012693D01*
X012640Y021247D01*
Y021353D01*
X012693Y021407D01*
X012960D01*
Y021727D02*
X012907Y021620D01*
X012800Y021513D01*
X012693D01*
X012640Y021567D01*
Y021673D01*
X012693Y021727D01*
X012747D01*
X012800Y021673D01*
Y021513D01*
D21*
X009573Y008627D02*
Y009152D01*
X009524Y009200D02*
X009573Y009152D01*
X009526Y008579D02*
X009573Y008627D01*
X008949Y009200D02*
X009524D01*
X008949Y008579D02*
X009526D01*
X007949Y009202D02*
X008549D01*
X007916Y009170D02*
X007949Y009202D01*
X007916Y008617D02*
Y009170D01*
X007953Y008580D02*
X008549D01*
X007916Y008617D02*
X007953Y008580D01*
X008596Y027292D02*
X009121D01*
X008547Y027243D02*
X008596Y027292D01*
X009121D02*
X009169Y027244D01*
X008547Y026668D02*
Y027243D01*
X009169Y026668D02*
Y027244D01*
X008545Y025668D02*
Y026268D01*
Y025668D02*
X008578Y025635D01*
X009130D01*
X009167Y025672D02*
Y026268D01*
X009130Y025635D02*
X009167Y025672D01*
X009355Y025635D02*
X009880D01*
X009929Y025684D01*
X009308Y025683D02*
X009355Y025635D01*
X009929Y025684D02*
Y026260D01*
X009308Y025683D02*
Y026260D01*
X009931Y026660D02*
Y027260D01*
X009899Y027292D02*
X009931Y027260D01*
X009346Y027292D02*
X009899D01*
X009309Y026660D02*
Y027255D01*
X009346Y027292D01*
X008338Y030186D02*
X008375Y030149D01*
X008970D01*
X008338Y030186D02*
Y030739D01*
X008370Y030771D01*
X008970D01*
X009370Y030148D02*
X009947D01*
X009370Y030769D02*
X009946D01*
X009947Y030148D02*
X009995Y030195D01*
X009946Y030769D02*
X009995Y030720D01*
Y030195D02*
Y030720D01*
X004420Y014014D02*
X005003D01*
X005994Y014015D02*
X006063Y014084D01*
X005402Y014015D02*
X005994D01*
X006063Y014084D02*
Y014645D01*
X005984Y014724D02*
X006063Y014645D01*
X005402Y014724D02*
X005984D01*
X004419D02*
X005002D01*
X004350Y014084D02*
Y014655D01*
Y014084D02*
X004419Y014015D01*
X004350Y014655D02*
X004419Y014724D01*
X005402Y015794D02*
X005985D01*
X004342Y015725D02*
X004411Y015794D01*
X005002D01*
X004342Y015164D02*
Y015725D01*
Y015164D02*
X004421Y015085D01*
X005002D01*
X005402D02*
X005986D01*
X006055Y015154D02*
Y015725D01*
X005986Y015794D02*
X006055Y015725D01*
X005986Y015085D02*
X006055Y015154D01*
X005392Y016634D02*
X005975D01*
X004332Y016565D02*
X004401Y016634D01*
X004992D01*
X004332Y016004D02*
Y016565D01*
Y016004D02*
X004411Y015925D01*
X004992D01*
X005392D02*
X005976D01*
X006045Y015994D02*
Y016565D01*
X005976Y016634D02*
X006045Y016565D01*
X005976Y015925D02*
X006045Y015994D01*
X005393Y017487D02*
X005976D01*
X004333Y017417D02*
X004402Y017486D01*
X004994D01*
X004333Y016856D02*
Y017417D01*
Y016856D02*
X004412Y016777D01*
X004994D01*
X005394D02*
X005977D01*
X006046Y016846D02*
Y017417D01*
X005977Y017486D02*
X006046Y017417D01*
X005977Y016777D02*
X006046Y016846D01*
X005402Y018384D02*
X005985D01*
X004342Y018315D02*
X004411Y018384D01*
X005002D01*
X004342Y017754D02*
Y018315D01*
Y017754D02*
X004421Y017675D01*
X005002D01*
X005402D02*
X005986D01*
X006055Y017744D02*
Y018315D01*
X005986Y018384D02*
X006055Y018315D01*
X005986Y017675D02*
X006055Y017744D01*
X005056Y020002D02*
Y020585D01*
X005056Y019011D02*
X005125Y018942D01*
X005056Y019011D02*
Y019602D01*
X005125Y018942D02*
X005686D01*
X005765Y019021D01*
Y019602D01*
Y020002D02*
Y020586D01*
X005125Y020655D02*
X005696D01*
X005056Y020586D02*
X005125Y020655D01*
X005696D02*
X005765Y020586D01*
X005896Y020002D02*
Y020585D01*
X005896Y019011D02*
X005965Y018942D01*
X005896Y019011D02*
Y019602D01*
X005965Y018942D02*
X006526D01*
X006605Y019021D01*
Y019602D01*
Y020002D02*
Y020586D01*
X005965Y020655D02*
X006536D01*
X005896Y020586D02*
X005965Y020655D01*
X006536D02*
X006605Y020586D01*
X006820Y012915D02*
X007345D01*
X006771Y012866D02*
X006820Y012915D01*
X007345D02*
X007392Y012867D01*
X006771Y012290D02*
Y012866D01*
X007392Y012290D02*
Y012867D01*
X006769Y011290D02*
Y011890D01*
Y011290D02*
X006801Y011258D01*
X007354D01*
X007391Y011295D02*
Y011890D01*
X007354Y011258D02*
X007391Y011295D01*
X007356Y018976D02*
X007393Y019013D01*
Y019609D01*
X006804Y018976D02*
X007356D01*
X006771Y019009D02*
X006804Y018976D01*
X006771Y019009D02*
Y019609D01*
X007395Y020009D02*
Y020586D01*
X006773Y020009D02*
Y020584D01*
X007347Y020633D02*
X007395Y020586D01*
X006773Y020584D02*
X006822Y020633D01*
X007347D01*
X009172Y014734D02*
X009755D01*
X008112Y014665D02*
X008181Y014734D01*
X008772D01*
X008112Y014104D02*
Y014665D01*
Y014104D02*
X008191Y014025D01*
X008772D01*
X009172D02*
X009756D01*
X009825Y014094D02*
Y014665D01*
X009756Y014734D02*
X009825Y014665D01*
X009756Y014025D02*
X009825Y014094D01*
X007536Y019992D02*
Y020575D01*
X007536Y019001D02*
X007605Y018932D01*
X007536Y019001D02*
Y019592D01*
X007605Y018932D02*
X008166D01*
X008245Y019011D01*
Y019592D01*
Y019992D02*
Y020576D01*
X007605Y020645D02*
X008176D01*
X007536Y020576D02*
X007605Y020645D01*
X008176D02*
X008245Y020576D01*
X008935Y015226D02*
X009518D01*
X010509Y015226D02*
X010578Y015295D01*
X009918Y015226D02*
X010509D01*
X010578Y015295D02*
Y015856D01*
X010499Y015935D02*
X010578Y015856D01*
X009918Y015935D02*
X010499D01*
X008934D02*
X009518D01*
X008865Y015295D02*
Y015866D01*
Y015295D02*
X008934Y015226D01*
X008865Y015866D02*
X008934Y015935D01*
X008878Y016106D02*
X008915Y016069D01*
X009510D01*
X008878Y016106D02*
Y016659D01*
X008910Y016691D01*
X009510D01*
X009910Y016068D02*
X010487D01*
X009910Y016689D02*
X010486D01*
X010487Y016068D02*
X010535Y016115D01*
X010486Y016689D02*
X010535Y016640D01*
Y016115D02*
Y016640D01*
X009310Y022516D02*
X009834D01*
X009261Y022467D02*
X009310Y022516D01*
X009834D02*
X009882Y022468D01*
X009261Y021891D02*
Y022467D01*
X009882Y021891D02*
Y022468D01*
X009259Y020891D02*
Y021491D01*
Y020891D02*
X009291Y020859D01*
X009844D01*
X009881Y020896D02*
Y021491D01*
X009844Y020859D02*
X009881Y020896D01*
X010152Y020866D02*
X010676D01*
X010725Y020915D01*
X010104Y020914D02*
X010152Y020866D01*
X010725Y020915D02*
Y021491D01*
X010104Y020914D02*
Y021491D01*
X010727Y021891D02*
Y022491D01*
X010695Y022523D02*
X010727Y022491D01*
X010142Y022523D02*
X010695D01*
X010105Y021891D02*
Y022486D01*
X010142Y022523D01*
X008945Y004125D02*
X009470D01*
X009519Y004174D01*
X008898Y004173D02*
X008945Y004125D01*
X009519Y004174D02*
Y004750D01*
X008898Y004173D02*
Y004750D01*
X009521Y005150D02*
Y005750D01*
X009489Y005782D02*
X009521Y005750D01*
X008936Y005782D02*
X009489D01*
X008899Y005150D02*
Y005745D01*
X008936Y005782D01*
X007777Y004145D02*
X007814Y004182D01*
Y004777D01*
X007224Y004145D02*
X007777D01*
X007192Y004177D02*
X007224Y004145D01*
X007192Y004177D02*
Y004777D01*
X007815Y005177D02*
Y005754D01*
X007194Y005177D02*
Y005753D01*
X007767Y005802D02*
X007815Y005754D01*
X007194Y005753D02*
X007243Y005802D01*
X007767D01*
X024825Y005527D02*
X024862Y005490D01*
X025457D01*
X024825Y005527D02*
Y006079D01*
X024857Y006112D01*
X025457D01*
X025857Y005488D02*
X026434D01*
X025857Y006110D02*
X026433D01*
X026434Y005488D02*
X026482Y005536D01*
X026433Y006110D02*
X026482Y006061D01*
Y005536D02*
Y006061D01*
X024815Y008222D02*
Y008747D01*
Y008222D02*
X024864Y008173D01*
X024815Y008747D02*
X024863Y008795D01*
X024864Y008173D02*
X025440D01*
X024863Y008795D02*
X025440D01*
X025840Y008171D02*
X026440D01*
X026472Y008204D01*
Y008756D01*
X025840Y008793D02*
X026435D01*
X026472Y008756D01*
X029976Y009744D02*
X030013Y009707D01*
X030609D01*
X029976Y009744D02*
Y010296D01*
X030009Y010329D01*
X030609D01*
X031009Y009705D02*
X031586D01*
X031009Y010327D02*
X031584D01*
X031586Y009705D02*
X031633Y009753D01*
X031584Y010327D02*
X031633Y010278D01*
Y009753D02*
Y010278D01*
X012449Y023383D02*
X012486Y023346D01*
X011854Y023383D02*
X012449D01*
X012486Y022793D02*
Y023346D01*
X012454Y022761D02*
X012486Y022793D01*
X011854Y022761D02*
X012454D01*
X010877Y023384D02*
X011454D01*
X010878Y022763D02*
X011454D01*
X010829Y023337D02*
X010877Y023384D01*
X010829Y022812D02*
X010878Y022763D01*
X010829Y022812D02*
Y023337D01*
X013646Y021790D02*
X013683Y021827D01*
Y022422D01*
X013093Y021790D02*
X013646D01*
X013061Y021822D02*
X013093Y021790D01*
X013061Y021822D02*
Y022422D01*
X013684Y022822D02*
Y023399D01*
X013063Y022822D02*
Y023398D01*
X013637Y023447D02*
X013684Y023399D01*
X013063Y023398D02*
X013112Y023447D01*
X013637D01*
X007115Y027895D02*
X007640D01*
X007689Y027944D01*
X007068Y027943D02*
X007115Y027895D01*
X007689Y027944D02*
Y028520D01*
X007068Y027943D02*
Y028520D01*
X007691Y028920D02*
Y029520D01*
X007659Y029552D02*
X007691Y029520D01*
X007106Y029552D02*
X007659D01*
X007069Y028920D02*
Y029515D01*
X007106Y029552D01*
X021441Y030420D02*
X021478Y030457D01*
X021441Y029825D02*
Y030420D01*
X021478Y030457D02*
X022030D01*
X022063Y030425D01*
Y029825D02*
Y030425D01*
X021440Y028848D02*
Y029425D01*
X022061Y028849D02*
Y029425D01*
X021440Y028848D02*
X021487Y028800D01*
X022012D02*
X022061Y028849D01*
X021487Y028800D02*
X022012D01*
X027335Y025423D02*
X027372Y025459D01*
Y026055D01*
X026783Y025423D02*
X027335D01*
X026750Y025455D02*
X026783Y025423D01*
X026750Y025455D02*
Y026055D01*
X027373Y026455D02*
Y027032D01*
X026752Y026455D02*
Y027031D01*
X027326Y027080D02*
X027373Y027032D01*
X026752Y027031D02*
X026801Y027080D01*
X027326D01*
X027616Y024343D02*
X028141D01*
X027567Y024294D02*
X027616Y024343D01*
X028141D02*
X028189Y024295D01*
X027567Y023718D02*
Y024294D01*
X028189Y023718D02*
Y024295D01*
X027565Y022719D02*
Y023318D01*
Y022719D02*
X027598Y022686D01*
X028150D01*
X028187Y022723D02*
Y023318D01*
X028150Y022686D02*
X028187Y022723D01*
X032422Y027637D02*
X032459Y027600D01*
X031827Y027637D02*
X032422D01*
X032459Y027047D02*
Y027600D01*
X032427Y027015D02*
X032459Y027047D01*
X031827Y027015D02*
X032427D01*
X030850Y027638D02*
X031427D01*
X030851Y027017D02*
X031427D01*
X030802Y027590D02*
X030850Y027638D01*
X030802Y027065D02*
X030851Y027017D01*
X030802Y027065D02*
Y027590D01*
X008070Y005785D02*
X008595D01*
X008021Y005736D02*
X008070Y005785D01*
X008595D02*
X008642Y005737D01*
X008021Y005160D02*
Y005736D01*
X008642Y005160D02*
Y005737D01*
X008019Y004160D02*
Y004760D01*
Y004160D02*
X008051Y004128D01*
X008604D01*
X008641Y004165D02*
Y004760D01*
X008604Y004128D02*
X008641Y004165D01*
X009536Y007503D02*
X009573Y007466D01*
X008941Y007503D02*
X009536D01*
X009573Y006914D02*
Y007466D01*
X009541Y006881D02*
X009573Y006914D01*
X008941Y006881D02*
X009541D01*
X007964Y007505D02*
X008541D01*
X007965Y006883D02*
X008541D01*
X007916Y007457D02*
X007964Y007505D01*
X007916Y006932D02*
X007965Y006883D01*
X007916Y006932D02*
Y007457D01*
X017697Y010993D02*
Y011517D01*
Y010993D02*
X017746Y010944D01*
X017697Y011517D02*
X017745Y011565D01*
X017746Y010944D02*
X018322D01*
X017745Y011565D02*
X018322D01*
X018722Y010942D02*
X019322D01*
X019354Y010974D01*
Y011527D01*
X018722Y011564D02*
X019317D01*
X019354Y011527D01*
X022473Y009872D02*
Y010397D01*
X022424Y010446D02*
X022473Y010397D01*
X022426Y009825D02*
X022473Y009872D01*
X021849Y010446D02*
X022424D01*
X021849Y009825D02*
X022426D01*
X020849Y010448D02*
X021449D01*
X020816Y010416D02*
X020849Y010448D01*
X020816Y009863D02*
Y010416D01*
X020853Y009826D02*
X021449D01*
X020816Y009863D02*
X020853Y009826D01*
X021977Y012713D02*
X022014Y012750D01*
X021977Y012118D02*
Y012713D01*
X022014Y012750D02*
X022566D01*
X022599Y012718D01*
Y012118D02*
Y012718D01*
X021976Y011141D02*
Y011718D01*
X022597Y011142D02*
Y011718D01*
X021976Y011141D02*
X022023Y011093D01*
X022548D02*
X022597Y011142D01*
X022023Y011093D02*
X022548D01*
X026473Y007383D02*
Y007908D01*
X026424Y007957D02*
X026473Y007908D01*
X026426Y007335D02*
X026473Y007383D01*
X025849Y007957D02*
X026424D01*
X025849Y007335D02*
X026426D01*
X024849Y007959D02*
X025449D01*
X024816Y007926D02*
X024849Y007959D01*
X024816Y007374D02*
Y007926D01*
X024853Y007337D02*
X025449D01*
X024816Y007374D02*
X024853Y007337D01*
X028690Y005434D02*
X028727Y005397D01*
X029322D01*
X028690Y005434D02*
Y005986D01*
X028722Y006019D01*
X029322D01*
X029722Y005395D02*
X030299D01*
X029722Y006017D02*
X030298D01*
X030299Y005395D02*
X030347Y005443D01*
X030298Y006017D02*
X030347Y005968D01*
Y005443D02*
Y005968D01*
X029734Y010552D02*
Y011077D01*
X029685Y011126D02*
X029734Y011077D01*
X029686Y010505D02*
X029734Y010552D01*
X029109Y011126D02*
X029685D01*
X029109Y010505D02*
X029686D01*
X028109Y011128D02*
X028709D01*
X028077Y011096D02*
X028109Y011128D01*
X028077Y010543D02*
Y011096D01*
X028114Y010506D02*
X028709D01*
X028077Y010543D02*
X028114Y010506D01*
X011245Y026370D02*
Y026895D01*
Y026370D02*
X011294Y026321D01*
X011245Y026895D02*
X011293Y026942D01*
X011294Y026321D02*
X011870D01*
X011293Y026942D02*
X011870D01*
X012270Y026319D02*
X012870D01*
X012902Y026351D01*
Y026904D01*
X012270Y026941D02*
X012865D01*
X012902Y026904D01*
X016317Y021577D02*
Y022101D01*
X016269Y022150D02*
X016317Y022101D01*
X016270Y021529D02*
X016317Y021577D01*
X015693Y022150D02*
X016269D01*
X015693Y021529D02*
X016270D01*
X014693Y022152D02*
X015293D01*
X014660Y022120D02*
X014693Y022152D01*
X014660Y021567D02*
Y022120D01*
X014697Y021530D02*
X015293D01*
X014660Y021567D02*
X014697Y021530D01*
X016035Y028530D02*
X016072Y028493D01*
X015440Y028530D02*
X016035D01*
X016072Y027941D02*
Y028493D01*
X016040Y027908D02*
X016072Y027941D01*
X015440Y027908D02*
X016040D01*
X014463Y028532D02*
X015040D01*
X014464Y027910D02*
X015040D01*
X014415Y028484D02*
X014463Y028532D01*
X014415Y027959D02*
X014464Y027910D01*
X014415Y027959D02*
Y028484D01*
X025151Y021735D02*
Y022260D01*
Y021735D02*
X025200Y021687D01*
X025151Y022260D02*
X025199Y022308D01*
X025200Y021687D02*
X025776D01*
X025199Y022308D02*
X025776D01*
X026176Y021685D02*
X026775D01*
X026808Y021717D01*
Y022270D01*
X026176Y022307D02*
X026771D01*
X026808Y022270D01*
X026797Y022667D02*
X027322D01*
X027371Y022716D01*
X026750Y022715D02*
X026797Y022667D01*
X027371Y022716D02*
Y023292D01*
X026750Y022715D02*
Y023292D01*
X027373Y023692D02*
Y024292D01*
X027340Y024324D02*
X027373Y024292D01*
X026788Y024324D02*
X027340D01*
X026751Y023692D02*
Y024288D01*
X026788Y024324D01*
X030820Y020456D02*
X030857Y020419D01*
X031453D01*
X030820Y020456D02*
Y021008D01*
X030853Y021041D01*
X031453D01*
X031853Y020417D02*
X032430D01*
X031853Y021039D02*
X032429D01*
X032430Y020417D02*
X032477Y020465D01*
X032429Y021039D02*
X032477Y020990D01*
Y020465D02*
Y020990D01*
X032469Y021343D02*
Y021868D01*
X032420Y021917D02*
X032469Y021868D01*
X032421Y021295D02*
X032469Y021343D01*
X031844Y021917D02*
X032420D01*
X031844Y021295D02*
X032421D01*
X030844Y021918D02*
X031444D01*
X030812Y021886D02*
X030844Y021918D01*
X030812Y021333D02*
Y021886D01*
X030849Y021296D02*
X031444D01*
X030812Y021333D02*
X030849Y021296D01*
X032399Y025805D02*
X032436Y025842D01*
X032399Y025210D02*
Y025805D01*
X032436Y025842D02*
X032989D01*
X033021Y025810D01*
Y025210D02*
Y025810D01*
X032398Y024233D02*
Y024810D01*
X033019Y024234D02*
Y024810D01*
X032398Y024233D02*
X032445Y024185D01*
X032970D02*
X033019Y024234D01*
X032445Y024185D02*
X032970D01*
X007725Y009201D02*
X007762Y009164D01*
X007130Y009201D02*
X007725D01*
X007762Y008611D02*
Y009164D01*
X007730Y008579D02*
X007762Y008611D01*
X007130Y008579D02*
X007730D01*
X006153Y009202D02*
X006730D01*
X006154Y008581D02*
X006730D01*
X006105Y009155D02*
X006153Y009202D01*
X006105Y008630D02*
X006154Y008581D01*
X006105Y008630D02*
Y009155D01*
X015308Y006116D02*
X015345Y006079D01*
X015940D01*
X015308Y006116D02*
Y006669D01*
X015340Y006701D01*
X015940D01*
X016340Y006078D02*
X016917D01*
X016340Y006699D02*
X016916D01*
X016917Y006078D02*
X016965Y006125D01*
X016916Y006699D02*
X016965Y006650D01*
Y006125D02*
Y006650D01*
X020273Y009883D02*
Y010408D01*
X020224Y010457D02*
X020273Y010408D01*
X020226Y009835D02*
X020273Y009883D01*
X019649Y010457D02*
X020224D01*
X019649Y009835D02*
X020226D01*
X018649Y010459D02*
X019249D01*
X018616Y010426D02*
X018649Y010459D01*
X018616Y009874D02*
Y010426D01*
X018653Y009837D02*
X019249D01*
X018616Y009874D02*
X018653Y009837D01*
X021131Y012713D02*
X021168Y012750D01*
X021131Y012118D02*
Y012713D01*
X021168Y012750D02*
X021720D01*
X021753Y012718D01*
Y012118D02*
Y012718D01*
X021130Y011141D02*
Y011718D01*
X021751Y011142D02*
Y011718D01*
X021130Y011141D02*
X021177Y011093D01*
X021702D02*
X021751Y011142D01*
X021177Y011093D02*
X021702D01*
X025265D02*
X025790D01*
X025839Y011142D01*
X025217Y011141D02*
X025265Y011093D01*
X025839Y011142D02*
Y011718D01*
X025217Y011141D02*
Y011718D01*
X025841Y012118D02*
Y012718D01*
X025808Y012750D02*
X025841Y012718D01*
X025256Y012750D02*
X025808D01*
X025219Y012118D02*
Y012713D01*
X025256Y012750D01*
X028690Y004638D02*
X028727Y004601D01*
X029322D01*
X028690Y004638D02*
Y005190D01*
X028722Y005223D01*
X029322D01*
X029722Y004600D02*
X030299D01*
X029722Y005221D02*
X030298D01*
X030299Y004600D02*
X030347Y004647D01*
X030298Y005221D02*
X030347Y005172D01*
Y004647D02*
Y005172D01*
X030672Y009433D02*
X031197D01*
X030623Y009384D02*
X030672Y009433D01*
X031197D02*
X031245Y009386D01*
X030623Y008809D02*
Y009384D01*
X031245Y008809D02*
Y009386D01*
X030621Y007809D02*
Y008409D01*
Y007809D02*
X030654Y007776D01*
X031206D01*
X031243Y007813D02*
Y008409D01*
X031206Y007776D02*
X031243Y007813D01*
X012827Y019668D02*
X012864Y019631D01*
X013459D01*
X012827Y019668D02*
Y020221D01*
X012859Y020253D01*
X013459D01*
X013859Y019630D02*
X014436D01*
X013859Y020251D02*
X014435D01*
X014436Y019630D02*
X014484Y019678D01*
X014435Y020251D02*
X014484Y020202D01*
Y019678D02*
Y020202D01*
X018280Y020410D02*
X018317Y020447D01*
Y021042D01*
X017728Y020410D02*
X018280D01*
X017695Y020442D02*
X017728Y020410D01*
X017695Y020442D02*
Y021042D01*
X018319Y021442D02*
Y022019D01*
X017697Y021442D02*
Y022018D01*
X018271Y022067D02*
X018319Y022019D01*
X017697Y022018D02*
X017746Y022067D01*
X018271D01*
X019071Y028497D02*
X019108Y028460D01*
X018476Y028497D02*
X019071D01*
X019108Y027907D02*
Y028460D01*
X019075Y027875D02*
X019108Y027907D01*
X018476Y027875D02*
X019075D01*
X017499Y028498D02*
X018076D01*
X017500Y027877D02*
X018076D01*
X017451Y028450D02*
X017499Y028498D01*
X017451Y027925D02*
X017500Y027877D01*
X017451Y027925D02*
Y028450D01*
X022028Y026250D02*
X022065Y026287D01*
Y026882D01*
X021476Y026250D02*
X022028D01*
X021443Y026282D02*
X021476Y026250D01*
X021443Y026282D02*
Y026882D01*
X022067Y027282D02*
Y027859D01*
X021445Y027282D02*
Y027858D01*
X022019Y027907D02*
X022067Y027859D01*
X021445Y027858D02*
X021494Y027907D01*
X022019D01*
X026576Y024641D02*
X026613Y024604D01*
X027209D01*
X026576Y024641D02*
Y025194D01*
X026609Y025226D01*
X027209D01*
X027609Y024603D02*
X028186D01*
X027609Y025224D02*
X028184D01*
X028186Y024603D02*
X028233Y024651D01*
X028184Y025224D02*
X028233Y025175D01*
Y024651D02*
Y025175D01*
X027630Y025430D02*
X028155D01*
X028204Y025479D01*
X027583Y025478D02*
X027630Y025430D01*
X028204Y025479D02*
Y026055D01*
X027583Y025478D02*
Y026055D01*
X028206Y026455D02*
Y027055D01*
X028173Y027087D02*
X028206Y027055D01*
X027621Y027087D02*
X028173D01*
X027584Y026455D02*
Y027050D01*
X027621Y027087D01*
X030391Y027639D02*
X030428Y027602D01*
X029796Y027639D02*
X030391D01*
X030428Y027049D02*
Y027602D01*
X030395Y027017D02*
X030428Y027049D01*
X029796Y027017D02*
X030395D01*
X028819Y027640D02*
X029396D01*
X028820Y027019D02*
X029396D01*
X028771Y027592D02*
X028819Y027640D01*
X028771Y027068D02*
X028820Y027019D01*
X028771Y027068D02*
Y027592D01*
X030897Y030352D02*
X030934Y030389D01*
X030897Y029757D02*
Y030352D01*
X030934Y030389D02*
X031487D01*
X031519Y030356D01*
Y029757D02*
Y030356D01*
X030896Y028780D02*
Y029357D01*
X031518Y028781D02*
Y029357D01*
X030896Y028780D02*
X030944Y028732D01*
X031469D02*
X031518Y028781D01*
X030944Y028732D02*
X031469D01*
X032440Y023995D02*
X032965D01*
X032391Y023946D02*
X032440Y023995D01*
X032965D02*
X033012Y023947D01*
X032391Y023370D02*
Y023946D01*
X033012Y023370D02*
Y023947D01*
X032389Y022370D02*
Y022970D01*
Y022370D02*
X032421Y022338D01*
X032974D01*
X033011Y022375D02*
Y022970D01*
X032974Y022338D02*
X033011Y022375D01*
X004261Y008630D02*
Y009155D01*
Y008630D02*
X004310Y008581D01*
X004261Y009155D02*
X004308Y009202D01*
X004310Y008581D02*
X004885D01*
X004308Y009202D02*
X004885D01*
X005285Y008579D02*
X005885D01*
X005918Y008611D01*
Y009164D01*
X005285Y009201D02*
X005881D01*
X005918Y009164D01*
X011509Y012065D02*
X011546Y012102D01*
X011509Y011470D02*
Y012065D01*
X011546Y012102D02*
X012099D01*
X012131Y012070D01*
Y011470D02*
Y012070D01*
X011508Y010493D02*
Y011070D01*
X012129Y010494D02*
Y011070D01*
X011508Y010493D02*
X011555Y010445D01*
X012080D02*
X012129Y010494D01*
X011555Y010445D02*
X012080D01*
X016965Y007689D02*
Y008213D01*
X016916Y008262D02*
X016965Y008213D01*
X016917Y007641D02*
X016965Y007689D01*
X016340Y008262D02*
X016916D01*
X016340Y007641D02*
X016917D01*
X015340Y008264D02*
X015940D01*
X015308Y008232D02*
X015340Y008264D01*
X015308Y007679D02*
Y008232D01*
X015345Y007642D02*
X015940D01*
X015308Y007679D02*
X015345Y007642D01*
X021177Y012930D02*
X021702D01*
X021751Y012979D01*
X021130Y012978D02*
X021177Y012930D01*
X021751Y012979D02*
Y013555D01*
X021130Y012978D02*
Y013555D01*
X021753Y013955D02*
Y014555D01*
X021720Y014587D02*
X021753Y014555D01*
X021168Y014587D02*
X021720D01*
X021131Y013955D02*
Y014550D01*
X021168Y014587D01*
X023366Y011093D02*
X023403Y011130D01*
Y011725D01*
X022814Y011093D02*
X023366D01*
X022781Y011126D02*
X022814Y011093D01*
X022781Y011126D02*
Y011725D01*
X023405Y012125D02*
Y012702D01*
X022783Y012125D02*
Y012701D01*
X023357Y012750D02*
X023405Y012702D01*
X022783Y012701D02*
X022832Y012750D01*
X023357D01*
X028079Y009744D02*
X028116Y009707D01*
X028711D01*
X028079Y009744D02*
Y010296D01*
X028111Y010329D01*
X028711D01*
X029111Y009705D02*
X029688D01*
X029111Y010327D02*
X029687D01*
X029688Y009705D02*
X029736Y009753D01*
X029687Y010327D02*
X029736Y010278D01*
Y009753D02*
Y010278D01*
X030789Y006189D02*
X031314D01*
X030740Y006140D02*
X030789Y006189D01*
X031314D02*
X031362Y006141D01*
X030740Y005564D02*
Y006140D01*
X031362Y005564D02*
Y006141D01*
X030738Y004564D02*
Y005164D01*
Y004564D02*
X030771Y004532D01*
X031323D01*
X031360Y004569D02*
Y005164D01*
X031323Y004532D02*
X031360Y004569D01*
X014484Y020485D02*
Y021010D01*
X014435Y021059D02*
X014484Y021010D01*
X014436Y020438D02*
X014484Y020485D01*
X013859Y021059D02*
X014435D01*
X013859Y020438D02*
X014436D01*
X012859Y021061D02*
X013459D01*
X012827Y021029D02*
X012859Y021061D01*
X012827Y020476D02*
Y021029D01*
X012864Y020439D02*
X013459D01*
X012827Y020476D02*
X012864Y020439D01*
X014415Y026385D02*
Y026910D01*
Y026385D02*
X014464Y026336D01*
X014415Y026910D02*
X014463Y026957D01*
X014464Y026336D02*
X015040D01*
X014463Y026957D02*
X015040D01*
X015440Y026334D02*
X016040D01*
X016072Y026366D01*
Y026919D01*
X015440Y026956D02*
X016035D01*
X016072Y026919D01*
X018547Y020410D02*
X019072D01*
X019121Y020459D01*
X018500Y020458D02*
X018547Y020410D01*
X019121Y020459D02*
Y021035D01*
X018500Y020458D02*
Y021035D01*
X019123Y021435D02*
Y022035D01*
X019090Y022067D02*
X019123Y022035D01*
X018538Y022067D02*
X019090D01*
X018501Y021435D02*
Y022030D01*
X018538Y022067D01*
X021485Y023710D02*
X022010D01*
X022059Y023759D01*
X021437Y023758D02*
X021485Y023710D01*
X022059Y023759D02*
Y024335D01*
X021437Y023758D02*
Y024335D01*
X022061Y024735D02*
Y025335D01*
X022028Y025367D02*
X022061Y025335D01*
X021476Y025367D02*
X022028D01*
X021439Y024735D02*
Y025330D01*
X021476Y025367D01*
X028762Y021374D02*
Y021899D01*
Y021374D02*
X028811Y021325D01*
X028762Y021899D02*
X028810Y021946D01*
X028811Y021325D02*
X029387D01*
X028810Y021946D02*
X029387D01*
X029787Y021323D02*
X030387D01*
X030419Y021356D01*
Y021908D01*
X029787Y021945D02*
X030382D01*
X030419Y021908D01*
X032431Y028497D02*
X032468Y028460D01*
X031836Y028497D02*
X032431D01*
X032468Y027907D02*
Y028460D01*
X032435Y027875D02*
X032468Y027907D01*
X031836Y027875D02*
X032435D01*
X030859Y028498D02*
X031436D01*
X030860Y027877D02*
X031436D01*
X030811Y028450D02*
X030859Y028498D01*
X030811Y027925D02*
X030860Y027877D01*
X030811Y027925D02*
Y028450D01*
X031793Y028746D02*
X032318D01*
X032367Y028795D01*
X031746Y028794D02*
X031793Y028746D01*
X032367Y028795D02*
Y029371D01*
X031746Y028794D02*
Y029371D01*
X032369Y029771D02*
Y030371D01*
X032337Y030403D02*
X032369Y030371D01*
X031784Y030403D02*
X032337D01*
X031747Y029771D02*
Y030366D01*
X031784Y030403D01*
X011218Y027212D02*
Y027737D01*
Y027212D02*
X011267Y027163D01*
X011218Y027737D02*
X011266Y027785D01*
X011267Y027163D02*
X011842D01*
X011266Y027785D02*
X011842D01*
X012242Y027161D02*
X012842D01*
X012875Y027194D01*
Y027746D01*
X012242Y027783D02*
X012838D01*
X012875Y027746D01*
D22*
X024772Y028481D02*
Y029881D01*
X022422Y028481D02*
Y029881D01*
X024022Y028481D02*
X024772D01*
X024022Y029881D02*
X024772D01*
X022422D02*
X023172D01*
X022422Y028481D02*
X023172D01*
X021939Y005782D02*
Y006532D01*
X023339Y005782D02*
Y006532D01*
Y004182D02*
Y004932D01*
X021939Y004182D02*
Y004932D01*
Y006532D02*
X023339D01*
X021939Y004182D02*
X023339D01*
X021939Y009344D02*
X023339D01*
X021939Y006994D02*
X023339D01*
Y008594D02*
Y009344D01*
X021939Y008594D02*
Y009344D01*
Y006994D02*
Y007744D01*
X023339Y006994D02*
Y007744D01*
X006290Y006360D02*
X006490D01*
X006840Y007260D02*
X006890D01*
X007240Y006360D02*
X007440D01*
X006290D02*
Y006810D01*
X007440Y006360D02*
Y006810D01*
X023286Y024834D02*
Y025833D01*
X024036D01*
X023286Y024834D02*
X024036D01*
X024886D02*
X025636D01*
X024886Y025833D02*
X025636D01*
Y024840D02*
Y025833D01*
X024772Y026832D02*
Y028232D01*
X022422Y026832D02*
Y028232D01*
X024022Y026832D02*
X024772D01*
X024022Y028232D02*
X024772D01*
X022422D02*
X023172D01*
X022422Y026832D02*
X023172D01*
X007799Y009478D02*
Y010471D01*
Y009478D02*
X008549D01*
X007799Y010478D02*
X008549D01*
X009399D02*
X010149D01*
X009399Y009478D02*
X010149D01*
Y010478D01*
X011131Y020692D02*
Y020892D01*
X012031Y020292D02*
Y020342D01*
X011131Y019742D02*
Y019942D01*
Y020892D02*
X011581D01*
X011131Y019742D02*
X011581D01*
X028027Y020109D02*
Y021109D01*
X028777D01*
X028027Y020109D02*
X028777D01*
X029627D02*
X030377D01*
X029627Y021109D02*
X030377D01*
Y020116D02*
Y021109D01*
X024768Y022683D02*
Y024083D01*
X022418Y022683D02*
Y024083D01*
X024018Y022683D02*
X024768D01*
X024018Y024083D02*
X024768D01*
X022418D02*
X023168D01*
X022418Y022683D02*
X023168D01*
X019856Y011900D02*
X020850D01*
Y012650D01*
X019850Y011900D02*
Y012650D01*
Y013500D02*
Y014250D01*
X020850Y013500D02*
Y014250D01*
X019850D02*
X020850D01*
X012810Y024800D02*
Y025800D01*
X012060Y024800D02*
X012810D01*
X012060Y025800D02*
X012810D01*
X010460D02*
X011210D01*
X010460Y024800D02*
X011210D01*
X010460D02*
Y025794D01*
X026916Y029206D02*
Y030206D01*
X027666D01*
X026916Y029206D02*
X027666D01*
X028516D02*
X029266D01*
X028516Y030206D02*
X029266D01*
Y029212D02*
Y030206D01*
X012080Y024610D02*
X012830D01*
X012080Y023610D02*
X012830D01*
X010480D02*
X011230D01*
X010480Y024610D02*
X011230D01*
X012830Y023610D02*
Y024610D01*
X010480Y023610D02*
Y024610D01*
X019516Y022650D02*
X020516D01*
Y021900D02*
Y022650D01*
X019516Y021900D02*
Y022650D01*
Y020300D02*
Y021050D01*
X020516Y020300D02*
Y021050D01*
X019523Y020300D02*
X020516D01*
X025836Y027546D02*
Y028546D01*
X026586D01*
X025836Y027546D02*
X026586D01*
X027436D02*
X028186D01*
X027436Y028546D02*
X028186D01*
Y027552D02*
Y028546D01*
X022418Y020618D02*
X023168D01*
X022418Y022018D02*
X023168D01*
X024018D02*
X024768D01*
X024018Y020618D02*
X024768D01*
X022418D02*
Y022018D01*
X024768Y020618D02*
Y022018D01*
D64*
X004563Y004614D02*
G03*
X004563Y004614I-000585J000000D01*
G01*
X033695D02*
G03*
X033695Y004614I-000585J000000D01*
G01*
Y034121D02*
G03*
X033695Y034121I-000585J000000D01*
G01*
X004563Y034141D02*
G03*
X004563Y034141I-000585J000000D01*
G01*
D65*
X025744Y024631D02*
Y024831D01*
X025644Y024731D02*
X025844D01*
X007590Y010580D02*
X007790D01*
X007690Y010480D02*
Y010680D01*
X030485Y019907D02*
Y020107D01*
X030385Y020007D02*
X030585D01*
X019748Y011691D02*
Y011891D01*
X019648Y011791D02*
X019848D01*
X010351Y025802D02*
Y026002D01*
X010251Y025902D02*
X010451D01*
X029374Y029003D02*
Y029203D01*
X029274Y029103D02*
X029474D01*
X019314Y020192D02*
X019514D01*
X019414Y020092D02*
Y020292D01*
X028294Y027343D02*
Y027543D01*
X028194Y027443D02*
X028394D01*
D66*
X029179Y007959D02*
D03*
D67*
X030134Y024363D02*
D03*
D68*
X020100Y007245D02*
D03*
X018924Y025308D02*
D03*
M02*
