G04*
G04 #@! TF.GenerationSoftware,Altium Limited,Altium Designer,20.1.8 (145)*
G04*
G04 Layer_Physical_Order=1*
G04 Layer_Color=824512*
%FSAX24Y24*%
%MOIN*%
G70*
G04*
G04 #@! TF.SameCoordinates,548E75E3-62BA-4D27-8EBC-4AC5D718A5B1*
G04*
G04*
G04 #@! TF.FilePolarity,Positive*
G04*
G01*
G75*
%ADD16R,0.0291X0.0787*%
%ADD17R,0.0551X0.0315*%
%ADD21C,0.0060*%
%ADD22C,0.0120*%
%ADD23C,0.0984*%
%ADD24C,0.0240*%
%ADD25C,0.0300*%
G36*
X033312Y034923D02*
X033465Y034877D01*
X033605Y034802D01*
X033728Y034701D01*
X033829Y034578D01*
X033904Y034437D01*
X033951Y034285D01*
X033962Y034169D01*
X033966Y034121D01*
X033966Y034120D01*
X033966Y034120D01*
X033966Y034120D01*
X033966Y034071D01*
X033968Y026616D01*
X033973Y012254D01*
X033976Y012241D01*
X033978Y004688D01*
X033978Y004688D01*
X033978Y004688D01*
X033979Y004685D01*
X033979Y004629D01*
X033980Y004626D01*
X033980Y004625D01*
X033964Y004465D01*
X033917Y004310D01*
X033841Y004167D01*
X033738Y004042D01*
X033613Y003940D01*
X033471Y003864D01*
X033316Y003817D01*
X033208Y003806D01*
X033160Y003802D01*
X033155Y003802D01*
X033133Y003797D01*
X004136D01*
X004088Y003800D01*
Y003800D01*
X004019Y003793D01*
X003851Y003810D01*
X003689Y003859D01*
X003540Y003939D01*
X003409Y004046D01*
X003302Y004177D01*
X003222Y004326D01*
X003173Y004488D01*
X003163Y004587D01*
X003163Y004587D01*
X003163D01*
X003161Y004590D01*
X003161Y034089D01*
X003162Y034096D01*
X003165Y034100D01*
X003172Y034135D01*
X003176Y034183D01*
X003187Y034286D01*
X003232Y034436D01*
X003306Y034574D01*
X003405Y034695D01*
X003526Y034794D01*
X003664Y034868D01*
X003814Y034913D01*
X003968Y034929D01*
X003970Y034928D01*
X003975Y034928D01*
X003975Y034928D01*
X003975Y034928D01*
X033160Y034938D01*
X033160Y034938D01*
X033312Y034923D01*
D02*
G37*
%LPC*%
G36*
X006310Y034369D02*
X005899D01*
Y034003D01*
X005793D01*
X005764Y034047D01*
X005704Y034087D01*
X005634Y034101D01*
X005564Y034087D01*
X005504Y034047D01*
X005464Y033988D01*
X005450Y033917D01*
X005464Y033847D01*
X005504Y033788D01*
X005564Y033748D01*
X005634Y033734D01*
X005704Y033748D01*
X005764Y033788D01*
X005785Y033820D01*
X005899D01*
Y033462D01*
X006310D01*
Y034369D01*
D02*
G37*
G36*
X010810D02*
X010399D01*
Y033462D01*
X010810D01*
Y033808D01*
X010911D01*
X010915Y033801D01*
X010975Y033761D01*
X011045Y033747D01*
X011115Y033761D01*
X011175Y033801D01*
X011215Y033860D01*
X011229Y033931D01*
X011215Y034001D01*
X011175Y034060D01*
X011115Y034100D01*
X011045Y034114D01*
X010975Y034100D01*
X010915Y034060D01*
X010911Y034053D01*
X010810D01*
Y034369D01*
D02*
G37*
G36*
X003979Y034697D02*
X003834Y034678D01*
X003700Y034623D01*
X003585Y034534D01*
X003496Y034419D01*
X003441Y034285D01*
X003422Y034141D01*
X003441Y033996D01*
X003496Y033862D01*
X003585Y033747D01*
X003700Y033658D01*
X003834Y033603D01*
X003979Y033584D01*
X004123Y033603D01*
X004257Y033658D01*
X004372Y033747D01*
X004461Y033862D01*
X004516Y033996D01*
X004535Y034141D01*
X004516Y034285D01*
X004461Y034419D01*
X004372Y034534D01*
X004257Y034623D01*
X004123Y034678D01*
X003979Y034697D01*
D02*
G37*
G36*
X033110Y034678D02*
X032966Y034659D01*
X032832Y034603D01*
X032716Y034515D01*
X032628Y034399D01*
X032572Y034265D01*
X032553Y034121D01*
X032572Y033977D01*
X032628Y033842D01*
X032716Y033727D01*
X032832Y033639D01*
X032966Y033583D01*
X033110Y033564D01*
X033254Y033583D01*
X033389Y033639D01*
X033504Y033727D01*
X033593Y033842D01*
X033648Y033977D01*
X033667Y034121D01*
X033648Y034265D01*
X033593Y034399D01*
X033504Y034515D01*
X033389Y034603D01*
X033254Y034659D01*
X033110Y034678D01*
D02*
G37*
G36*
X009654Y034409D02*
Y033915D01*
Y033422D01*
X009850D01*
Y033458D01*
X009899Y033462D01*
X009900Y033462D01*
X010310D01*
Y034369D01*
X009900D01*
X009899Y034369D01*
X009850Y034372D01*
Y034409D01*
X009654D01*
D02*
G37*
G36*
X009359Y034409D02*
X009309Y034409D01*
X009154D01*
Y033915D01*
Y033422D01*
X009309D01*
X009350Y033422D01*
X009400Y033422D01*
X009554D01*
Y033915D01*
Y034409D01*
X009359D01*
D02*
G37*
G36*
X009054Y034409D02*
X008859D01*
Y034372D01*
X008810Y034369D01*
X008809Y034369D01*
X008399D01*
Y033462D01*
X008526D01*
Y033295D01*
X008529Y033281D01*
X008496Y033231D01*
X008338D01*
X008193Y033377D01*
Y033462D01*
X008310D01*
Y034369D01*
X007899D01*
Y033462D01*
X008009D01*
Y033339D01*
X008016Y033304D01*
X008036Y033274D01*
X008236Y033075D01*
X008265Y033055D01*
X008300Y033048D01*
X016128D01*
Y011667D01*
X016135Y011632D01*
X016155Y011602D01*
X018003Y009754D01*
Y007918D01*
X018010Y007883D01*
X018030Y007854D01*
X018088Y007796D01*
X018118Y007776D01*
X018153Y007769D01*
X019420D01*
X019456Y007776D01*
X019485Y007796D01*
X019675Y007985D01*
X019720Y007976D01*
X019790Y007990D01*
X019850Y008030D01*
X019890Y008090D01*
X019904Y008160D01*
X019890Y008230D01*
X019850Y008290D01*
X019790Y008330D01*
X019720Y008344D01*
X019650Y008330D01*
X019590Y008290D01*
X019550Y008230D01*
X019536Y008160D01*
X019545Y008115D01*
X019382Y007952D01*
X018432D01*
X018423Y007978D01*
X018423Y008002D01*
X018476Y008038D01*
X018516Y008097D01*
X018530Y008168D01*
X018516Y008238D01*
X018476Y008297D01*
X018417Y008337D01*
X018347Y008351D01*
X018345Y008351D01*
X018307Y008382D01*
Y009842D01*
X018300Y009877D01*
X018280Y009907D01*
X016432Y011755D01*
Y033207D01*
X016425Y033242D01*
X016405Y033271D01*
X016352Y033324D01*
X016322Y033344D01*
X016287Y033351D01*
X008709D01*
Y033462D01*
X008809D01*
X008810Y033462D01*
X008859Y033458D01*
Y033422D01*
X009054D01*
Y033915D01*
Y034409D01*
D02*
G37*
G36*
X006810Y034369D02*
X006399D01*
Y033462D01*
X006517D01*
Y033385D01*
X006479Y033360D01*
X006439Y033300D01*
X006425Y033230D01*
X006439Y033160D01*
X006479Y033100D01*
X006538Y033060D01*
X006608Y033046D01*
X006679Y033060D01*
X006738Y033100D01*
X006778Y033160D01*
X006792Y033230D01*
X006778Y033300D01*
X006738Y033360D01*
X006700Y033385D01*
Y033462D01*
X006810D01*
Y034369D01*
D02*
G37*
G36*
X010810Y032869D02*
X010399D01*
Y031962D01*
X010810D01*
Y032869D01*
D02*
G37*
G36*
X006310D02*
X005899D01*
Y032511D01*
X004944D01*
X004908Y032504D01*
X004879Y032485D01*
X004775Y032381D01*
X004755Y032351D01*
X004748Y032316D01*
Y031275D01*
X004710Y031250D01*
X004670Y031190D01*
X004656Y031120D01*
X004670Y031050D01*
X004710Y030990D01*
X004770Y030950D01*
X004840Y030936D01*
X004910Y030950D01*
X004970Y030990D01*
X005010Y031050D01*
X005024Y031120D01*
X005010Y031190D01*
X004970Y031250D01*
X004932Y031275D01*
Y032278D01*
X004982Y032328D01*
X005899D01*
Y031962D01*
X006310D01*
Y032869D01*
D02*
G37*
G36*
X007850Y032909D02*
X007654D01*
Y032415D01*
Y031922D01*
X007850D01*
Y031958D01*
X007899Y031962D01*
X007900Y031962D01*
X008310D01*
Y032869D01*
X007900D01*
X007899Y032869D01*
X007850Y032872D01*
Y032909D01*
D02*
G37*
G36*
X007554D02*
X007359D01*
Y032872D01*
X007310Y032869D01*
X007309Y032869D01*
X006899D01*
Y031962D01*
X006980D01*
Y031353D01*
X006942Y031327D01*
X006902Y031268D01*
X006889Y031197D01*
X006902Y031127D01*
X006942Y031068D01*
X007002Y031028D01*
X007072Y031014D01*
X007142Y031028D01*
X007202Y031068D01*
X007242Y031127D01*
X007256Y031197D01*
X007242Y031268D01*
X007202Y031327D01*
X007164Y031353D01*
Y031962D01*
X007309D01*
X007310Y031962D01*
X007359Y031958D01*
Y031922D01*
X007554D01*
Y032415D01*
Y032909D01*
D02*
G37*
G36*
X010310Y032869D02*
X009899D01*
Y031962D01*
X010017D01*
Y031750D01*
X010024Y031714D01*
X010044Y031685D01*
X010077Y031651D01*
X010058Y031605D01*
X009827D01*
X009708Y031724D01*
Y031962D01*
X009810D01*
Y032869D01*
X009399D01*
Y031962D01*
X009525D01*
Y031686D01*
X009531Y031651D01*
X009551Y031621D01*
X009641Y031531D01*
X009622Y031485D01*
X009466D01*
X009206Y031745D01*
Y031962D01*
X009310D01*
Y032869D01*
X008899D01*
Y031962D01*
X009022D01*
Y031707D01*
X009029Y031672D01*
X009049Y031642D01*
X009280Y031411D01*
X009261Y031365D01*
X009125D01*
X008705Y031785D01*
Y031962D01*
X008810D01*
Y032869D01*
X008399D01*
Y031962D01*
X008521D01*
Y031747D01*
X008528Y031712D01*
X008548Y031682D01*
X009022Y031209D01*
X009051Y031189D01*
X009087Y031182D01*
X014953D01*
Y030634D01*
X014960Y030599D01*
X014980Y030569D01*
X015469Y030080D01*
X015460Y030035D01*
X015474Y029965D01*
X015514Y029905D01*
X015574Y029865D01*
X015644Y029852D01*
X015714Y029865D01*
X015774Y029905D01*
X015814Y029965D01*
X015827Y030035D01*
X015814Y030105D01*
X015774Y030165D01*
X015714Y030205D01*
X015644Y030219D01*
X015617Y030213D01*
X015604Y030228D01*
X015632Y030274D01*
X015656Y030269D01*
X015726Y030283D01*
X015786Y030323D01*
X015825Y030382D01*
X015839Y030453D01*
X015825Y030523D01*
X015786Y030582D01*
X015740Y030613D01*
X015736Y030628D01*
X015737Y030660D01*
X015740Y030669D01*
X015788Y030701D01*
X015828Y030760D01*
X015842Y030831D01*
X015828Y030901D01*
X015788Y030960D01*
X015752Y030985D01*
X015751Y031043D01*
X015787Y031067D01*
X015827Y031127D01*
X015841Y031197D01*
X015827Y031267D01*
X015787Y031327D01*
X015727Y031366D01*
X015657Y031380D01*
X015612Y031371D01*
X015285Y031698D01*
X015256Y031718D01*
X015220Y031725D01*
X010263D01*
X010200Y031788D01*
Y031962D01*
X010310D01*
Y032869D01*
D02*
G37*
G36*
X006810D02*
X006399D01*
Y031962D01*
X006505D01*
Y031342D01*
X006467Y031317D01*
X006427Y031257D01*
X006413Y031187D01*
X006427Y031117D01*
X006467Y031057D01*
X006526Y031017D01*
X006596Y031003D01*
X006667Y031017D01*
X006726Y031057D01*
X006766Y031117D01*
X006780Y031187D01*
X006766Y031257D01*
X006726Y031317D01*
X006688Y031342D01*
Y031962D01*
X006810D01*
Y032869D01*
D02*
G37*
G36*
X007973Y028475D02*
X007923Y028445D01*
X007880Y028454D01*
X007810Y028440D01*
X007750Y028400D01*
X007710Y028340D01*
X007696Y028270D01*
X007710Y028200D01*
X007750Y028140D01*
X007810Y028100D01*
X007880Y028086D01*
X007923Y028095D01*
X007973Y028060D01*
Y028040D01*
X008644D01*
Y028475D01*
X007973D01*
Y028475D01*
D02*
G37*
G36*
X010927Y028475D02*
X010256D01*
Y028040D01*
X010927D01*
Y028148D01*
X013292D01*
X013317Y028110D01*
X013376Y028071D01*
X013447Y028057D01*
X013517Y028071D01*
X013576Y028110D01*
X013616Y028170D01*
X013630Y028240D01*
X013616Y028311D01*
X013576Y028370D01*
X013517Y028410D01*
X013447Y028424D01*
X013376Y028410D01*
X013317Y028370D01*
X013291Y028332D01*
X010927D01*
Y028475D01*
D02*
G37*
G36*
Y027687D02*
X010256D01*
Y027253D01*
X010927D01*
Y027287D01*
X010977Y027309D01*
X011040Y027296D01*
X011110Y027310D01*
X011170Y027350D01*
X011210Y027410D01*
X011224Y027480D01*
X011210Y027550D01*
X011170Y027610D01*
X011110Y027650D01*
X011040Y027664D01*
X010977Y027651D01*
X010927Y027673D01*
Y027687D01*
D02*
G37*
G36*
X016705Y034821D02*
X007222D01*
X007187Y034814D01*
X007157Y034794D01*
X007035Y034672D01*
X007015Y034642D01*
X007008Y034607D01*
Y034369D01*
X006899D01*
Y033462D01*
X007310D01*
Y034369D01*
X007191D01*
Y034569D01*
X007260Y034638D01*
X007492D01*
X007524Y034588D01*
X007522Y034574D01*
Y034369D01*
X007399D01*
Y033462D01*
X007810D01*
Y034369D01*
X007705D01*
Y034518D01*
X016598D01*
Y026310D01*
X016605Y026275D01*
X016625Y026245D01*
X016745Y026125D01*
X016775Y026105D01*
X016810Y026098D01*
X017048D01*
X017058Y026084D01*
X017117Y026044D01*
X017187Y026030D01*
X017258Y026044D01*
X017317Y026084D01*
X017357Y026144D01*
X017371Y026214D01*
X017357Y026284D01*
X017317Y026344D01*
X017258Y026383D01*
X017187Y026397D01*
X017117Y026383D01*
X017058Y026344D01*
X017018Y026284D01*
X017017Y026282D01*
X016848D01*
X016782Y026348D01*
Y026861D01*
X016832Y026888D01*
X016834Y026886D01*
X016869Y026879D01*
X017049D01*
X017074Y026841D01*
X017134Y026802D01*
X017204Y026788D01*
X017274Y026802D01*
X017334Y026841D01*
X017373Y026901D01*
X017387Y026971D01*
X017373Y027041D01*
X017334Y027101D01*
X017274Y027141D01*
X017204Y027155D01*
X017134Y027141D01*
X017074Y027101D01*
X017049Y027063D01*
X016912D01*
Y034614D01*
X016905Y034649D01*
X016885Y034679D01*
X016769Y034794D01*
X016740Y034814D01*
X016705Y034821D01*
D02*
G37*
G36*
X008684Y026940D02*
X008358D01*
Y026733D01*
X008684D01*
Y026940D01*
D02*
G37*
G36*
X008258D02*
X007933D01*
Y026733D01*
X008258D01*
Y026940D01*
D02*
G37*
G36*
X010927Y026900D02*
X010256D01*
Y026465D01*
X010927D01*
Y026591D01*
X013266D01*
X013305Y026533D01*
X013364Y026493D01*
X013435Y026479D01*
X013505Y026493D01*
X013564Y026533D01*
X013604Y026593D01*
X013618Y026663D01*
X013604Y026733D01*
X013564Y026793D01*
X013505Y026833D01*
X013435Y026846D01*
X013364Y026833D01*
X013305Y026793D01*
X013293Y026774D01*
X010927D01*
Y026900D01*
D02*
G37*
G36*
X008684Y026633D02*
X008358D01*
Y026425D01*
X008684D01*
Y026633D01*
D02*
G37*
G36*
X008258D02*
X007933D01*
Y026425D01*
X008258D01*
Y026633D01*
D02*
G37*
G36*
X031901Y024692D02*
X031831Y024678D01*
X031771Y024638D01*
X031731Y024579D01*
X031717Y024508D01*
X031731Y024438D01*
X031771Y024379D01*
X031831Y024339D01*
X031901Y024325D01*
X031910Y024327D01*
X032029Y024208D01*
X032012Y024155D01*
X032011Y024156D01*
X031952Y024195D01*
X031882Y024209D01*
X031812Y024195D01*
X031752Y024155D01*
X031712Y024096D01*
X031698Y024025D01*
X031712Y023955D01*
X031752Y023896D01*
X031812Y023856D01*
X031882Y023842D01*
X031952Y023856D01*
X032012Y023896D01*
X032074Y023899D01*
X032714Y023258D01*
Y020789D01*
X032676Y020763D01*
X032636Y020704D01*
X032622Y020633D01*
X032636Y020563D01*
X032676Y020504D01*
X032736Y020464D01*
X032806Y020450D01*
X032869Y020462D01*
X032914Y020436D01*
X032916Y020435D01*
X032918Y020421D01*
X032918Y020399D01*
X032880Y020343D01*
X032866Y020273D01*
X032880Y020203D01*
X032920Y020143D01*
X032979Y020103D01*
X033050Y020089D01*
X033120Y020103D01*
X033179Y020143D01*
X033219Y020203D01*
X033233Y020273D01*
X033219Y020343D01*
X033179Y020403D01*
X033172Y020407D01*
Y023360D01*
X033163Y023407D01*
X033136Y023446D01*
X032083Y024500D01*
X032085Y024508D01*
X032071Y024579D01*
X032031Y024638D01*
X031971Y024678D01*
X031901Y024692D01*
D02*
G37*
G36*
X005693Y021124D02*
X005622Y021110D01*
X005563Y021070D01*
X005523Y021010D01*
X005509Y020940D01*
X005523Y020870D01*
X005563Y020810D01*
X005622Y020771D01*
X005693Y020757D01*
X005763Y020771D01*
X005822Y020810D01*
X005848Y020848D01*
X007705D01*
X007730Y020810D01*
X007790Y020770D01*
X007860Y020756D01*
X007930Y020770D01*
X007990Y020810D01*
X008030Y020870D01*
X008044Y020940D01*
X008030Y021010D01*
X007990Y021070D01*
X007930Y021110D01*
X007860Y021124D01*
X007790Y021110D01*
X007730Y021070D01*
X007705Y021032D01*
X005848D01*
X005822Y021070D01*
X005763Y021110D01*
X005693Y021124D01*
D02*
G37*
G36*
X013982Y029870D02*
X013912Y029856D01*
X013852Y029816D01*
X013813Y029756D01*
X013799Y029686D01*
X013813Y029616D01*
X013852Y029556D01*
X013886Y029534D01*
Y019930D01*
Y008982D01*
X013893Y008947D01*
X013913Y008917D01*
X014245Y008585D01*
X014275Y008565D01*
X014310Y008558D01*
X017345D01*
X017370Y008520D01*
X017430Y008480D01*
X017500Y008466D01*
X017570Y008480D01*
X017630Y008520D01*
X017670Y008580D01*
X017684Y008650D01*
X017670Y008720D01*
X017630Y008780D01*
X017570Y008820D01*
X017500Y008834D01*
X017430Y008820D01*
X017370Y008780D01*
X017345Y008742D01*
X014348D01*
X014070Y009020D01*
Y019838D01*
X014515D01*
X014540Y019800D01*
X014600Y019760D01*
X014670Y019746D01*
X014740Y019760D01*
X014800Y019800D01*
X014840Y019860D01*
X014854Y019930D01*
X014840Y020000D01*
X014800Y020060D01*
X014740Y020100D01*
X014670Y020114D01*
X014600Y020100D01*
X014540Y020060D01*
X014515Y020022D01*
X014070D01*
Y029528D01*
X014112Y029556D01*
X014152Y029616D01*
X014166Y029686D01*
X014152Y029756D01*
X014112Y029816D01*
X014052Y029856D01*
X013982Y029870D01*
D02*
G37*
G36*
X010070Y014554D02*
X010000Y014540D01*
X009940Y014500D01*
X009900Y014440D01*
X009886Y014370D01*
X009900Y014300D01*
X009940Y014240D01*
X010000Y014200D01*
X010070Y014186D01*
X010140Y014200D01*
X010200Y014240D01*
X010205Y014248D01*
X012909D01*
X013008Y014149D01*
Y009299D01*
X012999Y009293D01*
X012960Y009234D01*
X012946Y009163D01*
X012960Y009093D01*
X012999Y009034D01*
X013059Y008994D01*
X013129Y008980D01*
X013199Y008994D01*
X013259Y009034D01*
X013299Y009093D01*
X013313Y009163D01*
X013299Y009234D01*
X013259Y009293D01*
X013252Y009298D01*
Y014200D01*
X013243Y014247D01*
X013217Y014287D01*
X013047Y014457D01*
X013007Y014483D01*
X012960Y014492D01*
X010205D01*
X010200Y014500D01*
X010140Y014540D01*
X010070Y014554D01*
D02*
G37*
G36*
X023727Y012551D02*
X023656Y012537D01*
X023597Y012497D01*
X023557Y012438D01*
X023543Y012368D01*
X023557Y012297D01*
X023597Y012238D01*
X023656Y012198D01*
X023727Y012184D01*
X023797Y012198D01*
X023856Y012238D01*
X023861Y012245D01*
X031312D01*
X031405Y012152D01*
Y009205D01*
X031397Y009200D01*
X031357Y009141D01*
X031343Y009070D01*
X031357Y009000D01*
X031397Y008941D01*
X031457Y008901D01*
X031527Y008887D01*
X031597Y008901D01*
X031657Y008941D01*
X031696Y009000D01*
X031710Y009070D01*
X031696Y009141D01*
X031657Y009200D01*
X031649Y009205D01*
Y012203D01*
X031640Y012250D01*
X031613Y012290D01*
X031449Y012454D01*
X031409Y012481D01*
X031362Y012490D01*
X023861D01*
X023856Y012497D01*
X023797Y012537D01*
X023727Y012551D01*
D02*
G37*
G36*
X010927Y008195D02*
X010256D01*
Y007760D01*
X010927D01*
Y007824D01*
X010977Y007839D01*
X010978Y007838D01*
X011037Y007798D01*
X011108Y007784D01*
X011178Y007798D01*
X011237Y007838D01*
X011277Y007897D01*
X011291Y007968D01*
X011277Y008038D01*
X011237Y008097D01*
X011178Y008137D01*
X011108Y008151D01*
X011037Y008137D01*
X010978Y008097D01*
X010977Y008096D01*
X010927Y008112D01*
Y008195D01*
D02*
G37*
G36*
X008300Y008564D02*
X008230Y008550D01*
X008170Y008510D01*
X008130Y008450D01*
X008116Y008380D01*
X008130Y008310D01*
X008170Y008250D01*
X008178Y008245D01*
Y008195D01*
X007973D01*
Y007760D01*
X008644D01*
Y008195D01*
X008422D01*
Y008245D01*
X008430Y008250D01*
X008470Y008310D01*
X008484Y008380D01*
X008470Y008450D01*
X008430Y008510D01*
X008370Y008550D01*
X008300Y008564D01*
D02*
G37*
G36*
X010927Y007407D02*
X010256D01*
Y007272D01*
X010075D01*
X010050Y007310D01*
X009990Y007350D01*
X009920Y007364D01*
X009850Y007350D01*
X009790Y007310D01*
X009750Y007250D01*
X009736Y007180D01*
X009750Y007110D01*
X009790Y007050D01*
X009850Y007010D01*
X009920Y006996D01*
X009990Y007010D01*
X010050Y007050D01*
X010075Y007088D01*
X010256D01*
Y006973D01*
X010927D01*
Y007407D01*
D02*
G37*
G36*
X008644Y006620D02*
X007973D01*
Y006524D01*
X007924D01*
X007920Y006530D01*
X007860Y006570D01*
X007790Y006584D01*
X007720Y006570D01*
X007660Y006530D01*
X007620Y006470D01*
X007606Y006400D01*
X007620Y006330D01*
X007660Y006270D01*
X007720Y006230D01*
X007790Y006216D01*
X007860Y006230D01*
X007920Y006270D01*
X007965Y006249D01*
X007973Y006242D01*
Y006185D01*
X008644D01*
Y006620D01*
D02*
G37*
G36*
X010927D02*
X010256D01*
Y006185D01*
X010927D01*
Y006259D01*
X010977Y006275D01*
X010980Y006270D01*
X011040Y006230D01*
X011110Y006216D01*
X011180Y006230D01*
X011240Y006270D01*
X011280Y006330D01*
X011294Y006400D01*
X011280Y006470D01*
X011240Y006530D01*
X011180Y006570D01*
X011110Y006584D01*
X011040Y006570D01*
X010980Y006530D01*
X010977Y006525D01*
X010927Y006541D01*
Y006620D01*
D02*
G37*
G36*
X033110Y005171D02*
X032966Y005152D01*
X032832Y005096D01*
X032716Y005008D01*
X032628Y004893D01*
X032572Y004758D01*
X032553Y004614D01*
X032572Y004470D01*
X032628Y004336D01*
X032716Y004220D01*
X032832Y004132D01*
X032966Y004076D01*
X033110Y004057D01*
X033254Y004076D01*
X033389Y004132D01*
X033504Y004220D01*
X033593Y004336D01*
X033648Y004470D01*
X033667Y004614D01*
X033648Y004758D01*
X033593Y004893D01*
X033504Y005008D01*
X033389Y005096D01*
X033254Y005152D01*
X033110Y005171D01*
D02*
G37*
G36*
X003978D02*
X003834Y005152D01*
X003700Y005096D01*
X003585Y005008D01*
X003496Y004893D01*
X003440Y004758D01*
X003421Y004614D01*
X003440Y004470D01*
X003496Y004336D01*
X003585Y004220D01*
X003700Y004132D01*
X003834Y004076D01*
X003978Y004057D01*
X004122Y004076D01*
X004257Y004132D01*
X004372Y004220D01*
X004461Y004336D01*
X004516Y004470D01*
X004535Y004614D01*
X004516Y004758D01*
X004461Y004893D01*
X004372Y005008D01*
X004257Y005096D01*
X004122Y005152D01*
X003978Y005171D01*
D02*
G37*
%LPD*%
D16*
X010604Y032415D02*
D03*
X010104D02*
D03*
X009604D02*
D03*
X009104D02*
D03*
X008604D02*
D03*
X008104D02*
D03*
X007604D02*
D03*
X007104D02*
D03*
X006604D02*
D03*
X006104D02*
D03*
X010604Y033915D02*
D03*
X010104D02*
D03*
X009604D02*
D03*
X009104D02*
D03*
X008604D02*
D03*
X008104D02*
D03*
X007604D02*
D03*
X007104D02*
D03*
X006604D02*
D03*
X006104D02*
D03*
D17*
X008308Y007977D02*
D03*
X010592Y007190D02*
D03*
X008308Y006403D02*
D03*
X010592Y007977D02*
D03*
Y006403D02*
D03*
X008308Y028257D02*
D03*
X010592Y027470D02*
D03*
X008308Y026683D02*
D03*
X010592Y028257D02*
D03*
Y026683D02*
D03*
D21*
X015443Y030831D02*
X015658D01*
X015350Y030924D02*
Y031334D01*
Y030924D02*
X015443Y030831D01*
X009789Y031513D02*
X015171D01*
X010225Y031633D02*
X015220D01*
X015657Y031197D01*
X015171Y031513D02*
X015350Y031334D01*
X015165Y030855D02*
Y031349D01*
X009428Y031393D02*
X015121D01*
X015165Y031349D01*
X013978Y019930D02*
Y029682D01*
X013982Y029686D01*
X005690Y020940D02*
X007860D01*
X013978Y008982D02*
Y019930D01*
X014670D01*
X013978Y008982D02*
X014310Y008650D01*
X016340Y011717D02*
X018215Y009842D01*
Y008299D02*
Y009842D01*
Y008299D02*
X018347Y008168D01*
X018095Y007918D02*
X018153Y007860D01*
X016220Y011667D02*
X018095Y009792D01*
Y007918D02*
Y009792D01*
X010108Y031750D02*
X010225Y031633D01*
X010108Y031750D02*
Y032411D01*
X010104Y032415D02*
X010108Y032411D01*
X015621Y030487D02*
X015656Y030453D01*
X015533Y030487D02*
X015621D01*
X015165Y030855D02*
X015533Y030487D01*
X009616Y031686D02*
Y032403D01*
Y031686D02*
X009789Y031513D01*
X015045Y030634D02*
Y031238D01*
X008613Y031747D02*
X009087Y031273D01*
X015010D02*
X015045Y031238D01*
X009087Y031273D02*
X015010D01*
X009114Y031707D02*
X009428Y031393D01*
X009114Y031707D02*
Y032406D01*
X009604Y032415D02*
X009616Y032403D01*
X009104Y032415D02*
X009114Y032406D01*
X008604Y032415D02*
X008613Y032406D01*
Y031747D02*
Y032406D01*
X008604Y033915D02*
X008618Y033902D01*
X008653Y033260D02*
X016287D01*
X008618Y033295D02*
X008653Y033260D01*
X008618Y033295D02*
Y033902D01*
X008101Y033339D02*
X008300Y033140D01*
X008101Y033912D02*
X008104Y033915D01*
X008101Y033339D02*
Y033912D01*
X007604Y033915D02*
X007613Y033924D01*
X007648Y034610D02*
X016655D01*
X007613Y033924D02*
Y034574D01*
X007648Y034610D01*
X007100Y033920D02*
X007104Y033915D01*
X007100Y034607D02*
X007222Y034730D01*
X007100Y033920D02*
Y034607D01*
X004840Y032316D02*
X004944Y032420D01*
X006100D02*
X006104Y032415D01*
X004944Y032420D02*
X006100D01*
X005634Y033917D02*
X005640Y033912D01*
X006039D01*
X006070Y033943D01*
X006608Y033230D02*
Y033903D01*
X006569Y033942D02*
X006608Y033903D01*
X032077Y024025D02*
X032806Y023296D01*
X031882Y024025D02*
X032077D01*
X032806Y020633D02*
Y023296D01*
X016287Y033260D02*
X016340Y033207D01*
X016185Y033140D02*
X016220Y033104D01*
Y011667D02*
Y033104D01*
X008300Y033140D02*
X016185D01*
X007222Y034730D02*
X016705D01*
X016690Y026310D02*
Y034574D01*
X016655Y034610D02*
X016690Y034574D01*
X016705Y034730D02*
X016820Y034614D01*
Y027020D02*
Y034614D01*
X015045Y030634D02*
X015644Y030035D01*
X016340Y011717D02*
Y033207D01*
X014310Y008650D02*
X017500D01*
X010592Y006403D02*
X010594Y006400D01*
X011110D01*
X010592Y007977D02*
X010601Y007968D01*
X011108D01*
X010582Y007180D02*
X010592Y007190D01*
X009920Y007180D02*
X010582D01*
X018153Y007860D02*
X019420D01*
X019720Y008160D01*
X016820Y027020D02*
X016869Y026971D01*
X016810Y026190D02*
X017163D01*
X017187Y026214D01*
X016690Y026310D02*
X016810Y026190D01*
X016869Y026971D02*
X017204D01*
X006569Y033942D02*
X006570Y033943D01*
X004840Y031120D02*
Y032316D01*
X006570Y032443D02*
X006596Y032416D01*
Y031187D02*
Y032416D01*
X007070Y032443D02*
X007072Y032441D01*
Y031197D02*
Y032441D01*
X010592Y027470D02*
X010602Y027480D01*
X011040D01*
X008296Y028270D02*
X008308Y028257D01*
X007880Y028270D02*
X008296D01*
X010592Y026683D02*
X013415D01*
X010592Y026683D02*
X010592Y026683D01*
X013415D02*
X013435Y026663D01*
X010592Y028257D02*
X010609Y028240D01*
X013446D01*
X013447Y028240D01*
D22*
X031362Y012368D02*
X031527Y012203D01*
X023727Y012368D02*
X031362D01*
X031527Y009070D02*
Y012203D01*
X010604Y033915D02*
X010620Y033931D01*
X011045D01*
X033050Y020273D02*
Y023360D01*
X031901Y024508D02*
X033050Y023360D01*
X013130Y009164D02*
Y014200D01*
X013129Y009163D02*
X013130Y009164D01*
X010070Y014370D02*
X012960D01*
X013130Y014200D01*
X008300Y007986D02*
X008308Y007977D01*
X008300Y007986D02*
Y008380D01*
X008307Y006401D02*
X008308Y006403D01*
X007791Y006401D02*
X008307D01*
X007790Y006400D02*
X007791Y006401D01*
D23*
X003978Y004614D02*
D03*
X033110D02*
D03*
X003979Y034141D02*
D03*
X033110Y034121D02*
D03*
D24*
X008300Y008380D02*
D03*
X013982Y029686D02*
D03*
X004077Y007228D02*
D03*
X005527Y007248D02*
D03*
X005247Y024888D02*
D03*
X006017Y024918D02*
D03*
X005220Y030010D02*
D03*
X006087Y030008D02*
D03*
X005247Y028418D02*
D03*
X006047Y028388D02*
D03*
X005257Y026398D02*
D03*
X006597Y023688D02*
D03*
X006577Y022078D02*
D03*
X007597Y023718D02*
D03*
Y022088D02*
D03*
X005693Y020940D02*
D03*
X007860Y020940D02*
D03*
X026788Y008777D02*
D03*
X027877Y008798D02*
D03*
X031527Y009070D02*
D03*
X023727Y012368D02*
D03*
X017187Y026214D02*
D03*
X014670Y019930D02*
D03*
X006987Y015694D02*
D03*
X007001Y016240D02*
D03*
X007588Y015689D02*
D03*
X007580Y016240D02*
D03*
X008680Y016053D02*
D03*
X005634Y033917D02*
D03*
X006608Y033230D02*
D03*
X010100Y033674D02*
D03*
X011045Y033931D02*
D03*
X031882Y024025D02*
D03*
X031901Y024508D02*
D03*
X013129Y009163D02*
D03*
X010070Y014370D02*
D03*
X015644Y030035D02*
D03*
X015656Y030453D02*
D03*
X015657Y031197D02*
D03*
X015658Y030831D02*
D03*
X017500Y008650D02*
D03*
X011108Y007968D02*
D03*
X011110Y006400D02*
D03*
X009920Y007180D02*
D03*
X007790Y006400D02*
D03*
X018347Y008168D02*
D03*
X019720Y008160D02*
D03*
X007880Y028270D02*
D03*
X011040Y027480D02*
D03*
X013447Y028240D02*
D03*
X013435Y026663D02*
D03*
X004840Y031120D02*
D03*
X007072Y031197D02*
D03*
X006596Y031187D02*
D03*
X033050Y020273D02*
D03*
X017204Y026971D02*
D03*
X032806Y020633D02*
D03*
D25*
X031200Y033600D02*
D03*
X032400Y031200D02*
D03*
Y026400D02*
D03*
X031200Y019200D02*
D03*
X032400Y016800D02*
D03*
X031200Y014400D02*
D03*
X032400Y012000D02*
D03*
Y007200D02*
D03*
X028800Y033600D02*
D03*
X030000Y031200D02*
D03*
Y026400D02*
D03*
X028800Y019200D02*
D03*
X030000Y016800D02*
D03*
X028800Y014400D02*
D03*
X026400Y033600D02*
D03*
X027600Y031200D02*
D03*
X026400Y028800D02*
D03*
Y024000D02*
D03*
X027600Y021600D02*
D03*
X026400Y019200D02*
D03*
X027600Y016800D02*
D03*
X026400Y014400D02*
D03*
X027600Y007200D02*
D03*
X026400Y004800D02*
D03*
X024000Y033600D02*
D03*
X025200Y031200D02*
D03*
Y026400D02*
D03*
X024000Y019200D02*
D03*
X025200Y016800D02*
D03*
X024000Y014400D02*
D03*
Y009600D02*
D03*
X025200Y007200D02*
D03*
X024000Y004800D02*
D03*
X021600Y033600D02*
D03*
X022800Y031200D02*
D03*
X021600Y019200D02*
D03*
X022800Y016800D02*
D03*
X021600Y009600D02*
D03*
X019200Y033600D02*
D03*
Y028800D02*
D03*
Y019200D02*
D03*
X020400Y016800D02*
D03*
X019200Y014400D02*
D03*
X020400Y007200D02*
D03*
X016800Y024000D02*
D03*
Y019200D02*
D03*
X018000Y016800D02*
D03*
X016800Y014400D02*
D03*
X018000Y012000D02*
D03*
X016800Y009600D02*
D03*
Y004800D02*
D03*
X014400Y024000D02*
D03*
Y019200D02*
D03*
X015600Y016800D02*
D03*
X014400Y014400D02*
D03*
X015600Y012000D02*
D03*
X014400Y009600D02*
D03*
X015600Y007200D02*
D03*
X014400Y004800D02*
D03*
X013200Y021600D02*
D03*
X012000Y019200D02*
D03*
X013200Y016800D02*
D03*
X012000Y009600D02*
D03*
X013200Y007200D02*
D03*
X012000Y004800D02*
D03*
X009600Y024000D02*
D03*
Y019200D02*
D03*
X010800Y016800D02*
D03*
Y012000D02*
D03*
X008400Y016800D02*
D03*
Y012000D02*
D03*
X007200Y009600D02*
D03*
X004800Y033600D02*
D03*
X006000Y026400D02*
D03*
X004800Y019200D02*
D03*
X006000Y012000D02*
D03*
X004800Y009600D02*
D03*
Y004800D02*
D03*
M02*
