G04*
G04 #@! TF.GenerationSoftware,Altium Limited,Altium Designer,20.1.8 (145)*
G04*
G04 Layer_Color=128*
%FSAX24Y24*%
%MOIN*%
G70*
G04*
G04 #@! TF.SameCoordinates,548E75E3-62BA-4D27-8EBC-4AC5D718A5B1*
G04*
G04*
G04 #@! TF.FilePolarity,Positive*
G04*
G01*
G75*
%ADD69C,0.0020*%
D69*
X003585Y004614D02*
X004372D01*
X003978Y004220D02*
Y005008D01*
X032717Y004614D02*
X033504D01*
X033110Y004220D02*
Y005008D01*
X003585Y034141D02*
X004372D01*
X003979Y033747D02*
Y034534D01*
X032717Y034121D02*
X033504D01*
X033110Y033727D02*
Y034515D01*
X008240Y008380D02*
X008360D01*
X008300Y008320D02*
Y008440D01*
X013922Y029686D02*
X014042D01*
X013982Y029626D02*
Y029746D01*
X004017Y007228D02*
X004137D01*
X004077Y007168D02*
Y007288D01*
X005467Y007248D02*
X005587D01*
X005527Y007188D02*
Y007308D01*
X005187Y024888D02*
X005307D01*
X005247Y024828D02*
Y024948D01*
X005957Y024918D02*
X006077D01*
X006017Y024858D02*
Y024978D01*
X005160Y030010D02*
X005280D01*
X005220Y029950D02*
Y030070D01*
X006027Y030008D02*
X006147D01*
X006087Y029948D02*
Y030068D01*
X005187Y028418D02*
X005307D01*
X005247Y028358D02*
Y028478D01*
X005987Y028388D02*
X006107D01*
X006047Y028328D02*
Y028448D01*
X005197Y026398D02*
X005317D01*
X005257Y026338D02*
Y026458D01*
X006537Y023688D02*
X006657D01*
X006597Y023628D02*
Y023748D01*
X006517Y022078D02*
X006637D01*
X006577Y022018D02*
Y022138D01*
X007537Y023718D02*
X007657D01*
X007597Y023658D02*
Y023778D01*
X007537Y022088D02*
X007657D01*
X007597Y022028D02*
Y022148D01*
X005633Y020940D02*
X005753D01*
X005693Y020880D02*
Y021000D01*
X007800Y020940D02*
X007920D01*
X007860Y020880D02*
Y021000D01*
X026728Y008777D02*
X026848D01*
X026788Y008717D02*
Y008837D01*
X027817Y008798D02*
X027937D01*
X027877Y008738D02*
Y008858D01*
X031467Y009070D02*
X031587D01*
X031527Y009010D02*
Y009130D01*
X023667Y012368D02*
X023787D01*
X023727Y012308D02*
Y012428D01*
X017127Y026214D02*
X017247D01*
X017187Y026154D02*
Y026274D01*
X014610Y019930D02*
X014730D01*
X014670Y019870D02*
Y019990D01*
X006927Y015694D02*
X007047D01*
X006987Y015634D02*
Y015754D01*
X006941Y016240D02*
X007061D01*
X007001Y016180D02*
Y016300D01*
X007528Y015689D02*
X007648D01*
X007588Y015629D02*
Y015749D01*
X007520Y016240D02*
X007640D01*
X007580Y016180D02*
Y016300D01*
X008620Y016053D02*
X008740D01*
X008680Y015993D02*
Y016113D01*
X031125Y033600D02*
X031275D01*
X031200Y033525D02*
Y033675D01*
X032325Y031200D02*
X032475D01*
X032400Y031125D02*
Y031275D01*
X032325Y026400D02*
X032475D01*
X032400Y026325D02*
Y026475D01*
X031125Y019200D02*
X031275D01*
X031200Y019125D02*
Y019275D01*
X032325Y016800D02*
X032475D01*
X032400Y016725D02*
Y016875D01*
X031125Y014400D02*
X031275D01*
X031200Y014325D02*
Y014475D01*
X032325Y012000D02*
X032475D01*
X032400Y011925D02*
Y012075D01*
X032325Y007200D02*
X032475D01*
X032400Y007125D02*
Y007275D01*
X028725Y033600D02*
X028875D01*
X028800Y033525D02*
Y033675D01*
X029925Y031200D02*
X030075D01*
X030000Y031125D02*
Y031275D01*
X029925Y026400D02*
X030075D01*
X030000Y026325D02*
Y026475D01*
X028725Y019200D02*
X028875D01*
X028800Y019125D02*
Y019275D01*
X029925Y016800D02*
X030075D01*
X030000Y016725D02*
Y016875D01*
X028725Y014400D02*
X028875D01*
X028800Y014325D02*
Y014475D01*
X026325Y033600D02*
X026475D01*
X026400Y033525D02*
Y033675D01*
X027525Y031200D02*
X027675D01*
X027600Y031125D02*
Y031275D01*
X026325Y028800D02*
X026475D01*
X026400Y028725D02*
Y028875D01*
X026325Y024000D02*
X026475D01*
X026400Y023925D02*
Y024075D01*
X027525Y021600D02*
X027675D01*
X027600Y021525D02*
Y021675D01*
X026325Y019200D02*
X026475D01*
X026400Y019125D02*
Y019275D01*
X027525Y016800D02*
X027675D01*
X027600Y016725D02*
Y016875D01*
X026325Y014400D02*
X026475D01*
X026400Y014325D02*
Y014475D01*
X027525Y007200D02*
X027675D01*
X027600Y007125D02*
Y007275D01*
X026325Y004800D02*
X026475D01*
X026400Y004725D02*
Y004875D01*
X023925Y033600D02*
X024075D01*
X024000Y033525D02*
Y033675D01*
X025125Y031200D02*
X025275D01*
X025200Y031125D02*
Y031275D01*
X025125Y026400D02*
X025275D01*
X025200Y026325D02*
Y026475D01*
X023925Y019200D02*
X024075D01*
X024000Y019125D02*
Y019275D01*
X025125Y016800D02*
X025275D01*
X025200Y016725D02*
Y016875D01*
X023925Y014400D02*
X024075D01*
X024000Y014325D02*
Y014475D01*
X023925Y009600D02*
X024075D01*
X024000Y009525D02*
Y009675D01*
X025125Y007200D02*
X025275D01*
X025200Y007125D02*
Y007275D01*
X023925Y004800D02*
X024075D01*
X024000Y004725D02*
Y004875D01*
X021525Y033600D02*
X021675D01*
X021600Y033525D02*
Y033675D01*
X022725Y031200D02*
X022875D01*
X022800Y031125D02*
Y031275D01*
X021525Y019200D02*
X021675D01*
X021600Y019125D02*
Y019275D01*
X022725Y016800D02*
X022875D01*
X022800Y016725D02*
Y016875D01*
X021525Y009600D02*
X021675D01*
X021600Y009525D02*
Y009675D01*
X019125Y033600D02*
X019275D01*
X019200Y033525D02*
Y033675D01*
X019125Y028800D02*
X019275D01*
X019200Y028725D02*
Y028875D01*
X019125Y019200D02*
X019275D01*
X019200Y019125D02*
Y019275D01*
X020325Y016800D02*
X020475D01*
X020400Y016725D02*
Y016875D01*
X019125Y014400D02*
X019275D01*
X019200Y014325D02*
Y014475D01*
X020325Y007200D02*
X020475D01*
X020400Y007125D02*
Y007275D01*
X016725Y024000D02*
X016875D01*
X016800Y023925D02*
Y024075D01*
X016725Y019200D02*
X016875D01*
X016800Y019125D02*
Y019275D01*
X017925Y016800D02*
X018075D01*
X018000Y016725D02*
Y016875D01*
X016725Y014400D02*
X016875D01*
X016800Y014325D02*
Y014475D01*
X017925Y012000D02*
X018075D01*
X018000Y011925D02*
Y012075D01*
X016725Y009600D02*
X016875D01*
X016800Y009525D02*
Y009675D01*
X016725Y004800D02*
X016875D01*
X016800Y004725D02*
Y004875D01*
X014325Y024000D02*
X014475D01*
X014400Y023925D02*
Y024075D01*
X014325Y019200D02*
X014475D01*
X014400Y019125D02*
Y019275D01*
X015525Y016800D02*
X015675D01*
X015600Y016725D02*
Y016875D01*
X014325Y014400D02*
X014475D01*
X014400Y014325D02*
Y014475D01*
X015525Y012000D02*
X015675D01*
X015600Y011925D02*
Y012075D01*
X014325Y009600D02*
X014475D01*
X014400Y009525D02*
Y009675D01*
X015525Y007200D02*
X015675D01*
X015600Y007125D02*
Y007275D01*
X014325Y004800D02*
X014475D01*
X014400Y004725D02*
Y004875D01*
X013125Y021600D02*
X013275D01*
X013200Y021525D02*
Y021675D01*
X011925Y019200D02*
X012075D01*
X012000Y019125D02*
Y019275D01*
X013125Y016800D02*
X013275D01*
X013200Y016725D02*
Y016875D01*
X011925Y009600D02*
X012075D01*
X012000Y009525D02*
Y009675D01*
X013125Y007200D02*
X013275D01*
X013200Y007125D02*
Y007275D01*
X011925Y004800D02*
X012075D01*
X012000Y004725D02*
Y004875D01*
X009525Y024000D02*
X009675D01*
X009600Y023925D02*
Y024075D01*
X009525Y019200D02*
X009675D01*
X009600Y019125D02*
Y019275D01*
X010725Y016800D02*
X010875D01*
X010800Y016725D02*
Y016875D01*
X010725Y012000D02*
X010875D01*
X010800Y011925D02*
Y012075D01*
X008325Y016800D02*
X008475D01*
X008400Y016725D02*
Y016875D01*
X008325Y012000D02*
X008475D01*
X008400Y011925D02*
Y012075D01*
X007125Y009600D02*
X007275D01*
X007200Y009525D02*
Y009675D01*
X004725Y033600D02*
X004875D01*
X004800Y033525D02*
Y033675D01*
X005925Y026400D02*
X006075D01*
X006000Y026325D02*
Y026475D01*
X004725Y019200D02*
X004875D01*
X004800Y019125D02*
Y019275D01*
X005925Y012000D02*
X006075D01*
X006000Y011925D02*
Y012075D01*
X004725Y009600D02*
X004875D01*
X004800Y009525D02*
Y009675D01*
X004725Y004800D02*
X004875D01*
X004800Y004725D02*
Y004875D01*
X005574Y033917D02*
X005694D01*
X005634Y033857D02*
Y033977D01*
X006548Y033230D02*
X006668D01*
X006608Y033170D02*
Y033290D01*
X010040Y033674D02*
X010160D01*
X010100Y033614D02*
Y033734D01*
X010985Y033931D02*
X011105D01*
X011045Y033871D02*
Y033991D01*
X031822Y024025D02*
X031942D01*
X031882Y023965D02*
Y024085D01*
X031841Y024508D02*
X031961D01*
X031901Y024448D02*
Y024568D01*
X013069Y009163D02*
X013189D01*
X013129Y009103D02*
Y009223D01*
X010010Y014370D02*
X010130D01*
X010070Y014310D02*
Y014430D01*
X015584Y030035D02*
X015704D01*
X015644Y029975D02*
Y030095D01*
X015596Y030453D02*
X015716D01*
X015656Y030393D02*
Y030513D01*
X015597Y031197D02*
X015717D01*
X015657Y031137D02*
Y031257D01*
X015598Y030831D02*
X015718D01*
X015658Y030771D02*
Y030891D01*
X017440Y008650D02*
X017560D01*
X017500Y008590D02*
Y008710D01*
X011048Y007968D02*
X011168D01*
X011108Y007908D02*
Y008028D01*
X011050Y006400D02*
X011170D01*
X011110Y006340D02*
Y006460D01*
X009860Y007180D02*
X009980D01*
X009920Y007120D02*
Y007240D01*
X007730Y006400D02*
X007850D01*
X007790Y006340D02*
Y006460D01*
X018287Y008168D02*
X018407D01*
X018347Y008108D02*
Y008228D01*
X019660Y008160D02*
X019780D01*
X019720Y008100D02*
Y008220D01*
X007820Y028270D02*
X007940D01*
X007880Y028210D02*
Y028330D01*
X010980Y027480D02*
X011100D01*
X011040Y027420D02*
Y027540D01*
X013387Y028240D02*
X013507D01*
X013447Y028180D02*
Y028300D01*
X013375Y026663D02*
X013495D01*
X013435Y026603D02*
Y026723D01*
X004780Y031120D02*
X004900D01*
X004840Y031060D02*
Y031180D01*
X007012Y031197D02*
X007132D01*
X007072Y031137D02*
Y031257D01*
X006536Y031187D02*
X006656D01*
X006596Y031127D02*
Y031247D01*
X032990Y020273D02*
X033110D01*
X033050Y020213D02*
Y020333D01*
X017144Y026971D02*
X017264D01*
X017204Y026911D02*
Y027031D01*
X032746Y020633D02*
X032866D01*
X032806Y020573D02*
Y020693D01*
M02*
