M48
;Layer_Color=11367680
;FILE_FORMAT=2:4
INCH
;TYPE=PLATED
T1F00S00C0.0120
T2F00S00C0.0150
T3F00S00C0.0787
%
T01
X004077Y007228
X005527Y007248
X007790Y006400
X008300Y008380
X009920Y007180
X011110Y006400
X011108Y007968
X013129Y009163
X010070Y014370
X017500Y008650
X018347Y008168
X019720Y008160
X026788Y008777
X027877Y008798
X023727Y012368
X031527Y009070
X033050Y020273
X032806Y020633
X031882Y024025
X031901Y024508
X017187Y026214
X017204Y026971
X015644Y030035
X015656Y030453
X015658Y030831
X015657Y031197
X013982Y029686
X013447Y028240
X013435Y026663
X011040Y027480
X007880Y028270
X006047Y028388
X005247Y028418
X005220Y030010
X006087Y030008
X006596Y031187
X007072Y031197
X004840Y031120
X005257Y026398
X005247Y024888
X006017Y024918
X006597Y023688
X007597Y023718
Y022088
X006577Y022078
X005693Y020940
X007860Y020940
X007580Y016240
X007588Y015689
X006987Y015694
X007001Y016240
X008680Y016053
X014670Y019930
X011045Y033931
X010100Y033674
X006608Y033230
X005634Y033917
T02
X004800Y004800
Y009600
X007200
X008400Y012000
X010800
X012000Y009600
X014400
X015600Y012000
X014400Y014400
X015600Y007200
X013200
X014400Y004800
X012000
X006000Y012000
X018000
X019200Y014400
X016800
Y009600
X021600
X024000
X025200Y007200
X027600
X026400Y004800
X024000
X020400Y007200
X016800Y004800
X024000Y014400
X026400
X028800
X031200
X032400Y012000
Y007200
Y016800
Y026400
Y031200
X030000
X027600
X025200
X022800
X026400Y028800
X025200Y026400
X026400Y024000
X027600Y021600
X028800Y019200
X031200
X030000Y016800
X027600
X025200
X022800
X020400
X018000
X019200Y019200
X021600
X024000
X026400
X016800
Y024000
X019200Y028800
X030000Y026400
X014400Y024000
X013200Y021600
X014400Y019200
X012000
X009600
X010800Y016800
X013200
X015600
X008400
X004800Y019200
X006000Y026400
X009600Y024000
X004800Y033600
X019200
X021600
X024000
X026400
X028800
X031200
T03
X003978Y004614
X033110
X003979Y034141
X033110Y034121
M30
